<svg width="170" height="98" viewBox="0 0 170 98" fill="none" xmlns="http://www.w3.org/2000/svg">
<g filter="url(#filter0_d_2_1337)">
<path d="M170 0H0V97.4744H170V0Z" fill="white"/>
<path d="M22.8084 24.8271H18.6437L17.9138 26.5272C17.7339 26.945 17.644 27.2582 17.644 27.4613C17.644 27.6237 17.7206 27.7746 17.8743 27.8964C18.0327 28.0183 18.371 28.0996 18.8897 28.1344V28.4302H15.5025V28.1344C15.9515 28.059 16.2428 27.9544 16.3751 27.8267C16.6449 27.5715 16.9431 27.0551 17.2715 26.2776L21.055 17.4295H21.333L25.077 26.3762C25.3781 27.0957 25.6508 27.5656 25.8939 27.7803C26.1423 27.9892 26.4863 28.1112 26.925 28.1344V28.4302H22.6813V28.1344C23.1095 28.117 23.3979 28.0415 23.5458 27.9197C23.699 27.8036 23.7762 27.6526 23.7762 27.4786C23.7762 27.2465 23.67 26.8752 23.4588 26.3762L22.8084 24.8271ZM22.5862 24.241L20.7614 19.8954L18.8897 24.241H22.5862ZM29.7413 22.4887C30.5924 21.4618 31.4041 20.9513 32.1764 20.9513C32.5733 20.9513 32.9144 21.0499 33.1999 21.253C33.4853 21.4444 33.7128 21.7695 33.8816 22.2278C33.9982 22.5469 34.0563 23.0284 34.0563 23.684V26.7882C34.0563 27.2465 34.0934 27.5597 34.1677 27.7222C34.2257 27.8556 34.3179 27.9601 34.445 28.0355C34.5773 28.1052 34.8181 28.1457 35.1668 28.1457V28.4302H31.5736V28.1457H31.7244C32.0627 28.1457 32.2982 28.0937 32.4305 27.995C32.568 27.8906 32.6632 27.7339 32.716 27.5366C32.7369 27.4554 32.7473 27.2059 32.7473 26.7882V23.8118C32.7473 23.1503 32.6603 22.6744 32.4856 22.3785C32.3168 22.0768 32.0284 21.9261 31.6211 21.9261C30.9916 21.9261 30.365 22.2683 29.7413 22.9587V26.7882C29.7413 27.2813 29.7703 27.5832 29.8283 27.6993C29.9026 27.8559 30.0029 27.9661 30.13 28.0415C30.2623 28.1111 30.5263 28.1457 30.9232 28.1457V28.4302H27.3299V28.1457H27.4883C27.8585 28.1457 28.1068 28.0529 28.2339 27.8673C28.3662 27.6758 28.4323 27.3161 28.4323 26.7882V24.0903C28.4323 23.2199 28.4109 22.6862 28.3691 22.4947C28.332 22.309 28.271 22.1756 28.1863 22.106C28.1068 22.0422 27.9989 22.0074 27.8614 22.0074C27.7129 22.0074 27.5359 22.0421 27.3299 22.1233L27.2104 21.8391L29.4001 20.9513H29.7413V22.4887ZM37.6895 25.7787C37.2451 25.5641 36.9039 25.2622 36.666 24.8793C36.4281 24.4847 36.3092 24.0554 36.3092 23.5854C36.3092 22.866 36.579 22.2453 37.1186 21.7289C37.6628 21.2067 38.3585 20.9513 39.2044 20.9513C39.8972 20.9513 40.4977 21.1196 41.0054 21.4561H42.5441C42.7715 21.4561 42.9038 21.4677 42.9409 21.4793C42.9781 21.4909 43.0042 21.5141 43.0198 21.5431C43.0518 21.5895 43.068 21.6765 43.068 21.7983C43.068 21.9376 43.0547 22.0306 43.028 22.0828C43.0123 22.1118 42.9833 22.1291 42.9409 22.1465C42.9038 22.1639 42.7715 22.1697 42.5441 22.1697H41.6001C41.8966 22.5527 42.0445 23.0401 42.0445 23.6319C42.0445 24.3107 41.7852 24.8853 41.267 25.3668C40.7489 25.8484 40.0533 26.0921 39.1806 26.0921C38.8215 26.0921 38.4536 26.0397 38.0782 25.9295C37.8456 26.1325 37.6866 26.3123 37.6025 26.4632C37.523 26.6083 37.4835 26.736 37.4835 26.8462C37.4835 26.9333 37.5253 27.0204 37.61 27.1074C37.6999 27.1887 37.8717 27.2522 38.1258 27.287C38.2738 27.3103 38.6439 27.3277 39.2363 27.3451C40.326 27.3683 41.0315 27.4089 41.3541 27.4553C41.8461 27.525 42.2377 27.7048 42.5284 28.0007C42.8243 28.2966 42.9723 28.6622 42.9723 29.0974C42.9723 29.695 42.692 30.2519 42.1316 30.7799C41.3065 31.5516 40.2308 31.9346 38.9033 31.9346C37.8827 31.9346 37.0205 31.7084 36.3173 31.2442C35.9205 30.9831 35.722 30.7047 35.722 30.4204C35.722 30.2927 35.751 30.1649 35.8096 30.043C35.8996 29.8458 36.0847 29.5732 36.3649 29.2251C36.402 29.1787 36.6712 28.8886 37.1737 28.3664C36.8987 28.204 36.7032 28.0589 36.5871 27.9313C36.4757 27.7978 36.42 27.6528 36.42 27.4845C36.42 27.2988 36.4943 27.0841 36.6422 26.8346C36.796 26.5851 37.1447 26.2371 37.6895 25.7787ZM39.0698 21.3283C38.6782 21.3283 38.3504 21.485 38.0864 21.7983C37.8218 22.1116 37.6895 22.5875 37.6895 23.2316C37.6895 24.0729 37.8694 24.7169 38.2291 25.1753C38.5041 25.5292 38.8528 25.7031 39.2758 25.7031C39.6779 25.7031 40.0086 25.5524 40.2673 25.2507C40.5267 24.949 40.6561 24.4731 40.6561 23.8291C40.6561 22.9878 40.4739 22.3322 40.109 21.8564C39.8392 21.5025 39.4928 21.3283 39.0698 21.3283ZM37.61 28.4302C37.3617 28.6971 37.1737 28.9522 37.0472 29.1843C36.9202 29.4164 36.8563 29.6313 36.8563 29.8286C36.8563 30.078 37.0101 30.3041 37.3164 30.4898C37.8456 30.8205 38.6097 30.983 39.6094 30.983C40.5609 30.983 41.2618 30.8147 41.7115 30.4782C42.1658 30.1417 42.3932 29.788 42.3932 29.405C42.3932 29.1323 42.2586 28.9349 41.9888 28.8189C41.7138 28.7028 41.169 28.6333 40.355 28.6101C39.165 28.5811 38.25 28.5172 37.61 28.4302ZM45.0906 23.8987C45.0854 24.9779 45.347 25.825 45.8756 26.44C46.4048 27.055 47.0262 27.3567 47.7398 27.3567C48.2162 27.3567 48.6281 27.2291 48.9774 26.968C49.3319 26.707 49.6278 26.2545 49.8657 25.6221L50.1117 25.7787C50.0009 26.504 49.6783 27.1654 49.1439 27.763C48.6101 28.3548 47.9411 28.6506 47.137 28.6506C46.2644 28.6506 45.5165 28.3141 44.8922 27.6352C44.2737 26.9564 43.9638 26.0397 43.9638 24.8909C43.9638 23.6492 44.2812 22.6803 44.916 21.9898C45.5559 21.2936 46.3572 20.9396 47.3197 20.9396C48.1338 20.9396 48.8027 21.2126 49.3267 21.7522C49.85 22.2859 50.1117 22.9994 50.1117 23.8987H45.0906ZM45.0906 23.4404H48.454C48.4273 22.9762 48.3717 22.6455 48.2875 22.4598C48.1552 22.1581 47.9568 21.9261 47.6922 21.7578C47.4335 21.5896 47.1608 21.5026 46.8753 21.5026C46.4367 21.5026 46.0421 21.6767 45.6934 22.019C45.3494 22.3613 45.1486 22.8311 45.0906 23.4404ZM53.586 17.151V26.7882C53.586 27.2407 53.6179 27.5425 53.6811 27.6933C53.7501 27.8384 53.8534 27.9543 53.9909 28.0355C54.1284 28.1052 54.3849 28.1457 54.7603 28.1457V28.4302H51.1984V28.1457C51.5315 28.1457 51.7589 28.1111 51.8807 28.0415C52.0026 27.9719 52.0977 27.8617 52.1662 27.6993C52.2352 27.5426 52.2695 27.2349 52.2695 26.7882V20.1855C52.2695 19.3674 52.2509 18.8685 52.2138 18.6828C52.1766 18.4914 52.1163 18.3635 52.0316 18.2939C51.9521 18.2242 51.8488 18.1896 51.7223 18.1896C51.5848 18.1896 51.4102 18.2301 51.1984 18.3171L51.0638 18.0386L53.2291 17.151H53.586ZM57.4571 17.151C57.6793 17.151 57.8673 17.2323 58.0205 17.389C58.1789 17.5399 58.2583 17.7312 58.2583 17.9516C58.2583 18.1721 58.1789 18.3636 58.0205 18.5202C57.8673 18.6827 57.6793 18.7582 57.4571 18.7582C57.2349 18.7582 57.0446 18.6827 56.8862 18.5202C56.7272 18.3636 56.6483 18.1721 56.6483 17.9516C56.6483 17.7312 56.7249 17.5399 56.878 17.389C57.037 17.2323 57.2296 17.151 57.4571 17.151ZM58.1156 20.9513V26.7882C58.1156 27.2407 58.1475 27.5484 58.2108 27.6993C58.2798 27.8501 58.3773 27.9601 58.5044 28.0355C58.6366 28.1052 58.8745 28.1457 59.218 28.1457V28.4302H55.688V28.1457C56.0425 28.1457 56.2804 28.1111 56.4023 28.0415C56.5241 27.9719 56.6193 27.8617 56.6877 27.6993C56.762 27.5426 56.7991 27.2349 56.7991 26.7882V23.9857C56.7991 23.2024 56.7753 22.6919 56.7272 22.4598C56.6906 22.2858 56.632 22.1698 56.5531 22.106C56.4736 22.0422 56.3651 22.0074 56.2276 22.0074C56.0797 22.0074 55.8998 22.0421 55.688 22.1233L55.5772 21.8391L57.7663 20.9513H58.1156ZM62.2484 22.4887C63.1002 21.4618 63.9119 20.9513 64.6835 20.9513C65.0804 20.9513 65.4216 21.0499 65.707 21.253C65.9925 21.4444 66.2199 21.7695 66.3893 22.2278C66.5054 22.5469 66.564 23.0284 66.564 23.684V26.7882C66.564 27.2465 66.6005 27.5597 66.6748 27.7222C66.7328 27.8556 66.8256 27.9601 66.9527 28.0355C67.0844 28.1052 67.3252 28.1457 67.6745 28.1457V28.4302H64.0807V28.1457H64.2316C64.5698 28.1457 64.8054 28.0937 64.9377 27.995C65.0752 27.8906 65.1703 27.7339 65.2231 27.5366C65.2446 27.4554 65.255 27.2059 65.255 26.7882V23.8118C65.255 23.1503 65.1674 22.6744 64.9934 22.3785C64.8239 22.0768 64.5356 21.9261 64.1283 21.9261C63.4993 21.9261 62.8727 22.2683 62.2484 22.9587V26.7882C62.2484 27.2813 62.2774 27.5832 62.336 27.6993C62.4097 27.8559 62.5101 27.9661 62.6371 28.0415C62.7694 28.1111 63.034 28.1457 63.4303 28.1457V28.4302H59.8371V28.1457H59.9955C60.3657 28.1457 60.6146 28.0529 60.741 27.8673C60.8733 27.6758 60.9395 27.3161 60.9395 26.7882V24.0903C60.9395 23.2199 60.9186 22.6862 60.8762 22.4947C60.8391 22.309 60.7782 22.1756 60.6935 22.106C60.6146 22.0422 60.5061 22.0074 60.3685 22.0074C60.2206 22.0074 60.0431 22.0421 59.8371 22.1233L59.7181 21.8391L61.9073 20.9513H62.2484V22.4887ZM72.3701 27.3859C71.6245 27.9603 71.1569 28.2909 70.966 28.3837C70.6805 28.5172 70.3765 28.5809 70.0539 28.5809C69.5515 28.5809 69.1366 28.407 68.8088 28.0647C68.4862 27.7224 68.3249 27.2696 68.3249 26.7068C68.3249 26.3529 68.4038 26.0456 68.5628 25.7904C68.7798 25.4306 69.1552 25.0883 69.689 24.775C70.2285 24.4559 71.1221 24.073 72.3701 23.6146V23.3302C72.3701 22.6049 72.254 22.106 72.0214 21.8391C71.7939 21.5664 71.4609 21.4329 71.0217 21.4329C70.6887 21.4329 70.4241 21.5258 70.2285 21.7057C70.0278 21.8856 69.9268 22.0887 69.9268 22.3207L69.9431 22.7848C69.9431 23.0227 69.8793 23.2143 69.7528 23.3477C69.6309 23.4754 69.4696 23.5449 69.2689 23.5449C69.0728 23.5449 68.9115 23.4754 68.785 23.3361C68.6632 23.2027 68.6022 23.0111 68.6022 22.7732C68.6022 22.3206 68.8349 21.9028 69.3002 21.5198C69.7655 21.1427 70.4189 20.9513 71.2596 20.9513C71.9048 20.9513 72.4339 21.0557 72.8464 21.2762C73.158 21.4387 73.3883 21.6941 73.5363 22.0423C73.6315 22.2743 73.679 22.7383 73.679 23.4404V25.9062C73.679 26.6025 73.6924 27.0261 73.7191 27.1828C73.7452 27.3394 73.7875 27.4439 73.8455 27.4961C73.9094 27.5483 73.9807 27.5715 74.0602 27.5715C74.1444 27.5715 74.2186 27.5542 74.2819 27.5194C74.3933 27.4497 74.6073 27.2583 74.9247 26.9392V27.3859C74.3323 28.175 73.7666 28.5752 73.227 28.5752C72.9677 28.5752 72.7617 28.4823 72.6085 28.3024C72.4548 28.1225 72.3759 27.8153 72.3701 27.3859ZM72.3701 26.8695V24.1019C71.5717 24.4152 71.0559 24.6416 70.8233 24.775C70.4055 25.0071 70.1067 25.2506 69.9268 25.5059C69.7476 25.7554 69.6576 26.034 69.6576 26.3357C69.6576 26.7187 69.7713 27.0318 69.9988 27.287C70.2256 27.5365 70.4879 27.6585 70.7838 27.6585C71.1859 27.6585 71.7145 27.3974 72.3701 26.8695ZM82.3496 18.2593V22.4887H84.309C84.758 22.4887 85.0859 22.3902 85.2924 22.193C85.5036 21.9957 85.644 21.6013 85.7131 21.0153H86.0061V24.6532H85.7131C85.7073 24.2354 85.6521 23.9279 85.546 23.7364C85.4456 23.5391 85.3029 23.3939 85.1178 23.2953C84.9379 23.1967 84.6681 23.1446 84.309 23.1446H82.3496V26.5272C82.3496 27.0726 82.3838 27.4323 82.4523 27.6063C82.5057 27.7398 82.6165 27.8499 82.7859 27.9486C83.0186 28.0704 83.2617 28.1344 83.5152 28.1344H83.904V28.4302H79.2873V28.1344H79.6685C80.1123 28.1344 80.4349 28.0065 80.6363 27.7454C80.7627 27.5772 80.8266 27.1713 80.8266 26.5272V19.5764C80.8266 19.031 80.7918 18.6711 80.7233 18.497C80.6705 18.3636 80.562 18.2534 80.3978 18.1548C80.1704 18.0329 79.9273 17.9692 79.6685 17.9692H79.2873V17.6732H87.2912L87.3945 20.0404H87.1166C86.9791 19.5357 86.8178 19.17 86.6327 18.9322C86.4534 18.6943 86.2283 18.5261 85.9585 18.4216C85.6945 18.3114 85.282 18.2593 84.7215 18.2593H82.3496ZM89.7983 23.8987C89.7925 24.9779 90.0547 25.825 90.5833 26.44C91.1124 27.055 91.7333 27.3567 92.4475 27.3567C92.9233 27.3567 93.3358 27.2291 93.6851 26.968C94.039 26.707 94.3355 26.2545 94.5734 25.6221L94.8194 25.7787C94.708 26.504 94.3854 27.1654 93.8516 27.763C93.3172 28.3548 92.6482 28.6506 91.8447 28.6506C90.972 28.6506 90.2236 28.3141 89.5998 27.6352C88.9808 26.9564 88.6715 26.0397 88.6715 24.8909C88.6715 23.6492 88.9889 22.6803 89.6236 21.9898C90.2636 21.2936 91.0643 20.9396 92.0268 20.9396C92.8415 20.9396 93.5104 21.2126 94.0338 21.7522C94.5577 22.2859 94.8194 22.9994 94.8194 23.8987H89.7983ZM89.7983 23.4404H93.1612C93.135 22.9762 93.0793 22.6455 92.9946 22.4598C92.8623 22.1581 92.6645 21.9261 92.3999 21.7578C92.1406 21.5896 91.8684 21.5026 91.583 21.5026C91.1438 21.5026 90.7498 21.6767 90.4011 22.019C90.057 22.3613 89.8563 22.8311 89.7983 23.4404ZM97.0166 23.8987C97.0114 24.9779 97.2731 25.825 97.8016 26.44C98.3308 27.055 98.9522 27.3567 99.6658 27.3567C100.142 27.3567 100.555 27.2291 100.903 26.968C101.258 26.707 101.554 26.2545 101.792 25.6221L102.038 25.7787C101.927 26.504 101.604 27.1654 101.07 27.763C100.536 28.3548 99.8672 28.6506 99.063 28.6506C98.1904 28.6506 97.4425 28.3141 96.8182 27.6352C96.1997 26.9564 95.8904 26.0397 95.8904 24.8909C95.8904 23.6492 96.2072 22.6803 96.842 21.9898C97.4819 21.2936 98.2832 20.9396 99.2458 20.9396C100.06 20.9396 100.729 21.2126 101.253 21.7522C101.776 22.2859 102.038 22.9994 102.038 23.8987H97.0166ZM97.0166 23.4404H100.38C100.353 22.9762 100.298 22.6455 100.214 22.4598C100.081 22.1581 99.8828 21.9261 99.6182 21.7578C99.3595 21.5896 99.0868 21.5026 98.8013 21.5026C98.3627 21.5026 97.9687 21.6767 97.6194 22.019C97.276 22.3613 97.0746 22.8311 97.0166 23.4404ZM105.005 22.4193C105.708 21.4388 106.467 20.9513 107.281 20.9513C108.027 20.9513 108.678 21.2703 109.233 21.9085C109.788 22.5468 110.065 23.4113 110.065 24.5195C110.065 25.8075 109.637 26.8461 108.78 27.6352C108.045 28.3141 107.226 28.6506 106.321 28.6506C105.898 28.6506 105.467 28.5754 105.029 28.4245C104.595 28.2679 104.151 28.0413 103.696 27.7338V20.2028C103.696 19.3789 103.674 18.8743 103.632 18.6828C103.595 18.4914 103.535 18.3635 103.45 18.2939C103.365 18.2242 103.26 18.1896 103.133 18.1896C102.985 18.1896 102.8 18.2301 102.577 18.3171L102.466 18.0386L104.647 17.151H105.005V22.4193ZM105.005 22.9239V27.2698C105.274 27.5367 105.552 27.7398 105.837 27.8732C106.128 28.0067 106.425 28.0704 106.726 28.0704C107.207 28.0704 107.654 27.8094 108.067 27.2814C108.484 26.7534 108.693 25.9817 108.693 24.9722C108.693 24.038 108.484 23.3244 108.067 22.8313C107.654 22.3265 107.184 22.0768 106.654 22.0768C106.374 22.0768 106.094 22.1465 105.814 22.2916C105.602 22.396 105.333 22.6048 105.005 22.9239ZM110.724 21.166H114.111V21.4561H113.945C113.707 21.4561 113.527 21.5082 113.405 21.6184C113.289 21.7171 113.23 21.8449 113.23 21.9958C113.23 22.2047 113.318 22.489 113.492 22.8545L115.261 26.5213L116.887 22.5063C116.977 22.2858 117.022 22.0712 117.022 21.8624C117.022 21.7695 117.004 21.694 116.967 21.6476C116.925 21.5896 116.858 21.5432 116.769 21.5142C116.679 21.4736 116.52 21.4561 116.293 21.4561V21.166H118.657V21.4561C118.461 21.4793 118.31 21.5201 118.205 21.5839C118.098 21.6477 117.982 21.7693 117.855 21.9434C117.808 22.013 117.718 22.2163 117.585 22.5528L114.626 29.8053C114.341 30.5074 113.966 31.0352 113.5 31.3949C113.04 31.7547 112.596 31.9346 112.167 31.9346C111.855 31.9346 111.599 31.8476 111.398 31.6678C111.197 31.4879 111.097 31.2788 111.097 31.0468C111.097 30.8263 111.168 30.6466 111.311 30.5074C111.459 30.3739 111.66 30.3102 111.914 30.3102C112.089 30.3102 112.326 30.3681 112.628 30.4841C112.839 30.5654 112.972 30.6059 113.024 30.6059C113.183 30.6059 113.355 30.5188 113.54 30.3564C113.731 30.1939 113.921 29.875 114.111 29.405L114.626 28.1457L112.017 22.663C111.938 22.5005 111.811 22.2973 111.636 22.0536C111.504 21.8679 111.395 21.7405 111.311 21.6825C111.189 21.5954 110.994 21.5199 110.724 21.4561V21.166Z" fill="#1F1F1F"/>
<path d="M16.1645 47.809C16.0345 47.5885 15.9463 47.3564 15.8999 47.1185C15.8535 46.8749 15.8489 46.6312 15.886 46.3933C15.9231 46.1554 16.0003 45.929 16.1181 45.7085C16.2359 45.4939 16.3919 45.2967 16.5869 45.1227L16.8375 45.2793C16.884 45.3084 16.9043 45.3491 16.8979 45.3955C16.895 45.4361 16.8811 45.4707 16.8561 45.4998C16.7755 45.5984 16.7058 45.7145 16.6472 45.8595C16.5915 46.0046 16.5561 46.1555 16.5405 46.3179C16.5248 46.4804 16.5329 46.6487 16.5637 46.8228C16.5944 46.991 16.6583 47.1592 16.754 47.3217C16.794 47.3855 16.805 47.4434 16.7865 47.4956C16.7708 47.5478 16.7337 47.5828 16.6751 47.6118L16.1645 47.809ZM17.5756 47.809C17.4456 47.5885 17.3574 47.3564 17.311 47.1185C17.2646 46.8749 17.2599 46.6312 17.2971 46.3933C17.3342 46.1554 17.4114 45.929 17.5291 45.7085C17.6469 45.4939 17.803 45.2967 17.998 45.1227L18.2486 45.2793C18.295 45.3084 18.3153 45.3491 18.3089 45.3955C18.306 45.4361 18.2921 45.4707 18.2672 45.4998C18.1865 45.5984 18.1169 45.7145 18.0583 45.8595C18.0026 46.0046 17.9672 46.1555 17.9515 46.3179C17.9359 46.4804 17.944 46.6487 17.9747 46.8228C18.0055 46.991 18.0693 47.1592 18.165 47.3217C18.2051 47.3855 18.2161 47.4434 18.1975 47.4956C18.1819 47.5478 18.1447 47.5828 18.0861 47.6118L17.5756 47.809ZM23.3892 51.4644V52.2186H19.6156V45.5694H20.5114V51.4644H23.3892ZM25.0619 47.5189V52.2186H24.2357V47.5189H25.0619ZM25.2383 46.0394C25.2383 46.1207 25.2209 46.1962 25.1873 46.2658C25.1559 46.3354 25.113 46.3992 25.0573 46.4514C25.0045 46.5036 24.9413 46.5498 24.867 46.5789C24.7956 46.6079 24.7196 46.6253 24.6395 46.6253C24.5589 46.6253 24.4829 46.6079 24.4121 46.5789C24.3436 46.5498 24.2833 46.5036 24.2311 46.4514C24.1783 46.3992 24.1365 46.3354 24.1058 46.2658C24.0744 46.1962 24.0593 46.1207 24.0593 46.0394C24.0593 45.9582 24.0744 45.8827 24.1058 45.8131C24.1365 45.7377 24.1783 45.6738 24.2311 45.6216C24.2833 45.5694 24.3436 45.5231 24.4121 45.4941C24.4829 45.4593 24.5589 45.4476 24.6395 45.4476C24.7196 45.4476 24.7956 45.4593 24.867 45.4941C24.9413 45.5231 25.0045 45.5694 25.0573 45.6216C25.113 45.6738 25.1559 45.7377 25.1873 45.8131C25.2209 45.8827 25.2383 45.9582 25.2383 46.0394ZM33.0926 51.4876L33.0879 52.2186H28.9894V45.5694H33.0879V46.3004H29.8898V48.511H32.4799V49.213H29.8898V51.4876H33.0926ZM37.8195 47.5189V52.2186H37.3275C37.2097 52.2186 37.1354 52.1607 37.1047 52.0446L37.0397 51.5398C36.8355 51.7661 36.6063 51.9516 36.3527 52.0908C36.0986 52.2242 35.8079 52.2939 35.4801 52.2939C35.2231 52.2939 34.9956 52.2535 34.7978 52.1664C34.6028 52.0794 34.4386 51.9575 34.3058 51.8066C34.1723 51.65 34.0719 51.4642 34.0041 51.2437C33.9391 51.0232 33.9066 50.7797 33.9066 50.5128V47.5189H34.7328V50.5128C34.7328 50.8725 34.8129 51.1453 34.9742 51.3426C35.1378 51.5341 35.3873 51.6327 35.7215 51.6327C35.9657 51.6327 36.1932 51.5747 36.4038 51.4644C36.6173 51.3426 36.8134 51.1857 36.9933 50.9769V47.5189H37.8195ZM39.914 48.4589C40.0626 48.1397 40.2447 47.8846 40.4617 47.7047C40.6782 47.5248 40.9427 47.4319 41.2555 47.4319C41.3541 47.4319 41.4487 47.4435 41.5386 47.4667C41.6314 47.4899 41.7132 47.5189 41.7846 47.5653L41.7243 48.186C41.7057 48.2615 41.6593 48.3022 41.585 48.3022C41.5415 48.3022 41.4783 48.2907 41.3947 48.2733C41.3112 48.2559 41.2166 48.2441 41.1116 48.2441C40.963 48.2441 40.8296 48.2672 40.7124 48.3079C40.5975 48.3543 40.4942 48.4183 40.4014 48.5053C40.3115 48.5865 40.2297 48.6968 40.1554 48.8187C40.084 48.9463 40.019 49.0854 39.9604 49.2479V52.2186H39.1296V47.5189H39.603C39.6924 47.5189 39.7545 47.5363 39.7887 47.5653C39.8224 47.6001 39.8456 47.6582 39.8583 47.7452L39.914 48.4589ZM44.3027 47.4435C44.6462 47.4435 44.9554 47.5015 45.231 47.6118C45.506 47.7278 45.7416 47.8902 45.9366 48.0991C46.1315 48.3137 46.28 48.5692 46.3821 48.8651C46.4872 49.1668 46.54 49.4974 46.54 49.8629C46.54 50.2342 46.4872 50.5707 46.3821 50.8666C46.28 51.1626 46.1315 51.4179 45.9366 51.6268C45.7416 51.8414 45.506 52.0038 45.231 52.114C44.9554 52.2301 44.6462 52.2823 44.3027 52.2823C43.9557 52.2823 43.6436 52.2301 43.3651 52.114C43.0895 52.0038 42.8545 51.8414 42.6596 51.6268C42.4646 51.4179 42.3143 51.1626 42.2093 50.8666C42.1072 50.5707 42.0561 50.2342 42.0561 49.8629C42.0561 49.4974 42.1072 49.1668 42.2093 48.8651C42.3143 48.5692 42.4646 48.3137 42.6596 48.0991C42.8545 47.8902 43.0895 47.7278 43.3651 47.6118C43.6436 47.5015 43.9557 47.4435 44.3027 47.4435ZM44.3027 51.6384C44.7669 51.6384 45.1132 51.4818 45.3424 51.1743C45.571 50.861 45.6859 50.4259 45.6859 49.8689C45.6859 49.3119 45.571 48.8709 45.3424 48.5634C45.1132 48.2501 44.7669 48.0934 44.3027 48.0934C44.0671 48.0934 43.8617 48.134 43.6854 48.2152C43.5119 48.2906 43.3662 48.4067 43.249 48.5634C43.1342 48.7142 43.0477 48.8999 42.9891 49.1204C42.9334 49.3408 42.9056 49.5904 42.9056 49.8689C42.9056 50.4259 43.0199 50.861 43.249 51.1743C43.4811 51.4818 43.8321 51.6384 44.3027 51.6384ZM48.4187 51.0871C48.5701 51.2901 48.7355 51.4353 48.9153 51.5165C49.0946 51.6036 49.2959 51.644 49.5187 51.644C49.958 51.644 50.295 51.4876 50.5306 51.1743C50.7656 50.861 50.8834 50.4141 50.8834 49.8397C50.8834 49.5322 50.8555 49.2654 50.7998 49.0507C50.747 48.8302 50.6699 48.6502 50.5677 48.511C50.4656 48.3659 50.3403 48.2615 50.1918 48.1977C50.0432 48.1338 49.8744 48.0991 49.6858 48.0991C49.4166 48.0991 49.1799 48.1631 48.9757 48.2849C48.7743 48.4126 48.5887 48.5864 48.4187 48.8127V51.0871ZM48.3769 48.2441C48.5747 48.0004 48.8039 47.8033 49.0639 47.6582C49.3238 47.5074 49.6209 47.4319 49.9551 47.4319C50.2272 47.4319 50.4732 47.4841 50.6931 47.5885C50.9124 47.693 51.0998 47.8437 51.2547 48.0526C51.409 48.2499 51.5286 48.4994 51.6121 48.8011C51.6957 49.1028 51.7374 49.4451 51.7374 49.8397C51.7374 50.182 51.691 50.5069 51.5982 50.8086C51.5054 51.1045 51.3707 51.3656 51.1944 51.5803C51.0209 51.8008 50.8074 51.9691 50.5538 52.0968C50.3032 52.2244 50.02 52.2823 49.7044 52.2823C49.4166 52.2823 49.1689 52.2359 48.9617 52.1373C48.7575 52.0386 48.5765 51.9054 48.4187 51.7313V53.8085H47.5878V47.5189H48.0845C48.2017 47.5189 48.2748 47.5711 48.3026 47.6871L48.3769 48.2441ZM55.3393 50.1009C54.9587 50.1125 54.6338 50.1471 54.3646 50.1935C54.0989 50.2399 53.8807 50.3039 53.7101 50.3794C53.543 50.4606 53.4212 50.5475 53.3434 50.6519C53.2692 50.7621 53.232 50.8784 53.232 51.006C53.232 51.1337 53.2524 51.238 53.2924 51.325C53.333 51.4179 53.387 51.4934 53.4548 51.5514C53.5262 51.6036 53.608 51.65 53.7008 51.6732C53.7972 51.7022 53.8993 51.7137 54.0072 51.7137C54.1528 51.7137 54.2857 51.6964 54.4064 51.6732C54.5271 51.6384 54.6402 51.5978 54.7452 51.5398C54.8537 51.4876 54.9558 51.418 55.0516 51.3426C55.1508 51.2614 55.2465 51.1741 55.3393 51.0754V50.1009ZM52.6704 48.1804C52.9303 47.9309 53.2106 47.7451 53.5105 47.6174C53.8111 47.4956 54.1436 47.4319 54.5085 47.4319C54.7719 47.4319 55.0051 47.4783 55.2094 47.5653C55.4136 47.6523 55.5854 47.7685 55.7246 47.9251C55.8639 48.0818 55.9695 48.2673 56.0402 48.4878C56.1116 48.7082 56.147 48.9461 56.147 49.213V52.2186H55.7803C55.7002 52.2186 55.6382 52.2069 55.5946 52.1837C55.5517 52.1547 55.5175 52.1026 55.4925 52.0214L55.3997 51.5803C55.2761 51.6905 55.1554 51.795 55.0376 51.882C54.9204 51.969 54.7963 52.0445 54.6663 52.1084C54.5363 52.1664 54.3971 52.2128 54.2486 52.2418C54.1035 52.2766 53.9411 52.2939 53.7612 52.2939C53.579 52.2939 53.4073 52.2708 53.246 52.2186C53.0853 52.1664 52.9443 52.091 52.8236 51.9865C52.7064 51.8821 52.6118 51.7544 52.5404 51.6035C52.4726 51.4411 52.4383 51.2554 52.4383 51.0465C52.4383 50.8609 52.4894 50.6811 52.5915 50.5128C52.6936 50.3387 52.8595 50.1819 53.0882 50.0485C53.3173 49.915 53.6161 49.8108 53.984 49.7238C54.3524 49.6368 54.8044 49.5904 55.3393 49.5788V49.213C55.3393 48.8475 55.2604 48.5692 55.1026 48.3835C54.9448 48.1978 54.7145 48.0991 54.411 48.0991C54.2068 48.0991 54.0351 48.1282 53.8958 48.1804C53.76 48.2326 53.6405 48.2847 53.5384 48.3543C53.4398 48.4123 53.3527 48.4704 53.2785 48.5226C53.2077 48.5748 53.1363 48.598 53.0649 48.598C53.0092 48.598 52.9617 48.5865 52.9211 48.5574C52.881 48.5226 52.8468 48.4879 52.8189 48.4472L52.6704 48.1804ZM58.1858 48.1977C58.288 48.0816 58.3959 47.9831 58.5108 47.8903C58.6251 47.7974 58.7457 47.7161 58.8728 47.6523C59.0028 47.5827 59.1385 47.5304 59.2813 47.4956C59.4263 47.4608 59.583 47.4435 59.7501 47.4435C60.0065 47.4435 60.2328 47.4842 60.4277 47.5713C60.6256 47.6583 60.7898 47.7743 60.9198 47.9367C61.0526 48.0876 61.153 48.279 61.2215 48.4937C61.2893 48.7142 61.3236 48.9577 61.3236 49.2246V52.2186H60.4927V49.2246C60.4927 48.8707 60.4103 48.5922 60.2467 48.4008C60.0854 48.1977 59.8394 48.0991 59.5087 48.0991C59.2639 48.0991 59.0353 48.1629 58.8217 48.279C58.6111 48.395 58.4162 48.5574 58.2369 48.7546V52.2186H57.406V47.5189H57.9027C58.0199 47.5189 58.093 47.5711 58.1209 47.6871L58.1858 48.1977ZM65.8115 45.3839V52.2186H64.9853V45.3839H65.8115ZM68.0238 47.5189V52.2186H67.1976V47.5189H68.0238ZM68.2002 46.0394C68.2002 46.1207 68.1833 46.1962 68.1491 46.2658C68.1184 46.3354 68.0748 46.3992 68.0191 46.4514C67.9669 46.5036 67.9031 46.5498 67.8288 46.5789C67.7581 46.6079 67.682 46.6253 67.6014 46.6253C67.5213 46.6253 67.4453 46.6079 67.374 46.5789C67.3061 46.5498 67.2457 46.5036 67.1929 46.4514C67.1407 46.3992 67.0989 46.3354 67.0676 46.2658C67.0369 46.1962 67.0212 46.1207 67.0212 46.0394C67.0212 45.9582 67.0369 45.8827 67.0676 45.8131C67.0989 45.7377 67.1407 45.6738 67.1929 45.6216C67.2457 45.5694 67.3061 45.5231 67.374 45.4941C67.4453 45.4593 67.5213 45.4476 67.6014 45.4476C67.682 45.4476 67.7581 45.4593 67.8288 45.4941C67.9031 45.5231 67.9669 45.5694 68.0191 45.6216C68.0748 45.6738 68.1184 45.7377 68.1491 45.8131C68.1833 45.8827 68.2002 45.9582 68.2002 46.0394ZM70.1613 48.1977C70.2634 48.0816 70.3719 47.9831 70.4862 47.8903C70.6005 47.7974 70.7212 47.7161 70.8482 47.6523C70.9782 47.5827 71.1145 47.5304 71.2567 47.4956C71.4023 47.4608 71.5584 47.4435 71.7255 47.4435C71.9825 47.4435 72.2082 47.4842 72.4032 47.5713C72.601 47.6583 72.7652 47.7743 72.8952 47.9367C73.028 48.0876 73.129 48.279 73.1969 48.4937C73.2648 48.7142 73.299 48.9577 73.299 49.2246V52.2186H72.4682V49.2246C72.4682 48.8707 72.3863 48.5922 72.2222 48.4008C72.0614 48.1977 71.8154 48.0991 71.4841 48.0991C71.2399 48.0991 71.0107 48.1629 70.7972 48.279C70.5866 48.395 70.3916 48.5574 70.2123 48.7546V52.2186H69.3815V47.5189H69.8781C69.9959 47.5189 70.0684 47.5711 70.0963 47.6871L70.1613 48.1977ZM76.1966 49.921C76.3637 49.921 76.5104 49.8977 76.6375 49.8513C76.7646 49.8049 76.8713 49.7411 76.9578 49.6541C77.0442 49.5729 77.1092 49.4741 77.1527 49.3581C77.1962 49.242 77.2177 49.1146 77.2177 48.9753C77.2177 48.6852 77.1295 48.459 76.9531 48.2849C76.7797 48.1166 76.5278 48.0294 76.1966 48.0294C75.8624 48.0294 75.6071 48.1166 75.4307 48.2849C75.2572 48.459 75.1708 48.6852 75.1708 48.9753C75.1708 49.1146 75.1922 49.242 75.2357 49.3581C75.2822 49.4741 75.3489 49.5729 75.4353 49.6541C75.5218 49.7411 75.6285 49.8049 75.7556 49.8513C75.8827 49.8977 76.0295 49.921 76.1966 49.921ZM77.6865 52.4738C77.6865 52.3578 77.654 52.265 77.589 52.1953C77.5241 52.1257 77.4359 52.0677 77.3245 52.0271C77.216 51.9864 77.0895 51.9574 76.9439 51.9458C76.7982 51.9283 76.6439 51.911 76.4797 51.9052C76.319 51.8936 76.1548 51.8821 75.9877 51.8763C75.8206 51.8647 75.6599 51.8531 75.5049 51.8299C75.3315 51.9111 75.1893 52.0096 75.0779 52.1373C74.9694 52.2533 74.9155 52.3983 74.9155 52.5608C74.9155 52.6652 74.9416 52.764 74.9944 52.8569C75.0501 52.9497 75.1336 53.0251 75.245 53.0889C75.3564 53.1585 75.4957 53.2106 75.6628 53.2512C75.8328 53.2918 76.0324 53.3093 76.2615 53.3093C76.4843 53.3093 76.6839 53.2918 76.8603 53.2512C77.0367 53.2106 77.1852 53.1527 77.3059 53.0773C77.4295 53.0018 77.5241 52.9148 77.589 52.8104C77.654 52.7118 77.6865 52.5957 77.6865 52.4738ZM78.5267 47.7047V48.0064C78.5267 48.1109 78.4617 48.1746 78.3317 48.2036L77.7979 48.2733C77.9029 48.4764 77.9557 48.7026 77.9557 48.9521C77.9557 49.1784 77.9111 49.3873 77.8211 49.5788C77.7347 49.7644 77.614 49.921 77.4591 50.0544C77.3042 50.1879 77.1185 50.2922 76.9021 50.3618C76.6857 50.4314 76.4501 50.4663 76.1966 50.4663C75.9767 50.4663 75.7695 50.4432 75.5746 50.391C75.4754 50.449 75.3999 50.5185 75.3471 50.5882C75.2943 50.6578 75.2682 50.7273 75.2682 50.797C75.2682 50.9072 75.3129 50.9945 75.4028 51.0525C75.4957 51.1105 75.6163 51.1511 75.7649 51.1743C75.9134 51.1975 76.0823 51.2147 76.2708 51.2205C76.4629 51.2263 76.6578 51.2379 76.8557 51.2553C77.057 51.2669 77.2519 51.2902 77.4405 51.325C77.6326 51.354 77.8026 51.4122 77.9511 51.4876C78.0996 51.5689 78.2186 51.6731 78.3085 51.8123C78.4013 51.9458 78.4477 52.1199 78.4477 52.3404C78.4477 52.5377 78.3967 52.7351 78.2946 52.9265C78.1954 53.1122 78.0515 53.2804 77.8629 53.4254C77.6743 53.5763 77.4422 53.6923 77.1667 53.7793C76.8945 53.8663 76.5865 53.9127 76.243 53.9127C75.8995 53.9127 75.5995 53.8781 75.3425 53.8085C75.0855 53.7446 74.8719 53.6517 74.7019 53.5356C74.5319 53.4196 74.4031 53.292 74.3167 53.1353C74.2331 52.9903 74.1914 52.8335 74.1914 52.671C74.1914 52.4389 74.2639 52.2416 74.4095 52.0792C74.5551 51.9167 74.7547 51.7893 75.0083 51.6964C74.869 51.6326 74.7576 51.5513 74.6741 51.4469C74.5934 51.3424 74.5534 51.2032 74.5534 51.0233C74.5534 50.9595 74.5656 50.8899 74.5906 50.8145C74.6155 50.7449 74.6526 50.6694 74.7019 50.5998C74.7547 50.5244 74.818 50.4548 74.8923 50.391C74.9665 50.3272 75.053 50.269 75.1522 50.2168C74.9201 50.0891 74.7391 49.9152 74.6091 49.7006C74.4791 49.4859 74.4142 49.2364 74.4142 48.9521C74.4142 48.72 74.4577 48.5168 74.5441 48.3311C74.6341 48.1396 74.7576 47.9832 74.9155 47.8498C75.0733 47.7163 75.2607 47.6175 75.4771 47.5421C75.697 47.4725 75.9366 47.4375 76.1966 47.4375C76.4008 47.4375 76.5911 47.4608 76.7675 47.5072C76.9439 47.5479 77.1046 47.6177 77.2502 47.7047H78.5267ZM83.2478 47.5189V52.2186H82.7558C82.638 52.2186 82.5637 52.1607 82.533 52.0446L82.468 51.5398C82.2638 51.7661 82.0346 51.9516 81.781 52.0908C81.5269 52.2242 81.2362 52.2939 80.9084 52.2939C80.6514 52.2939 80.4239 52.2535 80.2261 52.1664C80.0311 52.0794 79.8669 51.9575 79.7341 51.8066C79.6006 51.65 79.5002 51.4642 79.4324 51.2437C79.3674 51.0232 79.3349 50.7797 79.3349 50.5128V47.5189H80.1611V50.5128C80.1611 50.8725 80.2412 51.1453 80.4025 51.3426C80.5661 51.5341 80.8156 51.6327 81.1498 51.6327C81.394 51.6327 81.6215 51.5747 81.8321 51.4644C82.0456 51.3426 82.2417 51.1857 82.4216 50.9769V47.5189H83.2478ZM87.7043 49.3524C87.7043 49.1609 87.6765 48.9869 87.6208 48.8303C87.5686 48.6678 87.4897 48.5344 87.3841 48.4183C87.2819 48.3023 87.1566 48.2093 87.0081 48.1455C86.8596 48.0817 86.6913 48.0526 86.5022 48.0526C86.1065 48.0526 85.792 48.1687 85.5599 48.4008C85.3313 48.6271 85.1886 48.9463 85.1329 49.3524H87.7043ZM88.3727 51.5571C88.2706 51.6847 88.1488 51.7892 88.006 51.882C87.8639 51.9748 87.7107 52.0503 87.5465 52.1084C87.3858 52.1664 87.2187 52.2068 87.0452 52.2359C86.8723 52.2707 86.7006 52.2823 86.53 52.2823C86.2051 52.2823 85.9051 52.2302 85.6295 52.12C85.3574 52.0097 85.1207 51.8472 84.9193 51.6384C84.7215 51.4237 84.5666 51.1627 84.4552 50.8494C84.3438 50.5361 84.2881 50.1761 84.2881 49.77C84.2881 49.4451 84.338 49.1378 84.4366 48.8535C84.5387 48.5692 84.6844 48.3255 84.8729 48.1166C85.0621 47.9078 85.2924 47.7394 85.5645 47.6234C85.8372 47.5016 86.1436 47.4435 86.4836 47.4435C86.7656 47.4435 87.0255 47.4899 87.2634 47.5885C87.5047 47.6814 87.7125 47.8149 87.8854 47.9948C88.0617 48.1689 88.1998 48.3891 88.2985 48.656C88.3977 48.9113 88.447 49.2132 88.447 49.5439C88.447 49.6774 88.4331 49.7642 88.4052 49.8048C88.3774 49.8454 88.3252 49.8689 88.2474 49.8689H85.105C85.1143 50.1648 85.1549 50.4258 85.2257 50.6462C85.3 50.8667 85.4021 51.0467 85.5321 51.1975C85.662 51.3426 85.8169 51.4527 85.9962 51.5282C86.1761 51.5978 86.3768 51.6327 86.5996 51.6327C86.8073 51.6327 86.9849 51.6094 87.1334 51.563C87.2854 51.5166 87.4154 51.4644 87.5233 51.4063C87.6318 51.3483 87.7217 51.3018 87.7925 51.2553C87.8668 51.2031 87.9306 51.18 87.9828 51.18C88.0513 51.18 88.1035 51.2031 88.1406 51.2553L88.3727 51.5571ZM92.2009 48.2906C92.1638 48.3602 92.1063 48.3951 92.0292 48.3951C91.9828 48.3951 91.93 48.3775 91.8714 48.3427C91.8122 48.3079 91.7397 48.2731 91.6532 48.2325C91.5697 48.1861 91.4687 48.1514 91.3515 48.1166C91.2337 48.076 91.0945 48.0585 90.9338 48.0585C90.7945 48.0585 90.6692 48.076 90.5578 48.1166C90.4464 48.1514 90.3501 48.1979 90.27 48.2617C90.1922 48.3197 90.1319 48.3949 90.089 48.4761C90.0484 48.5574 90.0286 48.6444 90.0286 48.743C90.0286 48.8649 90.0623 48.9635 90.1308 49.0447C90.2015 49.126 90.2944 49.1958 90.4092 49.2538C90.5236 49.3118 90.6535 49.3641 90.7991 49.4105C90.9442 49.4511 91.0927 49.5033 91.2447 49.5555C91.3991 49.6019 91.5494 49.66 91.695 49.7238C91.84 49.7818 91.97 49.863 92.0849 49.9558C92.1992 50.0487 92.2903 50.1588 92.3587 50.2981C92.4295 50.4315 92.4655 50.5882 92.4655 50.7797C92.4655 50.9944 92.4266 51.1974 92.3495 51.3831C92.2717 51.563 92.1574 51.7253 92.006 51.8588C91.854 51.9922 91.6683 52.0968 91.449 52.1781C91.2291 52.2535 90.9755 52.2939 90.6877 52.2939C90.3593 52.2939 90.0623 52.2417 89.7966 52.1373C89.5302 52.027 89.3045 51.8879 89.1189 51.7197L89.3138 51.4063C89.3382 51.3657 89.3678 51.3366 89.402 51.3134C89.4357 51.2902 89.4792 51.2786 89.532 51.2786C89.5877 51.2786 89.6463 51.3018 89.7084 51.3483C89.7699 51.3889 89.8441 51.4354 89.9312 51.4876C90.0205 51.5399 90.129 51.5921 90.2561 51.6327C90.3826 51.6791 90.5404 51.6964 90.7295 51.6964C90.8902 51.6964 91.0312 51.679 91.1513 51.6384C91.2726 51.5978 91.373 51.5398 91.4536 51.4644C91.5337 51.3948 91.5929 51.3133 91.63 51.2205C91.67 51.1277 91.6903 51.0292 91.6903 50.9247C91.6903 50.7913 91.6544 50.687 91.5836 50.6057C91.5151 50.5187 91.424 50.4431 91.3097 50.385C91.1948 50.3212 91.0637 50.269 90.9152 50.2284C90.7696 50.182 90.6193 50.1355 90.465 50.0833C90.3129 50.0311 90.1632 49.9789 90.0147 49.915C89.8691 49.8512 89.7391 49.7702 89.6248 49.6773C89.5099 49.5787 89.4171 49.4625 89.3463 49.3232C89.2778 49.1782 89.2442 49.0101 89.2442 48.807C89.2442 48.6272 89.2813 48.453 89.3556 48.2906C89.4299 48.1223 89.5378 47.9773 89.6805 47.8554C89.8227 47.7278 89.9973 47.6291 90.205 47.5537C90.4121 47.4783 90.6489 47.4435 90.9152 47.4435C91.2244 47.4435 91.5012 47.4899 91.746 47.5885C91.9932 47.6872 92.2067 47.8206 92.3866 47.9889L92.2009 48.2906ZM99.0003 49.3524C99.0003 49.1609 98.9725 48.9869 98.9168 48.8303C98.864 48.6678 98.7851 48.5344 98.6801 48.4183C98.578 48.3023 98.4526 48.2093 98.3041 48.1455C98.1556 48.0817 97.9867 48.0526 97.7982 48.0526C97.4019 48.0526 97.088 48.1687 96.8559 48.4008C96.6267 48.6271 96.4846 48.9463 96.4289 49.3524H99.0003ZM99.6687 51.5571C99.5666 51.6847 99.4442 51.7892 99.302 51.882C99.1599 51.9748 99.0067 52.0503 98.8425 52.1084C98.6818 52.1664 98.5147 52.2068 98.3412 52.2359C98.1677 52.2707 97.996 52.2823 97.826 52.2823C97.5011 52.2823 97.2011 52.2302 96.9255 52.12C96.6534 52.0097 96.4167 51.8472 96.2154 51.6384C96.0175 51.4237 95.8626 51.1627 95.7512 50.8494C95.6398 50.5361 95.5841 50.1761 95.5841 49.77C95.5841 49.4451 95.6334 49.1378 95.7326 48.8535C95.8347 48.5692 95.9804 48.3255 96.1689 48.1166C96.3575 47.9078 96.5884 47.7394 96.8605 47.6234C97.1327 47.5016 97.439 47.4435 97.7796 47.4435C98.061 47.4435 98.3209 47.4899 98.5594 47.5885C98.8007 47.6814 99.0079 47.8149 99.1814 47.9948C99.3577 48.1689 99.4953 48.3891 99.5945 48.656C99.6937 48.9113 99.743 49.2132 99.743 49.5439C99.743 49.6774 99.7291 49.7642 99.7012 49.8048C99.6734 49.8454 99.6206 49.8689 99.5434 49.8689H96.401C96.4103 50.1648 96.4503 50.4258 96.5217 50.6462C96.596 50.8667 96.6981 51.0467 96.8281 51.1975C96.958 51.3426 97.1129 51.4527 97.2922 51.5282C97.4715 51.5978 97.6728 51.6327 97.8956 51.6327C98.1028 51.6327 98.2809 51.6094 98.4294 51.563C98.5809 51.5166 98.7108 51.4644 98.8193 51.4063C98.9278 51.3483 99.0172 51.3018 99.0885 51.2553C99.1628 51.2031 99.226 51.18 99.2788 51.18C99.3467 51.18 99.3995 51.2031 99.4367 51.2553L99.6687 51.5571ZM103.496 48.2906C103.459 48.3602 103.402 48.3951 103.325 48.3951C103.278 48.3951 103.226 48.3775 103.167 48.3427C103.108 48.3079 103.036 48.2731 102.949 48.2325C102.865 48.1861 102.765 48.1514 102.647 48.1166C102.53 48.076 102.39 48.0585 102.229 48.0585C102.09 48.0585 101.965 48.076 101.853 48.1166C101.742 48.1514 101.646 48.1979 101.565 48.2617C101.488 48.3197 101.428 48.3949 101.384 48.4761C101.344 48.5574 101.324 48.6444 101.324 48.743C101.324 48.8649 101.358 48.9635 101.426 49.0447C101.498 49.126 101.59 49.1958 101.705 49.2538C101.82 49.3118 101.95 49.3641 102.095 49.4105C102.24 49.4511 102.389 49.5033 102.54 49.5555C102.695 49.6019 102.845 49.66 102.99 49.7238C103.136 49.7818 103.266 49.863 103.38 49.9558C103.495 50.0487 103.586 50.1588 103.654 50.2981C103.726 50.4315 103.761 50.5882 103.761 50.7797C103.761 50.9944 103.723 51.1974 103.645 51.3831C103.568 51.563 103.453 51.7253 103.301 51.8588C103.15 51.9922 102.964 52.0968 102.744 52.1781C102.525 52.2535 102.271 52.2939 101.983 52.2939C101.655 52.2939 101.358 52.2417 101.092 52.1373C100.826 52.027 100.6 51.8879 100.414 51.7197L100.609 51.4063C100.634 51.3657 100.664 51.3366 100.697 51.3134C100.732 51.2902 100.775 51.2786 100.827 51.2786C100.883 51.2786 100.942 51.3018 101.004 51.3483C101.066 51.3889 101.14 51.4354 101.227 51.4876C101.317 51.5399 101.425 51.5921 101.552 51.6327C101.679 51.6791 101.836 51.6964 102.025 51.6964C102.186 51.6964 102.327 51.679 102.447 51.6384C102.568 51.5978 102.669 51.5398 102.749 51.4644C102.83 51.3948 102.888 51.3133 102.925 51.2205C102.966 51.1277 102.986 51.0292 102.986 50.9247C102.986 50.7913 102.95 50.687 102.879 50.6057C102.811 50.5187 102.72 50.4431 102.605 50.385C102.491 50.3212 102.359 50.269 102.211 50.2284C102.066 50.182 101.915 50.1355 101.76 50.0833C101.609 50.0311 101.459 49.9789 101.31 49.915C101.165 49.8512 101.035 49.7702 100.92 49.6773C100.806 49.5787 100.713 49.4625 100.642 49.3232C100.574 49.1782 100.54 49.0101 100.54 48.807C100.54 48.6272 100.577 48.453 100.651 48.2906C100.725 48.1223 100.834 47.9773 100.976 47.8554C101.119 47.7278 101.293 47.6291 101.5 47.5537C101.708 47.4783 101.945 47.4435 102.211 47.4435C102.52 47.4435 102.797 47.4899 103.041 47.5885C103.289 47.6872 103.503 47.8206 103.682 47.9889L103.496 48.2906ZM107.149 52.2186V47.5189H107.646C107.764 47.5189 107.836 47.5711 107.864 47.6871L107.924 48.1688C108.098 47.9599 108.293 47.7801 108.509 47.6466C108.726 47.5132 108.976 47.4435 109.261 47.4435C109.577 47.4435 109.832 47.5306 110.027 47.7047C110.225 47.8846 110.368 48.1223 110.454 48.424C110.522 48.2499 110.609 48.105 110.714 47.9832C110.823 47.8555 110.943 47.7568 111.076 47.6755C111.209 47.5943 111.35 47.5362 111.499 47.4956C111.65 47.4608 111.803 47.4435 111.958 47.4435C112.206 47.4435 112.425 47.4841 112.617 47.5653C112.812 47.6407 112.976 47.7567 113.109 47.9075C113.246 48.0584 113.349 48.2442 113.42 48.4705C113.492 48.6851 113.527 48.9403 113.527 49.2246V52.2186H112.696V49.2246C112.696 48.8591 112.615 48.5806 112.455 48.3892C112.294 48.1977 112.062 48.0991 111.758 48.0991C111.622 48.0991 111.492 48.128 111.369 48.1744C111.248 48.2208 111.141 48.2907 111.048 48.3835C110.955 48.4763 110.881 48.5923 110.825 48.7373C110.773 48.8766 110.747 49.039 110.747 49.2246V52.2186H109.916V49.2246C109.916 48.8475 109.84 48.5632 109.688 48.3775C109.537 48.1919 109.315 48.0991 109.025 48.0991C108.82 48.0991 108.632 48.1571 108.458 48.2673C108.285 48.3776 108.126 48.5226 107.98 48.7141V52.2186H107.149ZM117.93 49.3524C117.93 49.1609 117.902 48.9869 117.846 48.8303C117.793 48.6678 117.714 48.5344 117.609 48.4183C117.507 48.3023 117.382 48.2093 117.233 48.1455C117.085 48.0817 116.916 48.0526 116.727 48.0526C116.331 48.0526 116.017 48.1687 115.785 48.4008C115.556 48.6271 115.414 48.9463 115.358 49.3524H117.93ZM118.598 51.5571C118.496 51.6847 118.373 51.7892 118.231 51.882C118.089 51.9748 117.936 52.0503 117.772 52.1084C117.611 52.1664 117.444 52.2068 117.27 52.2359C117.097 52.2707 116.925 52.2823 116.755 52.2823C116.43 52.2823 116.13 52.2302 115.855 52.12C115.583 52.0097 115.346 51.8472 115.145 51.6384C114.947 51.4237 114.792 51.1627 114.68 50.8494C114.569 50.5361 114.513 50.1761 114.513 49.77C114.513 49.4451 114.563 49.1378 114.662 48.8535C114.764 48.5692 114.91 48.3255 115.098 48.1166C115.287 47.9078 115.518 47.7394 115.79 47.6234C116.062 47.5016 116.368 47.4435 116.709 47.4435C116.99 47.4435 117.25 47.4899 117.489 47.5885C117.73 47.6814 117.937 47.8149 118.111 47.9948C118.287 48.1689 118.424 48.3891 118.524 48.656C118.623 48.9113 118.672 49.2132 118.672 49.5439C118.672 49.6774 118.658 49.7642 118.63 49.8048C118.603 49.8454 118.55 49.8689 118.473 49.8689H115.33C115.339 50.1648 115.38 50.4258 115.451 50.6462C115.525 50.8667 115.627 51.0467 115.757 51.1975C115.887 51.3426 116.042 51.4527 116.221 51.5282C116.401 51.5978 116.602 51.6327 116.825 51.6327C117.032 51.6327 117.21 51.6094 117.359 51.563C117.51 51.5166 117.64 51.4644 117.748 51.4063C117.857 51.3483 117.946 51.3018 118.018 51.2553C118.092 51.2031 118.155 51.18 118.208 51.18C118.276 51.18 118.329 51.2031 118.366 51.2553L118.598 51.5571ZM119.687 52.2186V47.5189H120.184C120.301 47.5189 120.374 47.5711 120.402 47.6871L120.462 48.1688C120.636 47.9599 120.831 47.7801 121.047 47.6466C121.264 47.5132 121.515 47.4435 121.799 47.4435C122.115 47.4435 122.37 47.5306 122.565 47.7047C122.763 47.8846 122.905 48.1223 122.992 48.424C123.06 48.2499 123.147 48.105 123.252 47.9832C123.36 47.8555 123.481 47.7568 123.614 47.6755C123.747 47.5943 123.888 47.5362 124.036 47.4956C124.188 47.4608 124.341 47.4435 124.496 47.4435C124.743 47.4435 124.963 47.4841 125.155 47.5653C125.35 47.6407 125.514 47.7567 125.647 47.9075C125.783 48.0584 125.887 48.2442 125.958 48.4705C126.029 48.6851 126.065 48.9403 126.065 49.2246V52.2186H125.234V49.2246C125.234 48.8591 125.154 48.5806 124.992 48.3892C124.832 48.1977 124.6 48.0991 124.296 48.0991C124.16 48.0991 124.03 48.128 123.906 48.1744C123.786 48.2208 123.679 48.2907 123.586 48.3835C123.493 48.4763 123.419 48.5923 123.363 48.7373C123.311 48.8766 123.284 49.039 123.284 49.2246V52.2186H122.453V49.2246C122.453 48.8475 122.378 48.5632 122.226 48.3775C122.075 48.1919 121.853 48.0991 121.562 48.0991C121.358 48.0991 121.169 48.1571 120.996 48.2673C120.823 48.3776 120.663 48.5226 120.518 48.7141V52.2186H119.687ZM128.152 51.0871C128.303 51.2901 128.468 51.4353 128.648 51.5165C128.83 51.6036 129.03 51.644 129.247 51.644C129.689 51.644 130.028 51.4876 130.264 51.1743C130.499 50.861 130.616 50.3968 130.616 49.7759C130.616 49.2015 130.511 48.7779 130.301 48.511C130.093 48.2383 129.796 48.0991 129.409 48.0991C129.14 48.0991 128.905 48.1631 128.704 48.2849C128.506 48.4126 128.322 48.5864 128.152 48.8127V51.0871ZM128.152 48.192C128.349 47.9657 128.572 47.7801 128.82 47.6466C129.071 47.5132 129.358 47.4435 129.683 47.4435C129.958 47.4435 130.206 47.4957 130.426 47.6002C130.649 47.7046 130.837 47.8613 130.992 48.0585C131.147 48.2558 131.264 48.4995 131.345 48.7838C131.429 49.0681 131.47 49.3873 131.47 49.747C131.47 50.1242 131.424 50.472 131.331 50.7853C131.238 51.0987 131.104 51.3658 130.927 51.5862C130.754 51.8067 130.542 51.9806 130.291 52.1024C130.041 52.2243 129.759 52.2823 129.447 52.2823C129.137 52.2823 128.876 52.2243 128.662 52.114C128.452 51.9922 128.268 51.8298 128.11 51.6151L128.068 52.0446C128.043 52.1607 127.972 52.2186 127.855 52.2186H127.321V45.3839H128.152V48.192ZM133.3 48.4589C133.448 48.1397 133.63 47.8846 133.847 47.7047C134.064 47.5248 134.328 47.4319 134.641 47.4319C134.74 47.4319 134.834 47.4435 134.924 47.4667C135.017 47.4899 135.099 47.5189 135.17 47.5653L135.11 48.186C135.091 48.2615 135.045 48.3022 134.971 48.3022C134.927 48.3022 134.864 48.2907 134.78 48.2733C134.697 48.2559 134.602 48.2441 134.497 48.2441C134.349 48.2441 134.215 48.2672 134.098 48.3079C133.983 48.3543 133.88 48.4183 133.787 48.5053C133.697 48.5865 133.615 48.6968 133.541 48.8187C133.47 48.9463 133.405 49.0854 133.346 49.2479V52.2186H132.515V47.5189H132.989C133.078 47.5189 133.14 47.5363 133.174 47.5653C133.208 47.6001 133.231 47.6582 133.244 47.7452L133.3 48.4589ZM138.853 49.3524C138.853 49.1609 138.826 48.9869 138.77 48.8303C138.717 48.6678 138.638 48.5344 138.533 48.4183C138.431 48.3023 138.306 48.2093 138.157 48.1455C138.009 48.0817 137.84 48.0526 137.651 48.0526C137.255 48.0526 136.941 48.1687 136.709 48.4008C136.48 48.6271 136.338 48.9463 136.282 49.3524H138.853ZM139.522 51.5571C139.42 51.6847 139.297 51.7892 139.155 51.882C139.012 51.9748 138.859 52.0503 138.696 52.1084C138.534 52.1664 138.367 52.2068 138.194 52.2359C138.021 52.2707 137.849 52.2823 137.679 52.2823C137.354 52.2823 137.054 52.2302 136.779 52.12C136.506 52.0097 136.269 51.8472 136.068 51.6384C135.87 51.4237 135.716 51.1627 135.604 50.8494C135.493 50.5361 135.437 50.1761 135.437 49.77C135.437 49.4451 135.487 49.1378 135.586 48.8535C135.688 48.5692 135.833 48.3255 136.022 48.1166C136.211 47.9078 136.441 47.7394 136.714 47.6234C136.986 47.5016 137.292 47.4435 137.633 47.4435C137.914 47.4435 138.174 47.4899 138.413 47.5885C138.654 47.6814 138.861 47.8149 139.034 47.9948C139.211 48.1689 139.348 48.3891 139.448 48.656C139.546 48.9113 139.596 49.2132 139.596 49.5439C139.596 49.6774 139.582 49.7642 139.554 49.8048C139.526 49.8454 139.474 49.8689 139.397 49.8689H136.254C136.263 50.1648 136.303 50.4258 136.375 50.6462C136.449 50.8667 136.551 51.0467 136.681 51.1975C136.811 51.3426 136.965 51.4527 137.145 51.5282C137.325 51.5978 137.526 51.6327 137.749 51.6327C137.956 51.6327 138.134 51.6094 138.283 51.563C138.434 51.5166 138.564 51.4644 138.672 51.4063C138.78 51.3483 138.87 51.3018 138.942 51.2553C139.016 51.2031 139.079 51.18 139.132 51.18C139.2 51.18 139.253 51.2031 139.29 51.2553L139.522 51.5571ZM143.349 48.2906C143.312 48.3602 143.255 48.3951 143.178 48.3951C143.131 48.3951 143.078 48.3775 143.02 48.3427C142.961 48.3079 142.888 48.2731 142.802 48.2325C142.718 48.1861 142.617 48.1514 142.5 48.1166C142.382 48.076 142.243 48.0585 142.082 48.0585C141.943 48.0585 141.818 48.076 141.706 48.1166C141.595 48.1514 141.499 48.1979 141.419 48.2617C141.341 48.3197 141.28 48.3949 141.238 48.4761C141.197 48.5574 141.177 48.6444 141.177 48.743C141.177 48.8649 141.211 48.9635 141.279 49.0447C141.35 49.126 141.443 49.1958 141.558 49.2538C141.672 49.3118 141.802 49.3641 141.948 49.4105C142.093 49.4511 142.241 49.5033 142.393 49.5555C142.548 49.6019 142.698 49.66 142.844 49.7238C142.989 49.7818 143.119 49.863 143.233 49.9558C143.348 50.0487 143.439 50.1588 143.507 50.2981C143.578 50.4315 143.614 50.5882 143.614 50.7797C143.614 50.9944 143.575 51.1974 143.498 51.3831C143.42 51.563 143.306 51.7253 143.154 51.8588C143.002 51.9922 142.817 52.0968 142.598 52.1781C142.378 52.2535 142.124 52.2939 141.836 52.2939C141.508 52.2939 141.211 52.2417 140.945 52.1373C140.679 52.027 140.453 51.8879 140.267 51.7197L140.462 51.4063C140.487 51.3657 140.516 51.3366 140.551 51.3134C140.584 51.2902 140.628 51.2786 140.681 51.2786C140.736 51.2786 140.795 51.3018 140.857 51.3483C140.918 51.3889 140.993 51.4354 141.08 51.4876C141.169 51.5399 141.278 51.5921 141.405 51.6327C141.531 51.6791 141.689 51.6964 141.878 51.6964C142.039 51.6964 142.18 51.679 142.3 51.6384C142.421 51.5978 142.522 51.5398 142.602 51.4644C142.682 51.3948 142.741 51.3133 142.779 51.2205C142.819 51.1277 142.839 51.0292 142.839 50.9247C142.839 50.7913 142.803 50.687 142.732 50.6057C142.664 50.5187 142.573 50.4431 142.458 50.385C142.343 50.3212 142.212 50.269 142.064 50.2284C141.918 50.182 141.768 50.1355 141.613 50.0833C141.461 50.0311 141.312 49.9789 141.163 49.915C141.018 49.8512 140.888 49.7702 140.773 49.6773C140.658 49.5787 140.566 49.4625 140.495 49.3232C140.426 49.1782 140.393 49.0101 140.393 48.807C140.393 48.6272 140.43 48.453 140.504 48.2906C140.578 48.1223 140.686 47.9773 140.829 47.8554C140.971 47.7278 141.146 47.6291 141.354 47.5537C141.561 47.4783 141.797 47.4435 142.064 47.4435C142.373 47.4435 142.65 47.4899 142.895 47.5885C143.142 47.6872 143.355 47.8206 143.535 47.9889L143.349 48.2906ZM19.0934 62.5577C18.9385 62.3546 18.7714 62.2097 18.5921 62.1285C18.4128 62.0473 18.2115 62.0007 17.9887 62.0007C17.5523 62.0007 17.2164 62.1574 16.9814 62.4707C16.7464 62.7841 16.6287 63.2308 16.6287 63.8111C16.6287 64.1128 16.6548 64.3796 16.7076 64.6001C16.7604 64.8147 16.8375 64.9945 16.9397 65.1338C17.0418 65.273 17.1671 65.3776 17.3156 65.4415C17.4642 65.5053 17.633 65.5401 17.8216 65.5401C18.0937 65.5401 18.3304 65.4763 18.5317 65.3545C18.736 65.2326 18.9234 65.0586 19.0934 64.8324V62.5577ZM19.9196 59.3088V66.1435H19.4276C19.3098 66.1435 19.2355 66.0856 19.2048 65.9695L19.1305 65.4009C18.9292 65.6446 18.7006 65.836 18.4435 65.9868C18.1865 66.1319 17.8894 66.2072 17.5524 66.2072C17.2831 66.2072 17.0389 66.1551 16.819 66.0565C16.5991 65.9521 16.4122 65.7954 16.2573 65.5981C16.1024 65.3951 15.9835 65.1454 15.8999 64.8437C15.8164 64.542 15.7746 64.1998 15.7746 63.8111C15.7746 63.4629 15.821 63.1381 15.9139 62.8422C16.0067 62.5404 16.1396 62.2852 16.313 62.0648C16.4865 61.8443 16.6983 61.6702 16.9489 61.5483C17.2025 61.4207 17.4874 61.3568 17.803 61.3568C18.0908 61.3568 18.3368 61.4089 18.541 61.5075C18.7481 61.6003 18.9327 61.7398 19.0934 61.9081V59.3088H19.9196ZM24.3715 63.2773C24.3715 63.0858 24.3436 62.9118 24.2879 62.7552C24.2351 62.5927 24.1562 62.4593 24.0512 62.3433C23.9491 62.2272 23.8238 62.1343 23.6752 62.0704C23.5267 62.0066 23.3579 61.9775 23.1693 61.9775C22.773 61.9775 22.4591 62.0936 22.2271 62.3257C21.9979 62.552 21.8557 62.8712 21.8 63.2773H24.3715ZM25.0399 65.482C24.9378 65.6096 24.8154 65.7141 24.6732 65.8069C24.5311 65.8998 24.3779 65.9753 24.2137 66.0333C24.053 66.0913 23.8859 66.1318 23.7124 66.1608C23.5389 66.1956 23.3672 66.2072 23.1972 66.2072C22.8723 66.2072 22.5723 66.1551 22.2967 66.0449C22.0246 65.9347 21.7878 65.7722 21.5865 65.5633C21.3887 65.3486 21.2337 65.0876 21.1224 64.7743C21.011 64.461 20.9553 64.101 20.9553 63.6949C20.9553 63.37 21.0046 63.0627 21.1038 62.7784C21.2059 62.4941 21.3515 62.2504 21.5401 62.0415C21.7287 61.8327 21.9596 61.6644 22.2317 61.5483C22.5038 61.4265 22.8102 61.3684 23.1507 61.3684C23.4321 61.3684 23.6921 61.4148 23.9305 61.5135C24.1719 61.6063 24.379 61.7399 24.5525 61.9197C24.7289 62.0938 24.8664 62.3141 24.9656 62.5809C25.0648 62.8362 25.1142 63.1381 25.1142 63.4688C25.1142 63.6023 25.1002 63.6891 25.0724 63.7297C25.0445 63.7704 24.9917 63.7938 24.9146 63.7938H21.7722C21.7815 64.0897 21.8215 64.3507 21.8929 64.5712C21.9671 64.7916 22.0692 64.9716 22.1992 65.1225C22.3292 65.2675 22.4841 65.3777 22.6634 65.4531C22.8427 65.5227 23.044 65.5576 23.2668 65.5576C23.4739 65.5576 23.652 65.5343 23.8006 65.4879C23.952 65.4415 24.082 65.3893 24.1905 65.3313C24.299 65.2732 24.3883 65.2267 24.4597 65.1803C24.534 65.128 24.5972 65.1049 24.65 65.1049C24.7179 65.1049 24.7707 65.128 24.8078 65.1803L25.0399 65.482ZM26.983 59.3088V66.1435H26.1568V59.3088H26.983ZM33.4366 62.2155C33.3995 62.2851 33.3426 62.32 33.2649 62.32C33.2185 62.32 33.1662 62.3024 33.1071 62.2676C33.0485 62.2328 32.9759 62.198 32.8889 62.1574C32.8054 62.111 32.705 62.0764 32.5872 62.0415C32.47 62.0009 32.3308 61.9835 32.1695 61.9835C32.0302 61.9835 31.9049 62.0009 31.7935 62.0415C31.6821 62.0764 31.5863 62.1228 31.5057 62.1866C31.4285 62.2446 31.3682 62.3198 31.3247 62.4011C31.2846 62.4823 31.2643 62.5693 31.2643 62.6679C31.2643 62.7898 31.2986 62.8884 31.3665 62.9696C31.4378 63.0509 31.5306 63.1207 31.6449 63.1787C31.7598 63.2367 31.8898 63.289 32.0348 63.3354C32.1805 63.376 32.329 63.4282 32.4804 63.4804C32.6354 63.5269 32.7856 63.5849 32.9307 63.6487C33.0763 63.7067 33.2063 63.7879 33.3206 63.8807C33.4355 63.9736 33.5266 64.0837 33.5944 64.223C33.6658 64.3564 33.7012 64.5131 33.7012 64.7046C33.7012 64.9193 33.6629 65.1224 33.5851 65.308C33.508 65.4879 33.3937 65.6502 33.2417 65.7837C33.0902 65.9171 32.9046 66.0217 32.6847 66.103C32.4654 66.1784 32.2112 66.2188 31.9234 66.2188C31.5956 66.2188 31.2986 66.1666 31.0322 66.0622C30.7665 65.9519 30.5402 65.8129 30.3546 65.6446L30.5495 65.3313C30.5745 65.2906 30.6041 65.2615 30.6377 65.2383C30.6719 65.2151 30.7155 65.2035 30.7677 65.2035C30.8234 65.2035 30.8826 65.2268 30.9441 65.2732C31.0061 65.3138 31.0804 65.3603 31.1669 65.4126C31.2568 65.4648 31.3653 65.517 31.4918 65.5576C31.6188 65.604 31.7767 65.6214 31.9652 65.6214C32.1265 65.6214 32.2669 65.6039 32.3876 65.5633C32.5083 65.5227 32.6092 65.4648 32.6893 65.3893C32.77 65.3197 32.8286 65.2382 32.8657 65.1454C32.9063 65.0526 32.926 64.9541 32.926 64.8496C32.926 64.7162 32.8906 64.6119 32.8193 64.5306C32.7514 64.4436 32.6603 64.368 32.5454 64.3099C32.4311 64.2461 32.2994 64.1939 32.1509 64.1533C32.0058 64.1069 31.8556 64.0605 31.7006 64.0082C31.5492 63.956 31.3989 63.9038 31.2504 63.8399C31.1054 63.7761 30.9754 63.6951 30.8605 63.6023C30.7462 63.5036 30.6534 63.3874 30.582 63.2481C30.5141 63.1031 30.4799 62.935 30.4799 62.732C30.4799 62.5521 30.517 62.3779 30.5913 62.2155C30.6656 62.0472 30.7741 61.9022 30.9162 61.7803C31.0589 61.6527 31.2336 61.554 31.4407 61.4786C31.6484 61.4032 31.8851 61.3684 32.1509 61.3684C32.4607 61.3684 32.7375 61.4148 32.9817 61.5135C33.2295 61.6121 33.443 61.7455 33.6223 61.9138L33.4366 62.2155ZM37.2625 64.0258C36.8819 64.0374 36.557 64.072 36.2877 64.1184C36.0214 64.1649 35.8033 64.2289 35.6333 64.3043C35.4662 64.3855 35.3438 64.4724 35.2666 64.5768C35.1923 64.6871 35.1552 64.8033 35.1552 64.9309C35.1552 65.0586 35.1755 65.1629 35.2155 65.2499C35.2556 65.3428 35.3101 65.4183 35.378 65.4763C35.4494 65.5285 35.5312 65.5749 35.624 65.5981C35.7197 65.6271 35.8218 65.6386 35.9303 65.6386C36.076 65.6386 36.2088 65.6213 36.3295 65.5981C36.4502 65.5633 36.5633 65.5227 36.6684 65.4647C36.7769 65.4125 36.879 65.3429 36.9747 65.2675C37.0739 65.1863 37.1697 65.099 37.2625 65.0004V64.0258ZM34.5935 62.1053C34.8535 61.8558 35.1337 61.67 35.4337 61.5424C35.7336 61.4205 36.0667 61.3568 36.4316 61.3568C36.6945 61.3568 36.9283 61.4032 37.1325 61.4902C37.3368 61.5773 37.5085 61.6934 37.6477 61.85C37.787 62.0067 37.892 62.1922 37.9634 62.4127C38.0347 62.6331 38.0701 62.871 38.0701 63.1379V66.1435H37.7034C37.6228 66.1435 37.5613 66.1318 37.5178 66.1086C37.4743 66.0796 37.4406 66.0275 37.4157 65.9463L37.3228 65.5052C37.1992 65.6154 37.0786 65.7199 36.9608 65.8069C36.843 65.894 36.7194 65.9695 36.5895 66.0333C36.4595 66.0913 36.3202 66.1377 36.1717 66.1667C36.0261 66.2015 35.8636 66.2188 35.6843 66.2188C35.5016 66.2188 35.3298 66.1957 35.1691 66.1435C35.0084 66.0913 34.8674 66.0159 34.7467 65.9115C34.6289 65.807 34.5349 65.6793 34.4636 65.5284C34.3957 65.366 34.3615 65.1803 34.3615 64.9715C34.3615 64.7858 34.4125 64.606 34.5146 64.4377C34.6168 64.2637 34.7821 64.1068 35.0113 63.9734C35.2405 63.8399 35.5387 63.7358 35.9071 63.6487C36.2756 63.5617 36.727 63.5153 37.2625 63.5037V63.1379C37.2625 62.7724 37.1836 62.4941 37.0258 62.3084C36.868 62.1227 36.6376 62.024 36.3342 62.024C36.1299 62.024 35.9582 62.0531 35.8189 62.1053C35.6826 62.1575 35.5637 62.2096 35.4615 62.2792C35.3623 62.3373 35.2759 62.3953 35.2016 62.4475C35.1302 62.4997 35.0594 62.5229 34.9881 62.5229C34.9324 62.5229 34.8842 62.5114 34.8442 62.4824C34.8042 62.4475 34.7699 62.4128 34.7421 62.3722L34.5935 62.1053ZM39.3286 66.1435V61.4438H39.8253C39.943 61.4438 40.0156 61.496 40.0434 61.6121L40.1037 62.0937C40.2772 61.8848 40.4722 61.705 40.6886 61.5715C40.9056 61.4381 41.1562 61.3684 41.4405 61.3684C41.7562 61.3684 42.0115 61.4556 42.2064 61.6296C42.4048 61.8095 42.547 62.0472 42.6334 62.3489C42.7019 62.1749 42.7884 62.0299 42.8934 61.9081C43.0019 61.7805 43.1226 61.6817 43.2554 61.6004C43.3889 61.5192 43.5293 61.4612 43.6778 61.4205C43.8298 61.3857 43.983 61.3684 44.1373 61.3684C44.3851 61.3684 44.605 61.409 44.7964 61.4902C44.9914 61.5657 45.1556 61.6816 45.2885 61.8325C45.4248 61.9833 45.5287 62.1691 45.5994 62.3954C45.6708 62.6101 45.7062 62.8652 45.7062 63.1495V66.1435H44.8754V63.1495C44.8754 62.784 44.7953 62.5055 44.634 62.3141C44.4733 62.1226 44.2412 62.024 43.9377 62.024C43.802 62.024 43.672 62.0529 43.5478 62.0993C43.4272 62.1458 43.3204 62.2156 43.2276 62.3084C43.1347 62.4012 43.0605 62.5172 43.0048 62.6623C42.9526 62.8015 42.9259 62.9639 42.9259 63.1495V66.1435H42.095V63.1495C42.095 62.7724 42.0196 62.4881 41.8676 62.3025C41.7161 62.1168 41.4951 62.024 41.2038 62.024C40.9996 62.024 40.811 62.082 40.6375 62.1923C40.4646 62.3025 40.3051 62.4476 40.1595 62.639V66.1435H39.3286ZM49.6435 66.1435V62.1458L49.1236 62.0877C49.0586 62.0703 49.0047 62.0473 48.9612 62.0183C48.9211 61.9835 48.9008 61.9371 48.9008 61.8733V61.5367H49.6435V61.0783C49.6435 60.8114 49.6806 60.5735 49.7549 60.3647C49.8326 60.1558 49.9405 59.9758 50.0798 59.8366C50.2225 59.6915 50.3925 59.5814 50.5904 59.506C50.7888 59.4306 51.0116 59.3958 51.2588 59.3958C51.4694 59.3958 51.6626 59.4246 51.839 59.4884L51.8204 59.9006C51.8146 59.976 51.7728 60.0166 51.6951 60.0224C51.6208 60.0282 51.5204 60.0281 51.3934 60.0281C51.2512 60.0281 51.1213 60.0514 51.0035 60.0862C50.8892 60.121 50.79 60.1849 50.7064 60.2661C50.6229 60.3531 50.5579 60.4632 50.5115 60.5967C50.4685 60.7301 50.4465 60.9043 50.4465 61.1015V61.5367H51.8018V62.1342H50.4743V66.1435H49.6435ZM55.1131 64.0258C54.7325 64.0374 54.4075 64.072 54.1383 64.1184C53.872 64.1649 53.6539 64.2289 53.4839 64.3043C53.3168 64.3855 53.1943 64.4724 53.1172 64.5768C53.0429 64.6871 53.0058 64.8033 53.0058 64.9309C53.0058 65.0586 53.0255 65.1629 53.0661 65.2499C53.1061 65.3428 53.1601 65.4183 53.2286 65.4763C53.2993 65.5285 53.3817 65.5749 53.4746 65.5981C53.5703 65.6271 53.6724 65.6386 53.7809 65.6386C53.926 65.6386 54.0594 65.6213 54.1801 65.5981C54.3008 65.5633 54.4133 65.5227 54.5189 65.4647C54.6269 65.4125 54.729 65.3429 54.8253 65.2675C54.9239 65.1863 55.0202 65.099 55.1131 65.0004V64.0258ZM52.4441 62.1053C52.7041 61.8558 52.9837 61.67 53.2843 61.5424C53.5842 61.4205 53.9167 61.3568 54.2822 61.3568C54.5451 61.3568 54.7789 61.4032 54.9831 61.4902C55.1873 61.5773 55.3591 61.6934 55.4983 61.85C55.6376 62.0067 55.7426 62.1922 55.814 62.4127C55.8847 62.6331 55.9207 62.871 55.9207 63.1379V66.1435H55.554C55.4734 66.1435 55.4113 66.1318 55.3684 66.1086C55.3248 66.0796 55.2906 66.0275 55.2662 65.9463L55.1734 65.5052C55.0493 65.6154 54.9286 65.7199 54.8114 65.8069C54.6936 65.894 54.57 65.9695 54.44 66.0333C54.3101 66.0913 54.1708 66.1377 54.0223 66.1667C53.8767 66.2015 53.7142 66.2188 53.5349 66.2188C53.3521 66.2188 53.1804 66.1957 53.0197 66.1435C52.8584 66.0913 52.718 66.0159 52.5973 65.9115C52.4795 65.807 52.3849 65.6793 52.3142 65.5284C52.2457 65.366 52.212 65.1803 52.212 64.9715C52.212 64.7858 52.2631 64.606 52.3652 64.4377C52.4673 64.2637 52.6327 64.1068 52.8619 63.9734C53.0905 63.8399 53.3893 63.7358 53.7577 63.6487C54.1256 63.5617 54.5775 63.5153 55.1131 63.5037V63.1379C55.1131 62.7724 55.0342 62.4941 54.8763 62.3084C54.7185 62.1227 54.4876 62.024 54.1847 62.024C53.9805 62.024 53.8088 62.0531 53.6695 62.1053C53.5332 62.1575 53.4142 62.2096 53.3121 62.2792C53.2129 62.3373 53.1264 62.3953 53.0522 62.4475C52.9808 62.4997 52.9095 62.5229 52.8387 62.5229C52.783 62.5229 52.7348 62.5114 52.6948 62.4824C52.6542 62.4475 52.6205 62.4128 52.5927 62.3722L52.4441 62.1053ZM57.1792 66.1435V61.4438H57.6758C57.7936 61.4438 57.8661 61.496 57.894 61.6121L57.9543 62.0937C58.1278 61.8848 58.3228 61.705 58.5392 61.5715C58.7556 61.4381 59.0062 61.3684 59.2911 61.3684C59.6068 61.3684 59.862 61.4556 60.057 61.6296C60.2548 61.8095 60.3976 62.0472 60.484 62.3489C60.5519 62.1749 60.6389 62.0299 60.744 61.9081C60.8525 61.7805 60.9731 61.6817 61.106 61.6004C61.2389 61.5192 61.3799 61.4612 61.5284 61.4205C61.6798 61.3857 61.833 61.3684 61.9879 61.3684C62.2357 61.3684 62.455 61.409 62.647 61.4902C62.842 61.5657 63.0062 61.6816 63.139 61.8325C63.2754 61.9833 63.3787 62.1691 63.45 62.3954C63.5214 62.6101 63.5568 62.8652 63.5568 63.1495V66.1435H62.7259V63.1495C62.7259 62.784 62.6453 62.5055 62.4846 62.3141C62.3239 62.1226 62.0918 62.024 61.7883 62.024C61.652 62.024 61.522 62.0529 61.3984 62.0993C61.2777 62.1458 61.171 62.2156 61.0782 62.3084C60.9853 62.4012 60.9111 62.5172 60.8554 62.6623C60.8026 62.8015 60.7764 62.9639 60.7764 63.1495V66.1435H59.9456V63.1495C59.9456 62.7724 59.8696 62.4881 59.7182 62.3025C59.5667 62.1168 59.3451 62.024 59.0544 62.024C58.8502 62.024 58.6616 62.082 58.4881 62.1923C58.3146 62.3025 58.1557 62.4476 58.01 62.639V66.1435H57.1792ZM65.685 61.4438V66.1435H64.8588V61.4438H65.685ZM65.8614 59.9644C65.8614 60.0456 65.8445 60.1211 65.8103 60.1907C65.7796 60.2603 65.736 60.3241 65.6803 60.3763C65.6275 60.4285 65.5643 60.4748 65.49 60.5038C65.4187 60.5328 65.3432 60.5502 65.2626 60.5502C65.1819 60.5502 65.1065 60.5328 65.0352 60.5038C64.9673 60.4748 64.9069 60.4285 64.8541 60.3763C64.8013 60.3241 64.7596 60.2603 64.7288 60.1907C64.6981 60.1211 64.6824 60.0456 64.6824 59.9644C64.6824 59.8831 64.6981 59.8076 64.7288 59.738C64.7596 59.6626 64.8013 59.5987 64.8541 59.5465C64.9069 59.4943 64.9673 59.448 65.0352 59.419C65.1065 59.3842 65.1819 59.3725 65.2626 59.3725C65.3432 59.3725 65.4187 59.3842 65.49 59.419C65.5643 59.448 65.6275 59.4943 65.6803 59.5465C65.736 59.5987 65.7796 59.6626 65.8103 59.738C65.8445 59.8076 65.8614 59.8831 65.8614 59.9644ZM67.8967 59.3088V66.1435H67.0705V59.3088H67.8967ZM70.109 61.4438V66.1435H69.2828V61.4438H70.109ZM70.2854 59.9644C70.2854 60.0456 70.2686 60.1211 70.2344 60.1907C70.2036 60.2603 70.1601 60.3241 70.1044 60.3763C70.0516 60.4285 69.9884 60.4748 69.9141 60.5038C69.8427 60.5328 69.7673 60.5502 69.6867 60.5502C69.606 60.5502 69.5306 60.5328 69.4592 60.5038C69.3913 60.4748 69.331 60.4285 69.2782 60.3763C69.2254 60.3241 69.1836 60.2603 69.1529 60.1907C69.1221 60.1211 69.1064 60.0456 69.1064 59.9644C69.1064 59.8831 69.1221 59.8076 69.1529 59.738C69.1836 59.6626 69.2254 59.5987 69.2782 59.5465C69.331 59.4943 69.3913 59.448 69.4592 59.419C69.5306 59.3842 69.606 59.3725 69.6867 59.3725C69.7673 59.3725 69.8427 59.3842 69.9141 59.419C69.9884 59.448 70.0516 59.4943 70.1044 59.5465C70.1601 59.5987 70.2036 59.6626 70.2344 59.738C70.2686 59.8076 70.2854 59.8831 70.2854 59.9644ZM74.6138 63.2773C74.6138 63.0858 74.5859 62.9118 74.5302 62.7552C74.4774 62.5927 74.3985 62.4593 74.2935 62.3433C74.1914 62.2272 74.066 62.1343 73.9175 62.0704C73.769 62.0066 73.6001 61.9775 73.4116 61.9775C73.0153 61.9775 72.7014 62.0936 72.4693 62.3257C72.2401 62.552 72.098 62.8712 72.0423 63.2773H74.6138ZM75.2822 65.482C75.18 65.6096 75.0576 65.7141 74.9155 65.8069C74.7733 65.8998 74.6201 65.9753 74.4559 66.0333C74.2952 66.0913 74.1281 66.1318 73.9546 66.1608C73.7812 66.1956 73.6094 66.2072 73.4394 66.2072C73.1145 66.2072 72.8145 66.1551 72.5389 66.0449C72.2668 65.9347 72.0301 65.7722 71.8288 65.5633C71.6309 65.3486 71.476 65.0876 71.3646 64.7743C71.2532 64.461 71.1975 64.101 71.1975 63.6949C71.1975 63.37 71.2468 63.0627 71.346 62.7784C71.4482 62.4941 71.5938 62.2504 71.7824 62.0415C71.9709 61.8327 72.2018 61.6644 72.474 61.5483C72.7461 61.4265 73.0524 61.3684 73.393 61.3684C73.6744 61.3684 73.9343 61.4148 74.1728 61.5135C74.4142 61.6063 74.6213 61.7399 74.7948 61.9197C74.9712 62.0938 75.1087 62.3141 75.2079 62.5809C75.3071 62.8362 75.3564 63.1381 75.3564 63.4688C75.3564 63.6023 75.3425 63.6891 75.3146 63.7297C75.2868 63.7704 75.234 63.7938 75.1568 63.7938H72.0144C72.0237 64.0897 72.0638 64.3507 72.1351 64.5712C72.2094 64.7916 72.3115 64.9716 72.4415 65.1225C72.5714 65.2675 72.7263 65.3777 72.9056 65.4531C73.0849 65.5227 73.2863 65.5576 73.509 65.5576C73.7162 65.5576 73.8943 65.5343 74.0428 65.4879C74.1943 65.4415 74.3242 65.3893 74.4327 65.3313C74.5412 65.2732 74.6306 65.2267 74.7019 65.1803C74.7762 65.128 74.8395 65.1049 74.8923 65.1049C74.9601 65.1049 75.0129 65.128 75.0501 65.1803L75.2822 65.482ZM76.2319 65.633C76.2319 65.5517 76.2459 65.4762 76.2737 65.4066C76.3045 65.337 76.3451 65.2733 76.3944 65.2211C76.4472 65.1688 76.5087 65.1281 76.5801 65.0933C76.6514 65.0643 76.7269 65.0468 76.8075 65.0468C76.8882 65.0468 76.9636 65.0643 77.035 65.0933C77.1063 65.1281 77.1678 65.1688 77.2206 65.2211C77.2734 65.2733 77.3152 65.337 77.3459 65.4066C77.3767 65.4762 77.3924 65.5517 77.3924 65.633C77.3924 65.7142 77.3767 65.7954 77.3459 65.865C77.3152 65.9346 77.2734 65.9927 77.2206 66.0449C77.1678 66.0971 77.1063 66.1377 77.035 66.1667C76.9636 66.1957 76.8882 66.2132 76.8075 66.2132C76.7269 66.2132 76.6514 66.1957 76.5801 66.1667C76.5087 66.1377 76.4472 66.0971 76.3944 66.0449C76.3451 65.9927 76.3045 65.9346 76.2737 65.865C76.2459 65.7954 76.2319 65.7142 76.2319 65.633ZM84.9089 65.3893V66.1435H81.1353V59.4944H82.0311V65.3893H84.9089ZM87.3556 61.3684C87.6991 61.3684 88.0084 61.4265 88.284 61.5367C88.559 61.6527 88.7945 61.8151 88.9895 62.024C89.1844 62.2387 89.333 62.4941 89.4351 62.79C89.5401 63.0917 89.5929 63.4223 89.5929 63.7878C89.5929 64.1592 89.5401 64.4957 89.4351 64.7916C89.333 65.0875 89.1844 65.3428 88.9895 65.5517C88.7945 65.7663 88.559 65.9287 88.284 66.0389C88.0084 66.155 87.6991 66.2072 87.3556 66.2072C87.0087 66.2072 86.6965 66.155 86.418 66.0389C86.1424 65.9287 85.9074 65.7663 85.7125 65.5517C85.5175 65.3428 85.3673 65.0875 85.2622 64.7916C85.1601 64.4957 85.1091 64.1592 85.1091 63.7878C85.1091 63.4223 85.1601 63.0917 85.2622 62.79C85.3673 62.4941 85.5175 62.2387 85.7125 62.024C85.9074 61.8151 86.1424 61.6527 86.418 61.5367C86.6965 61.4265 87.0087 61.3684 87.3556 61.3684ZM87.3556 65.5633C87.8198 65.5633 88.1662 65.4067 88.3954 65.0992C88.624 64.7859 88.7388 64.3508 88.7388 63.7938C88.7388 63.2368 88.624 62.7958 88.3954 62.4883C88.1662 62.175 87.8198 62.0183 87.3556 62.0183C87.1201 62.0183 86.9147 62.0589 86.7383 62.1401C86.5648 62.2156 86.4192 62.3317 86.302 62.4883C86.1871 62.6392 86.1007 62.8248 86.0421 63.0453C85.9864 63.2658 85.9585 63.5153 85.9585 63.7938C85.9585 64.3508 86.0728 64.7859 86.302 65.0992C86.5341 65.4067 86.8851 65.5633 87.3556 65.5633ZM91.4252 62.3838C91.5737 62.0647 91.7559 61.8095 91.9729 61.6296C92.1893 61.4498 92.4539 61.3568 92.7666 61.3568C92.8652 61.3568 92.9598 61.3684 93.0498 61.3916C93.1426 61.4149 93.2244 61.4438 93.2958 61.4902L93.2354 62.111C93.2169 62.1864 93.1705 62.2271 93.0962 62.2271C93.0527 62.2271 92.9894 62.2156 92.9059 62.1982C92.8223 62.1808 92.7277 62.169 92.6227 62.169C92.4742 62.169 92.3408 62.1922 92.2236 62.2328C92.1087 62.2792 92.0054 62.3432 91.9126 62.4302C91.8226 62.5115 91.7408 62.6217 91.6666 62.7436C91.5952 62.8712 91.5302 63.0103 91.4716 63.1728V66.1435H90.6408V61.4438H91.1142C91.2035 61.4438 91.2656 61.4612 91.2999 61.4902C91.3335 61.525 91.3567 61.5831 91.3695 61.6701L91.4252 62.3838ZM98.9365 62.2155C98.8994 62.2851 98.8419 62.32 98.7648 62.32C98.7184 62.32 98.6656 62.3024 98.607 62.2676C98.5484 62.2328 98.4753 62.198 98.3888 62.1574C98.3053 62.111 98.2049 62.0764 98.0871 62.0415C97.9693 62.0009 97.8301 61.9835 97.6694 61.9835C97.5301 61.9835 97.4048 62.0009 97.2934 62.0415C97.182 62.0764 97.0862 62.1228 97.0056 62.1866C96.9284 62.2446 96.8681 62.3198 96.8246 62.4011C96.7845 62.4823 96.7642 62.5693 96.7642 62.6679C96.7642 62.7898 96.7985 62.8884 96.8663 62.9696C96.9377 63.0509 97.0305 63.1207 97.1449 63.1787C97.2592 63.2367 97.3891 63.289 97.5347 63.3354C97.6804 63.376 97.8289 63.4282 97.9803 63.4804C98.1353 63.5269 98.285 63.5849 98.4306 63.6487C98.5762 63.7067 98.7062 63.7879 98.8205 63.8807C98.9348 63.9736 99.0264 64.0837 99.0943 64.223C99.1657 64.3564 99.2011 64.5131 99.2011 64.7046C99.2011 64.9193 99.1622 65.1224 99.085 65.308C99.0079 65.4879 98.893 65.6502 98.7416 65.7837C98.5901 65.9171 98.4045 66.0217 98.1846 66.103C97.9647 66.1784 97.7111 66.2188 97.4233 66.2188C97.0955 66.2188 96.7985 66.1666 96.5322 66.0622C96.2658 65.9519 96.0401 65.8129 95.8545 65.6446L96.0494 65.3313C96.0744 65.2906 96.1034 65.2615 96.1376 65.2383C96.1719 65.2151 96.2148 65.2035 96.2676 65.2035C96.3233 65.2035 96.3819 65.2268 96.444 65.2732C96.506 65.3138 96.5803 65.3603 96.6668 65.4126C96.7567 65.4648 96.8646 65.517 96.9917 65.5576C97.1187 65.604 97.2766 65.6214 97.4651 65.6214C97.6258 65.6214 97.7668 65.6039 97.8875 65.5633C98.0082 65.5227 98.1086 65.4648 98.1892 65.3893C98.2699 65.3197 98.3285 65.2382 98.3656 65.1454C98.4056 65.0526 98.4259 64.9541 98.4259 64.8496C98.4259 64.7162 98.3905 64.6119 98.3192 64.5306C98.2513 64.4436 98.1596 64.368 98.0453 64.3099C97.931 64.2461 97.7993 64.1939 97.6508 64.1533C97.5051 64.1069 97.3555 64.0605 97.2006 64.0082C97.0491 63.956 96.8988 63.9038 96.7503 63.8399C96.6047 63.7761 96.4747 63.6951 96.3604 63.6023C96.2461 63.5036 96.1533 63.3874 96.0819 63.2481C96.014 63.1031 95.9798 62.935 95.9798 62.732C95.9798 62.5521 96.0169 62.3779 96.0912 62.2155C96.1655 62.0472 96.274 61.9022 96.4161 61.7803C96.5583 61.6527 96.7335 61.554 96.9406 61.4786C97.1477 61.4032 97.3845 61.3684 97.6508 61.3684C97.96 61.3684 98.2374 61.4148 98.4816 61.5135C98.7294 61.6121 98.9429 61.7455 99.1222 61.9138L98.9365 62.2155ZM103.361 63.2773C103.361 63.0858 103.333 62.9118 103.278 62.7552C103.225 62.5927 103.146 62.4593 103.041 62.3433C102.939 62.2272 102.813 62.1343 102.665 62.0704C102.516 62.0066 102.348 61.9775 102.159 61.9775C101.763 61.9775 101.449 62.0936 101.217 62.3257C100.988 62.552 100.845 62.8712 100.79 63.2773H103.361ZM104.03 65.482C103.927 65.6096 103.805 65.7141 103.663 65.8069C103.52 65.8998 103.367 65.9753 103.203 66.0333C103.042 66.0913 102.875 66.1318 102.702 66.1608C102.529 66.1956 102.357 66.2072 102.187 66.2072C101.862 66.2072 101.561 66.1551 101.286 66.0449C101.014 65.9347 100.777 65.7722 100.576 65.5633C100.378 65.3486 100.223 65.0876 100.112 64.7743C100.001 64.461 99.9449 64.101 99.9449 63.6949C99.9449 63.37 99.9942 63.0627 100.093 62.7784C100.196 62.4941 100.341 62.2504 100.53 62.0415C100.718 61.8327 100.949 61.6644 101.221 61.5483C101.493 61.4265 101.8 61.3684 102.14 61.3684C102.422 61.3684 102.682 61.4148 102.92 61.5135C103.162 61.6063 103.369 61.7399 103.542 61.9197C103.719 62.0938 103.856 62.3141 103.955 62.5809C104.054 62.8362 104.104 63.1381 104.104 63.4688C104.104 63.6023 104.09 63.6891 104.062 63.7297C104.034 63.7704 103.981 63.7938 103.904 63.7938H100.762C100.771 64.0897 100.811 64.3507 100.883 64.5712C100.957 64.7916 101.059 64.9716 101.189 65.1225C101.319 65.2675 101.473 65.3777 101.653 65.4531C101.832 65.5227 102.034 65.5576 102.256 65.5576C102.464 65.5576 102.642 65.5343 102.79 65.4879C102.942 65.4415 103.072 65.3893 103.18 65.3313C103.288 65.2732 103.378 65.2267 103.449 65.1803C103.524 65.128 103.587 65.1049 103.64 65.1049C103.708 65.1049 103.76 65.128 103.797 65.1803L104.03 65.482ZM105.949 65.012C106.101 65.215 106.267 65.3602 106.446 65.4415C106.625 65.5285 106.827 65.5689 107.05 65.5689C107.489 65.5689 107.826 65.4125 108.061 65.0992C108.296 64.7859 108.414 64.339 108.414 63.7646C108.414 63.4571 108.386 63.1903 108.331 62.9756C108.278 62.7551 108.201 62.5751 108.099 62.4359C107.996 62.2908 107.871 62.1864 107.723 62.1226C107.574 62.0587 107.405 62.024 107.217 62.024C106.947 62.024 106.711 62.088 106.506 62.2098C106.305 62.3375 106.119 62.5113 105.949 62.7376V65.012ZM105.908 62.169C106.106 61.9253 106.335 61.7282 106.595 61.5832C106.855 61.4323 107.152 61.3568 107.486 61.3568C107.758 61.3568 108.004 61.409 108.224 61.5135C108.444 61.6179 108.631 61.7686 108.785 61.9775C108.94 62.1748 109.059 62.4243 109.143 62.726C109.226 63.0277 109.268 63.3701 109.268 63.7646C109.268 64.1069 109.222 64.4318 109.129 64.7335C109.036 65.0294 108.902 65.2905 108.725 65.5052C108.552 65.7257 108.338 65.894 108.085 66.0217C107.834 66.1493 107.551 66.2072 107.235 66.2072C106.947 66.2072 106.7 66.1608 106.493 66.0622C106.288 65.9635 106.107 65.8303 105.949 65.6562V67.7334H105.119V61.4438H105.615C105.733 61.4438 105.806 61.496 105.833 61.6121L105.908 62.169ZM112.871 64.0258C112.49 64.0374 112.165 64.072 111.896 64.1184C111.63 64.1649 111.412 64.2289 111.242 64.3043C111.074 64.3855 110.952 64.4724 110.875 64.5768C110.801 64.6871 110.763 64.8033 110.763 64.9309C110.763 65.0586 110.783 65.1629 110.824 65.2499C110.864 65.3428 110.918 65.4183 110.986 65.4763C111.057 65.5285 111.139 65.5749 111.232 65.5981C111.328 65.6271 111.43 65.6386 111.539 65.6386C111.684 65.6386 111.817 65.6213 111.938 65.5981C112.058 65.5633 112.171 65.5227 112.277 65.4647C112.385 65.4125 112.487 65.3429 112.583 65.2675C112.682 65.1863 112.778 65.099 112.871 65.0004V64.0258ZM110.202 62.1053C110.462 61.8558 110.741 61.67 111.042 61.5424C111.342 61.4205 111.674 61.3568 112.04 61.3568C112.303 61.3568 112.537 61.4032 112.741 61.4902C112.945 61.5773 113.117 61.6934 113.256 61.85C113.395 62.0067 113.5 62.1922 113.572 62.4127C113.642 62.6331 113.678 62.871 113.678 63.1379V66.1435H113.312C113.231 66.1435 113.169 66.1318 113.126 66.1086C113.083 66.0796 113.048 66.0275 113.024 65.9463L112.931 65.5052C112.807 65.6154 112.686 65.7199 112.569 65.8069C112.451 65.894 112.328 65.9695 112.198 66.0333C112.068 66.0913 111.928 66.1377 111.78 66.1667C111.634 66.2015 111.472 66.2188 111.293 66.2188C111.11 66.2188 110.938 66.1957 110.777 66.1435C110.616 66.0913 110.476 66.0159 110.355 65.9115C110.237 65.807 110.143 65.6793 110.072 65.5284C110.003 65.366 109.97 65.1803 109.97 64.9715C109.97 64.7858 110.021 64.606 110.123 64.4377C110.225 64.2637 110.39 64.1068 110.62 63.9734C110.848 63.8399 111.147 63.7358 111.515 63.6487C111.883 63.5617 112.335 63.5153 112.871 63.5037V63.1379C112.871 62.7724 112.792 62.4941 112.634 62.3084C112.476 62.1227 112.245 62.024 111.942 62.024C111.738 62.024 111.566 62.0531 111.427 62.1053C111.291 62.1575 111.172 62.2096 111.07 62.2792C110.971 62.3373 110.884 62.3953 110.81 62.4475C110.738 62.4997 110.667 62.5229 110.596 62.5229C110.541 62.5229 110.492 62.5114 110.452 62.4824C110.412 62.4475 110.378 62.4128 110.35 62.3722L110.202 62.1053ZM115.721 62.3838C115.87 62.0647 116.052 61.8095 116.269 61.6296C116.485 61.4498 116.75 61.3568 117.063 61.3568C117.161 61.3568 117.256 61.3684 117.346 61.3916C117.439 61.4149 117.52 61.4438 117.592 61.4902L117.532 62.111C117.513 62.1864 117.467 62.2271 117.392 62.2271C117.349 62.2271 117.285 62.2156 117.202 62.1982C117.118 62.1808 117.024 62.169 116.919 62.169C116.77 62.169 116.637 62.1922 116.52 62.2328C116.405 62.2792 116.301 62.3432 116.209 62.4302C116.119 62.5115 116.037 62.6217 115.963 62.7436C115.891 62.8712 115.826 63.0103 115.768 63.1728V66.1435H114.937V61.4438H115.41C115.5 61.4438 115.562 61.4612 115.596 61.4902C115.63 61.525 115.653 61.5831 115.666 61.6701L115.721 62.3838ZM120.794 64.0258C120.413 64.0374 120.088 64.072 119.819 64.1184C119.553 64.1649 119.335 64.2289 119.165 64.3043C118.998 64.3855 118.875 64.4724 118.798 64.5768C118.724 64.6871 118.687 64.8033 118.687 64.9309C118.687 65.0586 118.707 65.1629 118.747 65.2499C118.787 65.3428 118.842 65.4183 118.909 65.4763C118.981 65.5285 119.063 65.5749 119.156 65.5981C119.251 65.6271 119.353 65.6386 119.462 65.6386C119.607 65.6386 119.74 65.6213 119.861 65.5981C119.982 65.5633 120.095 65.5227 120.2 65.4647C120.308 65.4125 120.41 65.3429 120.506 65.2675C120.605 65.1863 120.701 65.099 120.794 65.0004V64.0258ZM118.125 62.1053C118.385 61.8558 118.665 61.67 118.965 61.5424C119.265 61.4205 119.598 61.3568 119.963 61.3568C120.226 61.3568 120.46 61.4032 120.664 61.4902C120.868 61.5773 121.04 61.6934 121.179 61.85C121.318 62.0067 121.424 62.1922 121.495 62.4127C121.566 62.6331 121.602 62.871 121.602 63.1379V66.1435H121.235C121.154 66.1435 121.093 66.1318 121.049 66.1086C121.006 66.0796 120.972 66.0275 120.947 65.9463L120.854 65.5052C120.731 65.6154 120.61 65.7199 120.492 65.8069C120.375 65.894 120.251 65.9695 120.121 66.0333C119.991 66.0913 119.852 66.1377 119.703 66.1667C119.558 66.2015 119.395 66.2188 119.216 66.2188C119.033 66.2188 118.861 66.1957 118.701 66.1435C118.54 66.0913 118.399 66.0159 118.278 65.9115C118.16 65.807 118.066 65.6793 117.995 65.5284C117.927 65.366 117.893 65.1803 117.893 64.9715C117.893 64.7858 117.944 64.606 118.046 64.4377C118.148 64.2637 118.314 64.1068 118.543 63.9734C118.772 63.8399 119.07 63.7358 119.439 63.6487C119.807 63.5617 120.258 63.5153 120.794 63.5037V63.1379C120.794 62.7724 120.715 62.4941 120.557 62.3084C120.399 62.1227 120.169 62.024 119.866 62.024C119.661 62.024 119.49 62.0531 119.35 62.1053C119.214 62.1575 119.095 62.2096 118.993 62.2792C118.894 62.3373 118.807 62.3953 118.733 62.4475C118.662 62.4997 118.591 62.5229 118.52 62.5229C118.464 62.5229 118.416 62.5114 118.376 62.4824C118.336 62.4475 118.301 62.4128 118.274 62.3722L118.125 62.1053ZM124.24 66.2188C123.869 66.2188 123.582 66.1144 123.382 65.9055C123.183 65.6966 123.085 65.4007 123.085 65.012V62.1342H122.518C122.468 62.1342 122.427 62.1169 122.393 62.0937C122.359 62.0589 122.342 62.0123 122.342 61.9543V61.6237L123.112 61.5251L123.303 60.0746C123.312 60.0282 123.332 59.9874 123.363 59.9584C123.397 59.9294 123.44 59.912 123.493 59.912H123.911V61.5367H125.271V62.1342H123.911V64.9542C123.911 65.1514 123.958 65.3022 124.055 65.395C124.15 65.4936 124.274 65.5401 124.426 65.5401C124.513 65.5401 124.587 65.5284 124.649 65.5052C124.714 65.482 124.77 65.4589 124.816 65.4298C124.862 65.4008 124.901 65.3777 124.932 65.3545C124.966 65.3313 124.995 65.3196 125.02 65.3196C125.063 65.3196 125.102 65.3428 125.136 65.395L125.378 65.7896C125.235 65.9231 125.063 66.0274 124.862 66.1086C124.661 66.1783 124.454 66.2188 124.24 66.2188ZM19.1769 77.2022C19.1769 77.0108 19.1491 76.8368 19.0934 76.6801C19.0406 76.5176 18.9617 76.3842 18.8567 76.2682C18.7545 76.1521 18.6292 76.0592 18.4807 75.9954C18.3321 75.9315 18.1633 75.9024 17.9747 75.9024C17.5785 75.9024 17.2646 76.0185 17.0325 76.2506C16.8033 76.4769 16.6612 76.7961 16.6055 77.2022H19.1769ZM19.8453 79.4069C19.7432 79.5345 19.6208 79.639 19.4786 79.7318C19.3365 79.8247 19.1833 79.9002 19.0191 79.9582C18.8584 80.0162 18.6913 80.0567 18.5178 80.0857C18.3443 80.1205 18.1726 80.1321 18.0026 80.1321C17.6777 80.1321 17.3777 80.0801 17.1021 79.9698C16.83 79.8596 16.5933 79.6971 16.3919 79.4882C16.1941 79.2735 16.0392 79.0125 15.9278 78.6992C15.8164 78.3859 15.7607 78.026 15.7607 77.6198C15.7607 77.2949 15.81 76.9876 15.9092 76.7033C16.0113 76.419 16.157 76.1753 16.3455 75.9665C16.5341 75.7576 16.765 75.5893 17.0371 75.4732C17.3092 75.3514 17.6156 75.2933 17.9562 75.2933C18.2376 75.2933 18.4975 75.3397 18.736 75.4384C18.9773 75.5312 19.1845 75.6648 19.3579 75.8446C19.5343 76.0187 19.6718 76.239 19.7711 76.5059C19.8703 76.7612 19.9196 77.063 19.9196 77.3937C19.9196 77.5272 19.9057 77.614 19.8778 77.6547C19.85 77.6953 19.7972 77.7187 19.72 77.7187H16.5776C16.5869 78.0146 16.6269 78.2756 16.6983 78.4961C16.7726 78.7165 16.8747 78.8965 17.0046 79.0474C17.1346 79.1924 17.2895 79.3026 17.4688 79.378C17.6481 79.4476 17.8494 79.4825 18.0722 79.4825C18.2793 79.4825 18.4575 79.4593 18.606 79.4128C18.7574 79.3664 18.8874 79.3142 18.9959 79.2562C19.1044 79.1982 19.1937 79.1516 19.2651 79.1052C19.3394 79.053 19.4026 79.0298 19.4554 79.0298C19.5233 79.0298 19.5761 79.053 19.6132 79.1052L19.8453 79.4069ZM24.733 80.0684H23.9392C23.8708 80.0684 23.8168 80.0511 23.7768 80.0163C23.7397 79.9815 23.7083 79.9409 23.684 79.8945L22.5003 78.055C22.4876 78.0956 22.4736 78.1421 22.4586 78.1827C22.4458 78.2234 22.4272 78.2639 22.4029 78.2929L21.3074 79.8945C21.2761 79.9409 21.2425 79.9815 21.2053 80.0163C21.1711 80.0511 21.1229 80.0684 21.0614 80.0684H20.3234L21.9712 77.6547L20.3884 75.3687H21.1821C21.25 75.3687 21.2993 75.3747 21.3306 75.3979C21.3614 75.4211 21.3892 75.4499 21.4142 75.4905L22.57 77.2544C22.5943 77.1673 22.6332 77.0805 22.686 76.9934L23.6979 75.5081C23.7257 75.4675 23.7547 75.4327 23.7861 75.4095C23.8197 75.3805 23.8603 75.3687 23.9068 75.3687H24.668L23.0852 77.6141L24.733 80.0684ZM26.3674 75.3687V80.0684H25.5412V75.3687H26.3674ZM26.5438 73.8893C26.5438 73.9705 26.5264 74.046 26.4927 74.1156C26.4614 74.1853 26.4185 74.249 26.3628 74.3012C26.31 74.3534 26.2467 74.3997 26.1724 74.4287C26.1011 74.4577 26.0251 74.4751 25.945 74.4751C25.8644 74.4751 25.7884 74.4577 25.7176 74.4287C25.6491 74.3997 25.5888 74.3534 25.5366 74.3012C25.4838 74.249 25.442 74.1853 25.4112 74.1156C25.3799 74.046 25.3648 73.9705 25.3648 73.8893C25.3648 73.808 25.3799 73.7325 25.4112 73.6629C25.442 73.5875 25.4838 73.5236 25.5366 73.4714C25.5888 73.4192 25.6491 73.3729 25.7176 73.3439C25.7884 73.3091 25.8644 73.2975 25.945 73.2975C26.0251 73.2975 26.1011 73.3091 26.1724 73.3439C26.2467 73.3729 26.31 73.4192 26.3628 73.4714C26.4185 73.5236 26.4614 73.5875 26.4927 73.6629C26.5264 73.7325 26.5438 73.808 26.5438 73.8893ZM30.4631 76.1404C30.4259 76.21 30.3691 76.2449 30.2913 76.2449C30.2449 76.2449 30.1927 76.2273 30.1335 76.1925C30.0749 76.1577 30.0024 76.1229 29.9154 76.0823C29.8318 76.0359 29.7314 76.0013 29.6136 75.9665C29.4964 75.9258 29.3572 75.9084 29.1959 75.9084C29.0567 75.9084 28.9313 75.9258 28.8199 75.9665C28.7085 76.0013 28.6128 76.0477 28.5321 76.1115C28.455 76.1695 28.3946 76.2447 28.3511 76.326C28.3111 76.4072 28.2908 76.4942 28.2908 76.5928C28.2908 76.7147 28.325 76.8133 28.3929 76.8946C28.4643 76.9758 28.5571 77.0456 28.6714 77.1036C28.7863 77.1617 28.9162 77.2139 29.0613 77.2603C29.2069 77.3009 29.3555 77.3531 29.5069 77.4054C29.6618 77.4518 29.8121 77.5098 29.9571 77.5736C30.1028 77.6317 30.2327 77.7128 30.347 77.8057C30.4619 77.8985 30.553 78.0086 30.6209 78.1479C30.6923 78.2813 30.7276 78.438 30.7276 78.6295C30.7276 78.8442 30.6893 79.0473 30.6116 79.2329C30.5344 79.4128 30.4201 79.5752 30.2681 79.7086C30.1167 79.8421 29.931 79.9467 29.7111 80.0279C29.4918 80.1033 29.2377 80.1438 28.9499 80.1438C28.6221 80.1438 28.325 80.0915 28.0587 79.9871C27.793 79.8769 27.5667 79.7378 27.381 79.5695L27.576 79.2562C27.6009 79.2156 27.6305 79.1865 27.6642 79.1632C27.6984 79.14 27.7419 79.1284 27.7941 79.1284C27.8498 79.1284 27.909 79.1517 27.9705 79.1981C28.0326 79.2387 28.1069 79.2853 28.1933 79.3375C28.2832 79.3897 28.3917 79.4419 28.5182 79.4825C28.6453 79.5289 28.8031 79.5463 28.9917 79.5463C29.153 79.5463 29.2934 79.5288 29.4141 79.4882C29.5347 79.4476 29.6357 79.3897 29.7158 79.3143C29.7964 79.2446 29.855 79.1632 29.8921 79.0703C29.9328 78.9775 29.9525 78.879 29.9525 78.7746C29.9525 78.6411 29.9171 78.5368 29.8457 78.4556C29.7778 78.3685 29.6868 78.2929 29.5719 78.2349C29.4576 78.171 29.3259 78.1188 29.1773 78.0782C29.0323 78.0318 28.882 77.9854 28.7271 77.9331C28.5757 77.8809 28.4254 77.8287 28.2769 77.7649C28.1318 77.701 28.0018 77.62 27.887 77.5272C27.7727 77.4285 27.6798 77.3123 27.6085 77.173C27.5406 77.028 27.5063 76.8599 27.5063 76.6569C27.5063 76.477 27.5435 76.3029 27.6177 76.1404C27.692 75.9721 27.8005 75.8271 27.9427 75.7053C28.0854 75.5776 28.26 75.479 28.4672 75.4035C28.6749 75.3281 28.9116 75.2933 29.1773 75.2933C29.4872 75.2933 29.7639 75.3397 30.0082 75.4384C30.2559 75.537 30.4695 75.6704 30.6487 75.8387L30.4631 76.1404ZM33.1842 80.1438C32.8129 80.1438 32.5269 80.0393 32.3255 79.8304C32.1277 79.6216 32.0285 79.3256 32.0285 78.9369V76.0591H31.4622C31.4129 76.0591 31.3711 76.0418 31.3369 76.0186C31.3026 75.9838 31.2858 75.9372 31.2858 75.8792V75.5486L32.0563 75.45L32.2466 73.9995C32.2559 73.9531 32.2762 73.9123 32.307 73.8833C32.3412 73.8543 32.3841 73.8369 32.4369 73.8369H32.8547V75.4616H34.2147V76.0591H32.8547V78.8791C32.8547 79.0764 32.9028 79.2271 32.9986 79.3199C33.0943 79.4185 33.2185 79.465 33.3699 79.465C33.4564 79.465 33.5306 79.4533 33.5927 79.4301C33.6577 79.4069 33.7134 79.3838 33.7598 79.3548C33.8062 79.3258 33.8451 79.3026 33.8758 79.2794C33.9101 79.2562 33.9391 79.2446 33.964 79.2446C34.0075 79.2446 34.0458 79.2677 34.0801 79.3199L34.3214 79.7146C34.1793 79.848 34.0075 79.9523 33.8062 80.0336C33.6049 80.1032 33.3977 80.1438 33.1842 80.1438ZM38.1879 77.2022C38.1879 77.0108 38.1601 76.8368 38.1044 76.6801C38.0516 76.5176 37.9727 76.3842 37.8676 76.2682C37.7655 76.1521 37.6402 76.0592 37.4917 75.9954C37.3431 75.9315 37.1743 75.9024 36.9857 75.9024C36.5895 75.9024 36.2756 76.0185 36.0435 76.2506C35.8143 76.4769 35.6721 76.7961 35.6164 77.2022H38.1879ZM38.8563 79.4069C38.7542 79.5345 38.6318 79.639 38.4896 79.7318C38.3469 79.8247 38.1937 79.9002 38.0301 79.9582C37.8688 80.0162 37.7017 80.0567 37.5288 80.0857C37.3553 80.1205 37.1836 80.1321 37.0136 80.1321C36.6887 80.1321 36.3881 80.0801 36.1131 79.9698C35.8404 79.8596 35.6037 79.6971 35.4029 79.4882C35.2045 79.2735 35.0502 79.0125 34.9388 78.6992C34.8274 78.3859 34.7717 78.026 34.7717 77.6198C34.7717 77.2949 34.821 76.9876 34.9202 76.7033C35.0223 76.419 35.1674 76.1753 35.3565 75.9665C35.5451 75.7576 35.7754 75.5893 36.0481 75.4732C36.3202 75.3514 36.6266 75.2933 36.9672 75.2933C37.2486 75.2933 37.5085 75.3397 37.747 75.4384C37.9883 75.5312 38.1955 75.6648 38.3689 75.8446C38.5453 76.0187 38.6828 76.239 38.782 76.5059C38.8807 76.7612 38.9306 77.063 38.9306 77.3937C38.9306 77.5272 38.9167 77.614 38.8888 77.6547C38.861 77.6953 38.8082 77.7187 38.731 77.7187H35.5886C35.5979 78.0146 35.6379 78.2756 35.7093 78.4961C35.7836 78.7165 35.8857 78.8965 36.0156 79.0474C36.1456 79.1924 36.2999 79.3026 36.4798 79.378C36.6591 79.4476 36.8604 79.4825 37.0832 79.4825C37.2903 79.4825 37.4685 79.4593 37.617 79.4128C37.7684 79.3664 37.8984 79.3142 38.0069 79.2562C38.1148 79.1982 38.2047 79.1516 38.2761 79.1052C38.3504 79.053 38.4136 79.0298 38.4664 79.0298C38.5343 79.0298 38.5871 79.053 38.6242 79.1052L38.8563 79.4069ZM40.7251 76.0475C40.8273 75.9314 40.9352 75.8329 41.0501 75.7401C41.1644 75.6473 41.285 75.5659 41.4121 75.5021C41.5421 75.4325 41.6778 75.3803 41.8206 75.3455C41.9656 75.3106 42.1223 75.2933 42.2894 75.2933C42.5458 75.2933 42.7721 75.3341 42.9671 75.4211C43.1649 75.5081 43.3291 75.6241 43.4591 75.7866C43.5919 75.9374 43.6923 76.1289 43.7608 76.3435C43.8287 76.564 43.8629 76.8076 43.8629 77.0745V80.0684H43.032V77.0745C43.032 76.7205 42.9497 76.4421 42.786 76.2506C42.6247 76.0475 42.3787 75.9489 42.048 75.9489C41.8032 75.9489 41.5746 76.0127 41.3611 76.1288C41.1504 76.2448 40.9555 76.4072 40.7762 76.6045V80.0684H39.9454V75.3687H40.442C40.5592 75.3687 40.6323 75.4209 40.6602 75.537L40.7251 76.0475ZM46.5017 80.1438C46.1303 80.1438 45.8443 80.0393 45.643 79.8304C45.4451 79.6216 45.3459 79.3256 45.3459 78.9369V76.0591H44.7796C44.7303 76.0591 44.6885 76.0418 44.6543 76.0186C44.6206 75.9838 44.6032 75.9372 44.6032 75.8792V75.5486L45.3738 75.45L45.5641 73.9995C45.5733 73.9531 45.5936 73.9123 45.6244 73.8833C45.6586 73.8543 45.7021 73.8369 45.7544 73.8369H46.1721V75.4616H47.5321V76.0591H46.1721V78.8791C46.1721 79.0764 46.2203 79.2271 46.316 79.3199C46.4123 79.4185 46.5359 79.465 46.6873 79.465C46.7744 79.465 46.8486 79.4533 46.9101 79.4301C46.9751 79.4069 47.0308 79.3838 47.0772 79.3548C47.1237 79.3258 47.1625 79.3026 47.1933 79.2794C47.2275 79.2562 47.2571 79.2446 47.2815 79.2446C47.325 79.2446 47.3639 79.2677 47.3975 79.3199L47.6389 79.7146C47.4967 79.848 47.325 79.9523 47.1236 80.0336C46.9229 80.1032 46.7152 80.1438 46.5017 80.1438ZM49.2582 75.3687V80.0684H48.432V75.3687H49.2582ZM49.4346 73.8893C49.4346 73.9705 49.4172 74.046 49.3835 74.1156C49.3522 74.1853 49.3093 74.249 49.2536 74.3012C49.2008 74.3534 49.1375 74.3997 49.0633 74.4287C48.9919 74.4577 48.9159 74.4751 48.8358 74.4751C48.7552 74.4751 48.6792 74.4577 48.6084 74.4287C48.5399 74.3997 48.4796 74.3534 48.4274 74.3012C48.3746 74.249 48.3328 74.1853 48.302 74.1156C48.2707 74.046 48.2556 73.9705 48.2556 73.8893C48.2556 73.808 48.2707 73.7325 48.302 73.6629C48.3328 73.5875 48.3746 73.5236 48.4274 73.4714C48.4796 73.4192 48.5399 73.3729 48.6084 73.3439C48.6792 73.3091 48.7552 73.2975 48.8358 73.2975C48.9159 73.2975 48.9919 73.3091 49.0633 73.3439C49.1375 73.3729 49.2008 73.4192 49.2536 73.4714C49.3093 73.5236 49.3522 73.5875 49.3835 73.6629C49.4172 73.7325 49.4346 73.808 49.4346 73.8893ZM53.7624 77.2022C53.7624 77.0108 53.7345 76.8368 53.6788 76.6801C53.6266 76.5176 53.5477 76.3842 53.4421 76.2682C53.34 76.1521 53.2146 76.0592 53.0661 75.9954C52.9176 75.9315 52.7493 75.9024 52.5602 75.9024C52.1645 75.9024 51.85 76.0185 51.6179 76.2506C51.3893 76.4769 51.2466 76.7961 51.1909 77.2022H53.7624ZM54.4308 79.4069C54.3286 79.5345 54.2068 79.639 54.0641 79.7318C53.9219 79.8247 53.7687 79.9002 53.6045 79.9582C53.4438 80.0162 53.2767 80.0567 53.1032 80.0857C52.9303 80.1205 52.7586 80.1321 52.588 80.1321C52.2631 80.1321 51.9631 80.0801 51.6875 79.9698C51.4154 79.8596 51.1787 79.6971 50.9774 79.4882C50.7795 79.2735 50.6246 79.0125 50.5132 78.6992C50.4018 78.3859 50.3461 78.026 50.3461 77.6198C50.3461 77.2949 50.396 76.9876 50.4946 76.7033C50.5968 76.419 50.7424 76.1753 50.931 75.9665C51.1201 75.7576 51.3504 75.5893 51.6226 75.4732C51.8953 75.3514 52.2016 75.2933 52.5416 75.2933C52.8236 75.2933 53.0835 75.3397 53.3214 75.4384C53.5628 75.5312 53.7705 75.6648 53.9434 75.8446C54.1198 76.0187 54.2578 76.239 54.3565 76.5059C54.4557 76.7612 54.505 77.063 54.505 77.3937C54.505 77.5272 54.4911 77.614 54.4632 77.6547C54.4354 77.6953 54.3832 77.7187 54.3054 77.7187H51.163C51.1723 78.0146 51.2129 78.2756 51.2837 78.4961C51.358 78.7165 51.4601 78.8965 51.5901 79.0474C51.72 79.1924 51.8749 79.3026 52.0542 79.378C52.2341 79.4476 52.4348 79.4825 52.6576 79.4825C52.8654 79.4825 53.0429 79.4593 53.1914 79.4128C53.3434 79.3664 53.4734 79.3142 53.5813 79.2562C53.6898 79.1982 53.7798 79.1516 53.8505 79.1052C53.9248 79.053 53.9886 79.0298 54.0409 79.0298C54.1093 79.0298 54.1615 79.053 54.1987 79.1052L54.4308 79.4069ZM61.0422 77.2022C61.0422 77.0108 61.0143 76.8368 60.9586 76.6801C60.9064 76.5176 60.8275 76.3842 60.7219 76.2682C60.6198 76.1521 60.4945 76.0592 60.3459 75.9954C60.1974 75.9315 60.0291 75.9024 59.84 75.9024C59.4443 75.9024 59.1298 76.0185 58.8977 76.2506C58.6691 76.4769 58.5264 76.7961 58.4707 77.2022H61.0422ZM61.7106 79.4069C61.6085 79.5345 61.4866 79.639 61.3439 79.7318C61.2017 79.8247 61.0486 79.9002 60.8844 79.9582C60.7237 80.0162 60.5566 80.0567 60.3831 80.0857C60.2102 80.1205 60.0384 80.1321 59.8679 80.1321C59.5429 80.1321 59.243 80.0801 58.9674 79.9698C58.6953 79.8596 58.4585 79.6971 58.2572 79.4882C58.0594 79.2735 57.9044 79.0125 57.793 78.6992C57.6816 78.3859 57.6259 78.026 57.6259 77.6198C57.6259 77.2949 57.6758 76.9876 57.7745 76.7033C57.8766 76.419 58.0222 76.1753 58.2108 75.9665C58.3999 75.7576 58.6303 75.5893 58.9024 75.4732C59.1751 75.3514 59.4814 75.2933 59.8214 75.2933C60.1034 75.2933 60.3633 75.3397 60.6012 75.4384C60.8426 75.5312 61.0503 75.6648 61.2232 75.8446C61.3996 76.0187 61.5377 76.239 61.6363 76.5059C61.7355 76.7612 61.7849 77.063 61.7849 77.3937C61.7849 77.5272 61.7709 77.614 61.7431 77.6547C61.7152 77.6953 61.663 77.7187 61.5853 77.7187H58.4429C58.4521 78.0146 58.4928 78.2756 58.5636 78.4961C58.6378 78.7165 58.7399 78.8965 58.8699 79.0474C58.9999 79.1924 59.1548 79.3026 59.3341 79.378C59.5139 79.4476 59.7147 79.4825 59.9375 79.4825C60.1452 79.4825 60.3227 79.4593 60.4713 79.4128C60.6233 79.3664 60.7532 79.3142 60.8612 79.2562C60.9697 79.1982 61.0596 79.1516 61.1304 79.1052C61.2046 79.053 61.2685 79.0298 61.3207 79.0298C61.3891 79.0298 61.4414 79.053 61.4785 79.1052L61.7106 79.4069ZM65.5382 76.1404C65.5011 76.21 65.4442 76.2449 65.3664 76.2449C65.32 76.2449 65.2678 76.2273 65.2086 76.1925C65.15 76.1577 65.0775 76.1229 64.9905 76.0823C64.9069 76.0359 64.8065 76.0013 64.6888 75.9665C64.5716 75.9258 64.4323 75.9084 64.271 75.9084C64.1318 75.9084 64.0064 75.9258 63.8951 75.9665C63.7837 76.0013 63.6879 76.0477 63.6073 76.1115C63.5301 76.1695 63.4698 76.2447 63.4262 76.326C63.3862 76.4072 63.3659 76.4942 63.3659 76.5928C63.3659 76.7147 63.4001 76.8133 63.468 76.8946C63.5394 76.9758 63.6322 77.0456 63.7465 77.1036C63.8614 77.1617 63.9914 77.2139 64.1364 77.2603C64.282 77.3009 64.4306 77.3531 64.582 77.4054C64.7369 77.4518 64.8872 77.5098 65.0323 77.5736C65.1779 77.6317 65.3078 77.7128 65.4222 77.8057C65.537 77.8985 65.6281 78.0086 65.696 78.1479C65.7674 78.2813 65.8028 78.438 65.8028 78.6295C65.8028 78.8442 65.7645 79.0473 65.6867 79.2329C65.6096 79.4128 65.4953 79.5752 65.3432 79.7086C65.1918 79.8421 65.0061 79.9467 64.7862 80.0279C64.5669 80.1033 64.3128 80.1438 64.025 80.1438C63.6972 80.1438 63.4001 80.0915 63.1338 79.9871C62.8681 79.8769 62.6418 79.7378 62.4561 79.5695L62.6511 79.2562C62.676 79.2156 62.7056 79.1865 62.7393 79.1632C62.7735 79.14 62.817 79.1284 62.8692 79.1284C62.9249 79.1284 62.9841 79.1517 63.0456 79.1981C63.1077 79.2387 63.182 79.2853 63.2684 79.3375C63.3584 79.3897 63.4669 79.4419 63.5933 79.4825C63.7204 79.5289 63.8782 79.5463 64.0668 79.5463C64.2281 79.5463 64.3685 79.5288 64.4892 79.4882C64.6099 79.4476 64.7108 79.3897 64.7909 79.3143C64.8715 79.2446 64.9301 79.1632 64.9673 79.0703C65.0079 78.9775 65.0276 78.879 65.0276 78.7746C65.0276 78.6411 64.9922 78.5368 64.9209 78.4556C64.853 78.3685 64.7619 78.2929 64.647 78.2349C64.5327 78.171 64.401 78.1188 64.2525 78.0782C64.1074 78.0318 63.9571 77.9854 63.8022 77.9331C63.6508 77.8809 63.5005 77.8287 63.352 77.7649C63.2069 77.701 63.077 77.62 62.9621 77.5272C62.8478 77.4285 62.7549 77.3123 62.6836 77.173C62.6157 77.028 62.5815 76.8599 62.5815 76.6569C62.5815 76.477 62.6186 76.3029 62.6929 76.1404C62.7671 75.9721 62.8756 75.8271 63.0178 75.7053C63.1605 75.5776 63.3352 75.479 63.5423 75.4035C63.75 75.3281 63.9867 75.2933 64.2525 75.2933C64.5623 75.2933 64.839 75.3397 65.0833 75.4384C65.3311 75.537 65.5446 75.6704 65.7239 75.8387L65.5382 76.1404ZM73.0576 75.3687V80.0684H72.5656C72.4478 80.0684 72.3736 80.0105 72.3428 79.8945L72.2778 79.3896C72.0736 79.6159 71.8444 79.8014 71.5909 79.9406C71.3373 80.0741 71.0461 80.1438 70.7183 80.1438C70.4612 80.1438 70.2338 80.1033 70.0359 80.0163C69.841 79.9292 69.6768 79.8073 69.5439 79.6565C69.4111 79.4998 69.3101 79.314 69.2422 79.0936C69.1772 78.8731 69.1447 78.6295 69.1447 78.3626V75.3687H69.971V78.3626C69.971 78.7224 70.0516 78.9952 70.2123 79.1924C70.3765 79.3839 70.6254 79.4825 70.9596 79.4825C71.2039 79.4825 71.4313 79.4245 71.6419 79.3143C71.8555 79.1924 72.0521 79.0356 72.2314 78.8267V75.3687H73.0576ZM75.1475 76.0475C75.2497 75.9314 75.3582 75.8329 75.4725 75.7401C75.5868 75.6473 75.7074 75.5659 75.8345 75.5021C75.9645 75.4325 76.1008 75.3803 76.243 75.3455C76.3886 75.3106 76.5447 75.2933 76.7118 75.2933C76.9688 75.2933 77.1945 75.3341 77.3895 75.4211C77.5873 75.5081 77.7515 75.6241 77.8815 75.7866C78.0143 75.9374 78.1153 76.1289 78.1832 76.3435C78.2511 76.564 78.2853 76.8076 78.2853 77.0745V80.0684H77.4544V77.0745C77.4544 76.7205 77.3726 76.4421 77.2084 76.2506C77.0477 76.0475 76.8017 75.9489 76.4704 75.9489C76.2261 75.9489 75.997 76.0127 75.7835 76.1288C75.5728 76.2448 75.3779 76.4072 75.1986 76.6045V80.0684H74.3677V75.3687H74.8644C74.9822 75.3687 75.0547 75.4209 75.0826 75.537L75.1475 76.0475ZM81.9197 80.0684V75.3687H82.4163C82.5336 75.3687 82.6067 75.4209 82.6345 75.537L82.6948 76.0186C82.8677 75.8097 83.0627 75.6299 83.2797 75.4965C83.4961 75.363 83.7468 75.2933 84.0316 75.2933C84.3473 75.2933 84.6026 75.3805 84.7975 75.5545C84.9954 75.7344 85.1375 75.9721 85.2245 76.2738C85.2924 76.0998 85.3789 75.9549 85.4845 75.833C85.5924 75.7054 85.7131 75.6066 85.8465 75.5254C85.9794 75.4441 86.1204 75.3861 86.2689 75.3455C86.4203 75.3106 86.5735 75.2933 86.7284 75.2933C86.9756 75.2933 87.1955 75.3339 87.3875 75.4151C87.5825 75.4906 87.7461 75.6065 87.8796 75.7574C88.0153 75.9082 88.1192 76.094 88.1905 76.3203C88.2613 76.535 88.2973 76.7902 88.2973 77.0745V80.0684H87.4665V77.0745C87.4665 76.7089 87.3858 76.4305 87.2251 76.239C87.0638 76.0475 86.8317 75.9489 86.5288 75.9489C86.3925 75.9489 86.2625 75.9778 86.1389 76.0243C86.0183 76.0707 85.9115 76.1405 85.8187 76.2333C85.7258 76.3262 85.6516 76.4421 85.5959 76.5872C85.5431 76.7264 85.517 76.8888 85.517 77.0745V80.0684H84.6861V77.0745C84.6861 76.6973 84.6101 76.413 84.4587 76.2274C84.3067 76.0417 84.0856 75.9489 83.7949 75.9489C83.5907 75.9489 83.4015 76.0069 83.2286 76.1172C83.0552 76.2274 82.8956 76.3725 82.7505 76.5639V80.0684H81.9197ZM93.4919 75.3687L90.8694 81.4552C90.8415 81.519 90.8055 81.5653 90.7626 81.6059C90.722 81.6407 90.6587 81.6583 90.5723 81.6583H89.9596L90.8183 79.7956L88.8781 75.3687H89.5929C89.6637 75.3687 89.7194 75.3863 89.76 75.4211C89.8029 75.4559 89.8325 75.4964 89.8482 75.537L91.1061 78.5017C91.1554 78.6294 91.1972 78.7629 91.2314 78.908C91.2743 78.7629 91.3207 78.6237 91.3706 78.4961L92.5914 75.537C92.61 75.4906 92.6407 75.45 92.6842 75.4151C92.7306 75.3861 92.7817 75.3687 92.8374 75.3687H93.4919ZM95.6653 80.1438C95.294 80.1438 95.0074 80.0393 94.8066 79.8304C94.6082 79.6216 94.5096 79.3256 94.5096 78.9369V76.0591H93.9433C93.8934 76.0591 93.8516 76.0418 93.818 76.0186C93.7837 75.9838 93.7669 75.9372 93.7669 75.8792V75.5486L94.5374 75.45L94.7277 73.9995C94.737 73.9531 94.7567 73.9123 94.7881 73.8833C94.8217 73.8543 94.8652 73.8369 94.918 73.8369H95.3358V75.4616H96.6958V76.0591H95.3358V78.8791C95.3358 79.0764 95.3834 79.2271 95.4797 79.3199C95.5754 79.4185 95.699 79.465 95.851 79.465C95.9374 79.465 96.0117 79.4533 96.0738 79.4301C96.1388 79.4069 96.1945 79.3838 96.2409 79.3548C96.2873 79.3258 96.3256 79.3026 96.3569 79.2794C96.3906 79.2562 96.4202 79.2446 96.4451 79.2446C96.4881 79.2446 96.5269 79.2677 96.5612 79.3199L96.8025 79.7146C96.6598 79.848 96.4881 79.9523 96.2873 80.0336C96.086 80.1032 95.8788 80.1438 95.6653 80.1438ZM98.3795 75.9954C98.5809 75.7807 98.8037 75.6067 99.0479 75.4848C99.2922 75.3572 99.5742 75.2933 99.8927 75.2933C100.15 75.2933 100.375 75.3341 100.57 75.4211C100.768 75.5081 100.932 75.6241 101.062 75.7866C101.195 75.9374 101.296 76.1289 101.364 76.3435C101.432 76.564 101.466 76.8076 101.466 77.0745V80.0684H100.635V77.0745C100.635 76.7205 100.554 76.4421 100.389 76.2506C100.229 76.0475 99.9826 75.9489 99.6513 75.9489C99.4071 75.9489 99.1779 76.0127 98.9644 76.1288C98.7538 76.2448 98.5588 76.4072 98.3795 76.6045V80.0684H97.5487V73.2337H98.3795V75.9954ZM102.586 79.5579C102.586 79.4767 102.6 79.4012 102.628 79.3315C102.659 79.2619 102.699 79.1982 102.748 79.146C102.801 79.0937 102.863 79.053 102.934 79.0182C103.006 78.9892 103.081 78.9717 103.162 78.9717C103.242 78.9717 103.318 78.9892 103.389 79.0182C103.46 79.053 103.522 79.0937 103.575 79.146C103.627 79.1982 103.669 79.2619 103.7 79.3315C103.731 79.4012 103.746 79.4767 103.746 79.5579C103.746 79.6391 103.731 79.7203 103.7 79.7899C103.669 79.8595 103.627 79.9176 103.575 79.9698C103.522 80.022 103.46 80.0626 103.389 80.0916C103.318 80.1206 103.242 80.1381 103.162 80.1381C103.081 80.1381 103.006 80.1206 102.934 80.0916C102.863 80.0626 102.801 80.022 102.748 79.9698C102.699 79.9176 102.659 79.8595 102.628 79.7899C102.6 79.7203 102.586 79.6391 102.586 79.5579ZM104.502 72.9725C104.632 73.193 104.72 73.4252 104.766 73.6689C104.813 73.9126 104.817 74.1562 104.78 74.3941C104.743 74.632 104.666 74.8581 104.548 75.0786C104.43 75.2991 104.274 75.4907 104.079 75.6647L103.829 75.5021C103.782 75.4731 103.761 75.4383 103.764 75.3919C103.77 75.3455 103.785 75.3107 103.81 75.2817C103.891 75.1831 103.959 75.0671 104.014 74.9279C104.073 74.7828 104.11 74.6319 104.126 74.4695C104.144 74.307 104.137 74.1387 104.103 73.9646C104.072 73.7906 104.008 73.6224 103.912 73.4657C103.872 73.3961 103.86 73.3437 103.875 73.2915C103.894 73.2393 103.933 73.1988 103.991 73.1756L104.502 72.9725ZM105.913 72.9725C106.043 73.193 106.131 73.4252 106.177 73.6689C106.224 73.9126 106.229 74.1562 106.191 74.3941C106.154 74.632 106.077 74.8581 105.959 75.0786C105.842 75.2991 105.685 75.4907 105.491 75.6647L105.24 75.5021C105.193 75.4731 105.172 75.4383 105.175 75.3919C105.181 75.3455 105.196 75.3107 105.221 75.2817C105.302 75.1831 105.37 75.0671 105.426 74.9279C105.484 74.7828 105.521 74.6319 105.537 74.4695C105.555 74.307 105.548 74.1387 105.514 73.9646C105.483 73.7906 105.419 73.6224 105.323 73.4657C105.283 73.3961 105.271 73.3437 105.286 73.2915C105.305 73.2393 105.344 73.1988 105.402 73.1756L105.913 72.9725Z" fill="#484848"/>
</g>
<defs>
<filter id="filter0_d_2_1337" x="-24.0142" y="-18.0107" width="218.028" height="145.503" filterUnits="userSpaceOnUse" color-interpolation-filters="sRGB">
<feFlood flood-opacity="0" result="BackgroundImageFix"/>
<feColorMatrix in="SourceAlpha" type="matrix" values="0 0 0 0 0 0 0 0 0 0 0 0 0 0 0 0 0 0 127 0" result="hardAlpha"/>
<feOffset dy="6"/>
<feGaussianBlur stdDeviation="12"/>
<feComposite in2="hardAlpha" operator="out"/>
<feColorMatrix type="matrix" values="0 0 0 0 0.279167 0 0 0 0 0.279167 0 0 0 0 0.279167 0 0 0 0.08 0"/>
<feBlend mode="normal" in2="BackgroundImageFix" result="effect1_dropShadow_2_1337"/>
<feBlend mode="normal" in="SourceGraphic" in2="effect1_dropShadow_2_1337" result="shape"/>
</filter>
</defs>
</svg>
