<svg width="199" height="9" viewBox="0 0 199 9" fill="none" xmlns="http://www.w3.org/2000/svg">
<path d="M3.96346 5.87074C3.2702 5.87074 2.75967 5.68512 2.4319 5.31384C2.10354 4.94255 1.93997 4.43805 1.93997 3.7941C1.93997 3.14435 2.11922 2.63957 2.47832 2.27408C2.84322 1.9028 3.33229 1.71718 3.94491 1.71718C4.16768 1.71718 4.3748 1.7345 4.56682 1.78091C4.76465 1.81572 4.94737 1.87943 5.11445 1.96645L4.88242 2.43639C4.73971 2.37258 4.58826 2.32037 4.42756 2.29136C4.27267 2.25075 4.10851 2.23329 3.93563 2.23329C3.52722 2.23329 3.20524 2.3725 2.97029 2.64516C2.73475 2.91783 2.61754 3.30072 2.61754 3.80543C2.61754 4.83807 3.0724 5.35463 3.98205 5.35463C4.17349 5.35463 4.34985 5.34285 4.51113 5.31384C4.67182 5.29063 4.82034 5.25586 4.95667 5.20365V5.72571C4.82034 5.76632 4.66893 5.8069 4.50185 5.8359C4.34057 5.85911 4.16129 5.87074 3.96346 5.87074ZM3.82423 7.64599C3.29805 7.64599 2.8032 7.5475 2.33909 7.35026C1.87498 7.15301 1.46657 6.88026 1.11385 6.53218C0.766928 6.1783 0.494833 5.77228 0.297007 5.30817C0.0986013 4.84407 0 4.34512 0 3.823C0 3.28927 0.0986013 2.79612 0.297007 2.33782C0.494833 1.87371 0.766928 1.46756 1.11385 1.11948C1.46657 0.765596 1.87498 0.492978 2.33909 0.295733C2.8032 0.0984869 3.29805 0 3.82423 0C4.35622 0 4.85107 0.0984869 5.30938 0.295733C5.77348 0.492978 6.17842 0.765596 6.52534 1.11948C6.87807 1.46756 7.15306 1.87371 7.35146 2.33782C7.54929 2.79612 7.64847 3.28927 7.64847 3.823C7.64847 4.34512 7.54929 4.84407 7.35146 5.30817C7.15306 5.77228 6.87807 6.1783 6.52534 6.53218C6.17842 6.88026 5.77348 7.15301 5.30938 7.35026C4.85107 7.5475 4.35622 7.64599 3.82423 7.64599ZM3.82423 7.12393C4.28196 7.12393 4.70894 7.0426 5.10518 6.87437C5.50721 6.70033 5.85992 6.46248 6.16333 6.16081C6.46616 5.85914 6.70169 5.50523 6.86877 5.11074C7.04165 4.71044 7.12867 4.2813 7.12867 3.823C7.12867 3.36469 7.04165 2.93541 6.86877 2.54092C6.70169 2.14063 6.46616 1.78656 6.16333 1.48489C5.85992 1.17742 5.50721 0.945528 5.10518 0.777289C4.70894 0.603249 4.28196 0.516116 3.82423 0.516116C3.36593 0.516116 2.93605 0.603249 2.53402 0.777289C2.13778 0.945528 1.78797 1.17742 1.48514 1.48489C1.18173 1.78656 0.9433 2.14063 0.77042 2.54092C0.603342 2.93541 0.519798 3.36469 0.519798 3.823C0.519798 4.2813 0.603342 4.71044 0.77042 5.11074C0.9433 5.50523 1.18173 5.85914 1.48514 6.16081C1.78797 6.46248 2.13778 6.70033 2.53402 6.87437C2.93605 7.0426 3.36593 7.12393 3.82423 7.12393ZM15.4211 6.3523C15.5105 6.3523 15.5818 6.37544 15.634 6.42765C15.6868 6.47986 15.7135 6.54968 15.7135 6.6367V7.13554H11.2766V6.85114C11.2766 6.79312 11.2888 6.73536 11.3138 6.67155C11.3382 6.60773 11.377 6.54955 11.4298 6.49734L13.56 4.36262C13.7364 4.18278 13.8971 4.00866 14.0427 3.84622C14.1878 3.67798 14.3119 3.50968 14.414 3.34144C14.5161 3.179 14.595 3.01069 14.6507 2.83665C14.7064 2.66261 14.7343 2.48294 14.7343 2.2857C14.7343 2.08845 14.7029 1.92 14.6414 1.77496C14.5793 1.62413 14.4941 1.50237 14.3862 1.40955C14.2806 1.31092 14.1553 1.24124 14.0102 1.19483C13.8646 1.14262 13.7086 1.11948 13.5415 1.11948C13.3709 1.11948 13.2149 1.14262 13.0727 1.19483C12.93 1.24704 12.8036 1.31686 12.6922 1.40388C12.5837 1.4909 12.4926 1.59535 12.4184 1.71718C12.3441 1.8332 12.2913 1.96645 12.2605 2.11149C12.2234 2.22171 12.1724 2.29734 12.1074 2.33215C12.0453 2.36696 11.9572 2.37265 11.8429 2.36104L11.4112 2.2857C11.4542 1.98403 11.5377 1.71695 11.6619 1.48489C11.7883 1.24704 11.9461 1.05007 12.1352 0.89343C12.3267 0.736793 12.5448 0.614897 12.7896 0.533678C13.0339 0.45246 13.2984 0.411873 13.5833 0.411873C13.8646 0.411873 14.1274 0.45246 14.3722 0.533678C14.6165 0.620699 14.8282 0.742323 15.0081 0.90476C15.1873 1.0614 15.3283 1.25284 15.4304 1.48489C15.5325 1.71115 15.5836 1.9724 15.5836 2.26247C15.5836 2.51193 15.5464 2.73814 15.4722 2.95279C15.3979 3.16164 15.297 3.36471 15.1705 3.55616C15.0434 3.7476 14.8967 3.93889 14.7296 4.11873C14.5654 4.29857 14.3908 4.48433 14.2051 4.66997L12.4508 6.46249C12.5744 6.42769 12.6997 6.40468 12.8268 6.38148C12.9532 6.36407 13.0757 6.3523 13.1934 6.3523H15.4211ZM21.3298 3.81138C21.3298 4.39152 21.266 4.89615 21.1395 5.32545C21.0153 5.74895 20.8454 6.10301 20.629 6.38148C20.412 6.65994 20.1556 6.86289 19.8586 7.00212C19.5644 7.13555 19.2489 7.20522 18.9118 7.20522C18.5713 7.20522 18.2539 7.13555 17.9604 7.00212C17.6691 6.86289 17.4156 6.65994 17.1992 6.38148C16.9823 6.10301 16.8123 5.74895 16.6887 5.32545C16.5646 4.89615 16.5031 4.39152 16.5031 3.81138C16.5031 3.23125 16.5646 2.72661 16.6887 2.29731C16.8123 1.87381 16.9823 1.51975 17.1992 1.24128C17.4156 0.957018 17.6691 0.748124 17.9604 0.614693C18.2539 0.481262 18.5713 0.411873 18.9118 0.411873C19.2489 0.411873 19.5644 0.481262 19.8586 0.614693C20.1556 0.748124 20.412 0.957018 20.629 1.24128C20.8454 1.51975 21.0153 1.87381 21.1395 2.29731C21.266 2.72661 21.3298 3.23125 21.3298 3.81138ZM20.4712 3.81138C20.4712 3.30666 20.4277 2.87725 20.3412 2.53497C20.2577 2.18689 20.1429 1.90846 19.9978 1.69961C19.8551 1.49076 19.6898 1.33992 19.5012 1.2529C19.3121 1.16008 19.116 1.11381 18.9118 1.11381C18.7076 1.11381 18.5109 1.16008 18.3224 1.2529C18.1333 1.33992 17.9679 1.49076 17.8258 1.69961C17.6831 1.90846 17.5688 2.18689 17.4824 2.53497C17.3988 2.87725 17.357 3.30666 17.357 3.81138C17.357 4.3219 17.3988 4.74551 17.4824 5.08779C17.5688 5.43007 17.6831 5.70835 17.8258 5.9172C17.9679 6.13185 18.1333 6.28271 18.3224 6.37553C18.5109 6.46255 18.7076 6.50895 18.9118 6.50895C19.116 6.50895 19.3121 6.46255 19.5012 6.37553C19.6898 6.28271 19.8551 6.13185 19.9978 5.9172C20.1429 5.70835 20.2577 5.43007 20.3412 5.08779C20.4277 4.74551 20.4712 4.3219 20.4712 3.81138ZM26.1896 6.3523C26.2795 6.3523 26.3503 6.37544 26.4031 6.42765C26.4558 6.47986 26.482 6.54968 26.482 6.6367V7.13554H22.0451V6.85114C22.0451 6.79312 22.0573 6.73536 22.0822 6.67155C22.1072 6.60773 22.1455 6.54955 22.1982 6.49734L24.3285 4.36262C24.5049 4.18278 24.6656 4.00866 24.8112 3.84622C24.9568 3.67798 25.0803 3.50968 25.1825 3.34144C25.2846 3.179 25.3635 3.01069 25.4192 2.83665C25.4749 2.66261 25.5027 2.48294 25.5027 2.2857C25.5027 2.08845 25.472 1.92 25.4099 1.77496C25.3478 1.62413 25.2631 1.50237 25.1546 1.40955C25.0496 1.31092 24.9243 1.24124 24.7787 1.19483C24.6331 1.14262 24.477 1.11948 24.3099 1.11948C24.14 1.11948 23.9833 1.14262 23.8412 1.19483C23.6991 1.24704 23.572 1.31686 23.4606 1.40388C23.3522 1.4909 23.261 1.59535 23.1868 1.71718C23.1125 1.8332 23.0598 1.96645 23.029 2.11149C22.9919 2.22171 22.9408 2.29734 22.8759 2.33215C22.8138 2.36696 22.7256 2.37265 22.6113 2.36104L22.1797 2.2857C22.2232 1.98403 22.3067 1.71695 22.4303 1.48489C22.5574 1.24704 22.7152 1.05007 22.9037 0.89343C23.0957 0.736793 23.3138 0.614897 23.5581 0.533678C23.8023 0.45246 24.0669 0.411873 24.3517 0.411873C24.6331 0.411873 24.8965 0.45246 25.1407 0.533678C25.3849 0.620699 25.5973 0.742323 25.7765 0.90476C25.9558 1.0614 26.0967 1.25284 26.1989 1.48489C26.301 1.71115 26.352 1.9724 26.352 2.26247C26.352 2.51193 26.3149 2.73814 26.2406 2.95279C26.1664 3.16164 26.066 3.36471 25.939 3.55616C25.8119 3.7476 25.6651 3.93889 25.498 4.11873C25.3339 4.29857 25.1593 4.48433 24.9736 4.66997L23.2193 6.46249C23.3429 6.42769 23.4682 6.40468 23.5952 6.38148C23.7223 6.36407 23.8441 6.3523 23.9619 6.3523H26.1896ZM27.5964 2.2857C27.6399 1.98403 27.7234 1.71695 27.847 1.48489C27.9712 1.24704 28.1272 1.05007 28.3158 0.89343C28.5078 0.736793 28.7259 0.614897 28.9702 0.533678C29.2179 0.45246 29.4842 0.411873 29.7684 0.411873C30.0504 0.411873 30.3103 0.45246 30.5481 0.533678C30.7866 0.609096 30.9908 0.725032 31.1608 0.875867C31.3342 1.0209 31.4688 1.20084 31.5645 1.41549C31.6608 1.62434 31.7084 1.85623 31.7084 2.11149C31.7084 2.32614 31.6806 2.51177 31.6249 2.68001C31.5727 2.84244 31.4949 2.98761 31.3928 3.10944C31.2942 3.23707 31.1735 3.34138 31.0308 3.4284C30.8887 3.51542 30.7291 3.58511 30.5528 3.64312C30.9861 3.75334 31.311 3.94493 31.5274 4.21759C31.7473 4.48445 31.8569 4.82078 31.8569 5.22687C31.8569 5.53435 31.7983 5.80711 31.6806 6.05657C31.5663 6.30023 31.4085 6.50912 31.2072 6.68316C31.0064 6.8514 30.7709 6.98465 30.5017 7.07747C30.236 7.16449 29.9494 7.21089 29.6431 7.21089C29.2904 7.21089 28.9887 7.16449 28.7381 7.07747C28.4875 6.99045 28.2757 6.86869 28.1023 6.71205C27.9294 6.56122 27.7867 6.37561 27.6753 6.16676C27.5639 5.95211 27.4699 5.72009 27.3922 5.47643L27.7496 5.32545C27.8424 5.28484 27.9323 5.27321 28.0188 5.29061C28.1087 5.31382 28.1736 5.36024 28.2137 5.44726C28.2543 5.53428 28.3036 5.63886 28.3622 5.75489C28.4243 5.87672 28.5078 5.9928 28.6128 6.10303C28.7184 6.21905 28.8512 6.31173 29.0119 6.38714C29.1761 6.46836 29.3832 6.50328 29.6338 6.50328C29.8659 6.50328 30.0689 6.46851 30.2418 6.39309C30.4182 6.31767 30.5638 6.21891 30.6781 6.09708C30.7958 5.97525 30.884 5.8417 30.9426 5.69087C31.0018 5.54584 31.0308 5.39514 31.0308 5.2501C31.0308 5.07026 31.0076 4.90777 30.9612 4.75693C30.9148 4.6119 30.8283 4.48446 30.7013 4.37424C30.5748 4.26401 30.3996 4.18254 30.1768 4.11873C29.9575 4.05491 29.6744 4.0261 29.3275 4.0261V3.4284C29.6124 3.4226 29.8537 3.39379 30.0515 3.33577C30.2528 3.27776 30.4153 3.1963 30.5389 3.09188C30.6659 2.99326 30.757 2.8715 30.8127 2.72646C30.8718 2.58143 30.9009 2.42489 30.9009 2.25085C30.9009 2.05941 30.8701 1.89705 30.808 1.75202C30.7494 1.60698 30.6676 1.49075 30.562 1.39793C30.457 1.30511 30.3317 1.23557 30.1861 1.18916C30.044 1.14275 29.8891 1.11948 29.722 1.11948C29.5549 1.11948 29.3989 1.14262 29.2533 1.19483C29.1111 1.24704 28.9841 1.31686 28.8727 1.40388C28.7648 1.4909 28.6731 1.59535 28.5989 1.71718C28.5246 1.8332 28.4724 1.96645 28.4411 2.11149C28.401 2.22171 28.35 2.29734 28.2879 2.33215C28.2293 2.36696 28.1429 2.37265 28.028 2.36104L27.5964 2.2857ZM38.8255 4.6643L37.7813 1.96079C37.7505 1.87957 37.718 1.78676 37.6838 1.68233C37.6495 1.57211 37.6171 1.46169 37.5863 1.33986C37.5214 1.58932 37.4546 1.79821 37.3868 1.96645L36.3425 4.6643H38.8255ZM40.7005 7.13554H40.0043C39.9237 7.13554 39.8587 7.11808 39.8094 7.07747C39.7601 7.03686 39.723 6.98464 39.698 6.92082L39.0761 5.31384H36.0919L35.47 6.92082C35.4514 6.97884 35.416 7.02539 35.3632 7.0718C35.3104 7.11241 35.2455 7.13554 35.1683 7.13554H34.4721L37.1315 0.487222H38.0412L40.7005 7.13554ZM42.2164 0.301681V7.13554H41.3903V0.301681H42.2164ZM44.4098 0.301681V7.13554H43.5838V0.301681H44.4098ZM48.9088 3.37628C49.0573 3.05721 49.2401 2.80206 49.4565 2.62222C49.6728 2.44238 49.9374 2.34943 50.2501 2.34943C50.3493 2.34943 50.4432 2.36107 50.5332 2.38427C50.626 2.40748 50.7078 2.43644 50.7791 2.48285L50.7188 3.10349C50.7002 3.17891 50.6538 3.21963 50.5796 3.21963C50.5361 3.21963 50.4728 3.20814 50.3893 3.19074C50.3058 3.17334 50.2112 3.16156 50.1062 3.16156C49.9577 3.16156 49.8248 3.18469 49.7071 3.2253C49.5928 3.27171 49.4889 3.33572 49.3961 3.42274C49.3062 3.50396 49.2244 3.6142 49.1501 3.73603C49.0788 3.86366 49.0138 4.00275 48.9552 4.16518V7.13554H48.1245V2.43639H48.5978C48.6878 2.43639 48.7493 2.45384 48.7835 2.48285C48.8177 2.51766 48.8409 2.57571 48.8531 2.66273L48.9088 3.37628ZM52.378 2.43639V7.13554H51.5519V2.43639H52.378ZM52.5544 0.957165C52.5544 1.03838 52.5376 1.11388 52.5033 1.1835C52.4726 1.25311 52.4291 1.31683 52.3734 1.36904C52.3212 1.42125 52.2574 1.4675 52.1831 1.49651C52.1123 1.52552 52.0363 1.54296 51.9557 1.54296C51.8756 1.54296 51.7996 1.52552 51.7283 1.49651C51.6604 1.4675 51.6001 1.42125 51.5473 1.36904C51.4951 1.31683 51.4533 1.25311 51.422 1.1835C51.3912 1.11388 51.3755 1.03838 51.3755 0.957165C51.3755 0.875946 51.3912 0.80045 51.422 0.730833C51.4533 0.655416 51.4951 0.591556 51.5473 0.539344C51.6001 0.487132 51.6604 0.44088 51.7283 0.411873C51.7996 0.377065 51.8756 0.365417 51.9557 0.365417C52.0363 0.365417 52.1123 0.377065 52.1831 0.411873C52.2574 0.44088 52.3212 0.487132 52.3734 0.539344C52.4291 0.591556 52.4726 0.655416 52.5033 0.730833C52.5376 0.80045 52.5544 0.875946 52.5544 0.957165ZM55.3738 4.83823C55.5409 4.83823 55.6877 4.81496 55.8147 4.76855C55.9418 4.72214 56.0485 4.65841 56.1349 4.57139C56.2214 4.49017 56.2864 4.3914 56.3299 4.27538C56.3734 4.15935 56.3948 4.03191 56.3948 3.89268C56.3948 3.60261 56.3067 3.37639 56.1303 3.20235C55.9568 3.03411 55.7051 2.94684 55.3738 2.94684C55.0397 2.94684 54.7844 3.03411 54.6081 3.20235C54.4346 3.37639 54.3482 3.60261 54.3482 3.89268C54.3482 4.03191 54.3696 4.15935 54.4131 4.27538C54.4595 4.3914 54.5263 4.49017 54.6127 4.57139C54.6991 4.65841 54.8059 4.72214 54.9329 4.76855C55.06 4.81496 55.2068 4.83823 55.3738 4.83823ZM56.8636 7.39077C56.8636 7.27474 56.8311 7.18193 56.7661 7.11231C56.7012 7.0427 56.613 6.98466 56.5016 6.94405C56.3931 6.90344 56.2666 6.87435 56.121 6.86275C55.9754 6.84535 55.8211 6.82805 55.6569 6.82224C55.4962 6.81064 55.332 6.79915 55.165 6.79335C54.9979 6.78175 54.8372 6.7701 54.6823 6.7469C54.5088 6.82811 54.3667 6.92661 54.2553 7.05424C54.1468 7.17027 54.0929 7.31529 54.0929 7.47773C54.0929 7.58215 54.119 7.68092 54.1718 7.77374C54.2275 7.86657 54.311 7.94193 54.4224 8.00574C54.5338 8.07536 54.673 8.12745 54.8401 8.16805C55.0101 8.20866 55.2097 8.22612 55.4388 8.22612C55.6616 8.22612 55.8611 8.20866 56.0375 8.16805C56.2139 8.12745 56.3624 8.06955 56.483 7.99413C56.6066 7.91871 56.7012 7.83171 56.7661 7.72729C56.8311 7.62867 56.8636 7.51259 56.8636 7.39077ZM57.7037 2.62222V2.9239C57.7037 3.02832 57.6387 3.09205 57.5087 3.12106L56.975 3.19074C57.08 3.39379 57.1328 3.61999 57.1328 3.86945C57.1328 4.0957 57.0881 4.3046 56.9982 4.49604C56.9118 4.68168 56.7911 4.83822 56.6362 4.97165C56.4813 5.10508 56.2957 5.20938 56.0793 5.279C55.8629 5.34861 55.6274 5.38352 55.3738 5.38352C55.154 5.38352 54.9468 5.36039 54.7519 5.30817C54.6527 5.36619 54.5773 5.43571 54.5245 5.50533C54.4717 5.57494 54.4456 5.64448 54.4456 5.7141C54.4456 5.82432 54.4903 5.91159 54.5802 5.96961C54.673 6.02762 54.7937 6.06821 54.9422 6.09141C55.0907 6.11462 55.2595 6.13178 55.4481 6.13758C55.6401 6.14339 55.835 6.15502 56.0329 6.17243C56.2342 6.18403 56.4291 6.2073 56.6176 6.24211C56.8097 6.27112 56.9796 6.32929 57.1282 6.40471C57.2767 6.48593 57.3956 6.5901 57.4855 6.72933C57.5783 6.86276 57.6247 7.03689 57.6247 7.25735C57.6247 7.45459 57.5737 7.65198 57.4716 7.84343C57.3724 8.02907 57.2285 8.19723 57.04 8.34227C56.8514 8.4931 56.6194 8.60905 56.3438 8.69607C56.0717 8.78309 55.7637 8.82949 55.4202 8.82949C55.0768 8.82949 54.7769 8.79486 54.5199 8.72524C54.2629 8.66143 54.0494 8.56848 53.8794 8.45246C53.7094 8.33643 53.5806 8.20883 53.4942 8.0522C53.4106 7.90716 53.3689 7.75036 53.3689 7.58792C53.3689 7.35587 53.4414 7.15861 53.587 6.99617C53.7326 6.83373 53.9322 6.7063 54.1857 6.61348C54.0465 6.54966 53.9351 6.46834 53.8515 6.36392C53.7709 6.25949 53.7309 6.12027 53.7309 5.94043C53.7309 5.87661 53.7431 5.80708 53.768 5.73166C53.793 5.66204 53.8301 5.58656 53.8794 5.51694C53.9322 5.44152 53.9954 5.37199 54.0697 5.30817C54.1439 5.24436 54.2304 5.18617 54.3296 5.13396C54.0975 5.00633 53.9165 4.8325 53.7866 4.61785C53.6566 4.4032 53.5916 4.15372 53.5916 3.86945C53.5916 3.6374 53.6352 3.43417 53.7216 3.24853C53.8115 3.05708 53.9351 2.90068 54.0929 2.76725C54.2507 2.63382 54.438 2.53504 54.6544 2.45962C54.8743 2.39001 55.1139 2.3551 55.3738 2.3551C55.578 2.3551 55.7683 2.37837 55.9447 2.42478C56.121 2.46539 56.2817 2.5352 56.4273 2.62222H57.7037ZM59.3889 3.06299C59.5896 2.84834 59.8124 2.67436 60.0573 2.55253C60.3015 2.42491 60.5829 2.36104 60.9019 2.36104C61.1584 2.36104 61.3846 2.40178 61.5795 2.4888C61.7773 2.57582 61.9415 2.69178 62.0715 2.85422C62.2043 3.00505 62.3047 3.19647 62.3732 3.41112C62.441 3.63157 62.4752 3.87509 62.4752 4.14196V7.13554H61.6445V4.14196C61.6445 3.78807 61.5621 3.50965 61.3985 3.31821C61.2372 3.11516 60.9913 3.01653 60.6606 3.01653C60.4158 3.01653 60.1872 3.08038 59.9737 3.1964C59.7631 3.31243 59.5682 3.47477 59.3889 3.67201V7.13554H58.5582V0.301681H59.3889V3.06299ZM65.1137 7.21089C64.7424 7.21089 64.4564 7.10644 64.2551 6.89759C64.0573 6.68875 63.9581 6.39285 63.9581 6.00416V3.12672H63.3919C63.3426 3.12672 63.3008 3.10942 63.2666 3.08621C63.2323 3.05141 63.2155 3.00486 63.2155 2.94684V2.61627L63.9859 2.51769L64.1762 1.06736C64.1855 1.02095 64.2058 0.980223 64.2365 0.951216C64.2708 0.92221 64.3137 0.90476 64.3665 0.90476H64.7842V2.52931H66.144V3.12672H64.7842V5.94638C64.7842 6.14362 64.8323 6.29432 64.9281 6.38714C65.0238 6.48577 65.1479 6.53218 65.2993 6.53218C65.3858 6.53218 65.46 6.52054 65.5221 6.49734C65.5871 6.47413 65.6428 6.45099 65.6892 6.42199C65.7356 6.39298 65.7745 6.36984 65.8052 6.34664C65.8394 6.32343 65.8685 6.31179 65.8934 6.31179C65.9369 6.31179 65.9752 6.33493 66.0094 6.38714L66.2508 6.78174C66.1086 6.91517 65.9369 7.01948 65.7356 7.1007C65.5343 7.17031 65.3272 7.21089 65.1137 7.21089ZM69.735 3.20802C69.6979 3.27763 69.6411 3.31254 69.5633 3.31254C69.5169 3.31254 69.4647 3.29495 69.4055 3.26014C69.3469 3.22533 69.2744 3.19056 69.1874 3.14995C69.1039 3.10354 69.0035 3.0689 68.8857 3.03409C68.7685 2.99348 68.6293 2.97602 68.468 2.97602C68.3288 2.97602 68.2035 2.99348 68.0921 3.03409C67.9807 3.0689 67.885 3.11531 67.8044 3.17913C67.7272 3.23714 67.6669 3.31234 67.6234 3.39356C67.5833 3.47478 67.563 3.56178 67.563 3.6604C67.563 3.78223 67.5972 3.88086 67.6651 3.96208C67.7365 4.0433 67.8293 4.11312 67.9436 4.17113C68.0585 4.22915 68.1884 4.28137 68.3335 4.32778C68.4791 4.36839 68.6276 4.4206 68.779 4.47281C68.9339 4.51922 69.0842 4.57726 69.2292 4.64108C69.3748 4.69909 69.5047 4.78025 69.619 4.87307C69.7339 4.96589 69.825 5.07603 69.8928 5.21526C69.9642 5.34869 69.9996 5.50537 69.9996 5.69682C69.9996 5.91147 69.9613 6.11454 69.8836 6.30018C69.8064 6.48002 69.6921 6.64236 69.5401 6.77579C69.3887 6.90922 69.2031 7.01381 68.9832 7.09503C68.7639 7.17045 68.5098 7.21089 68.2221 7.21089C67.8943 7.21089 67.5972 7.15867 67.331 7.05424C67.0653 6.94402 66.839 6.80494 66.6534 6.6367L66.8483 6.32341C66.8733 6.2828 66.9028 6.2537 66.9365 6.2305C66.9707 6.20729 67.0142 6.19565 67.0664 6.19565C67.1221 6.19565 67.1813 6.21893 67.2428 6.26534C67.3049 6.30595 67.3791 6.35249 67.4656 6.40471C67.5555 6.45692 67.664 6.50913 67.7904 6.54974C67.9175 6.59615 68.0753 6.61348 68.2638 6.61348C68.4251 6.61348 68.5655 6.59601 68.6862 6.55541C68.8068 6.5148 68.9078 6.4569 68.9878 6.38148C69.0685 6.31186 69.1271 6.23041 69.1642 6.13758C69.2048 6.04476 69.2245 5.94628 69.2245 5.84185C69.2245 5.70842 69.1891 5.60411 69.1178 5.52289C69.0499 5.43587 68.9588 5.36024 68.844 5.30222C68.7297 5.23841 68.598 5.18619 68.4495 5.14558C68.3045 5.09917 68.1542 5.05276 67.9993 5.00054C67.8479 4.94833 67.6976 4.8961 67.5491 4.83228C67.4041 4.76847 67.2741 4.68744 67.1593 4.59462C67.045 4.496 66.9521 4.37977 66.8808 4.24053C66.8129 4.0955 66.7787 3.92746 66.7787 3.72442C66.7787 3.54458 66.8158 3.37046 66.8901 3.20802C66.9643 3.03978 67.0728 2.89475 67.2149 2.77292C67.3576 2.64529 67.5323 2.54665 67.7394 2.47124C67.9471 2.39582 68.1838 2.36104 68.4495 2.36104C68.7593 2.36104 69.036 2.40746 69.2802 2.50608C69.5279 2.6047 69.7414 2.7381 69.9207 2.90634L69.735 3.20802ZM74.1719 3.37628C74.3204 3.05721 74.5032 2.80206 74.7196 2.62222C74.936 2.44238 75.2005 2.34943 75.5132 2.34943C75.6124 2.34943 75.7064 2.36107 75.7963 2.38427C75.8891 2.40748 75.9709 2.43644 76.0423 2.48285L75.9819 3.10349C75.9634 3.17891 75.917 3.21963 75.8427 3.21963C75.7992 3.21963 75.736 3.20814 75.6524 3.19074C75.5689 3.17334 75.4743 3.16156 75.3693 3.16156C75.2208 3.16156 75.088 3.18469 74.9702 3.2253C74.8559 3.27171 74.7521 3.33572 74.6592 3.42274C74.5693 3.50396 74.4875 3.6142 74.4133 3.73603C74.3419 3.86366 74.2769 4.00275 74.2183 4.16518V7.13554H73.3876V2.43639H73.8609C73.9509 2.43639 74.0124 2.45384 74.0466 2.48285C74.0808 2.51766 74.104 2.57571 74.1162 2.66273L74.1719 3.37628ZM79.725 4.26971C79.725 4.07827 79.6971 3.90428 79.6414 3.74765C79.5886 3.58521 79.5097 3.4518 79.4047 3.33577C79.3026 3.21975 79.1773 3.1268 79.0288 3.06299C78.8803 2.99917 78.7115 2.97007 78.5229 2.97007C78.1267 2.97007 77.8128 3.08616 77.5808 3.31821C77.3516 3.54446 77.2095 3.86362 77.1538 4.26971H79.725ZM80.3933 6.47411C80.2912 6.60174 80.1688 6.7062 80.0266 6.79902C79.8845 6.89184 79.7314 6.96734 79.5672 7.02535C79.4065 7.08336 79.2394 7.12381 79.0659 7.15282C78.8925 7.18763 78.7208 7.19928 78.5508 7.19928C78.2259 7.19928 77.926 7.14719 77.6504 7.03696C77.3783 6.92674 77.1416 6.76425 76.9403 6.55541C76.7425 6.34076 76.5876 6.07977 76.4762 5.7665C76.3648 5.45323 76.3091 5.09334 76.3091 4.68725C76.3091 4.36237 76.3584 4.05514 76.4576 3.77087C76.5597 3.48661 76.7054 3.24294 76.8939 3.03409C77.0824 2.82524 77.3134 2.65695 77.5854 2.54092C77.8575 2.41909 78.1638 2.36104 78.5044 2.36104C78.7857 2.36104 79.0456 2.40746 79.2841 2.50608C79.5254 2.5989 79.7325 2.73244 79.906 2.91229C80.0823 3.08633 80.2198 3.30657 80.319 3.57344C80.4182 3.82869 80.4675 4.13052 80.4675 4.4612C80.4675 4.59463 80.4536 4.68148 80.4258 4.72209C80.3979 4.7627 80.3451 4.78611 80.268 4.78611H77.126C77.1353 5.08198 77.1753 5.34295 77.2466 5.5634C77.3209 5.78385 77.423 5.9638 77.5529 6.11464C77.6829 6.25967 77.8378 6.3698 78.017 6.44521C78.1963 6.51483 78.3976 6.54974 78.6204 6.54974C78.8275 6.54974 79.0056 6.52647 79.1541 6.48006C79.3055 6.43365 79.4355 6.38142 79.544 6.32341C79.6524 6.26539 79.7418 6.21884 79.8131 6.17243C79.8874 6.12021 79.9506 6.09708 80.0034 6.09708C80.0713 6.09708 80.1241 6.12021 80.1612 6.17243L80.3933 6.47411ZM84.2204 3.20802C84.1833 3.27763 84.1259 3.31254 84.0487 3.31254C84.0023 3.31254 83.9495 3.29495 83.8909 3.26014C83.8323 3.22533 83.7592 3.19056 83.6728 3.14995C83.5892 3.10354 83.4889 3.0689 83.3711 3.03409C83.2533 2.99348 83.1141 2.97602 82.9534 2.97602C82.8142 2.97602 82.6889 2.99348 82.5775 3.03409C82.4661 3.0689 82.3704 3.11531 82.2898 3.17913C82.2126 3.23714 82.1523 3.31234 82.1087 3.39356C82.0687 3.47478 82.0484 3.56178 82.0484 3.6604C82.0484 3.78223 82.0826 3.88086 82.1505 3.96208C82.2218 4.0433 82.3147 4.11312 82.429 4.17113C82.5433 4.22915 82.6732 4.28137 82.8188 4.32778C82.9644 4.36839 83.113 4.4206 83.2644 4.47281C83.4193 4.51922 83.5689 4.57726 83.7146 4.64108C83.8602 4.69909 83.9901 4.78025 84.1044 4.87307C84.2187 4.96589 84.3103 5.07603 84.3782 5.21526C84.4496 5.34869 84.485 5.50537 84.485 5.69682C84.485 5.91147 84.4461 6.11454 84.3689 6.30018C84.2918 6.48002 84.1769 6.64236 84.0255 6.77579C83.8741 6.90922 83.6884 7.01381 83.4686 7.09503C83.2487 7.17045 82.9952 7.21089 82.7074 7.21089C82.3797 7.21089 82.0826 7.15867 81.8163 7.05424C81.5501 6.94402 81.3244 6.80494 81.1388 6.6367L81.3337 6.32341C81.3586 6.2828 81.3876 6.2537 81.4218 6.2305C81.4561 6.20729 81.499 6.19565 81.5518 6.19565C81.6075 6.19565 81.6661 6.21893 81.7282 6.26534C81.7902 6.30595 81.8645 6.35249 81.9509 6.40471C82.0408 6.45692 82.1487 6.50913 82.2758 6.54974C82.4028 6.59615 82.5607 6.61348 82.7492 6.61348C82.9099 6.61348 83.0509 6.59601 83.1715 6.55541C83.2922 6.5148 83.3926 6.4569 83.4732 6.38148C83.5539 6.31186 83.6125 6.23041 83.6496 6.13758C83.6896 6.04476 83.7099 5.94628 83.7099 5.84185C83.7099 5.70842 83.6745 5.60411 83.6032 5.52289C83.5353 5.43587 83.4436 5.36024 83.3293 5.30222C83.2151 5.23841 83.0834 5.18619 82.9349 5.14558C82.7892 5.09917 82.6396 5.05276 82.4847 5.00054C82.3333 4.94833 82.183 4.8961 82.0345 4.83228C81.8889 4.76847 81.7589 4.68744 81.6446 4.59462C81.5304 4.496 81.4375 4.37977 81.3662 4.24053C81.2983 4.0955 81.2641 3.92746 81.2641 3.72442C81.2641 3.54458 81.3012 3.37046 81.3754 3.20802C81.4497 3.03978 81.5582 2.89475 81.7003 2.77292C81.8424 2.64529 82.0177 2.54665 82.2248 2.47124C82.4319 2.39582 82.6686 2.36104 82.9349 2.36104C83.2441 2.36104 83.5214 2.40746 83.7656 2.50608C84.0133 2.6047 84.2268 2.7381 84.4061 2.90634L84.2204 3.20802ZM88.6445 4.26971C88.6445 4.07827 88.6167 3.90428 88.561 3.74765C88.5082 3.58521 88.4293 3.4518 88.3243 3.33577C88.2222 3.21975 88.0969 3.1268 87.9484 3.06299C87.7998 2.99917 87.631 2.97007 87.4425 2.97007C87.0462 2.97007 86.7324 3.08616 86.5004 3.31821C86.2712 3.54446 86.1291 3.86362 86.0734 4.26971H88.6445ZM89.3128 6.47411C89.2107 6.60174 89.0883 6.7062 88.9462 6.79902C88.8041 6.89184 88.6509 6.96734 88.4867 7.02535C88.326 7.08336 88.159 7.12381 87.9855 7.15282C87.812 7.18763 87.6403 7.19928 87.4703 7.19928C87.1455 7.19928 86.8455 7.14719 86.57 7.03696C86.2979 6.92674 86.0612 6.76425 85.8599 6.55541C85.6621 6.34076 85.5072 6.07977 85.3958 5.7665C85.2844 5.45323 85.2287 5.09334 85.2287 4.68725C85.2287 4.36237 85.278 4.05514 85.3772 3.77087C85.4793 3.48661 85.6249 3.24294 85.8135 3.03409C86.002 2.82524 86.2329 2.65695 86.505 2.54092C86.7771 2.41909 87.0834 2.36104 87.4239 2.36104C87.7053 2.36104 87.9652 2.40746 88.2036 2.50608C88.445 2.5989 88.6521 2.73244 88.8255 2.91229C89.0019 3.08633 89.1394 3.30657 89.2386 3.57344C89.3378 3.82869 89.3871 4.13052 89.3871 4.4612C89.3871 4.59463 89.3732 4.68148 89.3453 4.72209C89.3175 4.7627 89.2647 4.78611 89.1875 4.78611H86.0455C86.0548 5.08198 86.0949 5.34295 86.1662 5.5634C86.2405 5.78385 86.3425 5.9638 86.4725 6.11464C86.6024 6.25967 86.7573 6.3698 86.9366 6.44521C87.1159 6.51483 87.3172 6.54974 87.54 6.54974C87.7471 6.54974 87.9252 6.52647 88.0737 6.48006C88.2251 6.43365 88.355 6.38142 88.4635 6.32341C88.572 6.26539 88.6613 6.21884 88.7327 6.17243C88.807 6.12021 88.8702 6.09708 88.923 6.09708C88.9909 6.09708 89.0437 6.12021 89.0808 6.17243L89.3128 6.47411ZM91.1861 3.37628C91.3346 3.05721 91.5174 2.80206 91.7338 2.62222C91.9501 2.44238 92.2147 2.34943 92.5274 2.34943C92.6266 2.34943 92.7205 2.36107 92.8105 2.38427C92.9033 2.40748 92.9851 2.43644 93.0564 2.48285L92.9961 3.10349C92.9775 3.17891 92.9311 3.21963 92.8569 3.21963C92.8134 3.21963 92.7501 3.20814 92.6666 3.19074C92.5831 3.17334 92.4885 3.16156 92.3835 3.16156C92.235 3.16156 92.1021 3.18469 91.9844 3.2253C91.8701 3.27171 91.7662 3.33572 91.6734 3.42274C91.5835 3.50396 91.5017 3.6142 91.4274 3.73603C91.3561 3.86366 91.2911 4.00275 91.2325 4.16518V7.13554H90.4018V2.43639H90.8751C90.965 2.43639 91.0265 2.45384 91.0608 2.48285C91.095 2.51766 91.1182 2.57571 91.1304 2.66273L91.1861 3.37628ZM97.8112 2.43639L95.8945 7.13554H95.1519L93.2351 2.43639H93.9081C93.9765 2.43639 94.0323 2.45384 94.0752 2.48285C94.1187 2.51766 94.1483 2.55825 94.1633 2.60466L95.3561 5.63308C95.3932 5.74911 95.4257 5.85923 95.4536 5.96366C95.4814 6.07388 95.5081 6.18414 95.5325 6.28857C95.5574 6.18414 95.5835 6.07388 95.6114 5.96366C95.6392 5.85923 95.6734 5.74911 95.7135 5.63308L96.9202 2.60466C96.9387 2.55825 96.97 2.51766 97.013 2.48285C97.0565 2.45384 97.1075 2.43639 97.1661 2.43639H97.8112ZM101.589 4.26971C101.589 4.07827 101.561 3.90428 101.506 3.74765C101.453 3.58521 101.374 3.4518 101.269 3.33577C101.167 3.21975 101.041 3.1268 100.893 3.06299C100.744 2.99917 100.576 2.97007 100.387 2.97007C99.9908 2.97007 99.6769 3.08616 99.4449 3.31821C99.2157 3.54446 99.0736 3.86362 99.0179 4.26971H101.589ZM102.257 6.47411C102.155 6.60174 102.033 6.7062 101.891 6.79902C101.748 6.89184 101.595 6.96734 101.431 7.02535C101.27 7.08336 101.103 7.12381 100.93 7.15282C100.757 7.18763 100.585 7.19928 100.415 7.19928C100.09 7.19928 99.7895 7.14719 99.5145 7.03696C99.2418 6.92674 99.0052 6.76425 98.8044 6.55541C98.606 6.34076 98.4517 6.07977 98.3403 5.7665C98.2289 5.45323 98.1732 5.09334 98.1732 4.68725C98.1732 4.36237 98.2225 4.05514 98.3217 3.77087C98.4238 3.48661 98.5689 3.24294 98.758 3.03409C98.9465 2.82524 99.1769 2.65695 99.4495 2.54092C99.7216 2.41909 100.028 2.36104 100.368 2.36104C100.65 2.36104 100.91 2.40746 101.148 2.50608C101.389 2.5989 101.597 2.73244 101.77 2.91229C101.946 3.08633 102.084 3.30657 102.183 3.57344C102.282 3.82869 102.332 4.13052 102.332 4.4612C102.332 4.59463 102.318 4.68148 102.29 4.72209C102.262 4.7627 102.209 4.78611 102.132 4.78611H98.9901C98.9994 5.08198 99.0394 5.34295 99.1107 5.5634C99.185 5.78385 99.2871 5.9638 99.417 6.11464C99.547 6.25967 99.7013 6.3698 99.8812 6.44521C100.06 6.51483 100.262 6.54974 100.484 6.54974C100.692 6.54974 100.87 6.52647 101.018 6.48006C101.17 6.43365 101.3 6.38142 101.408 6.32341C101.516 6.26539 101.606 6.21884 101.677 6.17243C101.752 6.12021 101.815 6.09708 101.868 6.09708C101.935 6.09708 101.988 6.12021 102.025 6.17243L102.257 6.47411ZM106.409 3.55021C106.255 3.34716 106.087 3.20227 105.908 3.12106C105.728 3.03984 105.528 2.9933 105.305 2.9933C104.869 2.9933 104.533 3.14997 104.298 3.46324C104.062 3.77652 103.945 4.22325 103.945 4.80339C103.945 5.10506 103.971 5.37184 104.024 5.59229C104.076 5.80694 104.154 5.98674 104.256 6.12597C104.358 6.2652 104.483 6.36978 104.632 6.4336C104.78 6.49741 104.949 6.53218 105.138 6.53218C105.41 6.53218 105.647 6.46846 105.848 6.34664C106.052 6.22481 106.239 6.05082 106.409 5.82457V3.55021ZM107.236 0.301681V7.13554H106.744C106.626 7.13554 106.552 7.07764 106.521 6.96161L106.447 6.39309C106.245 6.63675 106.016 6.82806 105.76 6.97889C105.503 7.12393 105.206 7.19928 104.869 7.19928C104.599 7.19928 104.355 7.1472 104.135 7.04858C103.915 6.94415 103.728 6.78749 103.574 6.59025C103.419 6.3872 103.3 6.13757 103.216 5.8359C103.133 5.53423 103.091 5.19208 103.091 4.80339C103.091 4.45531 103.137 4.13048 103.23 3.83461C103.323 3.53294 103.456 3.27777 103.629 3.05732C103.802 2.83687 104.015 2.66275 104.265 2.54092C104.519 2.41329 104.804 2.34943 105.119 2.34943C105.407 2.34943 105.653 2.40151 105.857 2.50013C106.064 2.59295 106.248 2.73243 106.409 2.90067V0.301681H107.236ZM108.401 6.62509C108.401 6.54387 108.415 6.46837 108.443 6.39876C108.474 6.32914 108.514 6.26543 108.563 6.21322C108.616 6.161 108.678 6.12027 108.749 6.08546C108.82 6.05646 108.896 6.03901 108.977 6.03901C109.057 6.03901 109.133 6.05646 109.204 6.08546C109.275 6.12027 109.337 6.161 109.39 6.21322C109.442 6.26543 109.484 6.32914 109.515 6.39876C109.546 6.46837 109.561 6.54387 109.561 6.62509C109.561 6.70631 109.546 6.78747 109.515 6.85709C109.484 6.9267 109.442 6.98475 109.39 7.03696C109.337 7.08917 109.275 7.12976 109.204 7.15877C109.133 7.18777 109.057 7.20522 108.977 7.20522C108.896 7.20522 108.82 7.18777 108.749 7.15877C108.678 7.12976 108.616 7.08917 108.563 7.03696C108.514 6.98475 108.474 6.9267 108.443 6.85709C108.415 6.78747 108.401 6.70631 108.401 6.62509ZM117.52 1.24128H115.366V7.13554H114.47V1.24128H112.312V0.487222H117.52V1.24128ZM119.061 3.06299C119.262 2.84834 119.485 2.67436 119.729 2.55253C119.974 2.42491 120.255 2.36104 120.574 2.36104C120.831 2.36104 121.057 2.40178 121.252 2.4888C121.449 2.57582 121.614 2.69178 121.744 2.85422C121.876 3.00505 121.977 3.19647 122.045 3.41112C122.113 3.63157 122.147 3.87509 122.147 4.14196V7.13554H121.317V4.14196C121.317 3.78807 121.235 3.50965 121.071 3.31821C120.91 3.11516 120.664 3.01653 120.333 3.01653C120.088 3.01653 119.859 3.08038 119.646 3.1964C119.435 3.31243 119.24 3.47477 119.061 3.67201V7.13554H118.23V0.301681H119.061V3.06299ZM124.279 2.43639V7.13554H123.453V2.43639H124.279ZM124.455 0.957165C124.455 1.03838 124.438 1.11388 124.404 1.1835C124.373 1.25311 124.33 1.31683 124.274 1.36904C124.221 1.42125 124.158 1.4675 124.084 1.49651C124.012 1.52552 123.936 1.54296 123.856 1.54296C123.776 1.54296 123.7 1.52552 123.629 1.49651C123.561 1.4675 123.5 1.42125 123.448 1.36904C123.395 1.31683 123.353 1.25311 123.323 1.1835C123.291 1.11388 123.276 1.03838 123.276 0.957165C123.276 0.875946 123.291 0.80045 123.323 0.730833C123.353 0.655416 123.395 0.591556 123.448 0.539344C123.5 0.487132 123.561 0.44088 123.629 0.411873C123.7 0.377065 123.776 0.365417 123.856 0.365417C123.936 0.365417 124.012 0.377065 124.084 0.411873C124.158 0.44088 124.221 0.487132 124.274 0.539344C124.33 0.591556 124.373 0.655416 124.404 0.730833C124.438 0.80045 124.455 0.875946 124.455 0.957165ZM128.374 3.20802C128.337 3.27763 128.28 3.31254 128.203 3.31254C128.156 3.31254 128.104 3.29495 128.045 3.26014C127.986 3.22533 127.913 3.19056 127.827 3.14995C127.743 3.10354 127.642 3.0689 127.525 3.03409C127.407 2.99348 127.268 2.97602 127.107 2.97602C126.968 2.97602 126.843 2.99348 126.732 3.03409C126.62 3.0689 126.524 3.11531 126.444 3.17913C126.366 3.23714 126.306 3.31234 126.263 3.39356C126.222 3.47478 126.202 3.56178 126.202 3.6604C126.202 3.78223 126.236 3.88086 126.305 3.96208C126.375 4.0433 126.468 4.11312 126.583 4.17113C126.697 4.22915 126.827 4.28137 126.973 4.32778C127.118 4.36839 127.266 4.4206 127.418 4.47281C127.573 4.51922 127.723 4.57726 127.869 4.64108C128.014 4.69909 128.144 4.78025 128.258 4.87307C128.373 4.96589 128.464 5.07603 128.532 5.21526C128.603 5.34869 128.639 5.50537 128.639 5.69682C128.639 5.91147 128.6 6.11454 128.523 6.30018C128.445 6.48002 128.331 6.64236 128.18 6.77579C128.028 6.90922 127.842 7.01381 127.623 7.09503C127.403 7.17045 127.149 7.21089 126.861 7.21089C126.533 7.21089 126.236 7.15867 125.97 7.05424C125.704 6.94402 125.478 6.80494 125.293 6.6367L125.488 6.32341C125.512 6.2828 125.542 6.2537 125.576 6.2305C125.61 6.20729 125.653 6.19565 125.706 6.19565C125.762 6.19565 125.82 6.21893 125.882 6.26534C125.944 6.30595 126.018 6.35249 126.105 6.40471C126.194 6.45692 126.303 6.50913 126.43 6.54974C126.556 6.59615 126.714 6.61348 126.903 6.61348C127.064 6.61348 127.205 6.59601 127.325 6.55541C127.446 6.5148 127.547 6.4569 127.627 6.38148C127.707 6.31186 127.766 6.23041 127.804 6.13758C127.844 6.04476 127.864 5.94628 127.864 5.84185C127.864 5.70842 127.828 5.60411 127.757 5.52289C127.689 5.43587 127.598 5.36024 127.483 5.30222C127.368 5.23841 127.237 5.18619 127.089 5.14558C126.943 5.09917 126.793 5.05276 126.639 5.00054C126.487 4.94833 126.337 4.8961 126.189 4.83228C126.043 4.76847 125.913 4.68744 125.799 4.59462C125.684 4.496 125.591 4.37977 125.52 4.24053C125.452 4.0955 125.418 3.92746 125.418 3.72442C125.418 3.54458 125.455 3.37046 125.529 3.20802C125.604 3.03978 125.712 2.89475 125.854 2.77292C125.996 2.64529 126.171 2.54665 126.379 2.47124C126.586 2.39582 126.823 2.36104 127.089 2.36104C127.398 2.36104 127.675 2.40746 127.92 2.50608C128.167 2.6047 128.38 2.7381 128.56 2.90634L128.374 3.20802ZM132.899 2.43639V7.13554H132.073V2.43639H132.899ZM133.075 0.957165C133.075 1.03838 133.058 1.11388 133.024 1.1835C132.994 1.25311 132.95 1.31683 132.894 1.36904C132.841 1.42125 132.778 1.4675 132.704 1.49651C132.633 1.52552 132.557 1.54296 132.477 1.54296C132.396 1.54296 132.321 1.52552 132.249 1.49651C132.181 1.4675 132.121 1.42125 132.068 1.36904C132.015 1.31683 131.974 1.25311 131.943 1.1835C131.912 1.11388 131.896 1.03838 131.896 0.957165C131.896 0.875946 131.912 0.80045 131.943 0.730833C131.974 0.655416 132.015 0.591556 132.068 0.539344C132.121 0.487132 132.181 0.44088 132.249 0.411873C132.321 0.377065 132.396 0.365417 132.477 0.365417C132.557 0.365417 132.633 0.377065 132.704 0.411873C132.778 0.44088 132.841 0.487132 132.894 0.539344C132.95 0.591556 132.994 0.655416 133.024 0.730833C133.058 0.80045 133.075 0.875946 133.075 0.957165ZM136.995 3.20802C136.958 3.27763 136.9 3.31254 136.823 3.31254C136.777 3.31254 136.724 3.29495 136.665 3.26014C136.607 3.22533 136.533 3.19056 136.447 3.14995C136.363 3.10354 136.263 3.0689 136.145 3.03409C136.028 2.99348 135.888 2.97602 135.728 2.97602C135.588 2.97602 135.463 2.99348 135.352 3.03409C135.24 3.0689 135.145 3.11531 135.064 3.17913C134.987 3.23714 134.926 3.31234 134.883 3.39356C134.843 3.47478 134.823 3.56178 134.823 3.6604C134.823 3.78223 134.857 3.88086 134.925 3.96208C134.996 4.0433 135.089 4.11312 135.203 4.17113C135.318 4.22915 135.447 4.28137 135.593 4.32778C135.739 4.36839 135.887 4.4206 136.039 4.47281C136.194 4.51922 136.343 4.57726 136.489 4.64108C136.634 4.69909 136.764 4.78025 136.879 4.87307C136.993 4.96589 137.085 5.07603 137.152 5.21526C137.224 5.34869 137.259 5.50537 137.259 5.69682C137.259 5.91147 137.22 6.11454 137.143 6.30018C137.066 6.48002 136.951 6.64236 136.8 6.77579C136.648 6.90922 136.463 7.01381 136.243 7.09503C136.023 7.17045 135.769 7.21089 135.482 7.21089C135.154 7.21089 134.857 7.15867 134.591 7.05424C134.324 6.94402 134.099 6.80494 133.913 6.6367L134.108 6.32341C134.133 6.2828 134.162 6.2537 134.196 6.2305C134.23 6.20729 134.273 6.19565 134.326 6.19565C134.382 6.19565 134.44 6.21893 134.502 6.26534C134.564 6.30595 134.639 6.35249 134.725 6.40471C134.815 6.45692 134.923 6.50913 135.05 6.54974C135.177 6.59615 135.335 6.61348 135.523 6.61348C135.684 6.61348 135.825 6.59601 135.946 6.55541C136.066 6.5148 136.167 6.4569 136.247 6.38148C136.328 6.31186 136.387 6.23041 136.424 6.13758C136.464 6.04476 136.484 5.94628 136.484 5.84185C136.484 5.70842 136.449 5.60411 136.377 5.52289C136.31 5.43587 136.218 5.36024 136.104 5.30222C135.989 5.23841 135.858 5.18619 135.709 5.14558C135.563 5.09917 135.414 5.05276 135.259 5.00054C135.108 4.94833 134.957 4.8961 134.809 4.83228C134.663 4.76847 134.533 4.68744 134.419 4.59462C134.305 4.496 134.212 4.37977 134.14 4.24053C134.073 4.0955 134.038 3.92746 134.038 3.72442C134.038 3.54458 134.075 3.37046 134.15 3.20802C134.224 3.03978 134.332 2.89475 134.475 2.77292C134.617 2.64529 134.792 2.54665 134.999 2.47124C135.206 2.39582 135.443 2.36104 135.709 2.36104C136.018 2.36104 136.296 2.40746 136.54 2.50608C136.788 2.6047 137.001 2.7381 137.18 2.90634L136.995 3.20802ZM142.976 4.48443V7.13554H142.076V4.48443L139.639 0.487222H140.429C140.509 0.487222 140.572 0.504683 140.619 0.545292C140.665 0.5801 140.705 0.632177 140.739 0.695991L142.262 3.2777C142.317 3.38793 142.368 3.48643 142.415 3.58505C142.461 3.67787 142.501 3.77083 142.536 3.86945C142.569 3.77083 142.608 3.67787 142.652 3.58505C142.694 3.48643 142.743 3.38793 142.795 3.2777L144.313 0.695991C144.341 0.643779 144.379 0.591567 144.429 0.550958C144.478 0.504547 144.542 0.487222 144.619 0.487222H145.413L142.976 4.48443ZM147.043 2.36104C147.387 2.36104 147.696 2.41908 147.971 2.52931C148.247 2.64533 148.482 2.80768 148.677 3.01653C148.872 3.23118 149.02 3.48662 149.122 3.78249C149.227 4.08416 149.28 4.41468 149.28 4.78016C149.28 5.15145 149.227 5.48791 149.122 5.78378C149.02 6.07965 148.872 6.33494 148.677 6.54379C148.482 6.75844 148.247 6.92079 147.971 7.03101C147.696 7.14704 147.387 7.19928 147.043 7.19928C146.697 7.19928 146.384 7.14704 146.106 7.03101C145.83 6.92079 145.595 6.75844 145.4 6.54379C145.205 6.33494 145.055 6.07965 144.95 5.78378C144.848 5.48791 144.797 5.15145 144.797 4.78016C144.797 4.41468 144.848 4.08416 144.95 3.78249C145.055 3.48662 145.205 3.23118 145.4 3.01653C145.595 2.80768 145.83 2.64533 146.106 2.52931C146.384 2.41908 146.697 2.36104 147.043 2.36104ZM147.043 6.55541C147.507 6.55541 147.854 6.39888 148.083 6.09141C148.312 5.77814 148.426 5.34304 148.426 4.78611C148.426 4.22918 148.312 3.78828 148.083 3.48081C147.854 3.16753 147.507 3.01086 147.043 3.01086C146.808 3.01086 146.602 3.05145 146.426 3.13267C146.252 3.20809 146.107 3.32417 145.99 3.48081C145.875 3.63164 145.788 3.81726 145.73 4.03771C145.674 4.25816 145.646 4.50764 145.646 4.78611C145.646 5.34304 145.761 5.77814 145.99 6.09141C146.222 6.39888 146.573 6.55541 147.043 6.55541ZM154.194 2.43639V7.13554H153.702C153.584 7.13554 153.51 7.07764 153.479 6.96161L153.414 6.45683C153.21 6.68308 152.981 6.86855 152.727 7.00779C152.474 7.14122 152.183 7.21089 151.855 7.21089C151.598 7.21089 151.37 7.17044 151.173 7.08342C150.978 6.9964 150.813 6.8745 150.681 6.72367C150.548 6.56703 150.447 6.38126 150.379 6.16081C150.314 5.94036 150.281 5.69684 150.281 5.42998V2.43639H151.108V5.42998C151.108 5.78966 151.188 6.06243 151.349 6.25967C151.513 6.45112 151.762 6.54974 152.096 6.54974C152.34 6.54974 152.568 6.4917 152.778 6.38148C152.992 6.25965 153.189 6.10282 153.368 5.89397V2.43639H154.194ZM156.288 3.37628C156.437 3.05721 156.619 2.80206 156.836 2.62222C157.052 2.44238 157.317 2.34943 157.629 2.34943C157.729 2.34943 157.823 2.36107 157.913 2.38427C158.005 2.40748 158.087 2.43644 158.159 2.48285L158.098 3.10349C158.08 3.17891 158.033 3.21963 157.959 3.21963C157.915 3.21963 157.852 3.20814 157.769 3.19074C157.685 3.17334 157.591 3.16156 157.486 3.16156C157.337 3.16156 157.204 3.18469 157.086 3.2253C156.972 3.27171 156.868 3.33572 156.776 3.42274C156.686 3.50396 156.604 3.6142 156.53 3.73603C156.458 3.86366 156.393 4.00275 156.335 4.16518V7.13554H155.504V2.43639H155.977C156.067 2.43639 156.129 2.45384 156.163 2.48285C156.197 2.51766 156.22 2.57571 156.233 2.66273L156.288 3.37628ZM165.924 5.76055C165.974 5.76055 166.017 5.78396 166.054 5.82457L166.412 6.20727C166.139 6.52054 165.808 6.77001 165.418 6.94405C165.031 7.12389 164.563 7.21089 164.012 7.21089C163.536 7.21089 163.102 7.12985 162.713 6.96161C162.323 6.79918 161.99 6.56701 161.715 6.26534C161.439 5.96947 161.226 5.60973 161.074 5.19203C160.923 4.77434 160.847 4.3161 160.847 3.81138C160.847 3.31247 160.926 2.85409 161.084 2.43639C161.241 2.0187 161.462 1.65909 161.747 1.35742C162.035 1.05575 162.378 0.823587 162.778 0.661149C163.177 0.49291 163.618 0.411873 164.1 0.411873C164.574 0.411873 164.991 0.487086 165.353 0.637921C165.715 0.788756 166.034 0.997639 166.309 1.2529L166.012 1.67072C165.994 1.69973 165.969 1.72286 165.938 1.74607C165.91 1.76347 165.871 1.77496 165.822 1.77496C165.766 1.77496 165.699 1.74601 165.618 1.688C165.537 1.62418 165.432 1.55451 165.302 1.48489C165.172 1.40948 165.01 1.34009 164.815 1.28207C164.62 1.22406 164.38 1.18916 164.096 1.18916C163.752 1.18916 163.438 1.25301 163.154 1.36904C162.869 1.49087 162.623 1.65918 162.416 1.88544C162.211 2.11169 162.052 2.38997 161.938 2.71485C161.823 3.03972 161.766 3.40529 161.766 3.81138C161.766 4.22908 161.824 4.59465 161.942 4.91953C162.063 5.2444 162.225 5.52269 162.429 5.74894C162.637 5.96939 162.88 6.14365 163.158 6.25967C163.44 6.3757 163.743 6.4336 164.068 6.4336C164.266 6.4336 164.444 6.42211 164.602 6.40471C164.762 6.3757 164.91 6.34078 165.042 6.28857C165.179 6.24216 165.304 6.17844 165.418 6.10303C165.536 6.02761 165.652 5.93466 165.766 5.83024C165.819 5.78383 165.871 5.76055 165.924 5.76055ZM169.152 2.36104C169.495 2.36104 169.805 2.41908 170.08 2.52931C170.355 2.64533 170.59 2.80768 170.785 3.01653C170.98 3.23118 171.129 3.48662 171.231 3.78249C171.336 4.08416 171.389 4.41468 171.389 4.78016C171.389 5.15145 171.336 5.48791 171.231 5.78378C171.129 6.07965 170.98 6.33494 170.785 6.54379C170.59 6.75844 170.355 6.92079 170.08 7.03101C169.805 7.14704 169.495 7.19928 169.152 7.19928C168.805 7.19928 168.492 7.14704 168.214 7.03101C167.939 6.92079 167.704 6.75844 167.509 6.54379C167.314 6.33494 167.164 6.07965 167.058 5.78378C166.956 5.48791 166.905 5.15145 166.905 4.78016C166.905 4.41468 166.956 4.08416 167.058 3.78249C167.164 3.48662 167.314 3.23118 167.509 3.01653C167.704 2.80768 167.939 2.64533 168.214 2.52931C168.492 2.41908 168.805 2.36104 169.152 2.36104ZM169.152 6.55541C169.616 6.55541 169.963 6.39888 170.191 6.09141C170.42 5.77814 170.535 5.34304 170.535 4.78611C170.535 4.22918 170.42 3.78828 170.191 3.48081C169.963 3.16753 169.616 3.01086 169.152 3.01086C168.917 3.01086 168.711 3.05145 168.534 3.13267C168.361 3.20809 168.216 3.32417 168.098 3.48081C167.984 3.63164 167.897 3.81726 167.838 4.03771C167.782 4.25816 167.755 4.50764 167.755 4.78611C167.755 5.34304 167.869 5.77814 168.098 6.09141C168.33 6.39888 168.682 6.55541 169.152 6.55541ZM172.436 7.13554V2.43639H172.933C173.051 2.43639 173.123 2.48863 173.151 2.60466L173.211 3.08621C173.385 2.87736 173.58 2.69758 173.796 2.56415C174.013 2.43072 174.264 2.36104 174.548 2.36104C174.864 2.36104 175.119 2.44818 175.314 2.62222C175.512 2.80206 175.654 3.03977 175.741 3.34144C175.809 3.1674 175.896 3.0225 176.001 2.90067C176.109 2.77304 176.23 2.67426 176.363 2.59304C176.496 2.51182 176.636 2.45378 176.785 2.41317C176.937 2.37836 177.09 2.36104 177.244 2.36104C177.492 2.36104 177.712 2.40163 177.903 2.48285C178.098 2.55827 178.263 2.6742 178.395 2.82504C178.532 2.97587 178.636 3.16164 178.706 3.38789C178.778 3.60254 178.813 3.85769 178.813 4.14196V7.13554H177.982V4.14196C177.982 3.77647 177.902 3.49804 177.741 3.3066C177.58 3.11515 177.348 3.01653 177.045 3.01653C176.909 3.01653 176.779 3.04547 176.655 3.09188C176.534 3.13829 176.428 3.20811 176.335 3.30093C176.242 3.39375 176.168 3.5097 176.112 3.65473C176.06 3.79397 176.033 3.95631 176.033 4.14196V7.13554H175.202V4.14196C175.202 3.76487 175.127 3.48063 174.975 3.29498C174.823 3.10934 174.602 3.01653 174.311 3.01653C174.107 3.01653 173.918 3.07456 173.745 3.18479C173.572 3.29502 173.413 3.44006 173.267 3.63151V7.13554H172.436ZM180.9 6.00416C181.051 6.20721 181.217 6.35238 181.396 6.4336C181.576 6.52062 181.777 6.56107 182 6.56107C182.439 6.56107 182.776 6.40468 183.012 6.09141C183.246 5.77814 183.364 5.33127 183.364 4.75693C183.364 4.44946 183.336 4.18268 183.281 3.96803C183.228 3.74758 183.151 3.56763 183.049 3.4284C182.947 3.28337 182.821 3.17892 182.673 3.11511C182.524 3.05129 182.355 3.01653 182.167 3.01653C181.898 3.01653 181.661 3.08053 181.457 3.20235C181.255 3.32998 181.07 3.50383 180.9 3.73008V6.00416ZM180.858 3.16156C181.056 2.91791 181.285 2.7208 181.545 2.57576C181.805 2.42493 182.102 2.34943 182.436 2.34943C182.708 2.34943 182.954 2.40165 183.174 2.50608C183.393 2.6105 183.581 2.76122 183.736 2.97007C183.89 3.16732 184.009 3.4168 184.093 3.71847C184.176 4.02014 184.218 4.36244 184.218 4.75693C184.218 5.09921 184.172 5.42404 184.079 5.72571C183.986 6.02158 183.852 6.28269 183.675 6.49734C183.502 6.71779 183.288 6.8861 183.035 7.01373C182.784 7.14136 182.501 7.19928 182.185 7.19928C181.898 7.19928 181.65 7.15286 181.443 7.05424C181.239 6.95562 181.058 6.82236 180.9 6.64832V8.72524H180.069V2.43639H180.566C180.683 2.43639 180.756 2.48863 180.784 2.60466L180.858 3.16156ZM187.82 5.01811C187.439 5.02971 187.114 5.06432 186.845 5.11074C186.579 5.15715 186.361 5.22114 186.191 5.29656C186.024 5.37778 185.902 5.46464 185.824 5.56906C185.75 5.67929 185.713 5.79552 185.713 5.92315C185.713 6.05078 185.733 6.15509 185.773 6.24211C185.814 6.33493 185.868 6.41043 185.935 6.46844C186.007 6.52065 186.089 6.56704 186.181 6.59025C186.278 6.61925 186.38 6.63075 186.488 6.63075C186.633 6.63075 186.766 6.61345 186.887 6.59025C187.007 6.55544 187.121 6.51484 187.226 6.45683C187.334 6.40462 187.436 6.33509 187.532 6.25967C187.631 6.17845 187.727 6.09117 187.82 5.99255V5.01811ZM185.151 3.09783C185.411 2.84837 185.691 2.6626 185.991 2.53497C186.292 2.41314 186.624 2.34943 186.989 2.34943C187.252 2.34943 187.486 2.39583 187.69 2.48285C187.894 2.56987 188.066 2.68597 188.205 2.8426C188.344 2.99924 188.45 3.18472 188.52 3.40517C188.592 3.62562 188.627 3.86348 188.627 4.13034V7.13554H188.261C188.18 7.13554 188.118 7.1239 188.075 7.1007C188.032 7.07169 187.998 7.0196 187.973 6.93839L187.88 6.49734C187.756 6.60756 187.636 6.712 187.518 6.79902C187.401 6.88604 187.277 6.96153 187.147 7.02535C187.017 7.08336 186.878 7.12976 186.729 7.15877C186.584 7.19358 186.422 7.21089 186.242 7.21089C186.06 7.21089 185.888 7.18775 185.727 7.13554C185.566 7.08333 185.425 7.00797 185.304 6.90354C185.187 6.79912 185.092 6.6714 185.021 6.52056C184.953 6.35813 184.919 6.17251 184.919 5.96366C184.919 5.77801 184.97 5.59822 185.072 5.42998C185.174 5.25594 185.34 5.09913 185.569 4.9657C185.798 4.83227 186.097 4.7281 186.464 4.64108C186.833 4.55405 187.285 4.50764 187.82 4.49604V4.13034C187.82 3.76486 187.741 3.48657 187.583 3.30093C187.425 3.11529 187.195 3.01653 186.891 3.01653C186.687 3.01653 186.516 3.04561 186.376 3.09783C186.241 3.15004 186.121 3.20214 186.019 3.27175C185.92 3.32977 185.833 3.3878 185.759 3.44002C185.688 3.49223 185.617 3.51537 185.546 3.51537C185.49 3.51537 185.442 3.50386 185.402 3.47486C185.362 3.44005 185.327 3.40528 185.3 3.36467L185.151 3.09783ZM190.666 3.11511C190.768 2.99908 190.876 2.90058 190.991 2.80776C191.105 2.71494 191.226 2.63363 191.353 2.56981C191.483 2.5002 191.618 2.44797 191.761 2.41317C191.906 2.37836 192.063 2.36104 192.23 2.36104C192.486 2.36104 192.713 2.40178 192.907 2.4888C193.105 2.57582 193.269 2.69178 193.399 2.85422C193.532 3.00505 193.633 3.19647 193.701 3.41112C193.769 3.63157 193.803 3.87509 193.803 4.14196V7.13554H192.972V4.14196C192.972 3.78807 192.89 3.50965 192.726 3.31821C192.565 3.11516 192.319 3.01653 191.989 3.01653C191.744 3.01653 191.515 3.08038 191.302 3.1964C191.091 3.31243 190.896 3.47477 190.717 3.67201V7.13554H189.886V2.43639H190.383C190.5 2.43639 190.573 2.48863 190.601 2.60466L190.666 3.11511ZM199 2.43639L196.378 8.52214C196.35 8.58596 196.315 8.63223 196.271 8.67284C196.231 8.70765 196.168 8.72524 196.081 8.72524H195.468L196.327 6.86275L194.387 2.43639H195.102C195.173 2.43639 195.229 2.45399 195.269 2.4888C195.312 2.52361 195.342 2.56405 195.357 2.60466L196.615 5.56906C196.664 5.69669 196.706 5.83024 196.74 5.97527C196.783 5.83024 196.83 5.69103 196.879 5.5634L198.1 2.60466C198.118 2.55825 198.15 2.51766 198.192 2.48285C198.239 2.45384 198.29 2.43639 198.346 2.43639H199Z" fill="white"/>
</svg>
