<svg width="3" height="3" viewBox="0 0 3 3" fill="none" xmlns="http://www.w3.org/2000/svg">
<path d="M1.50006 0C1.20308 0 0.913308 0.0879524 0.666727 0.252759C0.420147 0.417566 0.227559 0.651789 0.114168 0.925907C0.000777001 1.19996 -0.0292196 1.5015 0.0289758 1.79248C0.0865712 2.08339 0.229363 2.35067 0.439347 2.56042C0.64873 2.77022 0.916308 2.91307 1.20728 2.9709C1.49826 3.0288 1.79944 2.9991 2.07362 2.88559C2.34779 2.77202 2.58237 2.5798 2.74676 2.33315C2.91175 2.08651 2.99994 1.7965 2.99994 1.49988C2.99994 1.10205 2.84155 0.720543 2.56018 0.439285C2.2794 0.158028 1.89783 0 1.50006 0ZM1.50006 2.24982C1.35127 2.24982 1.20668 2.20584 1.08309 2.12341C0.960104 2.04104 0.863512 1.92387 0.807117 1.78684C0.750121 1.64981 0.735123 1.49904 0.764521 1.35355C0.793318 1.20806 0.86471 1.07445 0.969701 0.969583C1.07469 0.864711 1.20788 0.793256 1.35367 0.764338C1.49886 0.73542 1.65005 0.750241 1.78684 0.806996C1.92363 0.863752 2.04122 0.959864 2.12341 1.08321C2.20561 1.20656 2.25 1.35151 2.25 1.49988C2.25 1.69876 2.1708 1.88949 2.02982 2.03012C1.88943 2.17081 1.69864 2.24982 1.50006 2.24982Z" fill="#0086FD"/>
</svg>
