<svg width="38" height="7" viewBox="0 0 38 7" fill="none" xmlns="http://www.w3.org/2000/svg">
<path d="M4.37288 4.38223L3.32395 1.66656C3.29248 1.58498 3.25983 1.49175 3.22603 1.38686C3.19165 1.27614 3.15903 1.16522 3.12815 1.04285C3.06288 1.29343 2.99587 1.50326 2.92769 1.67225L1.87876 4.38223H4.37288ZM6.2563 6.86458H5.557C5.476 6.86458 5.41073 6.84704 5.3612 6.80625C5.31108 6.76545 5.27381 6.713 5.24934 6.64889L4.62463 5.03469H1.62701L1.0023 6.64889C0.983652 6.70717 0.947509 6.75394 0.895063 6.80055C0.842033 6.84135 0.776767 6.86458 0.699262 6.86458H0L2.67128 0.186375H3.58502L6.2563 6.86458ZM7.75512 5.72812C7.9078 5.93208 8.07389 6.0779 8.25396 6.15948C8.43752 6.24689 8.63798 6.28753 8.85534 6.28753C9.29997 6.28753 9.6403 6.13044 9.87631 5.81575C10.1129 5.50107 10.2306 5.03479 10.2306 4.41126C10.2306 3.83434 10.1251 3.40884 9.91359 3.14077C9.70555 2.86689 9.40718 2.72705 9.01849 2.72705C8.7481 2.72705 8.51208 2.79133 8.30987 2.91371C8.11116 3.04191 7.92645 3.21654 7.75512 3.44381V5.72812ZM7.75512 2.82038C7.95442 2.59311 8.17818 2.40667 8.42643 2.27264C8.67817 2.13861 8.96723 2.06862 9.29357 2.06862C9.57037 2.06862 9.81918 2.12108 10.0395 2.22597C10.2632 2.33087 10.4532 2.48823 10.6082 2.68636C10.7638 2.88449 10.8821 3.12925 10.9625 3.41479C11.0464 3.70033 11.0884 4.02093 11.0884 4.38223C11.0884 4.76101 11.0418 5.1104 10.9485 5.42508C10.8553 5.73976 10.7201 6.00804 10.543 6.22948C10.3693 6.45092 10.156 6.62554 9.90427 6.74791C9.65252 6.87029 9.3699 6.9286 9.0558 6.9286C8.7452 6.9286 8.48239 6.8703 8.26794 6.75958C8.05699 6.6372 7.87166 6.47412 7.71315 6.2585L7.67122 6.68987C7.64674 6.80642 7.57504 6.86458 7.45674 6.86458H6.92063V0H7.75512V2.82038ZM14.1291 2.06862C14.4741 2.06862 14.7847 2.12692 15.0615 2.23764C15.3377 2.35419 15.5743 2.51726 15.7701 2.72705C15.9659 2.94267 16.1151 3.19925 16.2177 3.49645C16.3232 3.79948 16.3762 4.13148 16.3762 4.49861C16.3762 4.87156 16.3232 5.20954 16.2177 5.50674C16.1151 5.80394 15.9659 6.06038 15.7701 6.27017C15.5743 6.48578 15.3377 6.64886 15.0615 6.75958C14.7847 6.87613 14.4741 6.9286 14.1291 6.9286C13.7807 6.9286 13.4672 6.87613 13.1875 6.75958C12.9107 6.64886 12.6746 6.48578 12.4788 6.27017C12.283 6.06038 12.1321 5.80394 12.0266 5.50674C11.9241 5.20954 11.8728 4.87156 11.8728 4.49861C11.8728 4.13148 11.9241 3.79948 12.0266 3.49645C12.1321 3.19925 12.283 2.94267 12.4788 2.72705C12.6746 2.51726 12.9107 2.35419 13.1875 2.23764C13.4672 2.12692 13.7807 2.06862 14.1291 2.06862ZM14.1291 6.28183C14.5953 6.28183 14.9432 6.12461 15.1734 5.81575C15.403 5.50107 15.5184 5.06402 15.5184 4.50459C15.5184 3.94515 15.403 3.50227 15.1734 3.19342C14.9432 2.87873 14.5953 2.72136 14.1291 2.72136C13.8926 2.72136 13.6863 2.76213 13.5091 2.84371C13.3349 2.91947 13.1886 3.03607 13.0709 3.19342C12.9555 3.34493 12.8687 3.53138 12.8098 3.75282C12.7539 3.97427 12.7259 4.22487 12.7259 4.50459C12.7259 5.06402 12.8407 5.50107 13.0709 5.81575C13.304 6.12461 13.6565 6.28183 14.1291 6.28183ZM21.312 2.14431V6.86458H20.8179C20.6996 6.86458 20.625 6.80642 20.5941 6.68987L20.5288 6.18281C20.3237 6.41008 20.0935 6.59639 19.8389 6.73625C19.5836 6.87028 19.2917 6.94027 18.9624 6.94027C18.7043 6.94027 18.4758 6.89963 18.2771 6.81222C18.0813 6.72481 17.9164 6.60237 17.783 6.45085C17.6489 6.29351 17.5481 6.10691 17.4799 5.88547C17.4146 5.66403 17.382 5.41941 17.382 5.15135V2.14431H18.2118V5.15135C18.2118 5.51265 18.2923 5.78664 18.4543 5.98477C18.6186 6.17708 18.8692 6.27614 19.2048 6.27614C19.4502 6.27614 19.6786 6.21785 19.8901 6.10713C20.1046 5.98475 20.3015 5.82722 20.4822 5.61743V2.14431H21.312ZM24.0777 6.94027C23.7048 6.94027 23.4169 6.83535 23.2153 6.62556C23.016 6.41577 22.9169 6.11855 22.9169 5.72812V2.83774H22.3481C22.298 2.83774 22.2561 2.82036 22.2223 2.79705C22.1879 2.76208 22.171 2.71533 22.171 2.65705V2.32499L22.9449 2.22597L23.1354 0.769117C23.1453 0.722498 23.1651 0.681592 23.1966 0.652455C23.2304 0.623318 23.2741 0.60579 23.3271 0.60579H23.7467V2.23764H25.1127V2.83774H23.7467V5.67007C23.7467 5.8682 23.7945 6.01958 23.8913 6.11282C23.9874 6.21188 24.1115 6.2585 24.2642 6.2585C24.351 6.2585 24.4256 6.24681 24.488 6.2235C24.5532 6.20019 24.6092 6.17695 24.6558 6.14782C24.7024 6.11868 24.7409 6.09544 24.7723 6.07213C24.8061 6.04882 24.8359 6.03713 24.8609 6.03713C24.9041 6.03713 24.9431 6.06037 24.9775 6.11282L25.2199 6.50918C25.0765 6.64321 24.904 6.74799 24.7024 6.82958C24.5002 6.89951 24.2922 6.94027 24.0777 6.94027ZM31.1289 6.14782C31.4051 6.14782 31.6522 6.10106 31.8702 6.00782C32.0875 5.91458 32.2711 5.7806 32.4203 5.61743C32.5724 5.44843 32.6871 5.24445 32.7652 5.01135C32.8456 4.77826 32.8864 4.52195 32.8864 4.24224V0.186375H33.7862V4.24224C33.7862 4.63267 33.7238 4.98806 33.5997 5.31439C33.4785 5.64655 33.3025 5.93209 33.0729 6.17684C32.8457 6.41576 32.5677 6.60222 32.2384 6.73625C31.9086 6.87611 31.5391 6.94624 31.1289 6.94624C30.7186 6.94624 30.3486 6.87611 30.0194 6.73625C29.6895 6.60222 29.4098 6.41576 29.1802 6.17684C28.95 5.93209 28.7729 5.64655 28.6488 5.31439C28.5275 4.98806 28.4669 4.63267 28.4669 4.24224V0.186375H29.3667V4.24224C29.3667 4.52195 29.4052 4.77826 29.4833 5.01135C29.5637 5.24445 29.679 5.44274 29.8282 5.61174C29.9803 5.78073 30.1651 5.90875 30.383 6.00782C30.6033 6.10106 30.8521 6.14782 31.1289 6.14782ZM37.7343 2.9194C37.697 2.98933 37.6393 3.0244 37.5618 3.0244C37.5152 3.0244 37.4622 3.00672 37.4033 2.97176C37.3439 2.93679 37.271 2.90186 37.1842 2.86107C37.1003 2.81445 36.9989 2.77966 36.8812 2.74469C36.7629 2.7039 36.623 2.68636 36.4616 2.68636C36.3217 2.68636 36.1958 2.7039 36.0839 2.74469C35.9721 2.77966 35.8753 2.82628 35.7949 2.89038C35.7168 2.94865 35.6562 3.02419 35.6131 3.10578C35.5723 3.18736 35.5525 3.27475 35.5525 3.37381C35.5525 3.49619 35.5863 3.59527 35.6551 3.67685C35.7262 3.75844 35.8194 3.82857 35.9348 3.88684C36.0496 3.94512 36.1801 3.99758 36.3264 4.0442C36.4721 4.08499 36.6213 4.13743 36.7739 4.18988C36.9289 4.2365 37.0799 4.2948 37.2261 4.3589C37.3718 4.41717 37.5024 4.4987 37.6177 4.59194C37.7325 4.68518 37.824 4.79581 37.8928 4.93567C37.9639 5.0697 38 5.22708 38 5.41939C38 5.635 37.961 5.83898 37.8835 6.02546C37.8054 6.20611 37.6906 6.36918 37.5385 6.50321C37.3858 6.63724 37.1993 6.7423 36.979 6.82389C36.7582 6.89964 36.5035 6.94027 36.2145 6.94027C35.8846 6.94027 35.5863 6.88781 35.3194 6.78291C35.0519 6.67219 34.8252 6.53249 34.6388 6.3635L34.8346 6.04879C34.859 6.008 34.8887 5.97877 34.9231 5.95546C34.9569 5.93215 35.0006 5.92047 35.0537 5.92047C35.1096 5.92047 35.1685 5.94384 35.2308 5.99046C35.2926 6.03126 35.3672 6.07801 35.4546 6.13046C35.5444 6.1829 35.6533 6.23535 35.7809 6.27614C35.908 6.32276 36.0665 6.34017 36.2565 6.34017C36.4179 6.34017 36.5595 6.32263 36.6807 6.28183C36.8019 6.24104 36.9027 6.18288 36.9837 6.10713C37.0641 6.0372 37.1236 5.95537 37.1609 5.86214C37.2011 5.7689 37.2215 5.66997 37.2215 5.56507C37.2215 5.43104 37.1853 5.32626 37.1142 5.24468C37.0455 5.15727 36.954 5.08129 36.8392 5.02302C36.7238 4.95892 36.5921 4.90646 36.4429 4.86567C36.2967 4.81905 36.1457 4.77243 35.9907 4.71998C35.838 4.66754 35.6877 4.61507 35.5385 4.55097C35.3923 4.48686 35.2617 4.40547 35.1469 4.31223C35.0315 4.21317 34.9383 4.09642 34.8672 3.95656C34.7984 3.81087 34.7646 3.64208 34.7646 3.43812C34.7646 3.25747 34.8019 3.08257 34.8765 2.9194C34.9511 2.75041 35.0595 2.60472 35.2029 2.48234C35.3456 2.35414 35.521 2.25506 35.7297 2.17931C35.9377 2.10355 36.1755 2.06862 36.4429 2.06862C36.7535 2.06862 37.0315 2.11524 37.2774 2.21431C37.5257 2.31337 37.7401 2.44737 37.9208 2.61636L37.7343 2.9194Z" fill="white"/>
</svg>
