<svg width="9" height="6" viewBox="0 0 9 6" fill="none" xmlns="http://www.w3.org/2000/svg">
<mask id="mask0_2_1238" style="mask-type:luminance" maskUnits="userSpaceOnUse" x="-1" y="-2" width="11" height="10">
<path d="M9.19977 -1.60187H-0.400278V7.99818H9.19977V-1.60187Z" fill="white"/>
</mask>
<g mask="url(#mask0_2_1238)">
<path d="M4.39983 0C2.40002 0 0.691803 1.24201 0 3.00001C0.691803 4.75202 2.40002 6.00003 4.39983 6.00003C6.39963 6.00003 8.10785 4.75202 8.79965 3.00001C8.10785 1.24201 6.39963 0 4.39983 0ZM4.39983 4.99807C3.29582 4.99807 2.40001 4.10402 2.40001 3.00001C2.40001 1.89601 3.29582 0.996098 4.39983 0.996098C5.50383 0.996098 6.39964 1.89601 6.39964 3.00001C6.39964 4.10402 5.50383 4.99807 4.39983 4.99807ZM4.39983 1.80001C3.73562 1.80001 3.19982 2.33401 3.19982 3.00001C3.19982 3.66002 3.73562 4.20002 4.39983 4.20002C5.06403 4.20002 5.59983 3.66002 5.59983 3.00001C5.59983 2.33401 5.06403 1.80001 4.39983 1.80001Z" fill="#0086FD"/>
</g>
</svg>
