<svg width="170" height="98" viewBox="0 0 170 98" fill="none" xmlns="http://www.w3.org/2000/svg">
<g filter="url(#filter0_d_2_1412)">
<path d="M170 0H0V97.4744H170V0Z" fill="white"/>
<path d="M22.8774 22.9415C23.6259 23.0981 24.1828 23.3534 24.5541 23.7016C25.0647 24.1889 25.32 24.7865 25.32 25.4885C25.32 26.0223 25.1518 26.533 24.8153 27.0261C24.4788 27.5135 24.0088 27.8673 23.417 28.0994C22.831 28.3199 21.9316 28.4302 20.719 28.4302H15.6422V28.1343H16.0484C16.5009 28.1343 16.82 27.995 17.0173 27.7107C17.1391 27.5251 17.1972 27.1305 17.1972 26.5271V19.5762C17.1972 18.909 17.1217 18.4913 16.9709 18.3172C16.762 18.0852 16.4545 17.9691 16.0484 17.9691H15.6422V17.6732H20.2955C21.16 17.6732 21.8562 17.737 22.3784 17.8647C23.1733 18.0561 23.7767 18.3927 24.1944 18.88C24.6122 19.3616 24.8211 19.9185 24.8211 20.5451C24.8211 21.0847 24.6586 21.5663 24.3337 21.9957C24.0029 22.4192 23.5214 22.7326 22.8774 22.9415ZM18.7231 22.5121C18.9204 22.5469 19.1409 22.5759 19.3904 22.5991C19.6457 22.6165 19.9183 22.6223 20.22 22.6223C20.9917 22.6223 21.5719 22.5411 21.9606 22.3787C22.3494 22.2104 22.6511 21.9493 22.8542 21.607C23.0631 21.2646 23.1675 20.8875 23.1675 20.4814C23.1675 19.8548 22.9064 19.3152 22.3958 18.8742C21.8852 18.4275 21.1368 18.2069 20.1504 18.2069C19.6224 18.2069 19.1467 18.2649 18.7231 18.381V22.5121ZM18.7231 27.6527C19.3381 27.7977 19.9416 27.8674 20.5392 27.8674C21.4965 27.8674 22.2276 27.6527 22.7265 27.2233C23.2313 26.7882 23.4808 26.2544 23.4808 25.6219C23.4808 25.2042 23.3706 24.8039 23.1385 24.4152C22.9122 24.0323 22.5408 23.7247 22.0303 23.5042C21.5197 23.2838 20.8814 23.1735 20.1272 23.1735C19.7965 23.1735 19.518 23.1735 19.2859 23.1851C19.0538 23.1967 18.8682 23.2142 18.7231 23.2432V27.6527ZM28.5692 17.151C28.7897 17.151 28.9753 17.2322 29.132 17.3889C29.2886 17.5397 29.3699 17.7312 29.3699 17.9516C29.3699 18.1721 29.2886 18.3636 29.132 18.5202C28.9753 18.6827 28.7897 18.7582 28.5692 18.7582C28.3429 18.7582 28.1572 18.6827 27.9948 18.5202C27.8381 18.3636 27.7569 18.1721 27.7569 17.9516C27.7569 17.7312 27.8323 17.5397 27.989 17.3889C28.1456 17.2322 28.3371 17.151 28.5692 17.151ZM29.2248 20.9514V26.7882C29.2248 27.2407 29.2597 27.5483 29.3235 27.6991C29.3873 27.85 29.4859 27.9603 29.6136 28.0357C29.747 28.1053 29.9849 28.1459 30.3272 28.1459V28.4302H26.7995V28.1459C27.1535 28.1459 27.3914 28.1111 27.5132 28.0415C27.6351 27.9719 27.7279 27.8616 27.7975 27.6991C27.873 27.5425 27.9077 27.2349 27.9077 26.7882V23.9859C27.9077 23.2026 27.8845 22.6919 27.8381 22.4598C27.7975 22.2858 27.7395 22.1698 27.6641 22.106C27.5829 22.0422 27.4726 22.0073 27.3391 22.0073C27.1883 22.0073 27.0084 22.0421 26.7995 22.1233L26.6893 21.839L28.8767 20.9514H29.2248ZM34.7948 20.9514C35.8914 20.9514 36.7791 21.3691 37.4463 22.2046C38.0091 22.9182 38.2934 23.7363 38.2934 24.6647C38.2934 25.3145 38.1367 25.9701 37.8234 26.6373C37.5101 27.3045 37.0808 27.8036 36.5296 28.1459C35.9842 28.4824 35.3808 28.6506 34.7077 28.6506C33.6111 28.6506 32.7408 28.2154 32.0968 27.3451C31.5514 26.6083 31.2788 25.7845 31.2788 24.8678C31.2788 24.2005 31.4412 23.539 31.7719 22.8834C32.1026 22.222 32.5436 21.7404 33.0832 21.4271C33.6228 21.108 34.1914 20.9514 34.7948 20.9514ZM34.5453 21.4677C34.2668 21.4677 33.9825 21.5489 33.6982 21.7172C33.4197 21.8854 33.1934 22.1755 33.0194 22.5933C32.8453 23.011 32.7582 23.5448 32.7582 24.2005C32.7582 25.2622 32.9672 26.1731 33.3849 26.939C33.8027 27.7049 34.3597 28.0878 35.0501 28.0878C35.5607 28.0878 35.9842 27.879 36.3149 27.4555C36.6514 27.0319 36.8197 26.3067 36.8197 25.2739C36.8197 23.98 36.5412 22.9647 35.9842 22.2278C35.6071 21.7172 35.1313 21.4677 34.5453 21.4677ZM52.6999 17.4295L52.9436 21.0848H52.6999C52.3692 19.9882 51.8992 19.2049 51.2958 18.7234C50.6866 18.2418 49.9555 17.9981 49.1026 17.9981C48.389 17.9981 47.745 18.1837 47.1706 18.5435C46.5904 18.9032 46.1378 19.4834 45.807 20.2783C45.4763 21.0673 45.3139 22.0537 45.3139 23.2316C45.3139 24.2063 45.4706 25.0533 45.7781 25.767C46.0914 26.4806 46.5613 27.0261 47.1821 27.409C47.8145 27.7861 48.5282 27.9776 49.3347 27.9776C50.031 27.9776 50.646 27.8325 51.1797 27.5366C51.7193 27.2349 52.3054 26.6373 52.9436 25.7496L53.1873 25.9062C52.6477 26.8636 52.0211 27.5657 51.3016 28.0124C50.5822 28.4534 49.7293 28.6738 48.7371 28.6738C46.9559 28.6738 45.575 28.0124 44.6002 26.6954C43.8692 25.709 43.5036 24.5486 43.5036 23.2199C43.5036 22.1466 43.7473 21.1602 44.2231 20.2608C44.7047 19.3615 45.3661 18.6654 46.2074 18.1722C47.0545 17.679 47.9771 17.4295 48.975 17.4295C49.7525 17.4295 50.5241 17.621 51.2784 17.9981C51.4989 18.1141 51.6613 18.1722 51.7541 18.1722C51.8992 18.1722 52.021 18.1258 52.1255 18.0213C52.2647 17.8821 52.3634 17.679 52.4214 17.4295H52.6999ZM56.3958 17.151V22.4657C56.9818 21.8216 57.446 21.4097 57.7883 21.2299C58.1364 21.0442 58.4787 20.9514 58.8211 20.9514C59.233 20.9514 59.5869 21.0615 59.8828 21.2936C60.1787 21.5199 60.3992 21.8739 60.5443 22.3613C60.6429 22.6978 60.6951 23.3186 60.6951 24.2179V26.7882C60.6951 27.2465 60.73 27.5657 60.8054 27.734C60.8576 27.8616 60.9446 27.9603 61.0723 28.0357C61.1999 28.1053 61.432 28.1459 61.7743 28.1459V28.4302H58.2003V28.1459H58.3685C58.705 28.1459 58.9429 28.0937 59.0763 27.995C59.2098 27.8906 59.3027 27.7339 59.3549 27.5366C59.3665 27.4496 59.378 27.2001 59.378 26.7882V24.2179C59.378 23.423 59.3316 22.9067 59.2504 22.6572C59.1692 22.4077 59.0415 22.222 58.8617 22.1002C58.6818 21.9725 58.4671 21.9087 58.2118 21.9087C57.9507 21.9087 57.6839 21.9784 57.3996 22.1176C57.1211 22.2511 56.7845 22.5295 56.3958 22.9473V26.7882C56.3958 27.2871 56.419 27.5947 56.4712 27.7165C56.5292 27.8384 56.6337 27.9428 56.7845 28.0241C56.9354 28.1053 57.1965 28.1459 57.5678 28.1459V28.4302H53.9648V28.1459C54.2897 28.1459 54.5449 28.0937 54.7306 27.995C54.835 27.9428 54.9163 27.8384 54.9801 27.6933C55.0439 27.5425 55.0788 27.2407 55.0788 26.7882V20.2145C55.0788 19.379 55.0555 18.8742 55.0149 18.6827C54.9743 18.4912 54.9163 18.3636 54.8293 18.294C54.7538 18.2244 54.6436 18.1896 54.5043 18.1896C54.3941 18.1896 54.2142 18.2302 53.9648 18.3172L53.8545 18.0388L56.0303 17.151H56.3958ZM63.602 23.8987C63.602 24.9779 63.863 25.8251 64.391 26.4401C64.919 27.0551 65.5398 27.3567 66.2535 27.3567C66.7292 27.3567 67.1412 27.2291 67.4893 26.968C67.8432 26.707 68.1449 26.2544 68.3828 25.6219L68.6265 25.7786C68.5163 26.5039 68.1914 27.1654 67.6576 27.763C67.1238 28.3548 66.4566 28.6506 65.6501 28.6506C64.7798 28.6506 64.0313 28.3141 63.4047 27.6352C62.7897 26.9564 62.4764 26.0397 62.4764 24.8909C62.4764 23.6492 62.7954 22.6803 63.4279 21.9898C64.0719 21.2936 64.8726 20.9398 65.8357 20.9398C66.648 20.9398 67.3153 21.2124 67.8433 21.752C68.3655 22.2858 68.6265 22.9994 68.6265 23.8987H63.602ZM63.602 23.4404H66.9672C66.944 22.9762 66.8859 22.6455 66.7989 22.4598C66.6712 22.1581 66.474 21.9261 66.2071 21.7578C65.946 21.5896 65.6733 21.5026 65.389 21.5026C64.948 21.5026 64.5593 21.6766 64.2054 22.0189C63.8631 22.3612 63.6658 22.8311 63.602 23.4404ZM71.7597 22.4947C72.2877 21.9667 72.601 21.665 72.6938 21.5837C72.9317 21.3807 73.1927 21.2298 73.4654 21.1137C73.7381 21.0035 74.0108 20.9514 74.2835 20.9514C74.7361 20.9514 75.1307 21.0848 75.4556 21.3459C75.7863 21.6128 76.0009 21.9957 76.1169 22.4947C76.6565 21.8623 77.1208 21.4444 77.4921 21.253C77.8692 21.0499 78.258 20.9514 78.6525 20.9514C79.0412 20.9514 79.3777 21.0499 79.6736 21.253C79.9753 21.4444 80.2132 21.7694 80.3873 22.2162C80.5091 22.5237 80.5671 23.0053 80.5671 23.6609V26.7882C80.5671 27.2407 80.5962 27.5541 80.6658 27.7223C80.718 27.8384 80.8167 27.9428 80.9617 28.0241C81.1068 28.1053 81.3388 28.1459 81.6579 28.1459V28.4302H78.0723V28.1459H78.2231C78.5364 28.1459 78.7801 28.082 78.9541 27.9602C79.076 27.8789 79.1631 27.7455 79.2153 27.5599C79.2385 27.467 79.2501 27.2117 79.2501 26.7882V23.6609C79.2501 23.0691 79.1746 22.6514 79.0354 22.4077C78.8265 22.0712 78.4958 21.9029 78.0433 21.9029C77.759 21.9029 77.4805 21.9726 77.1904 22.1176C76.9119 22.2511 76.5695 22.5121 76.1692 22.895L76.1518 22.9821L76.1692 23.3243V26.7882C76.1692 27.2871 76.1982 27.5947 76.2504 27.7165C76.3085 27.8384 76.4129 27.9428 76.5637 28.0241C76.7204 28.1053 76.9814 28.1459 77.3528 28.1459V28.4302H73.6801V28.1459C74.0804 28.1459 74.3532 28.0995 74.504 28.0008C74.6549 27.908 74.7651 27.763 74.8231 27.5715C74.8463 27.4845 74.8637 27.2233 74.8637 26.7882V23.6609C74.8637 23.0691 74.7767 22.6456 74.5968 22.3845C74.3647 22.048 74.0398 21.8796 73.6221 21.8796C73.3378 21.8796 73.0535 21.9551 72.775 22.106C72.3341 22.3381 71.9976 22.6049 71.7597 22.895V26.7882C71.7597 27.2639 71.7886 27.5715 71.8524 27.7165C71.9221 27.8616 72.0207 27.9661 72.1484 28.0415C72.2818 28.1111 72.5429 28.1459 72.9432 28.1459V28.4302H69.346V28.1459C69.6825 28.1459 69.9146 28.1111 70.048 28.0415C70.1757 27.9661 70.2801 27.8558 70.3497 27.6991C70.4136 27.5425 70.4484 27.2349 70.4484 26.7882V24.0089C70.4484 23.2141 70.4252 22.6977 70.3788 22.4657C70.344 22.2916 70.2859 22.1698 70.2047 22.106C70.1235 22.0422 70.019 22.0073 69.8797 22.0073C69.7289 22.0073 69.5549 22.0421 69.346 22.1233L69.2299 21.839L71.4173 20.9514H71.7597V22.4947ZM84.0948 17.151C84.3152 17.151 84.5067 17.2322 84.6576 17.3889C84.8143 17.5397 84.8954 17.7312 84.8954 17.9516C84.8954 18.1721 84.8143 18.3636 84.6576 18.5202C84.5067 18.6827 84.3152 18.7582 84.0948 18.7582C83.8743 18.7582 83.6828 18.6827 83.5262 18.5202C83.3637 18.3636 83.2825 18.1721 83.2825 17.9516C83.2825 17.7312 83.3637 17.5397 83.5145 17.3889C83.6712 17.2322 83.8685 17.151 84.0948 17.151ZM84.7504 20.9514V26.7882C84.7504 27.2407 84.7852 27.5483 84.849 27.6991C84.9187 27.85 85.0173 27.9603 85.1392 28.0357C85.2726 28.1053 85.5105 28.1459 85.8528 28.1459V28.4302H82.3252V28.1459C82.6791 28.1459 82.917 28.1111 83.0388 28.0415C83.1607 27.9719 83.2535 27.8616 83.3231 27.6991C83.3985 27.5425 83.4334 27.2349 83.4334 26.7882V23.9859C83.4334 23.2026 83.4102 22.6919 83.3638 22.4598C83.329 22.2858 83.2709 22.1698 83.1897 22.106C83.1084 22.0422 83.004 22.0073 82.8647 22.0073C82.7197 22.0073 82.5398 22.0421 82.3252 22.1233L82.2149 21.839L84.4023 20.9514H84.7504ZM91.4634 20.9514V23.4231H91.2023C90.9992 22.6456 90.7439 22.1175 90.4248 21.839C90.1115 21.5605 89.7112 21.4154 89.2296 21.4154C88.8583 21.4154 88.5566 21.5141 88.3303 21.7114C88.104 21.9086 87.988 22.1234 87.988 22.3613C87.988 22.6572 88.075 22.9125 88.2432 23.1214C88.4057 23.3418 88.7423 23.5681 89.2412 23.8118L90.4016 24.3746C91.475 24.9025 92.0088 25.593 92.0088 26.4459C92.0088 27.1074 91.7593 27.6411 91.2603 28.0473C90.7614 28.4534 90.2044 28.6506 89.5835 28.6506C89.1368 28.6506 88.632 28.5752 88.0634 28.4128C87.8835 28.3605 87.7443 28.3374 87.6341 28.3374C87.5122 28.3374 87.4136 28.4011 87.344 28.5404H87.0828V25.9469H87.344C87.4948 26.6895 87.7791 27.2466 88.1968 27.6238C88.6146 27.9951 89.0788 28.1865 89.601 28.1865C89.9665 28.1865 90.2623 28.0763 90.4886 27.8674C90.7207 27.6527 90.8368 27.3916 90.8368 27.0899C90.8368 26.7243 90.7091 26.4169 90.448 26.1674C90.1928 25.9237 89.6822 25.6046 88.9163 25.2274C88.1504 24.8445 87.6457 24.5022 87.4078 24.1947C87.1699 23.8929 87.0539 23.51 87.0539 23.0517C87.0539 22.4541 87.2569 21.955 87.663 21.5547C88.075 21.1486 88.6088 20.9514 89.2586 20.9514C89.5429 20.9514 89.891 21.0093 90.2972 21.1312C90.5699 21.2124 90.7498 21.253 90.8368 21.253C90.9238 21.253 90.9876 21.2357 91.0341 21.195C91.0805 21.1602 91.1384 21.079 91.2023 20.9514H91.4634ZM95.2057 18.7756V21.166H96.9057V21.7172H95.2057V26.4285C95.2057 26.9043 95.2753 27.2175 95.4087 27.3858C95.5422 27.5482 95.7163 27.6296 95.9309 27.6296C96.105 27.6296 96.2733 27.5773 96.4357 27.4729C96.604 27.3569 96.7258 27.2001 96.8187 26.9855H97.1262C96.9405 27.5019 96.6795 27.8964 96.3429 28.1633C96.0064 28.4186 95.6525 28.552 95.2927 28.552C95.0491 28.552 94.8112 28.4825 94.5791 28.349C94.347 28.2156 94.1787 28.0183 94.0627 27.7746C93.9525 27.5193 93.9002 27.1306 93.9002 26.6084V21.7172H92.7514V21.4561C93.0415 21.3401 93.3375 21.1428 93.6392 20.8701C93.9467 20.5916 94.2136 20.2609 94.4515 19.878C94.5733 19.6807 94.7474 19.3094 94.962 18.7756H95.2057ZM99.7429 20.9514V22.5817C100.352 21.4967 100.979 20.9514 101.617 20.9514C101.907 20.9514 102.151 21.0384 102.336 21.2183C102.528 21.3923 102.627 21.5954 102.627 21.8275C102.627 22.0364 102.557 22.2104 102.418 22.3554C102.278 22.4947 102.116 22.5701 101.925 22.5701C101.739 22.5701 101.53 22.4772 101.298 22.2974C101.072 22.1117 100.903 22.0189 100.793 22.0189C100.694 22.0189 100.596 22.0711 100.486 22.1814C100.248 22.396 99.9982 22.7558 99.7429 23.249V26.7302C99.7429 27.1364 99.7952 27.438 99.8938 27.6468C99.9634 27.7861 100.085 27.908 100.259 28.0008C100.433 28.0995 100.689 28.1459 101.014 28.1459V28.4302H97.2944V28.1459C97.6657 28.1459 97.9385 28.0878 98.1183 27.9718C98.2518 27.8848 98.3446 27.7513 98.3968 27.5657C98.4258 27.4728 98.4375 27.2175 98.4375 26.794V23.9801C98.4375 23.133 98.4201 22.6339 98.3795 22.4715C98.3505 22.309 98.2866 22.1872 98.188 22.1176C98.1009 22.0422 97.9849 22.0073 97.8515 22.0073C97.6832 22.0073 97.4975 22.0421 97.2944 22.1233L97.2132 21.839L99.4122 20.9514H99.7429ZM102.615 21.166H106.003V21.4561H105.835C105.597 21.4561 105.417 21.5083 105.295 21.6186C105.179 21.7172 105.121 21.8448 105.121 21.9957C105.121 22.2045 105.208 22.4888 105.383 22.8543L107.152 26.5213L108.782 22.5063C108.87 22.2858 108.916 22.0711 108.916 21.8622C108.916 21.7694 108.899 21.694 108.858 21.6476C108.817 21.5896 108.754 21.5432 108.661 21.5142C108.574 21.4736 108.411 21.4561 108.185 21.4561V21.166H110.552V21.4561C110.355 21.4793 110.204 21.5199 110.1 21.5837C109.989 21.6476 109.873 21.7695 109.746 21.9435C109.699 22.0132 109.612 22.2163 109.479 22.5528L106.52 29.8053C106.235 30.5074 105.858 31.0354 105.394 31.3951C104.936 31.7548 104.489 31.9346 104.06 31.9346C103.746 31.9346 103.491 31.8476 103.294 31.6678C103.091 31.4879 102.992 31.279 102.992 31.0469C102.992 30.8264 103.062 30.6466 103.207 30.5074C103.352 30.3739 103.555 30.31 103.804 30.31C103.978 30.31 104.216 30.3681 104.518 30.4841C104.733 30.5654 104.866 30.6059 104.918 30.6059C105.075 30.6059 105.249 30.519 105.435 30.3565C105.62 30.194 105.812 29.8748 106.003 29.4049L106.52 28.1459L103.909 22.663C103.833 22.5005 103.706 22.2974 103.532 22.0537C103.398 21.8681 103.288 21.7405 103.207 21.6825C103.085 21.5954 102.888 21.5199 102.615 21.4561V21.166Z" fill="#1F1F1F"/>
<path d="M19.9996 51.4642V52.2185H16.2225V45.5694H17.1218V51.4642H19.9996ZM21.6706 47.5188V52.2185H20.8468V47.5188H21.6706ZM21.8447 46.0394C21.8447 46.1206 21.8331 46.196 21.7982 46.2656C21.7634 46.3352 21.7228 46.3991 21.6648 46.4513C21.6126 46.5035 21.5488 46.5499 21.4734 46.579C21.4037 46.608 21.3283 46.6254 21.2471 46.6254C21.1658 46.6254 21.0904 46.608 21.0208 46.579C20.9512 46.5499 20.8932 46.5035 20.841 46.4513C20.7887 46.3991 20.7481 46.3352 20.7133 46.2656C20.6842 46.196 20.6669 46.1206 20.6669 46.0394C20.6669 45.9582 20.6842 45.8827 20.7133 45.813C20.7481 45.7376 20.7887 45.6737 20.841 45.6215C20.8932 45.5693 20.9512 45.5229 21.0208 45.4939C21.0904 45.4591 21.1658 45.4476 21.2471 45.4476C21.3283 45.4476 21.4037 45.4591 21.4734 45.4939C21.5488 45.5229 21.6126 45.5693 21.6648 45.6215C21.7228 45.6737 21.7634 45.7376 21.7982 45.813C21.8331 45.8827 21.8447 45.9582 21.8447 46.0394ZM29.7006 51.4875L29.6949 52.2185H25.5986V45.5694H29.6949V46.3005H26.498V48.5111H29.0915V49.2131H26.498V51.4875H29.7006ZM34.4293 47.5188V52.2185H33.9361C33.8201 52.2185 33.7447 52.1605 33.7157 52.0444L33.646 51.5397C33.443 51.766 33.2167 51.9516 32.9614 52.0909C32.7062 52.2243 32.4161 52.2939 32.0911 52.2939C31.83 52.2939 31.6037 52.2533 31.4065 52.1663C31.2092 52.0792 31.0468 51.9575 30.9133 51.8066C30.7799 51.6499 30.6812 51.4643 30.6116 51.2438C30.5478 51.0233 30.5129 50.7797 30.5129 50.5128V47.5188H31.3427V50.5128C31.3427 50.8725 31.4239 51.1451 31.5806 51.3424C31.7488 51.5339 31.9983 51.6325 32.329 51.6325C32.5727 51.6325 32.8048 51.5745 33.0136 51.4642C33.2283 51.3424 33.4256 51.1858 33.5997 50.977V47.5188H34.4293ZM36.5238 48.4588C36.6689 48.1397 36.8546 47.8844 37.0693 47.7045C37.2897 47.5247 37.5508 47.4318 37.8641 47.4318C37.9628 47.4318 38.0556 47.4435 38.1484 47.4667C38.2413 47.4899 38.3225 47.5189 38.3922 47.5653L38.3341 48.1861C38.3167 48.2616 38.2703 48.3021 38.1948 48.3021C38.1484 48.3021 38.0846 48.2905 38.0034 48.2731C37.9222 48.2557 37.8235 48.2441 37.7191 48.2441C37.574 48.2441 37.4406 48.2673 37.3187 48.308C37.2085 48.3544 37.1041 48.4182 37.0113 48.5053C36.9184 48.5865 36.8372 48.6966 36.7617 48.8185C36.6921 48.9461 36.6283 49.0854 36.5703 49.2478V52.2185H35.7406V47.5188H36.2106C36.3034 47.5188 36.3614 47.5363 36.3962 47.5653C36.431 47.6001 36.4542 47.6581 36.4658 47.7452L36.5238 48.4588ZM40.9102 47.4435C41.2525 47.4435 41.5658 47.5015 41.8385 47.6117C42.117 47.7278 42.3491 47.8901 42.5464 48.099C42.7378 48.3137 42.8887 48.569 42.9931 48.8649C43.0976 49.1666 43.1498 49.4973 43.1498 49.8629C43.1498 50.2342 43.0976 50.5707 42.9931 50.8666C42.8887 51.1625 42.7378 51.4178 42.5464 51.6267C42.3491 51.8414 42.117 52.0039 41.8385 52.1141C41.5658 52.2302 41.2525 52.2824 40.9102 52.2824C40.5679 52.2824 40.2546 52.2302 39.9761 52.1141C39.6976 52.0039 39.4655 51.8414 39.2683 51.6267C39.071 51.4178 38.9259 51.1625 38.8157 50.8666C38.7171 50.5707 38.6648 50.2342 38.6648 49.8629C38.6648 49.4973 38.7171 49.1666 38.8157 48.8649C38.9259 48.569 39.071 48.3137 39.2683 48.099C39.4655 47.8901 39.6976 47.7278 39.9761 47.6117C40.2546 47.5015 40.5679 47.4435 40.9102 47.4435ZM40.9102 51.6383C41.3744 51.6383 41.7225 51.4816 41.9488 51.1741C42.1809 50.8608 42.2969 50.4257 42.2969 49.8687C42.2969 49.3117 42.1809 48.8707 41.9488 48.5632C41.7225 48.2499 41.3744 48.0932 40.9102 48.0932C40.6781 48.0932 40.4692 48.1339 40.2952 48.2152C40.1211 48.2906 39.9761 48.4066 39.86 48.5632C39.744 48.7141 39.657 48.8997 39.599 49.1202C39.5409 49.3407 39.5119 49.5902 39.5119 49.8687C39.5119 50.4257 39.6279 50.8608 39.86 51.1741C40.0921 51.4816 40.4403 51.6383 40.9102 51.6383ZM45.0297 51.0872C45.1805 51.2902 45.343 51.4353 45.5228 51.5165C45.7027 51.6035 45.9058 51.6441 46.1263 51.6441C46.5672 51.6441 46.9037 51.4874 47.1416 51.1741C47.3737 50.8608 47.4897 50.414 47.4897 49.8396C47.4897 49.5321 47.4665 49.2653 47.4085 49.0506C47.3563 48.8302 47.2809 48.6503 47.1765 48.5111C47.072 48.366 46.9502 48.2616 46.7993 48.1977C46.6543 48.1339 46.486 48.099 46.2945 48.099C46.0276 48.099 45.7897 48.1629 45.5866 48.2847C45.3836 48.4124 45.1979 48.5864 45.0297 48.8127V51.0872ZM44.9833 48.2441C45.1863 48.0004 45.4126 47.8031 45.6737 47.6581C45.9348 47.5072 46.2307 47.4318 46.5614 47.4318C46.8341 47.4318 47.0836 47.4841 47.3041 47.5885C47.5246 47.6929 47.7102 47.8438 47.8611 48.0527C48.0177 48.25 48.1396 48.4995 48.2208 48.8012C48.302 49.1029 48.3484 49.4451 48.3484 49.8396C48.3484 50.182 48.302 50.507 48.2092 50.8087C48.1163 51.1046 47.9771 51.3656 47.8031 51.5802C47.629 51.8007 47.4143 51.9691 47.1648 52.0967C46.9096 52.2244 46.631 52.2824 46.3119 52.2824C46.0276 52.2824 45.7782 52.236 45.5693 52.1374C45.3662 52.0387 45.1863 51.9052 45.0297 51.7311V53.8083H44.1942V47.5188H44.6932C44.8092 47.5188 44.8846 47.5711 44.9136 47.6871L44.9833 48.2441ZM51.9515 50.1008C51.5686 50.1124 51.2437 50.1472 50.9768 50.1936C50.7099 50.24 50.4894 50.3039 50.3211 50.3793C50.1529 50.4606 50.031 50.5476 49.9556 50.652C49.8802 50.7622 49.8396 50.8782 49.8396 51.0058C49.8396 51.1335 49.8628 51.238 49.9034 51.325C49.944 51.4178 49.9962 51.4933 50.0659 51.5513C50.1355 51.6036 50.2167 51.65 50.3095 51.6732C50.4081 51.7022 50.5068 51.7137 50.617 51.7137C50.7621 51.7137 50.8956 51.6964 51.0174 51.6732C51.1393 51.6384 51.2495 51.5978 51.3539 51.5397C51.4641 51.4875 51.5628 51.4178 51.6614 51.3424C51.7601 51.2612 51.8587 51.1742 51.9515 51.0755V50.1008ZM49.2825 48.1803C49.5378 47.9308 49.8222 47.7452 50.1181 47.6175C50.4198 47.4957 50.7505 47.4318 51.116 47.4318C51.3829 47.4318 51.615 47.4782 51.8181 47.5653C52.0212 47.6523 52.1952 47.7684 52.3344 47.9251C52.4737 48.0817 52.5781 48.2674 52.6478 48.4878C52.7232 48.7083 52.758 48.9462 52.758 49.2131V52.2185H52.3925C52.3113 52.2185 52.2474 52.2069 52.2068 52.1837C52.1604 52.1547 52.1256 52.1024 52.1024 52.0212L52.0095 51.5802C51.8877 51.6905 51.7659 51.7949 51.6498 51.882C51.528 51.969 51.4061 52.0445 51.2785 52.1083C51.145 52.1663 51.0058 52.2127 50.8607 52.2418C50.7099 52.2766 50.5474 52.2939 50.3733 52.2939C50.1877 52.2939 50.0137 52.2707 49.857 52.2185C49.6946 52.1663 49.5552 52.0909 49.4334 51.9865C49.3174 51.8821 49.2187 51.7543 49.1491 51.6035C49.0795 51.441 49.0505 51.2554 49.0505 51.0465C49.0505 50.8608 49.0969 50.681 49.2014 50.5128C49.3058 50.3387 49.4683 50.182 49.7003 50.0486C49.9266 49.9151 50.2225 49.8106 50.5938 49.7236C50.9593 49.6366 51.4119 49.5902 51.9515 49.5786V49.2131C51.9515 48.8476 51.8703 48.569 51.7136 48.3833C51.557 48.1976 51.3249 48.099 51.0232 48.099C50.8143 48.099 50.6461 48.1281 50.5068 48.1803C50.3676 48.2325 50.2515 48.2848 50.1471 48.3544C50.0485 48.4124 49.9614 48.4703 49.886 48.5226C49.8163 48.5748 49.7467 48.5981 49.6771 48.5981C49.6191 48.5981 49.5727 48.5864 49.5321 48.5574C49.4914 48.5226 49.4566 48.4878 49.4276 48.4472L49.2825 48.1803ZM54.7945 48.1977C54.8989 48.0817 55.0034 47.9831 55.1194 47.8902C55.2355 47.7974 55.3573 47.7161 55.4792 47.6522C55.6126 47.5826 55.746 47.5305 55.8911 47.4957C56.0361 47.4609 56.1928 47.4435 56.3611 47.4435C56.6164 47.4435 56.8427 47.484 57.0341 47.5711C57.2372 47.6581 57.3997 47.7742 57.5273 47.9367C57.6607 48.0875 57.7652 48.279 57.829 48.4937C57.8986 48.7141 57.9334 48.9578 57.9334 49.2247V52.2185H57.1038V49.2247C57.1038 48.8708 57.0225 48.5922 56.8542 48.4007C56.6976 48.1977 56.4481 48.099 56.1174 48.099C55.8737 48.099 55.6416 48.1629 55.4328 48.2789C55.2181 48.395 55.0266 48.5575 54.8468 48.7547V52.2185H54.017V47.5188H54.5102C54.632 47.5188 54.7017 47.5711 54.7307 47.6871L54.7945 48.1977ZM62.4184 45.3837V52.2185H61.5945V45.3837H62.4184ZM64.6348 47.5188V52.2185H63.8051V47.5188H64.6348ZM64.8088 46.0394C64.8088 46.1206 64.7914 46.196 64.7566 46.2656C64.7276 46.3352 64.687 46.3991 64.629 46.4513C64.5768 46.5035 64.513 46.5499 64.4376 46.579C64.3679 46.608 64.2925 46.6254 64.2113 46.6254C64.13 46.6254 64.0546 46.608 63.985 46.579C63.9154 46.5499 63.8573 46.5035 63.8051 46.4513C63.7471 46.3991 63.7065 46.3352 63.6775 46.2656C63.6484 46.196 63.6311 46.1206 63.6311 46.0394C63.6311 45.9582 63.6484 45.8827 63.6775 45.813C63.7065 45.7376 63.7471 45.6737 63.8051 45.6215C63.8573 45.5693 63.9154 45.5229 63.985 45.4939C64.0546 45.4591 64.13 45.4476 64.2113 45.4476C64.2925 45.4476 64.3679 45.4591 64.4376 45.4939C64.513 45.5229 64.5768 45.5693 64.629 45.6215C64.687 45.6737 64.7276 45.7376 64.7566 45.813C64.7914 45.8827 64.8088 45.9582 64.8088 46.0394ZM66.7699 48.1977C66.8744 48.0817 66.9788 47.9831 67.0949 47.8902C67.2109 47.7974 67.3328 47.7161 67.4604 47.6522C67.588 47.5826 67.7215 47.5305 67.8665 47.4957C68.0116 47.4609 68.1683 47.4435 68.3365 47.4435C68.5918 47.4435 68.818 47.484 69.0153 47.5711C69.2126 47.6581 69.3751 47.7742 69.5027 47.9367C69.6362 48.0875 69.7406 48.279 69.8045 48.4937C69.8741 48.7141 69.9088 48.9578 69.9088 49.2247V52.2185H69.0792V49.2247C69.0792 48.8708 68.9979 48.5922 68.8297 48.4007C68.673 48.1977 68.4235 48.099 68.0928 48.099C67.8491 48.099 67.6229 48.1629 67.4082 48.2789C67.1935 48.395 67.0021 48.5575 66.8222 48.7547V52.2185H65.9925V47.5188H66.4856C66.6075 47.5188 66.6771 47.5711 66.7061 47.6871L66.7699 48.1977ZM72.8041 49.9209C72.9723 49.9209 73.1174 49.8977 73.245 49.8512C73.3727 49.8048 73.4829 49.7411 73.57 49.6541C73.6512 49.5728 73.7208 49.4742 73.7614 49.3582C73.8078 49.2421 73.8252 49.1144 73.8252 48.9751C73.8252 48.685 73.7382 48.4588 73.5642 48.2847C73.3901 48.1165 73.1348 48.0295 72.8041 48.0295C72.4733 48.0295 72.2181 48.1165 72.0382 48.2847C71.8642 48.4588 71.7829 48.685 71.7829 48.9751C71.7829 49.1144 71.8003 49.2421 71.8467 49.3582C71.8931 49.4742 71.957 49.5728 72.044 49.6541C72.1311 49.7411 72.2355 49.8048 72.3631 49.8512C72.4908 49.8977 72.6416 49.9209 72.8041 49.9209ZM74.2952 52.4738C74.2952 52.3577 74.2662 52.2649 74.1966 52.1953C74.1327 52.1257 74.0457 52.0676 73.9355 52.027C73.8253 51.9864 73.6976 51.9575 73.5526 51.9458C73.4075 51.9284 73.2508 51.911 73.0884 51.9052C72.9259 51.8936 72.7635 51.882 72.5952 51.8762C72.4327 51.8646 72.2703 51.853 72.1137 51.8298C71.9396 51.9111 71.8004 52.0097 71.6901 52.1374C71.5799 52.2534 71.5276 52.3984 71.5276 52.5609C71.5276 52.6653 71.5509 52.764 71.6031 52.8568C71.6611 52.9496 71.7423 53.025 71.8525 53.0888C71.9686 53.1585 72.1079 53.2107 72.2703 53.2513C72.4444 53.2919 72.6416 53.3092 72.8737 53.3092C73.0942 53.3092 73.2915 53.2919 73.4713 53.2513C73.6454 53.2107 73.7962 53.1526 73.9181 53.0772C74.0399 53.0018 74.1327 52.9148 74.1966 52.8103C74.2662 52.7117 74.2952 52.5956 74.2952 52.4738ZM75.1365 47.7045V48.0062C75.1365 48.1107 75.0727 48.1745 74.9392 48.2036L74.4054 48.2731C74.5099 48.4762 74.5679 48.7026 74.5679 48.952C74.5679 49.1783 74.5215 49.3871 74.4287 49.5786C74.3416 49.7642 74.2256 49.9209 74.0689 50.0544C73.9123 50.1878 73.7266 50.2923 73.5119 50.3619C73.2972 50.4315 73.0594 50.4663 72.8041 50.4663C72.5836 50.4663 72.3805 50.4432 72.1833 50.3909C72.0846 50.449 72.0092 50.5185 71.957 50.5881C71.9048 50.6577 71.8758 50.7274 71.8758 50.7971C71.8758 50.9073 71.9222 50.9943 72.015 51.0523C72.1078 51.1103 72.2239 51.1509 72.3747 51.1741C72.5256 51.1973 72.6938 51.2148 72.8795 51.2206C73.071 51.2264 73.2682 51.238 73.4655 51.2554C73.6686 51.267 73.8601 51.2902 74.0515 51.325C74.243 51.354 74.4112 51.412 74.5621 51.4875C74.7072 51.5687 74.829 51.6732 74.916 51.8124C75.0089 51.9459 75.0553 52.1199 75.0553 52.3403C75.0553 52.5376 75.0088 52.7349 74.9044 52.9264C74.8058 53.112 74.6607 53.2803 74.4751 53.4254C74.2836 53.5763 74.0515 53.6922 73.7788 53.7792C73.5061 53.8663 73.1987 53.9127 72.8505 53.9127C72.5082 53.9127 72.2065 53.8779 71.9512 53.8083C71.6959 53.7445 71.4812 53.6516 71.313 53.5356C71.1389 53.4196 71.0112 53.292 70.9242 53.1353C70.843 52.9902 70.8024 52.8336 70.8024 52.6711C70.8024 52.439 70.872 52.2417 71.0171 52.0793C71.1621 51.9168 71.3651 51.7892 71.6204 51.6964C71.4812 51.6326 71.3652 51.5512 71.2839 51.4468C71.2027 51.3424 71.1621 51.2031 71.1621 51.0233C71.1621 50.9594 71.1737 50.8899 71.2027 50.8145C71.2259 50.7449 71.2608 50.6694 71.313 50.5997C71.3652 50.5243 71.429 50.4548 71.5044 50.3909C71.574 50.3271 71.6611 50.2691 71.7597 50.2168C71.5277 50.0892 71.3478 49.9151 71.2201 49.7004C71.0867 49.4857 71.0229 49.2363 71.0229 48.952C71.0229 48.72 71.0693 48.5168 71.1563 48.3312C71.2433 48.1397 71.3652 47.983 71.5276 47.8496C71.6843 47.7161 71.8699 47.6175 72.0846 47.542C72.3051 47.4724 72.5488 47.4376 72.8041 47.4376C73.0129 47.4376 73.1986 47.4608 73.3785 47.5072C73.5525 47.5478 73.715 47.6175 73.8601 47.7045H75.1365ZM79.8594 47.5188V52.2185H79.3662C79.2502 52.2185 79.1747 52.1605 79.1399 52.0444L79.0761 51.5397C78.873 51.766 78.6467 51.9516 78.3914 52.0909C78.1362 52.2243 77.846 52.2939 77.5153 52.2939C77.26 52.2939 77.0338 52.2533 76.8365 52.1663C76.6393 52.0792 76.4767 51.9575 76.3433 51.8066C76.2099 51.6499 76.1113 51.4643 76.0417 51.2438C75.9778 51.0233 75.943 50.7797 75.943 50.5128V47.5188H76.7726V50.5128C76.7726 50.8725 76.8481 51.1451 77.0105 51.3424C77.173 51.5339 77.4225 51.6325 77.759 51.6325C78.0027 51.6325 78.229 51.5745 78.4436 51.4642C78.6525 51.3424 78.8498 51.1858 79.0297 50.977V47.5188H79.8594ZM84.3153 49.3523C84.3153 49.1609 84.2864 48.9867 84.2283 48.8301C84.1761 48.6676 84.1007 48.5342 83.9962 48.4182C83.8918 48.3021 83.7641 48.2093 83.6191 48.1455C83.4682 48.0817 83.3 48.0527 83.1143 48.0527C82.714 48.0527 82.4007 48.1687 82.1686 48.4007C81.9423 48.627 81.7973 48.9462 81.745 49.3523H84.3153ZM84.9826 51.5572C84.8781 51.6848 84.7563 51.7891 84.617 51.882C84.472 51.9748 84.3212 52.0503 84.1587 52.1083C83.9963 52.1663 83.828 52.2069 83.6539 52.236C83.4799 52.2708 83.3116 52.2824 83.1375 52.2824C82.8126 52.2824 82.5167 52.2302 82.2382 52.1199C81.9655 52.0097 81.7276 51.8472 81.5304 51.6383C81.3331 51.4236 81.1764 51.1625 81.0662 50.8492C80.9559 50.5359 80.898 50.1762 80.898 49.7701C80.898 49.4452 80.9443 49.1376 81.0488 48.8533C81.1474 48.569 81.2924 48.3253 81.4839 48.1164C81.6696 47.9076 81.9017 47.7394 82.1744 47.6233C82.4471 47.5015 82.7546 47.4435 83.0911 47.4435C83.3754 47.4435 83.6365 47.4899 83.8744 47.5885C84.1123 47.6813 84.3211 47.8148 84.4952 47.9946C84.6693 48.1687 84.8085 48.3892 84.9071 48.6561C85.0058 48.9114 85.058 49.213 85.058 49.5437C85.058 49.6772 85.0406 49.7643 85.0174 49.8049C84.9884 49.8455 84.9362 49.8687 84.8549 49.8687H81.716C81.7218 50.1646 81.7625 50.4257 81.8379 50.6462C81.9075 50.8667 82.0119 51.0465 82.1395 51.1974C82.273 51.3424 82.4239 51.4527 82.6037 51.5281C82.7836 51.5977 82.9867 51.6325 83.2072 51.6325C83.416 51.6325 83.5959 51.6094 83.7409 51.563C83.8918 51.5165 84.0252 51.4643 84.1355 51.4063C84.2399 51.3483 84.3327 51.3019 84.4024 51.2554C84.4778 51.2032 84.5417 51.1799 84.5939 51.1799C84.6577 51.1799 84.7157 51.2032 84.7505 51.2554L84.9826 51.5572ZM88.8119 48.2905C88.7713 48.3602 88.7133 48.3949 88.6379 48.3949C88.5915 48.3949 88.5392 48.3776 88.4812 48.3428C88.4232 48.308 88.3478 48.2731 88.2607 48.2325C88.1795 48.186 88.0809 48.1513 87.959 48.1164C87.843 48.0758 87.7037 48.0585 87.5413 48.0585C87.402 48.0585 87.2802 48.0758 87.1641 48.1164C87.0539 48.1513 86.9611 48.1977 86.8798 48.2615C86.8044 48.3195 86.7406 48.395 86.7 48.4762C86.6594 48.5575 86.6361 48.6445 86.6361 48.7431C86.6361 48.8649 86.671 48.9636 86.7406 49.0448C86.8102 49.1261 86.903 49.1956 87.0191 49.2536C87.1351 49.3116 87.2628 49.3639 87.4078 49.4103C87.5529 49.4509 87.7038 49.5031 87.8546 49.5553C88.0113 49.6018 88.1563 49.6598 88.3013 49.7236C88.4522 49.7816 88.5798 49.863 88.6959 49.9558C88.8061 50.0486 88.8989 50.1588 88.9686 50.298C89.0382 50.4315 89.073 50.5882 89.073 50.7796C89.073 50.9943 89.0382 51.1974 88.9569 51.3831C88.8815 51.5629 88.7655 51.7253 88.6146 51.8587C88.4638 51.9922 88.2781 52.0966 88.0577 52.1779C87.8372 52.2533 87.5819 52.2939 87.2976 52.2939C86.9669 52.2939 86.671 52.2418 86.4041 52.1374C86.1372 52.0271 85.9109 51.8877 85.7252 51.7195L85.9225 51.4063C85.9457 51.3657 85.9747 51.3366 86.0095 51.3134C86.0443 51.2902 86.0907 51.2785 86.143 51.2785C86.1952 51.2785 86.2532 51.3018 86.3171 51.3482C86.3809 51.3888 86.4563 51.4352 86.5375 51.4875C86.6304 51.5397 86.7406 51.5919 86.8624 51.6325C86.9901 51.6789 87.1526 51.6964 87.3382 51.6964C87.5007 51.6964 87.6399 51.6789 87.7618 51.6383C87.8836 51.5977 87.9823 51.5397 88.0635 51.4642C88.1447 51.3946 88.2027 51.3134 88.2375 51.2206C88.2781 51.1278 88.3013 51.0291 88.3013 50.9247C88.3013 50.7912 88.2665 50.6868 88.1911 50.6055C88.1273 50.5185 88.0345 50.4432 87.9184 50.3851C87.8024 50.3213 87.6747 50.2691 87.5239 50.2285C87.3788 50.182 87.2279 50.1356 87.0713 50.0834C86.9204 50.0312 86.7696 49.979 86.6246 49.9151C86.4795 49.8513 86.3461 49.7701 86.2358 49.6773C86.1198 49.5787 86.027 49.4626 85.9573 49.3233C85.8877 49.1783 85.8529 49.0101 85.8529 48.807C85.8529 48.6271 85.8877 48.453 85.9631 48.2905C86.0386 48.1223 86.1488 47.9772 86.288 47.8554C86.4331 47.7277 86.6072 47.6291 86.816 47.5537C87.0191 47.4782 87.257 47.4435 87.5239 47.4435C87.8314 47.4435 88.1099 47.4899 88.3536 47.5885C88.6031 47.6871 88.8177 47.8206 88.9976 47.9888L88.8119 48.2905ZM95.612 49.3523C95.612 49.1609 95.5829 48.9867 95.5249 48.8301C95.4727 48.6676 95.3972 48.5342 95.287 48.4182C95.1884 48.3021 95.0607 48.2093 94.9157 48.1455C94.7648 48.0817 94.5965 48.0527 94.4051 48.0527C94.0105 48.0527 93.6972 48.1687 93.4652 48.4007C93.2389 48.627 93.0938 48.9462 93.0358 49.3523H95.612ZM96.2791 51.5572C96.1747 51.6848 96.0529 51.7891 95.9137 51.882C95.7686 51.9748 95.6177 52.0503 95.4495 52.1083C95.2928 52.1663 95.1246 52.2069 94.9505 52.236C94.7764 52.2708 94.6082 52.2824 94.4341 52.2824C94.1092 52.2824 93.8133 52.2302 93.5348 52.1199C93.2621 52.0097 93.0242 51.8472 92.8269 51.6383C92.6297 51.4236 92.473 51.1625 92.3627 50.8492C92.2467 50.5359 92.1945 50.1762 92.1945 49.7701C92.1945 49.4452 92.241 49.1376 92.3396 48.8533C92.444 48.569 92.5891 48.3253 92.7805 48.1164C92.9662 47.9076 93.1983 47.7394 93.471 47.6233C93.7437 47.5015 94.0512 47.4435 94.3877 47.4435C94.672 47.4435 94.9331 47.4899 95.171 47.5885C95.4089 47.6813 95.6177 47.8148 95.7918 47.9946C95.9658 48.1687 96.1051 48.3892 96.2038 48.6561C96.3024 48.9114 96.3546 49.213 96.3546 49.5437C96.3546 49.6772 96.3372 49.7643 96.3082 49.8049C96.285 49.8455 96.2327 49.8687 96.1515 49.8687H93.0126C93.0184 50.1646 93.059 50.4257 93.1287 50.6462C93.2041 50.8667 93.3085 51.0465 93.4362 51.1974C93.5696 51.3424 93.7204 51.4527 93.9003 51.5281C94.0802 51.5977 94.2833 51.6325 94.5037 51.6325C94.7126 51.6325 94.8925 51.6094 95.0376 51.563C95.1884 51.5165 95.3218 51.4643 95.4262 51.4063C95.5365 51.3483 95.6293 51.3019 95.6989 51.2554C95.7743 51.2032 95.8382 51.1799 95.8904 51.1799C95.9543 51.1799 96.0065 51.2032 96.0471 51.2554L96.2791 51.5572ZM100.109 48.2905C100.068 48.3602 100.01 48.3949 99.9344 48.3949C99.888 48.3949 99.8358 48.3776 99.7778 48.3428C99.7198 48.308 99.6443 48.2731 99.5573 48.2325C99.4761 48.186 99.3716 48.1513 99.2556 48.1164C99.1395 48.0758 99.0003 48.0585 98.8379 48.0585C98.6986 48.0585 98.5767 48.0758 98.4607 48.1164C98.3505 48.1513 98.2576 48.1977 98.1764 48.2615C98.0952 48.3195 98.0372 48.395 97.9966 48.4762C97.956 48.5575 97.9328 48.6445 97.9328 48.7431C97.9328 48.8649 97.9675 48.9636 98.0372 49.0448C98.1068 49.1261 98.1996 49.1956 98.3157 49.2536C98.4259 49.3116 98.5594 49.3639 98.7044 49.4103C98.8495 49.4509 99.0003 49.5031 99.1512 49.5553C99.302 49.6018 99.4529 49.6598 99.598 49.7236C99.743 49.7816 99.8764 49.863 99.9925 49.9558C100.103 50.0486 100.196 50.1588 100.265 50.298C100.335 50.4315 100.37 50.5882 100.37 50.7796C100.37 50.9943 100.329 51.1974 100.254 51.3831C100.178 51.5629 100.062 51.7253 99.9112 51.8587C99.7604 51.9922 99.5747 52.0966 99.3542 52.1779C99.1338 52.2533 98.8785 52.2939 98.5942 52.2939C98.2635 52.2939 97.9676 52.2418 97.7007 52.1374C97.4338 52.0271 97.2075 51.8877 97.0218 51.7195L97.2191 51.4063C97.2423 51.3657 97.2713 51.3366 97.3061 51.3134C97.3409 51.2902 97.3815 51.2785 97.4395 51.2785C97.4918 51.2785 97.5498 51.3018 97.6136 51.3482C97.6775 51.3888 97.7471 51.4352 97.8341 51.4875C97.9269 51.5397 98.0314 51.5919 98.1591 51.6325C98.2867 51.6789 98.4433 51.6964 98.6348 51.6964C98.7973 51.6964 98.9365 51.6789 99.0583 51.6383C99.1802 51.5977 99.2788 51.5397 99.3601 51.4642C99.4413 51.3946 99.4993 51.3134 99.5341 51.2206C99.5748 51.1278 99.598 51.0291 99.598 50.9247C99.598 50.7912 99.5573 50.6868 99.4877 50.6055C99.4181 50.5185 99.331 50.4432 99.215 50.3851C99.099 50.3213 98.9713 50.2691 98.8204 50.2285C98.6754 50.182 98.5246 50.1356 98.3679 50.0834C98.2171 50.0312 98.0662 49.979 97.9212 49.9151C97.7761 49.8513 97.6426 49.7701 97.5324 49.6773C97.4164 49.5787 97.3235 49.4626 97.2539 49.3233C97.1843 49.1783 97.1494 49.0101 97.1494 48.807C97.1494 48.6271 97.1843 48.453 97.2597 48.2905C97.3351 48.1223 97.4453 47.9772 97.5846 47.8554C97.7296 47.7277 97.9037 47.6291 98.1126 47.5537C98.3157 47.4782 98.5535 47.4435 98.8204 47.4435C99.1279 47.4435 99.4065 47.4899 99.6502 47.5885C99.8996 47.6871 100.114 47.8206 100.294 47.9888L100.109 48.2905ZM103.758 52.2185V47.5188H104.257C104.373 47.5188 104.448 47.5711 104.472 47.6871L104.536 48.1687C104.71 47.9598 104.901 47.78 105.122 47.6466C105.336 47.5131 105.586 47.4435 105.87 47.4435C106.189 47.4435 106.444 47.5305 106.636 47.7045C106.833 47.8844 106.978 48.1223 107.065 48.424C107.129 48.2499 107.216 48.1048 107.326 47.983C107.431 47.8554 107.553 47.7567 107.686 47.6755C107.819 47.5942 107.959 47.5363 108.11 47.4957C108.26 47.4609 108.411 47.4435 108.568 47.4435C108.817 47.4435 109.032 47.484 109.229 47.5653C109.421 47.6407 109.583 47.7568 109.717 47.9076C109.856 48.0585 109.96 48.2441 110.03 48.4704C110.1 48.6851 110.134 48.9404 110.134 49.2247V52.2185H109.305V49.2247C109.305 48.8592 109.224 48.5806 109.067 48.3891C108.904 48.1977 108.672 48.099 108.371 48.099C108.231 48.099 108.104 48.1281 107.976 48.1745C107.86 48.2209 107.75 48.2905 107.657 48.3833C107.564 48.4761 107.489 48.5922 107.437 48.7373C107.384 48.8765 107.355 49.0391 107.355 49.2247V52.2185H106.526V49.2247C106.526 48.8476 106.45 48.5632 106.299 48.3775C106.148 48.1918 105.922 48.099 105.632 48.099C105.429 48.099 105.243 48.1571 105.069 48.2673C104.895 48.3775 104.733 48.5226 104.588 48.7141V52.2185H103.758ZM114.538 49.3523C114.538 49.1609 114.509 48.9867 114.457 48.8301C114.405 48.6676 114.324 48.5342 114.219 48.4182C114.115 48.3021 113.993 48.2093 113.842 48.1455C113.697 48.0817 113.523 48.0527 113.337 48.0527C112.943 48.0527 112.629 48.1687 112.397 48.4007C112.165 48.627 112.026 48.9462 111.968 49.3523H114.538ZM115.205 51.5572C115.107 51.6848 114.985 51.7891 114.84 51.882C114.701 51.9748 114.544 52.0503 114.382 52.1083C114.219 52.1663 114.051 52.2069 113.883 52.236C113.709 52.2708 113.534 52.2824 113.366 52.2824C113.041 52.2824 112.74 52.2302 112.467 52.1199C112.194 52.0097 111.956 51.8472 111.753 51.6383C111.556 51.4236 111.399 51.1625 111.289 50.8492C111.179 50.5359 111.121 50.1762 111.121 49.7701C111.121 49.4452 111.173 49.1376 111.272 48.8533C111.376 48.569 111.521 48.3253 111.707 48.1164C111.898 47.9076 112.125 47.7394 112.397 47.6233C112.67 47.5015 112.977 47.4435 113.32 47.4435C113.598 47.4435 113.859 47.4899 114.097 47.5885C114.341 47.6813 114.544 47.8148 114.718 47.9946C114.898 48.1687 115.031 48.3892 115.136 48.6561C115.234 48.9114 115.281 49.213 115.281 49.5437C115.281 49.6772 115.269 49.7643 115.24 49.8049C115.211 49.8455 115.159 49.8687 115.084 49.8687H111.939C111.951 50.1646 111.991 50.4257 112.061 50.6462C112.136 50.8667 112.235 51.0465 112.368 51.1974C112.496 51.3424 112.653 51.4527 112.832 51.5281C113.012 51.5977 113.21 51.6325 113.436 51.6325C113.639 51.6325 113.819 51.6094 113.97 51.563C114.12 51.5165 114.248 51.4643 114.358 51.4063C114.469 51.3483 114.556 51.3019 114.625 51.2554C114.701 51.2032 114.764 51.1799 114.817 51.1799C114.886 51.1799 114.939 51.2032 114.973 51.2554L115.205 51.5572ZM116.296 52.2185V47.5188H116.795C116.911 47.5188 116.981 47.5711 117.01 47.6871L117.074 48.1687C117.248 47.9598 117.439 47.78 117.654 47.6466C117.874 47.5131 118.124 47.4435 118.408 47.4435C118.721 47.4435 118.977 47.5305 119.174 47.7045C119.371 47.8844 119.516 48.1223 119.603 48.424C119.667 48.2499 119.754 48.1048 119.859 47.983C119.969 47.8554 120.091 47.7567 120.224 47.6755C120.358 47.5942 120.497 47.5363 120.648 47.4957C120.799 47.4609 120.949 47.4435 121.106 47.4435C121.356 47.4435 121.57 47.484 121.762 47.5653C121.959 47.6407 122.121 47.7568 122.255 47.9076C122.394 48.0585 122.499 48.2441 122.568 48.4704C122.638 48.6851 122.673 48.9404 122.673 49.2247V52.2185H121.843V49.2247C121.843 48.8592 121.762 48.5806 121.599 48.3891C121.443 48.1977 121.211 48.099 120.903 48.099C120.77 48.099 120.642 48.1281 120.514 48.1745C120.392 48.2209 120.288 48.2905 120.195 48.3833C120.102 48.4761 120.027 48.5922 119.975 48.7373C119.923 48.8765 119.894 49.0391 119.894 49.2247V52.2185H119.064V49.2247C119.064 48.8476 118.988 48.5632 118.837 48.3775C118.687 48.1918 118.46 48.099 118.17 48.099C117.967 48.099 117.782 48.1571 117.607 48.2673C117.433 48.3775 117.271 48.5226 117.126 48.7141V52.2185H116.296ZM124.761 51.0872C124.912 51.2902 125.081 51.4353 125.255 51.5165C125.44 51.6035 125.638 51.6441 125.858 51.6441C126.299 51.6441 126.636 51.4874 126.873 51.1741C127.105 50.8608 127.227 50.3967 127.227 49.7759C127.227 49.2015 127.123 48.778 126.908 48.5111C126.705 48.2384 126.403 48.099 126.02 48.099C125.748 48.099 125.516 48.1629 125.313 48.2847C125.115 48.4124 124.93 48.5864 124.761 48.8127V51.0872ZM124.761 48.1919C124.959 47.9657 125.179 47.78 125.429 47.6466C125.678 47.5131 125.968 47.4435 126.293 47.4435C126.566 47.4435 126.815 47.4957 127.036 47.6001C127.256 47.7046 127.448 47.8612 127.599 48.0585C127.755 48.2558 127.871 48.4995 127.953 48.7838C128.04 49.0681 128.08 49.3871 128.08 49.7468C128.08 50.124 128.034 50.4721 127.941 50.7854C127.848 51.0987 127.715 51.3656 127.535 51.5861C127.361 51.8065 127.152 51.9807 126.902 52.1025C126.647 52.2244 126.369 52.2824 126.055 52.2824C125.748 52.2824 125.487 52.2244 125.272 52.1141C125.063 51.9923 124.877 51.8298 124.721 51.6151L124.674 52.0444C124.651 52.1605 124.582 52.2185 124.466 52.2185H123.932V45.3837H124.761V48.1919ZM129.908 48.4588C130.059 48.1397 130.239 47.8844 130.459 47.7045C130.674 47.5247 130.941 47.4318 131.248 47.4318C131.347 47.4318 131.445 47.4435 131.532 47.4667C131.625 47.4899 131.706 47.5189 131.782 47.5653L131.718 48.1861C131.701 48.2616 131.654 48.3021 131.579 48.3021C131.538 48.3021 131.474 48.2905 131.387 48.2731C131.306 48.2557 131.213 48.2441 131.109 48.2441C130.958 48.2441 130.825 48.2673 130.709 48.308C130.592 48.3544 130.488 48.4182 130.395 48.5053C130.308 48.5865 130.227 48.6966 130.151 48.8185C130.082 48.9461 130.012 49.0854 129.954 49.2478V52.2185H129.125V47.5188H129.6C129.687 47.5188 129.751 47.5363 129.786 47.5653C129.815 47.6001 129.838 47.6581 129.856 47.7452L129.908 48.4588ZM135.46 49.3523C135.46 49.1609 135.437 48.9867 135.379 48.8301C135.327 48.6676 135.246 48.5342 135.141 48.4182C135.043 48.3021 134.915 48.2093 134.764 48.1455C134.619 48.0817 134.451 48.0527 134.259 48.0527C133.865 48.0527 133.552 48.1687 133.319 48.4007C133.087 48.627 132.948 48.9462 132.89 49.3523H135.46ZM136.133 51.5572C136.029 51.6848 135.907 51.7891 135.762 51.882C135.623 51.9748 135.466 52.0503 135.304 52.1083C135.141 52.1663 134.979 52.2069 134.805 52.236C134.631 52.2708 134.457 52.2824 134.288 52.2824C133.963 52.2824 133.662 52.2302 133.389 52.1199C133.116 52.0097 132.879 51.8472 132.675 51.6383C132.478 51.4236 132.327 51.1625 132.211 50.8492C132.101 50.5359 132.049 50.1762 132.049 49.7701C132.049 49.4452 132.095 49.1376 132.194 48.8533C132.298 48.569 132.443 48.3253 132.629 48.1164C132.82 47.9076 133.053 47.7394 133.325 47.6233C133.598 47.5015 133.9 47.4435 134.242 47.4435C134.526 47.4435 134.782 47.4899 135.019 47.5885C135.263 47.6813 135.472 47.8148 135.646 47.9946C135.82 48.1687 135.959 48.3892 136.058 48.6561C136.157 48.9114 136.203 49.213 136.203 49.5437C136.203 49.6772 136.191 49.7643 136.162 49.8049C136.133 49.8455 136.081 49.8687 136.006 49.8687H132.861C132.873 50.1646 132.913 50.4257 132.983 50.6462C133.058 50.8667 133.163 51.0465 133.29 51.1974C133.418 51.3424 133.575 51.4527 133.755 51.5281C133.934 51.5977 134.137 51.6325 134.358 51.6325C134.567 51.6325 134.741 51.6094 134.892 51.563C135.043 51.5165 135.176 51.4643 135.281 51.4063C135.391 51.3483 135.478 51.3019 135.553 51.2554C135.623 51.2032 135.687 51.1799 135.739 51.1799C135.808 51.1799 135.861 51.2032 135.901 51.2554L136.133 51.5572ZM139.957 48.2905C139.922 48.3602 139.864 48.3949 139.789 48.3949C139.742 48.3949 139.69 48.3776 139.632 48.3428C139.568 48.308 139.499 48.2731 139.412 48.2325C139.33 48.186 139.226 48.1513 139.11 48.1164C138.994 48.0758 138.855 48.0585 138.692 48.0585C138.553 48.0585 138.425 48.0758 138.315 48.1164C138.205 48.1513 138.106 48.1977 138.031 48.2615C137.949 48.3195 137.891 48.395 137.845 48.4762C137.804 48.5575 137.787 48.6445 137.787 48.7431C137.787 48.8649 137.822 48.9636 137.891 49.0448C137.961 49.1261 138.054 49.1956 138.17 49.2536C138.28 49.3116 138.414 49.3639 138.559 49.4103C138.704 49.4509 138.849 49.5031 139.005 49.5553C139.156 49.6018 139.307 49.6598 139.452 49.7236C139.597 49.7816 139.731 49.863 139.841 49.9558C139.957 50.0486 140.05 50.1588 140.119 50.298C140.189 50.4315 140.224 50.5882 140.224 50.7796C140.224 50.9943 140.183 51.1974 140.108 51.3831C140.032 51.5629 139.916 51.7253 139.766 51.8587C139.615 51.9922 139.429 52.0966 139.209 52.1779C138.988 52.2533 138.733 52.2939 138.448 52.2939C138.118 52.2939 137.822 52.2418 137.555 52.1374C137.288 52.0271 137.062 51.8877 136.876 51.7195L137.073 51.4063C137.097 51.3657 137.126 51.3366 137.16 51.3134C137.195 51.2902 137.236 51.2785 137.288 51.2785C137.346 51.2785 137.404 51.3018 137.468 51.3482C137.526 51.3888 137.601 51.4352 137.688 51.4875C137.781 51.5397 137.886 51.5919 138.013 51.6325C138.141 51.6789 138.298 51.6964 138.489 51.6964C138.646 51.6964 138.791 51.6789 138.907 51.6383C139.029 51.5977 139.133 51.5397 139.214 51.4642C139.29 51.3946 139.354 51.3134 139.388 51.2206C139.429 51.1278 139.446 51.0291 139.446 50.9247C139.446 50.7912 139.412 50.6868 139.342 50.6055C139.272 50.5185 139.179 50.4432 139.069 50.3851C138.953 50.3213 138.82 50.2691 138.675 50.2285C138.53 50.182 138.379 50.1356 138.222 50.0834C138.071 50.0312 137.92 49.979 137.775 49.9151C137.625 49.8513 137.497 49.7701 137.381 49.6773C137.271 49.5787 137.178 49.4626 137.102 49.3233C137.039 49.1783 137.004 49.0101 137.004 48.807C137.004 48.6271 137.039 48.453 137.114 48.2905C137.189 48.1223 137.294 47.9772 137.439 47.8554C137.578 47.7277 137.758 47.6291 137.961 47.5537C138.17 47.4782 138.408 47.4435 138.675 47.4435C138.982 47.4435 139.261 47.4899 139.504 47.5885C139.754 47.6871 139.963 47.8206 140.143 47.9888L139.957 48.2905ZM19.0945 62.5578C18.9379 62.3547 18.7696 62.2097 18.5898 62.1285C18.4099 62.0472 18.2126 62.0008 17.9863 62.0008C17.5512 62.0008 17.2147 62.1574 16.9826 62.4707C16.7447 62.784 16.6287 63.2308 16.6287 63.811C16.6287 64.1127 16.6577 64.3797 16.7099 64.6002C16.7621 64.8148 16.8375 64.9946 16.9419 65.1339C17.0406 65.2731 17.1682 65.3776 17.3133 65.4414C17.4641 65.5052 17.6324 65.54 17.8239 65.54C18.0965 65.54 18.3286 65.4761 18.5317 65.3543C18.7348 65.2325 18.9205 65.0585 19.0945 64.8322V62.5578ZM19.9184 59.3086V66.1434H19.4252C19.3092 66.1434 19.2338 66.0854 19.2047 65.9694L19.1293 65.4008C18.932 65.6445 18.7 65.8359 18.4447 65.9868C18.1894 66.1318 17.8877 66.2073 17.5512 66.2073C17.2843 66.2073 17.0406 66.1551 16.8201 66.0565C16.5996 65.952 16.414 65.7954 16.2573 65.5981C16.1007 65.395 15.9846 65.1455 15.8976 64.8438C15.8164 64.5421 15.7757 64.1997 15.7757 63.811C15.7757 63.4629 15.8222 63.138 15.915 62.8421C16.0079 62.5404 16.1413 62.2851 16.3153 62.0646C16.4836 61.8441 16.6982 61.6701 16.9477 61.5483C17.203 61.4206 17.4874 61.3568 17.8007 61.3568C18.0908 61.3568 18.3344 61.409 18.5433 61.5076C18.7464 61.6004 18.9321 61.7397 19.0945 61.9079V59.3086H19.9184ZM24.3744 63.2773C24.3744 63.0858 24.3454 62.9117 24.2873 62.755C24.2351 62.5925 24.1539 62.4591 24.0494 62.3431C23.9508 62.227 23.8232 62.1342 23.6782 62.0704C23.5273 62.0066 23.3591 61.9776 23.1676 61.9776C22.773 61.9776 22.4597 62.0936 22.2277 62.3257C21.9956 62.5519 21.8563 62.8711 21.7982 63.2773H24.3744ZM25.0416 65.4821C24.9372 65.6097 24.8154 65.714 24.6761 65.8069C24.5311 65.8997 24.3802 65.9752 24.2119 66.0332C24.0553 66.0913 23.887 66.1319 23.7129 66.1609C23.5389 66.1957 23.3648 66.2073 23.1966 66.2073C22.8716 66.2073 22.57 66.1551 22.2973 66.0449C22.0246 65.9346 21.7866 65.7721 21.5894 65.5632C21.3863 65.3486 21.2355 65.0874 21.1253 64.7741C21.0092 64.4608 20.957 64.1011 20.957 63.695C20.957 63.3701 21.0034 63.0625 21.102 62.7782C21.2065 62.4939 21.3515 62.2502 21.543 62.0414C21.7286 61.8325 21.9607 61.6643 22.2334 61.5483C22.5061 61.4264 22.8078 61.3684 23.1502 61.3684C23.4345 61.3684 23.6897 61.4148 23.9334 61.5134C24.1713 61.6063 24.3802 61.7397 24.5542 61.9195C24.7283 62.0936 24.8676 62.3142 24.9662 62.581C25.0648 62.8363 25.1171 63.1379 25.1171 63.4686C25.1171 63.6021 25.0996 63.6892 25.0706 63.7298C25.0474 63.7705 24.9894 63.7936 24.9139 63.7936H21.7751C21.7809 64.0895 21.8215 64.3506 21.8911 64.5711C21.9665 64.7916 22.071 64.9714 22.1986 65.1223C22.3321 65.2673 22.4829 65.3776 22.6628 65.453C22.8427 65.5227 23.0457 65.5574 23.2662 65.5574C23.475 65.5574 23.6549 65.5343 23.8 65.4879C23.9508 65.4415 24.0842 65.3892 24.1887 65.3312C24.2989 65.2732 24.386 65.2268 24.4614 65.1804C24.5369 65.1281 24.5949 65.1049 24.6529 65.1049C24.7167 65.1049 24.7689 65.1281 24.8095 65.1804L25.0416 65.4821ZM26.9853 59.3086V66.1434H26.1556V59.3086H26.9853ZM33.4372 62.2154C33.4024 62.2851 33.3443 62.3198 33.2631 62.3198C33.2167 62.3198 33.1645 62.3025 33.1065 62.2677C33.0485 62.2329 32.973 62.198 32.8918 62.1574C32.8047 62.111 32.7061 62.0762 32.5901 62.0414C32.4683 62.0007 32.329 61.9834 32.1723 61.9834C32.0331 61.9834 31.9055 62.0007 31.7952 62.0414C31.685 62.0762 31.5864 62.1226 31.5051 62.1864C31.4297 62.2444 31.3658 62.3199 31.3252 62.4012C31.2846 62.4824 31.2672 62.5694 31.2672 62.668C31.2672 62.7899 31.2963 62.8885 31.3659 62.9697C31.4355 63.051 31.5283 63.1205 31.6444 63.1785C31.7604 63.2366 31.888 63.2888 32.0331 63.3352C32.1781 63.3758 32.329 63.428 32.4798 63.4803C32.6365 63.5267 32.7874 63.5847 32.9324 63.6485C33.0775 63.7066 33.2051 63.7879 33.3212 63.8807C33.4372 63.9735 33.5242 64.0837 33.5938 64.2229C33.6635 64.3564 33.7041 64.5131 33.7041 64.7045C33.7041 64.9192 33.6635 65.1223 33.588 65.308C33.5068 65.4878 33.3908 65.6502 33.2399 65.7836C33.0891 65.9171 32.9034 66.0216 32.6829 66.1028C32.4624 66.1782 32.213 66.2188 31.9229 66.2188C31.5979 66.2188 31.2962 66.1667 31.0351 66.0623C30.7682 65.952 30.5419 65.8127 30.3563 65.6444L30.5478 65.3312C30.5768 65.2906 30.6058 65.2615 30.6406 65.2383C30.6696 65.2151 30.716 65.2034 30.7683 65.2034C30.8263 65.2034 30.8843 65.2267 30.9423 65.2731C31.0061 65.3138 31.0815 65.3602 31.1686 65.4124C31.2556 65.4646 31.3659 65.5168 31.4935 65.5574C31.6212 65.6038 31.7778 65.6213 31.9634 65.6213C32.1259 65.6213 32.2651 65.6039 32.387 65.5632C32.5088 65.5226 32.6075 65.4646 32.6887 65.3891C32.7699 65.3195 32.828 65.2383 32.8686 65.1455C32.9034 65.0527 32.9266 64.954 32.9266 64.8496C32.9266 64.7162 32.8918 64.6117 32.8221 64.5305C32.7525 64.4434 32.6597 64.3681 32.5436 64.31C32.4334 64.2462 32.3 64.194 32.1491 64.1534C32.0041 64.107 31.8532 64.0605 31.7024 64.0083C31.5515 63.9561 31.4007 63.9039 31.2498 63.84C31.1047 63.7762 30.9771 63.695 30.861 63.6022C30.745 63.5036 30.6522 63.3875 30.5825 63.2482C30.5129 63.1032 30.4782 62.935 30.4782 62.7319C30.4782 62.552 30.5187 62.3779 30.5942 62.2154C30.6638 62.0472 30.7741 61.9021 30.9191 61.7803C31.0584 61.6526 31.2324 61.554 31.4412 61.4786C31.6501 61.4031 31.8823 61.3684 32.1491 61.3684C32.4625 61.3684 32.7351 61.4148 32.9846 61.5134C33.2283 61.6121 33.443 61.7455 33.6228 61.9137L33.4372 62.2154ZM37.2607 64.0258C36.8836 64.0374 36.5587 64.0721 36.286 64.1185C36.0191 64.165 35.8044 64.2288 35.6362 64.3042C35.4679 64.3855 35.3461 64.4725 35.2648 64.5769C35.1952 64.6872 35.1546 64.8031 35.1546 64.9308C35.1546 65.0584 35.1778 65.1629 35.2184 65.2499C35.2532 65.3427 35.3112 65.4182 35.3809 65.4763C35.4505 65.5285 35.5317 65.5749 35.6246 65.5981C35.7174 65.6271 35.8219 65.6386 35.9321 65.6386C36.0771 65.6386 36.2106 65.6213 36.3324 65.5981C36.4484 65.5633 36.5645 65.5227 36.6689 65.4647C36.7791 65.4124 36.8778 65.3428 36.9764 65.2673C37.0751 65.1861 37.1679 65.0991 37.2607 65.0005V64.0258ZM34.5918 62.1052C34.8529 61.8558 35.1313 61.6701 35.4331 61.5425C35.7348 61.4206 36.0655 61.3568 36.4311 61.3568C36.6922 61.3568 36.93 61.4032 37.1331 61.4902C37.3362 61.5772 37.5102 61.6933 37.6495 61.85C37.7887 62.0066 37.8932 62.1923 37.9628 62.4128C38.0324 62.6332 38.073 62.8711 38.073 63.138V66.1434H37.7017C37.6204 66.1434 37.5625 66.1318 37.516 66.1086C37.4754 66.0796 37.4406 66.0274 37.4174 65.9461L37.3245 65.5052C37.1969 65.6154 37.0808 65.7199 36.959 65.8069C36.843 65.8939 36.7212 65.9694 36.5877 66.0332C36.4601 66.0913 36.3208 66.1377 36.1699 66.1667C36.0249 66.2015 35.8624 66.2188 35.6826 66.2188C35.5027 66.2188 35.3286 66.1957 35.172 66.1434C35.0095 66.0912 34.8703 66.0159 34.7485 65.9114C34.6266 65.807 34.5338 65.6792 34.4642 65.5284C34.3945 65.3659 34.3597 65.1803 34.3597 64.9714C34.3597 64.7858 34.4119 64.6059 34.5164 64.4377C34.615 64.2636 34.7832 64.1069 35.0095 63.9735C35.2416 63.84 35.5375 63.7356 35.9089 63.6485C36.2744 63.5615 36.7269 63.5151 37.2607 63.5035V63.138C37.2607 62.7725 37.1853 62.4939 37.0286 62.3082C36.8662 62.1226 36.6399 62.0239 36.3324 62.0239C36.1293 62.0239 35.9611 62.053 35.8218 62.1052C35.6826 62.1575 35.5665 62.2097 35.4621 62.2793C35.3635 62.3374 35.2765 62.3953 35.201 62.4475C35.1314 62.4997 35.0618 62.523 34.9864 62.523C34.9341 62.523 34.8819 62.5113 34.8471 62.4823C34.8065 62.4475 34.7717 62.4127 34.7426 62.3721L34.5918 62.1052ZM39.3263 66.1434V61.4437H39.8252C39.9413 61.4437 40.0167 61.496 40.0457 61.612L40.1037 62.0936C40.2778 61.8848 40.4693 61.7049 40.6897 61.5715C40.9044 61.4381 41.1539 61.3684 41.4382 61.3684C41.7573 61.3684 42.0126 61.4554 42.2041 61.6294C42.4071 61.8093 42.5464 62.0472 42.6334 62.3489C42.703 62.1748 42.7901 62.0298 42.8945 61.9079C42.999 61.7803 43.1208 61.6816 43.2543 61.6004C43.3877 61.5192 43.527 61.4613 43.6778 61.4206C43.8287 61.3858 43.9853 61.3684 44.1361 61.3684C44.3856 61.3684 44.6061 61.409 44.7976 61.4902C44.989 61.5656 45.1574 61.6817 45.2908 61.8326C45.4242 61.9834 45.5286 62.1691 45.5983 62.3953C45.6679 62.61 45.7085 62.8653 45.7085 63.1496V66.1434H44.873V63.1496C44.873 62.7841 44.7976 62.5055 44.6352 62.314C44.4727 62.1226 44.2406 62.0239 43.9389 62.0239C43.7996 62.0239 43.672 62.053 43.5502 62.0994C43.4283 62.1458 43.3181 62.2154 43.2252 62.3082C43.1324 62.4011 43.0628 62.5172 43.0048 62.6622C42.9525 62.8015 42.9235 62.964 42.9235 63.1496V66.1434H42.0939V63.1496C42.0939 62.7725 42.0184 62.4881 41.8676 62.3024C41.7167 62.1168 41.4962 62.0239 41.2061 62.0239C40.9973 62.0239 40.8116 62.082 40.6375 62.1922C40.4635 62.3025 40.3068 62.4475 40.1617 62.639V66.1434H39.3263ZM49.6423 66.1434V62.1459L49.1259 62.0878C49.0563 62.0704 49.0041 62.0471 48.9635 62.0181C48.9229 61.9833 48.8997 61.9369 48.8997 61.8731V61.5367H49.6423V61.0783C49.6423 60.8114 49.6829 60.5735 49.7525 60.3646C49.8338 60.1558 49.9382 59.9758 50.0775 59.8365C50.2225 59.6915 50.3907 59.5814 50.588 59.5059C50.7911 59.4305 51.0116 59.3957 51.2611 59.3957C51.4699 59.3957 51.6614 59.4247 51.8413 59.4885L51.8181 59.9004C51.8123 59.9759 51.7716 60.0165 51.6962 60.0223C51.6208 60.0281 51.5221 60.0281 51.3945 60.0281C51.2494 60.0281 51.1218 60.0513 51.0058 60.0861C50.8898 60.121 50.7911 60.1848 50.7041 60.266C50.6229 60.3531 50.5591 60.4632 50.5126 60.5967C50.4662 60.7301 50.4488 60.9042 50.4488 61.1015V61.5367H51.8007V62.1343H50.472V66.1434H49.6423ZM55.1136 64.0258C54.7307 64.0374 54.4058 64.0721 54.1389 64.1185C53.872 64.165 53.6515 64.2288 53.4833 64.3042C53.315 64.3855 53.1932 64.4725 53.1178 64.5769C53.0423 64.6872 53.0075 64.8031 53.0075 64.9308C53.0075 65.0584 53.0249 65.1629 53.0655 65.2499C53.1061 65.3427 53.1583 65.4182 53.228 65.4763C53.2976 65.5285 53.3788 65.5749 53.4717 65.5981C53.5703 65.6271 53.6747 65.6386 53.7791 65.6386C53.9242 65.6386 54.0577 65.6213 54.1795 65.5981C54.3013 65.5633 54.4116 65.5227 54.516 65.4647C54.6262 65.4124 54.7307 65.3428 54.8235 65.2673C54.9222 65.1861 55.0208 65.0991 55.1136 65.0005V64.0258ZM52.4447 62.1052C52.7058 61.8558 52.9843 61.6701 53.286 61.5425C53.5819 61.4206 53.9184 61.3568 54.284 61.3568C54.5451 61.3568 54.7771 61.4032 54.9802 61.4902C55.1891 61.5772 55.3573 61.6933 55.4966 61.85C55.6358 62.0066 55.7402 62.1923 55.8157 62.4128C55.8853 62.6332 55.9201 62.8711 55.9201 63.138V66.1434H55.5546C55.4734 66.1434 55.4096 66.1318 55.369 66.1086C55.3225 66.0796 55.2935 66.0274 55.2645 65.9461L55.1716 65.5052C55.0498 65.6154 54.9279 65.7199 54.8119 65.8069C54.6959 65.8939 54.5682 65.9694 54.4406 66.0332C54.3071 66.0913 54.1679 66.1377 54.0228 66.1667C53.8778 66.2015 53.7153 66.2188 53.5355 66.2188C53.3498 66.2188 53.1816 66.1957 53.0191 66.1434C52.8566 66.0912 52.7174 66.0159 52.5956 65.9114C52.4795 65.807 52.3867 65.6792 52.3113 65.5284C52.2474 65.3659 52.2126 65.1803 52.2126 64.9714C52.2126 64.7858 52.2648 64.6059 52.3635 64.4377C52.4679 64.2636 52.6303 64.1069 52.8624 63.9735C53.0887 63.84 53.3904 63.7356 53.756 63.6485C54.1273 63.5615 54.5798 63.5151 55.1136 63.5035V63.138C55.1136 62.7725 55.0324 62.4939 54.8757 62.3082C54.7191 62.1226 54.487 62.0239 54.1853 62.0239C53.9822 62.0239 53.8082 62.053 53.6689 62.1052C53.5355 62.1575 53.4136 62.2097 53.3092 62.2793C53.2106 62.3374 53.1235 62.3953 53.0539 62.4475C52.9784 62.4997 52.9088 62.523 52.8392 62.523C52.7812 62.523 52.7348 62.5113 52.6941 62.4823C52.6535 62.4475 52.6188 62.4127 52.5897 62.3721L52.4447 62.1052ZM57.1792 66.1434V61.4437H57.6782C57.7942 61.4437 57.8638 61.496 57.8928 61.612L57.9566 62.0936C58.1249 61.8848 58.3222 61.7049 58.5368 61.5715C58.7573 61.4381 59.0068 61.3684 59.2911 61.3684C59.6044 61.3684 59.8597 61.4554 60.057 61.6294C60.2543 61.8093 60.3993 62.0472 60.4863 62.3489C60.5502 62.1748 60.6371 62.0298 60.7416 61.9079C60.8518 61.7803 60.9737 61.6816 61.1071 61.6004C61.2406 61.5192 61.3799 61.4613 61.5307 61.4206C61.6816 61.3858 61.8324 61.3684 61.989 61.3684C62.2327 61.3684 62.4532 61.409 62.6447 61.4902C62.8419 61.5656 63.0044 61.6817 63.1378 61.8326C63.2771 61.9834 63.3815 62.1691 63.4512 62.3953C63.5208 62.61 63.5556 62.8653 63.5556 63.1496V66.1434H62.7259V63.1496C62.7259 62.7841 62.6447 62.5055 62.4822 62.314C62.3255 62.1226 62.0935 62.0239 61.786 62.0239C61.6525 62.0239 61.5249 62.053 61.3972 62.0994C61.2754 62.1458 61.171 62.2154 61.0781 62.3082C60.9853 62.4011 60.9099 62.5172 60.8577 62.6622C60.8054 62.8015 60.7764 62.964 60.7764 63.1496V66.1434H59.9467V63.1496C59.9467 62.7725 59.8713 62.4881 59.7205 62.3024C59.5638 62.1168 59.3433 62.0239 59.0532 62.0239C58.8502 62.0239 58.6587 62.082 58.4905 62.1922C58.3164 62.3025 58.1539 62.4475 58.0088 62.639V66.1434H57.1792ZM65.6849 61.4437V66.1434H64.8611V61.4437H65.6849ZM65.859 59.9643C65.859 60.0455 65.8417 60.1209 65.8126 60.1905C65.7778 60.2602 65.7372 60.324 65.6791 60.3762C65.6269 60.4285 65.5631 60.4749 65.4877 60.5039C65.4181 60.5329 65.3426 60.5503 65.2614 60.5503C65.1802 60.5503 65.1047 60.5329 65.0351 60.5039C64.9655 60.4749 64.9075 60.4285 64.8553 60.3762C64.8031 60.324 64.7625 60.2602 64.7277 60.1905C64.6986 60.1209 64.6812 60.0455 64.6812 59.9643C64.6812 59.8831 64.6986 59.8076 64.7277 59.738C64.7625 59.6625 64.8031 59.5987 64.8553 59.5464C64.9075 59.4942 64.9655 59.4478 65.0351 59.4188C65.1047 59.384 65.1802 59.3725 65.2614 59.3725C65.3426 59.3725 65.4181 59.384 65.4877 59.4188C65.5631 59.4478 65.6269 59.4942 65.6791 59.5464C65.7372 59.5987 65.7778 59.6625 65.8126 59.738C65.8417 59.8076 65.859 59.8831 65.859 59.9643ZM67.8956 59.3086V66.1434H67.0716V59.3086H67.8956ZM70.1119 61.4437V66.1434H69.2823V61.4437H70.1119ZM70.286 59.9643C70.286 60.0455 70.2686 60.1209 70.2338 60.1905C70.2048 60.2602 70.1583 60.324 70.1061 60.3762C70.0539 60.4285 69.9901 60.4749 69.9147 60.5039C69.845 60.5329 69.7696 60.5503 69.6884 60.5503C69.6071 60.5503 69.5317 60.5329 69.4621 60.5039C69.3925 60.4749 69.3287 60.4285 69.2764 60.3762C69.2242 60.324 69.1836 60.2602 69.1546 60.1905C69.1197 60.1209 69.1082 60.0455 69.1082 59.9643C69.1082 59.8831 69.1197 59.8076 69.1546 59.738C69.1836 59.6625 69.2242 59.5987 69.2764 59.5464C69.3287 59.4942 69.3925 59.4478 69.4621 59.4188C69.5317 59.384 69.6071 59.3725 69.6884 59.3725C69.7696 59.3725 69.845 59.384 69.9147 59.4188C69.9901 59.4478 70.0539 59.4942 70.1061 59.5464C70.1583 59.5987 70.2048 59.6625 70.2338 59.738C70.2686 59.8076 70.286 59.8831 70.286 59.9643ZM74.6143 63.2773C74.6143 63.0858 74.5853 62.9117 74.5273 62.755C74.475 62.5925 74.3997 62.4591 74.2952 62.3431C74.1908 62.227 74.0631 62.1342 73.9181 62.0704C73.7672 62.0066 73.599 61.9776 73.4133 61.9776C73.013 61.9776 72.6997 62.0936 72.4676 62.3257C72.2413 62.5519 72.0963 62.8711 72.044 63.2773H74.6143ZM75.2816 65.4821C75.1771 65.6097 75.0553 65.714 74.916 65.8069C74.771 65.8997 74.6201 65.9752 74.4576 66.0332C74.2952 66.0913 74.1269 66.1319 73.9529 66.1609C73.7788 66.1957 73.6105 66.2073 73.4365 66.2073C73.1116 66.2073 72.8157 66.1551 72.5372 66.0449C72.2645 65.9346 72.0324 65.7721 71.8294 65.5632C71.6321 65.3486 71.4754 65.0874 71.3652 64.7741C71.2549 64.4608 71.1969 64.1011 71.1969 63.695C71.1969 63.3701 71.2491 63.0625 71.3477 62.7782C71.4464 62.4939 71.5914 62.2502 71.7829 62.0414C71.9686 61.8325 72.2007 61.6643 72.4734 61.5483C72.7461 61.4264 73.0536 61.3684 73.3901 61.3684C73.6744 61.3684 73.9355 61.4148 74.1733 61.5134C74.4112 61.6063 74.6201 61.7397 74.7942 61.9195C74.9683 62.0936 75.1075 62.3142 75.2061 62.581C75.3048 62.8363 75.357 63.1379 75.357 63.4686C75.357 63.6021 75.3396 63.6892 75.3164 63.7298C75.2874 63.7705 75.2352 63.7936 75.1539 63.7936H72.015C72.0208 64.0895 72.0614 64.3506 72.1368 64.5711C72.2064 64.7916 72.3109 64.9714 72.4385 65.1223C72.572 65.2673 72.7287 65.3776 72.9027 65.453C73.0826 65.5227 73.2856 65.5574 73.5061 65.5574C73.715 65.5574 73.8949 65.5343 74.0399 65.4879C74.1966 65.4415 74.3242 65.3892 74.4345 65.3312C74.5389 65.2732 74.6317 65.2268 74.7013 65.1804C74.7768 65.1281 74.8406 65.1049 74.8928 65.1049C74.9624 65.1049 75.0146 65.1281 75.0495 65.1804L75.2816 65.4821ZM76.2331 65.6329C76.2331 65.5517 76.2447 65.4762 76.2737 65.4066C76.3027 65.3369 76.3434 65.2731 76.3956 65.2209C76.4478 65.1686 76.5116 65.1281 76.5812 65.0932C76.6508 65.0642 76.7263 65.0469 76.8075 65.0469C76.8887 65.0469 76.9642 65.0642 77.0338 65.0932C77.1034 65.1281 77.1672 65.1686 77.2194 65.2209C77.2716 65.2731 77.3123 65.3369 77.3471 65.4066C77.3761 65.4762 77.3935 65.5517 77.3935 65.6329C77.3935 65.7142 77.3761 65.7953 77.3471 65.865C77.3123 65.9346 77.2716 65.9926 77.2194 66.0449C77.1672 66.0971 77.1034 66.1377 77.0338 66.1667C76.9642 66.1957 76.8887 66.2131 76.8075 66.2131C76.7263 66.2131 76.6508 66.1957 76.5812 66.1667C76.5116 66.1377 76.4478 66.0971 76.3956 66.0449C76.3434 65.9926 76.3027 65.9346 76.2737 65.865C76.2447 65.7953 76.2331 65.7142 76.2331 65.6329ZM84.9071 65.3891V66.1434H81.1358V59.4943H82.0293V65.3891H84.9071ZM87.3557 61.3684C87.698 61.3684 88.0055 61.4264 88.284 61.5367C88.5567 61.6527 88.7945 61.8151 88.9918 62.0239C89.1833 62.2386 89.3341 62.4939 89.4328 62.7898C89.5372 63.0915 89.5952 63.4222 89.5952 63.7878C89.5952 64.1591 89.5372 64.4956 89.4328 64.7915C89.3341 65.0874 89.1833 65.3427 88.9918 65.5516C88.7945 65.7663 88.5567 65.9288 88.284 66.039C88.0055 66.1551 87.698 66.2073 87.3557 66.2073C87.0075 66.2073 86.6941 66.1551 86.4156 66.039C86.143 65.9288 85.9051 65.7663 85.7136 65.5516C85.5164 65.3427 85.3655 65.0874 85.261 64.7915C85.1624 64.4956 85.1102 64.1591 85.1102 63.7878C85.1102 63.4222 85.1624 63.0915 85.261 62.7898C85.3655 62.4939 85.5164 62.2386 85.7136 62.0239C85.9051 61.8151 86.143 61.6527 86.4156 61.5367C86.6941 61.4264 87.0075 61.3684 87.3557 61.3684ZM87.3557 65.5632C87.8198 65.5632 88.1679 65.4066 88.3942 65.099C88.6262 64.7857 88.7365 64.3506 88.7365 63.7936C88.7365 63.2366 88.6262 62.7956 88.3942 62.4881C88.1679 62.1748 87.8198 62.0181 87.3557 62.0181C87.1178 62.0181 86.9147 62.0589 86.7406 62.1401C86.5665 62.2155 86.4215 62.3315 86.2996 62.4881C86.1894 62.639 86.1024 62.8246 86.0444 63.0451C85.9864 63.2656 85.9573 63.5151 85.9573 63.7936C85.9573 64.3506 86.0734 64.7857 86.2996 65.099C86.5317 65.4066 86.8857 65.5632 87.3557 65.5632ZM91.4228 62.3837C91.5737 62.0646 91.7536 61.8093 91.9741 61.6294C92.1887 61.4496 92.4556 61.3568 92.7689 61.3568C92.8676 61.3568 92.9604 61.3684 93.0474 61.3916C93.1403 61.4148 93.2273 61.4438 93.2969 61.4902L93.2331 62.111C93.2156 62.1865 93.1692 62.2271 93.0938 62.2271C93.0532 62.2271 92.9894 62.2154 92.9082 62.198C92.8211 62.1806 92.7283 62.169 92.6239 62.169C92.473 62.169 92.3395 62.1923 92.2235 62.2329C92.1075 62.2793 92.0031 62.3432 91.9102 62.4302C91.8232 62.5114 91.742 62.6215 91.6665 62.7434C91.5969 62.871 91.5331 63.0103 91.4693 63.1727V66.1434H90.6396V61.4437H91.1154C91.2024 61.4437 91.2662 61.4612 91.301 61.4902C91.3358 61.525 91.359 61.5831 91.3706 61.6701L91.4228 62.3837ZM98.9365 62.2154C98.9017 62.2851 98.8437 62.3198 98.7624 62.3198C98.716 62.3198 98.6638 62.3025 98.6058 62.2677C98.5477 62.2329 98.4781 62.198 98.3911 62.1574C98.3041 62.111 98.2055 62.0762 98.0894 62.0414C97.9676 62.0007 97.8283 61.9834 97.6716 61.9834C97.5324 61.9834 97.4047 62.0007 97.2945 62.0414C97.1843 62.0762 97.0856 62.1226 97.0044 62.1864C96.929 62.2444 96.8652 62.3199 96.8246 62.4012C96.7839 62.4824 96.7666 62.5694 96.7666 62.668C96.7666 62.7899 96.7955 62.8885 96.8651 62.9697C96.9348 63.051 97.0277 63.1205 97.1437 63.1785C97.2597 63.2366 97.3873 63.2888 97.5324 63.3352C97.6774 63.3758 97.8283 63.428 97.9792 63.4803C98.1358 63.5267 98.2867 63.5847 98.4317 63.6485C98.5768 63.7066 98.7044 63.7879 98.8204 63.8807C98.9365 63.9735 99.0236 64.0837 99.0932 64.2229C99.1628 64.3564 99.2034 64.5131 99.2034 64.7045C99.2034 64.9192 99.1628 65.1223 99.0874 65.308C99.0061 65.4878 98.8959 65.6502 98.7393 65.7836C98.5884 65.9171 98.4027 66.0216 98.1822 66.1028C97.9675 66.1782 97.7123 66.2188 97.4222 66.2188C97.0973 66.2188 96.7955 66.1667 96.5345 66.0623C96.2676 65.952 96.0413 65.8127 95.8556 65.6444L96.0471 65.3312C96.0761 65.2906 96.1051 65.2615 96.1399 65.2383C96.1689 65.2151 96.2154 65.2034 96.2676 65.2034C96.3256 65.2034 96.3836 65.2267 96.4416 65.2731C96.5054 65.3138 96.5809 65.3602 96.6679 65.4124C96.7549 65.4646 96.8652 65.5168 96.9928 65.5574C97.1205 65.6038 97.2771 65.6213 97.4628 65.6213C97.6252 65.6213 97.7645 65.6039 97.8863 65.5632C98.0081 65.5226 98.1068 65.4646 98.188 65.3891C98.2693 65.3195 98.3273 65.2383 98.3679 65.1455C98.4085 65.0527 98.4259 64.954 98.4259 64.8496C98.4259 64.7162 98.3911 64.6117 98.3215 64.5305C98.2518 64.4434 98.159 64.3681 98.043 64.31C97.9327 64.2462 97.7993 64.194 97.6485 64.1534C97.5034 64.107 97.3526 64.0605 97.2017 64.0083C97.0509 63.9561 96.9 63.9039 96.7491 63.84C96.6041 63.7762 96.4764 63.695 96.3604 63.6022C96.2443 63.5036 96.1515 63.3875 96.0819 63.2482C96.0123 63.1032 95.9775 62.935 95.9775 62.7319C95.9775 62.552 96.0181 62.3779 96.0935 62.2154C96.1631 62.0472 96.2734 61.9021 96.4184 61.7803C96.5577 61.6526 96.7317 61.554 96.9406 61.4786C97.1494 61.4031 97.3874 61.3684 97.6485 61.3684C97.9618 61.3684 98.2344 61.4148 98.4839 61.5134C98.7276 61.6121 98.9423 61.7455 99.1222 61.9137L98.9365 62.2154ZM103.363 63.2773C103.363 63.0858 103.334 62.9117 103.276 62.755C103.224 62.5925 103.149 62.4591 103.039 62.3431C102.94 62.227 102.812 62.1342 102.667 62.0704C102.516 62.0066 102.348 61.9776 102.157 61.9776C101.762 61.9776 101.449 62.0936 101.217 62.3257C100.99 62.5519 100.845 62.8711 100.787 63.2773H103.363ZM104.031 65.4821C103.926 65.6097 103.804 65.714 103.665 65.8069C103.52 65.8997 103.369 65.9752 103.201 66.0332C103.044 66.0913 102.876 66.1319 102.702 66.1609C102.528 66.1957 102.36 66.2073 102.186 66.2073C101.861 66.2073 101.559 66.1551 101.286 66.0449C101.014 65.9346 100.776 65.7721 100.578 65.5632C100.375 65.3486 100.225 65.0874 100.114 64.7741C99.9983 64.4608 99.9461 64.1011 99.9461 63.695C99.9461 63.3701 99.9925 63.0625 100.091 62.7782C100.196 62.4939 100.341 62.2502 100.532 62.0414C100.718 61.8325 100.95 61.6643 101.222 61.5483C101.495 61.4264 101.803 61.3684 102.139 61.3684C102.424 61.3684 102.685 61.4148 102.923 61.5134C103.16 61.6063 103.369 61.7397 103.543 61.9195C103.717 62.0936 103.857 62.3142 103.955 62.581C104.054 62.8363 104.106 63.1379 104.106 63.4686C104.106 63.6021 104.089 63.6892 104.06 63.7298C104.036 63.7705 103.984 63.7936 103.903 63.7936H100.764C100.77 64.0895 100.811 64.3506 100.88 64.5711C100.956 64.7916 101.06 64.9714 101.188 65.1223C101.321 65.2673 101.472 65.3776 101.652 65.453C101.832 65.5227 102.035 65.5574 102.255 65.5574C102.464 65.5574 102.644 65.5343 102.789 65.4879C102.94 65.4415 103.073 65.3892 103.178 65.3312C103.288 65.2732 103.381 65.2268 103.451 65.1804C103.526 65.1281 103.59 65.1049 103.642 65.1049C103.706 65.1049 103.758 65.1281 103.799 65.1804L104.031 65.4821ZM105.951 65.0121C106.102 65.2151 106.264 65.3602 106.444 65.4414C106.624 65.5285 106.827 65.569 107.048 65.569C107.489 65.569 107.825 65.4124 108.063 65.099C108.295 64.7857 108.411 64.339 108.411 63.7645C108.411 63.457 108.388 63.1902 108.33 62.9755C108.278 62.7551 108.202 62.5752 108.098 62.436C107.994 62.2909 107.872 62.1865 107.721 62.1227C107.576 62.0588 107.408 62.0239 107.216 62.0239C106.949 62.0239 106.711 62.0878 106.508 62.2096C106.305 62.3373 106.119 62.5113 105.951 62.7376V65.0121ZM105.905 62.169C106.108 61.9253 106.334 61.728 106.595 61.583C106.856 61.4321 107.152 61.3568 107.483 61.3568C107.756 61.3568 108.005 61.409 108.226 61.5134C108.446 61.6179 108.632 61.7687 108.783 61.9776C108.939 62.1749 109.061 62.4244 109.142 62.7261C109.224 63.0278 109.27 63.37 109.27 63.7645C109.27 64.1069 109.224 64.4319 109.131 64.7336C109.038 65.0295 108.899 65.2905 108.725 65.5052C108.551 65.7256 108.336 65.894 108.086 66.0216C107.831 66.1493 107.553 66.2073 107.233 66.2073C106.949 66.2073 106.7 66.1609 106.491 66.0623C106.288 65.9636 106.108 65.8301 105.951 65.656V67.7332H105.116V61.4437H105.615C105.731 61.4437 105.806 61.496 105.835 61.612L105.905 62.169ZM112.873 64.0258C112.49 64.0374 112.165 64.0721 111.898 64.1185C111.631 64.165 111.411 64.2288 111.243 64.3042C111.074 64.3855 110.953 64.4725 110.877 64.5769C110.802 64.6872 110.761 64.8031 110.761 64.9308C110.761 65.0584 110.784 65.1629 110.825 65.2499C110.866 65.3427 110.918 65.4182 110.987 65.4763C111.057 65.5285 111.138 65.5749 111.231 65.5981C111.33 65.6271 111.428 65.6386 111.539 65.6386C111.684 65.6386 111.817 65.6213 111.939 65.5981C112.061 65.5633 112.171 65.5227 112.275 65.4647C112.386 65.4124 112.484 65.3428 112.583 65.2673C112.682 65.1861 112.78 65.0991 112.873 65.0005V64.0258ZM110.204 62.1052C110.459 61.8558 110.744 61.6701 111.04 61.5425C111.341 61.4206 111.672 61.3568 112.038 61.3568C112.304 61.3568 112.537 61.4032 112.74 61.4902C112.943 61.5772 113.117 61.6933 113.256 61.85C113.395 62.0066 113.5 62.1923 113.569 62.4128C113.645 62.6332 113.68 62.8711 113.68 63.138V66.1434H113.314C113.233 66.1434 113.169 66.1318 113.128 66.1086C113.082 66.0796 113.047 66.0274 113.024 65.9461L112.931 65.5052C112.809 65.6154 112.687 65.7199 112.571 65.8069C112.449 65.8939 112.328 65.9694 112.2 66.0332C112.067 66.0913 111.927 66.1377 111.782 66.1667C111.631 66.2015 111.469 66.2188 111.295 66.2188C111.109 66.2188 110.935 66.1957 110.779 66.1434C110.616 66.0912 110.477 66.0159 110.355 65.9114C110.239 65.807 110.14 65.6792 110.071 65.5284C110.001 65.3659 109.972 65.1803 109.972 64.9714C109.972 64.7858 110.018 64.6059 110.123 64.4377C110.227 64.2636 110.39 64.1069 110.622 63.9735C110.848 63.84 111.144 63.7356 111.515 63.6485C111.881 63.5615 112.333 63.5151 112.873 63.5035V63.138C112.873 62.7725 112.792 62.4939 112.635 62.3082C112.478 62.1226 112.246 62.0239 111.945 62.0239C111.736 62.0239 111.568 62.053 111.428 62.1052C111.289 62.1575 111.173 62.2097 111.069 62.2793C110.97 62.3374 110.883 62.3953 110.807 62.4475C110.738 62.4997 110.668 62.523 110.599 62.523C110.541 62.523 110.494 62.5113 110.454 62.4823C110.413 62.4475 110.378 62.4127 110.349 62.3721L110.204 62.1052ZM115.722 62.3837C115.867 62.0646 116.053 61.8093 116.267 61.6294C116.488 61.4496 116.749 61.3568 117.062 61.3568C117.161 61.3568 117.254 61.3684 117.346 61.3916C117.439 61.4148 117.52 61.4438 117.59 61.4902L117.532 62.111C117.515 62.1865 117.468 62.2271 117.393 62.2271C117.346 62.2271 117.283 62.2154 117.201 62.198C117.12 62.1806 117.021 62.169 116.917 62.169C116.772 62.169 116.639 62.1923 116.517 62.2329C116.406 62.2793 116.302 62.3432 116.209 62.4302C116.116 62.5114 116.035 62.6215 115.96 62.7434C115.89 62.871 115.826 63.0103 115.768 63.1727V66.1434H114.939V61.4437H115.409C115.501 61.4437 115.559 61.4612 115.594 61.4902C115.629 61.525 115.652 61.5831 115.664 61.6701L115.722 62.3837ZM120.793 64.0258C120.416 64.0374 120.091 64.0721 119.818 64.1185C119.551 64.165 119.337 64.2288 119.162 64.3042C119 64.3855 118.878 64.4725 118.797 64.5769C118.721 64.6872 118.687 64.8031 118.687 64.9308C118.687 65.0584 118.704 65.1629 118.745 65.2499C118.785 65.3427 118.843 65.4182 118.907 65.4763C118.983 65.5285 119.064 65.5749 119.157 65.5981C119.249 65.6271 119.354 65.6386 119.464 65.6386C119.609 65.6386 119.743 65.6213 119.859 65.5981C119.981 65.5633 120.097 65.5227 120.201 65.4647C120.305 65.4124 120.41 65.3428 120.508 65.2673C120.607 65.1861 120.7 65.0991 120.793 65.0005V64.0258ZM118.124 62.1052C118.385 61.8558 118.663 61.6701 118.965 61.5425C119.267 61.4206 119.598 61.3568 119.963 61.3568C120.224 61.3568 120.462 61.4032 120.665 61.4902C120.868 61.5772 121.042 61.6933 121.182 61.85C121.321 62.0066 121.425 62.1923 121.495 62.4128C121.564 62.6332 121.599 62.8711 121.599 63.138V66.1434H121.234C121.153 66.1434 121.095 66.1318 121.048 66.1086C121.007 66.0796 120.973 66.0274 120.949 65.9461L120.857 65.5052C120.729 65.6154 120.607 65.7199 120.491 65.8069C120.375 65.8939 120.253 65.9694 120.12 66.0332C119.992 66.0913 119.853 66.1377 119.702 66.1667C119.557 66.2015 119.395 66.2188 119.215 66.2188C119.035 66.2188 118.861 66.1957 118.698 66.1434C118.542 66.0912 118.397 66.0159 118.281 65.9114C118.159 65.807 118.066 65.6792 117.996 65.5284C117.927 65.3659 117.892 65.1803 117.892 64.9714C117.892 64.7858 117.944 64.6059 118.048 64.4377C118.147 64.2636 118.315 64.1069 118.542 63.9735C118.774 63.84 119.07 63.7356 119.441 63.6485C119.806 63.5615 120.259 63.5151 120.793 63.5035V63.138C120.793 62.7725 120.717 62.4939 120.555 62.3082C120.398 62.1226 120.166 62.0239 119.864 62.0239C119.661 62.0239 119.487 62.053 119.348 62.1052C119.215 62.1575 119.093 62.2097 118.994 62.2793C118.896 62.3374 118.809 62.3953 118.733 62.4475C118.663 62.4997 118.588 62.523 118.518 62.523C118.466 62.523 118.414 62.5113 118.373 62.4823C118.333 62.4475 118.304 62.4127 118.275 62.3721L118.124 62.1052ZM124.239 66.2188C123.868 66.2188 123.584 66.1145 123.381 65.9056C123.183 65.6967 123.085 65.4008 123.085 65.0121V62.1343H122.516C122.47 62.1343 122.429 62.1168 122.394 62.0936C122.359 62.0588 122.342 62.0124 122.342 61.9544V61.6236L123.114 61.525L123.305 60.0745C123.311 60.0281 123.334 59.9875 123.363 59.9585C123.398 59.9295 123.439 59.912 123.491 59.912H123.909V61.5367H125.272V62.1343H123.909V64.954C123.909 65.1513 123.961 65.3021 124.054 65.395C124.152 65.4936 124.274 65.54 124.425 65.54C124.512 65.54 124.587 65.5284 124.651 65.5052C124.715 65.482 124.767 65.4588 124.814 65.4298C124.86 65.4008 124.901 65.3775 124.93 65.3543C124.964 65.3311 124.993 65.3196 125.022 65.3196C125.063 65.3196 125.104 65.3427 125.139 65.395L125.376 65.7895C125.237 65.9229 125.063 66.0274 124.86 66.1086C124.663 66.1782 124.454 66.2188 124.239 66.2188ZM19.1758 77.2022C19.1758 77.0107 19.1468 76.8366 19.0945 76.6799C19.0423 76.5175 18.9611 76.384 18.8566 76.268C18.7522 76.152 18.6303 76.0591 18.4795 75.9953C18.3344 75.9315 18.1662 75.9025 17.9747 75.9025C17.5802 75.9025 17.2669 76.0185 17.0348 76.2506C16.8027 76.4768 16.6635 76.796 16.6054 77.2022H19.1758ZM19.843 79.407C19.7443 79.5346 19.6225 79.639 19.4774 79.7318C19.3382 79.8246 19.1816 79.9001 19.0191 79.9582C18.8566 80.0162 18.6884 80.0568 18.5201 80.0858C18.3461 80.1206 18.172 80.1322 18.0037 80.1322C17.6788 80.1322 17.3771 80.08 17.1044 79.9698C16.8317 79.8595 16.5938 79.697 16.3908 79.4882C16.1935 79.2735 16.0368 79.0123 15.9266 78.699C15.8163 78.3857 15.7584 78.0261 15.7584 77.6199C15.7584 77.295 15.8106 76.9874 15.9092 76.7031C16.0137 76.4188 16.1587 76.1751 16.3444 75.9663C16.5358 75.7574 16.7621 75.5892 17.0348 75.4732C17.3075 75.3513 17.615 75.2933 17.9573 75.2933C18.2358 75.2933 18.4969 75.3397 18.7348 75.4383C18.9785 75.5312 19.1873 75.6646 19.3556 75.8445C19.5355 76.0185 19.6747 76.2391 19.7733 76.506C19.872 76.7613 19.9184 77.0628 19.9184 77.3936C19.9184 77.527 19.9068 77.6141 19.8778 77.6548C19.8488 77.6954 19.7966 77.7185 19.7211 77.7185H16.5764C16.588 78.0144 16.6287 78.2755 16.6983 78.496C16.7737 78.7165 16.8724 78.8963 17.0058 79.0472C17.1335 79.1922 17.2901 79.3025 17.4699 79.378C17.6498 79.4476 17.8471 79.4823 18.0734 79.4823C18.2822 79.4823 18.4563 79.4592 18.6071 79.4128C18.758 79.3664 18.8856 79.3142 18.9959 79.2561C19.1061 79.1981 19.1931 79.1517 19.2627 79.1053C19.3382 79.0531 19.402 79.0298 19.4543 79.0298C19.5239 79.0298 19.5761 79.0531 19.6109 79.1053L19.843 79.407ZM24.7341 80.0684H23.9392C23.8696 80.0684 23.8174 80.0509 23.7768 80.0161C23.7419 79.9813 23.7071 79.9407 23.6839 79.8943L22.5003 78.0551C22.4887 78.0957 22.4713 78.1421 22.4597 78.1827C22.4481 78.2233 22.4249 78.2639 22.4017 78.2929L21.3051 79.8943C21.2761 79.9407 21.2413 79.9813 21.2065 80.0161C21.1717 80.0509 21.1253 80.0684 21.0614 80.0684H20.3246L21.9723 77.6548L20.3884 75.3686H21.1833C21.2529 75.3686 21.2993 75.3745 21.3283 75.3977C21.3631 75.4209 21.3921 75.45 21.4154 75.4906L22.57 77.2543C22.5932 77.1673 22.6338 77.0803 22.686 76.9932L23.6955 75.5079C23.7245 75.4673 23.7536 75.4325 23.7884 75.4093C23.8174 75.3803 23.858 75.3686 23.9044 75.3686H24.6703L23.0863 77.6141L24.7341 80.0684ZM26.3644 75.3686V80.0684H25.5406V75.3686H26.3644ZM26.5443 73.8892C26.5443 73.9705 26.527 74.0458 26.4921 74.1155C26.4631 74.1851 26.4167 74.2489 26.3644 74.3012C26.3122 74.3534 26.2484 74.3998 26.173 74.4288C26.1034 74.4578 26.0279 74.4752 25.9467 74.4752C25.8655 74.4752 25.79 74.4578 25.7146 74.4288C25.6508 74.3998 25.587 74.3534 25.5348 74.3012C25.4826 74.2489 25.442 74.1851 25.413 74.1155C25.3782 74.0458 25.3665 73.9705 25.3665 73.8892C25.3665 73.808 25.3782 73.7325 25.413 73.6629C25.442 73.5875 25.4826 73.5236 25.5348 73.4714C25.587 73.4191 25.6508 73.3727 25.7146 73.3437C25.79 73.3089 25.8655 73.2974 25.9467 73.2974C26.0279 73.2974 26.1034 73.3089 26.173 73.3437C26.2484 73.3727 26.3122 73.4191 26.3644 73.4714C26.4167 73.5236 26.4631 73.5875 26.4921 73.6629C26.527 73.7325 26.5443 73.808 26.5443 73.8892ZM30.4607 76.1404C30.4259 76.21 30.3679 76.2448 30.2924 76.2448C30.246 76.2448 30.1938 76.2274 30.1358 76.1926C30.072 76.1578 30.0024 76.1229 29.9154 76.0823C29.8341 76.0359 29.7297 76.0011 29.6137 75.9663C29.4976 75.9257 29.3583 75.9083 29.1959 75.9083C29.0566 75.9083 28.929 75.9257 28.8188 75.9663C28.7085 76.0011 28.6099 76.0475 28.5345 76.1113C28.4533 76.1693 28.3952 76.2448 28.3488 76.3261C28.3082 76.4073 28.2908 76.4943 28.2908 76.5929C28.2908 76.7148 28.3255 76.8134 28.3952 76.8947C28.4648 76.9759 28.5577 77.0454 28.6737 77.1035C28.784 77.1615 28.9174 77.2137 29.0624 77.2601C29.2075 77.3007 29.3525 77.353 29.5092 77.4052C29.66 77.4516 29.8109 77.5096 29.956 77.5735C30.101 77.6315 30.2345 77.7128 30.3447 77.8056C30.4608 77.8985 30.5536 78.0086 30.6232 78.1478C30.6928 78.2813 30.7276 78.438 30.7276 78.6295C30.7276 78.8441 30.687 79.0472 30.6116 79.2329C30.5362 79.4128 30.4201 79.5751 30.2693 79.7086C30.1184 79.842 29.9327 79.9465 29.7122 80.0277C29.4918 80.1031 29.2365 80.1437 28.9522 80.1437C28.6215 80.1437 28.3256 80.0916 28.0587 79.9872C27.7918 79.877 27.5655 79.7376 27.3798 79.5693L27.5771 79.2561C27.6003 79.2155 27.6294 79.1864 27.6642 79.1632C27.699 79.14 27.7396 79.1284 27.7918 79.1284C27.8498 79.1284 27.9078 79.1516 27.9716 79.1981C28.0296 79.2387 28.1051 79.2851 28.1921 79.3373C28.2849 79.3895 28.3894 79.4417 28.5171 79.4823C28.6447 79.5288 28.8013 79.5462 28.9928 79.5462C29.1553 79.5462 29.2945 79.5288 29.4163 79.4882C29.5324 79.4475 29.6368 79.3895 29.7181 79.3141C29.7935 79.2444 29.8573 79.1633 29.8921 79.0704C29.9328 78.9776 29.9501 78.879 29.9501 78.7745C29.9501 78.6411 29.9153 78.5366 29.8457 78.4554C29.7761 78.3683 29.689 78.293 29.573 78.235C29.457 78.1711 29.3236 78.1189 29.1785 78.0783C29.0334 78.0319 28.8826 77.9855 28.7259 77.9332C28.5751 77.881 28.4242 77.8288 28.2792 77.765C28.1341 77.7011 28.0007 77.62 27.8847 77.5271C27.7744 77.4285 27.6815 77.3124 27.6061 77.1731C27.5423 77.0281 27.5075 76.8599 27.5075 76.6568C27.5075 76.477 27.5423 76.3028 27.6177 76.1404C27.6931 75.9721 27.7976 75.8271 27.9427 75.7052C28.0877 75.5776 28.2618 75.4789 28.4649 75.4035C28.6737 75.3281 28.9116 75.2933 29.1785 75.2933C29.486 75.2933 29.7645 75.3397 30.0082 75.4383C30.2576 75.537 30.4665 75.6704 30.6464 75.8386L30.4607 76.1404ZM33.1819 80.1437C32.8105 80.1437 32.5262 80.0394 32.3232 79.8305C32.1259 79.6217 32.0273 79.3257 32.0273 78.937V76.0592H31.4645C31.4123 76.0592 31.3717 76.0418 31.3368 76.0185C31.302 75.9837 31.2846 75.9373 31.2846 75.8793V75.5485L32.0563 75.45L32.2477 73.9994C32.2535 73.953 32.2768 73.9124 32.3058 73.8834C32.3406 73.8544 32.387 73.837 32.4392 73.837H32.857V75.4616H34.2146V76.0592H32.857V78.8789C32.857 79.0762 32.9034 79.227 32.9962 79.3199C33.0949 79.4185 33.2167 79.4649 33.3676 79.4649C33.4546 79.4649 33.53 79.4533 33.5938 79.4301C33.6577 79.4069 33.7156 79.3837 33.7621 79.3547C33.8085 79.3257 33.8433 79.3024 33.8781 79.2792C33.9072 79.256 33.942 79.2445 33.9652 79.2445C34.0058 79.2445 34.0464 79.2677 34.0812 79.3199L34.3191 79.7144C34.1799 79.8478 34.0058 79.9523 33.8085 80.0335C33.6055 80.1031 33.3965 80.1437 33.1819 80.1437ZM38.189 77.2022C38.189 77.0107 38.1601 76.8366 38.1021 76.6799C38.0498 76.5175 37.9744 76.384 37.87 76.268C37.7655 76.152 37.6379 76.0591 37.4928 75.9953C37.342 75.9315 37.1737 75.9025 36.988 75.9025C36.5877 75.9025 36.2744 76.0185 36.0423 76.2506C35.816 76.4768 35.671 76.796 35.6188 77.2022H38.189ZM38.8563 79.407C38.7518 79.5346 38.63 79.639 38.4907 79.7318C38.3457 79.8246 38.1949 79.9001 38.0324 79.9582C37.87 80.0162 37.7017 80.0568 37.5277 80.0858C37.3536 80.1206 37.1853 80.1322 37.0113 80.1322C36.6863 80.1322 36.3904 80.08 36.1119 79.9698C35.8392 79.8595 35.6014 79.697 35.4041 79.4882C35.2068 79.2735 35.0501 79.0123 34.9399 78.699C34.8297 78.3857 34.7717 78.0261 34.7717 77.6199C34.7717 77.295 34.818 76.9874 34.9225 76.7031C35.0211 76.4188 35.1662 76.1751 35.3576 75.9663C35.5433 75.7574 35.7754 75.5892 36.0481 75.4732C36.3208 75.3513 36.6283 75.2933 36.9648 75.2933C37.2491 75.2933 37.5103 75.3397 37.7481 75.4383C37.986 75.5312 38.1949 75.6646 38.3689 75.8445C38.543 76.0185 38.6822 76.2391 38.7808 76.506C38.8795 76.7613 38.9317 77.0628 38.9317 77.3936C38.9317 77.527 38.9143 77.6141 38.8911 77.6548C38.8621 77.6954 38.8099 77.7185 38.7286 77.7185H35.5897C35.5955 78.0144 35.6362 78.2755 35.7116 78.496C35.7812 78.7165 35.8856 78.8963 36.0133 79.0472C36.1467 79.1922 36.2976 79.3025 36.4775 79.378C36.6573 79.4476 36.8604 79.4823 37.0809 79.4823C37.2898 79.4823 37.4696 79.4592 37.6146 79.4128C37.7655 79.3664 37.899 79.3142 38.0092 79.2561C38.1136 79.1981 38.2064 79.1517 38.2761 79.1053C38.3515 79.0531 38.4154 79.0298 38.4676 79.0298C38.5314 79.0298 38.5894 79.0531 38.6242 79.1053L38.8563 79.407ZM40.7245 76.0476C40.829 75.9315 40.9334 75.8329 41.0495 75.7401C41.1655 75.6472 41.2873 75.5659 41.4092 75.5021C41.5426 75.4325 41.6761 75.3804 41.8211 75.3456C41.9662 75.3107 42.1229 75.2933 42.2911 75.2933C42.5464 75.2933 42.7727 75.3339 42.9642 75.4209C43.1672 75.5079 43.3297 75.6241 43.4573 75.7865C43.5908 75.9374 43.6952 76.1288 43.759 76.3435C43.8287 76.564 43.8634 76.8077 43.8634 77.0746V80.0684H43.0338V77.0746C43.0338 76.7206 42.9525 76.442 42.7843 76.2506C42.6276 76.0475 42.3781 75.9489 42.0474 75.9489C41.8037 75.9489 41.5717 76.0127 41.3628 76.1287C41.1481 76.2448 40.9567 76.4073 40.7768 76.6046V80.0684H39.9471V75.3686H40.4402C40.5621 75.3686 40.6317 75.4209 40.6607 75.5369L40.7245 76.0476ZM46.5034 80.1437C46.1321 80.1437 45.842 80.0394 45.6447 79.8305C45.4474 79.6217 45.3488 79.3257 45.3488 78.937V76.0592H44.7802C44.728 76.0592 44.6873 76.0418 44.6525 76.0185C44.6177 75.9837 44.6061 75.9373 44.6061 75.8793V75.5485L45.372 75.45L45.5635 73.9994C45.5751 73.953 45.5925 73.9124 45.6273 73.8834C45.6563 73.8544 45.7027 73.837 45.7549 73.837H46.1727V75.4616H47.5304V76.0592H46.1727V78.8789C46.1727 79.0762 46.2191 79.227 46.3177 79.3199C46.4105 79.4185 46.5382 79.4649 46.689 79.4649C46.7761 79.4649 46.8457 79.4533 46.9095 79.4301C46.9733 79.4069 47.0314 79.3837 47.0778 79.3547C47.1242 79.3257 47.1648 79.3024 47.1938 79.2792C47.2286 79.256 47.2577 79.2445 47.2809 79.2445C47.3273 79.2445 47.3621 79.2677 47.3969 79.3199L47.6406 79.7144C47.4955 79.8478 47.3273 79.9523 47.1242 80.0335C46.9211 80.1031 46.7181 80.1437 46.5034 80.1437ZM49.2594 75.3686V80.0684H48.4297V75.3686H49.2594ZM49.4334 73.8892C49.4334 73.9705 49.416 74.0458 49.3812 74.1155C49.3522 74.1851 49.3116 74.2489 49.2536 74.3012C49.2014 74.3534 49.1376 74.3998 49.0621 74.4288C48.9925 74.4578 48.9171 74.4752 48.8358 74.4752C48.7546 74.4752 48.6792 74.4578 48.6096 74.4288C48.5399 74.3998 48.4819 74.3534 48.4297 74.3012C48.3716 74.2489 48.331 74.1851 48.302 74.1155C48.273 74.0458 48.2556 73.9705 48.2556 73.8892C48.2556 73.808 48.273 73.7325 48.302 73.6629C48.331 73.5875 48.3716 73.5236 48.4297 73.4714C48.4819 73.4191 48.5399 73.3727 48.6096 73.3437C48.6792 73.3089 48.7546 73.2974 48.8358 73.2974C48.9171 73.2974 48.9925 73.3089 49.0621 73.3437C49.1376 73.3727 49.2014 73.4191 49.2536 73.4714C49.3116 73.5236 49.3522 73.5875 49.3812 73.6629C49.416 73.7325 49.4334 73.808 49.4334 73.8892ZM53.7618 77.2022C53.7618 77.0107 53.7328 76.8366 53.6805 76.6799C53.6283 76.5175 53.5471 76.384 53.4426 76.268C53.3382 76.152 53.2163 76.0591 53.0655 75.9953C52.9204 75.9315 52.7464 75.9025 52.5607 75.9025C52.1662 75.9025 51.8529 76.0185 51.6208 76.2506C51.3887 76.4768 51.2495 76.796 51.1914 77.2022H53.7618ZM54.429 79.407C54.3304 79.5346 54.2085 79.639 54.0635 79.7318C53.9242 79.8246 53.7676 79.9001 53.6051 79.9582C53.4427 80.0162 53.2744 80.0568 53.1061 80.0858C52.9321 80.1206 52.758 80.1322 52.5897 80.1322C52.2648 80.1322 51.9631 80.08 51.6904 79.9698C51.4177 79.8595 51.1798 79.697 50.9768 79.4882C50.7795 79.2735 50.6229 79.0123 50.5126 78.699C50.4024 78.3857 50.3444 78.0261 50.3444 77.6199C50.3444 77.295 50.3966 76.9874 50.4952 76.7031C50.5997 76.4188 50.7447 76.1751 50.9304 75.9663C51.1218 75.7574 51.3481 75.5892 51.6208 75.4732C51.8935 75.3513 52.201 75.2933 52.5434 75.2933C52.8219 75.2933 53.0829 75.3397 53.3208 75.4383C53.5645 75.5312 53.7675 75.6646 53.9416 75.8445C54.1215 76.0185 54.2549 76.2391 54.3593 76.506C54.458 76.7613 54.5044 77.0628 54.5044 77.3936C54.5044 77.527 54.4928 77.6141 54.4638 77.6548C54.4348 77.6954 54.3826 77.7185 54.3071 77.7185H51.1625C51.1741 78.0144 51.2147 78.2755 51.2843 78.496C51.3597 78.7165 51.4584 78.8963 51.5918 79.0472C51.7195 79.1922 51.8761 79.3025 52.0559 79.378C52.2358 79.4476 52.4331 79.4823 52.6594 79.4823C52.8624 79.4823 53.0423 79.4592 53.1932 79.4128C53.344 79.3664 53.4716 79.3142 53.5819 79.2561C53.6921 79.1981 53.7792 79.1517 53.8488 79.1053C53.9242 79.0531 53.988 79.0298 54.0403 79.0298C54.1099 79.0298 54.1621 79.0531 54.1969 79.1053L54.429 79.407ZM61.0433 77.2022C61.0433 77.0107 61.0143 76.8366 60.9563 76.6799C60.9041 76.5175 60.8287 76.384 60.7242 76.268C60.6198 76.152 60.4921 76.0591 60.3471 75.9953C60.1962 75.9315 60.028 75.9025 59.8423 75.9025C59.442 75.9025 59.1287 76.0185 58.8966 76.2506C58.6703 76.4768 58.5253 76.796 58.473 77.2022H61.0433ZM61.7106 79.407C61.6061 79.5346 61.4843 79.639 61.345 79.7318C61.2 79.8246 61.0491 79.9001 60.8866 79.9582C60.7242 80.0162 60.5559 80.0568 60.3819 80.0858C60.2078 80.1206 60.0396 80.1322 59.8655 80.1322C59.5406 80.1322 59.2447 80.08 58.9662 79.9698C58.6935 79.8595 58.4556 79.697 58.2584 79.4882C58.0611 79.2735 57.9044 79.0123 57.7942 78.699C57.6839 78.3857 57.6259 78.0261 57.6259 77.6199C57.6259 77.295 57.6781 76.9874 57.7767 76.7031C57.8754 76.4188 58.0204 76.1751 58.2119 75.9663C58.3976 75.7574 58.6297 75.5892 58.9024 75.4732C59.1751 75.3513 59.4826 75.2933 59.8191 75.2933C60.1034 75.2933 60.3645 75.3397 60.6023 75.4383C60.8402 75.5312 61.0491 75.6646 61.2232 75.8445C61.3973 76.0185 61.5365 76.2391 61.6351 76.506C61.7338 76.7613 61.786 77.0628 61.786 77.3936C61.786 77.527 61.7686 77.6141 61.7454 77.6548C61.7164 77.6954 61.6642 77.7185 61.5829 77.7185H58.444C58.4498 78.0144 58.4904 78.2755 58.5658 78.496C58.6354 78.7165 58.7399 78.8963 58.8675 79.0472C59.001 79.1922 59.1519 79.3025 59.3317 79.378C59.5116 79.4476 59.7147 79.4823 59.9352 79.4823C60.144 79.4823 60.3239 79.4592 60.4689 79.4128C60.6256 79.3664 60.7532 79.3142 60.8635 79.2561C60.9679 79.1981 61.0607 79.1517 61.1303 79.1053C61.2058 79.0531 61.2696 79.0298 61.3218 79.0298C61.3914 79.0298 61.4436 79.0531 61.4785 79.1053L61.7106 79.407ZM65.5399 76.1404C65.4993 76.21 65.4413 76.2448 65.3659 76.2448C65.3195 76.2448 65.2672 76.2274 65.2092 76.1926C65.1512 76.1578 65.0758 76.1229 64.9887 76.0823C64.9075 76.0359 64.8088 76.0011 64.687 75.9663C64.571 75.9257 64.4317 75.9083 64.2693 75.9083C64.13 75.9083 64.0082 75.9257 63.8979 75.9663C63.7819 76.0011 63.6891 76.0475 63.6078 76.1113C63.5324 76.1693 63.4685 76.2448 63.4279 76.3261C63.3873 76.4073 63.3641 76.4943 63.3641 76.5929C63.3641 76.7148 63.399 76.8134 63.4686 76.8947C63.5382 76.9759 63.631 77.0454 63.7471 77.1035C63.8631 77.1615 63.9908 77.2137 64.1358 77.2601C64.2809 77.3007 64.4318 77.353 64.5826 77.4052C64.7393 77.4516 64.8843 77.5096 65.0351 77.5735C65.1802 77.6315 65.3078 77.7128 65.4239 77.8056C65.5341 77.8985 65.6269 78.0086 65.6966 78.1478C65.7662 78.2813 65.801 78.438 65.801 78.6295C65.801 78.8441 65.7662 79.0472 65.6849 79.2329C65.6095 79.4128 65.4935 79.5751 65.3426 79.7086C65.1918 79.842 65.0061 79.9465 64.7857 80.0277C64.5652 80.1031 64.3157 80.1437 64.0256 80.1437C63.6948 80.1437 63.399 80.0916 63.1321 79.9872C62.8652 79.877 62.6447 79.7376 62.459 79.5693L62.6505 79.2561C62.6737 79.2155 62.7027 79.1864 62.7375 79.1632C62.7723 79.14 62.8187 79.1284 62.871 79.1284C62.9232 79.1284 62.9812 79.1516 63.045 79.1981C63.1089 79.2387 63.1843 79.2851 63.2713 79.3373C63.3584 79.3895 63.4686 79.4417 63.5962 79.4823C63.7181 79.5288 63.8806 79.5462 64.0662 79.5462C64.2287 79.5462 64.3679 79.5288 64.4898 79.4882C64.6116 79.4475 64.7102 79.3895 64.7915 79.3141C64.8727 79.2444 64.9307 79.1633 64.9655 79.0704C65.0061 78.9776 65.0293 78.879 65.0293 78.7745C65.0293 78.6411 64.9945 78.5366 64.9191 78.4554C64.8553 78.3683 64.7625 78.293 64.6464 78.235C64.5304 78.1711 64.4027 78.1189 64.2519 78.0783C64.1068 78.0319 63.9559 77.9855 63.8051 77.9332C63.6484 77.881 63.5034 77.8288 63.3525 77.765C63.2075 77.7011 63.0741 77.62 62.9638 77.5271C62.8478 77.4285 62.755 77.3124 62.6853 77.1731C62.6157 77.0281 62.5809 76.8599 62.5809 76.6568C62.5809 76.477 62.6215 76.3028 62.6911 76.1404C62.7666 75.9721 62.8768 75.8271 63.016 75.7052C63.1611 75.5776 63.3351 75.4789 63.544 75.4035C63.7471 75.3281 63.985 75.2933 64.2519 75.2933C64.5594 75.2933 64.8379 75.3397 65.0816 75.4383C65.3311 75.537 65.5457 75.6704 65.7256 75.8386L65.5399 76.1404ZM73.0594 75.3686V80.0684H72.5662C72.4501 80.0684 72.3747 80.0103 72.3457 79.8943L72.2761 79.3896C72.073 79.6158 71.8467 79.8015 71.5915 79.9407C71.3362 80.0742 71.0461 80.1437 70.7212 80.1437C70.4601 80.1437 70.2337 80.1031 70.0365 80.0161C69.8392 79.9291 69.6768 79.8073 69.5433 79.6564C69.4099 79.4998 69.3112 79.3141 69.2416 79.0937C69.1778 78.8732 69.143 78.6295 69.143 78.3626V75.3686H69.9727V78.3626C69.9727 78.7223 70.0539 78.995 70.2106 79.1922C70.3788 79.3837 70.6283 79.4823 70.9591 79.4823C71.2027 79.4823 71.429 79.4243 71.6437 79.3141C71.8583 79.1922 72.0498 79.0357 72.2297 78.8268V75.3686H73.0594ZM75.1481 76.0476C75.2468 75.9315 75.357 75.8329 75.473 75.7401C75.589 75.6472 75.7051 75.5659 75.8327 75.5021C75.9662 75.4325 76.0997 75.3804 76.2447 75.3456C76.3898 75.3107 76.5464 75.2933 76.7088 75.2933C76.9699 75.2933 77.1962 75.3339 77.3877 75.4209C77.585 75.5079 77.7532 75.6241 77.8809 75.7865C78.0143 75.9374 78.113 76.1288 78.1826 76.3435C78.2522 76.564 78.287 76.8077 78.287 77.0746V80.0684H77.4515V77.0746C77.4515 76.7206 77.3703 76.442 77.2078 76.2506C77.0453 76.0475 76.8017 75.9489 76.471 75.9489C76.2273 75.9489 75.9952 76.0127 75.7805 76.1287C75.5716 76.2448 75.3802 76.4073 75.2003 76.6046V80.0684H74.3649V75.3686H74.8638C74.9799 75.3686 75.0553 75.4209 75.0843 75.5369L75.1481 76.0476ZM81.9191 80.0684V75.3686H82.4181C82.5341 75.3686 82.6038 75.4209 82.6328 75.5369L82.6966 76.0185C82.8706 75.8097 83.0621 75.6299 83.2768 75.4964C83.4973 75.363 83.7467 75.2933 84.031 75.2933C84.3443 75.2933 84.5997 75.3803 84.7969 75.5544C84.9942 75.7342 85.1392 75.9721 85.2263 76.2738C85.2901 76.0997 85.3771 75.9547 85.4815 75.8328C85.5918 75.7052 85.7136 75.6065 85.8471 75.5253C85.9805 75.4441 86.1197 75.3862 86.2706 75.3456C86.4215 75.3107 86.5723 75.2933 86.729 75.2933C86.9785 75.2933 87.1931 75.3339 87.3846 75.4151C87.5819 75.4905 87.7443 75.6066 87.8778 75.7575C88.017 75.9083 88.1215 76.094 88.1911 76.3203C88.2607 76.5349 88.2956 76.7903 88.2956 77.0746V80.0684H87.4659V77.0746C87.4659 76.709 87.3846 76.4304 87.2221 76.239C87.0655 76.0475 86.8334 75.9489 86.5259 75.9489C86.3925 75.9489 86.2648 75.9779 86.1372 76.0243C86.0153 76.0708 85.9109 76.1403 85.8181 76.2331C85.7253 76.326 85.6498 76.4421 85.5976 76.5871C85.5454 76.7264 85.5164 76.8889 85.5164 77.0746V80.0684H84.6867V77.0746C84.6867 76.6974 84.6112 76.413 84.4604 76.2273C84.3095 76.0417 84.0833 75.9489 83.7932 75.9489C83.5901 75.9489 83.4044 76.0069 83.2303 76.1171C83.0563 76.2274 82.8938 76.3724 82.7488 76.5639V80.0684H81.9191ZM93.4942 75.3686L90.8717 81.455C90.8426 81.5188 90.8079 81.5652 90.7614 81.6058C90.7208 81.6407 90.657 81.6581 90.5699 81.6581H89.9608L90.8194 79.7957L88.8758 75.3686H89.5952C89.6649 75.3686 89.717 75.3861 89.7576 75.4209C89.804 75.4557 89.8331 75.4963 89.8505 75.5369L91.1037 78.5018C91.156 78.6295 91.1966 78.7629 91.2314 78.908C91.272 78.7629 91.3184 78.6237 91.3706 78.496L92.589 75.5369C92.6122 75.4905 92.6413 75.4499 92.6819 75.4151C92.7283 75.3861 92.7805 75.3686 92.8386 75.3686H93.4942ZM95.6641 80.1437C95.2928 80.1437 95.0085 80.0394 94.8055 79.8305C94.6082 79.6217 94.5095 79.3257 94.5095 78.937V76.0592H93.941C93.8945 76.0592 93.8539 76.0418 93.8191 76.0185C93.7843 75.9837 93.7669 75.9373 93.7669 75.8793V75.5485L94.5385 75.45L94.73 73.9994C94.7358 73.953 94.759 73.9124 94.788 73.8834C94.8228 73.8544 94.8634 73.837 94.9157 73.837H95.3335V75.4616H96.6969V76.0592H95.3335V78.8789C95.3335 79.0762 95.3857 79.227 95.4785 79.3199C95.5772 79.4185 95.6989 79.4649 95.8498 79.4649C95.9368 79.4649 96.0122 79.4533 96.0761 79.4301C96.1399 79.4069 96.1921 79.3837 96.2385 79.3547C96.285 79.3257 96.3255 79.3024 96.3546 79.2792C96.3894 79.256 96.4184 79.2445 96.4474 79.2445C96.488 79.2445 96.5287 79.2677 96.5635 79.3199L96.8013 79.7144C96.6621 79.8478 96.488 79.9523 96.2849 80.0335C96.0877 80.1031 95.8788 80.1437 95.6641 80.1437ZM98.3795 75.9953C98.5826 75.7806 98.803 75.6066 99.0467 75.4848C99.2904 75.3572 99.5748 75.2933 99.8939 75.2933C100.149 75.2933 100.375 75.3339 100.573 75.4209C100.77 75.5079 100.932 75.6241 101.06 75.7865C101.194 75.9374 101.298 76.1288 101.362 76.3435C101.431 76.564 101.466 76.8077 101.466 77.0746V80.0684H100.636V77.0746C100.636 76.7206 100.555 76.442 100.387 76.2506C100.23 76.0475 99.9809 75.9489 99.6502 75.9489C99.4065 75.9489 99.1802 76.0127 98.9655 76.1287C98.7566 76.2448 98.5594 76.4073 98.3795 76.6046V80.0684H97.5498V73.2335H98.3795V75.9953ZM102.586 79.5578C102.586 79.4766 102.598 79.4011 102.627 79.3315C102.661 79.2619 102.696 79.198 102.748 79.1458C102.801 79.0936 102.865 79.053 102.934 79.0182C103.004 78.9891 103.079 78.9718 103.16 78.9718C103.242 78.9718 103.317 78.9891 103.387 79.0182C103.462 79.053 103.52 79.0936 103.572 79.1458C103.625 79.198 103.671 79.2619 103.7 79.3315C103.729 79.4011 103.746 79.4766 103.746 79.5578C103.746 79.6391 103.729 79.7202 103.7 79.7899C103.671 79.8595 103.625 79.9176 103.572 79.9698C103.52 80.022 103.462 80.0626 103.387 80.0916C103.317 80.1206 103.242 80.1381 103.16 80.1381C103.079 80.1381 103.004 80.1206 102.934 80.0916C102.865 80.0626 102.801 80.022 102.748 79.9698C102.696 79.9176 102.661 79.8595 102.627 79.7899C102.598 79.7202 102.586 79.6391 102.586 79.5578Z" fill="#484848"/>
</g>
<defs>
<filter id="filter0_d_2_1412" x="-24.0142" y="-18.0107" width="218.028" height="145.503" filterUnits="userSpaceOnUse" color-interpolation-filters="sRGB">
<feFlood flood-opacity="0" result="BackgroundImageFix"/>
<feColorMatrix in="SourceAlpha" type="matrix" values="0 0 0 0 0 0 0 0 0 0 0 0 0 0 0 0 0 0 127 0" result="hardAlpha"/>
<feOffset dy="6"/>
<feGaussianBlur stdDeviation="12"/>
<feComposite in2="hardAlpha" operator="out"/>
<feColorMatrix type="matrix" values="0 0 0 0 0.279167 0 0 0 0 0.279167 0 0 0 0 0.279167 0 0 0 0.08 0"/>
<feBlend mode="normal" in2="BackgroundImageFix" result="effect1_dropShadow_2_1412"/>
<feBlend mode="normal" in="SourceGraphic" in2="effect1_dropShadow_2_1412" result="shape"/>
</filter>
</defs>
</svg>
