<svg width="24" height="7" viewBox="0 0 24 7" fill="none" xmlns="http://www.w3.org/2000/svg">
<path d="M5.49439 0V6.77921H4.57629V3.69116H0.918097V6.77921H0V0H0.918097V3.02277H4.57629V0H5.49439ZM8.90234 1.91072C9.25254 1.91072 9.56782 1.96989 9.84881 2.08229C10.1292 2.2006 10.3694 2.36614 10.5681 2.5791C10.7669 2.79798 10.9184 3.05845 11.0225 3.36014C11.1295 3.66775 11.1834 4.00478 11.1834 4.37746C11.1834 4.75606 11.1295 5.09915 11.0225 5.40084C10.9184 5.70253 10.7669 5.96285 10.5681 6.17581C10.3694 6.39469 10.1292 6.56023 9.84881 6.67263C9.56782 6.79094 9.25254 6.8442 8.90234 6.8442C8.54859 6.8442 8.23031 6.79094 7.94637 6.67263C7.66538 6.56023 7.42583 6.39469 7.22707 6.17581C7.02831 5.96285 6.87509 5.70253 6.76802 5.40084C6.66391 5.09915 6.61183 4.75606 6.61183 4.37746C6.61183 4.00478 6.66391 3.66775 6.76802 3.36014C6.87509 3.05845 7.02831 2.79798 7.22707 2.5791C7.42583 2.36614 7.66538 2.2006 7.94637 2.08229C8.23031 1.96989 8.54859 1.91072 8.90234 1.91072ZM8.90234 6.18766C9.37558 6.18766 9.72874 6.02805 9.9624 5.71453C10.1955 5.39509 10.3126 4.95142 10.3126 4.38352C10.3126 3.81563 10.1955 3.36605 9.9624 3.05252C9.72874 2.73308 9.37558 2.57333 8.90234 2.57333C8.66217 2.57333 8.45274 2.61471 8.27291 2.69753C8.09603 2.77443 7.94758 2.8928 7.82808 3.05252C7.71096 3.20633 7.62282 3.3956 7.56307 3.62039C7.50628 3.84519 7.47786 4.09958 7.47786 4.38352C7.47786 4.95142 7.59442 5.39509 7.82808 5.71453C8.06471 6.02805 8.42259 6.18766 8.90234 6.18766ZM12.2517 6.77921V1.98755H12.7581C12.8776 1.98755 12.9521 2.04081 12.9805 2.15912L13.042 2.65016C13.2183 2.4372 13.4171 2.25388 13.6383 2.11782C13.859 1.98176 14.1145 1.91072 14.405 1.91072C14.7268 1.91072 14.9871 1.99956 15.1859 2.17703C15.3876 2.36041 15.5325 2.6028 15.6213 2.91041C15.6905 2.73294 15.7786 2.58519 15.8863 2.46097C15.9963 2.33082 16.1193 2.2301 16.2554 2.14728C16.3908 2.06446 16.5346 2.00527 16.686 1.96386C16.8404 1.92837 16.9966 1.91072 17.1546 1.91072C17.4066 1.91072 17.6308 1.9521 17.8266 2.03492C18.0253 2.11182 18.1922 2.23004 18.3282 2.38385C18.4666 2.53765 18.5725 2.72707 18.6453 2.95778C18.7175 3.17666 18.7541 3.43683 18.7541 3.72669V6.77921H17.907V3.72669C17.907 3.35401 17.8248 3.0701 17.6609 2.87488C17.4965 2.67967 17.2599 2.5791 16.9511 2.5791C16.812 2.5791 16.6795 2.60861 16.5535 2.65594C16.4305 2.70326 16.3216 2.77446 16.227 2.86911C16.1324 2.96376 16.0566 3.08199 15.9998 3.22987C15.946 3.37185 15.9194 3.53739 15.9194 3.72669V6.77921H15.0723V3.72669C15.0723 3.34218 14.9948 3.05234 14.8404 2.86304C14.6854 2.67374 14.46 2.5791 14.1636 2.5791C13.9554 2.5791 13.7626 2.63828 13.5863 2.75068C13.4094 2.86307 13.2467 3.01098 13.0988 3.20619V6.77921H12.2517ZM23.2428 3.85696C23.2428 3.66175 23.2145 3.48434 23.1577 3.32462C23.1038 3.15898 23.0234 3.02295 22.9163 2.90463C22.8122 2.78632 22.6844 2.69155 22.533 2.62648C22.3815 2.5614 22.2094 2.53173 22.0171 2.53173C21.6131 2.53173 21.2931 2.6501 21.0565 2.88673C20.8228 3.11743 20.6779 3.44287 20.6211 3.85696H23.2428ZM23.9243 6.10476C23.8202 6.2349 23.6954 6.34141 23.5505 6.43606C23.4055 6.53071 23.2494 6.6077 23.082 6.66685C22.9181 6.72601 22.7477 6.76725 22.5708 6.79683C22.394 6.83233 22.2189 6.8442 22.0455 6.8442C21.7143 6.8442 21.4084 6.79109 21.1275 6.67869C20.85 6.5663 20.6087 6.40062 20.4034 6.18766C20.2017 5.96878 20.0437 5.70266 19.9301 5.38322C19.8166 5.06378 19.7598 4.69681 19.7598 4.28272C19.7598 3.95145 19.81 3.63816 19.9112 3.3483C20.0153 3.05844 20.1638 2.80997 20.3561 2.59701C20.5483 2.38405 20.7838 2.21244 21.0612 2.09413C21.3386 1.96991 21.651 1.91072 21.9982 1.91072C22.2851 1.91072 22.5501 1.95804 22.7933 2.0586C23.0393 2.15325 23.2505 2.28943 23.4274 2.47281C23.6073 2.65028 23.7474 2.87486 23.8486 3.14698C23.9498 3.40726 24 3.71503 24 4.05222C24 4.18828 23.9859 4.27684 23.9575 4.31825C23.9291 4.35965 23.8752 4.38352 23.7965 4.38352H20.5927C20.6022 4.68522 20.643 4.95133 20.7157 5.17612C20.7915 5.40091 20.8955 5.58441 21.0281 5.73821C21.1606 5.8861 21.3185 5.99839 21.5013 6.0753C21.6841 6.14628 21.8894 6.18188 22.1165 6.18188C22.3277 6.18188 22.5093 6.15815 22.6608 6.11082C22.8151 6.0635 22.9477 6.01025 23.0583 5.95109C23.1689 5.89194 23.26 5.84446 23.3328 5.79714C23.4085 5.7439 23.473 5.7203 23.5268 5.7203C23.596 5.7203 23.6499 5.7439 23.6877 5.79714L23.9243 6.10476Z" fill="white"/>
</svg>
