<svg width="27" height="7" viewBox="0 0 27 7" fill="none" xmlns="http://www.w3.org/2000/svg">
<path d="M3.99593 1.2411C3.96655 1.28811 3.93722 1.32414 3.90196 1.34923C3.8667 1.37115 3.8314 1.38214 3.78439 1.38214C3.7315 1.38214 3.66689 1.35552 3.59637 1.30222C3.52585 1.24892 3.43185 1.19098 3.3202 1.12828C3.21442 1.06246 3.08512 1.00293 2.93233 0.949632C2.77955 0.896332 2.59734 0.869711 2.37991 0.869711C2.18011 0.869711 1.99799 0.897919 1.83933 0.954332C1.68654 1.00763 1.55724 1.08126 1.45146 1.17529C1.34569 1.26931 1.26928 1.38055 1.21639 1.50907C1.1635 1.63441 1.13411 1.77074 1.13411 1.91807C1.13411 2.10611 1.18112 2.26284 1.27514 2.38818C1.36916 2.51041 1.48669 2.61542 1.63948 2.70316C1.79226 2.79089 1.96268 2.8677 2.1566 2.93351C2.35053 2.99622 2.55033 3.06203 2.75013 3.13096C2.94993 3.19989 3.14973 3.27828 3.34365 3.36602C3.53758 3.45064 3.708 3.55876 3.86078 3.6904C4.01357 3.82203 4.13697 3.98346 4.22512 4.17462C4.31914 4.36578 4.36615 4.60083 4.36615 4.87979C4.36615 5.17437 4.31325 5.45174 4.21335 5.71189C4.11345 5.96887 3.96654 6.19299 3.77262 6.38415C3.58458 6.57531 3.34367 6.72575 3.0616 6.83546C2.7854 6.94518 2.46808 7 2.10962 7C1.66889 7 1.27515 6.92167 0.916686 6.76495C0.558224 6.60511 0.252686 6.39044 0 6.12089L0.264411 5.68838C0.287916 5.65389 0.317313 5.62568 0.352571 5.60376C0.38783 5.57867 0.428942 5.56615 0.475953 5.56615C0.517088 5.56615 0.558212 5.58337 0.6111 5.61787C0.663988 5.64919 0.722781 5.68997 0.787421 5.7401C0.852062 5.79022 0.928464 5.84511 1.01661 5.90464C1.09888 5.96416 1.19289 6.01905 1.29867 6.06918C1.41032 6.1193 1.53373 6.16161 1.67477 6.19611C1.80993 6.22743 1.96274 6.24312 2.13903 6.24312C2.35646 6.24312 2.54449 6.21332 2.71491 6.1538C2.88532 6.09427 3.02635 6.01118 3.14388 5.90464C3.2614 5.79492 3.3554 5.66488 3.41417 5.51444C3.47881 5.364 3.50821 5.19635 3.50821 5.01142C3.50821 4.80768 3.46121 4.64162 3.36718 4.5131C3.27904 4.38147 3.15564 4.27175 3.00873 4.18402C2.85594 4.09628 2.68552 4.02259 2.4916 3.96306C2.29768 3.90036 2.09787 3.83772 1.89808 3.77502C1.69828 3.7092 1.49847 3.63398 1.30455 3.54936C1.11063 3.46474 0.940209 3.35503 0.787421 3.22028C0.640511 3.08554 0.517109 2.91782 0.423086 2.71726C0.329063 2.51353 0.287939 2.26284 0.287939 1.96508C0.287939 1.72691 0.329063 1.49655 0.423086 1.27401C0.517109 1.05147 0.652232 0.854021 0.828525 0.681666C1.00482 0.50931 1.22231 0.371391 1.48087 0.267966C1.73943 0.164541 2.03907 0.112828 2.37403 0.112828C2.75012 0.112828 3.09102 0.172356 3.39659 0.291471C3.70804 0.410586 3.9783 0.582941 4.21335 0.808596L3.99593 1.2411ZM8.61479 4.02418C8.61479 3.82985 8.58547 3.65279 8.53259 3.49295C8.4797 3.33 8.39741 3.19049 8.29163 3.07455C8.18586 2.95543 8.06244 2.86458 7.90965 2.80188C7.76274 2.73607 7.59233 2.70316 7.3984 2.70316C6.99881 2.70316 6.68148 2.82069 6.44643 3.05574C6.21137 3.28769 6.07034 3.61048 6.01158 4.02418H8.61479ZM9.2906 6.25722C9.1907 6.38257 9.06729 6.49228 8.92038 6.5863C8.77935 6.67721 8.62073 6.75243 8.45619 6.81196C8.29165 6.87148 8.12712 6.91538 7.95083 6.94359C7.77453 6.97491 7.59823 6.9906 7.42782 6.9906C7.09874 6.9906 6.79313 6.93577 6.51694 6.82606C6.24075 6.71323 5.99983 6.55028 5.79415 6.33714C5.59435 6.12089 5.43566 5.85451 5.32401 5.53795C5.21236 5.22138 5.15364 4.85787 5.15364 4.44728C5.15364 4.11509 5.20653 3.80481 5.30643 3.51646C5.41221 3.2281 5.55912 2.97894 5.74717 2.76897C5.94109 2.55584 6.17611 2.38977 6.44643 2.27065C6.72262 2.14842 7.03405 2.08731 7.38076 2.08731C7.66283 2.08731 7.92732 2.13591 8.16825 2.23304C8.41506 2.32707 8.62658 2.46499 8.797 2.64674C8.97917 2.82539 9.12018 3.04793 9.22008 3.31431C9.31998 3.57757 9.36699 3.87844 9.36699 4.21693C9.36699 4.34856 9.35527 4.43629 9.32589 4.48019C9.29651 4.52409 9.24361 4.54601 9.16722 4.54601H5.98216C5.99392 4.84688 6.0351 5.10856 6.10562 5.3311C6.18201 5.55364 6.28186 5.7401 6.41701 5.89053C6.5463 6.03786 6.70499 6.1491 6.88716 6.22431C7.06933 6.29642 7.26915 6.33244 7.49833 6.33244C7.70988 6.33244 7.88613 6.30894 8.03892 6.26192C8.1917 6.2118 8.32101 6.1585 8.43266 6.10208C8.54431 6.04567 8.63244 5.99396 8.70296 5.94695C8.77935 5.89682 8.84403 5.87173 8.89692 5.87173C8.96744 5.87173 9.02027 5.89835 9.05553 5.95165L9.2906 6.25722ZM12.9751 4.78106C12.5932 4.79358 12.2641 4.82496 11.9879 4.87509C11.7235 4.9221 11.5002 4.9848 11.3298 5.06313C11.1594 5.14147 11.0359 5.23396 10.9537 5.3405C10.8832 5.44704 10.842 5.56615 10.842 5.69779C10.842 5.82313 10.8655 5.93126 10.9066 6.02217C10.9478 6.11307 11.0007 6.18829 11.0712 6.24782C11.1417 6.30423 11.224 6.34654 11.318 6.37475C11.4179 6.39984 11.5178 6.41236 11.6294 6.41236C11.7763 6.41236 11.9115 6.39826 12.0349 6.37005C12.1524 6.33873 12.2699 6.29483 12.3757 6.23842C12.4874 6.182 12.5873 6.1146 12.6872 6.03627C12.7871 5.95794 12.8811 5.86861 12.9751 5.7683V4.78106ZM10.272 2.83479C10.5364 2.58093 10.8185 2.39129 11.124 2.26595C11.4296 2.14061 11.7646 2.07791 12.1348 2.07791C12.4052 2.07791 12.6402 2.1218 12.8459 2.20954C13.0515 2.29727 13.2278 2.4195 13.3689 2.57623C13.5099 2.73295 13.6156 2.92253 13.6862 3.14507C13.7567 3.36761 13.7978 3.61207 13.7978 3.87844V6.92478H13.4217C13.3454 6.92478 13.2807 6.91227 13.2337 6.88718C13.1926 6.85897 13.1573 6.80567 13.1338 6.72734L13.0398 6.27603C12.9105 6.39197 12.7929 6.49539 12.6695 6.5863C12.552 6.67404 12.4286 6.74925 12.2934 6.81196C12.1642 6.87148 12.0231 6.91697 11.8704 6.94829C11.7234 6.98279 11.5589 7 11.3768 7C11.1946 7 11.0183 6.97491 10.8596 6.92478C10.6951 6.87149 10.5541 6.79315 10.4307 6.68973C10.3131 6.5863 10.2132 6.45626 10.1427 6.29953C10.0722 6.13969 10.0369 5.95165 10.0369 5.7354C10.0369 5.54735 10.0898 5.36712 10.1956 5.19476C10.2955 5.01923 10.4659 4.8641 10.6951 4.72935C10.9301 4.5946 11.2299 4.48489 11.6059 4.40027C11.9762 4.31253 12.4345 4.26235 12.9751 4.24984V3.87844C12.9751 3.50864 12.8987 3.22968 12.7401 3.04164C12.5755 2.85048 12.3464 2.75487 12.0349 2.75487C11.8292 2.75487 11.6588 2.78149 11.5178 2.83479C11.3768 2.88492 11.2592 2.94292 11.1535 3.00873C11.0536 3.07143 10.9654 3.12938 10.889 3.18267C10.8185 3.2328 10.7479 3.25789 10.6715 3.25789C10.6187 3.25789 10.5717 3.24379 10.5305 3.21558C10.4894 3.18426 10.4542 3.14665 10.4248 3.10275L10.272 2.83479ZM15.8664 3.11686C16.0133 2.79089 16.2013 2.53703 16.4187 2.35527C16.6361 2.17034 16.9065 2.07791 17.2238 2.07791C17.3237 2.07791 17.4177 2.08889 17.5117 2.11081C17.6057 2.13273 17.688 2.16723 17.7586 2.21424L17.6998 2.83949C17.6763 2.91782 17.6293 2.95702 17.5588 2.95702C17.5118 2.95702 17.4471 2.94762 17.3648 2.92881C17.2767 2.91001 17.1826 2.90061 17.0769 2.90061C16.9241 2.90061 16.7948 2.92252 16.6714 2.96642C16.5598 3.01032 16.454 3.07613 16.36 3.16387C16.2659 3.24849 16.1836 3.35503 16.1072 3.48355C16.0367 3.60889 15.9721 3.7531 15.9133 3.91605V6.92478H15.0672V2.16253H15.549C15.643 2.16253 15.7018 2.17974 15.7371 2.21424C15.7724 2.24873 15.7959 2.30826 15.8076 2.39288L15.8664 3.11686ZM21.6135 3.00873C21.59 3.04323 21.5664 3.06985 21.5429 3.08865C21.5136 3.10746 21.4842 3.11686 21.4372 3.11686C21.3902 3.11686 21.3373 3.09805 21.2844 3.06044C21.2256 3.01972 21.1551 2.97582 21.0729 2.92881C20.9906 2.8818 20.8848 2.83949 20.7673 2.80188C20.6439 2.76116 20.497 2.74077 20.3207 2.74077C20.0856 2.74077 19.88 2.78308 19.7037 2.8677C19.5215 2.9492 19.3746 3.06826 19.2512 3.22498C19.1337 3.38171 19.0396 3.57128 18.9808 3.79382C18.9221 4.01636 18.8869 4.26552 18.8869 4.5413C18.8869 4.82966 18.9221 5.08664 18.9867 5.31229C19.0513 5.53483 19.1454 5.72288 19.263 5.87643C19.3864 6.02687 19.5333 6.14281 19.7037 6.22431C19.8741 6.30265 20.068 6.34184 20.2796 6.34184C20.4852 6.34184 20.6498 6.31834 20.7849 6.27133C20.9142 6.2212 21.0258 6.16631 21.1081 6.10679C21.1962 6.04726 21.2667 5.99396 21.3255 5.94695C21.3843 5.89682 21.4431 5.87173 21.496 5.87173C21.5665 5.87173 21.6194 5.89835 21.6605 5.95165L21.8956 6.25722C21.7898 6.38574 21.6722 6.49539 21.5429 6.5863C21.4078 6.67721 21.2668 6.75396 21.114 6.81666C20.9612 6.87619 20.8026 6.92008 20.638 6.94829C20.4735 6.9765 20.3031 6.9906 20.1327 6.9906C19.833 6.9906 19.5567 6.93577 19.2982 6.82606C19.0455 6.71635 18.8222 6.55809 18.6341 6.35124C18.4461 6.14128 18.2992 5.88425 18.1934 5.58026C18.0876 5.27627 18.0347 4.92991 18.0347 4.5413C18.0347 4.18713 18.0817 3.85964 18.1816 3.55877C18.2815 3.25789 18.4226 2.99933 18.6106 2.78308C18.8045 2.56371 19.0396 2.39288 19.3099 2.27065C19.592 2.14842 19.9093 2.08731 20.2737 2.08731C20.6086 2.08731 20.9025 2.14214 21.1551 2.25185C21.4137 2.35839 21.637 2.51041 21.8368 2.70786L21.6135 3.00873ZM23.635 2.79718C23.8348 2.58093 24.064 2.40857 24.3108 2.28006C24.5576 2.15154 24.8455 2.08731 25.1687 2.08731C25.4273 2.08731 25.6565 2.13121 25.8504 2.21894C26.0502 2.30356 26.2206 2.42579 26.3499 2.58563C26.485 2.74235 26.585 2.93193 26.6555 3.15447C26.726 3.37701 26.7612 3.623 26.7612 3.89255V6.92478H25.9209V3.89255C25.9209 3.53215 25.8327 3.25319 25.6682 3.05574C25.5037 2.85518 25.2568 2.75487 24.9219 2.75487C24.6751 2.75487 24.4401 2.8144 24.2285 2.93351C24.0111 3.05263 23.8172 3.214 23.635 3.41773V6.92478H22.7946V0H23.635V2.79718Z" fill="white"/>
</svg>
