<svg width="82" height="7" viewBox="0 0 82 7" fill="none" xmlns="http://www.w3.org/2000/svg">
<path d="M6.23132 0.185773L3.51962 6.83732H2.7117L0 0.185773H0.71971C0.799807 0.185773 0.864813 0.203171 0.914729 0.2438C0.964064 0.284429 1.00119 0.336672 1.02614 0.394714L2.90208 5.09026C2.94213 5.19473 2.98099 5.3108 3.01813 5.43268C3.05818 5.56038 3.0936 5.6881 3.12494 5.8274C3.1557 5.6881 3.18819 5.56038 3.22243 5.43268C3.2561 5.3108 3.29325 5.19473 3.33388 5.09026L5.20514 0.394714C5.22372 0.342477 5.25913 0.296049 5.31195 0.25542C5.36767 0.208987 5.43384 0.185773 5.51161 0.185773H6.23132ZM7.78453 2.13596V6.83732H6.95801V2.13596H7.78453ZM7.96095 0.655873C7.96095 0.737131 7.94415 0.812593 7.9099 0.882243C7.87914 0.951893 7.83561 1.01578 7.77989 1.06802C7.72707 1.12025 7.6638 1.16667 7.58951 1.19569C7.51812 1.22471 7.44265 1.2421 7.36197 1.2421C7.28129 1.2421 7.20586 1.22471 7.13447 1.19569C7.06656 1.16667 7.00619 1.12025 6.95337 1.06802C6.90055 1.01578 6.85876 0.951893 6.828 0.882243C6.79724 0.812593 6.78156 0.737131 6.78156 0.655873C6.78156 0.574614 6.79724 0.499152 6.828 0.429502C6.85876 0.354048 6.90055 0.290228 6.95337 0.23799C7.00619 0.185753 7.06656 0.139337 7.13447 0.110316C7.20586 0.0754909 7.28129 0.0638372 7.36197 0.0638372C7.44265 0.0638372 7.51812 0.0754909 7.58951 0.110316C7.6638 0.139337 7.72707 0.185753 7.77989 0.23799C7.83561 0.290228 7.87914 0.354048 7.9099 0.429502C7.94415 0.499152 7.96095 0.574614 7.96095 0.655873ZM12.2909 3.9701C12.2909 3.77856 12.263 3.60442 12.2073 3.44771C12.1545 3.28519 12.0755 3.15165 11.9705 3.03556C11.8683 2.91948 11.7429 2.82663 11.5944 2.76278C11.4458 2.69894 11.2769 2.6699 11.0882 2.6699C10.6918 2.6699 10.3778 2.78604 10.1457 3.0182C9.91639 3.24457 9.77418 3.5638 9.71846 3.9701H12.2909ZM12.9595 6.17563C12.8573 6.30332 12.7349 6.40783 12.5927 6.5007C12.4499 6.59357 12.2967 6.66903 12.133 6.72707C11.9717 6.78511 11.8045 6.82572 11.6315 6.85474C11.458 6.88957 11.2862 6.90115 11.1161 6.90115C10.7911 6.90115 10.4904 6.8489 10.2153 6.73862C9.94251 6.62834 9.7057 6.46585 9.50488 6.2569C9.30637 6.04215 9.15199 5.78097 9.04055 5.46754C8.92911 5.15412 8.87338 4.79427 8.87338 4.38798C8.87338 4.06294 8.9227 3.75528 9.02195 3.47088C9.12411 3.18647 9.26922 2.94276 9.45843 2.73381C9.64707 2.52486 9.8775 2.35648 10.1503 2.2404C10.4225 2.11851 10.729 2.0605 11.0697 2.0605C11.3512 2.0605 11.6112 2.10694 11.8497 2.20561C12.0912 2.29847 12.2984 2.43194 12.472 2.61187C12.6484 2.786 12.786 3.00656 12.8852 3.27355C12.9839 3.52894 13.0338 3.83077 13.0338 4.16161C13.0338 4.2951 13.0199 4.38214 12.992 4.42277C12.9642 4.46339 12.9113 4.4866 12.8342 4.4866H9.69061C9.6999 4.78262 9.73995 5.04385 9.81134 5.26441C9.88564 5.48497 9.98776 5.66487 10.1178 5.81578C10.2478 5.96088 10.4022 6.0712 10.5821 6.14665C10.7615 6.2163 10.9629 6.25109 11.1858 6.25109C11.393 6.25109 11.5711 6.22788 11.7197 6.18144C11.8712 6.13501 12.0012 6.08276 12.1098 6.02472C12.2177 5.96668 12.3077 5.92024 12.3791 5.87381C12.4534 5.82157 12.5166 5.79835 12.5695 5.79835C12.6374 5.79835 12.6902 5.82157 12.7273 5.87381L12.9595 6.17563ZM20.4904 2.13596L18.9674 6.83732H18.3127C18.232 6.83732 18.1763 6.78507 18.1455 6.68059L17.1054 3.4883C17.0804 3.41865 17.0601 3.34901 17.045 3.27355C17.0294 3.2039 17.0137 3.12845 16.9986 3.0588C16.983 3.12845 16.9673 3.2039 16.9522 3.27355C16.9365 3.34901 16.9162 3.41866 16.8918 3.49411L15.8332 6.68059C15.8053 6.78507 15.7432 6.83732 15.6474 6.83732H15.0252L13.5022 2.13596H14.1523C14.2173 2.13596 14.2712 2.15335 14.3148 2.18237C14.3612 2.21719 14.392 2.2578 14.4077 2.30423L15.3085 5.33406C15.3607 5.55462 15.4025 5.76355 15.4338 5.96669C15.4617 5.86222 15.4895 5.75772 15.5174 5.65324C15.5482 5.54877 15.5807 5.43853 15.6149 5.33406L16.6086 2.28688C16.6237 2.24044 16.6504 2.19977 16.6875 2.17075C16.7276 2.14173 16.7757 2.12434 16.8315 2.12434H17.1936C17.2552 2.12434 17.3062 2.14173 17.3469 2.17075C17.3869 2.19977 17.4148 2.24044 17.4304 2.28688L18.4009 5.33406C18.4346 5.43853 18.4659 5.54877 18.4938 5.65324C18.5216 5.75772 18.5477 5.86222 18.5727 5.96669C18.5878 5.86222 18.6064 5.75772 18.6284 5.65905C18.6528 5.55458 18.6795 5.44434 18.7074 5.33406L19.6267 2.30423C19.6418 2.2578 19.6714 2.21719 19.715 2.18237C19.7579 2.15335 19.809 2.13596 19.8682 2.13596H20.4904ZM27.0793 1.22467C27.0514 1.2711 27.0201 1.30596 26.9864 1.32917C26.9551 1.35239 26.9168 1.36396 26.8703 1.36396C26.8175 1.36396 26.7554 1.335 26.6846 1.28277C26.6132 1.23053 26.5233 1.17247 26.4153 1.11442C26.3097 1.04477 26.1814 0.986698 26.0299 0.934461C25.8813 0.882224 25.7002 0.859004 25.4866 0.859004C25.2852 0.859004 25.107 0.882229 24.9526 0.940271C24.8006 0.992508 24.6723 1.06797 24.5672 1.16083C24.4651 1.2537 24.3873 1.36401 24.3351 1.4859C24.2822 1.61359 24.2561 1.74706 24.2561 1.89216C24.2561 2.07789 24.3008 2.23463 24.3908 2.35652C24.4837 2.47841 24.6044 2.58284 24.753 2.6699C24.9045 2.75696 25.0745 2.83242 25.2637 2.89627C25.4553 2.95431 25.6503 3.02401 25.8488 3.08785C26.0496 3.1575 26.2446 3.2329 26.4339 3.31996C26.6254 3.40702 26.796 3.51153 26.9446 3.64503C27.0961 3.77272 27.2169 3.9294 27.3068 4.12094C27.3997 4.31248 27.4461 4.54468 27.4461 4.81748C27.4461 5.10769 27.3962 5.38044 27.2975 5.64162C27.1983 5.8912 27.0526 6.11177 26.8611 6.30331C26.6718 6.49484 26.4385 6.63996 26.1599 6.75024C25.8842 6.85471 25.5702 6.91277 25.2173 6.91277C24.7837 6.91277 24.3908 6.8315 24.0379 6.68059C23.685 6.52388 23.3832 6.30914 23.1325 6.04215L23.3925 5.61846C23.4169 5.58363 23.4465 5.5546 23.4807 5.53138C23.5178 5.50816 23.5579 5.49652 23.6014 5.49652C23.6415 5.49652 23.6862 5.51398 23.7361 5.54881C23.7883 5.57783 23.8475 5.61843 23.9125 5.66486C23.9775 5.7171 24.0518 5.76936 24.1354 5.8274C24.219 5.89124 24.313 5.9435 24.4187 5.98993C24.5266 6.04217 24.6491 6.08278 24.7855 6.11761C24.9213 6.14663 25.0745 6.16401 25.2452 6.16401C25.4588 6.16401 25.6491 6.13498 25.8163 6.07694C25.9834 6.01889 26.1239 5.93768 26.2388 5.8274C26.3561 5.72292 26.446 5.59521 26.5081 5.4443C26.5697 5.2934 26.601 5.13089 26.601 4.94515C26.601 4.74781 26.5546 4.57951 26.4617 4.45762C26.3717 4.32413 26.2528 4.21962 26.1042 4.13256C25.9556 4.0455 25.785 3.97004 25.5934 3.912C25.4013 3.84815 25.2063 3.79014 25.0084 3.7263C24.8099 3.66245 24.6148 3.58699 24.4233 3.50573C24.2312 3.41867 24.0611 3.31416 23.9125 3.18067C23.7639 3.04717 23.6432 2.87886 23.5503 2.68152C23.4604 2.47837 23.4157 2.23465 23.4157 1.93864C23.4157 1.70067 23.4604 1.47428 23.5503 1.25372C23.6432 1.03896 23.7761 0.841623 23.9497 0.673302C24.1261 0.499177 24.3409 0.365704 24.5951 0.26123C24.8517 0.162559 25.1459 0.110316 25.4773 0.110316C25.8488 0.110316 26.186 0.168315 26.4896 0.284398C26.796 0.400481 27.0653 0.574609 27.2975 0.795167L27.0793 1.22467ZM29.7585 6.91277C29.387 6.91277 29.1009 6.80827 28.8995 6.59933C28.7015 6.39038 28.6023 6.09441 28.6023 5.70553V2.82662H28.0358C27.9865 2.82662 27.9447 2.80924 27.9104 2.78602C27.8762 2.7512 27.8594 2.70477 27.8594 2.64673V2.31585L28.6302 2.21723L28.8205 0.766189C28.8298 0.719755 28.8501 0.679084 28.8809 0.650063C28.9151 0.621042 28.9581 0.603655 29.0109 0.603655H29.4288V2.22885H30.7893V2.82662H29.4288V5.64743C29.4288 5.84478 29.477 5.99569 29.5728 6.08856C29.6685 6.18723 29.7927 6.23366 29.9442 6.23366C30.0307 6.23366 30.105 6.22209 30.1671 6.19887C30.2321 6.17566 30.2878 6.15244 30.3342 6.12342C30.3807 6.09439 30.4196 6.07117 30.4503 6.04796C30.4846 6.02474 30.5136 6.0131 30.5386 6.0131C30.5821 6.0131 30.6204 6.03632 30.6546 6.08856L30.8961 6.48327C30.7539 6.61677 30.5821 6.7212 30.3807 6.80246C30.1793 6.87211 29.9721 6.91277 29.7585 6.91277ZM35.5104 2.13596V6.83732H35.0182C34.901 6.83732 34.8267 6.77925 34.7953 6.66316L34.7303 6.1582C34.526 6.38457 34.2973 6.57034 34.0431 6.70964C33.7895 6.84314 33.4987 6.91277 33.1702 6.91277C32.9136 6.91277 32.6861 6.87216 32.4876 6.7851C32.2926 6.69804 32.1289 6.57615 31.9954 6.42524C31.8625 6.26853 31.7621 6.08274 31.6936 5.86219C31.6286 5.64163 31.5961 5.39792 31.5961 5.13093V2.13596H32.4226V5.13093C32.4226 5.49078 32.5033 5.76354 32.664 5.96088C32.8283 6.15242 33.0773 6.25109 33.4116 6.25109C33.6565 6.25109 33.8841 6.19303 34.0942 6.08275C34.3078 5.96086 34.5045 5.80417 34.6839 5.59522V2.13596H35.5104ZM39.8856 3.25031C39.7312 3.04717 39.564 2.90207 39.3841 2.82081C39.2048 2.73955 39.0033 2.69314 38.7804 2.69314C38.344 2.69314 38.0085 2.84988 37.7729 3.16331C37.5378 3.47673 37.42 3.92362 37.42 4.50403C37.42 4.80585 37.4467 5.07283 37.4989 5.29339C37.5517 5.50814 37.6289 5.6881 37.7311 5.8274C37.8332 5.9667 37.9586 6.07119 38.1072 6.13503C38.2558 6.19888 38.4247 6.23366 38.6133 6.23366C38.8861 6.23366 39.1229 6.16985 39.3237 6.04796C39.528 5.92607 39.7155 5.75193 39.8856 5.52557V3.25031ZM40.7121 0V6.83732H40.2199C40.1027 6.83732 40.0283 6.77925 39.997 6.66316L39.9227 6.09437C39.7219 6.33814 39.4927 6.52968 39.2355 6.68059C38.979 6.8257 38.6818 6.90115 38.344 6.90115C38.0747 6.90115 37.8303 6.84891 37.6103 6.75024C37.3909 6.64576 37.2035 6.4891 37.0485 6.29176C36.8941 6.08861 36.7745 5.83901 36.691 5.53719C36.6074 5.23537 36.5656 4.89291 36.5656 4.50403C36.5656 4.15578 36.612 3.8308 36.7049 3.53478C36.7978 3.23297 36.9312 2.97753 37.1042 2.75698C37.2778 2.53642 37.4896 2.36228 37.7404 2.2404C37.9946 2.1127 38.279 2.04888 38.5947 2.04888C38.8826 2.04888 39.1287 2.10113 39.333 2.1998C39.5408 2.29267 39.7248 2.43193 39.8856 2.60025V0H40.7121ZM45.1656 3.9701C45.1656 3.77856 45.1378 3.60442 45.0821 3.44771C45.0298 3.28519 44.9509 3.15165 44.8452 3.03556C44.7431 2.91948 44.6177 2.82663 44.4691 2.76278C44.3205 2.69894 44.1522 2.6699 43.963 2.6699C43.5671 2.6699 43.2526 2.78604 43.0204 3.0182C42.7917 3.24457 42.6489 3.5638 42.5932 3.9701H45.1656ZM45.8343 6.17563C45.7321 6.30332 45.6102 6.40783 45.4675 6.5007C45.3253 6.59357 45.172 6.66903 45.0077 6.72707C44.847 6.78511 44.6798 6.82572 44.5063 6.85474C44.3333 6.88957 44.1615 6.90115 43.9909 6.90115C43.6658 6.90115 43.3658 6.8489 43.0901 6.73862C42.8178 6.62834 42.581 6.46585 42.3796 6.2569C42.1817 6.04215 42.0267 5.78097 41.9153 5.46754C41.8038 5.15412 41.7481 4.79427 41.7481 4.38798C41.7481 4.06294 41.798 3.75528 41.8967 3.47088C41.9989 3.18647 42.1446 2.94276 42.3332 2.73381C42.5224 2.52486 42.7528 2.35648 43.0251 2.2404C43.2979 2.11851 43.6043 2.0605 43.9444 2.0605C44.2265 2.0605 44.4865 2.10694 44.7245 2.20561C44.966 2.29847 45.1738 2.43194 45.3467 2.61187C45.5232 2.786 45.6613 3.00656 45.76 3.27355C45.8592 3.52894 45.9085 3.83077 45.9085 4.16161C45.9085 4.2951 45.8946 4.38214 45.8668 4.42277C45.8389 4.46339 45.7867 4.4866 45.7089 4.4866H42.5654C42.5747 4.78262 42.6153 5.04385 42.6861 5.26441C42.7604 5.48497 42.8625 5.66487 42.9925 5.81578C43.1226 5.96088 43.2775 6.0712 43.4569 6.14665C43.6368 6.2163 43.8376 6.25109 44.0605 6.25109C44.2683 6.25109 44.4459 6.22788 44.5945 6.18144C44.7466 6.13501 44.8766 6.08276 44.9845 6.02472C45.0931 5.96668 45.183 5.92024 45.2538 5.87381C45.3281 5.82157 45.392 5.79835 45.4442 5.79835C45.5127 5.79835 45.565 5.82157 45.6021 5.87381L45.8343 6.17563ZM47.7038 2.815C47.8059 2.69892 47.9145 2.6003 48.0288 2.50744C48.1437 2.41457 48.2645 2.33329 48.391 2.26945C48.521 2.1998 48.6574 2.14755 48.7996 2.11272C48.9453 2.0779 49.1014 2.0605 49.2686 2.0605C49.5257 2.0605 49.7515 2.10112 49.9465 2.18818C50.145 2.27524 50.3087 2.39133 50.4387 2.55384C50.5722 2.70475 50.6726 2.89627 50.7405 3.11102C50.809 3.33158 50.8427 3.57536 50.8427 3.84235V6.83732H50.0115V3.84235C50.0115 3.4883 49.9297 3.20974 49.7654 3.0182C49.6046 2.81506 49.3586 2.71638 49.0271 2.71638C48.7828 2.71638 48.5535 2.78019 48.3399 2.89627C48.1298 3.01235 47.9348 3.17491 47.7549 3.37225V6.83732H46.9237V2.13596H47.4205C47.5384 2.13596 47.6109 2.18815 47.6388 2.30423L47.7038 2.815ZM53.483 6.91277C53.1115 6.91277 52.8254 6.80827 52.624 6.59933C52.426 6.39038 52.3268 6.09441 52.3268 5.70553V2.82662H51.7603C51.711 2.82662 51.6692 2.80924 51.6349 2.78602C51.6007 2.7512 51.5839 2.70477 51.5839 2.64673V2.31585L52.3546 2.21723L52.545 0.766189C52.5543 0.719755 52.5746 0.679084 52.6054 0.650063C52.6396 0.621042 52.6826 0.603655 52.7354 0.603655H53.1533V2.22885H54.5138V2.82662H53.1533V5.64743C53.1533 5.84478 53.2015 5.99569 53.2973 6.08856C53.393 6.18723 53.5172 6.23366 53.6687 6.23366C53.7552 6.23366 53.8295 6.22209 53.8916 6.19887C53.9566 6.17566 54.0123 6.15244 54.0587 6.12342C54.1052 6.09439 54.1441 6.07117 54.1748 6.04796C54.2091 6.02474 54.2381 6.0131 54.2631 6.0131C54.3066 6.0131 54.3449 6.03632 54.3791 6.08856L54.6206 6.48327C54.4784 6.61677 54.3066 6.7212 54.1052 6.80246C53.9038 6.87211 53.6966 6.91277 53.483 6.91277ZM62.6095 5.46173C62.6588 5.46173 62.7023 5.48494 62.7395 5.52557L63.097 5.90866C62.8248 6.22209 62.4934 6.47168 62.1033 6.6458C61.7162 6.82573 61.2472 6.91277 60.6964 6.91277C60.2199 6.91277 59.7863 6.83148 59.3963 6.66316C59.0062 6.50065 58.6736 6.26851 58.3979 5.96669C58.1222 5.67068 57.9086 5.31084 57.7571 4.89294C57.6057 4.47504 57.5296 4.01651 57.5296 3.51154C57.5296 3.01239 57.6086 2.55386 57.7664 2.13596C57.9243 1.71806 58.1455 1.35821 58.4305 1.0564C58.7183 0.75458 59.0619 0.522371 59.4613 0.359855C59.8606 0.191534 60.3017 0.110316 60.7846 0.110316C61.2582 0.110316 61.6761 0.185778 62.0383 0.336687C62.4005 0.487595 62.7192 0.696508 62.9948 0.95189L62.6977 1.36977C62.6791 1.39879 62.6541 1.42201 62.6234 1.44523C62.5955 1.46264 62.5566 1.47428 62.5073 1.47428C62.4516 1.47428 62.3837 1.44524 62.303 1.3872C62.2223 1.32336 62.1172 1.25372 61.9872 1.18407C61.8572 1.10862 61.6947 1.03898 61.4997 0.98094C61.3046 0.922898 61.0649 0.888053 60.78 0.888053C60.4364 0.888053 60.1224 0.951933 59.8374 1.06802C59.5524 1.1899 59.3063 1.35816 59.0991 1.58452C58.8948 1.81089 58.7352 2.08952 58.6208 2.41455C58.5065 2.73958 58.449 3.10525 58.449 3.51154C58.449 3.92944 58.5076 4.29513 58.6255 4.62016C58.7462 4.94519 58.9087 5.22375 59.113 5.45011C59.3202 5.67067 59.5634 5.8448 59.842 5.96088C60.1235 6.07696 60.4271 6.13503 60.7521 6.13503C60.95 6.13503 61.1282 6.1234 61.2861 6.10599C61.4469 6.07696 61.5943 6.04217 61.7272 5.98993C61.8636 5.9435 61.989 5.87961 62.1033 5.80416C62.2211 5.7287 62.3372 5.63585 62.4516 5.53138C62.5044 5.48495 62.5566 5.46173 62.6095 5.46173ZM65.8383 2.0605C66.1819 2.0605 66.4918 2.11857 66.767 2.22885C67.0426 2.34493 67.2777 2.50743 67.4727 2.71638C67.6678 2.93113 67.8163 3.18648 67.9185 3.48249C68.0241 3.78431 68.0764 4.11513 68.0764 4.48079C68.0764 4.85226 68.0241 5.18896 67.9185 5.48497C67.8163 5.78098 67.6678 6.03633 67.4727 6.24528C67.2777 6.46003 67.0426 6.62253 66.767 6.73281C66.4918 6.84889 66.1819 6.90115 65.8383 6.90115C65.4918 6.90115 65.1789 6.84889 64.9003 6.73281C64.6252 6.62253 64.3896 6.46003 64.1945 6.24528C63.9995 6.03633 63.8498 5.78098 63.7441 5.48497C63.642 5.18896 63.5909 4.85226 63.5909 4.48079C63.5909 4.11513 63.642 3.78431 63.7441 3.48249C63.8498 3.18648 63.9995 2.93113 64.1945 2.71638C64.3896 2.50743 64.6252 2.34493 64.9003 2.22885C65.1789 2.11857 65.4918 2.0605 65.8383 2.0605ZM65.8383 6.2569C66.3026 6.2569 66.6497 6.10016 66.8784 5.79254C67.1077 5.47911 67.222 5.0438 67.222 4.4866C67.222 3.9294 67.1077 3.48829 66.8784 3.18067C66.6497 2.86724 66.3026 2.71057 65.8383 2.71057C65.6032 2.71057 65.3972 2.75117 65.2207 2.83243C65.0478 2.90789 64.9021 3.02396 64.7842 3.18067C64.6699 3.33158 64.5834 3.51736 64.5242 3.73791C64.4685 3.95847 64.4406 4.208 64.4406 4.4866C64.4406 5.0438 64.5556 5.47911 64.7842 5.79254C65.0164 6.10016 65.3682 6.2569 65.8383 6.2569ZM72.9925 2.13596V6.83732H72.5003C72.383 6.83732 72.3088 6.77925 72.2774 6.66316L72.2124 6.1582C72.0081 6.38457 71.7794 6.57034 71.5252 6.70964C71.2716 6.84314 70.9808 6.91277 70.6523 6.91277C70.3957 6.91277 70.1682 6.87216 69.9697 6.7851C69.7747 6.69804 69.611 6.57615 69.4775 6.42524C69.3446 6.26853 69.2442 6.08274 69.1757 5.86219C69.1107 5.64163 69.0782 5.39792 69.0782 5.13093V2.13596H69.9047V5.13093C69.9047 5.49078 69.9854 5.76354 70.1461 5.96088C70.3104 6.15242 70.5594 6.25109 70.8937 6.25109C71.1386 6.25109 71.3662 6.19303 71.5763 6.08275C71.7899 5.96086 71.9866 5.80417 72.166 5.59522V2.13596H72.9925ZM75.0831 2.815C75.1853 2.69892 75.2938 2.6003 75.4082 2.50744C75.5231 2.41457 75.6438 2.33329 75.7704 2.26945C75.9004 2.1998 76.0368 2.14755 76.179 2.11272C76.3247 2.0779 76.4808 2.0605 76.6479 2.0605C76.9051 2.0605 77.1309 2.10112 77.3259 2.18818C77.5244 2.27524 77.6881 2.39133 77.8181 2.55384C77.9516 2.70475 78.052 2.89627 78.1199 3.11102C78.1884 3.33158 78.2221 3.57536 78.2221 3.84235V6.83732H77.3909V3.84235C77.3909 3.4883 77.309 3.20974 77.1448 3.0182C76.984 2.81506 76.7379 2.71638 76.4065 2.71638C76.1622 2.71638 75.9329 2.78019 75.7193 2.89627C75.5092 3.01235 75.3142 3.17491 75.1342 3.37225V6.83732H74.3031V2.13596H74.7999C74.9177 2.13596 74.9903 2.18815 75.0181 2.30423L75.0831 2.815ZM80.8624 6.91277C80.4909 6.91277 80.2042 6.80827 80.0033 6.59933C79.8048 6.39038 79.7062 6.09441 79.7062 5.70553V2.82662H79.1397C79.0898 2.82662 79.048 2.80924 79.0143 2.78602C78.9801 2.7512 78.9632 2.70477 78.9632 2.64673V2.31585L79.734 2.21723L79.9244 0.766189C79.9337 0.719755 79.9534 0.679084 79.9848 0.650063C80.0184 0.621042 80.062 0.603655 80.1148 0.603655H80.5327V2.22885H81.8932V2.82662H80.5327V5.64743C80.5327 5.84478 80.5803 5.99569 80.6766 6.08856C80.7724 6.18723 80.896 6.23366 81.0481 6.23366C81.1345 6.23366 81.2089 6.22209 81.271 6.19887C81.336 6.17566 81.3917 6.15244 81.4381 6.12342C81.4846 6.09439 81.5229 6.07117 81.5542 6.04796C81.5879 6.02474 81.6175 6.0131 81.6424 6.0131C81.6854 6.0131 81.7243 6.03632 81.7585 6.08856L82 6.48327C81.8572 6.61677 81.6854 6.7212 81.4846 6.80246C81.2831 6.87211 81.076 6.91277 80.8624 6.91277Z" fill="#007879"/>
</svg>
