<svg width="69" height="11" viewBox="0 0 69 11" fill="none" xmlns="http://www.w3.org/2000/svg">
<path d="M4.03398 0C5.08286 0 5.99056 0.39518 6.75702 1.19709C7.52756 1.9932 7.9128 2.98709 7.9128 4.17834C7.9128 5.40445 7.52581 6.42123 6.75121 7.23477C5.97661 8.04249 5.03928 8.44917 3.93868 8.44917C2.82646 8.44917 1.89091 8.054 1.13258 7.26371C0.377734 6.47342 0 5.45081 0 4.19564C0 2.91142 0.43701 1.86535 1.31098 1.05182C2.06989 0.348692 2.97755 0 4.03398 0ZM3.92067 0.435823C3.19778 0.435823 2.61787 0.703343 2.18089 1.23795C1.63698 1.90621 1.36443 2.88234 1.36443 4.17238C1.36443 5.49147 1.64684 6.50271 2.2105 7.21746C2.644 7.75207 3.21579 8.02498 3.92705 8.02498C4.68538 8.02498 5.31125 7.72875 5.80402 7.13603C6.30027 6.54331 6.5484 5.61366 6.5484 4.33524C6.5484 2.95223 6.27646 1.92351 5.73255 1.24363C5.29557 0.703207 4.69178 0.435823 3.92067 0.435823ZM13.5558 2.80674V6.11315C13.5558 6.74655 13.5698 7.13007 13.5977 7.27534C13.6291 7.41481 13.6767 7.50778 13.7406 7.56589C13.808 7.624 13.8853 7.64732 13.9731 7.64732C14.0963 7.64732 14.2351 7.61832 14.3897 7.54858L14.4734 7.7577L12.8405 8.43186H12.5726V7.27534C12.1037 7.7809 11.7463 8.10073 11.4999 8.23438C11.2535 8.36222 10.9938 8.43186 10.7195 8.43186C10.4138 8.43186 10.1477 8.34458 9.92106 8.17025C9.6985 7.99012 9.54394 7.76367 9.45619 7.48474C9.36903 7.20582 9.32546 6.81051 9.32546 6.30496V3.86452C9.32546 3.60884 9.29758 3.42846 9.24179 3.32967C9.18601 3.23089 9.10289 3.15555 8.99132 3.10325C8.8844 3.04514 8.6874 3.02196 8.4015 3.02778V2.80674H10.3145V6.45619C10.3145 6.96755 10.4017 7.29877 10.5766 7.46148C10.7556 7.61837 10.97 7.69953 11.2198 7.69953C11.3907 7.69953 11.5836 7.64155 11.798 7.53695C12.0165 7.42654 12.2745 7.22312 12.5726 6.92095V3.82962C12.5726 3.52164 12.5151 3.3124 12.4001 3.20199C12.2885 3.09158 12.0543 3.03359 11.6969 3.02778V2.80674H13.5558ZM16.4695 2.64416V3.8702C16.9262 3.05085 17.3951 2.64416 17.8757 2.64416C18.0942 2.64416 18.2749 2.71395 18.4179 2.8476C18.5608 2.97544 18.6323 3.13236 18.6323 3.30669C18.6323 3.46359 18.5806 3.59125 18.4777 3.70165C18.3743 3.80625 18.2511 3.85856 18.1082 3.85856C17.9693 3.85856 17.8124 3.79458 17.6375 3.65512C17.4666 3.51566 17.3394 3.44601 17.2563 3.44601C17.1848 3.44601 17.1069 3.48666 17.0238 3.56801C16.8448 3.73072 16.6601 3.99796 16.4695 4.36986V6.99075C16.4695 7.29292 16.5072 7.51951 16.5828 7.67059C16.6345 7.781 16.7257 7.86829 16.8571 7.94383C16.9878 8.01356 17.1767 8.04825 17.423 8.04825V8.26332H14.6285V8.04825C14.9063 8.04825 15.1132 8.00773 15.248 7.92056C15.3474 7.85664 15.4171 7.75189 15.4566 7.61243C15.4764 7.5485 15.4862 7.35108 15.4862 7.03729V4.92201C15.4862 4.28281 15.4723 3.90498 15.4444 3.78876C15.4206 3.66673 15.3729 3.57378 15.3015 3.52148C15.2341 3.46337 15.1486 3.43437 15.0452 3.43437C14.922 3.43437 14.7831 3.46933 14.6285 3.52744L14.5687 3.31237L16.219 2.64416H16.4695ZM28.9526 0L29.1374 2.7429H28.9526C28.7062 1.92356 28.3546 1.33095 27.8979 0.97067C27.4412 0.61039 26.8932 0.430148 26.2534 0.430148C25.717 0.430148 25.2324 0.563914 24.7995 0.837029C24.3666 1.11014 24.0249 1.54001 23.7744 2.13854C23.5286 2.73126 23.4054 3.47496 23.4054 4.35823C23.4054 5.09041 23.5222 5.72381 23.757 6.25842C23.9912 6.79884 24.3427 7.21164 24.8117 7.49638C25.2841 7.78111 25.8222 7.92624 26.426 7.92624C26.9507 7.92624 27.4133 7.80998 27.8148 7.58916C28.2158 7.36253 28.6568 6.91505 29.1374 6.24679L29.3222 6.36908C28.9166 7.08964 28.4441 7.61247 27.9037 7.94951C27.3639 8.28073 26.7223 8.44917 25.9791 8.44917C24.6408 8.44917 23.6036 7.94953 22.8691 6.95585C22.3205 6.21786 22.0468 5.35189 22.0468 4.34659C22.0468 3.54468 22.2276 2.80098 22.589 2.12691C22.9504 1.45283 23.4467 0.930016 24.0783 0.558114C24.7141 0.186212 25.4073 0 26.1581 0C26.7421 0 27.318 0.139599 27.8863 0.430148C28.053 0.517312 28.1722 0.558114 28.2436 0.558114C28.3506 0.558114 28.4441 0.522998 28.5237 0.447456C28.6266 0.337048 28.7004 0.191762 28.744 0H28.9526ZM32.796 2.64416C33.6223 2.64416 34.2853 2.95802 34.7862 3.58561C35.211 4.12021 35.4237 4.736 35.4237 5.43331C35.4237 5.92143 35.3063 6.41554 35.0721 6.91528C34.8374 7.41502 34.5137 7.79256 34.1005 8.04825C33.6914 8.30393 33.2347 8.43186 32.7303 8.43186C31.908 8.43186 31.2543 8.10067 30.7697 7.44984C30.3606 6.8978 30.156 6.27591 30.156 5.59022C30.156 5.08467 30.2792 4.59084 30.5256 4.0969C30.7761 3.60297 31.1038 3.23695 31.5088 3.00451C31.9139 2.76626 32.3427 2.64416 32.796 2.64416ZM32.6111 3.03345C32.4008 3.03345 32.1881 3.09742 31.9737 3.22526C31.7628 3.34729 31.5919 3.56236 31.4612 3.87615C31.3299 4.18995 31.2648 4.59648 31.2648 5.0846C31.2648 5.8807 31.4217 6.56642 31.7355 7.1417C32.0527 7.71699 32.47 8.00767 32.9866 8.00767C33.3718 8.00767 33.6897 7.85088 33.9401 7.53128C34.19 7.21167 34.3155 6.66526 34.3155 5.8924C34.3155 4.92197 34.1069 4.16077 33.6897 3.60291C33.4078 3.2252 33.0481 3.03345 32.6111 3.03345ZM37.8486 3.80635C38.246 3.41121 38.4802 3.17867 38.5517 3.12056C38.7307 2.96947 38.923 2.8532 39.1299 2.77184C39.3362 2.68468 39.5408 2.64416 39.7436 2.64416C40.0852 2.64416 40.3793 2.74281 40.6251 2.94038C40.8715 3.14377 41.0365 3.42864 41.1196 3.80635C41.5293 3.32985 41.8744 3.01614 42.1568 2.87087C42.4387 2.71978 42.7286 2.64416 43.0267 2.64416C43.3167 2.64416 43.573 2.71978 43.795 2.87087C44.0216 3.01614 44.2005 3.2602 44.3313 3.59724C44.419 3.82968 44.4626 4.18974 44.4626 4.68367V7.03133C44.4626 7.37417 44.4882 7.60659 44.5399 7.73443C44.58 7.8216 44.6532 7.89722 44.7607 7.96114C44.8677 8.01925 45.0426 8.04825 45.2849 8.04825V8.26332H42.5915V8.04825H42.7048C42.939 8.04825 43.1221 8.00177 43.2528 7.91461C43.3446 7.85069 43.4097 7.74621 43.4498 7.60675C43.4655 7.54283 43.4736 7.34512 43.4736 7.03133V4.68367C43.4736 4.23623 43.4196 3.92265 43.3126 3.74251C43.1575 3.48683 42.9094 3.3589 42.5677 3.3589C42.3573 3.3589 42.1447 3.41107 41.9302 3.52148C41.7199 3.62608 41.4636 3.81784 41.1614 4.10258L41.1498 4.17238L41.1614 4.42803V7.03133C41.1614 7.40323 41.1812 7.63578 41.2213 7.72876C41.2649 7.81592 41.3445 7.89722 41.4595 7.96114C41.5746 8.01925 41.7716 8.04825 42.0493 8.04825V8.26332H39.2909V8.04825C39.5925 8.04825 39.7993 8.01356 39.9103 7.94383C40.0254 7.86829 40.105 7.76366 40.1486 7.61838C40.1683 7.55446 40.1782 7.35674 40.1782 7.03133V4.68367C40.1782 4.23623 40.1131 3.91668 39.9818 3.72492C39.8069 3.46924 39.5628 3.34131 39.249 3.34131C39.0346 3.34131 38.8219 3.39959 38.6116 3.51581C38.2815 3.69014 38.0276 3.88757 37.8486 4.10258V7.03133C37.8486 7.3858 37.8724 7.61835 37.9201 7.72876C37.9718 7.83336 38.045 7.91466 38.1409 7.97277C38.2397 8.02507 38.4384 8.04825 38.7365 8.04825V8.26332H36.0373V8.04825C36.2878 8.04825 36.4621 8.02507 36.5615 7.97277C36.6608 7.91466 36.7364 7.82753 36.7881 7.71712C36.8398 7.59509 36.8654 7.36836 36.8654 7.03133V4.94528C36.8654 4.34675 36.8473 3.95742 36.8119 3.78309C36.784 3.64944 36.7405 3.56229 36.6806 3.51581C36.6213 3.46351 36.5399 3.43437 36.4365 3.43437C36.3255 3.43437 36.1925 3.46933 36.0373 3.52744L35.9478 3.31237L37.5923 2.64416H37.8486V3.80635ZM45.3325 3.34727L47.0131 2.66743H47.2391V3.94567C47.5215 3.46336 47.8034 3.12647 48.0852 2.93471C48.3711 2.74295 48.6715 2.64416 48.9853 2.64416C49.5333 2.64416 49.99 2.85909 50.3555 3.2891C50.8047 3.81209 51.029 4.49794 51.029 5.34053C51.029 6.28191 50.7588 7.06044 50.2184 7.67059C49.7739 8.17615 49.2137 8.43186 48.5385 8.43186C48.2444 8.43186 47.9899 8.39106 47.7755 8.3039C47.6168 8.24579 47.4379 8.12384 47.2391 7.94951V9.61136C47.2391 9.98327 47.2612 10.2216 47.3048 10.3204C47.3524 10.425 47.432 10.5063 47.543 10.5644C47.6581 10.6226 47.8649 10.6516 48.163 10.6516V10.8726H45.3029V10.6516H45.4517C45.6702 10.6574 45.8567 10.6167 46.0118 10.5295C46.0874 10.4831 46.1449 10.4133 46.1844 10.3145C46.2286 10.2157 46.2501 9.97161 46.2501 9.57646V4.41639C46.2501 4.06192 46.2344 3.83549 46.2024 3.74251C46.1705 3.64373 46.1193 3.57393 46.0473 3.52744C45.9799 3.48095 45.8869 3.45764 45.7678 3.45764C45.6719 3.45764 45.551 3.48096 45.404 3.53907L45.3325 3.34727ZM47.2391 4.29439V6.33418C47.2391 6.77582 47.2571 7.06622 47.2932 7.19987C47.3484 7.43231 47.4837 7.63586 47.6982 7.81019C47.9167 7.98452 48.1904 8.07151 48.5204 8.07151C48.9173 8.07151 49.2392 7.92054 49.4856 7.60675C49.8075 7.19998 49.9685 6.63054 49.9685 5.89836C49.9685 5.06158 49.7855 4.42234 49.42 3.9749C49.166 3.6611 48.8639 3.50985 48.5146 3.50985C48.3235 3.50985 48.1352 3.55647 47.948 3.64945C47.8051 3.72499 47.5692 3.93992 47.2391 4.29439ZM54.9201 7.47878C54.3599 7.9088 54.0083 8.15869 53.8654 8.22842C53.6504 8.32721 53.422 8.3737 53.1797 8.3737C52.8026 8.3737 52.4905 8.24576 52.2447 7.99008C52.0024 7.72859 51.8809 7.39169 51.8809 6.96749C51.8809 6.70599 51.9408 6.47345 52.0599 6.28169C52.2226 6.00857 52.5044 5.75299 52.906 5.51475C53.311 5.27649 53.9822 4.98581 54.9201 4.64877V4.43398C54.9201 3.88775 54.8323 3.51575 54.6574 3.31237C54.4866 3.10898 54.2367 3.01018 53.9066 3.01018C53.6568 3.01018 53.458 3.07401 53.311 3.20767C53.1599 3.34713 53.0844 3.49838 53.0844 3.67271L53.0966 4.02143C53.0966 4.20157 53.0489 4.34683 52.9536 4.44562C52.8624 4.5444 52.7409 4.59089 52.5899 4.59089C52.4428 4.59089 52.322 4.53845 52.2267 4.43966C52.1354 4.33506 52.0895 4.19561 52.0895 4.01547C52.0895 3.67262 52.2645 3.35876 52.6137 3.07402C52.9635 2.78929 53.4539 2.64416 54.0856 2.64416C54.5702 2.64416 54.9677 2.72547 55.2774 2.88818C55.5116 3.01021 55.6842 3.20197 55.7958 3.46927C55.8672 3.63779 55.9027 3.98634 55.9027 4.51513V6.36908C55.9027 6.88626 55.9131 7.21162 55.9329 7.32784C55.9527 7.44405 55.9846 7.51954 56.0282 7.56022C56.0759 7.60089 56.1293 7.61838 56.1892 7.61838C56.2525 7.61838 56.3083 7.60658 56.3559 7.57752C56.439 7.52523 56.6 7.37995 56.8382 7.1417V7.47878C56.3937 8.0715 55.9684 8.36802 55.5633 8.36802C55.3687 8.36802 55.2135 8.30391 55.0985 8.17025C54.9834 8.03079 54.9236 7.8042 54.9201 7.47878ZM54.9201 7.08949V5.00912C54.3198 5.24737 53.9328 5.41596 53.7579 5.51475C53.4441 5.68907 53.2198 5.87514 53.0844 6.0669C52.9496 6.25285 52.8821 6.46194 52.8821 6.68857C52.8821 6.97912 52.9676 7.21736 53.1384 7.40331C53.3092 7.58926 53.5057 7.6879 53.7282 7.6879C54.0298 7.6879 54.4273 7.48464 54.9201 7.08949ZM58.8407 3.8004C59.4799 3.02754 60.0901 2.64416 60.67 2.64416C60.9675 2.64416 61.2238 2.71978 61.4382 2.87087C61.6526 3.01614 61.8235 3.26007 61.9508 3.60291C62.0385 3.84116 62.0821 4.20733 62.0821 4.70127V7.03133C62.0821 7.37417 62.11 7.6124 62.1652 7.73443C62.2087 7.83322 62.2785 7.90899 62.3738 7.9671C62.4731 8.0194 62.6539 8.04825 62.9159 8.04825V8.26332H60.2168V8.04825H60.3301C60.5846 8.04825 60.7612 8.01342 60.8606 7.93787C60.9635 7.85652 61.0349 7.74024 61.075 7.58916C61.0907 7.53105 61.0989 7.34512 61.0989 7.03133V4.79405C61.0989 4.30012 61.0332 3.94006 60.9019 3.71925C60.7752 3.49262 60.5584 3.37621 60.2528 3.37621C59.7798 3.37621 59.3091 3.63775 58.8407 4.14911V7.03133C58.8407 7.39742 58.8622 7.62996 58.9058 7.71712C58.9616 7.82753 59.0371 7.91466 59.1324 7.97277C59.2318 8.02507 59.4305 8.04825 59.7281 8.04825V8.26332H57.0288V8.04825H57.148C57.4263 8.04825 57.6129 7.9786 57.7082 7.83913C57.8075 7.69967 57.8575 7.42647 57.8575 7.03133V5.00345C57.8575 4.34681 57.8412 3.95163 57.8098 3.80635C57.7819 3.66108 57.7361 3.5681 57.6727 3.51581C57.6129 3.46351 57.5315 3.43437 57.4281 3.43437C57.3171 3.43437 57.184 3.46933 57.0288 3.52744L56.9399 3.31237L58.5844 2.64416H58.8407V3.8004ZM63.0414 2.80674H65.5855V3.02778H65.4606C65.2816 3.02778 65.1468 3.06828 65.055 3.14382C64.9678 3.21937 64.9242 3.31829 64.9242 3.4287C64.9242 3.58559 64.9899 3.80052 65.1206 4.07364L66.4496 6.82789L67.6711 3.81203C67.7385 3.64932 67.7722 3.48657 67.7722 3.32967C67.7722 3.25994 67.7582 3.20196 67.7303 3.16709C67.699 3.12641 67.649 3.09159 67.5816 3.06835C67.5142 3.0393 67.395 3.02778 67.2242 3.02778V2.80674H69V3.02778C68.853 3.0394 68.7397 3.07407 68.6601 3.12056C68.5805 3.16705 68.4933 3.26 68.398 3.38784C68.362 3.44595 68.2946 3.59706 68.1952 3.84693L65.9731 9.29187C65.7581 9.82067 65.4762 10.2217 65.1264 10.489C64.7813 10.7621 64.4477 10.8956 64.1258 10.8956C63.8916 10.8956 63.6987 10.8319 63.5476 10.6924C63.3965 10.5588 63.3215 10.4017 63.3215 10.2274C63.3215 10.0647 63.375 9.92522 63.4819 9.82644C63.5935 9.72765 63.7446 9.67549 63.9352 9.67549C64.0659 9.67549 64.2449 9.72196 64.4715 9.80913C64.6302 9.86724 64.7296 9.89624 64.7691 9.89624C64.8882 9.89624 65.0172 9.83242 65.1567 9.71039C65.2996 9.58836 65.4426 9.34984 65.5855 8.99537L65.9731 8.04825L64.0125 3.93404C63.9526 3.8062 63.8573 3.65509 63.7266 3.47495C63.6272 3.33548 63.5458 3.24266 63.4819 3.19036C63.3907 3.12644 63.2437 3.07426 63.0414 3.02778V2.80674Z" fill="white"/>
</svg>
