<svg width="49" height="9" viewBox="0 0 49 9" fill="none" xmlns="http://www.w3.org/2000/svg">
<path d="M5.45411 0.187807V6.91732H4.54274V3.85191H0.911366V6.91732H0V0.187807H0.911366V3.18842H4.54274V0.187807H5.45411ZM10.0162 4.01649C10.0162 3.82271 9.98803 3.6466 9.93166 3.48805C9.87822 3.32363 9.79835 3.18859 9.69206 3.07115C9.58871 2.9537 9.46186 2.85962 9.31154 2.79503C9.16121 2.73043 8.99032 2.70098 8.79948 2.70098C8.3984 2.70098 8.08074 2.81848 7.84585 3.05337C7.6139 3.28238 7.47002 3.60544 7.41365 4.01649H10.0162ZM10.6927 6.24781C10.5893 6.377 10.4654 6.48273 10.3216 6.57669C10.1777 6.67064 10.0226 6.74706 9.85646 6.80578C9.6938 6.8645 9.52471 6.90545 9.34913 6.93481C9.17356 6.97004 8.99974 6.98183 8.82768 6.98183C8.49884 6.98183 8.19525 6.92911 7.91632 6.81754C7.64091 6.70597 7.40133 6.5415 7.19756 6.3301C6.99732 6.11283 6.84054 5.84866 6.72779 5.53156C6.61505 5.21446 6.55866 4.85018 6.55866 4.43913C6.55866 4.11028 6.60856 3.7993 6.70898 3.51156C6.81233 3.22382 6.95973 2.97718 7.15057 2.76578C7.34142 2.55438 7.57514 2.38403 7.85055 2.26659C8.12595 2.14327 8.436 2.08451 8.78069 2.08451C9.0655 2.08451 9.32857 2.13149 9.56991 2.23132C9.8142 2.32527 10.0238 2.46045 10.1994 2.64249C10.3779 2.81865 10.5171 3.04159 10.6175 3.31171C10.7179 3.57009 10.7678 3.8756 10.7678 4.21032C10.7678 4.34538 10.7538 4.43329 10.7256 4.47439C10.6974 4.5155 10.6439 4.5392 10.5658 4.5392H7.38547C7.39487 4.83868 7.43536 5.10283 7.50759 5.32598C7.58275 5.54912 7.68611 5.73127 7.81765 5.88395C7.94918 6.03076 8.10596 6.14222 8.28741 6.21856C8.46887 6.28903 8.67265 6.32437 8.89815 6.32437C9.10778 6.32437 9.28805 6.30081 9.43838 6.25383C9.59164 6.20685 9.72318 6.15399 9.83299 6.09527C9.9428 6.03655 10.0332 5.98942 10.1055 5.94244C10.1806 5.88959 10.2446 5.86617 10.2981 5.86617C10.3668 5.86617 10.4202 5.88959 10.4578 5.94244L10.6927 6.24781ZM12.6593 0V6.91732H11.8231V0H12.6593ZM14.8566 5.77213C15.0099 5.97765 15.1773 6.1246 15.3593 6.20681C15.5408 6.29489 15.7445 6.33583 15.97 6.33583C16.4145 6.33583 16.7557 6.17754 16.9941 5.86044C17.232 5.54334 17.3511 5.09101 17.3511 4.50966C17.3511 4.19844 17.323 3.9284 17.2666 3.71112C17.2132 3.48798 17.1351 3.30584 17.0317 3.16491C16.9284 3.0181 16.8015 2.91238 16.6512 2.84779C16.5009 2.78319 16.33 2.748 16.1391 2.748C15.8667 2.748 15.6271 2.81278 15.4204 2.9361C15.2166 3.06529 15.0287 3.24126 14.8566 3.47027V5.77213ZM14.8144 2.89481C15.0146 2.64818 15.2466 2.44866 15.5096 2.30185C15.7727 2.14918 16.0734 2.07276 16.4116 2.07276C16.687 2.07276 16.936 2.12562 17.1586 2.23132C17.3805 2.33702 17.5702 2.48958 17.727 2.70098C17.8832 2.90063 18.0042 3.15316 18.0887 3.45852C18.1733 3.76387 18.2156 4.11035 18.2156 4.50966C18.2156 4.85612 18.1686 5.18492 18.074 5.49027C17.9807 5.78975 17.8444 6.05405 17.6659 6.27132C17.4903 6.49446 17.2742 6.66484 17.0176 6.79403C16.7639 6.92321 16.4774 6.98183 16.1579 6.98183C15.8667 6.98183 15.6159 6.93486 15.4063 6.83503C15.1996 6.7352 15.0164 6.60031 14.8566 6.42415V8.52644H14.0157V2.16078H14.5184C14.637 2.16078 14.711 2.21366 14.7392 2.3311L14.8144 2.89481ZM26.6093 5.52554C26.6592 5.52554 26.7032 5.54924 26.7408 5.59034L27.1025 5.97771C26.8271 6.29481 26.4918 6.54733 26.0972 6.72349C25.7055 6.90553 25.2311 6.99359 24.6738 6.99359C24.1917 6.99359 23.753 6.91156 23.3584 6.74127C22.9638 6.57685 22.6273 6.34184 22.3484 6.03649C22.0695 5.73701 21.8534 5.37287 21.7001 4.95008C21.5468 4.52728 21.4699 4.06344 21.4699 3.55256C21.4699 3.04755 21.5498 2.58358 21.7095 2.16078C21.8692 1.73799 22.093 1.37399 22.3813 1.06864C22.6726 0.763282 23.0202 0.52828 23.4242 0.363858C23.8282 0.193565 24.2745 0.111537 24.763 0.111537C25.2422 0.111537 25.665 0.187669 26.0315 0.340346C26.3979 0.493024 26.7203 0.704457 26.9992 0.962834L26.6985 1.38576C26.6797 1.41512 26.6545 1.43854 26.6234 1.46203C26.5952 1.47964 26.5558 1.49127 26.5059 1.49127C26.4495 1.49127 26.3808 1.46197 26.2992 1.40325C26.2176 1.33865 26.1113 1.26813 25.9798 1.19766C25.8482 1.12133 25.6838 1.05109 25.4865 0.992367C25.2892 0.933645 25.0467 0.89832 24.7583 0.89832C24.4107 0.89832 24.093 0.962948 23.8047 1.08039C23.5164 1.20371 23.2674 1.37408 23.0578 1.6031C22.8511 1.83211 22.6896 2.1138 22.5739 2.44264C22.4582 2.77148 22.4001 3.14151 22.4001 3.55256C22.4001 3.97536 22.4594 4.3454 22.5786 4.67424C22.7007 5.00309 22.8651 5.28477 23.0718 5.51378C23.2815 5.73693 23.5275 5.91331 23.8094 6.03076C24.0942 6.1482 24.4013 6.20681 24.7302 6.20681C24.9304 6.20681 25.1107 6.19518 25.2704 6.17756C25.4331 6.1482 25.5822 6.11285 25.7167 6.06C25.8547 6.01302 25.9815 5.94853 26.0972 5.8722C26.2164 5.79586 26.3339 5.70178 26.4495 5.59608C26.503 5.5491 26.5558 5.52554 26.6093 5.52554ZM31.0551 4.01649C31.0551 3.82271 31.0269 3.6466 30.9706 3.48805C30.9177 3.32363 30.8378 3.18859 30.731 3.07115C30.6276 2.9537 30.5008 2.85962 30.3504 2.79503C30.2001 2.73043 30.0298 2.70098 29.8384 2.70098C29.4379 2.70098 29.1196 2.81848 28.8848 3.05337C28.6534 3.28238 28.5089 3.60544 28.4525 4.01649H31.0551ZM31.7316 6.24781C31.6282 6.377 31.5049 6.48273 31.3605 6.57669C31.2166 6.67064 31.0615 6.74706 30.8954 6.80578C30.7327 6.8645 30.5636 6.90545 30.388 6.93481C30.213 6.97004 30.0392 6.98183 29.8666 6.98183C29.5377 6.98183 29.2341 6.92911 28.9552 6.81754C28.6798 6.70597 28.4402 6.5415 28.2365 6.3301C28.0362 6.11283 27.8794 5.84866 27.7667 5.53156C27.6539 5.21446 27.5976 4.85018 27.5976 4.43913C27.5976 4.11028 27.6481 3.7993 27.7479 3.51156C27.8512 3.22382 27.9986 2.97718 28.1895 2.76578C28.3809 2.55438 28.614 2.38403 28.8894 2.26659C29.1654 2.14327 29.4755 2.08451 29.8196 2.08451C30.105 2.08451 30.3681 2.13149 30.6088 2.23132C30.8531 2.32527 31.0633 2.46045 31.2383 2.64249C31.4168 2.81865 31.5566 3.04159 31.6564 3.31171C31.7568 3.57009 31.8067 3.8756 31.8067 4.21032C31.8067 4.34538 31.7927 4.43329 31.7645 4.47439C31.7363 4.5155 31.6834 4.5392 31.6047 4.5392H28.4244C28.4338 4.83868 28.4748 5.10283 28.5465 5.32598C28.6217 5.54912 28.725 5.73127 28.8565 5.88395C28.9881 6.03076 29.1449 6.14222 29.3263 6.21856C29.5084 6.28903 29.7116 6.32437 29.937 6.32437C30.1473 6.32437 30.327 6.30081 30.4773 6.25383C30.6311 6.20685 30.7627 6.15399 30.8719 6.09527C30.9817 6.03655 31.0727 5.98942 31.1444 5.94244C31.2195 5.88959 31.2841 5.86617 31.337 5.86617C31.4063 5.86617 31.4591 5.88959 31.4967 5.94244L31.7316 6.24781ZM33.623 2.84779C33.7264 2.73034 33.8362 2.63064 33.9519 2.53668C34.0681 2.44273 34.1903 2.36043 34.3183 2.29583C34.4498 2.22537 34.5878 2.17251 34.7317 2.13727C34.8791 2.10204 35.037 2.08451 35.2061 2.08451C35.4663 2.08451 35.6947 2.12575 35.892 2.21383C36.0929 2.30191 36.2585 2.41929 36.39 2.58371C36.5251 2.73639 36.6266 2.93014 36.6953 3.14742C36.7646 3.37056 36.7987 3.61705 36.7987 3.88717V6.91732H35.9578V3.88717C35.9578 3.52897 35.875 3.24715 35.7088 3.05337C35.5462 2.84784 35.2972 2.748 34.9619 2.748C34.7147 2.748 34.4827 2.81263 34.2666 2.93008C34.054 3.04752 33.8567 3.21184 33.6747 3.41149V6.91732H32.8338V2.16078H33.3365C33.4557 2.16078 33.5291 2.21366 33.5572 2.3311L33.623 2.84779ZM39.47 6.99359C39.0942 6.99359 38.8046 6.88787 38.6009 6.67647C38.4006 6.46507 38.3002 6.16556 38.3002 5.77213V2.85954H37.7271C37.6772 2.85954 37.6349 2.84203 37.6003 2.81854C37.5656 2.78331 37.5486 2.73619 37.5486 2.67747V2.34286L38.3284 2.24308L38.521 0.775027C38.5304 0.728049 38.551 0.686829 38.5821 0.657468C38.6167 0.628107 38.6602 0.610444 38.7136 0.610444H39.1364V2.25483H40.5129V2.85954H39.1364V5.71363C39.1364 5.91329 39.1852 6.06583 39.2821 6.15978C39.379 6.25961 39.5046 6.30659 39.6579 6.30659C39.7453 6.30659 39.8205 6.29481 39.8834 6.27132C39.9491 6.24783 40.0055 6.22441 40.0525 6.19505C40.0995 6.16569 40.1388 6.14227 40.1699 6.11878C40.2046 6.09529 40.2339 6.08351 40.2592 6.08351C40.3032 6.08351 40.342 6.10693 40.3766 6.15978L40.6209 6.5592C40.477 6.69426 40.3032 6.79984 40.0995 6.88205C39.8957 6.95252 39.6861 6.99359 39.47 6.99359ZM44.5336 4.01649C44.5336 3.82271 44.5054 3.6466 44.449 3.48805C44.3962 3.32363 44.3163 3.18859 44.2094 3.07115C44.1061 2.9537 43.9792 2.85962 43.8289 2.79503C43.6786 2.73043 43.5083 2.70098 43.3168 2.70098C42.9163 2.70098 42.5981 2.81848 42.3632 3.05337C42.1318 3.28238 41.9874 3.60544 41.931 4.01649H44.5336ZM45.21 6.24781C45.1067 6.377 44.9834 6.48273 44.8389 6.57669C44.6951 6.67064 44.54 6.74706 44.3738 6.80578C44.2112 6.8645 44.0421 6.90545 43.8665 6.93481C43.6915 6.97004 43.5177 6.98183 43.345 6.98183C43.0162 6.98183 42.7126 6.92911 42.4337 6.81754C42.1583 6.70597 41.9187 6.5415 41.7149 6.3301C41.5147 6.11283 41.3579 5.84866 41.2451 5.53156C41.1324 5.21446 41.076 4.85018 41.076 4.43913C41.076 4.11028 41.1265 3.7993 41.2263 3.51156C41.3297 3.22382 41.4771 2.97718 41.6679 2.76578C41.8594 2.55438 42.0925 2.38403 42.3679 2.26659C42.6439 2.14327 42.9539 2.08451 43.298 2.08451C43.5834 2.08451 43.8465 2.13149 44.0873 2.23132C44.3315 2.32527 44.5418 2.46045 44.7168 2.64249C44.8953 2.81865 45.035 3.04159 45.1349 3.31171C45.2353 3.57009 45.2852 3.8756 45.2852 4.21032C45.2852 4.34538 45.2711 4.43329 45.2429 4.47439C45.2147 4.5155 45.1619 4.5392 45.0832 4.5392H41.9028C41.9122 4.83868 41.9533 5.10283 42.0249 5.32598C42.1001 5.54912 42.2035 5.73127 42.335 5.88395C42.4665 6.03076 42.6233 6.14222 42.8048 6.21856C42.9868 6.28903 43.19 6.32437 43.4155 6.32437C43.6257 6.32437 43.8054 6.30081 43.9557 6.25383C44.1096 6.20685 44.2411 6.15399 44.3503 6.09527C44.4601 6.03655 44.5512 5.98942 44.6228 5.94244C44.698 5.88959 44.7626 5.86617 44.8154 5.86617C44.8847 5.86617 44.9376 5.88959 44.9752 5.94244L45.21 6.24781ZM47.1068 3.11215C47.2571 2.78918 47.4415 2.53092 47.6611 2.34888C47.8801 2.16684 48.1479 2.07276 48.4644 2.07276C48.5642 2.07276 48.66 2.08454 48.751 2.10803C48.8449 2.13152 48.9277 2.16083 49 2.20781L48.9389 2.83603C48.9201 2.91237 48.8731 2.95359 48.7979 2.95359C48.7539 2.95359 48.6899 2.94196 48.6053 2.92434C48.5208 2.90673 48.4251 2.89481 48.3188 2.89481C48.1684 2.89481 48.0334 2.91822 47.9148 2.95932C47.7985 3.0063 47.694 3.07109 47.6 3.15917C47.509 3.24138 47.4262 3.35298 47.351 3.47629C47.2788 3.60548 47.213 3.74627 47.1537 3.91069V6.91732H46.3128V2.16078H46.792C46.8824 2.16078 46.9453 2.17845 46.9799 2.20781C47.014 2.24304 47.0375 2.3018 47.0504 2.38988L47.1068 3.11215Z" fill="white"/>
</svg>
