<svg width="5" height="15" viewBox="0 0 5 15" fill="none" xmlns="http://www.w3.org/2000/svg">
<path d="M2.5002 0C2.79575 0 3.04522 0.105501 3.24922 0.316442C3.45997 0.520379 3.56566 0.770031 3.56566 1.0654C3.56566 1.36076 3.45997 1.61392 3.24922 1.82492C3.04522 2.03586 2.79575 2.14136 2.5002 2.14136C2.20465 2.14136 1.95149 2.03586 1.74074 1.82492C1.52998 1.61392 1.42429 1.36076 1.42429 1.0654C1.42429 0.770031 1.52629 0.520379 1.73029 0.316442C1.94105 0.105501 2.19789 0 2.5002 0ZM3.3758 5.05276V12.8165C3.3758 13.4212 3.41819 13.8256 3.50237 14.0295C3.59392 14.2265 3.72357 14.3741 3.89255 14.4725C4.06828 14.571 4.38472 14.6203 4.84187 14.6203V15H0.148081V14.6203C0.618751 14.6203 0.935807 14.5745 1.09741 14.4831C1.25901 14.3917 1.38558 14.2405 1.47714 14.0295C1.57545 13.8186 1.62461 13.4142 1.62461 12.8165V9.09284C1.62461 8.04501 1.59327 7.36641 1.52998 7.05698C1.48021 6.8319 1.40341 6.67724 1.29772 6.59282C1.19204 6.50139 1.04825 6.45567 0.865141 6.45567C0.668517 6.45567 0.428886 6.50846 0.148081 6.6139L0 6.23416L2.91188 5.05276H3.3758Z" fill="#0086FD"/>
</svg>
