<svg width="37" height="6" viewBox="0 0 37 6" fill="none" xmlns="http://www.w3.org/2000/svg">
<path d="M2.99061 4.59341V5.07191H0.30116V4.59341H1.37624V1.173C1.37624 1.07378 1.37974 0.968852 1.38674 0.863795L0.493775 1.62841C0.463425 1.6576 0.433072 1.66918 0.402722 1.68085C0.372372 1.68085 0.344367 1.68085 0.318686 1.68085C0.293006 1.67501 0.26847 1.66346 0.245124 1.65178C0.224113 1.63427 0.207779 1.62255 0.196106 1.60504L0 1.33659L1.49532 0.0407531H2.0031V4.59341H2.99061ZM6.04489 3.26253V1.19067C6.04489 1.13231 6.04724 1.06208 6.0519 0.992038C6.05657 0.922 6.06355 0.846194 6.07289 0.770319L4.24491 3.26253H6.04489ZM7.35109 3.26253V3.61848C7.35109 3.65349 7.33942 3.6886 7.31607 3.71195C7.29506 3.74113 7.2612 3.75299 7.21451 3.75299H6.59117V5.07191H6.04489V3.75299H3.81768C3.77099 3.75299 3.73012 3.74113 3.6951 3.71195C3.66242 3.68277 3.64139 3.65363 3.63205 3.61278L3.56903 3.29188L6.00987 0.0524375H6.59117V3.26253H7.35109ZM11.509 3.33833C11.509 3.61849 11.474 3.86948 11.404 4.09127C11.3363 4.31306 11.2347 4.49995 11.0993 4.65754C10.9662 4.80929 10.8017 4.92607 10.6056 5.00779C10.4095 5.0895 10.1842 5.13033 9.92968 5.13033C9.69856 5.13033 9.46274 5.09536 9.22227 5.03115C9.22694 4.96112 9.2328 4.89672 9.2398 4.83252C9.2468 4.76248 9.25262 4.69851 9.25729 4.62847C9.26196 4.59345 9.27598 4.55834 9.29933 4.53499C9.32501 4.51165 9.36353 4.49994 9.41489 4.49994C9.45691 4.49994 9.51176 4.50566 9.57947 4.52901C9.64951 4.55235 9.74292 4.55836 9.85965 4.55836C10.0137 4.55836 10.1515 4.53495 10.2729 4.48825C10.3943 4.44156 10.4958 4.37146 10.5775 4.27223C10.6592 4.17301 10.7211 4.05065 10.7631 3.8989C10.8075 3.74715 10.8297 3.56013 10.8297 3.35002V0.0524375H11.509V3.33833ZM14.3789 3.47256C14.0917 3.48424 13.8466 3.50765 13.6434 3.54267C13.4427 3.57769 13.2781 3.62452 13.1497 3.68288C13.0236 3.74125 12.9314 3.81121 12.873 3.89292C12.817 3.96879 12.789 4.06229 12.789 4.15568C12.789 4.24906 12.8042 4.33073 12.8345 4.40076C12.8649 4.46497 12.9057 4.52335 12.9571 4.57005C13.0108 4.6109 13.0727 4.63989 13.1427 4.66324C13.2151 4.68075 13.2921 4.69259 13.3738 4.69259C13.4835 4.69259 13.5839 4.68088 13.675 4.65754C13.766 4.63419 13.8512 4.60505 13.9306 4.55836C14.0123 4.51751 14.0894 4.47081 14.1617 4.41245C14.2364 4.35408 14.3088 4.28399 14.3789 4.20811V3.47256ZM12.3652 2.02512C12.5614 1.83835 12.7726 1.69244 12.9991 1.59906C13.2256 1.50568 13.4765 1.45913 13.752 1.45913C13.9505 1.45913 14.1267 1.49411 14.2808 1.55831C14.4349 1.62251 14.5645 1.71602 14.6695 1.83275C14.7746 1.94948 14.854 2.08954 14.9077 2.2588C14.9613 2.42223 14.9882 2.60298 14.9882 2.80142V5.07191H14.7115C14.6508 5.07191 14.6042 5.06035 14.5715 5.04284C14.5388 5.02533 14.5131 4.98436 14.4944 4.92599L14.4244 4.58743C14.331 4.67498 14.2399 4.7508 14.1512 4.82083C14.0625 4.88504 13.9691 4.94342 13.8711 4.99012C13.773 5.03097 13.668 5.06595 13.5559 5.08929C13.4462 5.11264 13.3236 5.13033 13.1882 5.13033C13.0505 5.13033 12.9209 5.10693 12.7995 5.07191C12.6781 5.03105 12.5719 4.9728 12.4808 4.89693C12.3921 4.82105 12.3209 4.72183 12.2672 4.6051C12.2159 4.48837 12.1902 4.34817 12.1902 4.18474C12.1902 4.04467 12.2287 3.91046 12.3057 3.78206C12.3828 3.65365 12.5077 3.53701 12.6804 3.43779C12.8532 3.33857 13.0785 3.25662 13.3563 3.19242C13.6341 3.12822 13.975 3.0874 14.3789 3.08156V2.80142C14.3789 2.5271 14.3193 2.31709 14.2003 2.17701C14.0812 2.03694 13.9073 1.96698 13.6785 1.96698C13.5244 1.96698 13.3948 1.98426 13.2898 2.02512C13.1871 2.06013 13.0972 2.10695 13.0201 2.15364C12.9454 2.20034 12.88 2.24715 12.824 2.28217C12.7703 2.32303 12.7166 2.34031 12.6629 2.34031C12.6209 2.34031 12.5847 2.32875 12.5544 2.31124C12.524 2.2879 12.4983 2.25877 12.4773 2.22375L12.3652 2.02512ZM16.5261 2.0368C16.6032 1.95509 16.6849 1.87343 16.7712 1.8034C16.8576 1.73336 16.9487 1.67511 17.0444 1.62841C17.1425 1.57588 17.2452 1.53492 17.3526 1.51157C17.4623 1.48239 17.5802 1.47082 17.7063 1.47082C17.9 1.47082 18.0705 1.50009 18.2176 1.56429C18.367 1.62849 18.4907 1.72172 18.5888 1.83845C18.6891 1.95518 18.765 2.09524 18.8164 2.2645C18.8677 2.42793 18.8934 2.61466 18.8934 2.8131V5.07191H18.2666V2.8131C18.2666 2.54462 18.2047 2.33461 18.081 2.1887C17.9596 2.04278 17.774 1.96698 17.5241 1.96698C17.3397 1.96698 17.167 2.00782 17.0059 2.10121C16.8471 2.18875 16.7 2.30541 16.5646 2.45715V5.07191H15.9378V1.52325H16.3125C16.4012 1.52325 16.4561 1.57007 16.4771 1.65178L16.5261 2.0368ZM24.598 4.48256C24.6658 4.48256 24.7194 4.49984 24.7591 4.54069C24.7988 4.58155 24.8187 4.62839 24.8187 4.69259V5.07191H21.4708V4.85589C21.4708 4.81503 21.4801 4.76835 21.4988 4.72166C21.5175 4.67497 21.5467 4.63427 21.5864 4.59341L23.1938 2.97669C23.3268 2.84245 23.4482 2.71395 23.558 2.59138C23.6677 2.46298 23.7611 2.33463 23.8381 2.21207C23.9152 2.08366 23.9747 1.95517 24.0167 1.82676C24.0587 1.69836 24.0798 1.55831 24.0798 1.41239C24.0798 1.26648 24.0564 1.13799 24.0097 1.02709C23.963 0.916198 23.8988 0.822973 23.8171 0.752935C23.7377 0.67706 23.6432 0.624372 23.5334 0.589352C23.4237 0.554333 23.3058 0.531215 23.1797 0.531215C23.0513 0.531215 22.9335 0.554333 22.8261 0.589352C22.7187 0.624372 22.623 0.676912 22.5389 0.74695C22.4572 0.811152 22.3883 0.893091 22.3323 0.980639C22.2763 1.07402 22.2366 1.17297 22.2132 1.28386C22.1852 1.36558 22.1467 1.41826 22.0976 1.44745C22.051 1.47079 21.9844 1.48249 21.8981 1.47082L21.5724 1.41239C21.6051 1.18477 21.6681 0.980468 21.7615 0.805372C21.8572 0.630276 21.9763 0.478664 22.1187 0.361933C22.2634 0.245203 22.428 0.151841 22.6124 0.0934756C22.7969 0.0292738 22.9965 0 23.2113 0C23.4237 0 23.6222 0.0292738 23.8066 0.0934756C23.991 0.157677 24.1509 0.245066 24.2863 0.367633C24.4218 0.4902 24.528 0.636113 24.605 0.805372C24.6821 0.980468 24.7206 1.17322 24.7206 1.39501C24.7206 1.58178 24.6926 1.75667 24.6366 1.91426C24.5805 2.07768 24.5046 2.22959 24.4089 2.36966C24.3132 2.51558 24.2023 2.65564 24.0762 2.79572C23.9525 2.9358 23.8206 3.07001 23.6805 3.21009L22.3568 4.56406C22.4502 4.54072 22.5448 4.51731 22.6405 4.50564C22.7362 4.48813 22.8284 4.48256 22.9171 4.48256H24.598ZM29.0566 2.56231C29.0566 3.00589 29.0087 3.38524 28.913 3.70625C28.8196 4.02726 28.6912 4.28982 28.5278 4.49994C28.3643 4.71005 28.1706 4.86767 27.9465 4.97273C27.7247 5.07195 27.4865 5.12434 27.2321 5.12434C26.9753 5.12434 26.7359 5.07195 26.5142 4.97273C26.2947 4.86767 26.1033 4.71005 25.9398 4.49994C25.7764 4.28982 25.648 4.02726 25.5546 3.70625C25.4613 3.38524 25.4146 3.00589 25.4146 2.56231C25.4146 2.12458 25.4613 1.74509 25.5546 1.42408C25.648 1.10307 25.7764 0.834521 25.9398 0.624406C26.1033 0.414291 26.2947 0.25667 26.5142 0.151613C26.7359 0.0465554 26.9753 0 27.2321 0C27.4865 0 27.7247 0.0465554 27.9465 0.151613C28.1706 0.25667 28.3643 0.414291 28.5278 0.624406C28.6912 0.834521 28.8196 1.10307 28.913 1.42408C29.0087 1.74509 29.0566 2.12458 29.0566 2.56231ZM28.4087 2.56231C28.4087 2.18294 28.376 1.8617 28.3106 1.59906C28.2476 1.34225 28.1612 1.13238 28.0515 0.968955C27.9441 0.811368 27.8192 0.700429 27.6768 0.63039C27.5344 0.560352 27.3862 0.52523 27.2321 0.52523C27.078 0.52523 26.9297 0.560352 26.7873 0.63039C26.6449 0.700429 26.52 0.811368 26.4126 0.968955C26.3052 1.13238 26.2188 1.34225 26.1535 1.59906C26.0904 1.8617 26.0589 2.18294 26.0589 2.56231C26.0589 2.94753 26.0904 3.26848 26.1535 3.52528C26.2188 3.78793 26.3052 3.99809 26.4126 4.15568C26.52 4.31326 26.6449 4.4299 26.7873 4.49994C26.9297 4.56414 27.078 4.59911 27.2321 4.59911C27.3862 4.59911 27.5344 4.56414 27.6768 4.49994C27.8192 4.4299 27.9441 4.31326 28.0515 4.15568C28.1612 3.99809 28.2476 3.78793 28.3106 3.52528C28.376 3.26848 28.4087 2.94753 28.4087 2.56231ZM32.7237 4.48256C32.7914 4.48256 32.8451 4.49984 32.8847 4.54069C32.9244 4.58155 32.9443 4.62839 32.9443 4.69259V5.07191H29.5964V4.85589C29.5964 4.81503 29.6058 4.76835 29.6245 4.72166C29.6431 4.67497 29.6723 4.63427 29.712 4.59341L31.3194 2.97669C31.4525 2.84245 31.5738 2.71395 31.6836 2.59138C31.7933 2.46298 31.8867 2.33463 31.9637 2.21207C32.0408 2.08366 32.1003 1.95517 32.1423 1.82676C32.1843 1.69836 32.2054 1.55831 32.2054 1.41239C32.2054 1.26648 32.182 1.13799 32.1353 1.02709C32.0886 0.916198 32.0244 0.822973 31.9427 0.752935C31.8633 0.67706 31.7688 0.624372 31.6591 0.589352C31.5493 0.554333 31.4314 0.531215 31.3054 0.531215C31.1769 0.531215 31.0591 0.554333 30.9517 0.589352C30.8443 0.624372 30.7486 0.676912 30.6645 0.74695C30.5828 0.811152 30.5139 0.893091 30.4579 0.980639C30.4019 1.07402 30.3622 1.17297 30.3389 1.28386C30.3108 1.36558 30.2723 1.41826 30.2233 1.44745C30.1766 1.47079 30.11 1.48249 30.0237 1.47082L29.698 1.41239C29.7307 1.18477 29.7937 0.980468 29.8871 0.805372C29.9828 0.630276 30.1019 0.478664 30.2443 0.361933C30.389 0.245203 30.5536 0.151841 30.7381 0.0934756C30.9225 0.0292738 31.1221 0 31.3369 0C31.5493 0 31.7478 0.0292738 31.9322 0.0934756C32.1166 0.157677 32.2766 0.245066 32.412 0.367633C32.5474 0.4902 32.6536 0.636113 32.7306 0.805372C32.8077 0.980468 32.8462 1.17322 32.8462 1.39501C32.8462 1.58178 32.8182 1.75667 32.7622 1.91426C32.7061 2.07768 32.6303 2.22959 32.5345 2.36966C32.4388 2.51558 32.3279 2.65564 32.2018 2.79572C32.0781 2.9358 31.9462 3.07001 31.8061 3.21009L30.4824 4.56406C30.5758 4.54072 30.6704 4.51731 30.7661 4.50564C30.8618 4.48813 30.954 4.48256 31.0427 4.48256H32.7237ZM33.7853 1.41239C33.818 1.18477 33.881 0.980468 33.9744 0.805372C34.0678 0.630276 34.1857 0.478664 34.3281 0.361933C34.4728 0.245203 34.6374 0.151841 34.8219 0.0934756C35.0086 0.0292738 35.2094 0 35.4242 0C35.6366 0 35.8327 0.0291256 36.0125 0.0874909C36.1923 0.151693 36.3464 0.233518 36.4748 0.350249C36.6055 0.461143 36.7071 0.595348 36.7794 0.752935C36.8518 0.910521 36.888 1.09126 36.888 1.28386C36.888 1.44145 36.867 1.5818 36.825 1.7102C36.7853 1.83277 36.7269 1.94342 36.6499 2.0368C36.5752 2.13018 36.4841 2.20615 36.3767 2.27619C36.2693 2.34039 36.1491 2.39293 36.016 2.43379C36.3429 2.52133 36.588 2.66141 36.7514 2.87153C36.9172 3.06997 37.0001 3.32666 37.0001 3.63016C37.0001 3.86362 36.9557 4.07392 36.867 4.25485C36.7806 4.44162 36.6616 4.59924 36.5098 4.72764C36.3581 4.85605 36.1806 4.95513 35.9775 5.02517C35.7767 5.09521 35.5608 5.13033 35.3296 5.13033C35.0635 5.13033 34.8359 5.09536 34.6468 5.03115C34.4577 4.96112 34.2977 4.86774 34.167 4.75101C34.0363 4.63428 33.9289 4.49993 33.8448 4.34234C33.7608 4.17892 33.6896 4.00388 33.6312 3.81711L33.9009 3.70625C33.9709 3.67707 34.0386 3.66537 34.104 3.68288C34.1717 3.69456 34.2207 3.73524 34.2511 3.79944C34.2814 3.86364 34.3188 3.93975 34.3631 4.03313C34.4098 4.12068 34.4729 4.20806 34.5522 4.2956C34.6316 4.37731 34.732 4.44727 34.8534 4.50564C34.9771 4.564 35.1336 4.59341 35.3227 4.59341C35.4978 4.59341 35.6507 4.56999 35.7814 4.51162C35.9145 4.45326 36.0242 4.37745 36.1106 4.2899C36.1993 4.19652 36.2658 4.09714 36.3102 3.98041C36.3545 3.86951 36.3767 3.75872 36.3767 3.64783C36.3767 3.51359 36.3592 3.39109 36.3242 3.2802C36.2892 3.1693 36.2238 3.07008 36.1281 2.98837C36.0324 2.90666 35.9005 2.84241 35.7324 2.79572C35.5666 2.74903 35.353 2.72561 35.0915 2.72561V2.27619C35.3063 2.27035 35.4884 2.24694 35.6378 2.20608C35.7896 2.15939 35.9121 2.10113 36.0055 2.01942C36.1012 1.94354 36.1701 1.85003 36.2121 1.74497C36.2565 1.63992 36.2787 1.51743 36.2787 1.38902C36.2787 1.24311 36.2553 1.11477 36.2086 1.00971C36.1643 0.90465 36.1024 0.811289 36.023 0.74125C35.9436 0.671212 35.8491 0.618672 35.7394 0.583653C35.632 0.548634 35.5152 0.531215 35.3892 0.531215C35.2631 0.531215 35.1452 0.554333 35.0355 0.589352C34.9281 0.624372 34.8324 0.676912 34.7483 0.74695C34.6666 0.811152 34.5978 0.893091 34.5417 0.980639C34.4857 1.07402 34.446 1.17297 34.4226 1.28386C34.3923 1.36558 34.3538 1.41826 34.3071 1.44745C34.2627 1.47079 34.1974 1.48249 34.111 1.47082L33.7853 1.41239Z" fill="#484848"/>
</svg>
