<svg width="60" height="27" viewBox="0 0 60 27" fill="none" xmlns="http://www.w3.org/2000/svg">
<path d="M12.8907 0C16.242 0 19.1428 1.28036 21.5925 3.82962C24.0551 6.36725 25.2866 9.53934 25.2866 13.3516C25.2866 17.2744 24.0487 20.528 21.5733 23.118C19.098 25.708 16.1023 27 12.5863 27C9.03185 27 6.04258 25.737 3.61786 23.2111C1.20596 20.6851 0 17.4199 0 13.4097C0 9.30645 1.39686 5.95981 4.18941 3.37563C6.61354 1.12319 9.51435 0 12.8907 0ZM12.5293 1.39098C10.2186 1.39098 8.36543 2.24651 6.96916 3.96348C5.23007 6.09368 4.36053 9.21921 4.36053 13.3283C4.36053 17.548 5.26208 20.7898 7.06461 23.0597C8.44808 24.7883 10.2762 25.6497 12.5484 25.6497C14.9726 25.6497 16.9718 24.7069 18.5462 22.8153C20.1328 20.9237 20.9261 17.9379 20.9261 13.8637C20.9261 9.44615 20.0566 6.1519 18.3175 3.98095C16.9212 2.25816 14.9918 1.39098 12.5293 1.39098ZM43.3183 8.96894V19.5384C43.3183 21.5581 43.3625 22.792 43.4516 23.2518C43.5529 23.6942 43.7054 24.0084 43.9085 24.183C44.1244 24.3634 44.3718 24.4507 44.6512 24.4507C45.0446 24.4507 45.4887 24.3402 45.984 24.1249L46.2506 24.7941L41.0333 26.9476H40.1765V23.2518C38.6784 24.8757 37.5359 25.9001 36.749 26.3191C35.9621 26.7382 35.1304 26.9476 34.2544 26.9476C33.2772 26.9476 32.4269 26.6683 31.7034 26.1095C30.9922 25.5391 30.4975 24.8058 30.2181 23.9153C29.9387 23.0306 29.7991 21.7734 29.7991 20.1496V12.3622C29.7991 11.5357 29.7106 10.9652 29.5325 10.6451C29.355 10.3308 29.0884 10.0864 28.7328 9.9234C28.39 9.74297 27.762 9.66153 26.8476 9.67317V8.96894H32.96V20.6444C32.96 22.2682 33.2394 23.3333 33.7976 23.8397C34.3691 24.3519 35.0542 24.602 35.8544 24.602C36.3998 24.602 37.0156 24.4333 37.7012 24.0899C38.399 23.7465 39.2243 23.0946 40.1765 22.1284V12.2457C40.1765 11.2562 39.9926 10.5869 39.6242 10.2494C39.2686 9.88851 38.5201 9.70227 37.3776 9.67317V8.96894H43.3183ZM52.629 8.45669V12.3795C54.0887 9.76623 55.5868 8.45669 57.1228 8.45669C57.8212 8.45669 58.3986 8.6721 58.8554 9.10279C59.3123 9.52185 59.5411 10.0108 59.5411 10.5695C59.5411 11.0642 59.3758 11.4832 59.0458 11.8266C58.7158 12.17 58.3223 12.3389 57.8654 12.3389C57.4213 12.3389 56.9196 12.1235 56.3609 11.6928C55.8155 11.2504 55.4093 11.0293 55.1427 11.0293C54.914 11.0293 54.6666 11.1515 54.4001 11.4076C53.8285 11.9256 53.2383 12.7869 52.629 13.9801V22.338C52.629 23.3042 52.7494 24.0317 52.991 24.5264C53.1557 24.8698 53.4479 25.155 53.8669 25.382C54.2854 25.6148 54.8884 25.7254 55.6758 25.7254V26.4122H46.7453V25.7254C47.634 25.7254 48.294 25.5858 48.7259 25.3064C49.0431 25.1027 49.2655 24.7825 49.3923 24.3343C49.4558 24.119 49.4872 23.5079 49.4872 22.4893V15.732C49.4872 13.7007 49.4429 12.496 49.3539 12.1118C49.2777 11.7219 49.1258 11.4309 48.897 11.2563C48.6811 11.0758 48.4087 10.9885 48.0781 10.9885C47.6847 10.9885 47.2406 11.0817 46.7453 11.2737L46.555 10.587L51.8293 8.45669H52.629Z" fill="#1F1F1F"/>
</svg>
