<svg width="67" height="9" viewBox="0 0 67 9" fill="none" xmlns="http://www.w3.org/2000/svg">
<path d="M6.8304 6.30832L7.02909 6.3554L6.33008 8.57185H0V8.34851H0.307468C0.653162 8.34851 0.90067 8.23677 1.04941 8.01336C1.13348 7.88402 1.17583 7.58417 1.17583 7.11971V1.84613C1.17583 1.33465 1.11938 1.0171 1.00709 0.887757C0.850115 0.711383 0.617299 0.623224 0.307468 0.623224H0V0.399886H3.70151V0.623224C3.26763 0.617345 2.9619 0.658471 2.78553 0.740779C2.61268 0.823087 2.49393 0.928935 2.42985 1.05828C2.36518 1.18762 2.33343 1.49925 2.33343 1.98134V7.11971C2.33343 7.45483 2.36518 7.68407 2.42985 7.80753C2.47806 7.88984 2.55214 7.95455 2.65267 7.9957C2.7532 8.03098 3.06656 8.05455 3.59334 8.05455H4.19006C4.81678 8.05455 5.25712 8.00738 5.50993 7.91331C5.76332 7.82513 5.99437 7.66061 6.20366 7.42544C6.41237 7.19028 6.62169 6.8198 6.8304 6.30832ZM9.09092 0C9.25965 0 9.40253 0.058826 9.51894 0.182288C9.63946 0.293992 9.70001 0.440954 9.70001 0.60557C9.70001 0.776065 9.63946 0.923038 9.51894 1.04062C9.40253 1.16408 9.25965 1.22291 9.09092 1.22291C8.92219 1.22291 8.77758 1.16408 8.65705 1.04062C8.53653 0.923038 8.47595 0.776065 8.47595 0.60557C8.47595 0.440954 8.53476 0.293992 8.65117 0.182288C8.77169 0.058826 8.91807 0 9.09092 0ZM9.59124 2.88675V7.3254C9.59124 7.67227 9.61534 7.90166 9.66355 8.01924C9.71587 8.13095 9.79054 8.21321 9.88696 8.27201C9.98749 8.32492 10.168 8.35425 10.4296 8.35425V8.57185H7.74694V8.35425C8.01621 8.35425 8.19672 8.3308 8.28961 8.27789C8.38191 8.22498 8.4542 8.13683 8.50652 8.01924C8.56237 7.89578 8.5906 7.66639 8.5906 7.3254V5.19722C8.5906 4.59755 8.57238 4.20954 8.53652 4.03316C8.5083 3.90382 8.4642 3.81566 8.40365 3.76863C8.34368 3.71572 8.26138 3.68624 8.15673 3.68624C8.04444 3.68624 7.90744 3.72161 7.74694 3.7804L7.66229 3.5628L9.3261 2.88675H9.59124ZM14.6914 2.88675V4.76805H14.4927C14.3398 4.17426 14.1429 3.77445 13.9018 3.5628C13.6649 3.35115 13.361 3.2453 12.9917 3.2453C12.7101 3.2453 12.4832 3.31592 12.3104 3.4629C12.1375 3.61576 12.0511 3.78029 12.0511 3.96254C12.0511 4.18595 12.1151 4.37995 12.2439 4.53869C12.3685 4.7033 12.622 4.87976 13.0035 5.06201L13.8836 5.49118C14.6996 5.89096 15.1076 6.41416 15.1076 7.06675C15.1076 7.56648 14.9166 7.97218 14.535 8.28377C14.157 8.58949 13.7331 8.74237 13.2628 8.74237C12.9253 8.74237 12.5396 8.67766 12.1052 8.56008C11.9729 8.51892 11.8641 8.50123 11.78 8.50123C11.6871 8.50123 11.6148 8.55415 11.5625 8.65409H11.3638V6.68466H11.5625C11.6754 7.24906 11.8906 7.67231 12.208 7.95451C12.5255 8.24259 12.8812 8.38367 13.2751 8.38367C13.552 8.38367 13.7772 8.3073 13.95 8.14268C14.127 7.97807 14.2152 7.78405 14.2152 7.55477C14.2152 7.27845 14.117 7.04331 13.92 6.85518C13.7272 6.66705 13.3392 6.42602 12.7566 6.13794C12.1734 5.84986 11.7918 5.58525 11.6107 5.35008C11.4302 5.1208 11.3397 4.83274 11.3397 4.48587C11.3397 4.03317 11.4943 3.65106 11.8041 3.34535C12.1175 3.03963 12.5214 2.88675 13.0159 2.88675C13.2328 2.88675 13.4956 2.93378 13.8054 3.02785C14.01 3.08664 14.147 3.11598 14.2152 3.11598C14.2793 3.11598 14.3298 3.10418 14.3657 3.07478C14.4021 3.04539 14.4445 2.98082 14.4927 2.88675H14.6914ZM17.5369 1.23468V3.05139H18.8268V3.47467H17.5369V7.05498C17.5369 7.40773 17.5869 7.64876 17.6874 7.77811C17.7921 7.90157 17.9249 7.96039 18.0854 7.96039C18.2183 7.96039 18.3465 7.92515 18.4711 7.84284C18.5958 7.76053 18.6922 7.63699 18.7609 7.47238H18.9955C18.855 7.86628 18.6563 8.16613 18.3988 8.36602C18.1419 8.56591 17.8767 8.65998 17.6033 8.65998C17.4182 8.65998 17.2377 8.61294 17.0607 8.513C16.8838 8.40717 16.7532 8.2602 16.6685 8.07206C16.5845 7.87805 16.5422 7.58409 16.5422 7.1843V3.47467H15.6679V3.27473C15.889 3.18654 16.1142 3.03368 16.3434 2.82791C16.5763 2.61626 16.7832 2.36344 16.9643 2.07536C17.0566 1.9225 17.1854 1.64034 17.35 1.23468H17.5369ZM27.7308 0.211713V3.03962H27.5079C27.4356 2.49286 27.3051 2.06356 27.1158 1.74021C26.9312 1.42273 26.6661 1.16416 26.3204 0.976031C25.9747 0.787898 25.6172 0.693843 25.2474 0.693843C24.8294 0.693843 24.4837 0.823127 24.2103 1.07593C23.9369 1.33461 23.8006 1.62268 23.8006 1.94603C23.8006 2.19296 23.887 2.42219 24.0598 2.62796C24.3091 2.9278 24.9017 3.33349 25.8383 3.83322C26.6014 4.24476 27.1223 4.55642 27.3992 4.77982C27.6808 4.99735 27.896 5.25607 28.0447 5.55003C28.197 5.84986 28.2734 6.16137 28.2734 6.48472C28.2734 7.10203 28.0324 7.63702 27.5503 8.08972C27.0717 8.53653 26.455 8.76002 25.6995 8.76002C25.462 8.76002 25.2392 8.74233 25.0305 8.70706C24.9058 8.68354 24.6466 8.61306 24.2527 8.4896C23.8629 8.36026 23.6154 8.29555 23.5113 8.29555C23.4108 8.29555 23.3302 8.32488 23.2697 8.38367C23.2138 8.44247 23.1715 8.57189 23.1433 8.76002H22.9205V5.95565H23.1433C23.2479 6.54357 23.3884 6.98451 23.5654 7.27846C23.7424 7.56654 24.0116 7.80758 24.3732 8.00159C24.7389 8.18972 25.1387 8.28966 25.5725 8.28966C26.0752 8.28966 26.4709 8.15448 26.7607 7.88992C27.0541 7.62536 27.2005 7.3137 27.2005 6.9492C27.2005 6.74931 27.144 6.54352 27.0317 6.34363C26.923 6.13786 26.7525 5.94386 26.5191 5.76748C26.3627 5.6499 25.9347 5.39119 25.2351 5.00316C24.5361 4.60926 24.0375 4.29775 23.74 4.06259C23.4466 3.82742 23.2238 3.57458 23.0709 3.29238C22.9181 3.01018 22.8417 2.69854 22.8417 2.36343C22.8417 1.77551 23.0669 1.27001 23.5172 0.846707C23.9675 0.423408 24.5402 0.211713 25.2351 0.211713C25.6696 0.211713 26.1293 0.31756 26.6155 0.52921C26.8407 0.629155 26.9994 0.682073 27.0917 0.682073C27.1963 0.682073 27.281 0.652586 27.3451 0.587915C27.4133 0.523244 27.468 0.399845 27.5079 0.211713H27.7308ZM34.0185 6.47295C33.8698 7.20197 33.5788 7.76055 33.1443 8.15445C32.7104 8.54835 32.2301 8.74237 31.7039 8.74237C31.0766 8.74237 30.5304 8.47775 30.0642 7.94862C29.598 7.42538 29.3646 6.71407 29.3646 5.81456C29.3646 4.95033 29.6221 4.24477 30.1365 3.69801C30.6551 3.15713 31.2759 2.88675 31.999 2.88675C32.5417 2.88675 32.9879 3.03373 33.3377 3.32181C33.6869 3.60401 33.8622 3.90385 33.8622 4.21545C33.8622 4.36831 33.8116 4.4917 33.7111 4.58577C33.6146 4.67983 33.4782 4.72686 33.3013 4.72686C33.0643 4.72686 32.885 4.65049 32.7645 4.49764C32.6963 4.40945 32.6504 4.25067 32.6263 4.01551C32.6058 3.77446 32.5258 3.59813 32.3847 3.47467C32.2442 3.35121 32.0496 3.29238 31.8003 3.29238C31.3982 3.29238 31.0748 3.43937 30.8297 3.7392C30.504 4.13311 30.3411 4.65041 30.3411 5.29712C30.3411 5.95559 30.5022 6.53761 30.8238 7.0491C31.1489 7.54882 31.5869 7.80164 32.1378 7.80164C32.5317 7.80164 32.885 7.66646 33.199 7.39602C33.42 7.21376 33.6346 6.87868 33.8439 6.39071L34.0185 6.47295ZM36.436 0V4.03905C36.8823 3.55108 37.2356 3.23354 37.4972 3.09832C37.7583 2.95722 38.0193 2.88675 38.2809 2.88675C38.5943 2.88675 38.8635 2.97491 39.0887 3.1454C39.3139 3.32178 39.4803 3.59216 39.589 3.96254C39.6654 4.21535 39.7037 4.68576 39.7037 5.37362V7.3254C39.7037 7.67227 39.7313 7.91344 39.7877 8.04278C39.8283 8.13685 39.8965 8.21321 39.9929 8.27201C40.0893 8.32492 40.2663 8.35425 40.5232 8.35425V8.57185H37.8106V8.35425H37.937C38.1945 8.35425 38.3732 8.31901 38.4738 8.24258C38.5743 8.16027 38.6442 8.04278 38.6848 7.88992C38.6965 7.82525 38.7024 7.63699 38.7024 7.3254V5.37362C38.7024 4.76807 38.6707 4.37416 38.606 4.18602C38.5461 3.99201 38.4473 3.85093 38.3109 3.76274C38.1745 3.6628 38.0093 3.61576 37.8164 3.61576C37.6195 3.61576 37.4149 3.66869 37.2015 3.77451C36.9887 3.88034 36.7335 4.086 36.436 4.40348V7.3254C36.436 7.70166 36.456 7.93695 36.4966 8.03101C36.5407 8.1192 36.6189 8.20145 36.7312 8.26612C36.8481 8.32491 37.0469 8.35425 37.3285 8.35425V8.57185H34.5912V8.35425C34.8363 8.35425 35.0292 8.31901 35.1703 8.24258C35.2502 8.20143 35.3149 8.12506 35.3631 8.01336C35.4113 7.89577 35.4354 7.67227 35.4354 7.3254V2.32812C35.4354 1.69317 35.4195 1.30516 35.3872 1.16406C35.359 1.01708 35.3125 0.917136 35.2484 0.870103C35.1879 0.81719 35.1056 0.787858 35.0015 0.787858C34.9169 0.787858 34.7805 0.823087 34.5912 0.887757L34.5071 0.676188L36.1585 0H36.436ZM41.916 5.13249C41.9119 5.94969 42.1106 6.59053 42.5127 7.06087C42.9149 7.52532 43.3869 7.76059 43.9296 7.76059C44.2912 7.76059 44.6045 7.66064 44.8697 7.46075C45.1389 7.26086 45.3641 6.91988 45.5452 6.43778L45.7321 6.56122C45.6475 7.10799 45.4023 7.61348 44.9967 8.06618C44.5904 8.51299 44.0819 8.74237 43.471 8.74237C42.8079 8.74237 42.2393 8.48364 41.7649 7.96628C41.2951 7.44891 41.06 6.75515 41.06 5.88504C41.06 4.93849 41.301 4.20359 41.7831 3.67447C42.2693 3.14535 42.8784 2.88087 43.6098 2.88087C44.2288 2.88087 44.7374 3.08667 45.1348 3.49821C45.5328 3.90387 45.7321 4.44463 45.7321 5.13249H41.916ZM41.916 4.77982H44.4716C44.4517 4.42708 44.4099 4.17426 44.3453 4.03316C44.2447 3.80975 44.0942 3.63329 43.8931 3.50395C43.6962 3.37461 43.4893 3.31004 43.2723 3.31004C42.939 3.31004 42.6391 3.43933 42.374 3.69801C42.1129 3.95669 41.9601 4.31537 41.916 4.77982ZM50.3737 7.94862C50.1045 8.23082 49.8411 8.43662 49.5842 8.56008C49.3266 8.67766 49.0498 8.74237 48.7523 8.74237C48.1491 8.74237 47.6229 8.48955 47.1725 7.98982C46.7228 7.47833 46.4976 6.83158 46.4976 6.0379C46.4976 5.25009 46.7469 4.52699 47.2449 3.86853C47.7434 3.21006 48.3842 2.88087 49.1679 2.88087C49.6541 2.88087 50.0563 3.03375 50.3737 3.34535V2.32812C50.3737 1.69317 50.3579 1.30516 50.3255 1.16406C50.2973 1.01708 50.2514 0.917136 50.1868 0.870103C50.1227 0.81719 50.0422 0.787858 49.9457 0.787858C49.8411 0.787858 49.7023 0.823087 49.5301 0.887757L49.4513 0.676188L51.0975 0H51.3685V6.38482C51.3685 7.03153 51.3826 7.42544 51.4108 7.57242C51.4426 7.71352 51.4908 7.80759 51.5554 7.86638C51.6236 7.92517 51.7019 7.94862 51.7906 7.94862C51.8988 7.94862 52.0434 7.91927 52.2245 7.84872L52.2909 8.06029L50.6512 8.74237H50.3737V7.94862ZM50.3737 7.53123V4.68567C50.3496 4.40935 50.2773 4.16255 50.1568 3.93326C50.0363 3.70985 49.8752 3.53929 49.6747 3.42759C49.4778 3.31589 49.2849 3.25707 49.0956 3.25707C48.7423 3.25707 48.4266 3.41584 48.1491 3.73332C47.7834 4.15074 47.6005 4.76209 47.6005 5.56165C47.6005 6.37298 47.7775 6.99627 48.1314 7.43133C48.4848 7.86051 48.8787 8.07795 49.3125 8.07795C49.6782 8.07795 50.0322 7.89573 50.3737 7.53123ZM57.4875 3.05139V6.39659C57.4875 7.03742 57.5016 7.42544 57.5293 7.57242C57.5616 7.71352 57.6098 7.80759 57.6745 7.86638C57.7427 7.92517 57.8209 7.94862 57.909 7.94862C58.0337 7.94862 58.1748 7.91927 58.3312 7.84872L58.4158 8.06029L56.7638 8.74237H56.4928V7.57242C56.0183 8.08391 55.6567 8.4072 55.4075 8.54242C55.1582 8.67176 54.8948 8.74237 54.6179 8.74237C54.3081 8.74237 54.0388 8.65421 53.8101 8.47783C53.5849 8.29558 53.4279 8.06619 53.3398 7.78399C53.2516 7.50179 53.2069 7.10199 53.2069 6.5905V4.12129C53.2069 3.86261 53.1793 3.6804 53.1228 3.58045C53.0664 3.48051 52.9823 3.40414 52.8694 3.35123C52.7613 3.29244 52.5619 3.26885 52.2727 3.27473V3.05139H54.2081V6.74337C54.2081 7.26073 54.2963 7.59598 54.4733 7.76059C54.6538 7.91933 54.8707 8.00159 55.1241 8.00159C55.2969 8.00159 55.4921 7.94278 55.7091 7.83695C55.9301 7.72525 56.1912 7.51945 56.4928 7.21373V4.08612C56.4928 3.77453 56.4345 3.56283 56.3175 3.45113C56.2053 3.33943 55.9683 3.28061 55.6062 3.27473V3.05139H57.4875ZM60.7187 0V7.3254C60.7187 7.67227 60.7428 7.89577 60.791 8.01336C60.8433 8.12506 60.9215 8.20734 61.0262 8.27201C61.1302 8.32492 61.3254 8.35425 61.6106 8.35425V8.57185H58.9038V8.35425C59.1572 8.35425 59.33 8.3308 59.4223 8.27789C59.5146 8.22498 59.587 8.13683 59.6393 8.01924C59.6916 7.89578 59.718 7.66639 59.718 7.3254V2.31061C59.718 1.68742 59.704 1.30516 59.6757 1.16406C59.6475 1.01708 59.6011 0.917136 59.537 0.870103C59.4764 0.81719 59.3983 0.787858 59.3018 0.787858C59.1972 0.787858 59.0649 0.823087 58.9038 0.887757L58.8015 0.676188L60.4471 0H60.7187ZM63.1844 5.13249C63.1803 5.94969 63.379 6.59053 63.7811 7.06087C64.1827 7.52532 64.6554 7.76059 65.1974 7.76059C65.5596 7.76059 65.8729 7.66064 66.1381 7.46075C66.4074 7.26086 66.6325 6.91988 66.813 6.43778L67 6.56122C66.9159 7.10799 66.6707 7.61348 66.2645 8.06618C65.8588 8.51299 65.3503 8.74237 64.7394 8.74237C64.0763 8.74237 63.5078 8.48364 63.0333 7.96628C62.563 7.44891 62.3284 6.75515 62.3284 5.88504C62.3284 4.93849 62.5695 4.20359 63.0515 3.67447C63.5378 3.14535 64.1468 2.88087 64.8782 2.88087C65.4973 2.88087 66.0052 3.08667 66.4032 3.49821C66.8013 3.90387 67 4.44463 67 5.13249H63.1844ZM63.1844 4.77982H65.7401C65.7201 4.42708 65.6777 4.17426 65.6137 4.03316C65.5131 3.80975 65.3626 3.63329 65.1616 3.50395C64.9646 3.37461 64.7577 3.31004 64.5407 3.31004C64.2068 3.31004 63.9076 3.43933 63.6424 3.69801C63.3814 3.95669 63.2285 4.31537 63.1844 4.77982Z" fill="white"/>
</svg>
