<svg width="126" height="23" viewBox="0 0 126 23" fill="none" xmlns="http://www.w3.org/2000/svg">
<path d="M1.84964 3.41399C2.11137 3.41399 2.33817 3.37929 2.53593 3.32112C2.7395 3.25714 2.90817 3.16396 3.04195 3.04763C3.17573 2.9313 3.28044 2.79187 3.35023 2.62901C3.41421 2.47197 3.44914 2.29142 3.44914 2.09366C3.44914 1.69815 3.32115 1.40149 3.05941 1.19792C2.79768 0.994349 2.40797 0.895459 1.8845 0.895459H0.901565V3.41399H1.84964ZM4.93227 6.85156H4.12968C3.96682 6.85156 3.84461 6.78753 3.76899 6.65957L2.03573 4.28077C1.98338 4.20515 1.92526 4.15265 1.86128 4.11775C1.80312 4.08867 1.71007 4.07146 1.58211 4.07146H0.901565V6.85156H0V0.186021H1.8845C2.30909 0.186021 2.67553 0.226577 2.97798 0.313823C3.28624 0.395252 3.5422 0.517611 3.73996 0.680469C3.93771 0.843328 4.08895 1.04095 4.18783 1.26779C4.28089 1.49462 4.32741 1.75058 4.32741 2.02976C4.32741 2.26824 4.29248 2.48934 4.21687 2.69291C4.14125 2.89648 4.0366 3.08244 3.89119 3.24529C3.75159 3.40815 3.58291 3.54191 3.37352 3.65823C3.17576 3.77456 2.94308 3.86192 2.68716 3.92008C2.80349 3.98406 2.90237 4.07726 2.9838 4.20522L4.93227 6.85156ZM6.4504 2.14024V6.85156H5.62445V2.14024H6.4504ZM6.63067 0.657181C6.63067 0.73861 6.61324 0.814303 6.57835 0.884099C6.54926 0.953896 6.50275 1.01777 6.4504 1.07012C6.39805 1.12247 6.33403 1.16884 6.25842 1.19792C6.18862 1.227 6.10718 1.2445 6.03157 1.2445C5.95014 1.2445 5.87458 1.227 5.79897 1.19792C5.73499 1.16884 5.67098 1.12247 5.61863 1.07012C5.56628 1.01777 5.52559 0.953896 5.49651 0.884099C5.46161 0.814303 5.44993 0.73861 5.44993 0.657181C5.44993 0.575752 5.46161 0.50006 5.49651 0.430263C5.52559 0.354651 5.56628 0.290625 5.61863 0.238278C5.67098 0.185931 5.73499 0.139559 5.79897 0.110477C5.87458 0.0755787 5.95014 0.0639005 6.03157 0.0639005C6.10718 0.0639005 6.18862 0.0755787 6.25842 0.110477C6.33403 0.139559 6.39805 0.185931 6.4504 0.238278C6.50275 0.290625 6.54926 0.354651 6.57835 0.430263C6.61324 0.50006 6.63067 0.575752 6.63067 0.657181ZM11.8538 2.14024L9.92858 6.85156H9.18407L7.26464 2.14024H7.93935C8.00915 2.14024 8.06152 2.15774 8.10805 2.18682C8.14877 2.22172 8.17786 2.26241 8.19531 2.30894L9.39345 5.34521C9.42834 5.46153 9.46326 5.57194 9.48653 5.67664C9.51561 5.78715 9.5447 5.89769 9.56797 6.00239C9.59123 5.89769 9.62032 5.78715 9.6494 5.67664C9.67267 5.57194 9.70752 5.46153 9.74824 5.34521L10.9581 2.30894C10.9755 2.26241 11.0104 2.22172 11.0511 2.18682C11.0976 2.15774 11.1442 2.14024 11.2082 2.14024H11.8538ZM15.6402 3.9783C15.6402 3.78636 15.6111 3.61193 15.553 3.45489C15.5006 3.29203 15.4251 3.15828 15.3204 3.04195C15.2157 2.92562 15.0877 2.83243 14.9423 2.76845C14.7911 2.70447 14.6224 2.6753 14.4363 2.6753C14.0349 2.6753 13.7208 2.79169 13.4882 3.02434C13.2614 3.25118 13.116 3.57116 13.0636 3.9783H15.6402ZM16.3091 6.18841C16.2044 6.31637 16.0823 6.4211 15.9427 6.51416C15.7973 6.60722 15.646 6.68291 15.4832 6.74108C15.3203 6.79924 15.1516 6.8398 14.9771 6.86888C14.8027 6.90378 14.634 6.91546 14.4595 6.91546C14.1338 6.91546 13.8372 6.86323 13.558 6.75272C13.2846 6.64221 13.052 6.47931 12.8484 6.26992C12.6506 6.05471 12.4936 5.79306 12.3831 5.47897C12.2726 5.16489 12.2144 4.80407 12.2144 4.39692C12.2144 4.07121 12.2667 3.76318 12.3656 3.47818C12.4645 3.19317 12.6099 2.94888 12.8018 2.73949C12.988 2.5301 13.2206 2.36137 13.494 2.24504C13.7674 2.12289 14.0756 2.0647 14.413 2.0647C14.698 2.0647 14.9597 2.11123 15.1982 2.21011C15.4366 2.30317 15.6461 2.43706 15.8206 2.61737C15.9951 2.79186 16.1346 3.01267 16.2335 3.28023C16.3324 3.53615 16.3847 3.83876 16.3847 4.17029C16.3847 4.30407 16.3673 4.39114 16.344 4.43186C16.315 4.47257 16.2626 4.49604 16.1812 4.49604H13.0345C13.0403 4.79267 13.081 5.05432 13.1566 5.27534C13.2264 5.49636 13.3311 5.67679 13.4591 5.82801C13.5929 5.97342 13.7499 6.08383 13.9244 6.15944C14.1047 6.22924 14.3083 6.26424 14.5293 6.26424C14.7387 6.26424 14.919 6.24091 15.0644 6.19437C15.2214 6.14784 15.3494 6.09548 15.4599 6.03732C15.5646 5.97916 15.6577 5.93248 15.7275 5.88595C15.8031 5.8336 15.867 5.8104 15.9194 5.8104C15.9892 5.8104 16.0415 5.8336 16.0764 5.88595L16.3091 6.18841ZM18.1878 3.08256C18.339 2.76266 18.5194 2.50685 18.7346 2.32655C18.9556 2.14624 19.2173 2.05305 19.5314 2.05305C19.6303 2.05305 19.7292 2.06472 19.8164 2.08798C19.9095 2.11125 19.9908 2.14029 20.0606 2.18682L20.0025 2.80907C19.985 2.88468 19.9385 2.92551 19.8629 2.92551C19.8222 2.92551 19.7582 2.91399 19.671 2.89654C19.5896 2.87909 19.4965 2.86729 19.386 2.86729C19.2406 2.86729 19.1068 2.89047 18.9905 2.93119C18.8741 2.97772 18.7694 3.04189 18.6763 3.12914C18.5891 3.21057 18.5019 3.3211 18.4321 3.44324C18.3565 3.5712 18.2925 3.71065 18.2344 3.87351V6.85156H17.4026V2.14024H17.8737C17.9667 2.14024 18.0308 2.15774 18.0598 2.18682C18.0947 2.22172 18.118 2.27991 18.1296 2.36716L18.1878 3.08256ZM23.5098 2.91386C23.4749 2.98366 23.4167 3.01866 23.3353 3.01866C23.2887 3.01866 23.2364 3.00102 23.1783 2.96612C23.1201 2.93122 23.0444 2.89636 22.963 2.85564C22.8758 2.80911 22.7769 2.77438 22.6606 2.73949C22.5385 2.69877 22.3988 2.68127 22.2418 2.68127C22.1022 2.68127 21.9743 2.69877 21.8638 2.73949C21.7533 2.77438 21.6544 2.82092 21.573 2.8849C21.4973 2.94306 21.4333 3.01846 21.3926 3.09989C21.3519 3.18131 21.3345 3.26854 21.3345 3.36742C21.3345 3.48956 21.3636 3.58845 21.4334 3.66988C21.5032 3.75131 21.5962 3.82131 21.7125 3.87947C21.8289 3.93763 21.9568 3.98999 22.1022 4.03652C22.2476 4.07724 22.3988 4.12959 22.5501 4.18193C22.7071 4.22846 22.8584 4.28665 23.0038 4.35063C23.1492 4.40879 23.2772 4.49017 23.3935 4.58323C23.5098 4.67629 23.597 4.78671 23.6668 4.9263C23.7366 5.06008 23.7773 5.21717 23.7773 5.40911C23.7773 5.62431 23.7366 5.82791 23.661 6.01403C23.5796 6.19434 23.4633 6.3571 23.312 6.49087C23.1608 6.62465 22.9746 6.72951 22.7536 6.81094C22.5326 6.88656 22.2825 6.9271 21.9917 6.9271C21.666 6.9271 21.3635 6.87474 21.1018 6.77005C20.8342 6.65954 20.6074 6.5201 20.4213 6.35143L20.6132 6.03732C20.6423 5.99661 20.6714 5.96743 20.7063 5.94417C20.7354 5.9209 20.7819 5.90924 20.8343 5.90924C20.8924 5.90924 20.9506 5.93257 21.0087 5.9791C21.0727 6.01981 21.1483 6.06648 21.2356 6.11883C21.3228 6.17118 21.4334 6.22352 21.5613 6.26424C21.6893 6.31077 21.8463 6.32814 22.0324 6.32814C22.1953 6.32814 22.3348 6.31063 22.457 6.26992C22.5791 6.2292 22.678 6.17115 22.7594 6.09554C22.8409 6.02574 22.8991 5.94408 22.9398 5.85102C22.9747 5.75795 22.9979 5.65921 22.9979 5.55452C22.9979 5.42074 22.963 5.31616 22.8932 5.23473C22.8234 5.14748 22.7304 5.07166 22.614 5.01349C22.5035 4.94951 22.3698 4.89715 22.2186 4.85644C22.0732 4.80991 21.9219 4.76338 21.7707 4.71103C21.6195 4.65868 21.4682 4.60631 21.317 4.54233C21.1716 4.47835 21.0436 4.39712 20.9273 4.30405C20.8109 4.20518 20.7179 4.08864 20.6481 3.94905C20.5783 3.80364 20.5434 3.63517 20.5434 3.4316C20.5434 3.25129 20.5841 3.07672 20.6597 2.91386C20.7295 2.74519 20.8401 2.59978 20.9855 2.47764C21.1251 2.34968 21.2995 2.25079 21.5089 2.17517C21.7183 2.09956 21.951 2.0647 22.2186 2.0647C22.5326 2.0647 22.806 2.11123 23.0561 2.21011C23.3004 2.30898 23.5156 2.44273 23.6959 2.6114L23.5098 2.91386ZM25.6676 2.14024V6.85156H24.8359V2.14024H25.6676ZM25.8421 0.657181C25.8421 0.73861 25.8247 0.814303 25.7898 0.884099C25.7607 0.953896 25.7142 1.01777 25.6618 1.07012C25.6095 1.12247 25.5455 1.16884 25.4699 1.19792C25.4001 1.227 25.3245 1.2445 25.243 1.2445C25.1616 1.2445 25.086 1.227 25.0162 1.19792C24.9464 1.16884 24.8825 1.12247 24.8301 1.07012C24.7778 1.01777 24.737 0.953896 24.7079 0.884099C24.673 0.814303 24.6614 0.73861 24.6614 0.657181C24.6614 0.575752 24.673 0.50006 24.7079 0.430263C24.737 0.354651 24.7778 0.290625 24.8301 0.238278C24.8825 0.185931 24.9464 0.139559 25.0162 0.110477C25.086 0.0755787 25.1616 0.0639005 25.243 0.0639005C25.3245 0.0639005 25.4001 0.0755787 25.4699 0.110477C25.5455 0.139559 25.6095 0.185931 25.6618 0.238278C25.7142 0.290625 25.7607 0.354651 25.7898 0.430263C25.8247 0.50006 25.8421 0.575752 25.8421 0.657181ZM30.0939 3.25694C29.9427 3.05337 29.774 2.9081 29.5937 2.82667C29.4134 2.74525 29.2098 2.69859 28.9888 2.69859C28.5526 2.69859 28.2153 2.85567 27.9768 3.16975C27.7441 3.48383 27.6277 3.93173 27.6277 4.51336C27.6277 4.81582 27.651 5.08329 27.7034 5.30431C27.7557 5.51952 27.8371 5.69978 27.936 5.83937C28.0407 5.97896 28.1629 6.08382 28.3141 6.1478C28.4653 6.21178 28.634 6.24663 28.8201 6.24663C29.0935 6.24663 29.332 6.18275 29.5355 6.06061C29.7391 5.93847 29.9252 5.76403 30.0939 5.53719V3.25694ZM30.9256 0V6.85156H30.4313C30.3149 6.85156 30.2393 6.79351 30.2102 6.67718L30.1346 6.10719C29.9311 6.35147 29.7042 6.54328 29.4424 6.6945C29.1865 6.83991 28.8899 6.91546 28.5526 6.91546C28.2792 6.91546 28.0349 6.86324 27.8139 6.76437C27.5987 6.65967 27.4067 6.50261 27.2555 6.30485C27.0984 6.10128 26.9763 5.851 26.8949 5.54855C26.8134 5.2461 26.7669 4.90306 26.7669 4.51336C26.7669 4.16438 26.8135 3.83871 26.9065 3.54208C26.9996 3.23963 27.1334 2.9838 27.3079 2.76277C27.4824 2.54175 27.6976 2.36718 27.9477 2.24504C28.2036 2.11708 28.4886 2.05305 28.8027 2.05305C29.0935 2.05305 29.3378 2.10526 29.5413 2.20414C29.7507 2.2972 29.9368 2.43705 30.0939 2.60572V0H30.9256ZM35.3868 3.9783C35.3868 3.78636 35.3577 3.61193 35.3054 3.45489C35.253 3.29203 35.1716 3.15828 35.0669 3.04195C34.9622 2.92562 34.84 2.83243 34.6888 2.76845C34.5434 2.70447 34.3747 2.6753 34.1828 2.6753C33.7873 2.6753 33.4732 2.79169 33.2406 3.02434C33.0079 3.25118 32.8683 3.57116 32.8101 3.9783H35.3868ZM36.0557 6.18841C35.9568 6.31637 35.8346 6.4211 35.6892 6.51416C35.5496 6.60722 35.3926 6.68291 35.2298 6.74108C35.0669 6.79924 34.8982 6.8398 34.7296 6.86888C34.5551 6.90378 34.3806 6.91546 34.2119 6.91546C33.8862 6.91546 33.5837 6.86323 33.3103 6.75272C33.037 6.64221 32.7985 6.47931 32.5949 6.26992C32.3972 6.05471 32.2401 5.79306 32.1296 5.47897C32.0191 5.16489 31.961 4.80407 31.961 4.39692C31.961 4.07121 32.0133 3.76318 32.1122 3.47818C32.2169 3.19317 32.3623 2.94888 32.5484 2.73949C32.7404 2.5301 32.9672 2.36137 33.2406 2.24504C33.5139 2.12289 33.8222 2.0647 34.1653 2.0647C34.4445 2.0647 34.7063 2.11123 34.9448 2.21011C35.1891 2.30317 35.3984 2.43706 35.5671 2.61737C35.7474 2.79186 35.887 3.01267 35.9859 3.28023C36.0847 3.53615 36.1313 3.83876 36.1313 4.17029C36.1313 4.30407 36.1197 4.39114 36.0906 4.43186C36.0615 4.47257 36.0091 4.49604 35.9335 4.49604H32.781C32.7927 4.79267 32.8334 5.05432 32.9032 5.27534C32.9788 5.49636 33.0777 5.67679 33.2115 5.82801C33.3395 5.97342 33.4965 6.08383 33.6768 6.15944C33.8571 6.22924 34.0549 6.26424 34.2817 6.26424C34.4911 6.26424 34.6655 6.24091 34.8168 6.19437C34.968 6.14784 35.096 6.09548 35.2065 6.03732C35.317 5.97916 35.4042 5.93248 35.474 5.88595C35.5496 5.8336 35.6137 5.8104 35.666 5.8104C35.7358 5.8104 35.7882 5.8336 35.8231 5.88595L36.0557 6.18841ZM42.064 6.13615C42.3257 6.13615 42.5468 6.10713 42.7329 6.04896C42.919 5.98498 43.0702 5.90345 43.1865 5.79876C43.3087 5.69406 43.396 5.56616 43.4541 5.42075C43.5065 5.26953 43.5356 5.10676 43.5356 4.93227C43.5356 4.58329 43.4134 4.31551 43.1691 4.11775C42.9248 3.91418 42.5584 3.81529 42.064 3.81529H40.6216V6.13615H42.064ZM40.6216 0.895459V3.16975H41.8139C42.0698 3.16975 42.2908 3.14059 42.4769 3.08824C42.6631 3.03008 42.8201 2.95452 42.9423 2.85564C43.0644 2.75676 43.1575 2.63455 43.2156 2.49496C43.2738 2.35537 43.3029 2.19844 43.3029 2.02976C43.3029 1.63425 43.1866 1.34926 42.9481 1.16895C42.7154 0.988646 42.349 0.895459 41.8546 0.895459H40.6216ZM41.8546 0.186021C42.2618 0.186021 42.6165 0.22685 42.9073 0.302462C43.204 0.383892 43.4483 0.499992 43.6402 0.651217C43.8322 0.796626 43.9717 0.982716 44.0648 1.19792C44.152 1.41313 44.1986 1.6516 44.1986 1.92497C44.1986 2.08783 44.1695 2.2449 44.1172 2.39613C44.0707 2.54735 43.995 2.68707 43.8904 2.81503C43.7857 2.94881 43.6577 3.06505 43.5006 3.16975C43.3436 3.27444 43.1633 3.35598 42.9481 3.41996C43.4425 3.51302 43.8089 3.69313 44.0532 3.94905C44.3033 4.20497 44.4254 4.53678 44.4254 4.95556C44.4254 5.23474 44.3731 5.49056 44.2684 5.72321C44.1637 5.95587 44.0125 6.15946 43.8089 6.32814C43.6112 6.491 43.3669 6.62473 43.076 6.71779C42.7852 6.80504 42.4537 6.85156 42.0815 6.85156H39.7258V0.186021H41.8546ZM49.3228 2.14024V6.85156H48.8284C48.7121 6.85156 48.6365 6.79351 48.6074 6.67718L48.5434 6.17109C48.3341 6.39792 48.1072 6.58388 47.8513 6.72347C47.6012 6.85725 47.3045 6.9271 46.9788 6.9271C46.7229 6.9271 46.4903 6.88654 46.2925 6.7993C46.1006 6.71205 45.9318 6.58984 45.7981 6.43862C45.6701 6.28157 45.5655 6.09533 45.4957 5.8743C45.4317 5.65328 45.4026 5.40913 45.4026 5.14158V2.14024H46.2285V5.14158C46.2285 5.50219 46.3099 5.77566 46.4728 5.97342C46.6356 6.16536 46.8858 6.26424 47.2173 6.26424C47.4674 6.26424 47.6942 6.20605 47.9036 6.09554C48.1188 5.9734 48.3166 5.81616 48.4969 5.60677V2.14024H49.3228ZM51.5098 2.14024V6.85156H50.6838V2.14024H51.5098ZM51.69 0.657181C51.69 0.73861 51.6726 0.814303 51.6377 0.884099C51.6086 0.953896 51.5621 1.01777 51.504 1.07012C51.4516 1.12247 51.3876 1.16884 51.3178 1.19792C51.2422 1.227 51.1666 1.2445 51.0852 1.2445C51.0096 1.2445 50.934 1.227 50.8583 1.19792C50.7944 1.16884 50.7304 1.12247 50.678 1.07012C50.6257 1.01777 50.585 0.953896 50.5501 0.884099C50.521 0.814303 50.5036 0.73861 50.5036 0.657181C50.5036 0.575752 50.521 0.50006 50.5501 0.430263C50.585 0.354651 50.6257 0.290625 50.678 0.238278C50.7304 0.185931 50.7944 0.139559 50.8583 0.110477C50.934 0.0755787 51.0096 0.0639005 51.0852 0.0639005C51.1666 0.0639005 51.2422 0.0755787 51.3178 0.110477C51.3876 0.139559 51.4516 0.185931 51.504 0.238278C51.5621 0.290625 51.6086 0.354651 51.6377 0.430263C51.6726 0.50006 51.69 0.575752 51.69 0.657181ZM53.7258 0V6.85156H52.8999V0H53.7258ZM58.1405 3.25694C57.9892 3.05337 57.8206 2.9081 57.6403 2.82667C57.4599 2.74525 57.2564 2.69859 57.0353 2.69859C56.5991 2.69859 56.2618 2.85567 56.0233 3.16975C55.7906 3.48383 55.6743 3.93173 55.6743 4.51336C55.6743 4.81582 55.6976 5.08329 55.7499 5.30431C55.8023 5.51952 55.8837 5.69978 55.9825 5.83937C56.0872 5.97896 56.2094 6.08382 56.3606 6.1478C56.5118 6.21178 56.6805 6.24663 56.8666 6.24663C57.14 6.24663 57.3785 6.18275 57.582 6.06061C57.7856 5.93847 57.9718 5.76403 58.1405 5.53719V3.25694ZM58.9722 0V6.85156H58.4778C58.3614 6.85156 58.2858 6.79351 58.2567 6.67718L58.1811 6.10719C57.9776 6.35147 57.7508 6.54328 57.489 6.6945C57.2331 6.83991 56.9364 6.91546 56.5991 6.91546C56.3257 6.91546 56.0814 6.86324 55.8604 6.76437C55.6394 6.65967 55.4533 6.50261 55.3021 6.30485C55.145 6.10128 55.0229 5.851 54.9414 5.54855C54.86 5.2461 54.8134 4.90306 54.8134 4.51336C54.8134 4.16438 54.86 3.83871 54.953 3.54208C55.0461 3.23963 55.1799 2.9838 55.3544 2.76277C55.5289 2.54175 55.7441 2.36718 55.9942 2.24504C56.2443 2.11708 56.5351 2.05305 56.8492 2.05305C57.14 2.05305 57.3843 2.10526 57.5879 2.20414C57.7972 2.2972 57.9834 2.43705 58.1405 2.60572V0H58.9722ZM61.1533 2.14024V6.85156H60.3274V2.14024H61.1533ZM61.3278 0.657181C61.3278 0.73861 61.3161 0.814303 61.2812 0.884099C61.2463 0.953896 61.2056 1.01777 61.1475 1.07012C61.0951 1.12247 61.0312 1.16884 60.9556 1.19792C60.8858 1.227 60.8101 1.2445 60.7287 1.2445C60.6473 1.2445 60.5717 1.227 60.5019 1.19792C60.4321 1.16884 60.3739 1.12247 60.3216 1.07012C60.2692 1.01777 60.2285 0.953896 60.1936 0.884099C60.1645 0.814303 60.1471 0.73861 60.1471 0.657181C60.1471 0.575752 60.1645 0.50006 60.1936 0.430263C60.2285 0.354651 60.2692 0.290625 60.3216 0.238278C60.3739 0.185931 60.4321 0.139559 60.5019 0.110477C60.5717 0.0755787 60.6473 0.0639005 60.7287 0.0639005C60.8101 0.0639005 60.8858 0.0755787 60.9556 0.110477C61.0312 0.139559 61.0951 0.185931 61.1475 0.238278C61.2056 0.290625 61.2463 0.354651 61.2812 0.430263C61.3161 0.50006 61.3278 0.575752 61.3278 0.657181ZM63.2937 2.82071C63.3984 2.70438 63.5089 2.60563 63.6194 2.51257C63.7358 2.41951 63.8579 2.33799 63.9859 2.27401C64.1138 2.20421 64.2535 2.15185 64.393 2.11695C64.5385 2.08205 64.6955 2.0647 64.8641 2.0647C65.1201 2.0647 65.3469 2.10554 65.5447 2.19278C65.7424 2.28003 65.9053 2.39629 66.0391 2.55914C66.1728 2.71037 66.2717 2.90229 66.3415 3.11749C66.4055 3.33851 66.4404 3.58267 66.4404 3.85022V6.85156H65.6086V3.85022C65.6086 3.49542 65.5272 3.21628 65.3643 3.02434C65.2015 2.82077 64.9572 2.72188 64.6199 2.72188C64.3756 2.72188 64.1487 2.78589 63.9335 2.90222C63.7241 3.01855 63.5264 3.1813 63.3461 3.37906V6.85156H62.5143V2.14024H63.0146C63.1309 2.14024 63.2007 2.19261 63.2298 2.30894L63.2937 2.82071ZM69.3485 4.5483C69.5114 4.5483 69.6626 4.52496 69.7906 4.47843C69.9185 4.4319 70.0233 4.36801 70.1105 4.28077C70.1978 4.19934 70.2617 4.10031 70.3024 3.98398C70.349 3.86766 70.3722 3.73989 70.3722 3.6003C70.3722 3.30948 70.2792 3.08267 70.1047 2.90818C69.9302 2.73951 69.6801 2.65201 69.3485 2.65201C69.0112 2.65201 68.7553 2.73951 68.5808 2.90818C68.4063 3.08267 68.3191 3.30948 68.3191 3.6003C68.3191 3.73989 68.3424 3.86766 68.3831 3.98398C68.4296 4.10031 68.4994 4.19934 68.5808 4.28077C68.668 4.36801 68.7786 4.4319 68.9066 4.47843C69.0345 4.52496 69.1799 4.5483 69.3485 4.5483ZM70.8376 7.10744C70.8376 6.99111 70.8085 6.89806 70.7445 6.82827C70.6747 6.75847 70.5875 6.70028 70.4769 6.65957C70.3664 6.61886 70.2443 6.58969 70.093 6.57806C69.9476 6.56061 69.7965 6.54326 69.6278 6.53745C69.4707 6.52582 69.302 6.5143 69.1391 6.50848C68.9705 6.49685 68.8076 6.48517 68.6506 6.4619C68.4819 6.54333 68.3365 6.64209 68.226 6.77005C68.1155 6.88637 68.0631 7.03177 68.0631 7.19463C68.0631 7.29932 68.0864 7.39835 68.1387 7.49141C68.1969 7.58447 68.2784 7.66003 68.3947 7.72401C68.5052 7.79381 68.6448 7.84603 68.8135 7.88674C68.9821 7.92746 69.1799 7.94496 69.4126 7.94496C69.6336 7.94496 69.8371 7.92746 70.0116 7.88674C70.1861 7.84603 70.3373 7.78798 70.4595 7.71237C70.5816 7.63675 70.6747 7.54953 70.7445 7.44484C70.8085 7.34596 70.8376 7.22958 70.8376 7.10744ZM71.6809 2.32655V2.62901C71.6809 2.7337 71.6169 2.79759 71.489 2.82667L70.9539 2.89654C71.0586 3.10011 71.1109 3.3269 71.1109 3.57701C71.1109 3.80385 71.0644 4.01328 70.9771 4.20522C70.8899 4.39135 70.7677 4.54829 70.6107 4.68206C70.4595 4.81584 70.2734 4.92041 70.0524 4.9902C69.8372 5.06 69.5986 5.095 69.3485 5.095C69.1275 5.095 68.9181 5.0718 68.7204 5.01946C68.6215 5.07762 68.5459 5.14733 68.4935 5.21712C68.4412 5.28692 68.4179 5.35664 68.4179 5.42643C68.4179 5.53694 68.4586 5.62444 68.5517 5.6826C68.6447 5.74077 68.7669 5.78146 68.9123 5.80472C69.0635 5.82799 69.2323 5.8452 69.4184 5.85102C69.6162 5.85683 69.808 5.8685 70.0058 5.88595C70.2094 5.89758 70.4071 5.92091 70.5932 5.95581C70.7852 5.98489 70.9539 6.04322 71.1051 6.11883C71.2563 6.20026 71.3726 6.3047 71.4657 6.4443C71.5588 6.57807 71.6053 6.75265 71.6053 6.97368C71.6053 7.17143 71.553 7.36934 71.4483 7.56128C71.3494 7.7474 71.204 7.916 71.0179 8.0614C70.826 8.21263 70.5933 8.32888 70.3199 8.41612C70.0465 8.50337 69.7383 8.54989 69.3951 8.54989C69.0461 8.54989 68.7495 8.51517 68.4877 8.44538C68.2318 8.3814 68.0166 8.28821 67.8479 8.17188C67.6793 8.05555 67.5513 7.92763 67.464 7.77059C67.3768 7.62518 67.3361 7.46797 67.3361 7.30511C67.3361 7.07245 67.4117 6.87468 67.5571 6.71183C67.7025 6.54897 67.9003 6.4212 68.1562 6.32814C68.0166 6.26416 67.9061 6.18263 67.8189 6.07793C67.7375 5.97324 67.6967 5.83366 67.6967 5.65335C67.6967 5.58937 67.7142 5.51965 67.7375 5.44404C67.7607 5.37424 67.8014 5.29856 67.8479 5.22877C67.9003 5.15315 67.9642 5.08344 68.0398 5.01946C68.1155 4.95548 68.2027 4.89714 68.3016 4.8448C68.069 4.71683 67.8828 4.54255 67.7548 4.32734C67.6269 4.11214 67.5571 3.86201 67.5571 3.57701C67.5571 3.34435 67.6036 3.1406 67.6909 2.95448C67.7781 2.76254 67.9061 2.60573 68.0631 2.47196C68.2202 2.33818 68.4063 2.23914 68.6273 2.16353C68.8483 2.09373 69.0868 2.05873 69.3485 2.05873C69.5521 2.05873 69.7441 2.08207 69.9186 2.1286C70.0931 2.16931 70.2559 2.2393 70.4013 2.32655H71.6809ZM72.4894 7.9799C72.4603 7.95663 72.4429 7.93345 72.4371 7.916C72.4254 7.89855 72.4196 7.87521 72.4196 7.84613C72.4196 7.82287 72.4312 7.8055 72.4429 7.78223C72.4545 7.75897 72.4719 7.74146 72.4894 7.72401C72.5243 7.68911 72.5592 7.64244 72.6058 7.58428C72.6581 7.53193 72.7105 7.46223 72.757 7.38662C72.8093 7.311 72.85 7.22976 72.8908 7.13669C72.9373 7.04363 72.9663 6.95057 72.9838 6.84588C72.9779 6.85169 72.9664 6.85156 72.9547 6.85156C72.9431 6.85156 72.9314 6.85156 72.9256 6.85156C72.7628 6.85156 72.629 6.7992 72.5301 6.6945C72.4313 6.58399 72.3789 6.44442 72.3789 6.28156C72.3789 6.13615 72.4313 6.00811 72.5301 5.90924C72.629 5.80454 72.7686 5.75218 72.9314 5.75218C73.0245 5.75218 73.1118 5.76982 73.1816 5.80472C73.2514 5.83962 73.3095 5.88615 73.356 5.95013C73.4084 6.0083 73.4433 6.07801 73.4666 6.15944C73.4956 6.23505 73.5072 6.32227 73.5072 6.41533C73.5072 6.55492 73.484 6.70033 73.4433 6.85156C73.4084 7.00278 73.3502 7.14805 73.2746 7.29346C73.199 7.44469 73.1059 7.58442 73.0012 7.72401C72.8907 7.8636 72.7686 7.99733 72.629 8.11366L72.4894 7.9799ZM81.9061 5.47301C81.9526 5.47301 81.9992 5.49648 82.0341 5.53719L82.3947 5.92088C82.1213 6.23496 81.7898 6.48508 81.4001 6.65957C81.0104 6.83988 80.5392 6.9271 79.9867 6.9271C79.5097 6.9271 79.0735 6.84585 78.6838 6.67718C78.2941 6.51432 77.9626 6.28155 77.6834 5.9791C77.4101 5.68247 77.1949 5.32179 77.0436 4.90302C76.8924 4.48424 76.8168 4.02481 76.8168 3.51879C76.8168 3.01858 76.8924 2.55902 77.0495 2.14024C77.2123 1.72146 77.4333 1.36093 77.7183 1.05848C78.0033 0.756025 78.3523 0.523257 78.7478 0.360399C79.1491 0.191724 79.5912 0.110477 80.0739 0.110477C80.5509 0.110477 80.9697 0.185885 81.3303 0.337111C81.6967 0.488336 82.0166 0.69776 82.2899 0.95368L81.9934 1.37258C81.9759 1.40166 81.9468 1.42486 81.9178 1.44813C81.8887 1.46558 81.8537 1.4771 81.8014 1.4771C81.749 1.4771 81.6793 1.44807 81.5978 1.38991C81.5164 1.32593 81.4117 1.25607 81.2837 1.18628C81.15 1.11066 80.9871 1.0411 80.7952 0.982932C80.5974 0.924768 80.3589 0.889779 80.0739 0.889779C79.725 0.889779 79.4109 0.953793 79.1259 1.07012C78.8409 1.19226 78.5966 1.36102 78.3872 1.58786C78.1836 1.8147 78.0208 2.0937 77.9103 2.41942C77.7939 2.74513 77.7358 3.11164 77.7358 3.51879C77.7358 3.93757 77.7939 4.30409 77.9103 4.62981C78.0324 4.95552 78.1953 5.23453 78.3988 5.46136C78.6082 5.68239 78.8525 5.85709 79.1317 5.97342C79.4109 6.08975 79.7191 6.1478 80.0448 6.1478C80.2426 6.1478 80.4229 6.13628 80.58 6.11883C80.737 6.08975 80.8882 6.05474 81.022 6.00239C81.1558 5.95586 81.2838 5.89198 81.4001 5.81637C81.5164 5.74075 81.6327 5.64757 81.7491 5.54287C81.8014 5.49634 81.8538 5.47301 81.9061 5.47301ZM85.14 2.0647C85.4831 2.0647 85.7972 2.12288 86.0706 2.23339C86.3498 2.34972 86.5825 2.51249 86.7802 2.72188C86.9722 2.93708 87.1234 3.19319 87.2223 3.48982C87.3328 3.79227 87.3851 4.12365 87.3851 4.49008C87.3851 4.86232 87.3328 5.19966 87.2223 5.4963C87.1234 5.79293 86.9722 6.04888 86.7802 6.25827C86.5825 6.47348 86.3498 6.63625 86.0706 6.74676C85.7972 6.86309 85.4831 6.91546 85.14 6.91546C84.791 6.91546 84.4769 6.86309 84.1977 6.74676C83.9244 6.63625 83.6859 6.47348 83.494 6.25827C83.2962 6.04888 83.145 5.79293 83.0403 5.4963C82.9414 5.19966 82.889 4.86232 82.889 4.49008C82.889 4.12365 82.9414 3.79227 83.0403 3.48982C83.145 3.19319 83.2962 2.93708 83.494 2.72188C83.6859 2.51249 83.9244 2.34972 84.1977 2.23339C84.4769 2.12288 84.791 2.0647 85.14 2.0647ZM85.14 6.26992C85.6053 6.26992 85.9543 6.11299 86.1811 5.80472C86.4138 5.49064 86.5243 5.05441 86.5243 4.49604C86.5243 3.93767 86.4138 3.49563 86.1811 3.18736C85.9543 2.87327 85.6053 2.7162 85.14 2.7162C84.9073 2.7162 84.698 2.75689 84.5235 2.83832C84.349 2.91393 84.2036 3.03032 84.0814 3.18736C83.9709 3.33858 83.8836 3.52468 83.8255 3.74571C83.7673 3.96673 83.7383 4.21685 83.7383 4.49604C83.7383 5.05441 83.8546 5.49064 84.0814 5.80472C84.3141 6.11299 84.6689 6.26992 85.14 6.26992ZM92.3116 2.14024V6.85156H91.8172C91.7008 6.85156 91.6252 6.79351 91.5961 6.67718L91.5263 6.17109C91.3228 6.39792 91.096 6.58388 90.84 6.72347C90.5841 6.85725 90.2933 6.9271 89.9676 6.9271C89.7059 6.9271 89.479 6.88654 89.2812 6.7993C89.0835 6.71205 88.9206 6.58984 88.7869 6.43862C88.6531 6.28157 88.5542 6.09533 88.4844 5.8743C88.4204 5.65328 88.3856 5.40913 88.3856 5.14158V2.14024H89.2173V5.14158C89.2173 5.50219 89.2987 5.77566 89.4557 5.97342C89.6244 6.16536 89.8746 6.26424 90.2061 6.26424C90.4504 6.26424 90.6772 6.20605 90.8924 6.09554C91.1076 5.9734 91.2995 5.81616 91.4798 5.60677V2.14024H92.3116ZM94.4055 2.82071C94.5044 2.70438 94.6148 2.60563 94.7312 2.51257C94.8475 2.41951 94.9638 2.33799 95.0918 2.27401C95.2256 2.20421 95.3594 2.15185 95.5048 2.11695C95.6502 2.08205 95.8072 2.0647 95.9701 2.0647C96.2318 2.0647 96.4587 2.10554 96.6506 2.19278C96.8483 2.28003 97.017 2.39629 97.145 2.55914C97.2787 2.71037 97.3776 2.90229 97.4474 3.11749C97.5172 3.33851 97.5522 3.58267 97.5522 3.85022V6.85156H96.7146V3.85022C96.7146 3.49542 96.6331 3.21628 96.4702 3.02434C96.3074 2.82077 96.0632 2.72188 95.7316 2.72188C95.4873 2.72188 95.2547 2.78589 95.0395 2.90222C94.8301 3.01855 94.6381 3.1813 94.4578 3.37906V6.85156H93.6203V2.14024H94.1205C94.2368 2.14024 94.3124 2.19261 94.3415 2.30894L94.4055 2.82071ZM100.199 6.9271C99.8263 6.9271 99.5355 6.82238 99.3378 6.61299C99.1342 6.4036 99.0353 6.10695 99.0353 5.71725V2.83235H98.4711C98.4188 2.83235 98.3781 2.81501 98.3432 2.79174C98.3083 2.75684 98.2908 2.71018 98.2908 2.65201V2.32058L99.0644 2.22175L99.2563 0.767658C99.268 0.721127 99.2854 0.680299 99.3145 0.651217C99.3494 0.622135 99.3959 0.604641 99.4482 0.604641H99.8671V2.23339H101.228V2.83235H99.8671V5.65931C99.8671 5.85707 99.9136 6.00816 100.012 6.10122C100.106 6.2001 100.228 6.24663 100.385 6.24663C100.466 6.24663 100.542 6.23496 100.606 6.2117C100.67 6.18843 100.728 6.16524 100.774 6.13615C100.821 6.10707 100.856 6.08387 100.891 6.06061C100.926 6.03734 100.955 6.02568 100.978 6.02568C101.019 6.02568 101.059 6.04887 101.094 6.10122L101.339 6.49684C101.193 6.63061 101.019 6.73519 100.821 6.81662C100.617 6.88642 100.408 6.9271 100.199 6.9271ZM106.149 2.14024L103.52 8.24175C103.496 8.30573 103.456 8.35212 103.415 8.39284C103.374 8.42773 103.31 8.44538 103.223 8.44538H102.612L103.473 6.57806L101.525 2.14024H102.24C102.316 2.14024 102.368 2.15788 102.409 2.19278C102.455 2.22768 102.484 2.26822 102.496 2.30894L103.758 5.28102C103.811 5.40898 103.851 5.54287 103.886 5.68828C103.927 5.54287 103.973 5.4033 104.026 5.27534L105.247 2.30894C105.265 2.26241 105.299 2.22172 105.34 2.18682C105.387 2.15774 105.439 2.14024 105.497 2.14024H106.149ZM114.635 0.186021V6.85156H113.733V3.81529H110.133V6.85156H109.231V0.186021H110.133V3.15811H113.733V0.186021H114.635ZM118.561 4.72864C118.183 4.74027 117.857 4.77498 117.584 4.82151C117.316 4.86804 117.101 4.9322 116.926 5.00781C116.764 5.08924 116.636 5.17633 116.56 5.28102C116.484 5.39153 116.45 5.50807 116.45 5.63603C116.45 5.76399 116.467 5.86857 116.508 5.95581C116.548 6.04887 116.607 6.12457 116.671 6.18273C116.746 6.23508 116.828 6.28159 116.921 6.30485C117.014 6.33393 117.118 6.34546 117.229 6.34546C117.374 6.34546 117.508 6.32812 117.624 6.30485C117.747 6.26995 117.863 6.22925 117.968 6.17109C118.072 6.11874 118.177 6.04903 118.276 5.97342C118.375 5.89199 118.468 5.80448 118.561 5.70561V4.72864ZM115.885 2.80339C116.147 2.55328 116.426 2.36703 116.729 2.23907C117.031 2.11693 117.363 2.05305 117.729 2.05305C117.991 2.05305 118.229 2.09957 118.433 2.18682C118.636 2.27406 118.811 2.39046 118.951 2.5475C119.09 2.70454 119.195 2.89051 119.265 3.11153C119.334 3.33255 119.369 3.57102 119.369 3.83857V6.85156H119.003C118.921 6.85156 118.863 6.83989 118.817 6.81662C118.776 6.78754 118.741 6.73532 118.718 6.65389L118.625 6.2117C118.497 6.32221 118.375 6.42691 118.258 6.51416C118.142 6.60141 118.02 6.6771 117.886 6.74108C117.758 6.79924 117.619 6.84576 117.467 6.87484C117.322 6.90974 117.159 6.9271 116.979 6.9271C116.798 6.9271 116.624 6.9039 116.461 6.85156C116.304 6.79921 116.159 6.72365 116.042 6.61896C115.92 6.51426 115.827 6.38621 115.757 6.23499C115.688 6.07213 115.653 5.88603 115.653 5.67664C115.653 5.49051 115.705 5.31025 115.81 5.14158C115.909 4.96709 116.077 4.80987 116.304 4.6761C116.537 4.54232 116.833 4.43788 117.206 4.35063C117.572 4.26339 118.026 4.21685 118.561 4.20522V3.83857C118.561 3.47214 118.485 3.19314 118.322 3.00702C118.165 2.82089 117.933 2.72188 117.63 2.72188C117.427 2.72188 117.252 2.75104 117.113 2.80339C116.979 2.85573 116.857 2.90797 116.758 2.97776C116.659 3.03593 116.572 3.09411 116.496 3.14646C116.426 3.19881 116.351 3.22201 116.281 3.22201C116.228 3.22201 116.176 3.21048 116.135 3.18139C116.095 3.1465 116.066 3.11163 116.037 3.07092L115.885 2.80339ZM121.486 0V6.85156H120.661V0H121.486ZM123.691 0V6.85156H122.859V0H123.691ZM124.982 7.9799C124.953 7.95663 124.936 7.93345 124.93 7.916C124.918 7.89855 124.912 7.87521 124.912 7.84613C124.912 7.82287 124.924 7.8055 124.936 7.78223C124.947 7.75897 124.965 7.74146 124.982 7.72401C125.017 7.68911 125.052 7.64244 125.098 7.58428C125.151 7.53193 125.203 7.46223 125.25 7.38662C125.302 7.311 125.343 7.22976 125.383 7.13669C125.43 7.04363 125.459 6.95057 125.476 6.84588C125.471 6.85169 125.459 6.85156 125.447 6.85156C125.436 6.85156 125.424 6.85156 125.418 6.85156C125.255 6.85156 125.122 6.7992 125.023 6.6945C124.924 6.58399 124.872 6.44442 124.872 6.28156C124.872 6.13615 124.924 6.00811 125.023 5.90924C125.122 5.80454 125.261 5.75218 125.424 5.75218C125.517 5.75218 125.604 5.76982 125.674 5.80472C125.744 5.83962 125.802 5.88615 125.849 5.95013C125.901 6.0083 125.936 6.07801 125.959 6.15944C125.988 6.23505 126 6.32227 126 6.41533C126 6.55492 125.977 6.70033 125.936 6.85156C125.901 7.00278 125.843 7.14805 125.767 7.29346C125.692 7.44469 125.599 7.58442 125.494 7.72401C125.383 7.8636 125.261 7.99733 125.122 8.11366L124.982 7.9799ZM3.78646 20.0548V20.8108H0V14.1453H0.901565V20.0548H3.78646ZM6.2352 16.024C6.58418 16.024 6.89243 16.0822 7.1658 16.1927C7.44499 16.309 7.67763 16.4718 7.87538 16.6812C8.07314 16.8964 8.21856 17.1525 8.32326 17.4491C8.42795 17.7516 8.48031 18.0829 8.48031 18.4494C8.48031 18.8216 8.42795 19.1589 8.32326 19.4556C8.21856 19.7522 8.07314 20.0082 7.87538 20.2176C7.67763 20.4328 7.44499 20.5955 7.1658 20.706C6.89243 20.8224 6.58418 20.8747 6.2352 20.8747C5.89203 20.8747 5.57789 20.8224 5.2987 20.706C5.01952 20.5955 4.78688 20.4328 4.58912 20.2176C4.39718 20.0082 4.24594 19.7522 4.14125 19.4556C4.03656 19.1589 3.98427 18.8216 3.98427 18.4494C3.98427 18.0829 4.03656 17.7516 4.14125 17.4491C4.24594 17.1525 4.39718 16.8964 4.58912 16.6812C4.78688 16.4718 5.01952 16.309 5.2987 16.1927C5.57789 16.0822 5.89203 16.024 6.2352 16.024ZM6.2352 20.2292C6.70051 20.2292 7.04945 20.0723 7.2821 19.764C7.50894 19.4499 7.62525 19.0137 7.62525 18.4553C7.62525 17.897 7.50894 17.4549 7.2821 17.1466C7.04945 16.8326 6.70051 16.6755 6.2352 16.6755C6.00254 16.6755 5.79312 16.7162 5.61863 16.7976C5.44414 16.8732 5.29873 16.9896 5.1824 17.1466C5.06608 17.2979 4.97886 17.484 4.92069 17.705C4.86253 17.926 4.83926 18.1761 4.83926 18.4553C4.83926 19.0137 4.94975 19.4499 5.1824 19.764C5.41506 20.0723 5.76407 20.2292 6.2352 20.2292ZM10.3124 16.78C10.4171 16.6637 10.5218 16.5649 10.6382 16.4718C10.7545 16.3788 10.8766 16.2973 10.9988 16.2333C11.1325 16.1635 11.2663 16.1111 11.4117 16.0762C11.5571 16.0413 11.7142 16.024 11.8829 16.024C12.1388 16.024 12.3656 16.0648 12.5576 16.1521C12.7612 16.2393 12.924 16.3556 13.052 16.5184C13.1857 16.6697 13.2904 16.8616 13.3544 17.0768C13.4242 17.2978 13.4591 17.5419 13.4591 17.8095V20.8108H12.6274V17.8095C12.6274 17.4547 12.5459 17.1756 12.3772 16.9836C12.2202 16.78 11.9701 16.6812 11.6386 16.6812C11.3943 16.6812 11.1617 16.7452 10.9523 16.8615C10.7371 16.9778 10.5451 17.1406 10.3648 17.3383V20.8108H9.53303V16.0995H10.0274C10.1496 16.0995 10.2194 16.1519 10.2484 16.2682L10.3124 16.78ZM17.7923 17.2162C17.6353 17.0126 17.4666 16.8674 17.2863 16.786C17.1118 16.7045 16.9082 16.6579 16.6814 16.6579C16.2451 16.6579 15.9078 16.8149 15.6752 17.129C15.4367 17.4431 15.3204 17.891 15.3204 18.4726C15.3204 18.7751 15.3494 19.0426 15.4017 19.2636C15.4541 19.4788 15.5297 19.6591 15.6344 19.7987C15.7333 19.9382 15.8612 20.0431 16.0067 20.1071C16.1579 20.1711 16.3266 20.2059 16.5185 20.2059C16.7919 20.2059 17.0245 20.142 17.2281 20.0199C17.4316 19.8977 17.6236 19.7233 17.7923 19.4965V17.2162ZM18.6182 13.9593V20.8108H18.1238C18.0075 20.8108 17.9319 20.7528 17.9028 20.6365L17.8272 20.0665C17.6294 20.3108 17.3968 20.5026 17.1409 20.6538C16.885 20.7992 16.5825 20.8747 16.2451 20.8747C15.9776 20.8747 15.7333 20.8225 15.5123 20.7236C15.2913 20.619 15.1051 20.4619 14.9481 20.2641C14.7911 20.0606 14.6747 19.8103 14.5875 19.5078C14.5061 19.2054 14.4653 18.8623 14.4653 18.4726C14.4653 18.1237 14.5118 17.798 14.6049 17.5014C14.698 17.1989 14.8318 16.9431 15.0063 16.7221C15.1807 16.501 15.3901 16.3265 15.6402 16.2043C15.8961 16.0764 16.1811 16.0123 16.4952 16.0123C16.786 16.0123 17.0303 16.0645 17.2397 16.1634C17.4433 16.2565 17.6295 16.3963 17.7923 16.565V13.9593H18.6182ZM21.9161 16.024C22.2593 16.024 22.5675 16.0822 22.8467 16.1927C23.1201 16.309 23.3585 16.4718 23.5505 16.6812C23.7482 16.8964 23.8995 17.1525 23.9983 17.4491C24.103 17.7516 24.1554 18.0829 24.1554 18.4494C24.1554 18.8216 24.103 19.1589 23.9983 19.4556C23.8995 19.7522 23.7482 20.0082 23.5505 20.2176C23.3585 20.4328 23.1201 20.5955 22.8467 20.706C22.5675 20.8224 22.2593 20.8747 21.9161 20.8747C21.5671 20.8747 21.253 20.8224 20.9739 20.706C20.7005 20.5955 20.462 20.4328 20.2701 20.2176C20.0723 20.0082 19.9211 19.7522 19.8164 19.4556C19.7117 19.1589 19.6652 18.8216 19.6652 18.4494C19.6652 18.0829 19.7117 17.7516 19.8164 17.4491C19.9211 17.1525 20.0723 16.8964 20.2701 16.6812C20.462 16.4718 20.7005 16.309 20.9739 16.1927C21.253 16.0822 21.5671 16.024 21.9161 16.024ZM21.9161 20.2292C22.3814 20.2292 22.7304 20.0723 22.9573 19.764C23.1841 19.4499 23.3004 19.0137 23.3004 18.4553C23.3004 17.897 23.1841 17.4549 22.9573 17.1466C22.7304 16.8326 22.3814 16.6755 21.9161 16.6755C21.6776 16.6755 21.474 16.7162 21.2937 16.7976C21.125 16.8732 20.9738 16.9896 20.8575 17.1466C20.7412 17.2979 20.6598 17.484 20.5958 17.705C20.5434 17.926 20.5143 18.1761 20.5143 18.4553C20.5143 19.0137 20.6306 19.4499 20.8575 19.764C21.0901 20.0723 21.445 20.2292 21.9161 20.2292ZM25.9876 16.78C26.0923 16.6637 26.2027 16.5649 26.3132 16.4718C26.4296 16.3788 26.5517 16.2973 26.6797 16.2333C26.8076 16.1635 26.9473 16.1111 27.0869 16.0762C27.2323 16.0413 27.3893 16.024 27.5579 16.024C27.8139 16.024 28.0407 16.0648 28.2385 16.1521C28.4362 16.2393 28.5991 16.3556 28.7329 16.5184C28.8666 16.6697 28.9655 16.8616 29.0353 17.0768C29.0993 17.2978 29.1342 17.5419 29.1342 17.8095V20.8108H28.3025V17.8095C28.3025 17.4547 28.221 17.1756 28.0581 16.9836C27.8953 16.78 27.6452 16.6812 27.3137 16.6812C27.0694 16.6812 26.8425 16.7452 26.6273 16.8615C26.418 16.9778 26.2202 17.1406 26.0399 17.3383V20.8108H25.2082V16.0995H25.7084C25.8247 16.0995 25.8945 16.1519 25.9236 16.2682L25.9876 16.78ZM36.3872 15.1865C36.3581 15.233 36.3232 15.2677 36.2941 15.291C36.2592 15.3142 36.2244 15.3259 36.1778 15.3259C36.1197 15.3259 36.0615 15.297 35.9917 15.2447C35.9161 15.1923 35.8288 15.1341 35.7183 15.076C35.6136 15.0062 35.4857 14.948 35.3344 14.8956C35.1832 14.8433 35.0029 14.8201 34.7877 14.8201C34.5842 14.8201 34.4096 14.8432 34.2526 14.9013C34.1014 14.9537 33.9734 15.0295 33.8687 15.1226C33.764 15.2156 33.6884 15.3259 33.6361 15.448C33.5837 15.576 33.5547 15.7099 33.5547 15.8553C33.5547 16.0414 33.6012 16.1983 33.6884 16.3205C33.7815 16.4426 33.9036 16.5473 34.0549 16.6346C34.2061 16.7218 34.3748 16.7975 34.5667 16.8615C34.7586 16.9197 34.9506 16.9895 35.1542 17.0535C35.3519 17.1233 35.5497 17.1988 35.7358 17.2861C35.9277 17.3733 36.1022 17.4781 36.2476 17.6118C36.3989 17.7398 36.521 17.8967 36.6141 18.0887C36.7071 18.2806 36.7537 18.5134 36.7537 18.7868C36.7537 19.0776 36.7013 19.3509 36.6024 19.6126C36.5035 19.8627 36.3581 20.0838 36.1662 20.2758C35.9743 20.4677 35.7416 20.6131 35.4624 20.7236C35.1891 20.8283 34.875 20.8864 34.5202 20.8864C34.084 20.8864 33.6884 20.805 33.3395 20.6538C32.9847 20.4967 32.6822 20.2815 32.4321 20.0139L32.688 19.5893C32.7171 19.5544 32.7461 19.5254 32.781 19.5022C32.8159 19.4789 32.8567 19.4672 32.8974 19.4672C32.9381 19.4672 32.9846 19.4846 33.037 19.5195C33.0893 19.5486 33.1475 19.5894 33.2115 19.6359C33.2755 19.6883 33.351 19.7405 33.4325 19.7987C33.5197 19.8626 33.6128 19.9151 33.7175 19.9617C33.828 20.014 33.9502 20.0546 34.084 20.0895C34.2236 20.1186 34.3747 20.136 34.5492 20.136C34.7586 20.136 34.9506 20.107 35.1192 20.0489C35.2879 19.9907 35.4275 19.9092 35.5438 19.7987C35.6601 19.694 35.7474 19.5662 35.8114 19.415C35.8754 19.2637 35.9044 19.101 35.9044 18.9148C35.9044 18.7171 35.8579 18.5482 35.7648 18.4261C35.6776 18.2923 35.5555 18.1876 35.41 18.1003C35.2588 18.0131 35.0901 17.9375 34.8982 17.8794C34.7004 17.8154 34.5085 17.7573 34.3107 17.6933C34.113 17.6294 33.9152 17.5535 33.7233 17.4721C33.5313 17.3849 33.3627 17.2804 33.2115 17.1466C33.0603 17.0129 32.9439 16.844 32.8508 16.6462C32.7578 16.4427 32.7112 16.1985 32.7112 15.9019C32.7112 15.6634 32.7578 15.4364 32.8508 15.2154C32.9439 15.0002 33.0719 14.8025 33.2464 14.6338C33.4267 14.4593 33.6419 14.3255 33.8978 14.2208C34.1537 14.122 34.4446 14.0698 34.7819 14.0698C35.1541 14.0698 35.4915 14.1278 35.7939 14.2441C36.1022 14.3605 36.3698 14.5349 36.6024 14.7559L36.3872 15.1865ZM42.1396 20.0781L42.1338 20.8108H38.0274V14.1453H42.1338V14.878H38.929V17.0941H41.5289V17.7979H38.929V20.0781H42.1396ZM47.2813 20.1769V20.8108H43.71V20.1769H45.1408V15.6343C45.1408 15.4947 45.1408 15.355 45.1525 15.2154L43.966 16.2393C43.9253 16.2683 43.8845 16.2915 43.8438 16.3032C43.8031 16.309 43.7682 16.309 43.7333 16.3032C43.6984 16.2973 43.6635 16.2858 43.6344 16.2625C43.6053 16.2451 43.5879 16.2276 43.5704 16.2043L43.3087 15.8436L45.2979 14.1277H45.9726V20.1769H47.2813ZM55.3544 14.1453V14.5176C55.3544 14.6223 55.3427 14.7095 55.3195 14.7735C55.2962 14.8433 55.2729 14.9014 55.2555 14.9479L52.4869 20.52C52.452 20.5956 52.3939 20.6653 52.3241 20.7293C52.2485 20.7817 52.1554 20.8108 52.0391 20.8108H51.44L54.2434 15.3086C54.2842 15.233 54.3249 15.1632 54.3714 15.0993C54.4121 15.0295 54.4587 14.9711 54.511 14.913H51.027C50.9746 14.913 50.9281 14.8898 50.8874 14.8491C50.8467 14.8083 50.8292 14.756 50.8292 14.7037V14.1453H55.3544ZM58.5417 17.6002C58.8035 17.6002 59.0303 17.5652 59.2223 17.4954C59.42 17.4314 59.5887 17.3325 59.7225 17.2162C59.8563 17.0883 59.961 16.943 60.0308 16.7743C60.0947 16.5998 60.1296 16.4136 60.1296 16.21C60.1296 15.7854 59.9959 15.4539 59.7341 15.2154C59.4724 14.977 59.0769 14.8547 58.5417 14.8547H57.4716V17.6002H58.5417ZM58.5417 14.1453C58.9663 14.1453 59.3328 14.1918 59.641 14.2907C59.9551 14.3896 60.2168 14.5233 60.4204 14.7037C60.624 14.884 60.7752 15.105 60.8741 15.3552C60.9788 15.6111 61.0312 15.8959 61.0312 16.21C61.0312 16.5183 60.973 16.8032 60.8683 17.0592C60.7578 17.3151 60.5949 17.5422 60.3856 17.7283C60.1762 17.9144 59.9202 18.0598 59.6119 18.1645C59.3037 18.2634 58.9489 18.3156 58.5417 18.3156H57.4716V20.8108H56.5758V14.1453H58.5417ZM64.5035 20.0954C64.7653 20.0954 64.9863 20.0664 65.1724 20.0082C65.3585 19.9443 65.5098 19.8627 65.6261 19.758C65.7483 19.6533 65.8355 19.5254 65.8936 19.38C65.946 19.2288 65.9751 19.066 65.9751 18.8915C65.9751 18.5426 65.8529 18.2748 65.6086 18.077C65.3644 17.8735 64.9979 17.7746 64.5035 17.7746H63.0611V20.0954H64.5035ZM63.0611 14.8547V17.129H64.2535C64.5094 17.129 64.7303 17.0999 64.9165 17.0475C65.1026 16.9894 65.2597 16.9138 65.3818 16.8149C65.5039 16.716 65.597 16.5938 65.6552 16.4542C65.7133 16.3146 65.7424 16.1577 65.7424 15.989C65.7424 15.5935 65.6261 15.3085 65.3876 15.1282C65.155 14.9479 64.7885 14.8547 64.2941 14.8547H63.0611ZM64.2941 14.1453C64.7013 14.1453 65.0503 14.1861 65.3469 14.2617C65.6436 14.3432 65.8878 14.4593 66.0797 14.6105C66.2717 14.7559 66.4113 14.942 66.5044 15.1572C66.5916 15.3724 66.6382 15.6109 66.6382 15.8842C66.6382 16.0471 66.6091 16.2042 66.5567 16.3554C66.5102 16.5066 66.4346 16.6464 66.3299 16.7743C66.2252 16.9081 66.0972 17.0243 65.9402 17.129C65.7831 17.2337 65.6028 17.3153 65.3876 17.3792C65.882 17.4723 66.2485 17.6524 66.4927 17.9083C66.7428 18.1643 66.865 18.4961 66.865 18.9148C66.865 19.194 66.8126 19.4498 66.708 19.6825C66.6033 19.9151 66.452 20.1187 66.2484 20.2874C66.0507 20.4503 65.8064 20.584 65.5156 20.6771C65.2247 20.7643 64.8932 20.8108 64.521 20.8108H62.1653V14.1453H64.2941ZM67.9352 21.9392C67.9119 21.9159 67.8945 21.8927 67.8829 21.8753C67.8712 21.8578 67.8712 21.8345 67.8712 21.8054C67.8712 21.7821 67.8771 21.7648 67.8887 21.7415C67.9061 21.7182 67.9178 21.7007 67.941 21.6833C67.9701 21.6484 68.0108 21.6017 68.0573 21.5436C68.1038 21.4912 68.1562 21.4215 68.2027 21.3459C68.2551 21.2703 68.3016 21.189 68.3365 21.096C68.383 21.0029 68.4121 20.9098 68.4296 20.8052C68.4238 20.811 68.4122 20.8108 68.4005 20.8108C68.3889 20.8108 68.3831 20.8108 68.3714 20.8108C68.2086 20.8108 68.0806 20.7585 67.9759 20.6538C67.877 20.5433 67.8246 20.4037 67.8246 20.2408C67.8246 20.0954 67.877 19.9674 67.9759 19.8685C68.0806 19.7638 68.2144 19.7115 68.3831 19.7115C68.4761 19.7115 68.5575 19.7291 68.6273 19.764C68.6971 19.7989 68.7553 19.8454 68.8018 19.9094C68.8542 19.9676 68.889 20.0373 68.9181 20.1187C68.9414 20.1943 68.9531 20.2815 68.9531 20.3746C68.9531 20.5142 68.9356 20.6596 68.8949 20.8108C68.8542 20.9621 68.796 21.1073 68.7204 21.2527C68.6448 21.404 68.5575 21.5437 68.447 21.6833C68.3365 21.8229 68.2144 21.9566 68.0748 22.0729L67.9352 21.9392ZM75.2463 20.0954C75.5197 20.0954 75.764 20.0488 75.985 19.9557C76.2002 19.8626 76.3864 19.7289 76.5318 19.5661C76.683 19.3974 76.7993 19.1938 76.8749 18.9611C76.9564 18.7285 76.9971 18.4727 76.9971 18.1935V14.1453H77.8986V18.1935C77.8986 18.5832 77.8346 18.9379 77.7125 19.2636C77.5903 19.5951 77.4159 19.8801 77.1832 20.1244C76.9564 20.3629 76.6772 20.549 76.3515 20.6828C76.0199 20.8223 75.6535 20.8923 75.2463 20.8923C74.8334 20.8923 74.467 20.8223 74.1355 20.6828C73.8097 20.549 73.5305 20.3629 73.2979 20.1244C73.071 19.8801 72.8907 19.5951 72.7686 19.2636C72.6464 18.9379 72.5883 18.5832 72.5883 18.1935V14.1453H73.484V18.1935C73.484 18.4727 73.5247 18.7285 73.6003 18.9611C73.6818 19.1938 73.7981 19.3917 73.9435 19.5604C74.0947 19.729 74.2809 19.8568 74.5019 19.9557C74.7171 20.0488 74.9672 20.0954 75.2463 20.0954ZM80.4113 17.0651H80.7545C80.8708 17.0651 80.9639 17.0536 81.0337 17.0245C81.1093 16.9896 81.1732 16.9431 81.2314 16.8675L83.4532 14.3546C83.5114 14.279 83.5754 14.221 83.6452 14.1919C83.715 14.157 83.7964 14.1453 83.8953 14.1453H84.6631L82.1213 17.0129C82.0573 17.0885 81.9991 17.1524 81.941 17.1989C81.8828 17.2454 81.8247 17.2863 81.7549 17.3153C81.8421 17.3444 81.9178 17.385 81.9876 17.4431C82.0515 17.4955 82.1213 17.5652 82.1853 17.6524L84.8375 20.8108H84.0581C83.9942 20.8108 83.9476 20.805 83.9011 20.7992C83.8604 20.7934 83.8255 20.7817 83.7964 20.7643C83.7615 20.7468 83.7383 20.7235 83.7092 20.706C83.6917 20.677 83.6685 20.6537 83.6452 20.6189L81.3477 17.9725C81.2837 17.8969 81.2198 17.8386 81.15 17.8095C81.0743 17.7746 80.9697 17.7572 80.8243 17.7572H80.4113V20.8108H79.5156V14.1453H80.4113V17.0651Z" fill="white"/>
</svg>
