<svg width="170" height="98" viewBox="0 0 170 98" fill="none" xmlns="http://www.w3.org/2000/svg">
<g filter="url(#filter0_d_2_1367)">
<path d="M170 0H0V97.4744H170V0Z" fill="white"/>
<path d="M16.9941 17.9692V17.6732H21.6009V17.9692H21.2122C20.777 17.9692 20.4521 18.0968 20.2548 18.3579C20.1272 18.5262 20.0633 18.9324 20.0633 19.5764V24.8387C20.0633 25.6452 19.9763 26.3009 19.7964 26.8057C19.6166 27.3047 19.3149 27.7457 18.8797 28.1228C18.4504 28.4883 17.9224 28.6738 17.3131 28.6738C16.8142 28.6738 16.4197 28.552 16.1354 28.3084C15.8511 28.0647 15.706 27.7804 15.706 27.4613C15.706 27.206 15.7756 27.0086 15.9091 26.8751C16.0831 26.7127 16.2862 26.6315 16.5183 26.6315C16.6865 26.6315 16.8374 26.6839 16.9708 26.7941C17.1101 26.9101 17.2784 27.2059 17.4872 27.6817C17.6091 27.9718 17.7657 28.1112 17.9513 28.1112C18.0964 28.1112 18.2299 28.024 18.3517 27.85C18.4794 27.6759 18.5432 27.3683 18.5432 26.9216V19.5764C18.5432 19.031 18.5084 18.6711 18.4388 18.497C18.3866 18.3636 18.2705 18.2534 18.1022 18.1548C17.8759 18.0329 17.6381 17.9692 17.3828 17.9692H16.9941ZM25.7668 20.9513C26.8692 20.9513 27.751 21.3691 28.4183 22.2046C28.9811 22.9182 29.2653 23.7362 29.2653 24.6645C29.2653 25.3143 29.1087 25.9702 28.7954 26.6374C28.4879 27.3047 28.0528 27.8034 27.5016 28.1457C26.962 28.4823 26.3528 28.6506 25.6797 28.6506C24.5831 28.6506 23.7128 28.2154 23.0688 27.3451C22.5234 26.6083 22.2507 25.7844 22.2507 24.8676C22.2507 24.2004 22.4189 23.539 22.7438 22.8834C23.0804 22.222 23.5155 21.7405 24.0551 21.4272C24.5947 21.1081 25.1633 20.9513 25.7668 20.9513ZM25.5231 21.4677C25.2388 21.4677 24.9603 21.5491 24.6702 21.7173C24.3917 21.8856 24.1654 22.1755 23.9913 22.5933C23.8172 23.011 23.7302 23.5448 23.7302 24.2005C23.7302 25.2622 23.9391 26.1733 24.3568 26.9392C24.7804 27.705 25.3316 28.0879 26.022 28.0879C26.5326 28.0879 26.9562 27.8789 27.2927 27.4553C27.6234 27.0318 27.7917 26.3067 27.7917 25.2739C27.7917 23.98 27.5131 22.9647 26.9561 22.2278C26.579 21.7172 26.1033 21.4677 25.5231 21.4677ZM33.8896 20.9513C34.992 20.9513 35.8739 21.3691 36.5411 22.2046C37.1039 22.9182 37.3882 23.7362 37.3882 24.6645C37.3882 25.3143 37.2316 25.9702 36.9183 26.6374C36.6108 27.3047 36.1756 27.8034 35.6244 28.1457C35.0848 28.4823 34.4756 28.6506 33.8026 28.6506C32.706 28.6506 31.8357 28.2154 31.1917 27.3451C30.6463 26.6083 30.3736 25.7844 30.3736 24.8676C30.3736 24.2004 30.5418 23.539 30.8667 22.8834C31.2032 22.222 31.6384 21.7405 32.178 21.4272C32.7176 21.1081 33.2862 20.9513 33.8896 20.9513ZM33.6459 21.4677C33.3616 21.4677 33.0831 21.5491 32.793 21.7173C32.5145 21.8856 32.2882 22.1755 32.1142 22.5933C31.9401 23.011 31.8531 23.5448 31.8531 24.2005C31.8531 25.2622 32.062 26.1733 32.4797 26.9392C32.9033 27.705 33.4544 28.0879 34.1449 28.0879C34.6555 28.0879 35.0791 27.8789 35.4156 27.4553C35.7463 27.0318 35.9145 26.3067 35.9145 25.2739C35.9145 23.98 35.636 22.9647 35.079 22.2278C34.7019 21.7172 34.2261 21.4677 33.6459 21.4677ZM45.3545 22.663H50.35V19.5877C50.35 19.0365 50.3152 18.6711 50.2456 18.497C50.1934 18.3636 50.0831 18.2534 49.9149 18.1548C49.6886 18.0329 49.4449 17.9692 49.1896 17.9692H48.8125V17.6732H53.4135V17.9692H53.0306C52.7753 17.9692 52.5374 18.027 52.3111 18.1488C52.1371 18.2359 52.021 18.3637 51.9572 18.5378C51.8992 18.7061 51.8702 19.0539 51.8702 19.5877V26.5272C51.8702 27.0726 51.9049 27.4323 51.9746 27.6063C52.0268 27.7398 52.1371 27.8499 52.2995 27.9486C52.5316 28.0704 52.7753 28.1344 53.0306 28.1344H53.4135V28.4302H48.8125V28.1344H49.1896C49.6306 28.1344 49.9496 28.0065 50.1527 27.7454C50.2862 27.5772 50.35 27.1713 50.35 26.5272V23.2488H45.3545V26.5272C45.3545 27.0726 45.3892 27.4323 45.4531 27.6063C45.5053 27.7398 45.6214 27.8499 45.7896 27.9486C46.0159 28.0704 46.2538 28.1344 46.5091 28.1344H46.8978V28.4302H42.291V28.1344H42.6681C43.1149 28.1344 43.4398 28.0065 43.637 27.7454C43.7647 27.5772 43.8285 27.1713 43.8285 26.5272V19.5877C43.8285 19.0365 43.7937 18.6711 43.7241 18.497C43.6719 18.3636 43.5675 18.2534 43.3992 18.1548C43.1671 18.0329 42.9234 17.9692 42.6681 17.9692H42.291V17.6732H46.8978V17.9692H46.5091C46.2538 17.9692 46.0159 18.027 45.7896 18.1488C45.6272 18.2359 45.5111 18.3637 45.4473 18.5378C45.3834 18.7061 45.3545 19.0539 45.3545 19.5877V22.663ZM55.479 23.8987C55.479 24.9779 55.7401 25.825 56.2681 26.44C56.7961 27.055 57.4169 27.3567 58.1305 27.3567C58.6063 27.3567 59.0183 27.2291 59.3664 26.968C59.7203 26.707 60.022 26.2545 60.2599 25.6221L60.5036 25.7787C60.3934 26.504 60.0684 27.1654 59.5347 27.763C59.0009 28.3548 58.3337 28.6506 57.5272 28.6506C56.6569 28.6506 55.9084 28.3141 55.2818 27.6352C54.6668 26.9564 54.3535 26.0397 54.3535 24.8909C54.3535 23.6492 54.6725 22.6803 55.3049 21.9898C55.949 21.2936 56.7497 20.9396 57.7128 20.9396C58.5251 20.9396 59.1924 21.2126 59.7204 21.7522C60.2425 22.2859 60.5036 22.9994 60.5036 23.8987H55.479ZM55.479 23.4404H58.8442C58.821 22.9762 58.763 22.6455 58.676 22.4598C58.5483 22.1581 58.351 21.9261 58.0841 21.7578C57.823 21.5896 57.5503 21.5026 57.266 21.5026C56.8251 21.5026 56.4364 21.6767 56.0825 22.019C55.7401 22.3613 55.5429 22.8311 55.479 23.4404ZM63.6019 20.9513V22.5817C64.2111 21.4967 64.8377 20.9513 65.4759 20.9513C65.766 20.9513 66.0097 21.0383 66.2012 21.2181C66.3869 21.3922 66.4855 21.5954 66.4855 21.8275C66.4855 22.0364 66.4159 22.2103 66.2766 22.3553C66.1432 22.4946 65.9749 22.5701 65.7835 22.5701C65.6036 22.5701 65.3948 22.4774 65.1569 22.2975C64.9306 22.1118 64.7623 22.019 64.6521 22.019C64.5593 22.019 64.4548 22.0711 64.3446 22.1814C64.1067 22.396 63.8572 22.7557 63.6019 23.2488V26.7301C63.6019 27.1362 63.6541 27.438 63.7528 27.6468C63.8224 27.7861 63.9442 27.9079 64.1183 28.0007C64.2923 28.0993 64.5477 28.1457 64.8726 28.1457V28.4302H61.1534V28.1457C61.5248 28.1457 61.7974 28.0878 61.9773 27.9718C62.1107 27.8848 62.2036 27.7512 62.2559 27.5655C62.2849 27.4727 62.2964 27.2177 62.2964 26.7941V23.9801C62.2964 23.133 62.279 22.6339 62.2384 22.4715C62.2094 22.309 62.1456 22.1872 62.0527 22.1176C61.9599 22.0422 61.8439 22.0074 61.7104 22.0074C61.5422 22.0074 61.3623 22.0421 61.1534 22.1233L61.0722 21.8391L63.2712 20.9513H63.6019ZM69.3865 17.151V26.7882C69.3865 27.2407 69.4214 27.5425 69.4852 27.6933C69.549 27.8384 69.6535 27.9543 69.7927 28.0355C69.932 28.1052 70.1872 28.1457 70.5644 28.1457V28.4302H67.0019V28.1457C67.3326 28.1457 67.5589 28.1111 67.6808 28.0415C67.8026 27.9719 67.9012 27.8617 67.965 27.6993C68.0347 27.5426 68.0694 27.2349 68.0694 26.7882V20.1855C68.0694 19.3674 68.0521 18.8685 68.0172 18.6828C67.9766 18.4914 67.9186 18.3635 67.8316 18.2939C67.7562 18.2242 67.6517 18.1896 67.5241 18.1896C67.3848 18.1896 67.2108 18.2301 67.0019 18.3171L66.8626 18.0386L69.0326 17.151H69.3865ZM74.9623 20.9513C76.0647 20.9513 76.9466 21.3691 77.6139 22.2046C78.1767 22.9182 78.4609 23.7362 78.4609 24.6645C78.4609 25.3143 78.3043 25.9702 77.9968 26.6374C77.6835 27.3047 77.2541 27.8034 76.7029 28.1457C76.1575 28.4823 75.5483 28.6506 74.8753 28.6506C73.7845 28.6506 72.9142 28.2154 72.2644 27.3451C71.7248 26.6083 71.4521 25.7844 71.4521 24.8676C71.4521 24.2004 71.6145 23.539 71.9394 22.8834C72.276 22.222 72.7111 21.7405 73.2507 21.4272C73.7903 21.1081 74.3589 20.9513 74.9623 20.9513ZM74.7186 21.4677C74.4401 21.4677 74.1558 21.5491 73.8715 21.7173C73.5872 21.8856 73.361 22.1755 73.1869 22.5933C73.0128 23.011 72.9258 23.5448 72.9258 24.2005C72.9258 25.2622 73.1347 26.1733 73.5524 26.9392C73.976 27.705 74.533 28.0879 75.2176 28.0879C75.7282 28.0879 76.1517 27.8789 76.4882 27.4553C76.8189 27.0318 76.9872 26.3067 76.9872 25.2739C76.9872 23.98 76.7087 22.9647 76.1517 22.2278C75.7804 21.7172 75.2988 21.4677 74.7186 21.4677ZM84.2282 20.9513V23.4231H83.9671C83.764 22.6456 83.5087 22.1176 83.1896 21.8391C82.8763 21.5606 82.4759 21.4156 81.9944 21.4156C81.623 21.4156 81.3214 21.5141 81.0951 21.7114C80.8688 21.9086 80.7528 22.1234 80.7528 22.3613C80.7528 22.6572 80.8398 22.9125 81.008 23.1214C81.1705 23.3418 81.507 23.5681 82.006 23.8118L83.1664 24.3744C84.2398 24.9024 84.7794 25.593 84.7794 26.4459C84.7794 27.1074 84.5241 27.641 84.0251 28.0472C83.5261 28.4533 82.9692 28.6506 82.3483 28.6506C81.9074 28.6506 81.3968 28.5754 80.8282 28.4129C80.6541 28.3607 80.509 28.3373 80.3988 28.3373C80.277 28.3373 80.1783 28.4011 80.1145 28.5404H79.8476V25.947H80.1145C80.2596 26.6897 80.5439 27.2465 80.9617 27.6236C81.3794 27.9949 81.8493 28.1865 82.3657 28.1865C82.7312 28.1865 83.0272 28.0761 83.2534 27.8673C83.4855 27.6526 83.6015 27.3916 83.6015 27.0899C83.6015 26.7243 83.4739 26.4169 83.2128 26.1674C82.9576 25.9237 82.447 25.6046 81.6811 25.2274C80.9152 24.8445 80.4162 24.5023 80.1783 24.1948C79.9404 23.8931 79.8186 23.51 79.8186 23.0517C79.8186 22.4541 80.0217 21.955 80.4278 21.5547C80.8398 21.1486 81.3736 20.9513 82.0234 20.9513C82.3077 20.9513 82.6558 21.0093 83.062 21.1312C83.3347 21.2124 83.5145 21.253 83.6015 21.253C83.6886 21.253 83.7524 21.2355 83.7989 21.1949C83.8511 21.1601 83.9033 21.0789 83.9671 20.9513H84.2282ZM89.978 27.3859C89.2353 27.9603 88.7654 28.2909 88.5739 28.3837C88.2896 28.5172 87.9879 28.5809 87.663 28.5809C87.164 28.5809 86.7462 28.407 86.4213 28.0647C86.0964 27.7224 85.934 27.2696 85.934 26.7068C85.934 26.3529 86.0152 26.0456 86.1719 25.7904C86.3924 25.4306 86.7636 25.0883 87.2974 24.775C87.837 24.4559 88.7305 24.073 89.978 23.6146V23.3302C89.978 22.6049 89.862 22.106 89.6299 21.8391C89.4036 21.5664 89.0729 21.4329 88.6319 21.4329C88.3012 21.4329 88.0343 21.5258 87.8371 21.7057C87.6398 21.8856 87.5353 22.0887 87.5353 22.3207L87.5528 22.7848C87.5528 23.0227 87.4889 23.2143 87.3613 23.3477C87.2394 23.4754 87.077 23.5449 86.8797 23.5449C86.6824 23.5449 86.52 23.4754 86.3924 23.3361C86.2705 23.2027 86.2125 23.0111 86.2125 22.7732C86.2125 22.3206 86.4446 21.9028 86.9087 21.5198C87.3787 21.1427 88.0286 20.9513 88.8698 20.9513C89.5139 20.9513 90.0418 21.0557 90.4538 21.2762C90.7671 21.4387 90.9992 21.6941 91.1442 22.0423C91.2428 22.2743 91.2893 22.7383 91.2893 23.4404V25.9062C91.2893 26.6025 91.3009 27.0261 91.3299 27.1828C91.3531 27.3394 91.3995 27.4439 91.4575 27.4961C91.5214 27.5483 91.591 27.5715 91.6722 27.5715C91.7534 27.5715 91.8289 27.5542 91.8927 27.5194C92.0029 27.4497 92.2176 27.2583 92.5367 26.9392V27.3859C91.9449 28.175 91.3763 28.5752 90.8367 28.5752C90.5757 28.5752 90.3725 28.4823 90.2159 28.3024C90.065 28.1225 89.9838 27.8153 89.978 27.3859ZM89.978 26.8695V24.1019C89.1831 24.4152 88.6668 24.6416 88.4347 24.775C88.0169 25.0071 87.7152 25.2506 87.5353 25.5059C87.3555 25.7554 87.2685 26.034 87.2685 26.3357C87.2685 26.7187 87.3787 27.0318 87.6108 27.287C87.8371 27.5365 88.0981 27.6585 88.394 27.6585C88.7944 27.6585 89.3224 27.3974 89.978 26.8695ZM92.6701 21.166H96.0586V21.4561H95.8903C95.6524 21.4561 95.4725 21.5082 95.3507 21.6184C95.2346 21.7171 95.1767 21.8449 95.1767 21.9958C95.1767 22.2047 95.2637 22.489 95.4377 22.8545L97.2074 26.5213L98.8319 22.5063C98.9247 22.2858 98.9654 22.0712 98.9654 21.8624C98.9654 21.7695 98.948 21.694 98.9131 21.6476C98.8725 21.5896 98.8029 21.5432 98.7159 21.5142C98.6231 21.4736 98.4664 21.4561 98.2401 21.4561V21.166H100.602V21.4561C100.404 21.4793 100.253 21.5201 100.149 21.5839C100.045 21.6477 99.9285 21.7693 99.8009 21.9434C99.7545 22.013 99.6616 22.2163 99.5282 22.5528L96.5749 29.8053C96.2848 30.5074 95.9135 31.0352 95.4435 31.3949C94.9852 31.7547 94.5442 31.9346 94.1148 31.9346C93.8015 31.9346 93.5463 31.8476 93.3432 31.6678C93.1401 31.4879 93.0415 31.2788 93.0415 31.0468C93.0415 30.8263 93.1111 30.6466 93.2562 30.5074C93.407 30.3739 93.6043 30.3102 93.8596 30.3102C94.0336 30.3102 94.2715 30.3681 94.5732 30.4841C94.7821 30.5654 94.9156 30.6059 94.9678 30.6059C95.1303 30.6059 95.2985 30.5188 95.4841 30.3564C95.6756 30.1939 95.8671 29.875 96.0586 29.405L96.5749 28.1457L93.964 22.663C93.8828 22.5005 93.7552 22.2973 93.5811 22.0536C93.4477 21.8679 93.3432 21.7405 93.2562 21.6825C93.1343 21.5954 92.937 21.5199 92.6701 21.4561V21.166ZM105.324 27.3859C104.576 27.9603 104.106 28.2909 103.92 28.3837C103.63 28.5172 103.329 28.5809 103.004 28.5809C102.505 28.5809 102.087 28.407 101.762 28.0647C101.437 27.7224 101.275 27.2696 101.275 26.7068C101.275 26.3529 101.356 26.0456 101.512 25.7904C101.733 25.4306 102.104 25.0883 102.638 24.775C103.178 24.4559 104.071 24.073 105.324 23.6146V23.3302C105.324 22.6049 105.203 22.106 104.971 21.8391C104.744 21.5664 104.413 21.4329 103.973 21.4329C103.642 21.4329 103.375 21.5258 103.178 21.7057C102.98 21.8856 102.876 22.0887 102.876 22.3207L102.893 22.7848C102.893 23.0227 102.83 23.2143 102.702 23.3477C102.58 23.4754 102.423 23.5449 102.22 23.5449C102.023 23.5449 101.861 23.4754 101.739 23.3361C101.617 23.2027 101.553 23.0111 101.553 22.7732C101.553 22.3206 101.785 21.9028 102.249 21.5198C102.719 21.1427 103.369 20.9513 104.21 20.9513C104.854 20.9513 105.382 21.0557 105.8 21.2762C106.108 21.4387 106.34 21.6941 106.491 22.0423C106.583 22.2743 106.63 22.7383 106.63 23.4404V25.9062C106.63 26.6025 106.641 27.0261 106.67 27.1828C106.7 27.3394 106.74 27.4439 106.798 27.4961C106.862 27.5483 106.932 27.5715 107.013 27.5715C107.094 27.5715 107.169 27.5542 107.233 27.5194C107.344 27.4497 107.558 27.2583 107.877 26.9392V27.3859C107.286 28.175 106.717 28.5752 106.177 28.5752C105.922 28.5752 105.713 28.4823 105.562 28.3024C105.406 28.1225 105.324 27.8153 105.324 27.3859ZM105.324 26.8695V24.1019C104.524 24.4152 104.007 24.6416 103.775 24.775C103.358 25.0071 103.056 25.2506 102.876 25.5059C102.696 25.7554 102.609 26.034 102.609 26.3357C102.609 26.7187 102.725 27.0318 102.951 27.287C103.178 27.5365 103.439 27.6585 103.735 27.6585C104.135 27.6585 104.669 27.3974 105.324 26.8695Z" fill="#1F1F1F"/>
<path d="M16.1645 47.809C16.0368 47.5885 15.944 47.3564 15.8976 47.1185C15.8512 46.8749 15.8512 46.6312 15.886 46.3933C15.9208 46.1554 16.002 45.929 16.1181 45.7085C16.2341 45.4939 16.3907 45.2967 16.588 45.1227L16.8375 45.2793C16.8839 45.3084 16.9013 45.3491 16.8955 45.3955C16.8955 45.4361 16.8782 45.4707 16.855 45.4998C16.7737 45.5984 16.704 45.7145 16.646 45.8595C16.5938 46.0046 16.5532 46.1555 16.5416 46.3179C16.5242 46.4804 16.53 46.6487 16.5649 46.8228C16.5939 46.991 16.6577 47.1592 16.7563 47.3217C16.7969 47.3855 16.8027 47.4434 16.7853 47.4956C16.7737 47.5478 16.7331 47.5828 16.6751 47.6118L16.1645 47.809ZM17.5744 47.809C17.4468 47.5885 17.3597 47.3564 17.3133 47.1185C17.2669 46.8749 17.2611 46.6312 17.2959 46.3933C17.3365 46.1554 17.4119 45.929 17.5279 45.7085C17.644 45.4939 17.8007 45.2967 17.9979 45.1227L18.2474 45.2793C18.2938 45.3084 18.3171 45.3491 18.3113 45.3955C18.3055 45.4361 18.2938 45.4707 18.2648 45.4998C18.1894 45.5984 18.1198 45.7145 18.0559 45.8595C18.0037 46.0046 17.9689 46.1555 17.9515 46.3179C17.9341 46.4804 17.9457 46.6487 17.9747 46.8228C18.0037 46.991 18.0676 47.1592 18.1662 47.3217C18.2068 47.3855 18.2184 47.4434 18.1952 47.4956C18.1836 47.5478 18.143 47.5828 18.085 47.6118L17.5744 47.809ZM23.3881 51.4644V52.2186H19.6167V45.5694H20.5102V51.4644H23.3881ZM25.059 47.5189V52.2186H24.2351V47.5189H25.059ZM25.2389 46.0394C25.2389 46.1207 25.2215 46.1962 25.1867 46.2658C25.1577 46.3354 25.1112 46.3992 25.059 46.4514C25.0068 46.5036 24.943 46.5498 24.8675 46.5789C24.7979 46.6079 24.7225 46.6253 24.6413 46.6253C24.56 46.6253 24.4846 46.6079 24.4092 46.5789C24.3453 46.5498 24.2816 46.5036 24.2293 46.4514C24.1771 46.3992 24.1365 46.3354 24.1075 46.2658C24.0727 46.1962 24.0611 46.1207 24.0611 46.0394C24.0611 45.9582 24.0727 45.8827 24.1075 45.8131C24.1365 45.7377 24.1771 45.6738 24.2293 45.6216C24.2816 45.5694 24.3453 45.5231 24.4092 45.4941C24.4846 45.4593 24.56 45.4476 24.6413 45.4476C24.7225 45.4476 24.7979 45.4593 24.8675 45.4941C24.943 45.5231 25.0068 45.5694 25.059 45.6216C25.1112 45.6738 25.1577 45.7377 25.1867 45.8131C25.2215 45.8827 25.2389 45.9582 25.2389 46.0394ZM33.0949 51.4876L33.0891 52.2186H28.987V45.5694H33.0891V46.3004H29.8921V48.511H32.4798V49.213H29.8921V51.4876H33.0949ZM37.8178 47.5189V52.2186H37.3245C37.2085 52.2186 37.1331 52.1607 37.104 52.0446L37.0402 51.5398C36.8372 51.7661 36.6051 51.9516 36.3498 52.0908C36.1003 52.2242 35.8102 52.2939 35.4795 52.2939C35.2242 52.2939 34.9979 52.2535 34.7948 52.1664C34.6034 52.0794 34.4409 51.9575 34.3075 51.8066C34.174 51.65 34.0696 51.4642 34.0058 51.2437C33.9361 51.0232 33.9071 50.7797 33.9071 50.5128V47.5189H34.731V50.5128C34.731 50.8725 34.8123 51.1453 34.9747 51.3426C35.1372 51.5341 35.3866 51.6327 35.7232 51.6327C35.9668 51.6327 36.1931 51.5747 36.402 51.4644C36.6167 51.3426 36.814 51.1857 36.9938 50.9769V47.5189H37.8178ZM39.9123 48.4589C40.0631 48.1397 40.243 47.8846 40.4635 47.7047C40.6781 47.5248 40.945 47.4319 41.2525 47.4319C41.357 47.4319 41.4498 47.4435 41.5368 47.4667C41.6297 47.4899 41.7109 47.5189 41.7863 47.5653L41.7225 48.186C41.7051 48.2615 41.6587 48.3022 41.5833 48.3022C41.5427 48.3022 41.4788 48.2907 41.3918 48.2733C41.3105 48.2559 41.2177 48.2441 41.1133 48.2441C40.9624 48.2441 40.829 48.2672 40.713 48.3079C40.5969 48.3543 40.4925 48.4183 40.3996 48.5053C40.3126 48.5865 40.2314 48.6968 40.1559 48.8187C40.0863 48.9463 40.0167 49.0854 39.9587 49.2479V52.2186H39.129V47.5189H39.6048C39.6918 47.5189 39.7556 47.5363 39.7904 47.5653C39.8252 47.6001 39.8484 47.6582 39.86 47.7452L39.9123 48.4589ZM44.3044 47.4435C44.6467 47.4435 44.9542 47.5015 45.2327 47.6118C45.5054 47.7278 45.7433 47.8902 45.9348 48.0991C46.1321 48.3137 46.2771 48.5692 46.3815 48.8651C46.486 49.1668 46.5382 49.4974 46.5382 49.8629C46.5382 50.2342 46.486 50.5707 46.3815 50.8666C46.2771 51.1626 46.1321 51.4179 45.9348 51.6268C45.7433 51.8414 45.5054 52.0038 45.2327 52.114C44.9542 52.2301 44.6467 52.2823 44.3044 52.2823C43.9563 52.2823 43.643 52.2301 43.3645 52.114C43.0918 52.0038 42.8539 51.8414 42.6566 51.6268C42.4652 51.4179 42.3143 51.1626 42.2099 50.8666C42.1054 50.5707 42.0532 50.2342 42.0532 49.8629C42.0532 49.4974 42.1054 49.1668 42.2099 48.8651C42.3143 48.5692 42.4652 48.3137 42.6566 48.0991C42.8539 47.8902 43.0918 47.7278 43.3645 47.6118C43.643 47.5015 43.9563 47.4435 44.3044 47.4435ZM44.3044 51.6384C44.7686 51.6384 45.1109 51.4818 45.343 51.1743C45.5693 50.861 45.6853 50.4259 45.6853 49.8689C45.6853 49.3119 45.5693 48.8709 45.343 48.5634C45.1109 48.2501 44.7686 48.0934 44.3044 48.0934C44.0665 48.0934 43.8635 48.134 43.6836 48.2152C43.5096 48.2906 43.3645 48.4067 43.2485 48.5634C43.1324 48.7142 43.0454 48.8999 42.9873 49.1204C42.9351 49.3408 42.9061 49.5904 42.9061 49.8689C42.9061 50.4259 43.0222 50.861 43.2485 51.1743C43.4805 51.4818 43.8344 51.6384 44.3044 51.6384ZM48.418 51.0871C48.5689 51.2901 48.7372 51.4353 48.9171 51.5165C49.0969 51.6036 49.2942 51.644 49.5204 51.644C49.9556 51.644 50.2979 51.4876 50.53 51.1743C50.7679 50.861 50.8839 50.4141 50.8839 49.8397C50.8839 49.5322 50.855 49.2654 50.7969 49.0507C50.7447 48.8302 50.6693 48.6502 50.5648 48.511C50.4662 48.3659 50.3386 48.2615 50.1935 48.1977C50.0426 48.1338 49.8744 48.0991 49.6829 48.0991C49.416 48.0991 49.1782 48.1631 48.9751 48.2849C48.772 48.4126 48.5863 48.5864 48.418 48.8127V51.0871ZM48.3775 48.2441C48.5747 48.0004 48.801 47.8033 49.0621 47.6582C49.3232 47.5074 49.6191 47.4319 49.9556 47.4319C50.2283 47.4319 50.472 47.4841 50.6925 47.5885C50.9129 47.693 51.0986 47.8437 51.2553 48.0526C51.4119 48.2499 51.5279 48.4994 51.6092 48.8011C51.6962 49.1028 51.7369 49.4451 51.7369 49.8397C51.7369 50.182 51.6905 50.5069 51.5976 50.8086C51.5048 51.1045 51.3713 51.3656 51.1914 51.5803C51.0232 51.8008 50.8085 51.9691 50.5532 52.0968C50.3037 52.2244 50.0195 52.2823 49.7061 52.2823C49.416 52.2823 49.1665 52.2359 48.9635 52.1373C48.7546 52.0386 48.5747 51.9054 48.418 51.7313V53.8085H47.5884V47.5189H48.0815C48.2034 47.5189 48.273 47.5711 48.302 47.6871L48.3775 48.2441ZM55.3399 50.1009C54.957 50.1125 54.632 50.1471 54.3651 50.1935C54.0982 50.2399 53.8778 50.3039 53.7095 50.3794C53.5412 50.4606 53.4194 50.5475 53.344 50.6519C53.2685 50.7621 53.2338 50.8784 53.2338 51.006C53.2338 51.1337 53.2512 51.238 53.2918 51.325C53.3324 51.4179 53.3846 51.4934 53.4542 51.5514C53.5239 51.6036 53.6109 51.65 53.7038 51.6732C53.7966 51.7022 53.901 51.7137 54.0054 51.7137C54.1505 51.7137 54.284 51.6964 54.4058 51.6732C54.5276 51.6384 54.6379 51.5978 54.7481 51.5398C54.8525 51.4876 54.957 51.418 55.0498 51.3426C55.1484 51.2614 55.2471 51.1741 55.3399 51.0754V50.1009ZM52.671 48.1804C52.9321 47.9309 53.2105 47.7451 53.5123 47.6174C53.8082 47.4956 54.1447 47.4319 54.5102 47.4319C54.7713 47.4319 55.0034 47.4783 55.2123 47.5653C55.4154 47.6523 55.5836 47.7685 55.7229 47.9251C55.8621 48.0818 55.9665 48.2673 56.0419 48.4878C56.1116 48.7082 56.1464 48.9461 56.1464 49.213V52.2186H55.7809C55.6996 52.2186 55.6358 52.2069 55.5952 52.1837C55.5488 52.1547 55.5198 52.1026 55.4908 52.0214L55.3979 51.5803C55.2761 51.6905 55.1542 51.795 55.0382 51.882C54.9222 51.969 54.7945 52.0445 54.6669 52.1084C54.5392 52.1664 54.4 52.2128 54.2491 52.2418C54.1041 52.2766 53.9416 52.2939 53.7618 52.2939C53.5761 52.2939 53.4078 52.2708 53.2454 52.2186C53.0829 52.1664 52.9437 52.091 52.8218 51.9865C52.7058 51.8821 52.613 51.7544 52.5434 51.6035C52.4737 51.4411 52.4389 51.2554 52.4389 51.0465C52.4389 50.8609 52.4911 50.6811 52.5897 50.5128C52.6942 50.3387 52.8566 50.1819 53.0887 50.0485C53.315 49.915 53.6167 49.8108 53.9823 49.7238C54.3536 49.6368 54.8061 49.5904 55.3399 49.5788V49.213C55.3399 48.8475 55.2587 48.5692 55.102 48.3835C54.9454 48.1978 54.7133 48.0991 54.4116 48.0991C54.2085 48.0991 54.0345 48.1282 53.8952 48.1804C53.7618 48.2326 53.6399 48.2847 53.5413 48.3543C53.4369 48.4123 53.3556 48.4704 53.2802 48.5226C53.2047 48.5748 53.1351 48.598 53.0655 48.598C53.0075 48.598 52.9611 48.5865 52.9204 48.5574C52.8798 48.5226 52.8451 48.4879 52.8218 48.4472L52.671 48.1804ZM58.1829 48.1977C58.2874 48.0816 58.3976 47.9831 58.5078 47.8903C58.6239 47.7974 58.7457 47.7161 58.8733 47.6523C59.001 47.5827 59.1403 47.5304 59.2795 47.4956C59.4246 47.4608 59.5812 47.4435 59.7495 47.4435C60.0047 47.4435 60.2311 47.4842 60.4283 47.5713C60.6256 47.6583 60.788 47.7743 60.9215 47.9367C61.0549 48.0876 61.1536 48.279 61.2232 48.4937C61.287 48.7142 61.3218 48.9577 61.3218 49.2246V52.2186H60.4921V49.2246C60.4921 48.8707 60.4109 48.5922 60.2484 48.4008C60.086 48.1977 59.8423 48.0991 59.5058 48.0991C59.2621 48.0991 59.0358 48.1629 58.8211 48.279C58.6123 48.395 58.415 48.5574 58.2351 48.7546V52.2186H57.4054V47.5189H57.9044C58.0205 47.5189 58.0901 47.5711 58.1191 47.6871L58.1829 48.1977ZM65.8126 45.3839V52.2186H64.9829V45.3839H65.8126ZM68.0232 47.5189V52.2186H67.1993V47.5189H68.0232ZM68.2031 46.0394C68.2031 46.1207 68.1856 46.1962 68.1508 46.2658C68.116 46.3354 68.0754 46.3992 68.0174 46.4514C67.9652 46.5036 67.9014 46.5498 67.8317 46.5789C67.7563 46.6079 67.6809 46.6253 67.5996 46.6253C67.5184 46.6253 67.443 46.6079 67.3734 46.5789C67.3037 46.5498 67.2457 46.5036 67.1935 46.4514C67.1413 46.3992 67.1006 46.3354 67.0658 46.2658C67.0368 46.1962 67.0194 46.1207 67.0194 46.0394C67.0194 45.9582 67.0368 45.8827 67.0658 45.8131C67.1006 45.7377 67.1413 45.6738 67.1935 45.6216C67.2457 45.5694 67.3037 45.5231 67.3734 45.4941C67.443 45.4593 67.5184 45.4476 67.5996 45.4476C67.6809 45.4476 67.7563 45.4593 67.8317 45.4941C67.9014 45.5231 67.9652 45.5694 68.0174 45.6216C68.0754 45.6738 68.116 45.7377 68.1508 45.8131C68.1856 45.8827 68.2031 45.9582 68.2031 46.0394ZM70.1642 48.1977C70.2628 48.0816 70.373 47.9831 70.4891 47.8903C70.5993 47.7974 70.7211 47.7161 70.8488 47.6523C70.9764 47.5827 71.1157 47.5304 71.255 47.4956C71.4 47.4608 71.5566 47.4435 71.7249 47.4435C71.9802 47.4435 72.2065 47.4842 72.4038 47.5713C72.601 47.6583 72.7635 47.7743 72.8969 47.9367C73.0304 48.0876 73.129 48.279 73.1986 48.4937C73.2625 48.7142 73.2972 48.9577 73.2972 49.2246V52.2186H72.4676V49.2246C72.4676 48.8707 72.3863 48.5922 72.2239 48.4008C72.0614 48.1977 71.8177 48.0991 71.487 48.0991C71.2375 48.0991 71.0113 48.1629 70.7966 48.279C70.5877 48.395 70.3904 48.5574 70.2106 48.7546V52.2186H69.3808V47.5189H69.8798C69.9958 47.5189 70.0713 47.5711 70.0946 47.6871L70.1642 48.1977ZM76.1983 49.921C76.3665 49.921 76.5116 49.8977 76.6392 49.8513C76.7669 49.8049 76.8713 49.7411 76.9584 49.6541C77.0454 49.5729 77.1092 49.4741 77.1556 49.3581C77.1962 49.242 77.2194 49.1146 77.2194 48.9753C77.2194 48.6852 77.1324 48.459 76.9525 48.2849C76.7785 48.1166 76.529 48.0294 76.1983 48.0294C75.8617 48.0294 75.6065 48.1166 75.4324 48.2849C75.2583 48.459 75.1713 48.6852 75.1713 48.9753C75.1713 49.1146 75.1945 49.242 75.2352 49.3581C75.2816 49.4741 75.3512 49.5729 75.4382 49.6541C75.5194 49.7411 75.6296 49.8049 75.7573 49.8513C75.8849 49.8977 76.03 49.921 76.1983 49.921ZM77.6894 52.4738C77.6894 52.3578 77.6546 52.265 77.5908 52.1953C77.5269 52.1257 77.4341 52.0677 77.3239 52.0271C77.2136 51.9864 77.0918 51.9574 76.9467 51.9458C76.7959 51.9283 76.645 51.911 76.4825 51.9052C76.3201 51.8936 76.1576 51.8821 75.9894 51.8763C75.8211 51.8647 75.6587 51.8531 75.5078 51.8299C75.3338 51.9111 75.1887 52.0096 75.0785 52.1373C74.9683 52.2533 74.916 52.3983 74.916 52.5608C74.916 52.6652 74.9392 52.764 74.9973 52.8569C75.0495 52.9497 75.1365 53.0251 75.2467 53.0889C75.3569 53.1585 75.4962 53.2106 75.6645 53.2512C75.8328 53.2918 76.03 53.3093 76.2621 53.3093C76.4825 53.3093 76.6856 53.2918 76.8597 53.2512C77.0396 53.2106 77.1846 53.1527 77.3065 53.0773C77.4283 53.0018 77.5269 52.9148 77.5908 52.8104C77.6546 52.7118 77.6894 52.5957 77.6894 52.4738ZM78.5249 47.7047V48.0064C78.5249 48.1109 78.4611 48.1746 78.3334 48.2036L77.7996 48.2733C77.9041 48.4764 77.9563 48.7026 77.9563 48.9521C77.9563 49.1784 77.9099 49.3873 77.8229 49.5788C77.7358 49.7644 77.614 49.921 77.4573 50.0544C77.3065 50.1879 77.1208 50.2922 76.9003 50.3618C76.6857 50.4314 76.4477 50.4663 76.1983 50.4663C75.9778 50.4663 75.7689 50.4432 75.5775 50.391C75.473 50.449 75.3976 50.5185 75.3454 50.5882C75.2931 50.6578 75.2699 50.7273 75.2699 50.797C75.2699 50.9072 75.3105 50.9945 75.4034 51.0525C75.4962 51.1105 75.618 51.1511 75.7631 51.1743C75.9139 51.1975 76.0822 51.2147 76.2737 51.2205C76.4651 51.2263 76.6566 51.2379 76.8539 51.2553C77.057 51.2669 77.2542 51.2902 77.4399 51.325C77.6314 51.354 77.8054 51.4122 77.9505 51.4876C78.1013 51.5689 78.2174 51.6731 78.3102 51.8123C78.403 51.9458 78.4494 52.1199 78.4494 52.3404C78.4494 52.5377 78.3972 52.7351 78.2928 52.9265C78.1941 53.1122 78.0491 53.2804 77.8634 53.4254C77.672 53.5763 77.4399 53.6923 77.1672 53.7793C76.8945 53.8663 76.587 53.9127 76.2447 53.9127C75.9024 53.9127 75.6007 53.8781 75.3454 53.8085C75.0843 53.7446 74.8696 53.6517 74.7013 53.5356C74.5331 53.4196 74.4054 53.292 74.3184 53.1353C74.2314 52.9903 74.1908 52.8335 74.1908 52.671C74.1908 52.4389 74.2662 52.2416 74.4112 52.0792C74.5563 51.9167 74.7536 51.7893 75.0089 51.6964C74.8696 51.6326 74.7593 51.5513 74.6723 51.4469C74.5911 51.3424 74.5563 51.2032 74.5563 51.0233C74.5563 50.9595 74.5679 50.8899 74.5911 50.8145C74.6144 50.7449 74.6549 50.6694 74.7013 50.5998C74.7536 50.5244 74.8174 50.4548 74.8928 50.391C74.9682 50.3272 75.0553 50.269 75.1539 50.2168C74.9218 50.0891 74.7419 49.9152 74.6085 49.7006C74.4808 49.4859 74.4171 49.2364 74.4171 48.9521C74.4171 48.72 74.4576 48.5168 74.5447 48.3311C74.6317 48.1396 74.7594 47.9832 74.916 47.8498C75.0727 47.7163 75.2583 47.6175 75.4788 47.5421C75.6993 47.4725 75.9372 47.4375 76.1983 47.4375C76.4013 47.4375 76.5928 47.4608 76.7669 47.5072C76.9468 47.5479 77.1034 47.6177 77.2485 47.7047H78.5249ZM83.2477 47.5189V52.2186H82.7546C82.6386 52.2186 82.5631 52.1607 82.5341 52.0446L82.4703 51.5398C82.2614 51.7661 82.0351 51.9516 81.7798 52.0908C81.5245 52.2242 81.2344 52.2939 80.9095 52.2939C80.6484 52.2939 80.4222 52.2535 80.2249 52.1664C80.0334 52.0794 79.8652 51.9575 79.7317 51.8066C79.5983 51.65 79.4997 51.4642 79.43 51.2437C79.3662 51.0232 79.3372 50.7797 79.3372 50.5128V47.5189H80.1611V50.5128C80.1611 50.8725 80.2423 51.1453 80.4047 51.3426C80.5672 51.5341 80.8167 51.6327 81.1474 51.6327C81.3911 51.6327 81.6232 51.5747 81.8321 51.4644C82.0468 51.3426 82.244 51.1857 82.4239 50.9769V47.5189H83.2477ZM87.7038 49.3524C87.7038 49.1609 87.6747 48.9869 87.6225 48.8303C87.5703 48.6678 87.4891 48.5344 87.3846 48.4183C87.2802 48.3023 87.1583 48.2093 87.0075 48.1455C86.8624 48.0817 86.6884 48.0526 86.5027 48.0526C86.1082 48.0526 85.7948 48.1687 85.5628 48.4008C85.3307 48.6271 85.1914 48.9463 85.1334 49.3524H87.7038ZM88.371 51.5571C88.2724 51.6847 88.1505 51.7892 88.0055 51.882C87.8662 51.9748 87.7095 52.0503 87.5471 52.1084C87.3846 52.1664 87.2164 52.2068 87.0481 52.2359C86.8741 52.2707 86.7 52.2823 86.5317 52.2823C86.2068 52.2823 85.9051 52.2302 85.6324 52.12C85.3597 52.0097 85.1218 51.8472 84.9187 51.6384C84.7215 51.4237 84.5649 51.1627 84.4546 50.8494C84.3444 50.5361 84.2863 50.1761 84.2863 49.77C84.2863 49.4451 84.3386 49.1378 84.4372 48.8535C84.5416 48.5692 84.6867 48.3255 84.8724 48.1166C85.0638 47.9078 85.2901 47.7394 85.5628 47.6234C85.8355 47.5016 86.143 47.4435 86.4853 47.4435C86.7638 47.4435 87.0249 47.4899 87.2628 47.5885C87.5065 47.6814 87.7095 47.8149 87.8836 47.9948C88.0634 48.1689 88.1969 48.3891 88.3013 48.656C88.3999 48.9113 88.4464 49.2132 88.4464 49.5439C88.4464 49.6774 88.4348 49.7642 88.4058 49.8048C88.3768 49.8454 88.3245 49.8689 88.2491 49.8689H85.1044C85.1161 50.1648 85.1566 50.4258 85.2263 50.6462C85.3017 50.8667 85.4003 51.0467 85.5338 51.1975C85.6614 51.3426 85.8181 51.4527 85.9979 51.5282C86.1778 51.5978 86.3751 51.6327 86.6014 51.6327C86.8044 51.6327 86.9843 51.6094 87.1352 51.563C87.286 51.5166 87.4136 51.4644 87.5239 51.4063C87.6341 51.3483 87.7212 51.3018 87.7908 51.2553C87.8662 51.2031 87.93 51.18 87.9822 51.18C88.0519 51.18 88.1041 51.2031 88.1389 51.2553L88.371 51.5571ZM92.2003 48.2906C92.1655 48.3602 92.1075 48.3951 92.0263 48.3951C91.9798 48.3951 91.9276 48.3775 91.8696 48.3427C91.8116 48.3079 91.7419 48.2731 91.6549 48.2325C91.5679 48.1861 91.4692 48.1514 91.3532 48.1166C91.2314 48.076 91.0921 48.0585 90.9355 48.0585C90.7962 48.0585 90.6686 48.076 90.5583 48.1166C90.4481 48.1514 90.3494 48.1979 90.2682 48.2617C90.1928 48.3197 90.1348 48.3949 90.0884 48.4761C90.0478 48.5574 90.0304 48.6444 90.0304 48.743C90.0304 48.8649 90.0651 48.9635 90.129 49.0447C90.2044 49.126 90.2972 49.1958 90.4075 49.2538C90.5235 49.3118 90.6512 49.3641 90.7962 49.4105C90.9471 49.4511 91.0921 49.5033 91.243 49.5555C91.3996 49.6019 91.5505 49.66 91.6956 49.7238C91.8406 49.7818 91.9682 49.863 92.0843 49.9558C92.2003 50.0487 92.2932 50.1588 92.357 50.2981C92.4324 50.4315 92.4672 50.5882 92.4672 50.7797C92.4672 50.9944 92.4266 51.1974 92.3512 51.3831C92.27 51.563 92.1597 51.7253 92.003 51.8588C91.8522 51.9922 91.6665 52.0968 91.446 52.1781C91.2314 52.2535 90.9761 52.2939 90.686 52.2939C90.3611 52.2939 90.0652 52.2417 89.7983 52.1373C89.5314 52.027 89.3051 51.8879 89.1194 51.7197L89.3109 51.4063C89.3399 51.3657 89.3689 51.3366 89.4037 51.3134C89.4385 51.2902 89.4792 51.2786 89.5314 51.2786C89.5894 51.2786 89.6474 51.3018 89.7054 51.3483C89.7693 51.3889 89.8447 51.4354 89.9317 51.4876C90.0188 51.5399 90.129 51.5921 90.2567 51.6327C90.3843 51.6791 90.5409 51.6964 90.7266 51.6964C90.8891 51.6964 91.0283 51.679 91.1501 51.6384C91.272 51.5978 91.3706 51.5398 91.4519 51.4644C91.5331 51.3948 91.5911 51.3133 91.6318 51.2205C91.6724 51.1277 91.6898 51.0292 91.6898 50.9247C91.6898 50.7913 91.6549 50.687 91.5853 50.6057C91.5157 50.5187 91.4228 50.4431 91.3068 50.385C91.1966 50.3212 91.0631 50.269 90.9122 50.2284C90.7672 50.182 90.6222 50.1355 90.4655 50.0833C90.3147 50.0311 90.1638 49.9789 90.013 49.915C89.8679 49.8512 89.7402 49.7702 89.6242 49.6773C89.5082 49.5787 89.4153 49.4625 89.3457 49.3232C89.2761 49.1782 89.2413 49.0101 89.2413 48.807C89.2413 48.6272 89.2819 48.453 89.3573 48.2906C89.4269 48.1223 89.5371 47.9773 89.6822 47.8554C89.8215 47.7278 89.9955 47.6291 90.2044 47.5537C90.4133 47.4783 90.6511 47.4435 90.9122 47.4435C91.2255 47.4435 91.5041 47.4899 91.7478 47.5885C91.9915 47.6872 92.2061 47.8206 92.386 47.9889L92.2003 48.2906ZM99.0003 49.3524C99.0003 49.1609 98.9713 48.9869 98.9191 48.8303C98.8669 48.6678 98.7856 48.5344 98.6812 48.4183C98.5767 48.3023 98.455 48.2093 98.3041 48.1455C98.1533 48.0817 97.985 48.0526 97.7993 48.0526C97.4048 48.0526 97.0857 48.1687 96.8536 48.4008C96.6273 48.6271 96.4822 48.9463 96.43 49.3524H99.0003ZM99.6676 51.5571C99.5689 51.6847 99.4471 51.7892 99.302 51.882C99.157 51.9748 99.0061 52.0503 98.8437 52.1084C98.6812 52.1664 98.5129 52.2068 98.3389 52.2359C98.1706 52.2707 97.9966 52.2823 97.8283 52.2823C97.5034 52.2823 97.2017 52.2302 96.9232 52.12C96.6505 52.0097 96.4184 51.8472 96.2153 51.6384C96.018 51.4237 95.8614 51.1627 95.7512 50.8494C95.641 50.5361 95.5829 50.1761 95.5829 49.77C95.5829 49.4451 95.6351 49.1378 95.7338 48.8535C95.8324 48.5692 95.9775 48.3255 96.1689 48.1166C96.3604 47.9078 96.5866 47.7394 96.8593 47.6234C97.132 47.5016 97.4396 47.4435 97.7819 47.4435C98.0604 47.4435 98.3215 47.4899 98.5594 47.5885C98.8031 47.6814 99.0061 47.8149 99.1802 47.9948C99.36 48.1689 99.4935 48.3891 99.5921 48.656C99.6908 48.9113 99.743 49.2132 99.743 49.5439C99.743 49.6774 99.7314 49.7642 99.7024 49.8048C99.6733 49.8454 99.6211 49.8689 99.5457 49.8689H96.401C96.4126 50.1648 96.4532 50.4258 96.5228 50.6462C96.5983 50.8667 96.6969 51.0467 96.8304 51.1975C96.958 51.3426 97.1146 51.4527 97.2945 51.5282C97.4744 51.5978 97.6716 51.6327 97.8979 51.6327C98.101 51.6327 98.2809 51.6094 98.4317 51.563C98.5826 51.5166 98.7102 51.4644 98.8204 51.4063C98.9249 51.3483 99.0177 51.3018 99.0874 51.2553C99.1628 51.2031 99.2266 51.18 99.2788 51.18C99.3484 51.18 99.4007 51.2031 99.4355 51.2553L99.6676 51.5571ZM103.497 48.2906C103.462 48.3602 103.404 48.3951 103.323 48.3951C103.276 48.3951 103.224 48.3775 103.166 48.3427C103.108 48.3079 103.033 48.2731 102.951 48.2325C102.864 48.1861 102.766 48.1514 102.65 48.1166C102.528 48.076 102.389 48.0585 102.232 48.0585C102.093 48.0585 101.965 48.076 101.855 48.1166C101.745 48.1514 101.646 48.1979 101.565 48.2617C101.489 48.3197 101.426 48.3949 101.385 48.4761C101.344 48.5574 101.327 48.6444 101.327 48.743C101.327 48.8649 101.356 48.9635 101.426 49.0447C101.495 49.126 101.588 49.1958 101.704 49.2538C101.82 49.3118 101.948 49.3641 102.093 49.4105C102.238 49.4511 102.389 49.5033 102.54 49.5555C102.696 49.6019 102.847 49.66 102.992 49.7238C103.137 49.7818 103.265 49.863 103.381 49.9558C103.497 50.0487 103.584 50.1588 103.654 50.2981C103.723 50.4315 103.764 50.5882 103.764 50.7797C103.764 50.9944 103.723 51.1974 103.648 51.3831C103.567 51.563 103.451 51.7253 103.3 51.8588C103.149 51.9922 102.963 52.0968 102.743 52.1781C102.522 52.2535 102.273 52.2939 101.983 52.2939C101.658 52.2939 101.356 52.2417 101.095 52.1373C100.828 52.027 100.602 51.8879 100.416 51.7197L100.608 51.4063C100.637 51.3657 100.666 51.3366 100.7 51.3134C100.729 51.2902 100.776 51.2786 100.828 51.2786C100.886 51.2786 100.944 51.3018 101.002 51.3483C101.066 51.3889 101.141 51.4354 101.228 51.4876C101.315 51.5399 101.426 51.5921 101.553 51.6327C101.681 51.6791 101.838 51.6964 102.023 51.6964C102.186 51.6964 102.325 51.679 102.447 51.6384C102.569 51.5978 102.667 51.5398 102.748 51.4644C102.83 51.3948 102.888 51.3133 102.928 51.2205C102.963 51.1277 102.986 51.0292 102.986 50.9247C102.986 50.7913 102.951 50.687 102.882 50.6057C102.812 50.5187 102.719 50.4431 102.603 50.385C102.493 50.3212 102.36 50.269 102.209 50.2284C102.064 50.182 101.913 50.1355 101.762 50.0833C101.611 50.0311 101.46 49.9789 101.31 49.915C101.164 49.8512 101.037 49.7702 100.921 49.6773C100.805 49.5787 100.712 49.4625 100.642 49.3232C100.573 49.1782 100.538 49.0101 100.538 48.807C100.538 48.6272 100.578 48.453 100.654 48.2906C100.724 48.1223 100.834 47.9773 100.979 47.8554C101.118 47.7278 101.292 47.6291 101.501 47.5537C101.71 47.4783 101.942 47.4435 102.209 47.4435C102.522 47.4435 102.795 47.4899 103.044 47.5885C103.288 47.6872 103.503 47.8206 103.683 47.9889L103.497 48.2906ZM107.146 52.2186V47.5189H107.645C107.761 47.5189 107.837 47.5711 107.866 47.6871L107.924 48.1688C108.098 47.9599 108.295 47.7801 108.51 47.6466C108.725 47.5132 108.974 47.4435 109.258 47.4435C109.577 47.4435 109.833 47.5306 110.024 47.7047C110.227 47.8846 110.367 48.1223 110.454 48.424C110.523 48.2499 110.61 48.105 110.715 47.9832C110.825 47.8555 110.941 47.7568 111.074 47.6755C111.208 47.5943 111.347 47.5362 111.498 47.4956C111.649 47.4608 111.805 47.4435 111.956 47.4435C112.206 47.4435 112.426 47.4841 112.618 47.5653C112.809 47.6407 112.977 47.7567 113.111 47.9075C113.244 48.0584 113.349 48.2442 113.418 48.4705C113.494 48.6851 113.529 48.9403 113.529 49.2246V52.2186H112.693V49.2246C112.693 48.8591 112.618 48.5806 112.455 48.3892C112.293 48.1977 112.061 48.0991 111.759 48.0991C111.62 48.0991 111.492 48.128 111.37 48.1744C111.248 48.2208 111.138 48.2907 111.045 48.3835C110.953 48.4763 110.883 48.5923 110.825 48.7373C110.773 48.8766 110.744 49.039 110.744 49.2246V52.2186H109.914V49.2246C109.914 48.8475 109.839 48.5632 109.688 48.3775C109.537 48.1919 109.316 48.0991 109.026 48.0991C108.817 48.0991 108.632 48.1571 108.458 48.2673C108.284 48.3776 108.127 48.5226 107.982 48.7141V52.2186H107.146ZM117.932 49.3524C117.932 49.1609 117.903 48.9869 117.845 48.8303C117.793 48.6678 117.712 48.5344 117.607 48.4183C117.509 48.3023 117.381 48.2093 117.236 48.1455C117.085 48.0817 116.917 48.0526 116.726 48.0526C116.331 48.0526 116.018 48.1687 115.786 48.4008C115.554 48.6271 115.414 48.9463 115.356 49.3524H117.932ZM118.6 51.5571C118.495 51.6847 118.373 51.7892 118.234 51.882C118.089 51.9748 117.938 52.0503 117.77 52.1084C117.613 52.1664 117.445 52.2068 117.271 52.2359C117.097 52.2707 116.923 52.2823 116.755 52.2823C116.43 52.2823 116.128 52.2302 115.855 52.12C115.583 52.0097 115.345 51.8472 115.147 51.6384C114.944 51.4237 114.794 51.1627 114.683 50.8494C114.567 50.5361 114.515 50.1761 114.515 49.77C114.515 49.4451 114.561 49.1378 114.66 48.8535C114.764 48.5692 114.91 48.3255 115.101 48.1166C115.287 47.9078 115.519 47.7394 115.791 47.6234C116.064 47.5016 116.366 47.4435 116.708 47.4435C116.992 47.4435 117.248 47.4899 117.491 47.5885C117.729 47.6814 117.938 47.8149 118.112 47.9948C118.286 48.1689 118.426 48.3891 118.524 48.656C118.623 48.9113 118.675 49.2132 118.675 49.5439C118.675 49.6774 118.658 49.7642 118.629 49.8048C118.605 49.8454 118.547 49.8689 118.472 49.8689H115.333C115.339 50.1648 115.379 50.4258 115.449 50.6462C115.525 50.8667 115.629 51.0467 115.757 51.1975C115.89 51.3426 116.041 51.4527 116.221 51.5282C116.401 51.5978 116.604 51.6327 116.824 51.6327C117.033 51.6327 117.213 51.6094 117.358 51.563C117.509 51.5166 117.642 51.4644 117.747 51.4063C117.857 51.3483 117.944 51.3018 118.019 51.2553C118.095 51.2031 118.153 51.18 118.211 51.18C118.275 51.18 118.327 51.2031 118.368 51.2553L118.6 51.5571ZM119.685 52.2186V47.5189H120.184C120.3 47.5189 120.375 47.5711 120.404 47.6871L120.462 48.1688C120.636 47.9599 120.828 47.7801 121.048 47.6466C121.263 47.5132 121.512 47.4435 121.797 47.4435C122.116 47.4435 122.371 47.5306 122.562 47.7047C122.766 47.8846 122.905 48.1223 122.992 48.424C123.061 48.2499 123.148 48.105 123.253 47.9832C123.357 47.8555 123.479 47.7568 123.613 47.6755C123.746 47.5943 123.885 47.5362 124.036 47.4956C124.187 47.4608 124.344 47.4435 124.494 47.4435C124.744 47.4435 124.964 47.4841 125.156 47.5653C125.347 47.6407 125.516 47.7567 125.649 47.9075C125.783 48.0584 125.887 48.2442 125.957 48.4705C126.026 48.6851 126.067 48.9403 126.067 49.2246V52.2186H125.231V49.2246C125.231 48.8591 125.156 48.5806 124.994 48.3892C124.831 48.1977 124.599 48.0991 124.297 48.0991C124.158 48.0991 124.03 48.128 123.909 48.1744C123.787 48.2208 123.676 48.2907 123.584 48.3835C123.491 48.4763 123.421 48.5923 123.363 48.7373C123.311 48.8766 123.282 49.039 123.282 49.2246V52.2186H122.452V49.2246C122.452 48.8475 122.377 48.5632 122.226 48.3775C122.075 48.1919 121.855 48.0991 121.564 48.0991C121.356 48.0991 121.17 48.1571 120.996 48.2673C120.822 48.3776 120.665 48.5226 120.52 48.7141V52.2186H119.685ZM128.15 51.0871C128.301 51.2901 128.469 51.4353 128.649 51.5165C128.829 51.6036 129.032 51.644 129.246 51.644C129.687 51.644 130.03 51.4876 130.262 51.1743C130.5 50.861 130.616 50.3968 130.616 49.7759C130.616 49.2015 130.511 48.7779 130.302 48.511C130.093 48.2383 129.798 48.0991 129.409 48.0991C129.142 48.0991 128.904 48.1631 128.701 48.2849C128.504 48.4126 128.324 48.5864 128.15 48.8127V51.0871ZM128.15 48.192C128.347 47.9657 128.573 47.7801 128.817 47.6466C129.072 47.5132 129.357 47.4435 129.682 47.4435C129.96 47.4435 130.204 47.4957 130.424 47.6002C130.651 47.7046 130.836 47.8613 130.993 48.0585C131.149 48.2558 131.266 48.4995 131.347 48.7838C131.428 49.0681 131.469 49.3873 131.469 49.747C131.469 50.1242 131.422 50.472 131.329 50.7853C131.236 51.0987 131.103 51.3658 130.929 51.5862C130.755 51.8067 130.54 51.9806 130.291 52.1024C130.041 52.2243 129.757 52.2823 129.444 52.2823C129.136 52.2823 128.875 52.2243 128.66 52.114C128.452 51.9922 128.266 51.8298 128.109 51.6151L128.069 52.0446C128.045 52.1607 127.97 52.2186 127.854 52.2186H127.32V45.3839H128.15V48.192ZM133.302 48.4589C133.447 48.1397 133.633 47.8846 133.847 47.7047C134.062 47.5248 134.329 47.4319 134.642 47.4319C134.741 47.4319 134.834 47.4435 134.927 47.4667C135.019 47.4899 135.101 47.5189 135.17 47.5653L135.112 48.186C135.089 48.2615 135.043 48.3022 134.973 48.3022C134.927 48.3022 134.863 48.2907 134.782 48.2733C134.695 48.2559 134.602 48.2441 134.497 48.2441C134.346 48.2441 134.213 48.2672 134.097 48.3079C133.981 48.3543 133.882 48.4183 133.789 48.5053C133.697 48.5865 133.615 48.6968 133.54 48.8187C133.47 48.9463 133.406 49.0854 133.348 49.2479V52.2186H132.513V47.5189H132.989C133.076 47.5189 133.14 47.5363 133.174 47.5653C133.209 47.6001 133.232 47.6582 133.244 47.7452L133.302 48.4589ZM138.855 49.3524C138.855 49.1609 138.826 48.9869 138.768 48.8303C138.715 48.6678 138.64 48.5344 138.535 48.4183C138.431 48.3023 138.303 48.2093 138.158 48.1455C138.007 48.0817 137.839 48.0526 137.654 48.0526C137.253 48.0526 136.94 48.1687 136.708 48.4008C136.482 48.6271 136.337 48.9463 136.284 49.3524H138.855ZM139.522 51.5571C139.417 51.6847 139.296 51.7892 139.156 51.882C139.011 51.9748 138.86 52.0503 138.698 52.1084C138.536 52.1664 138.367 52.2068 138.193 52.2359C138.019 52.2707 137.851 52.2823 137.677 52.2823C137.352 52.2823 137.056 52.2302 136.777 52.12C136.505 52.0097 136.267 51.8472 136.07 51.6384C135.872 51.4237 135.716 51.1627 135.605 50.8494C135.495 50.5361 135.437 50.1761 135.437 49.77C135.437 49.4451 135.484 49.1378 135.588 48.8535C135.687 48.5692 135.832 48.3255 136.023 48.1166C136.209 47.9078 136.441 47.7394 136.714 47.6234C136.986 47.5016 137.294 47.4435 137.63 47.4435C137.915 47.4435 138.176 47.4899 138.414 47.5885C138.652 47.6814 138.86 47.8149 139.034 47.9948C139.209 48.1689 139.348 48.3891 139.446 48.656C139.545 48.9113 139.597 49.2132 139.597 49.5439C139.597 49.6774 139.58 49.7642 139.557 49.8048C139.528 49.8454 139.475 49.8689 139.394 49.8689H136.255C136.261 50.1648 136.302 50.4258 136.377 50.6462C136.447 50.8667 136.551 51.0467 136.679 51.1975C136.812 51.3426 136.963 51.4527 137.143 51.5282C137.323 51.5978 137.526 51.6327 137.746 51.6327C137.955 51.6327 138.135 51.6094 138.28 51.563C138.431 51.5166 138.564 51.4644 138.675 51.4063C138.779 51.3483 138.872 51.3018 138.942 51.2553C139.017 51.2031 139.081 51.18 139.133 51.18C139.197 51.18 139.255 51.2031 139.29 51.2553L139.522 51.5571ZM143.351 48.2906C143.311 48.3602 143.253 48.3951 143.177 48.3951C143.131 48.3951 143.078 48.3775 143.02 48.3427C142.962 48.3079 142.887 48.2731 142.8 48.2325C142.719 48.1861 142.62 48.1514 142.498 48.1166C142.382 48.076 142.243 48.0585 142.081 48.0585C141.941 48.0585 141.819 48.076 141.703 48.1166C141.593 48.1514 141.5 48.1979 141.419 48.2617C141.344 48.3197 141.28 48.3949 141.239 48.4761C141.199 48.5574 141.175 48.6444 141.175 48.743C141.175 48.8649 141.21 48.9635 141.28 49.0447C141.349 49.126 141.442 49.1958 141.558 49.2538C141.674 49.3118 141.802 49.3641 141.947 49.4105C142.092 49.4511 142.243 49.5033 142.394 49.5555C142.551 49.6019 142.696 49.66 142.841 49.7238C142.991 49.7818 143.119 49.863 143.235 49.9558C143.345 50.0487 143.438 50.1588 143.508 50.2981C143.577 50.4315 143.612 50.5882 143.612 50.7797C143.612 50.9944 143.577 51.1974 143.496 51.3831C143.421 51.563 143.305 51.7253 143.154 51.8588C143.003 51.9922 142.817 52.0968 142.597 52.1781C142.376 52.2535 142.121 52.2939 141.837 52.2939C141.506 52.2939 141.21 52.2417 140.943 52.1373C140.676 52.027 140.45 51.8879 140.264 51.7197L140.462 51.4063C140.485 51.3657 140.514 51.3366 140.549 51.3134C140.584 51.2902 140.63 51.2786 140.682 51.2786C140.734 51.2786 140.792 51.3018 140.856 51.3483C140.92 51.3889 140.996 51.4354 141.077 51.4876C141.17 51.5399 141.28 51.5921 141.402 51.6327C141.529 51.6791 141.692 51.6964 141.877 51.6964C142.04 51.6964 142.179 51.679 142.301 51.6384C142.423 51.5978 142.522 51.5398 142.603 51.4644C142.684 51.3948 142.742 51.3133 142.777 51.2205C142.817 51.1277 142.841 51.0292 142.841 50.9247C142.841 50.7913 142.806 50.687 142.73 50.6057C142.667 50.5187 142.574 50.4431 142.458 50.385C142.342 50.3212 142.214 50.269 142.063 50.2284C141.918 50.182 141.767 50.1355 141.611 50.0833C141.46 50.0311 141.309 49.9789 141.164 49.915C141.019 49.8512 140.885 49.7702 140.775 49.6773C140.659 49.5787 140.566 49.4625 140.497 49.3232C140.427 49.1782 140.392 49.0101 140.392 48.807C140.392 48.6272 140.427 48.453 140.502 48.2906C140.578 48.1223 140.688 47.9773 140.827 47.8554C140.972 47.7278 141.146 47.6291 141.355 47.5537C141.558 47.4783 141.796 47.4435 142.063 47.4435C142.371 47.4435 142.649 47.4899 142.893 47.5885C143.142 47.6872 143.357 47.8206 143.537 47.9889L143.351 48.2906ZM19.0945 62.5577C18.9379 62.3546 18.7696 62.2097 18.5898 62.1285C18.4099 62.0473 18.2126 62.0007 17.9863 62.0007C17.5512 62.0007 17.2147 62.1574 16.9826 62.4707C16.7447 62.7841 16.6287 63.2308 16.6287 63.8111C16.6287 64.1128 16.6577 64.3796 16.7099 64.6001C16.7621 64.8147 16.8375 64.9945 16.9419 65.1338C17.0406 65.273 17.1682 65.3776 17.3133 65.4415C17.4641 65.5053 17.6324 65.5401 17.8239 65.5401C18.0965 65.5401 18.3286 65.4763 18.5317 65.3545C18.7348 65.2326 18.9205 65.0586 19.0945 64.8324V62.5577ZM19.9184 59.3088V66.1435H19.4252C19.3092 66.1435 19.2338 66.0856 19.2047 65.9695L19.1293 65.4009C18.932 65.6446 18.7 65.836 18.4447 65.9868C18.1894 66.1319 17.8877 66.2072 17.5512 66.2072C17.2843 66.2072 17.0406 66.1551 16.8201 66.0565C16.5996 65.9521 16.414 65.7954 16.2573 65.5981C16.1007 65.3951 15.9846 65.1454 15.8976 64.8437C15.8164 64.542 15.7757 64.1998 15.7757 63.8111C15.7757 63.4629 15.8222 63.1381 15.915 62.8422C16.0079 62.5404 16.1413 62.2852 16.3153 62.0648C16.4836 61.8443 16.6982 61.6702 16.9477 61.5483C17.203 61.4207 17.4874 61.3568 17.8007 61.3568C18.0908 61.3568 18.3344 61.4089 18.5433 61.5075C18.7464 61.6003 18.9321 61.7398 19.0945 61.9081V59.3088H19.9184ZM24.3744 63.2773C24.3744 63.0858 24.3454 62.9118 24.2873 62.7552C24.2351 62.5927 24.1539 62.4593 24.0494 62.3433C23.9508 62.2272 23.8232 62.1343 23.6782 62.0704C23.5273 62.0066 23.3591 61.9775 23.1676 61.9775C22.773 61.9775 22.4597 62.0936 22.2277 62.3257C21.9956 62.552 21.8563 62.8712 21.7982 63.2773H24.3744ZM25.0416 65.482C24.9372 65.6096 24.8154 65.7141 24.6761 65.8069C24.5311 65.8998 24.3802 65.9753 24.2119 66.0333C24.0553 66.0913 23.887 66.1318 23.7129 66.1608C23.5389 66.1956 23.3648 66.2072 23.1966 66.2072C22.8716 66.2072 22.57 66.1551 22.2973 66.0449C22.0246 65.9347 21.7866 65.7722 21.5894 65.5633C21.3863 65.3486 21.2355 65.0876 21.1253 64.7743C21.0092 64.461 20.957 64.101 20.957 63.6949C20.957 63.37 21.0034 63.0627 21.102 62.7784C21.2065 62.4941 21.3515 62.2504 21.543 62.0415C21.7286 61.8327 21.9607 61.6644 22.2334 61.5483C22.5061 61.4265 22.8078 61.3684 23.1502 61.3684C23.4345 61.3684 23.6897 61.4148 23.9334 61.5135C24.1713 61.6063 24.3802 61.7399 24.5542 61.9197C24.7283 62.0938 24.8676 62.3141 24.9662 62.5809C25.0648 62.8362 25.1171 63.1381 25.1171 63.4688C25.1171 63.6023 25.0996 63.6891 25.0706 63.7297C25.0474 63.7704 24.9894 63.7938 24.9139 63.7938H21.7751C21.7809 64.0897 21.8215 64.3507 21.8911 64.5712C21.9665 64.7916 22.071 64.9716 22.1986 65.1225C22.3321 65.2675 22.4829 65.3777 22.6628 65.4531C22.8427 65.5227 23.0457 65.5576 23.2662 65.5576C23.475 65.5576 23.6549 65.5343 23.8 65.4879C23.9508 65.4415 24.0842 65.3893 24.1887 65.3313C24.2989 65.2732 24.386 65.2267 24.4614 65.1803C24.5369 65.128 24.5949 65.1049 24.6529 65.1049C24.7167 65.1049 24.7689 65.128 24.8095 65.1803L25.0416 65.482ZM26.9853 59.3088V66.1435H26.1556V59.3088H26.9853ZM33.4372 62.2155C33.4024 62.2851 33.3443 62.32 33.2631 62.32C33.2167 62.32 33.1645 62.3024 33.1065 62.2676C33.0485 62.2328 32.973 62.198 32.8918 62.1574C32.8047 62.111 32.7061 62.0764 32.5901 62.0415C32.4683 62.0009 32.329 61.9835 32.1723 61.9835C32.0331 61.9835 31.9055 62.0009 31.7952 62.0415C31.685 62.0764 31.5864 62.1228 31.5051 62.1866C31.4297 62.2446 31.3658 62.3198 31.3252 62.4011C31.2846 62.4823 31.2672 62.5693 31.2672 62.6679C31.2672 62.7898 31.2963 62.8884 31.3659 62.9696C31.4355 63.0509 31.5283 63.1207 31.6444 63.1787C31.7604 63.2367 31.888 63.289 32.0331 63.3354C32.1781 63.376 32.329 63.4282 32.4798 63.4804C32.6365 63.5269 32.7874 63.5849 32.9324 63.6487C33.0775 63.7067 33.2051 63.7879 33.3212 63.8807C33.4372 63.9736 33.5242 64.0837 33.5938 64.223C33.6635 64.3564 33.7041 64.5131 33.7041 64.7046C33.7041 64.9193 33.6635 65.1224 33.588 65.308C33.5068 65.4879 33.3908 65.6502 33.2399 65.7837C33.0891 65.9171 32.9034 66.0217 32.6829 66.103C32.4624 66.1784 32.213 66.2188 31.9229 66.2188C31.5979 66.2188 31.2962 66.1666 31.0351 66.0622C30.7682 65.9519 30.5419 65.8129 30.3563 65.6446L30.5478 65.3313C30.5768 65.2906 30.6058 65.2615 30.6406 65.2383C30.6696 65.2151 30.716 65.2035 30.7683 65.2035C30.8263 65.2035 30.8843 65.2268 30.9423 65.2732C31.0061 65.3138 31.0815 65.3603 31.1686 65.4126C31.2556 65.4648 31.3659 65.517 31.4935 65.5576C31.6212 65.604 31.7778 65.6214 31.9634 65.6214C32.1259 65.6214 32.2651 65.6039 32.387 65.5633C32.5088 65.5227 32.6075 65.4648 32.6887 65.3893C32.7699 65.3197 32.828 65.2382 32.8686 65.1454C32.9034 65.0526 32.9266 64.9541 32.9266 64.8496C32.9266 64.7162 32.8918 64.6119 32.8221 64.5306C32.7525 64.4436 32.6597 64.368 32.5436 64.3099C32.4334 64.2461 32.3 64.1939 32.1491 64.1533C32.0041 64.1069 31.8532 64.0605 31.7024 64.0082C31.5515 63.956 31.4007 63.9038 31.2498 63.8399C31.1047 63.7761 30.9771 63.6951 30.861 63.6023C30.745 63.5036 30.6522 63.3874 30.5825 63.2481C30.5129 63.1031 30.4782 62.935 30.4782 62.732C30.4782 62.5521 30.5187 62.3779 30.5942 62.2155C30.6638 62.0472 30.7741 61.9022 30.9191 61.7803C31.0584 61.6527 31.2324 61.554 31.4412 61.4786C31.6501 61.4032 31.8823 61.3684 32.1491 61.3684C32.4625 61.3684 32.7351 61.4148 32.9846 61.5135C33.2283 61.6121 33.443 61.7455 33.6228 61.9138L33.4372 62.2155ZM37.2607 64.0258C36.8836 64.0374 36.5587 64.072 36.286 64.1184C36.0191 64.1649 35.8044 64.2289 35.6362 64.3043C35.4679 64.3855 35.3461 64.4724 35.2648 64.5768C35.1952 64.6871 35.1546 64.8033 35.1546 64.9309C35.1546 65.0586 35.1778 65.1629 35.2184 65.2499C35.2532 65.3428 35.3112 65.4183 35.3809 65.4763C35.4505 65.5285 35.5317 65.5749 35.6246 65.5981C35.7174 65.6271 35.8219 65.6386 35.9321 65.6386C36.0771 65.6386 36.2106 65.6213 36.3324 65.5981C36.4484 65.5633 36.5645 65.5227 36.6689 65.4647C36.7791 65.4125 36.8778 65.3429 36.9764 65.2675C37.0751 65.1863 37.1679 65.099 37.2607 65.0004V64.0258ZM34.5918 62.1053C34.8529 61.8558 35.1313 61.67 35.4331 61.5424C35.7348 61.4205 36.0655 61.3568 36.4311 61.3568C36.6922 61.3568 36.93 61.4032 37.1331 61.4902C37.3362 61.5773 37.5102 61.6934 37.6495 61.85C37.7887 62.0067 37.8932 62.1922 37.9628 62.4127C38.0324 62.6331 38.073 62.871 38.073 63.1379V66.1435H37.7017C37.6204 66.1435 37.5625 66.1318 37.516 66.1086C37.4754 66.0796 37.4406 66.0275 37.4174 65.9463L37.3245 65.5052C37.1969 65.6154 37.0808 65.7199 36.959 65.8069C36.843 65.894 36.7212 65.9695 36.5877 66.0333C36.4601 66.0913 36.3208 66.1377 36.1699 66.1667C36.0249 66.2015 35.8624 66.2188 35.6826 66.2188C35.5027 66.2188 35.3286 66.1957 35.172 66.1435C35.0095 66.0913 34.8703 66.0159 34.7485 65.9115C34.6266 65.807 34.5338 65.6793 34.4642 65.5284C34.3945 65.366 34.3597 65.1803 34.3597 64.9715C34.3597 64.7858 34.4119 64.606 34.5164 64.4377C34.615 64.2637 34.7832 64.1068 35.0095 63.9734C35.2416 63.8399 35.5375 63.7358 35.9089 63.6487C36.2744 63.5617 36.7269 63.5153 37.2607 63.5037V63.1379C37.2607 62.7724 37.1853 62.4941 37.0286 62.3084C36.8662 62.1227 36.6399 62.024 36.3324 62.024C36.1293 62.024 35.9611 62.0531 35.8218 62.1053C35.6826 62.1575 35.5665 62.2096 35.4621 62.2792C35.3635 62.3373 35.2765 62.3953 35.201 62.4475C35.1314 62.4997 35.0618 62.5229 34.9864 62.5229C34.9341 62.5229 34.8819 62.5114 34.8471 62.4824C34.8065 62.4475 34.7717 62.4128 34.7426 62.3722L34.5918 62.1053ZM39.3263 66.1435V61.4438H39.8252C39.9413 61.4438 40.0167 61.496 40.0457 61.6121L40.1037 62.0937C40.2778 61.8848 40.4693 61.705 40.6897 61.5715C40.9044 61.4381 41.1539 61.3684 41.4382 61.3684C41.7573 61.3684 42.0126 61.4556 42.2041 61.6296C42.4071 61.8095 42.5464 62.0472 42.6334 62.3489C42.703 62.1749 42.7901 62.0299 42.8945 61.9081C42.999 61.7805 43.1208 61.6817 43.2543 61.6004C43.3877 61.5192 43.527 61.4612 43.6778 61.4205C43.8287 61.3857 43.9853 61.3684 44.1361 61.3684C44.3856 61.3684 44.6061 61.409 44.7976 61.4902C44.989 61.5657 45.1574 61.6816 45.2908 61.8325C45.4242 61.9833 45.5286 62.1691 45.5983 62.3954C45.6679 62.6101 45.7085 62.8652 45.7085 63.1495V66.1435H44.873V63.1495C44.873 62.784 44.7976 62.5055 44.6352 62.3141C44.4727 62.1226 44.2406 62.024 43.9389 62.024C43.7996 62.024 43.672 62.0529 43.5502 62.0993C43.4283 62.1458 43.3181 62.2156 43.2252 62.3084C43.1324 62.4012 43.0628 62.5172 43.0048 62.6623C42.9525 62.8015 42.9235 62.9639 42.9235 63.1495V66.1435H42.0939V63.1495C42.0939 62.7724 42.0184 62.4881 41.8676 62.3025C41.7167 62.1168 41.4962 62.024 41.2061 62.024C40.9973 62.024 40.8116 62.082 40.6375 62.1923C40.4635 62.3025 40.3068 62.4476 40.1617 62.639V66.1435H39.3263ZM49.6423 66.1435V62.1458L49.1259 62.0877C49.0563 62.0703 49.0041 62.0473 48.9635 62.0183C48.9229 61.9835 48.8997 61.9371 48.8997 61.8733V61.5367H49.6423V61.0783C49.6423 60.8114 49.6829 60.5735 49.7525 60.3647C49.8338 60.1558 49.9382 59.9758 50.0775 59.8366C50.2225 59.6915 50.3907 59.5814 50.588 59.506C50.7911 59.4306 51.0116 59.3958 51.2611 59.3958C51.4699 59.3958 51.6614 59.4246 51.8413 59.4884L51.8181 59.9006C51.8123 59.976 51.7716 60.0166 51.6962 60.0224C51.6208 60.0282 51.5221 60.0281 51.3945 60.0281C51.2494 60.0281 51.1218 60.0514 51.0058 60.0862C50.8898 60.121 50.7911 60.1849 50.7041 60.2661C50.6229 60.3531 50.5591 60.4632 50.5126 60.5967C50.4662 60.7301 50.4488 60.9043 50.4488 61.1015V61.5367H51.8007V62.1342H50.472V66.1435H49.6423ZM55.1136 64.0258C54.7307 64.0374 54.4058 64.072 54.1389 64.1184C53.872 64.1649 53.6515 64.2289 53.4833 64.3043C53.315 64.3855 53.1932 64.4724 53.1178 64.5768C53.0423 64.6871 53.0075 64.8033 53.0075 64.9309C53.0075 65.0586 53.0249 65.1629 53.0655 65.2499C53.1061 65.3428 53.1583 65.4183 53.228 65.4763C53.2976 65.5285 53.3788 65.5749 53.4717 65.5981C53.5703 65.6271 53.6747 65.6386 53.7791 65.6386C53.9242 65.6386 54.0577 65.6213 54.1795 65.5981C54.3013 65.5633 54.4116 65.5227 54.516 65.4647C54.6262 65.4125 54.7307 65.3429 54.8235 65.2675C54.9222 65.1863 55.0208 65.099 55.1136 65.0004V64.0258ZM52.4447 62.1053C52.7058 61.8558 52.9843 61.67 53.286 61.5424C53.5819 61.4205 53.9184 61.3568 54.284 61.3568C54.5451 61.3568 54.7771 61.4032 54.9802 61.4902C55.1891 61.5773 55.3573 61.6934 55.4966 61.85C55.6358 62.0067 55.7402 62.1922 55.8157 62.4127C55.8853 62.6331 55.9201 62.871 55.9201 63.1379V66.1435H55.5546C55.4734 66.1435 55.4096 66.1318 55.369 66.1086C55.3225 66.0796 55.2935 66.0275 55.2645 65.9463L55.1716 65.5052C55.0498 65.6154 54.9279 65.7199 54.8119 65.8069C54.6959 65.894 54.5682 65.9695 54.4406 66.0333C54.3071 66.0913 54.1679 66.1377 54.0228 66.1667C53.8778 66.2015 53.7153 66.2188 53.5355 66.2188C53.3498 66.2188 53.1816 66.1957 53.0191 66.1435C52.8566 66.0913 52.7174 66.0159 52.5956 65.9115C52.4795 65.807 52.3867 65.6793 52.3113 65.5284C52.2474 65.366 52.2126 65.1803 52.2126 64.9715C52.2126 64.7858 52.2648 64.606 52.3635 64.4377C52.4679 64.2637 52.6303 64.1068 52.8624 63.9734C53.0887 63.8399 53.3904 63.7358 53.756 63.6487C54.1273 63.5617 54.5798 63.5153 55.1136 63.5037V63.1379C55.1136 62.7724 55.0324 62.4941 54.8757 62.3084C54.7191 62.1227 54.487 62.024 54.1853 62.024C53.9822 62.024 53.8082 62.0531 53.6689 62.1053C53.5355 62.1575 53.4136 62.2096 53.3092 62.2792C53.2106 62.3373 53.1235 62.3953 53.0539 62.4475C52.9784 62.4997 52.9088 62.5229 52.8392 62.5229C52.7812 62.5229 52.7348 62.5114 52.6941 62.4824C52.6535 62.4475 52.6188 62.4128 52.5897 62.3722L52.4447 62.1053ZM57.1792 66.1435V61.4438H57.6782C57.7942 61.4438 57.8638 61.496 57.8928 61.6121L57.9566 62.0937C58.1249 61.8848 58.3222 61.705 58.5368 61.5715C58.7573 61.4381 59.0068 61.3684 59.2911 61.3684C59.6044 61.3684 59.8597 61.4556 60.057 61.6296C60.2543 61.8095 60.3993 62.0472 60.4863 62.3489C60.5502 62.1749 60.6371 62.0299 60.7416 61.9081C60.8518 61.7805 60.9737 61.6817 61.1071 61.6004C61.2406 61.5192 61.3799 61.4612 61.5307 61.4205C61.6816 61.3857 61.8324 61.3684 61.989 61.3684C62.2327 61.3684 62.4532 61.409 62.6447 61.4902C62.8419 61.5657 63.0044 61.6816 63.1378 61.8325C63.2771 61.9833 63.3815 62.1691 63.4512 62.3954C63.5208 62.6101 63.5556 62.8652 63.5556 63.1495V66.1435H62.7259V63.1495C62.7259 62.784 62.6447 62.5055 62.4822 62.3141C62.3255 62.1226 62.0935 62.024 61.786 62.024C61.6525 62.024 61.5249 62.0529 61.3972 62.0993C61.2754 62.1458 61.171 62.2156 61.0781 62.3084C60.9853 62.4012 60.9099 62.5172 60.8577 62.6623C60.8054 62.8015 60.7764 62.9639 60.7764 63.1495V66.1435H59.9467V63.1495C59.9467 62.7724 59.8713 62.4881 59.7205 62.3025C59.5638 62.1168 59.3433 62.024 59.0532 62.024C58.8502 62.024 58.6587 62.082 58.4905 62.1923C58.3164 62.3025 58.1539 62.4476 58.0088 62.639V66.1435H57.1792ZM65.6849 61.4438V66.1435H64.8611V61.4438H65.6849ZM65.859 59.9644C65.859 60.0456 65.8417 60.1211 65.8126 60.1907C65.7778 60.2603 65.7372 60.3241 65.6791 60.3763C65.6269 60.4285 65.5631 60.4748 65.4877 60.5038C65.4181 60.5328 65.3426 60.5502 65.2614 60.5502C65.1802 60.5502 65.1047 60.5328 65.0351 60.5038C64.9655 60.4748 64.9075 60.4285 64.8553 60.3763C64.8031 60.3241 64.7625 60.2603 64.7277 60.1907C64.6986 60.1211 64.6812 60.0456 64.6812 59.9644C64.6812 59.8831 64.6986 59.8076 64.7277 59.738C64.7625 59.6626 64.8031 59.5987 64.8553 59.5465C64.9075 59.4943 64.9655 59.448 65.0351 59.419C65.1047 59.3842 65.1802 59.3725 65.2614 59.3725C65.3426 59.3725 65.4181 59.3842 65.4877 59.419C65.5631 59.448 65.6269 59.4943 65.6791 59.5465C65.7372 59.5987 65.7778 59.6626 65.8126 59.738C65.8417 59.8076 65.859 59.8831 65.859 59.9644ZM67.8956 59.3088V66.1435H67.0716V59.3088H67.8956ZM70.1119 61.4438V66.1435H69.2823V61.4438H70.1119ZM70.286 59.9644C70.286 60.0456 70.2686 60.1211 70.2338 60.1907C70.2048 60.2603 70.1583 60.3241 70.1061 60.3763C70.0539 60.4285 69.9901 60.4748 69.9147 60.5038C69.845 60.5328 69.7696 60.5502 69.6884 60.5502C69.6071 60.5502 69.5317 60.5328 69.4621 60.5038C69.3925 60.4748 69.3287 60.4285 69.2764 60.3763C69.2242 60.3241 69.1836 60.2603 69.1546 60.1907C69.1197 60.1211 69.1082 60.0456 69.1082 59.9644C69.1082 59.8831 69.1197 59.8076 69.1546 59.738C69.1836 59.6626 69.2242 59.5987 69.2764 59.5465C69.3287 59.4943 69.3925 59.448 69.4621 59.419C69.5317 59.3842 69.6071 59.3725 69.6884 59.3725C69.7696 59.3725 69.845 59.3842 69.9147 59.419C69.9901 59.448 70.0539 59.4943 70.1061 59.5465C70.1583 59.5987 70.2048 59.6626 70.2338 59.738C70.2686 59.8076 70.286 59.8831 70.286 59.9644ZM74.6143 63.2773C74.6143 63.0858 74.5853 62.9118 74.5273 62.7552C74.475 62.5927 74.3997 62.4593 74.2952 62.3433C74.1908 62.2272 74.0631 62.1343 73.9181 62.0704C73.7672 62.0066 73.599 61.9775 73.4133 61.9775C73.013 61.9775 72.6997 62.0936 72.4676 62.3257C72.2413 62.552 72.0963 62.8712 72.044 63.2773H74.6143ZM75.2816 65.482C75.1771 65.6096 75.0553 65.7141 74.916 65.8069C74.771 65.8998 74.6201 65.9753 74.4576 66.0333C74.2952 66.0913 74.1269 66.1318 73.9529 66.1608C73.7788 66.1956 73.6105 66.2072 73.4365 66.2072C73.1116 66.2072 72.8157 66.1551 72.5372 66.0449C72.2645 65.9347 72.0324 65.7722 71.8294 65.5633C71.6321 65.3486 71.4754 65.0876 71.3652 64.7743C71.2549 64.461 71.1969 64.101 71.1969 63.6949C71.1969 63.37 71.2491 63.0627 71.3477 62.7784C71.4464 62.4941 71.5914 62.2504 71.7829 62.0415C71.9686 61.8327 72.2007 61.6644 72.4734 61.5483C72.7461 61.4265 73.0536 61.3684 73.3901 61.3684C73.6744 61.3684 73.9355 61.4148 74.1733 61.5135C74.4112 61.6063 74.6201 61.7399 74.7942 61.9197C74.9683 62.0938 75.1075 62.3141 75.2061 62.5809C75.3048 62.8362 75.357 63.1381 75.357 63.4688C75.357 63.6023 75.3396 63.6891 75.3164 63.7297C75.2874 63.7704 75.2352 63.7938 75.1539 63.7938H72.015C72.0208 64.0897 72.0614 64.3507 72.1368 64.5712C72.2064 64.7916 72.3109 64.9716 72.4385 65.1225C72.572 65.2675 72.7287 65.3777 72.9027 65.4531C73.0826 65.5227 73.2856 65.5576 73.5061 65.5576C73.715 65.5576 73.8949 65.5343 74.0399 65.4879C74.1966 65.4415 74.3242 65.3893 74.4345 65.3313C74.5389 65.2732 74.6317 65.2267 74.7013 65.1803C74.7768 65.128 74.8406 65.1049 74.8928 65.1049C74.9624 65.1049 75.0146 65.128 75.0495 65.1803L75.2816 65.482ZM76.2331 65.633C76.2331 65.5517 76.2447 65.4762 76.2737 65.4066C76.3027 65.337 76.3434 65.2733 76.3956 65.2211C76.4478 65.1688 76.5116 65.1281 76.5812 65.0933C76.6508 65.0643 76.7263 65.0468 76.8075 65.0468C76.8887 65.0468 76.9642 65.0643 77.0338 65.0933C77.1034 65.1281 77.1672 65.1688 77.2194 65.2211C77.2716 65.2733 77.3123 65.337 77.3471 65.4066C77.3761 65.4762 77.3935 65.5517 77.3935 65.633C77.3935 65.7142 77.3761 65.7954 77.3471 65.865C77.3123 65.9346 77.2716 65.9927 77.2194 66.0449C77.1672 66.0971 77.1034 66.1377 77.0338 66.1667C76.9642 66.1957 76.8887 66.2132 76.8075 66.2132C76.7263 66.2132 76.6508 66.1957 76.5812 66.1667C76.5116 66.1377 76.4478 66.0971 76.3956 66.0449C76.3434 65.9927 76.3027 65.9346 76.2737 65.865C76.2447 65.7954 76.2331 65.7142 76.2331 65.633ZM84.9071 65.3893V66.1435H81.1358V59.4944H82.0293V65.3893H84.9071ZM87.3557 61.3684C87.698 61.3684 88.0055 61.4265 88.284 61.5367C88.5567 61.6527 88.7945 61.8151 88.9918 62.024C89.1833 62.2387 89.3341 62.4941 89.4328 62.79C89.5372 63.0917 89.5952 63.4223 89.5952 63.7878C89.5952 64.1592 89.5372 64.4957 89.4328 64.7916C89.3341 65.0875 89.1833 65.3428 88.9918 65.5517C88.7945 65.7663 88.5567 65.9287 88.284 66.0389C88.0055 66.155 87.698 66.2072 87.3557 66.2072C87.0075 66.2072 86.6941 66.155 86.4156 66.0389C86.143 65.9287 85.9051 65.7663 85.7136 65.5517C85.5164 65.3428 85.3655 65.0875 85.261 64.7916C85.1624 64.4957 85.1102 64.1592 85.1102 63.7878C85.1102 63.4223 85.1624 63.0917 85.261 62.79C85.3655 62.4941 85.5164 62.2387 85.7136 62.024C85.9051 61.8151 86.143 61.6527 86.4156 61.5367C86.6941 61.4265 87.0075 61.3684 87.3557 61.3684ZM87.3557 65.5633C87.8198 65.5633 88.1679 65.4067 88.3942 65.0992C88.6262 64.7859 88.7365 64.3508 88.7365 63.7938C88.7365 63.2368 88.6262 62.7958 88.3942 62.4883C88.1679 62.175 87.8198 62.0183 87.3557 62.0183C87.1178 62.0183 86.9147 62.0589 86.7406 62.1401C86.5665 62.2156 86.4215 62.3317 86.2996 62.4883C86.1894 62.6392 86.1024 62.8248 86.0444 63.0453C85.9864 63.2658 85.9573 63.5153 85.9573 63.7938C85.9573 64.3508 86.0734 64.7859 86.2996 65.0992C86.5317 65.4067 86.8857 65.5633 87.3557 65.5633ZM91.4228 62.3838C91.5737 62.0647 91.7536 61.8095 91.9741 61.6296C92.1887 61.4498 92.4556 61.3568 92.7689 61.3568C92.8676 61.3568 92.9604 61.3684 93.0474 61.3916C93.1403 61.4149 93.2273 61.4438 93.2969 61.4902L93.2331 62.111C93.2156 62.1864 93.1692 62.2271 93.0938 62.2271C93.0532 62.2271 92.9894 62.2156 92.9082 62.1982C92.8211 62.1808 92.7283 62.169 92.6239 62.169C92.473 62.169 92.3395 62.1922 92.2235 62.2328C92.1075 62.2792 92.0031 62.3432 91.9102 62.4302C91.8232 62.5115 91.742 62.6217 91.6665 62.7436C91.5969 62.8712 91.5331 63.0103 91.4693 63.1728V66.1435H90.6396V61.4438H91.1154C91.2024 61.4438 91.2662 61.4612 91.301 61.4902C91.3358 61.525 91.359 61.5831 91.3706 61.6701L91.4228 62.3838ZM98.9365 62.2155C98.9017 62.2851 98.8437 62.32 98.7624 62.32C98.716 62.32 98.6638 62.3024 98.6058 62.2676C98.5477 62.2328 98.4781 62.198 98.3911 62.1574C98.3041 62.111 98.2055 62.0764 98.0894 62.0415C97.9676 62.0009 97.8283 61.9835 97.6716 61.9835C97.5324 61.9835 97.4047 62.0009 97.2945 62.0415C97.1843 62.0764 97.0856 62.1228 97.0044 62.1866C96.929 62.2446 96.8652 62.3198 96.8246 62.4011C96.7839 62.4823 96.7666 62.5693 96.7666 62.6679C96.7666 62.7898 96.7955 62.8884 96.8651 62.9696C96.9348 63.0509 97.0277 63.1207 97.1437 63.1787C97.2597 63.2367 97.3873 63.289 97.5324 63.3354C97.6774 63.376 97.8283 63.4282 97.9792 63.4804C98.1358 63.5269 98.2867 63.5849 98.4317 63.6487C98.5768 63.7067 98.7044 63.7879 98.8204 63.8807C98.9365 63.9736 99.0236 64.0837 99.0932 64.223C99.1628 64.3564 99.2034 64.5131 99.2034 64.7046C99.2034 64.9193 99.1628 65.1224 99.0874 65.308C99.0061 65.4879 98.8959 65.6502 98.7393 65.7837C98.5884 65.9171 98.4027 66.0217 98.1822 66.103C97.9675 66.1784 97.7123 66.2188 97.4222 66.2188C97.0973 66.2188 96.7955 66.1666 96.5345 66.0622C96.2676 65.9519 96.0413 65.8129 95.8556 65.6446L96.0471 65.3313C96.0761 65.2906 96.1051 65.2615 96.1399 65.2383C96.1689 65.2151 96.2154 65.2035 96.2676 65.2035C96.3256 65.2035 96.3836 65.2268 96.4416 65.2732C96.5054 65.3138 96.5809 65.3603 96.6679 65.4126C96.7549 65.4648 96.8652 65.517 96.9928 65.5576C97.1205 65.604 97.2771 65.6214 97.4628 65.6214C97.6252 65.6214 97.7645 65.6039 97.8863 65.5633C98.0081 65.5227 98.1068 65.4648 98.188 65.3893C98.2693 65.3197 98.3273 65.2382 98.3679 65.1454C98.4085 65.0526 98.4259 64.9541 98.4259 64.8496C98.4259 64.7162 98.3911 64.6119 98.3215 64.5306C98.2518 64.4436 98.159 64.368 98.043 64.3099C97.9327 64.2461 97.7993 64.1939 97.6485 64.1533C97.5034 64.1069 97.3526 64.0605 97.2017 64.0082C97.0509 63.956 96.9 63.9038 96.7491 63.8399C96.6041 63.7761 96.4764 63.6951 96.3604 63.6023C96.2443 63.5036 96.1515 63.3874 96.0819 63.2481C96.0123 63.1031 95.9775 62.935 95.9775 62.732C95.9775 62.5521 96.0181 62.3779 96.0935 62.2155C96.1631 62.0472 96.2734 61.9022 96.4184 61.7803C96.5577 61.6527 96.7317 61.554 96.9406 61.4786C97.1494 61.4032 97.3874 61.3684 97.6485 61.3684C97.9618 61.3684 98.2344 61.4148 98.4839 61.5135C98.7276 61.6121 98.9423 61.7455 99.1222 61.9138L98.9365 62.2155ZM103.363 63.2773C103.363 63.0858 103.334 62.9118 103.276 62.7552C103.224 62.5927 103.149 62.4593 103.039 62.3433C102.94 62.2272 102.812 62.1343 102.667 62.0704C102.516 62.0066 102.348 61.9775 102.157 61.9775C101.762 61.9775 101.449 62.0936 101.217 62.3257C100.99 62.552 100.845 62.8712 100.787 63.2773H103.363ZM104.031 65.482C103.926 65.6096 103.804 65.7141 103.665 65.8069C103.52 65.8998 103.369 65.9753 103.201 66.0333C103.044 66.0913 102.876 66.1318 102.702 66.1608C102.528 66.1956 102.36 66.2072 102.186 66.2072C101.861 66.2072 101.559 66.1551 101.286 66.0449C101.014 65.9347 100.776 65.7722 100.578 65.5633C100.375 65.3486 100.225 65.0876 100.114 64.7743C99.9983 64.461 99.9461 64.101 99.9461 63.6949C99.9461 63.37 99.9925 63.0627 100.091 62.7784C100.196 62.4941 100.341 62.2504 100.532 62.0415C100.718 61.8327 100.95 61.6644 101.222 61.5483C101.495 61.4265 101.803 61.3684 102.139 61.3684C102.424 61.3684 102.685 61.4148 102.923 61.5135C103.16 61.6063 103.369 61.7399 103.543 61.9197C103.717 62.0938 103.857 62.3141 103.955 62.5809C104.054 62.8362 104.106 63.1381 104.106 63.4688C104.106 63.6023 104.089 63.6891 104.06 63.7297C104.036 63.7704 103.984 63.7938 103.903 63.7938H100.764C100.77 64.0897 100.811 64.3507 100.88 64.5712C100.956 64.7916 101.06 64.9716 101.188 65.1225C101.321 65.2675 101.472 65.3777 101.652 65.4531C101.832 65.5227 102.035 65.5576 102.255 65.5576C102.464 65.5576 102.644 65.5343 102.789 65.4879C102.94 65.4415 103.073 65.3893 103.178 65.3313C103.288 65.2732 103.381 65.2267 103.451 65.1803C103.526 65.128 103.59 65.1049 103.642 65.1049C103.706 65.1049 103.758 65.128 103.799 65.1803L104.031 65.482ZM105.951 65.012C106.102 65.215 106.264 65.3602 106.444 65.4415C106.624 65.5285 106.827 65.5689 107.048 65.5689C107.489 65.5689 107.825 65.4125 108.063 65.0992C108.295 64.7859 108.411 64.339 108.411 63.7646C108.411 63.4571 108.388 63.1903 108.33 62.9756C108.278 62.7551 108.202 62.5751 108.098 62.4359C107.994 62.2908 107.872 62.1864 107.721 62.1226C107.576 62.0587 107.408 62.024 107.216 62.024C106.949 62.024 106.711 62.088 106.508 62.2098C106.305 62.3375 106.119 62.5113 105.951 62.7376V65.012ZM105.905 62.169C106.108 61.9253 106.334 61.7282 106.595 61.5832C106.856 61.4323 107.152 61.3568 107.483 61.3568C107.756 61.3568 108.005 61.409 108.226 61.5135C108.446 61.6179 108.632 61.7686 108.783 61.9775C108.939 62.1748 109.061 62.4243 109.142 62.726C109.224 63.0277 109.27 63.3701 109.27 63.7646C109.27 64.1069 109.224 64.4318 109.131 64.7335C109.038 65.0294 108.899 65.2905 108.725 65.5052C108.551 65.7257 108.336 65.894 108.086 66.0217C107.831 66.1493 107.553 66.2072 107.233 66.2072C106.949 66.2072 106.7 66.1608 106.491 66.0622C106.288 65.9635 106.108 65.8303 105.951 65.6562V67.7334H105.116V61.4438H105.615C105.731 61.4438 105.806 61.496 105.835 61.6121L105.905 62.169ZM112.873 64.0258C112.49 64.0374 112.165 64.072 111.898 64.1184C111.631 64.1649 111.411 64.2289 111.243 64.3043C111.074 64.3855 110.953 64.4724 110.877 64.5768C110.802 64.6871 110.761 64.8033 110.761 64.9309C110.761 65.0586 110.784 65.1629 110.825 65.2499C110.866 65.3428 110.918 65.4183 110.987 65.4763C111.057 65.5285 111.138 65.5749 111.231 65.5981C111.33 65.6271 111.428 65.6386 111.539 65.6386C111.684 65.6386 111.817 65.6213 111.939 65.5981C112.061 65.5633 112.171 65.5227 112.275 65.4647C112.386 65.4125 112.484 65.3429 112.583 65.2675C112.682 65.1863 112.78 65.099 112.873 65.0004V64.0258ZM110.204 62.1053C110.459 61.8558 110.744 61.67 111.04 61.5424C111.341 61.4205 111.672 61.3568 112.038 61.3568C112.304 61.3568 112.537 61.4032 112.74 61.4902C112.943 61.5773 113.117 61.6934 113.256 61.85C113.395 62.0067 113.5 62.1922 113.569 62.4127C113.645 62.6331 113.68 62.871 113.68 63.1379V66.1435H113.314C113.233 66.1435 113.169 66.1318 113.128 66.1086C113.082 66.0796 113.047 66.0275 113.024 65.9463L112.931 65.5052C112.809 65.6154 112.687 65.7199 112.571 65.8069C112.449 65.894 112.328 65.9695 112.2 66.0333C112.067 66.0913 111.927 66.1377 111.782 66.1667C111.631 66.2015 111.469 66.2188 111.295 66.2188C111.109 66.2188 110.935 66.1957 110.779 66.1435C110.616 66.0913 110.477 66.0159 110.355 65.9115C110.239 65.807 110.14 65.6793 110.071 65.5284C110.001 65.366 109.972 65.1803 109.972 64.9715C109.972 64.7858 110.018 64.606 110.123 64.4377C110.227 64.2637 110.39 64.1068 110.622 63.9734C110.848 63.8399 111.144 63.7358 111.515 63.6487C111.881 63.5617 112.333 63.5153 112.873 63.5037V63.1379C112.873 62.7724 112.792 62.4941 112.635 62.3084C112.478 62.1227 112.246 62.024 111.945 62.024C111.736 62.024 111.568 62.0531 111.428 62.1053C111.289 62.1575 111.173 62.2096 111.069 62.2792C110.97 62.3373 110.883 62.3953 110.807 62.4475C110.738 62.4997 110.668 62.5229 110.599 62.5229C110.541 62.5229 110.494 62.5114 110.454 62.4824C110.413 62.4475 110.378 62.4128 110.349 62.3722L110.204 62.1053ZM115.722 62.3838C115.867 62.0647 116.053 61.8095 116.267 61.6296C116.488 61.4498 116.749 61.3568 117.062 61.3568C117.161 61.3568 117.254 61.3684 117.346 61.3916C117.439 61.4149 117.52 61.4438 117.59 61.4902L117.532 62.111C117.515 62.1864 117.468 62.2271 117.393 62.2271C117.346 62.2271 117.283 62.2156 117.201 62.1982C117.12 62.1808 117.021 62.169 116.917 62.169C116.772 62.169 116.639 62.1922 116.517 62.2328C116.406 62.2792 116.302 62.3432 116.209 62.4302C116.116 62.5115 116.035 62.6217 115.96 62.7436C115.89 62.8712 115.826 63.0103 115.768 63.1728V66.1435H114.939V61.4438H115.409C115.501 61.4438 115.559 61.4612 115.594 61.4902C115.629 61.525 115.652 61.5831 115.664 61.6701L115.722 62.3838ZM120.793 64.0258C120.416 64.0374 120.091 64.072 119.818 64.1184C119.551 64.1649 119.337 64.2289 119.162 64.3043C119 64.3855 118.878 64.4724 118.797 64.5768C118.721 64.6871 118.687 64.8033 118.687 64.9309C118.687 65.0586 118.704 65.1629 118.745 65.2499C118.785 65.3428 118.843 65.4183 118.907 65.4763C118.983 65.5285 119.064 65.5749 119.157 65.5981C119.249 65.6271 119.354 65.6386 119.464 65.6386C119.609 65.6386 119.743 65.6213 119.859 65.5981C119.981 65.5633 120.097 65.5227 120.201 65.4647C120.305 65.4125 120.41 65.3429 120.508 65.2675C120.607 65.1863 120.7 65.099 120.793 65.0004V64.0258ZM118.124 62.1053C118.385 61.8558 118.663 61.67 118.965 61.5424C119.267 61.4205 119.598 61.3568 119.963 61.3568C120.224 61.3568 120.462 61.4032 120.665 61.4902C120.868 61.5773 121.042 61.6934 121.182 61.85C121.321 62.0067 121.425 62.1922 121.495 62.4127C121.564 62.6331 121.599 62.871 121.599 63.1379V66.1435H121.234C121.153 66.1435 121.095 66.1318 121.048 66.1086C121.007 66.0796 120.973 66.0275 120.949 65.9463L120.857 65.5052C120.729 65.6154 120.607 65.7199 120.491 65.8069C120.375 65.894 120.253 65.9695 120.12 66.0333C119.992 66.0913 119.853 66.1377 119.702 66.1667C119.557 66.2015 119.395 66.2188 119.215 66.2188C119.035 66.2188 118.861 66.1957 118.698 66.1435C118.542 66.0913 118.397 66.0159 118.281 65.9115C118.159 65.807 118.066 65.6793 117.996 65.5284C117.927 65.366 117.892 65.1803 117.892 64.9715C117.892 64.7858 117.944 64.606 118.048 64.4377C118.147 64.2637 118.315 64.1068 118.542 63.9734C118.774 63.8399 119.07 63.7358 119.441 63.6487C119.806 63.5617 120.259 63.5153 120.793 63.5037V63.1379C120.793 62.7724 120.717 62.4941 120.555 62.3084C120.398 62.1227 120.166 62.024 119.864 62.024C119.661 62.024 119.487 62.0531 119.348 62.1053C119.215 62.1575 119.093 62.2096 118.994 62.2792C118.896 62.3373 118.809 62.3953 118.733 62.4475C118.663 62.4997 118.588 62.5229 118.518 62.5229C118.466 62.5229 118.414 62.5114 118.373 62.4824C118.333 62.4475 118.304 62.4128 118.275 62.3722L118.124 62.1053ZM124.239 66.2188C123.868 66.2188 123.584 66.1144 123.381 65.9055C123.183 65.6966 123.085 65.4007 123.085 65.012V62.1342H122.516C122.47 62.1342 122.429 62.1169 122.394 62.0937C122.359 62.0589 122.342 62.0123 122.342 61.9543V61.6237L123.114 61.5251L123.305 60.0746C123.311 60.0282 123.334 59.9874 123.363 59.9584C123.398 59.9294 123.439 59.912 123.491 59.912H123.909V61.5367H125.272V62.1342H123.909V64.9542C123.909 65.1514 123.961 65.3022 124.054 65.395C124.152 65.4936 124.274 65.5401 124.425 65.5401C124.512 65.5401 124.587 65.5284 124.651 65.5052C124.715 65.482 124.767 65.4589 124.814 65.4298C124.86 65.4008 124.901 65.3777 124.93 65.3545C124.964 65.3313 124.993 65.3196 125.022 65.3196C125.063 65.3196 125.104 65.3428 125.139 65.395L125.376 65.7896C125.237 65.9231 125.063 66.0274 124.86 66.1086C124.663 66.1783 124.454 66.2188 124.239 66.2188ZM19.1758 77.2022C19.1758 77.0108 19.1468 76.8368 19.0945 76.6801C19.0423 76.5176 18.9611 76.3842 18.8566 76.2682C18.7522 76.1521 18.6303 76.0592 18.4795 75.9954C18.3344 75.9315 18.1662 75.9024 17.9747 75.9024C17.5802 75.9024 17.2669 76.0185 17.0348 76.2506C16.8027 76.4769 16.6635 76.7961 16.6054 77.2022H19.1758ZM19.843 79.4069C19.7443 79.5345 19.6225 79.639 19.4774 79.7318C19.3382 79.8247 19.1816 79.9002 19.0191 79.9582C18.8566 80.0162 18.6884 80.0567 18.5201 80.0857C18.3461 80.1205 18.172 80.1321 18.0037 80.1321C17.6788 80.1321 17.3771 80.0801 17.1044 79.9698C16.8317 79.8596 16.5938 79.6971 16.3908 79.4882C16.1935 79.2735 16.0368 79.0125 15.9266 78.6992C15.8163 78.3859 15.7584 78.026 15.7584 77.6198C15.7584 77.2949 15.8106 76.9876 15.9092 76.7033C16.0137 76.419 16.1587 76.1753 16.3444 75.9665C16.5358 75.7576 16.7621 75.5893 17.0348 75.4732C17.3075 75.3514 17.615 75.2933 17.9573 75.2933C18.2358 75.2933 18.4969 75.3397 18.7348 75.4384C18.9785 75.5312 19.1873 75.6648 19.3556 75.8446C19.5355 76.0187 19.6747 76.239 19.7733 76.5059C19.872 76.7612 19.9184 77.063 19.9184 77.3937C19.9184 77.5272 19.9068 77.614 19.8778 77.6547C19.8488 77.6953 19.7966 77.7187 19.7211 77.7187H16.5764C16.588 78.0146 16.6287 78.2756 16.6983 78.4961C16.7737 78.7165 16.8724 78.8965 17.0058 79.0474C17.1335 79.1924 17.2901 79.3026 17.4699 79.378C17.6498 79.4476 17.8471 79.4825 18.0734 79.4825C18.2822 79.4825 18.4563 79.4593 18.6071 79.4128C18.758 79.3664 18.8856 79.3142 18.9959 79.2562C19.1061 79.1982 19.1931 79.1516 19.2627 79.1052C19.3382 79.053 19.402 79.0298 19.4543 79.0298C19.5239 79.0298 19.5761 79.053 19.6109 79.1052L19.843 79.4069ZM24.7341 80.0684H23.9392C23.8696 80.0684 23.8174 80.0511 23.7768 80.0163C23.7419 79.9815 23.7071 79.9409 23.6839 79.8945L22.5003 78.055C22.4887 78.0956 22.4713 78.1421 22.4597 78.1827C22.4481 78.2234 22.4249 78.2639 22.4017 78.2929L21.3051 79.8945C21.2761 79.9409 21.2413 79.9815 21.2065 80.0163C21.1717 80.0511 21.1253 80.0684 21.0614 80.0684H20.3246L21.9723 77.6547L20.3884 75.3687H21.1833C21.2529 75.3687 21.2993 75.3747 21.3283 75.3979C21.3631 75.4211 21.3921 75.4499 21.4154 75.4905L22.57 77.2544C22.5932 77.1673 22.6338 77.0805 22.686 76.9934L23.6955 75.5081C23.7245 75.4675 23.7536 75.4327 23.7884 75.4095C23.8174 75.3805 23.858 75.3687 23.9044 75.3687H24.6703L23.0863 77.6141L24.7341 80.0684ZM26.3644 75.3687V80.0684H25.5406V75.3687H26.3644ZM26.5443 73.8893C26.5443 73.9705 26.527 74.046 26.4921 74.1156C26.4631 74.1853 26.4167 74.249 26.3644 74.3012C26.3122 74.3534 26.2484 74.3997 26.173 74.4287C26.1034 74.4577 26.0279 74.4751 25.9467 74.4751C25.8655 74.4751 25.79 74.4577 25.7146 74.4287C25.6508 74.3997 25.587 74.3534 25.5348 74.3012C25.4826 74.249 25.442 74.1853 25.413 74.1156C25.3782 74.046 25.3665 73.9705 25.3665 73.8893C25.3665 73.808 25.3782 73.7325 25.413 73.6629C25.442 73.5875 25.4826 73.5236 25.5348 73.4714C25.587 73.4192 25.6508 73.3729 25.7146 73.3439C25.79 73.3091 25.8655 73.2975 25.9467 73.2975C26.0279 73.2975 26.1034 73.3091 26.173 73.3439C26.2484 73.3729 26.3122 73.4192 26.3644 73.4714C26.4167 73.5236 26.4631 73.5875 26.4921 73.6629C26.527 73.7325 26.5443 73.808 26.5443 73.8893ZM30.4607 76.1404C30.4259 76.21 30.3679 76.2449 30.2924 76.2449C30.246 76.2449 30.1938 76.2273 30.1358 76.1925C30.072 76.1577 30.0024 76.1229 29.9154 76.0823C29.8341 76.0359 29.7297 76.0013 29.6137 75.9665C29.4976 75.9258 29.3583 75.9084 29.1959 75.9084C29.0566 75.9084 28.929 75.9258 28.8188 75.9665C28.7085 76.0013 28.6099 76.0477 28.5345 76.1115C28.4533 76.1695 28.3952 76.2447 28.3488 76.326C28.3082 76.4072 28.2908 76.4942 28.2908 76.5928C28.2908 76.7147 28.3255 76.8133 28.3952 76.8946C28.4648 76.9758 28.5577 77.0456 28.6737 77.1036C28.784 77.1617 28.9174 77.2139 29.0624 77.2603C29.2075 77.3009 29.3525 77.3531 29.5092 77.4054C29.66 77.4518 29.8109 77.5098 29.956 77.5736C30.101 77.6317 30.2345 77.7128 30.3447 77.8057C30.4608 77.8985 30.5536 78.0086 30.6232 78.1479C30.6928 78.2813 30.7276 78.438 30.7276 78.6295C30.7276 78.8442 30.687 79.0473 30.6116 79.2329C30.5362 79.4128 30.4201 79.5752 30.2693 79.7086C30.1184 79.8421 29.9327 79.9467 29.7122 80.0279C29.4918 80.1033 29.2365 80.1438 28.9522 80.1438C28.6215 80.1438 28.3256 80.0915 28.0587 79.9871C27.7918 79.8769 27.5655 79.7378 27.3798 79.5695L27.5771 79.2562C27.6003 79.2156 27.6294 79.1865 27.6642 79.1632C27.699 79.14 27.7396 79.1284 27.7918 79.1284C27.8498 79.1284 27.9078 79.1517 27.9716 79.1981C28.0296 79.2387 28.1051 79.2853 28.1921 79.3375C28.2849 79.3897 28.3894 79.4419 28.5171 79.4825C28.6447 79.5289 28.8013 79.5463 28.9928 79.5463C29.1553 79.5463 29.2945 79.5288 29.4163 79.4882C29.5324 79.4476 29.6368 79.3897 29.7181 79.3143C29.7935 79.2446 29.8573 79.1632 29.8921 79.0703C29.9328 78.9775 29.9501 78.879 29.9501 78.7746C29.9501 78.6411 29.9153 78.5368 29.8457 78.4556C29.7761 78.3685 29.689 78.2929 29.573 78.2349C29.457 78.171 29.3236 78.1188 29.1785 78.0782C29.0334 78.0318 28.8826 77.9854 28.7259 77.9331C28.5751 77.8809 28.4242 77.8287 28.2792 77.7649C28.1341 77.701 28.0007 77.62 27.8847 77.5272C27.7744 77.4285 27.6815 77.3123 27.6061 77.173C27.5423 77.028 27.5075 76.8599 27.5075 76.6569C27.5075 76.477 27.5423 76.3029 27.6177 76.1404C27.6931 75.9721 27.7976 75.8271 27.9427 75.7053C28.0877 75.5776 28.2618 75.479 28.4649 75.4035C28.6737 75.3281 28.9116 75.2933 29.1785 75.2933C29.486 75.2933 29.7645 75.3397 30.0082 75.4384C30.2576 75.537 30.4665 75.6704 30.6464 75.8387L30.4607 76.1404ZM33.1819 80.1438C32.8105 80.1438 32.5262 80.0393 32.3232 79.8304C32.1259 79.6216 32.0273 79.3256 32.0273 78.9369V76.0591H31.4645C31.4123 76.0591 31.3717 76.0418 31.3368 76.0186C31.302 75.9838 31.2846 75.9372 31.2846 75.8792V75.5486L32.0563 75.45L32.2477 73.9995C32.2535 73.9531 32.2768 73.9123 32.3058 73.8833C32.3406 73.8543 32.387 73.8369 32.4392 73.8369H32.857V75.4616H34.2146V76.0591H32.857V78.8791C32.857 79.0764 32.9034 79.2271 32.9962 79.3199C33.0949 79.4185 33.2167 79.465 33.3676 79.465C33.4546 79.465 33.53 79.4533 33.5938 79.4301C33.6577 79.4069 33.7156 79.3838 33.7621 79.3548C33.8085 79.3258 33.8433 79.3026 33.8781 79.2794C33.9072 79.2562 33.942 79.2446 33.9652 79.2446C34.0058 79.2446 34.0464 79.2677 34.0812 79.3199L34.3191 79.7146C34.1799 79.848 34.0058 79.9523 33.8085 80.0336C33.6055 80.1032 33.3965 80.1438 33.1819 80.1438ZM38.189 77.2022C38.189 77.0108 38.1601 76.8368 38.1021 76.6801C38.0498 76.5176 37.9744 76.3842 37.87 76.2682C37.7655 76.1521 37.6379 76.0592 37.4928 75.9954C37.342 75.9315 37.1737 75.9024 36.988 75.9024C36.5877 75.9024 36.2744 76.0185 36.0423 76.2506C35.816 76.4769 35.671 76.7961 35.6188 77.2022H38.189ZM38.8563 79.4069C38.7518 79.5345 38.63 79.639 38.4907 79.7318C38.3457 79.8247 38.1949 79.9002 38.0324 79.9582C37.87 80.0162 37.7017 80.0567 37.5277 80.0857C37.3536 80.1205 37.1853 80.1321 37.0113 80.1321C36.6863 80.1321 36.3904 80.0801 36.1119 79.9698C35.8392 79.8596 35.6014 79.6971 35.4041 79.4882C35.2068 79.2735 35.0501 79.0125 34.9399 78.6992C34.8297 78.3859 34.7717 78.026 34.7717 77.6198C34.7717 77.2949 34.818 76.9876 34.9225 76.7033C35.0211 76.419 35.1662 76.1753 35.3576 75.9665C35.5433 75.7576 35.7754 75.5893 36.0481 75.4732C36.3208 75.3514 36.6283 75.2933 36.9648 75.2933C37.2491 75.2933 37.5103 75.3397 37.7481 75.4384C37.986 75.5312 38.1949 75.6648 38.3689 75.8446C38.543 76.0187 38.6822 76.239 38.7808 76.5059C38.8795 76.7612 38.9317 77.063 38.9317 77.3937C38.9317 77.5272 38.9143 77.614 38.8911 77.6547C38.8621 77.6953 38.8099 77.7187 38.7286 77.7187H35.5897C35.5955 78.0146 35.6362 78.2756 35.7116 78.4961C35.7812 78.7165 35.8856 78.8965 36.0133 79.0474C36.1467 79.1924 36.2976 79.3026 36.4775 79.378C36.6573 79.4476 36.8604 79.4825 37.0809 79.4825C37.2898 79.4825 37.4696 79.4593 37.6146 79.4128C37.7655 79.3664 37.899 79.3142 38.0092 79.2562C38.1136 79.1982 38.2064 79.1516 38.2761 79.1052C38.3515 79.053 38.4154 79.0298 38.4676 79.0298C38.5314 79.0298 38.5894 79.053 38.6242 79.1052L38.8563 79.4069ZM40.7245 76.0475C40.829 75.9314 40.9334 75.8329 41.0495 75.7401C41.1655 75.6473 41.2873 75.5659 41.4092 75.5021C41.5426 75.4325 41.6761 75.3803 41.8211 75.3455C41.9662 75.3106 42.1229 75.2933 42.2911 75.2933C42.5464 75.2933 42.7727 75.3341 42.9642 75.4211C43.1672 75.5081 43.3297 75.6241 43.4573 75.7866C43.5908 75.9374 43.6952 76.1289 43.759 76.3435C43.8287 76.564 43.8634 76.8076 43.8634 77.0745V80.0684H43.0338V77.0745C43.0338 76.7205 42.9525 76.4421 42.7843 76.2506C42.6276 76.0475 42.3781 75.9489 42.0474 75.9489C41.8037 75.9489 41.5717 76.0127 41.3628 76.1288C41.1481 76.2448 40.9567 76.4072 40.7768 76.6045V80.0684H39.9471V75.3687H40.4402C40.5621 75.3687 40.6317 75.4209 40.6607 75.537L40.7245 76.0475ZM46.5034 80.1438C46.1321 80.1438 45.842 80.0393 45.6447 79.8304C45.4474 79.6216 45.3488 79.3256 45.3488 78.9369V76.0591H44.7802C44.728 76.0591 44.6873 76.0418 44.6525 76.0186C44.6177 75.9838 44.6061 75.9372 44.6061 75.8792V75.5486L45.372 75.45L45.5635 73.9995C45.5751 73.9531 45.5925 73.9123 45.6273 73.8833C45.6563 73.8543 45.7027 73.8369 45.7549 73.8369H46.1727V75.4616H47.5304V76.0591H46.1727V78.8791C46.1727 79.0764 46.2191 79.2271 46.3177 79.3199C46.4105 79.4185 46.5382 79.465 46.689 79.465C46.7761 79.465 46.8457 79.4533 46.9095 79.4301C46.9733 79.4069 47.0314 79.3838 47.0778 79.3548C47.1242 79.3258 47.1648 79.3026 47.1938 79.2794C47.2286 79.2562 47.2577 79.2446 47.2809 79.2446C47.3273 79.2446 47.3621 79.2677 47.3969 79.3199L47.6406 79.7146C47.4955 79.848 47.3273 79.9523 47.1242 80.0336C46.9211 80.1032 46.7181 80.1438 46.5034 80.1438ZM49.2594 75.3687V80.0684H48.4297V75.3687H49.2594ZM49.4334 73.8893C49.4334 73.9705 49.416 74.046 49.3812 74.1156C49.3522 74.1853 49.3116 74.249 49.2536 74.3012C49.2014 74.3534 49.1376 74.3997 49.0621 74.4287C48.9925 74.4577 48.9171 74.4751 48.8358 74.4751C48.7546 74.4751 48.6792 74.4577 48.6096 74.4287C48.5399 74.3997 48.4819 74.3534 48.4297 74.3012C48.3716 74.249 48.331 74.1853 48.302 74.1156C48.273 74.046 48.2556 73.9705 48.2556 73.8893C48.2556 73.808 48.273 73.7325 48.302 73.6629C48.331 73.5875 48.3716 73.5236 48.4297 73.4714C48.4819 73.4192 48.5399 73.3729 48.6096 73.3439C48.6792 73.3091 48.7546 73.2975 48.8358 73.2975C48.9171 73.2975 48.9925 73.3091 49.0621 73.3439C49.1376 73.3729 49.2014 73.4192 49.2536 73.4714C49.3116 73.5236 49.3522 73.5875 49.3812 73.6629C49.416 73.7325 49.4334 73.808 49.4334 73.8893ZM53.7618 77.2022C53.7618 77.0108 53.7328 76.8368 53.6805 76.6801C53.6283 76.5176 53.5471 76.3842 53.4426 76.2682C53.3382 76.1521 53.2163 76.0592 53.0655 75.9954C52.9204 75.9315 52.7464 75.9024 52.5607 75.9024C52.1662 75.9024 51.8529 76.0185 51.6208 76.2506C51.3887 76.4769 51.2495 76.7961 51.1914 77.2022H53.7618ZM54.429 79.4069C54.3304 79.5345 54.2085 79.639 54.0635 79.7318C53.9242 79.8247 53.7676 79.9002 53.6051 79.9582C53.4427 80.0162 53.2744 80.0567 53.1061 80.0857C52.9321 80.1205 52.758 80.1321 52.5897 80.1321C52.2648 80.1321 51.9631 80.0801 51.6904 79.9698C51.4177 79.8596 51.1798 79.6971 50.9768 79.4882C50.7795 79.2735 50.6229 79.0125 50.5126 78.6992C50.4024 78.3859 50.3444 78.026 50.3444 77.6198C50.3444 77.2949 50.3966 76.9876 50.4952 76.7033C50.5997 76.419 50.7447 76.1753 50.9304 75.9665C51.1218 75.7576 51.3481 75.5893 51.6208 75.4732C51.8935 75.3514 52.201 75.2933 52.5434 75.2933C52.8219 75.2933 53.0829 75.3397 53.3208 75.4384C53.5645 75.5312 53.7675 75.6648 53.9416 75.8446C54.1215 76.0187 54.2549 76.239 54.3593 76.5059C54.458 76.7612 54.5044 77.063 54.5044 77.3937C54.5044 77.5272 54.4928 77.614 54.4638 77.6547C54.4348 77.6953 54.3826 77.7187 54.3071 77.7187H51.1625C51.1741 78.0146 51.2147 78.2756 51.2843 78.4961C51.3597 78.7165 51.4584 78.8965 51.5918 79.0474C51.7195 79.1924 51.8761 79.3026 52.0559 79.378C52.2358 79.4476 52.4331 79.4825 52.6594 79.4825C52.8624 79.4825 53.0423 79.4593 53.1932 79.4128C53.344 79.3664 53.4716 79.3142 53.5819 79.2562C53.6921 79.1982 53.7792 79.1516 53.8488 79.1052C53.9242 79.053 53.988 79.0298 54.0403 79.0298C54.1099 79.0298 54.1621 79.053 54.1969 79.1052L54.429 79.4069ZM61.0433 77.2022C61.0433 77.0108 61.0143 76.8368 60.9563 76.6801C60.9041 76.5176 60.8287 76.3842 60.7242 76.2682C60.6198 76.1521 60.4921 76.0592 60.3471 75.9954C60.1962 75.9315 60.028 75.9024 59.8423 75.9024C59.442 75.9024 59.1287 76.0185 58.8966 76.2506C58.6703 76.4769 58.5253 76.7961 58.473 77.2022H61.0433ZM61.7106 79.4069C61.6061 79.5345 61.4843 79.639 61.345 79.7318C61.2 79.8247 61.0491 79.9002 60.8866 79.9582C60.7242 80.0162 60.5559 80.0567 60.3819 80.0857C60.2078 80.1205 60.0396 80.1321 59.8655 80.1321C59.5406 80.1321 59.2447 80.0801 58.9662 79.9698C58.6935 79.8596 58.4556 79.6971 58.2584 79.4882C58.0611 79.2735 57.9044 79.0125 57.7942 78.6992C57.6839 78.3859 57.6259 78.026 57.6259 77.6198C57.6259 77.2949 57.6781 76.9876 57.7767 76.7033C57.8754 76.419 58.0204 76.1753 58.2119 75.9665C58.3976 75.7576 58.6297 75.5893 58.9024 75.4732C59.1751 75.3514 59.4826 75.2933 59.8191 75.2933C60.1034 75.2933 60.3645 75.3397 60.6023 75.4384C60.8402 75.5312 61.0491 75.6648 61.2232 75.8446C61.3973 76.0187 61.5365 76.239 61.6351 76.5059C61.7338 76.7612 61.786 77.063 61.786 77.3937C61.786 77.5272 61.7686 77.614 61.7454 77.6547C61.7164 77.6953 61.6642 77.7187 61.5829 77.7187H58.444C58.4498 78.0146 58.4904 78.2756 58.5658 78.4961C58.6354 78.7165 58.7399 78.8965 58.8675 79.0474C59.001 79.1924 59.1519 79.3026 59.3317 79.378C59.5116 79.4476 59.7147 79.4825 59.9352 79.4825C60.144 79.4825 60.3239 79.4593 60.4689 79.4128C60.6256 79.3664 60.7532 79.3142 60.8635 79.2562C60.9679 79.1982 61.0607 79.1516 61.1303 79.1052C61.2058 79.053 61.2696 79.0298 61.3218 79.0298C61.3914 79.0298 61.4436 79.053 61.4785 79.1052L61.7106 79.4069ZM65.5399 76.1404C65.4993 76.21 65.4413 76.2449 65.3659 76.2449C65.3195 76.2449 65.2672 76.2273 65.2092 76.1925C65.1512 76.1577 65.0758 76.1229 64.9887 76.0823C64.9075 76.0359 64.8088 76.0013 64.687 75.9665C64.571 75.9258 64.4317 75.9084 64.2693 75.9084C64.13 75.9084 64.0082 75.9258 63.8979 75.9665C63.7819 76.0013 63.6891 76.0477 63.6078 76.1115C63.5324 76.1695 63.4685 76.2447 63.4279 76.326C63.3873 76.4072 63.3641 76.4942 63.3641 76.5928C63.3641 76.7147 63.399 76.8133 63.4686 76.8946C63.5382 76.9758 63.631 77.0456 63.7471 77.1036C63.8631 77.1617 63.9908 77.2139 64.1358 77.2603C64.2809 77.3009 64.4318 77.3531 64.5826 77.4054C64.7393 77.4518 64.8843 77.5098 65.0351 77.5736C65.1802 77.6317 65.3078 77.7128 65.4239 77.8057C65.5341 77.8985 65.6269 78.0086 65.6966 78.1479C65.7662 78.2813 65.801 78.438 65.801 78.6295C65.801 78.8442 65.7662 79.0473 65.6849 79.2329C65.6095 79.4128 65.4935 79.5752 65.3426 79.7086C65.1918 79.8421 65.0061 79.9467 64.7857 80.0279C64.5652 80.1033 64.3157 80.1438 64.0256 80.1438C63.6948 80.1438 63.399 80.0915 63.1321 79.9871C62.8652 79.8769 62.6447 79.7378 62.459 79.5695L62.6505 79.2562C62.6737 79.2156 62.7027 79.1865 62.7375 79.1632C62.7723 79.14 62.8187 79.1284 62.871 79.1284C62.9232 79.1284 62.9812 79.1517 63.045 79.1981C63.1089 79.2387 63.1843 79.2853 63.2713 79.3375C63.3584 79.3897 63.4686 79.4419 63.5962 79.4825C63.7181 79.5289 63.8806 79.5463 64.0662 79.5463C64.2287 79.5463 64.3679 79.5288 64.4898 79.4882C64.6116 79.4476 64.7102 79.3897 64.7915 79.3143C64.8727 79.2446 64.9307 79.1632 64.9655 79.0703C65.0061 78.9775 65.0293 78.879 65.0293 78.7746C65.0293 78.6411 64.9945 78.5368 64.9191 78.4556C64.8553 78.3685 64.7625 78.2929 64.6464 78.2349C64.5304 78.171 64.4027 78.1188 64.2519 78.0782C64.1068 78.0318 63.9559 77.9854 63.8051 77.9331C63.6484 77.8809 63.5034 77.8287 63.3525 77.7649C63.2075 77.701 63.0741 77.62 62.9638 77.5272C62.8478 77.4285 62.755 77.3123 62.6853 77.173C62.6157 77.028 62.5809 76.8599 62.5809 76.6569C62.5809 76.477 62.6215 76.3029 62.6911 76.1404C62.7666 75.9721 62.8768 75.8271 63.016 75.7053C63.1611 75.5776 63.3351 75.479 63.544 75.4035C63.7471 75.3281 63.985 75.2933 64.2519 75.2933C64.5594 75.2933 64.8379 75.3397 65.0816 75.4384C65.3311 75.537 65.5457 75.6704 65.7256 75.8387L65.5399 76.1404ZM73.0594 75.3687V80.0684H72.5662C72.4501 80.0684 72.3747 80.0105 72.3457 79.8945L72.2761 79.3896C72.073 79.6159 71.8467 79.8014 71.5915 79.9406C71.3362 80.0741 71.0461 80.1438 70.7212 80.1438C70.4601 80.1438 70.2337 80.1033 70.0365 80.0163C69.8392 79.9292 69.6768 79.8073 69.5433 79.6565C69.4099 79.4998 69.3112 79.314 69.2416 79.0936C69.1778 78.8731 69.143 78.6295 69.143 78.3626V75.3687H69.9727V78.3626C69.9727 78.7224 70.0539 78.9952 70.2106 79.1924C70.3788 79.3839 70.6283 79.4825 70.9591 79.4825C71.2027 79.4825 71.429 79.4245 71.6437 79.3143C71.8583 79.1924 72.0498 79.0356 72.2297 78.8267V75.3687H73.0594ZM75.1481 76.0475C75.2468 75.9314 75.357 75.8329 75.473 75.7401C75.589 75.6473 75.7051 75.5659 75.8327 75.5021C75.9662 75.4325 76.0997 75.3803 76.2447 75.3455C76.3898 75.3106 76.5464 75.2933 76.7088 75.2933C76.9699 75.2933 77.1962 75.3341 77.3877 75.4211C77.585 75.5081 77.7532 75.6241 77.8809 75.7866C78.0143 75.9374 78.113 76.1289 78.1826 76.3435C78.2522 76.564 78.287 76.8076 78.287 77.0745V80.0684H77.4515V77.0745C77.4515 76.7205 77.3703 76.4421 77.2078 76.2506C77.0453 76.0475 76.8017 75.9489 76.471 75.9489C76.2273 75.9489 75.9952 76.0127 75.7805 76.1288C75.5716 76.2448 75.3802 76.4072 75.2003 76.6045V80.0684H74.3649V75.3687H74.8638C74.9799 75.3687 75.0553 75.4209 75.0843 75.537L75.1481 76.0475ZM81.9191 80.0684V75.3687H82.4181C82.5341 75.3687 82.6038 75.4209 82.6328 75.537L82.6966 76.0186C82.8706 75.8097 83.0621 75.6299 83.2768 75.4965C83.4973 75.363 83.7467 75.2933 84.031 75.2933C84.3443 75.2933 84.5997 75.3805 84.7969 75.5545C84.9942 75.7344 85.1392 75.9721 85.2263 76.2738C85.2901 76.0998 85.3771 75.9549 85.4815 75.833C85.5918 75.7054 85.7136 75.6066 85.8471 75.5254C85.9805 75.4441 86.1197 75.3861 86.2706 75.3455C86.4215 75.3106 86.5723 75.2933 86.729 75.2933C86.9785 75.2933 87.1931 75.3339 87.3846 75.4151C87.5819 75.4906 87.7443 75.6065 87.8778 75.7574C88.017 75.9082 88.1215 76.094 88.1911 76.3203C88.2607 76.535 88.2956 76.7902 88.2956 77.0745V80.0684H87.4659V77.0745C87.4659 76.7089 87.3846 76.4305 87.2221 76.239C87.0655 76.0475 86.8334 75.9489 86.5259 75.9489C86.3925 75.9489 86.2648 75.9778 86.1372 76.0243C86.0153 76.0707 85.9109 76.1405 85.8181 76.2333C85.7253 76.3262 85.6498 76.4421 85.5976 76.5872C85.5454 76.7264 85.5164 76.8888 85.5164 77.0745V80.0684H84.6867V77.0745C84.6867 76.6973 84.6112 76.413 84.4604 76.2274C84.3095 76.0417 84.0833 75.9489 83.7932 75.9489C83.5901 75.9489 83.4044 76.0069 83.2303 76.1172C83.0563 76.2274 82.8938 76.3725 82.7488 76.5639V80.0684H81.9191ZM93.4942 75.3687L90.8717 81.4552C90.8426 81.519 90.8079 81.5653 90.7614 81.6059C90.7208 81.6407 90.657 81.6583 90.5699 81.6583H89.9608L90.8194 79.7956L88.8758 75.3687H89.5952C89.6649 75.3687 89.717 75.3863 89.7576 75.4211C89.804 75.4559 89.8331 75.4964 89.8505 75.537L91.1037 78.5017C91.156 78.6294 91.1966 78.7629 91.2314 78.908C91.272 78.7629 91.3184 78.6237 91.3706 78.4961L92.589 75.537C92.6122 75.4906 92.6413 75.45 92.6819 75.4151C92.7283 75.3861 92.7805 75.3687 92.8386 75.3687H93.4942ZM95.6641 80.1438C95.2928 80.1438 95.0085 80.0393 94.8055 79.8304C94.6082 79.6216 94.5095 79.3256 94.5095 78.9369V76.0591H93.941C93.8945 76.0591 93.8539 76.0418 93.8191 76.0186C93.7843 75.9838 93.7669 75.9372 93.7669 75.8792V75.5486L94.5385 75.45L94.73 73.9995C94.7358 73.9531 94.759 73.9123 94.788 73.8833C94.8228 73.8543 94.8634 73.8369 94.9157 73.8369H95.3335V75.4616H96.6969V76.0591H95.3335V78.8791C95.3335 79.0764 95.3857 79.2271 95.4785 79.3199C95.5772 79.4185 95.6989 79.465 95.8498 79.465C95.9368 79.465 96.0122 79.4533 96.0761 79.4301C96.1399 79.4069 96.1921 79.3838 96.2385 79.3548C96.285 79.3258 96.3255 79.3026 96.3546 79.2794C96.3894 79.2562 96.4184 79.2446 96.4474 79.2446C96.488 79.2446 96.5287 79.2677 96.5635 79.3199L96.8013 79.7146C96.6621 79.848 96.488 79.9523 96.2849 80.0336C96.0877 80.1032 95.8788 80.1438 95.6641 80.1438ZM98.3795 75.9954C98.5826 75.7807 98.803 75.6067 99.0467 75.4848C99.2904 75.3572 99.5748 75.2933 99.8939 75.2933C100.149 75.2933 100.375 75.3341 100.573 75.4211C100.77 75.5081 100.932 75.6241 101.06 75.7866C101.194 75.9374 101.298 76.1289 101.362 76.3435C101.431 76.564 101.466 76.8076 101.466 77.0745V80.0684H100.636V77.0745C100.636 76.7205 100.555 76.4421 100.387 76.2506C100.23 76.0475 99.9809 75.9489 99.6502 75.9489C99.4065 75.9489 99.1802 76.0127 98.9655 76.1288C98.7566 76.2448 98.5594 76.4072 98.3795 76.6045V80.0684H97.5498V73.2337H98.3795V75.9954ZM102.586 79.5579C102.586 79.4767 102.598 79.4012 102.627 79.3315C102.661 79.2619 102.696 79.1982 102.748 79.146C102.801 79.0937 102.865 79.053 102.934 79.0182C103.004 78.9892 103.079 78.9717 103.16 78.9717C103.242 78.9717 103.317 78.9892 103.387 79.0182C103.462 79.053 103.52 79.0937 103.572 79.146C103.625 79.1982 103.671 79.2619 103.7 79.3315C103.729 79.4012 103.746 79.4767 103.746 79.5579C103.746 79.6391 103.729 79.7203 103.7 79.7899C103.671 79.8595 103.625 79.9176 103.572 79.9698C103.52 80.022 103.462 80.0626 103.387 80.0916C103.317 80.1206 103.242 80.1381 103.16 80.1381C103.079 80.1381 103.004 80.1206 102.934 80.0916C102.865 80.0626 102.801 80.022 102.748 79.9698C102.696 79.9176 102.661 79.8595 102.627 79.7899C102.598 79.7203 102.586 79.6391 102.586 79.5579ZM104.501 72.9725C104.634 73.193 104.721 73.4252 104.768 73.6689C104.814 73.9126 104.82 74.1562 104.779 74.3941C104.744 74.632 104.663 74.8581 104.547 75.0786C104.431 75.2991 104.274 75.4907 104.077 75.6647L103.828 75.5021C103.781 75.4731 103.758 75.4383 103.764 75.3919C103.77 75.3455 103.787 75.3107 103.81 75.2817C103.891 75.1831 103.961 75.0671 104.013 74.9279C104.071 74.7828 104.112 74.6319 104.124 74.4695C104.147 74.307 104.135 74.1387 104.1 73.9646C104.071 73.7906 104.007 73.6224 103.915 73.4657C103.874 73.3961 103.862 73.3437 103.874 73.2915C103.891 73.2393 103.932 73.1988 103.99 73.1756L104.501 72.9725ZM105.911 72.9725C106.044 73.193 106.131 73.4252 106.177 73.6689C106.224 73.9126 106.23 74.1562 106.189 74.3941C106.154 74.632 106.079 74.8581 105.957 75.0786C105.841 75.2991 105.684 75.4907 105.493 75.6647L105.238 75.5021C105.191 75.4731 105.174 75.4383 105.174 75.3919C105.18 75.3455 105.197 75.3107 105.22 75.2817C105.301 75.1831 105.371 75.0671 105.423 74.9279C105.487 74.7828 105.522 74.6319 105.539 74.4695C105.557 74.307 105.545 74.1387 105.516 73.9646C105.481 73.7906 105.417 73.6224 105.325 73.4657C105.284 73.3961 105.272 73.3437 105.284 73.2915C105.307 73.2393 105.342 73.1988 105.4 73.1756L105.911 72.9725Z" fill="#484848"/>
</g>
<defs>
<filter id="filter0_d_2_1367" x="-24.0142" y="-18.0107" width="218.028" height="145.503" filterUnits="userSpaceOnUse" color-interpolation-filters="sRGB">
<feFlood flood-opacity="0" result="BackgroundImageFix"/>
<feColorMatrix in="SourceAlpha" type="matrix" values="0 0 0 0 0 0 0 0 0 0 0 0 0 0 0 0 0 0 127 0" result="hardAlpha"/>
<feOffset dy="6"/>
<feGaussianBlur stdDeviation="12"/>
<feComposite in2="hardAlpha" operator="out"/>
<feColorMatrix type="matrix" values="0 0 0 0 0.279167 0 0 0 0 0.279167 0 0 0 0 0.279167 0 0 0 0.08 0"/>
<feBlend mode="normal" in2="BackgroundImageFix" result="effect1_dropShadow_2_1367"/>
<feBlend mode="normal" in="SourceGraphic" in2="effect1_dropShadow_2_1367" result="shape"/>
</filter>
</defs>
</svg>
