<svg width="15" height="14" viewBox="0 0 15 14" fill="none" xmlns="http://www.w3.org/2000/svg">
<path d="M9.74299 0.376076V0H14.5839V0.376076H14.0693C13.5317 0.376076 13.1181 0.599267 12.8291 1.05164C12.6881 1.25726 12.617 1.74501 12.617 2.50287V8.04878C12.617 9.42351 12.4795 10.4868 12.204 11.2447C11.9349 12.0026 11.4003 12.6487 10.6001 13.1951C9.80644 13.7297 8.72428 14 7.35248 14C5.85966 14 4.72697 13.7416 3.95383 13.2246C3.1801 12.7076 2.63256 12.0083 2.30944 11.1389C2.09441 10.5396 1.98691 9.41765 1.98691 7.76679V2.42054C1.98691 1.58043 1.86941 1.02815 1.63382 0.769651C1.40529 0.505279 1.03223 0.376076 0.514649 0.376076H0V0H5.91018V0.376076H5.38556C4.82098 0.376076 4.41736 0.552416 4.17531 0.910787C4.00729 1.15166 3.92328 1.6568 3.92328 2.42054V8.38355C3.92328 8.91229 3.97028 9.5232 4.06428 10.2106C4.16533 10.8921 4.34334 11.427 4.5989 11.8147C4.85446 12.1966 5.22105 12.5137 5.69869 12.7605C6.18278 13.0072 6.77439 13.1305 7.4735 13.1305C8.36767 13.1305 9.16784 12.9368 9.87401 12.5491C10.5802 12.1613 11.0607 11.6619 11.3163 11.0568C11.5783 10.4458 11.7093 9.41182 11.7093 7.96071V2.42054C11.7093 1.56868 11.6153 1.03407 11.4273 0.816697C11.1647 0.52295 10.7746 0.376076 10.2571 0.376076H9.74299Z" fill="white"/>
</svg>
