<svg width="73" height="27" viewBox="0 0 73 27" fill="none" xmlns="http://www.w3.org/2000/svg">
<path d="M13.8298 1.47776V0.944321H20.7013V1.47776H19.9712C19.2077 1.47776 18.6207 1.79463 18.2102 2.43382C18.0103 2.73288 17.91 3.41899 17.91 4.49798V12.3732C17.91 14.3201 17.7141 15.8332 17.323 16.9122C16.9413 17.9794 16.1825 18.9001 15.0466 19.6741C13.9201 20.4364 12.3837 20.8174 10.4368 20.8174C8.31758 20.8174 6.70963 20.4481 5.61188 19.7151C4.51413 18.982 3.73658 17.9911 3.2786 16.7538C2.97308 15.9035 2.82001 14.3084 2.82001 11.9686V4.38058C2.82001 3.19018 2.65288 2.40439 2.31921 2.03496C1.99434 1.66552 1.46484 1.47776 0.730073 1.47776H0V0.944321H8.38911V1.47776H7.64498C6.84336 1.47776 6.27044 1.72993 5.92681 2.23424C5.68814 2.58022 5.56907 3.29573 5.56907 4.38058V12.8425C5.56907 13.599 5.63595 14.461 5.76965 15.4344C5.91273 16.4078 6.16548 17.1701 6.52846 17.7096C6.89086 18.2549 7.41101 18.7064 8.0889 19.0582C8.77616 19.4101 9.6159 19.5862 10.6087 19.5862C11.8777 19.5862 13.0135 19.3105 14.0157 18.7593C15.0179 18.2022 15.7004 17.4984 16.0628 16.6364C16.4352 15.7685 16.6211 14.3027 16.6211 12.2444V4.38058C16.6211 3.17259 16.488 2.41033 16.2206 2.10539C15.8482 1.68905 15.2946 1.47776 14.5599 1.47776H13.8298ZM25.7696 9.63476C27.306 7.78758 28.7715 6.86107 30.1648 6.86107C30.8808 6.86107 31.4965 7.04296 32.0119 7.40653C32.5268 7.75838 32.9373 8.34478 33.2428 9.16575C33.4527 9.73457 33.5577 10.614 33.5577 11.7986V17.3989C33.5577 18.2258 33.6246 18.7886 33.7582 19.0877C33.8632 19.3223 34.0303 19.5097 34.2596 19.6446C34.4977 19.7795 34.9322 19.8442 35.562 19.8442V20.3602H29.0769V19.8442H29.349C29.9595 19.8442 30.384 19.7563 30.6227 19.5745C30.8713 19.381 31.0432 19.1054 31.1382 18.7418C31.1763 18.6011 31.1957 18.1495 31.1957 17.3989V12.0273C31.1957 10.8369 31.0379 9.96911 30.723 9.43548C30.4175 8.89012 29.8973 8.62029 29.1626 8.62029C28.0267 8.62029 26.8961 9.24184 25.7696 10.4792V17.3989C25.7696 18.2844 25.8224 18.8355 25.9274 19.0407C26.0605 19.3222 26.2423 19.5273 26.471 19.6564C26.7096 19.7854 27.1869 19.8442 27.903 19.8442V20.3602H21.4173V19.8442H21.7035C22.372 19.8442 22.8206 19.6799 23.0493 19.3457C23.2879 18.9997 23.4076 18.3489 23.4076 17.3989V12.5316C23.4076 10.9541 23.3694 9.99263 23.2926 9.65251C23.2258 9.30653 23.1161 9.07186 22.9637 8.94871C22.8206 8.82557 22.6247 8.76117 22.3767 8.76117C22.1093 8.76117 21.7897 8.83718 21.4173 8.97792L21.2027 8.46195L25.1539 6.86107H25.7696V9.63476ZM39.9431 0C40.3442 0 40.6825 0.146739 40.9593 0.434078C41.2461 0.709689 41.3892 1.04979 41.3892 1.44855C41.3892 1.84731 41.2461 2.19315 40.9593 2.48049C40.6825 2.76783 40.3442 2.90884 39.9431 2.90884C39.542 2.90884 39.1983 2.76783 38.9122 2.48049C38.626 2.19315 38.4829 1.84731 38.4829 1.44855C38.4829 1.04979 38.6213 0.709689 38.8981 0.434078C39.1842 0.146739 39.5326 0 39.9431 0ZM41.1311 6.86107V17.3989C41.1311 18.2199 41.1886 18.7651 41.3029 19.0407C41.4273 19.3105 41.6038 19.5097 41.833 19.6446C42.0717 19.7795 42.501 19.8442 43.1214 19.8442V20.3602H36.7507V19.8442C37.3898 19.8442 37.8197 19.7854 38.039 19.6564C38.2583 19.5332 38.4301 19.3281 38.5544 19.0407C38.6881 18.7593 38.755 18.2082 38.755 17.3989V12.344C38.755 10.9191 38.7116 9.99843 38.626 9.58208C38.5591 9.27715 38.4542 9.06599 38.3111 8.94871C38.168 8.82557 37.9722 8.76117 37.7241 8.76117C37.4567 8.76117 37.1324 8.83718 36.7507 8.97792L36.5501 8.46195L40.5013 6.86107H41.1311ZM44.0948 7.24819H50.265V7.7759H49.8645C49.4921 7.7759 49.2059 7.86384 49.0054 8.04562C48.8148 8.22741 48.7192 8.4737 48.7192 8.77863C48.7192 9.11288 48.8195 9.50565 49.0195 9.96891L52.0694 17.2111L55.1328 9.69346C55.3527 9.15983 55.4623 8.75531 55.4623 8.4797C55.4623 8.34483 55.4242 8.23323 55.3474 8.14527C55.2424 8.00453 55.1093 7.91072 54.9469 7.8638C54.7844 7.80516 54.4555 7.7759 53.9588 7.7759V7.24819H58.2395V7.7759C57.7434 7.81695 57.3998 7.9165 57.2086 8.07483C56.875 8.36217 56.5741 8.83741 56.3067 9.50591L51.6542 20.759H51.0672L46.3853 9.69346C46.1754 9.17742 45.9749 8.81392 45.7843 8.59108C45.5931 8.36239 45.3497 8.17461 45.0542 8.02214C44.8918 7.93418 44.5721 7.85213 44.0948 7.7759V7.24819ZM58.6835 7.24819H64.7967V7.7759H64.4959C64.0667 7.7759 63.7418 7.86958 63.5225 8.06309C63.3125 8.24488 63.2076 8.47381 63.2076 8.74943C63.2076 9.11886 63.3647 9.63469 63.6796 10.2973L66.8726 16.9122L69.8076 9.66397C69.9694 9.27694 70.0509 8.89007 70.0509 8.50891C70.0509 8.33299 70.0175 8.20388 69.9507 8.12179C69.8744 8.01623 69.7548 7.93418 69.5924 7.87554C69.4305 7.81104 69.1444 7.7759 68.7339 7.7759V7.24819H73V7.7759C72.647 7.81695 72.3749 7.89326 72.1837 8.00468C71.9931 8.12196 71.7832 8.33284 71.5539 8.6495C71.4683 8.78437 71.3059 9.14816 71.0672 9.75216L65.7274 22.8349C65.2119 24.1074 64.534 25.0631 63.6943 25.714C62.8639 26.3649 62.0623 26.6875 61.2889 26.6875C60.7259 26.6875 60.2632 26.5233 59.9002 26.2007C59.5378 25.8782 59.3561 25.503 59.3561 25.0866C59.3561 24.682 59.4851 24.3594 59.7431 24.1131C60.0099 23.8727 60.3729 23.7555 60.8309 23.7555C61.1458 23.7555 61.5756 23.8609 62.1192 24.0661C62.5009 24.2127 62.7396 24.2832 62.8352 24.2832C63.1214 24.2832 63.4316 24.1367 63.7658 23.8377C64.1095 23.5445 64.4531 22.9697 64.7967 22.1194L65.7274 19.8442L61.0168 9.95144C60.8737 9.65824 60.645 9.28887 60.3301 8.84907C60.0914 8.51482 59.8956 8.29204 59.7431 8.17476C59.5232 8.02229 59.1702 7.89318 58.6835 7.7759V7.24819Z" fill="#0086FD"/>
</svg>
