<svg width="38" height="11" viewBox="0 0 38 11" fill="none" xmlns="http://www.w3.org/2000/svg">
<path d="M4.84407 0V2.80187H4.62332C4.55167 2.26014 4.42235 1.83494 4.23537 1.51456C4.05188 1.20001 3.78917 0.943823 3.44666 0.757422C3.10415 0.571022 2.74998 0.477833 2.38358 0.477833C1.96943 0.477833 1.62693 0.605927 1.35606 0.856402C1.0852 1.1127 0.950049 1.39812 0.950049 1.71849C0.950049 1.96314 1.03566 2.19041 1.20692 2.39429C1.4539 2.69136 2.04108 3.09317 2.969 3.5883C3.72567 3.99605 4.2412 4.3047 4.51556 4.52605C4.79458 4.74157 5.00775 4.99791 5.15512 5.28916C5.30599 5.58623 5.38174 5.89515 5.38174 6.21553C5.38174 6.82716 5.14289 7.35722 4.66524 7.80575C4.19108 8.24845 3.58003 8.46959 2.83152 8.46959C2.59677 8.46959 2.37542 8.45221 2.16863 8.41726C2.04514 8.39396 1.78826 8.32399 1.39798 8.20167C1.01178 8.07352 0.766558 8.00939 0.663456 8.00939C0.563848 8.00939 0.484061 8.03875 0.424646 8.097C0.368726 8.15525 0.326784 8.28319 0.298823 8.46959H0.078039V5.69105H0.298823C0.402509 6.27355 0.541737 6.71043 0.71707 7.00168C0.892403 7.2871 1.15917 7.52592 1.5174 7.71814C1.87972 7.90454 2.27583 8.00371 2.7063 8.00371C3.20376 8.00371 3.59579 7.86963 3.88296 7.6075C4.17363 7.34538 4.31867 7.03688 4.31867 6.67573C4.31867 6.47768 4.26275 6.27364 4.1515 6.07559C4.04373 5.87172 3.8748 5.6795 3.64355 5.50475C3.4886 5.38825 3.06453 5.13206 2.37135 4.74761C1.67876 4.35734 1.18482 4.04856 0.890071 3.81555C0.599403 3.58255 0.378634 3.33204 0.227184 3.05244C0.0757337 2.77284 0 2.46407 0 2.13205C0 1.54954 0.22309 1.04855 0.669286 0.629147C1.11548 0.209746 1.68284 0 2.37135 0C2.80182 0 3.25735 0.104873 3.73908 0.314573C3.96218 0.413599 4.11944 0.466172 4.21147 0.466172C4.31458 0.466172 4.39845 0.436956 4.46194 0.372881C4.52952 0.308805 4.58371 0.1864 4.62332 0H4.84407ZM11.2236 2.81353V6.12793C11.2236 6.76285 11.2376 7.1473 11.265 7.29293C11.297 7.43273 11.3448 7.52593 11.4083 7.58418C11.4764 7.64243 11.5539 7.66581 11.6413 7.66581C11.7648 7.66581 11.9046 7.63673 12.0595 7.56683L12.1434 7.77645L10.5066 8.45224H10.238V7.29293C9.76796 7.7997 9.40972 8.12031 9.16274 8.25428C8.91575 8.38243 8.65478 8.45224 8.38043 8.45224C8.07345 8.45224 7.80668 8.36475 7.58009 8.19C7.35699 8.00943 7.20147 7.78243 7.1141 7.50283C7.02672 7.22323 6.98244 6.82697 6.98244 6.3202V3.87386C6.98244 3.61756 6.95448 3.43675 6.89914 3.33772C6.84322 3.2387 6.75991 3.16318 6.64807 3.11075C6.54089 3.0525 6.34345 3.02927 6.05686 3.03509V2.81353H7.97384V6.4718C7.97384 6.9844 8.06181 7.31641 8.23715 7.47951C8.41598 7.63679 8.63092 7.71814 8.88197 7.71814C9.05323 7.71814 9.24662 7.66002 9.46156 7.55517C9.68058 7.44449 9.93921 7.24058 10.238 6.93768V3.83888C10.238 3.53015 10.1804 3.32041 10.0645 3.20973C9.95321 3.09906 9.71845 3.04092 9.35963 3.03509V2.81353H11.2236ZM12.1492 3.35536L13.8338 2.67387H14.0604V3.95521C14.3435 3.47173 14.626 3.13403 14.9085 2.9418C15.1951 2.74958 15.4963 2.65055 15.8108 2.65055C16.3601 2.65055 16.818 2.866 17.1844 3.29705C17.6341 3.8213 17.8595 4.50881 17.8595 5.35344C17.8595 6.29709 17.5886 7.07751 17.0469 7.68913C16.6013 8.19591 16.0397 8.45224 15.3629 8.45224C15.0681 8.45224 14.813 8.41134 14.5981 8.32397C14.439 8.26572 14.2596 8.14347 14.0604 7.96872V9.6346C14.0604 10.0074 14.0825 10.2463 14.1262 10.3454C14.174 10.4502 14.2538 10.5317 14.3651 10.59C14.4804 10.6482 14.6878 10.6773 14.9866 10.6773V10.8989H12.1195V10.6773H12.2687C12.4877 10.6831 12.6746 10.6424 12.8302 10.555C12.9059 10.5084 12.9636 10.4384 13.0032 10.3394C13.0469 10.2404 13.069 9.99571 13.069 9.59961V4.42707C13.069 4.07174 13.0533 3.84476 13.0212 3.75156C12.9892 3.65253 12.9373 3.58257 12.8657 3.53597C12.7981 3.48937 12.7049 3.466 12.5849 3.466C12.4894 3.466 12.3682 3.48938 12.2209 3.54763L12.1492 3.35536ZM14.0604 4.30477V6.34949C14.0604 6.79219 14.0785 7.0833 14.114 7.21727C14.1699 7.45027 14.3056 7.65432 14.5206 7.82907C14.7396 8.00382 15.014 8.09102 15.3448 8.09102C15.7427 8.09102 16.0654 7.93969 16.3123 7.62514C16.6351 7.21739 16.7958 6.64657 16.7958 5.91262C16.7958 5.07381 16.6129 4.43303 16.2465 3.9845C15.992 3.66995 15.6891 3.51833 15.339 3.51833C15.1474 3.51833 14.9586 3.56507 14.7711 3.65827C14.6278 3.73399 14.3913 3.94944 14.0604 4.30477ZM18.2655 3.35536L19.9501 2.67387H20.1767V3.95521C20.4598 3.47173 20.7423 3.13403 21.0248 2.9418C21.3114 2.74958 21.6126 2.65055 21.9271 2.65055C22.4764 2.65055 22.9342 2.866 23.3006 3.29705C23.7503 3.8213 23.9757 4.50881 23.9757 5.35344C23.9757 6.29709 23.7049 7.07751 23.1632 7.68913C22.7176 8.19591 22.156 8.45224 21.4791 8.45224C21.1844 8.45224 20.9293 8.41134 20.7143 8.32397C20.5553 8.26572 20.3759 8.14347 20.1767 7.96872V9.6346C20.1767 10.0074 20.1988 10.2463 20.2425 10.3454C20.2903 10.4502 20.3701 10.5317 20.4813 10.59C20.5967 10.6482 20.804 10.6773 21.1028 10.6773V10.8989H18.2358V10.6773H18.3849C18.6039 10.6831 18.7909 10.6424 18.9464 10.555C19.0222 10.5084 19.0798 10.4384 19.1194 10.3394C19.1631 10.2404 19.1852 9.99571 19.1852 9.59961V4.42707C19.1852 4.07174 19.1695 3.84476 19.1375 3.75156C19.1055 3.65253 19.0536 3.58257 18.982 3.53597C18.9144 3.48937 18.8212 3.466 18.7012 3.466C18.6057 3.466 18.4845 3.48938 18.3371 3.54763L18.2655 3.35536ZM20.1767 4.30477V6.34949C20.1767 6.79219 20.1947 7.0833 20.2303 7.21727C20.2862 7.45027 20.4219 7.65432 20.6368 7.82907C20.8559 8.00382 21.1302 8.09102 21.4611 8.09102C21.859 8.09102 22.1816 7.93969 22.4286 7.62514C22.7513 7.21739 22.9121 6.64657 22.9121 5.91262C22.9121 5.07381 22.7292 4.43303 22.3628 3.9845C22.1083 3.66995 21.8054 3.51833 21.4553 3.51833C21.2636 3.51833 21.0749 3.56507 20.8873 3.65827C20.744 3.73399 20.5075 3.94944 20.1767 4.30477ZM27.4516 2.65055C28.2799 2.65055 28.9451 2.96517 29.4466 3.59427C29.873 4.13017 30.0856 4.74744 30.0856 5.44645C30.0856 5.93575 29.9685 6.43104 29.7332 6.93199C29.4985 7.43295 29.174 7.8114 28.7598 8.0677C28.3498 8.324 27.8919 8.45224 27.3863 8.45224C26.5621 8.45224 25.9067 8.12025 25.4209 7.46785C25.0109 6.91447 24.8058 6.29108 24.8058 5.60373C24.8058 5.09696 24.9293 4.60193 25.1763 4.10681C25.4268 3.61168 25.7553 3.24477 26.1619 3.01177C26.5679 2.77295 26.9978 2.65055 27.4516 2.65055ZM27.2669 3.04078C27.0554 3.04078 26.8428 3.1049 26.6273 3.23305C26.4164 3.35538 26.2452 3.57097 26.1141 3.88552C25.9825 4.20007 25.9167 4.60759 25.9167 5.09689C25.9167 5.89491 26.0739 6.58229 26.3885 7.15896C26.7071 7.73564 27.1253 8.02703 27.6432 8.02703C28.0294 8.02703 28.348 7.86986 28.5985 7.54948C28.8496 7.2291 28.9748 6.68137 28.9748 5.90664C28.9748 4.93387 28.7657 4.17082 28.348 3.61162C28.0649 3.233 27.7049 3.04078 27.2669 3.04078ZM32.4931 2.65055V3.87955C32.9509 3.05822 33.421 2.65055 33.9027 2.65055C34.1217 2.65055 34.3029 2.72051 34.4462 2.85448C34.5895 2.98263 34.6611 3.13993 34.6611 3.31468C34.6611 3.47196 34.6093 3.59993 34.5056 3.7106C34.4025 3.81545 34.279 3.86789 34.1357 3.86789C33.9959 3.86789 33.8387 3.80376 33.6639 3.66396C33.4927 3.52416 33.3651 3.45434 33.2812 3.45434C33.2096 3.45434 33.1321 3.49509 33.0482 3.57664C32.8694 3.73974 32.6841 4.00762 32.4931 4.38042V7.00765C32.4931 7.31055 32.5309 7.53768 32.6067 7.68913C32.6579 7.79981 32.75 7.88731 32.881 7.96303C33.0127 8.03293 33.202 8.0677 33.4484 8.0677V8.28329H30.6471V8.0677C30.9262 8.0677 31.1329 8.02709 31.2687 7.93971C31.3683 7.87563 31.4376 7.77063 31.4778 7.63083C31.4976 7.56675 31.5075 7.36885 31.5075 7.0543V4.93391C31.5075 4.29316 31.4935 3.91442 31.4656 3.79792C31.4417 3.6756 31.3939 3.58242 31.3222 3.52999C31.2547 3.47174 31.1691 3.44267 31.0654 3.44267C30.9419 3.44267 30.8027 3.47772 30.6471 3.53597L30.5877 3.32037L32.242 2.65055H32.4931ZM36.5543 1.01369V2.81353H37.8329V3.23305H36.5543V6.7804C36.5543 7.1299 36.6044 7.36871 36.704 7.49686C36.8071 7.61919 36.9387 7.67747 37.0983 7.67747C37.2294 7.67747 37.357 7.64241 37.4805 7.56086C37.604 7.47931 37.6995 7.35705 37.7671 7.19395H38C37.8608 7.58422 37.6634 7.88131 37.4088 8.07936C37.1537 8.27741 36.891 8.37061 36.6201 8.37061C36.4372 8.37061 36.2578 8.32401 36.0824 8.22499C35.9077 8.12014 35.7778 7.97451 35.6945 7.78811C35.6106 7.59589 35.5693 7.30477 35.5693 6.90867V3.23305H34.7031V3.03509C34.9221 2.94772 35.1446 2.79612 35.3718 2.59224C35.6031 2.38254 35.8081 2.13219 35.9869 1.84677C36.079 1.69532 36.206 1.41561 36.3696 1.01369H36.5543Z" fill="white"/>
</svg>
