<svg width="201" height="36" viewBox="0 0 201 36" fill="none" xmlns="http://www.w3.org/2000/svg">
<path d="M21.3088 1.25276L21.5936 7.28489H20.8726C20.7334 6.22348 20.5438 5.46372 20.3031 5.01132C19.911 4.27471 19.3861 3.73529 18.7283 3.39889C18.0834 3.03929 17.229 2.86519 16.1665 2.86519H12.5426V22.5216C12.5426 24.105 12.7131 25.091 13.0547 25.4854C13.5356 26.0132 14.2756 26.28 15.275 26.28H16.1665V26.9818H5.256V26.28H6.16719C7.2547 26.28 8.02668 25.9495 8.48199 25.2941C8.76039 24.8881 8.89959 23.9658 8.89959 22.5216V2.86519H5.80643C4.60466 2.86519 3.75089 2.95217 3.24513 3.13197C2.58682 3.36977 2.02421 3.83385 1.55615 4.51826C1.08809 5.19686 0.809688 6.12488 0.720948 7.28489H0L0.303924 1.25276H21.3088ZM29.5628 9.08863C32.1943 9.08863 34.3067 10.0863 35.9005 12.0873C37.2537 13.7926 37.9306 15.7529 37.9306 17.9685C37.9306 19.5229 37.5576 21.1006 36.8111 22.6957C36.0647 24.2849 35.034 25.4912 33.7186 26.2975C32.4153 27.1095 30.9606 27.5154 29.354 27.5154C26.7359 27.5154 24.6548 26.4714 23.1114 24.3834C21.8087 22.626 21.1568 20.6482 21.1568 18.4616C21.1568 16.8666 21.5489 15.2889 22.3337 13.7171C23.1306 12.1394 24.174 10.9738 25.4645 10.2256C26.7545 9.46575 28.1209 9.08863 29.5628 9.08863ZM28.9747 10.3241C28.3042 10.3241 27.6274 10.5271 26.9441 10.9273C26.2736 11.3217 25.7302 12.0177 25.3126 13.0153C24.895 14.0129 24.6861 15.3006 24.6861 16.8666C24.6861 19.3954 25.1861 21.582 26.1855 23.4149C27.1976 25.2477 28.5258 26.1641 30.1701 26.1641C31.3968 26.1641 32.4089 25.6594 33.2058 24.6502C34.0028 23.6352 34.4012 21.8952 34.4012 19.4302C34.4012 16.3445 33.7371 13.9143 32.4089 12.1453C31.5111 10.9273 30.3661 10.3241 28.9747 10.3241ZM39.2402 11.3275L44.5907 9.1641H45.3117V13.2241C46.2101 11.6929 47.108 10.6257 48.0064 10.0167C48.917 9.39609 49.8723 9.08863 50.8716 9.08863C52.6174 9.08863 54.0721 9.77305 55.2356 11.1361C56.6653 12.8065 57.3798 14.9815 57.3798 17.6669C57.3798 20.6655 56.5197 23.1422 54.7994 25.1026C53.3825 26.7092 51.5989 27.5154 49.4483 27.5154C48.5122 27.5154 47.7025 27.382 47.0198 27.1152C46.5135 26.9238 45.9445 26.5468 45.3117 25.9784V31.268C45.3117 32.457 45.3813 33.2111 45.5205 33.5301C45.6725 33.8549 45.9253 34.1158 46.2797 34.3072C46.6463 34.4986 47.304 34.5916 48.2529 34.5916V35.2933H39.1451V34.5916H39.6195C40.315 34.6031 40.91 34.4696 41.403 34.1912C41.6432 34.052 41.827 33.8259 41.9535 33.5069C42.0927 33.2053 42.1623 32.4222 42.1623 31.1578V14.7264C42.1623 13.6012 42.1112 12.8819 42.0103 12.5803C41.9094 12.2787 41.7447 12.0467 41.5167 11.8959C41.3021 11.7451 41.0046 11.6698 40.6253 11.6698C40.3213 11.6698 39.9356 11.7567 39.4676 11.9365L39.2402 11.3275ZM45.3117 14.3435V20.8337C45.3117 22.2373 45.3691 23.1596 45.4828 23.6062C45.6597 24.337 46.0901 24.9808 46.7727 25.5376C47.4687 26.0944 48.3416 26.3728 49.3914 26.3728C50.6564 26.3728 51.6813 25.8798 52.4655 24.8937C53.4898 23.6061 54.0025 21.7908 54.0025 19.4476C54.0025 16.7911 53.4207 14.7495 52.2567 13.3227C51.447 12.3309 50.4859 11.8378 49.3723 11.8378C48.765 11.8378 48.1642 11.9945 47.5696 12.2961C47.1143 12.5223 46.3621 13.2067 45.3117 14.3435ZM86.2403 0.661284V9.56427H85.5385C85.3105 7.85326 84.8993 6.49602 84.3048 5.48101C83.7231 4.47181 82.8884 3.66566 81.8003 3.07405C80.7123 2.47665 79.5865 2.18082 78.423 2.18082C77.1075 2.18082 76.0194 2.58688 75.1593 3.39889C74.2991 4.1935 73.8688 5.10408 73.8688 6.13069C73.8688 6.91369 74.1408 7.62707 74.6849 8.27087C75.469 9.22208 77.3349 10.4865 80.2825 12.0699C82.686 13.3575 84.324 14.3493 85.1969 15.0453C86.0825 15.7297 86.7588 16.5418 87.2269 17.4756C87.7077 18.4094 87.9484 19.3895 87.9484 20.4161C87.9484 22.3649 87.1892 24.0469 85.6713 25.4621C84.1656 26.8658 82.2243 27.5676 79.8457 27.5676C79.0999 27.5676 78.3975 27.5154 77.7397 27.3994C77.3477 27.3356 76.5316 27.1094 75.2921 26.715C74.0648 26.309 73.287 26.1118 72.9582 26.1118C72.6421 26.1118 72.3886 26.2046 72.199 26.396C72.0221 26.5816 71.8892 26.976 71.8005 27.5676H71.0987V18.7458H71.8005C72.1294 20.596 72.5725 21.9764 73.1287 22.9044C73.6855 23.815 74.5329 24.5747 75.6714 25.1779C76.8227 25.787 78.0814 26.0886 79.4473 26.0886C81.0289 26.0886 82.2748 25.671 83.1854 24.8358C84.1088 24.0006 84.5704 23.0146 84.5704 21.8778C84.5704 21.2455 84.3935 20.6075 84.0392 19.9637C83.6975 19.3141 83.1605 18.7168 82.4268 18.16C81.9332 17.7772 80.5858 16.9767 78.3847 15.7471C76.1836 14.5117 74.6153 13.5199 73.6791 12.7891C72.7558 12.0525 72.0534 11.2464 71.5731 10.3589C71.0923 9.47734 70.8522 8.50291 70.8522 7.4357C70.8522 5.59128 71.5604 4.00209 72.9773 2.67388C74.3937 1.33407 76.1963 0.661284 78.3847 0.661284C79.7512 0.661284 81.1995 0.997681 82.7301 1.67049C83.4383 1.98369 83.9382 2.14599 84.2294 2.14599C84.5583 2.14599 84.8239 2.04739 85.0263 1.86179C85.2409 1.65879 85.412 1.25869 85.5385 0.661284H86.2403ZM96.3161 3.89181V9.5991H100.377V10.9273H96.3161V22.2026C96.3161 23.3278 96.4739 24.0876 96.7906 24.4762C97.1194 24.8706 97.537 25.0678 98.0428 25.0678C98.4604 25.0678 98.8652 24.9402 99.2573 24.685C99.6494 24.4182 99.9528 24.0354 100.168 23.5308H100.908C100.465 24.7662 99.8391 25.7058 99.0294 26.338C98.2197 26.9586 97.3851 27.266 96.5249 27.266C95.9426 27.266 95.3736 27.1094 94.8168 26.7904C94.2606 26.4656 93.8494 26.0016 93.5837 25.4042C93.3181 24.801 93.1853 23.8672 93.1853 22.6202V10.9273H90.4337V10.3009C91.1297 10.0225 91.8379 9.55853 92.5589 8.89732C93.2926 8.23032 93.9445 7.43566 94.5135 6.52505C94.8046 6.04365 95.2095 5.16782 95.728 3.89181H96.3161ZM117.321 9.5991V20.1319C117.321 22.1445 117.366 23.3742 117.454 23.8324C117.555 24.2732 117.707 24.5864 117.909 24.7604C118.124 24.9402 118.371 25.0271 118.649 25.0271C119.041 25.0271 119.484 24.917 119.977 24.7024L120.243 25.3694L115.044 27.5154H114.19V23.8324C112.698 25.4506 111.559 26.4715 110.775 26.8891C109.99 27.3067 109.162 27.5154 108.289 27.5154C107.315 27.5154 106.467 27.237 105.746 26.6802C105.038 26.1118 104.545 25.381 104.266 24.4936C103.988 23.612 103.849 22.3592 103.849 20.741V12.9806C103.849 12.157 103.76 11.5885 103.584 11.2694C103.406 10.9562 103.14 10.7126 102.787 10.5502C102.445 10.3704 101.819 10.2893 100.908 10.3009V9.5991H106.999V21.234C106.999 22.8522 107.277 23.9136 107.834 24.4182C108.403 24.9287 109.086 25.1779 109.883 25.1779C110.427 25.1779 111.041 25.0098 111.723 24.6676C112.419 24.3254 113.242 23.6757 114.19 22.7129V12.8645C114.19 11.8785 114.007 11.2115 113.64 10.8751C113.286 10.5155 112.539 10.3299 111.401 10.3009V9.5991H117.321ZM133.791 25.0271C132.943 25.9145 132.115 26.5526 131.305 26.9412C130.496 27.324 129.623 27.5154 128.687 27.5154C126.79 27.5154 125.132 26.7209 123.716 25.1433C122.299 23.5482 121.59 21.5066 121.59 19.0126C121.59 16.5185 122.375 14.2449 123.943 12.1801C125.512 10.1095 127.53 9.07135 129.996 9.07135C131.527 9.07135 132.792 9.55842 133.791 10.5328V7.32553C133.791 5.33612 133.74 4.11807 133.639 3.65986C133.551 3.20746 133.405 2.8942 133.203 2.7318C133.001 2.5694 132.747 2.48824 132.444 2.48824C132.115 2.48824 131.678 2.58685 131.135 2.78986L130.888 2.12277L136.068 0H136.922V20.0914C136.922 22.1331 136.966 23.3742 137.055 23.8324C137.156 24.2732 137.308 24.5864 137.51 24.7604C137.726 24.9402 137.972 25.0271 138.25 25.0271C138.592 25.0271 139.047 24.917 139.616 24.7024L139.825 25.3694L134.664 27.5154H133.791V25.0271ZM133.791 23.699V14.7437C133.715 13.8853 133.487 13.0966 133.108 12.389C132.729 11.6814 132.222 11.1477 131.59 10.7939C130.97 10.4285 130.363 10.2486 129.768 10.2486C128.655 10.2486 127.662 10.7475 126.79 11.7451C125.638 13.0617 125.063 14.9815 125.063 17.5161C125.063 20.0681 125.619 22.0286 126.733 23.3974C127.846 24.7488 129.085 25.4274 130.452 25.4274C131.603 25.4274 132.716 24.8533 133.791 23.699ZM143.867 16.1474C143.854 18.7284 144.48 20.7526 145.745 22.22C147.01 23.6874 148.497 24.4182 150.204 24.4182C151.343 24.4182 152.329 24.1108 153.165 23.4902C154.012 22.858 154.72 21.7849 155.29 20.2653L155.878 20.6424C155.612 22.3766 154.84 23.96 153.563 25.3868C152.285 26.802 150.685 27.5154 148.762 27.5154C146.675 27.5154 144.885 26.7034 143.392 25.0852C141.913 23.4554 141.173 21.2629 141.173 18.5195C141.173 15.5441 141.931 13.2299 143.45 11.5769C144.98 9.90645 146.897 9.07135 149.199 9.07135C151.147 9.07135 152.747 9.71506 153.999 11.0027C155.252 12.2845 155.878 13.9956 155.878 16.1474H143.867ZM143.867 15.0453H151.912C151.849 13.9317 151.716 13.1488 151.513 12.6964C151.197 11.983 150.723 11.4261 150.091 11.0259C149.471 10.6199 148.819 10.4169 148.136 10.4169C147.086 10.4169 146.144 10.8287 145.309 11.6523C144.487 12.4585 144.006 13.5895 143.867 15.0453ZM163.278 12.7717C165.315 10.3183 167.256 9.08863 169.103 9.08863C170.052 9.08863 170.868 9.32642 171.551 9.80783C172.234 10.2776 172.778 11.0549 173.183 12.1453C173.461 12.9051 173.6 14.0651 173.6 15.6369V23.0552C173.6 24.1572 173.689 24.8997 173.866 25.2941C174.005 25.6073 174.226 25.8567 174.53 26.0307C174.846 26.2105 175.422 26.2975 176.257 26.2975V26.9818H167.661V26.2975H168.021C168.831 26.2975 169.394 26.1814 169.71 25.9378C170.039 25.6826 170.267 25.3172 170.394 24.8358C170.444 24.6502 170.469 24.0528 170.469 23.0552V15.9385C170.469 14.3551 170.261 13.2125 169.843 12.5049C169.438 11.7857 168.749 11.4203 167.775 11.4203C166.27 11.4203 164.771 12.2439 163.278 13.8911V23.0552C163.278 24.2326 163.348 24.9576 163.486 25.236C163.664 25.6014 163.904 25.874 164.208 26.0538C164.524 26.2162 165.156 26.2975 166.105 26.2975V26.9818H157.509V26.2975H157.889C158.774 26.2975 159.369 26.077 159.673 25.6362C159.989 25.178 160.147 24.3196 160.147 23.0552V16.5998C160.147 14.5176 160.096 13.2415 159.995 12.7891C159.907 12.3309 159.761 12.0235 159.559 11.8611C159.369 11.6929 159.11 11.6117 158.781 11.6117C158.426 11.6117 158.003 11.7045 157.509 11.8959L157.225 11.2115L162.462 9.08863H163.278V12.7717ZM182.689 3.89181V9.5991H186.75V10.9273H182.689V22.2026C182.689 23.3278 182.847 24.0876 183.164 24.4762C183.493 24.8706 183.91 25.0678 184.416 25.0678C184.833 25.0678 185.238 24.9402 185.63 24.685C186.023 24.4182 186.326 24.0354 186.541 23.5308H187.281C186.838 24.7662 186.212 25.7058 185.402 26.338C184.593 26.9586 183.758 27.266 182.898 27.266C182.316 27.266 181.747 27.1094 181.19 26.7904C180.634 26.4656 180.222 26.0016 179.957 25.4042C179.691 24.801 179.558 23.8672 179.558 22.6202V10.9273H176.807V10.3009C177.503 10.0225 178.211 9.55853 178.932 8.89732C179.666 8.23032 180.317 7.43566 180.887 6.52505C181.178 6.04365 181.582 5.16782 182.101 3.89181H182.689ZM199.69 9.08863V15.0106H199.064C198.584 13.1488 197.964 11.8843 197.205 11.2115C196.459 10.5445 195.503 10.2081 194.34 10.2081C193.454 10.2081 192.74 10.4401 192.196 10.9099C191.651 11.3797 191.379 11.8959 191.379 12.4643C191.379 13.1719 191.582 13.781 191.987 14.2856C192.379 14.8076 193.176 15.3585 194.377 15.9385L197.148 17.2842C199.716 18.537 201 20.19 201 22.2374C201 23.8208 200.399 25.0968 199.197 26.0712C198.008 27.034 196.674 27.5154 195.194 27.5154C194.131 27.5154 192.916 27.324 191.551 26.9412C191.133 26.8194 190.791 26.7557 190.526 26.7557C190.235 26.7557 190.007 26.918 189.842 27.2486H189.217V21.0426H189.842C190.197 22.8116 190.874 24.1455 191.873 25.0446C192.872 25.9436 193.992 26.396 195.231 26.396C196.104 26.396 196.813 26.1408 197.356 25.6362C197.913 25.1142 198.192 24.4936 198.192 23.7744C198.192 22.9044 197.882 22.1677 197.262 21.5761C196.655 20.9787 195.434 20.2248 193.6 19.3142C191.765 18.4036 190.563 17.5858 189.994 16.8492C189.425 16.13 189.141 15.2194 189.141 14.1174C189.141 12.6848 189.628 11.4898 190.602 10.5328C191.588 9.57002 192.86 9.08863 194.416 9.08863C195.098 9.08863 195.927 9.23363 196.901 9.52363C197.547 9.71503 197.976 9.80783 198.192 9.80783C198.394 9.80783 198.552 9.76724 198.666 9.67444C198.78 9.58744 198.913 9.39023 199.064 9.08863H199.69Z" fill="white"/>
</svg>
