<svg width="170" height="98" viewBox="0 0 170 98" fill="none" xmlns="http://www.w3.org/2000/svg">
<g filter="url(#filter0_d_2_1425)">
<path d="M170 0H0V97.4744H170V0Z" fill="white"/>
<path d="M18.7707 18.2592V22.5121H21.1345C21.7478 22.5121 22.1574 22.4193 22.3639 22.2336C22.6389 21.9899 22.7921 21.5606 22.824 20.9514H23.1176V24.6937H22.824C22.7498 24.1715 22.6761 23.835 22.6018 23.6841C22.5067 23.5043 22.3506 23.3534 22.1336 23.249C21.9172 23.1446 21.5841 23.0923 21.1345 23.0923H18.7707V26.6373C18.7707 27.1131 18.7916 27.4032 18.834 27.5076C18.8763 27.612 18.95 27.6934 19.0562 27.7572C19.1618 27.8152 19.3625 27.8442 19.659 27.8442H21.4832C22.0918 27.8442 22.5334 27.8036 22.8084 27.7165C23.0834 27.6295 23.3474 27.467 23.6015 27.2175C23.9293 26.8868 24.2653 26.3937 24.6087 25.7323H24.9261L23.9978 28.4302H15.7084V28.1343H16.089C16.3431 28.1343 16.5839 28.0762 16.8114 27.9544C16.9802 27.8673 17.0939 27.7455 17.152 27.5715C17.2158 27.4032 17.2477 27.0551 17.2477 26.5329V19.5472C17.2477 18.8626 17.1786 18.4449 17.0411 18.2824C16.8508 18.0735 16.5335 17.9691 16.089 17.9691H15.7084V17.6732H23.9978L24.1167 20.0288H23.8075C23.6967 19.466 23.5725 19.0773 23.435 18.8626C23.3027 18.6537 23.1043 18.4912 22.8397 18.381C22.6285 18.2998 22.2554 18.2592 21.7216 18.2592H18.7707ZM27.9327 22.4889C28.7839 21.4619 29.5956 20.9514 30.3679 20.9514C30.7641 20.9514 31.1053 21.0499 31.3913 21.253C31.6768 21.4444 31.9042 21.7695 32.0731 22.2278C32.1897 22.5469 32.2477 23.0285 32.2477 23.6841V26.7882C32.2477 27.2465 32.2849 27.5599 32.3585 27.7223C32.4171 27.8558 32.5094 27.9603 32.6365 28.0357C32.7687 28.1053 33.0095 28.1459 33.3582 28.1459V28.4302H29.765V28.1459H29.9159C30.2541 28.1459 30.4891 28.0937 30.6214 27.995C30.7589 27.8906 30.8541 27.7339 30.9075 27.5366C30.9283 27.4554 30.9388 27.2059 30.9388 26.7882V23.8118C30.9388 23.1503 30.8517 22.6746 30.6771 22.3787C30.5077 22.077 30.2199 21.9261 29.8126 21.9261C29.1831 21.9261 28.5565 22.2684 27.9327 22.9589V26.7882C27.9327 27.2813 27.9617 27.5831 28.0198 27.6991C28.094 27.8558 28.1944 27.9661 28.3209 28.0415C28.4532 28.1111 28.7178 28.1459 29.1146 28.1459V28.4302H25.5208V28.1459H25.6798C26.05 28.1459 26.2983 28.0531 26.4254 27.8674C26.5577 27.6759 26.6238 27.3161 26.6238 26.7882V24.0903C26.6238 23.2199 26.6023 22.6862 26.56 22.4947C26.5234 22.309 26.4625 22.1756 26.3778 22.106C26.2983 22.0422 26.1898 22.0073 26.0523 22.0073C25.9043 22.0073 25.7274 22.0421 25.5208 22.1233L25.4019 21.839L27.5916 20.9514H27.9327V22.4889ZM35.881 25.7786C35.4365 25.5639 35.0954 25.2622 34.8575 24.8793C34.6196 24.4847 34.5007 24.0554 34.5007 23.5854C34.5007 22.866 34.7704 22.2452 35.3095 21.7288C35.8543 21.2066 36.5499 20.9514 37.3959 20.9514C38.0886 20.9514 38.6892 21.1196 39.1968 21.4561H40.7355C40.963 21.4561 41.0953 21.4677 41.1324 21.4793C41.169 21.4909 41.1956 21.5141 41.2113 21.5431C41.2432 21.5895 41.2589 21.6766 41.2589 21.7985C41.2589 21.9377 41.2461 22.0306 41.2194 22.0828C41.2038 22.1118 41.1742 22.1291 41.1324 22.1465C41.0953 22.1639 40.963 22.1697 40.7355 22.1697H39.7915C40.0874 22.5527 40.236 23.0401 40.236 23.6319C40.236 24.3107 39.9766 24.8851 39.4585 25.3667C38.9404 25.8482 38.2447 26.0919 37.3721 26.0919C37.0124 26.0919 36.6451 26.0397 36.2697 25.9295C36.037 26.1325 35.8781 26.3125 35.7934 26.4633C35.7144 26.6084 35.6744 26.736 35.6744 26.8462C35.6744 26.9333 35.7168 27.0203 35.8015 27.1073C35.8914 27.1885 36.0631 27.2524 36.3173 27.2872C36.4652 27.3104 36.8354 27.3277 37.4278 27.3451C38.5168 27.3683 39.2229 27.4091 39.5455 27.4555C40.0376 27.5251 40.4286 27.7049 40.7199 28.0008C41.0158 28.2967 41.1637 28.6622 41.1637 29.0974C41.1637 29.695 40.8835 30.252 40.323 30.78C39.498 31.5517 38.4217 31.9346 37.0948 31.9346C36.0736 31.9346 35.212 31.7084 34.5088 31.2442C34.1119 30.9831 33.9135 30.7045 33.9135 30.4202C33.9135 30.2926 33.9425 30.165 34.0011 30.0432C34.091 29.8459 34.2761 29.5732 34.5564 29.2251C34.5929 29.1787 34.8627 28.8885 35.3652 28.3663C35.0901 28.2038 34.8946 28.0588 34.778 27.9311C34.6672 27.7977 34.6115 27.6528 34.6115 27.4845C34.6115 27.2988 34.6857 27.0841 34.8337 26.8346C34.9869 26.5851 35.3361 26.237 35.881 25.7786ZM37.2613 21.3285C36.8696 21.3285 36.5418 21.4852 36.2772 21.7985C36.0132 22.1118 35.881 22.5875 35.881 23.2316C35.881 24.0729 36.0608 24.7168 36.42 25.1752C36.695 25.5291 37.0443 25.7032 37.4672 25.7032C37.8693 25.7032 38.2 25.5524 38.4588 25.2507C38.7182 24.949 38.8476 24.4732 38.8476 23.8292C38.8476 22.9879 38.6654 22.3322 38.3004 21.8564C38.0306 21.5025 37.6842 21.3285 37.2613 21.3285ZM35.8015 28.4302C35.5532 28.6971 35.3652 28.9524 35.2381 29.1845C35.1116 29.4166 35.0478 29.6312 35.0478 29.8284C35.0478 30.0779 35.2015 30.3043 35.5079 30.4899C36.037 30.8206 36.8012 30.983 37.8003 30.983C38.7524 30.983 39.4533 30.8148 39.9024 30.4783C40.3572 30.1418 40.5847 29.7878 40.5847 29.4049C40.5847 29.1322 40.4501 28.9349 40.1803 28.8189C39.9053 28.7028 39.3605 28.6333 38.5464 28.6101C37.3564 28.5811 36.4414 28.5172 35.8015 28.4302ZM43.9087 17.151C44.1309 17.151 44.3183 17.2322 44.4715 17.3889C44.6305 17.5397 44.7099 17.7312 44.7099 17.9516C44.7099 18.1721 44.6305 18.3636 44.4715 18.5202C44.3183 18.6827 44.1309 18.7582 43.9087 18.7582C43.6865 18.7582 43.4961 18.6827 43.3372 18.5202C43.1788 18.3636 43.0993 18.1721 43.0993 17.9516C43.0993 17.7312 43.1759 17.5397 43.3296 17.3889C43.488 17.2322 43.6812 17.151 43.9087 17.151ZM44.5666 20.9514V26.7882C44.5666 27.2407 44.5985 27.5483 44.6624 27.6991C44.7308 27.85 44.8289 27.9603 44.9554 28.0357C45.0877 28.1053 45.3255 28.1459 45.6696 28.1459V28.4302H42.1396V28.1459C42.4941 28.1459 42.732 28.1111 42.8533 28.0415C42.9751 27.9719 43.0703 27.8616 43.1393 27.6991C43.213 27.5425 43.2501 27.2349 43.2501 26.7882V23.9859C43.2501 23.2026 43.2264 22.6919 43.1788 22.4598C43.1416 22.2858 43.0836 22.1698 43.0041 22.106C42.9247 22.0422 42.8167 22.0073 42.6792 22.0073C42.5307 22.0073 42.3508 22.0421 42.1396 22.1233L42.0288 21.839L44.2179 20.9514H44.5666ZM48.7 22.4889C49.5512 21.4619 50.3629 20.9514 51.1351 20.9514C51.5314 20.9514 51.8726 21.0499 52.158 21.253C52.4441 21.4444 52.6715 21.7695 52.8404 22.2278C52.957 22.5469 53.015 23.0285 53.015 23.6841V26.7882C53.015 27.2465 53.0521 27.5599 53.1258 27.7223C53.1844 27.8558 53.2767 27.9603 53.4037 28.0357C53.536 28.1053 53.7768 28.1459 54.1255 28.1459V28.4302H50.5323V28.1459H50.6832C51.0214 28.1459 51.2564 28.0937 51.3887 27.995C51.5262 27.8906 51.6213 27.7339 51.6741 27.5366C51.6956 27.4554 51.7061 27.2059 51.7061 26.7882V23.8118C51.7061 23.1503 51.619 22.6746 51.4444 22.3787C51.275 22.077 50.9872 21.9261 50.5799 21.9261C49.9503 21.9261 49.3237 22.2684 48.7 22.9589V26.7882C48.7 27.2813 48.729 27.5831 48.787 27.6991C48.8613 27.8558 48.9617 27.9661 49.0882 28.0415C49.2205 28.1111 49.485 28.1459 49.8819 28.1459V28.4302H46.2881V28.1459H46.4471C46.8172 28.1459 47.0656 28.0531 47.1926 27.8674C47.3249 27.6759 47.3911 27.3161 47.3911 26.7882V24.0903C47.3911 23.2199 47.3696 22.6862 47.3273 22.4947C47.2907 22.309 47.2298 22.1756 47.1451 22.106C47.0656 22.0422 46.9571 22.0073 46.8196 22.0073C46.6716 22.0073 46.4947 22.0421 46.2881 22.1233L46.1692 21.839L48.3589 20.9514H48.7V22.4889ZM55.9265 23.8987C55.9212 24.9779 56.1829 25.8251 56.7115 26.4401C57.2406 27.0551 57.862 27.3567 58.5757 27.3567C59.0514 27.3567 59.464 27.2291 59.8133 26.968C60.1678 26.707 60.4637 26.2544 60.7015 25.6219L60.9476 25.7786C60.8367 26.5039 60.5141 27.1654 59.9798 27.763C59.4454 28.3548 58.7764 28.6506 57.9728 28.6506C57.1002 28.6506 56.3517 28.3141 55.728 27.6352C55.109 26.9564 54.7997 26.0397 54.7997 24.8909C54.7997 23.6492 55.1171 22.6803 55.7518 21.9898C56.3918 21.2936 57.193 20.9398 58.155 20.9398C58.9696 20.9398 59.6386 21.2124 60.162 21.752C60.6859 22.2858 60.9476 22.9994 60.9476 23.8987H55.9265ZM55.9265 23.4404H59.2899C59.2632 22.9762 59.2075 22.6455 59.1228 22.4598C58.9911 22.1581 58.7927 21.9261 58.5281 21.7578C58.2687 21.5896 57.9966 21.5026 57.7112 21.5026C57.272 21.5026 56.878 21.6766 56.5293 22.0189C56.1852 22.3612 55.9845 22.8311 55.9265 23.4404ZM63.1448 23.8987C63.1396 24.9779 63.4012 25.8251 63.9304 26.4401C64.459 27.0551 65.0804 27.3567 65.794 27.3567C66.2703 27.3567 66.6829 27.2291 67.0316 26.968C67.3861 26.707 67.682 26.2544 67.9199 25.6219L68.1659 25.7786C68.0551 26.5039 67.7325 27.1654 67.1981 27.763C66.6643 28.3548 65.9953 28.6506 65.1912 28.6506C64.3185 28.6506 63.5707 28.3141 62.9464 27.6352C62.3279 26.9564 62.0186 26.0397 62.0186 24.8909C62.0186 23.6492 62.336 22.6803 62.9701 21.9898C63.6101 21.2936 64.4114 20.9398 65.3739 20.9398C66.188 20.9398 66.8569 21.2124 67.3809 21.752C67.9042 22.2858 68.1659 22.9994 68.1659 23.8987H63.1448ZM63.1448 23.4404H66.5082C66.4815 22.9762 66.4264 22.6455 66.3417 22.4598C66.2094 22.1581 66.011 21.9261 65.7464 21.7578C65.4877 21.5896 65.215 21.5026 64.9295 21.5026C64.4909 21.5026 64.0969 21.6766 63.7476 22.0189C63.4041 22.3612 63.2028 22.8311 63.1448 23.4404ZM71.2677 20.9514V22.5817C71.8757 21.4967 72.5 20.9514 73.14 20.9514C73.4307 20.9514 73.6714 21.0384 73.8617 21.2183C74.0521 21.3923 74.1472 21.5954 74.1472 21.8275C74.1472 22.0364 74.0782 22.2104 73.9407 22.3554C73.8032 22.4947 73.6395 22.5701 73.4492 22.5701C73.2641 22.5701 73.0553 22.4772 72.8226 22.2974C72.5952 22.1117 72.4257 22.0189 72.3149 22.0189C72.2198 22.0189 72.1165 22.0711 72.0057 22.1814C71.7672 22.396 71.5218 22.7558 71.2677 23.249V26.7302C71.2677 27.1364 71.3181 27.438 71.4185 27.6468C71.487 27.7861 71.6088 27.908 71.7835 28.0008C71.9575 28.0995 72.2088 28.1459 72.5371 28.1459V28.4302H68.8163V28.1459C69.1865 28.1459 69.4615 28.0878 69.6413 27.9718C69.7736 27.8848 69.8665 27.7513 69.9193 27.5657C69.9454 27.4728 69.9587 27.2175 69.9587 26.794V23.9801C69.9587 23.133 69.9401 22.6339 69.903 22.4715C69.8717 22.309 69.8079 22.1872 69.7127 22.1176C69.6228 22.0422 69.5091 22.0073 69.3715 22.0073C69.2079 22.0073 69.0228 22.0421 68.8163 22.1233L68.7374 21.839L70.9346 20.9514H71.2677ZM76.4001 17.151C76.6224 17.151 76.8098 17.2322 76.9629 17.3889C77.1219 17.5397 77.2014 17.7312 77.2014 17.9516C77.2014 18.1721 77.1219 18.3636 76.9629 18.5202C76.8098 18.6827 76.6224 18.7582 76.4001 18.7582C76.1779 18.7582 75.9876 18.6827 75.8286 18.5202C75.6702 18.3636 75.5908 18.1721 75.5908 17.9516C75.5908 17.7312 75.6673 17.5397 75.8211 17.3889C75.9795 17.2322 76.1727 17.151 76.4001 17.151ZM77.0581 20.9514V26.7882C77.0581 27.2407 77.09 27.5483 77.1538 27.6991C77.2223 27.85 77.3204 27.9603 77.4468 28.0357C77.5791 28.1053 77.817 28.1459 78.1611 28.1459V28.4302H74.6311V28.1459C74.9856 28.1459 75.2235 28.1111 75.3448 28.0415C75.4666 27.9719 75.5618 27.8616 75.6308 27.6991C75.7045 27.5425 75.7416 27.2349 75.7416 26.7882V23.9859C75.7416 23.2026 75.7178 22.6919 75.6703 22.4598C75.6331 22.2858 75.5751 22.1698 75.4956 22.106C75.4161 22.0422 75.3082 22.0073 75.1707 22.0073C75.0222 22.0073 74.8423 22.0421 74.6311 22.1233L74.5203 21.839L76.7094 20.9514H77.0581ZM81.1915 22.4889C82.0426 21.4619 82.8543 20.9514 83.6266 20.9514C84.0229 20.9514 84.364 21.0499 84.6495 21.253C84.9355 21.4444 85.163 21.7695 85.3318 22.2278C85.4484 22.5469 85.5065 23.0285 85.5065 23.6841V26.7882C85.5065 27.2465 85.5436 27.5599 85.6173 27.7223C85.6759 27.8558 85.7681 27.9603 85.8952 28.0357C86.0275 28.1053 86.2683 28.1459 86.617 28.1459V28.4302H83.0238V28.1459H83.1746C83.5129 28.1459 83.7479 28.0937 83.8802 27.995C84.0177 27.8906 84.1128 27.7339 84.1656 27.5366C84.1871 27.4554 84.1975 27.2059 84.1975 26.7882V23.8118C84.1975 23.1503 84.1105 22.6746 83.9358 22.3787C83.7664 22.077 83.4786 21.9261 83.0713 21.9261C82.4418 21.9261 81.8152 22.2684 81.1915 22.9589V26.7882C81.1915 27.2813 81.2205 27.5831 81.2785 27.6991C81.3528 27.8558 81.4532 27.9661 81.5796 28.0415C81.7119 28.1111 81.9765 28.1459 82.3734 28.1459V28.4302H78.7796V28.1459H78.9385C79.3087 28.1459 79.557 28.0531 79.6841 27.8674C79.8164 27.6759 79.8825 27.3161 79.8825 26.7882V24.0903C79.8825 23.2199 79.8611 22.6862 79.8187 22.4947C79.7822 22.309 79.7212 22.1756 79.6365 22.106C79.557 22.0422 79.4486 22.0073 79.311 22.0073C79.1631 22.0073 78.9861 22.0421 78.7796 22.1233L78.6606 21.839L80.8503 20.9514H81.1915V22.4889ZM89.1397 25.7786C88.6953 25.5639 88.3541 25.2622 88.1162 24.8793C87.8783 24.4847 87.7594 24.0554 87.7594 23.5854C87.7594 22.866 88.0292 22.2452 88.5682 21.7288C89.113 21.2066 89.8087 20.9514 90.6546 20.9514C91.3474 20.9514 91.9479 21.1196 92.4556 21.4561H93.9943C94.2217 21.4561 94.354 21.4677 94.3911 21.4793C94.4277 21.4909 94.4544 21.5141 94.47 21.5431C94.502 21.5895 94.5176 21.6766 94.5176 21.7985C94.5176 21.9377 94.5049 22.0306 94.4782 22.0828C94.4625 22.1118 94.4329 22.1291 94.3911 22.1465C94.354 22.1639 94.2217 22.1697 93.9943 22.1697H93.0503C93.3462 22.5527 93.4947 23.0401 93.4947 23.6319C93.4947 24.3107 93.2354 24.8851 92.7172 25.3667C92.1991 25.8482 91.5035 26.0919 90.6308 26.0919C90.2711 26.0919 89.9038 26.0397 89.5284 25.9295C89.2958 26.1325 89.1368 26.3125 89.0521 26.4633C88.9732 26.6084 88.9332 26.736 88.9332 26.8462C88.9332 26.9333 88.9755 27.0203 89.0602 27.1073C89.1501 27.1885 89.3219 27.2524 89.576 27.2872C89.724 27.3104 90.0941 27.3277 90.6865 27.3451C91.7756 27.3683 92.4817 27.4091 92.8043 27.4555C93.2963 27.5251 93.6874 27.7049 93.9786 28.0008C94.2745 28.2967 94.4225 28.6622 94.4225 29.0974C94.4225 29.695 94.1422 30.252 93.5817 30.78C92.7567 31.5517 91.6804 31.9346 90.3535 31.9346C89.3323 31.9346 88.4707 31.7084 87.7675 31.2442C87.3707 30.9831 87.1722 30.7045 87.1722 30.4202C87.1722 30.2926 87.2012 30.165 87.2598 30.0432C87.3492 29.8459 87.5343 29.5732 87.8151 29.2251C87.8517 29.1787 88.1214 28.8885 88.6239 28.3663C88.3489 28.2038 88.1534 28.0588 88.0367 27.9311C87.9259 27.7977 87.8702 27.6528 87.8702 27.4845C87.8702 27.2988 87.9445 27.0841 88.0924 26.8346C88.2456 26.5851 88.5949 26.237 89.1397 25.7786ZM90.52 21.3285C90.1284 21.3285 89.8006 21.4852 89.536 21.7985C89.272 22.1118 89.1397 22.5875 89.1397 23.2316C89.1397 24.0729 89.3196 24.7168 89.6787 25.1752C89.9537 25.5291 90.303 25.7032 90.726 25.7032C91.1281 25.7032 91.4588 25.5524 91.7176 25.2507C91.9769 24.949 92.1063 24.4732 92.1063 23.8292C92.1063 22.9879 91.9241 22.3322 91.5592 21.8564C91.2894 21.5025 90.943 21.3285 90.52 21.3285ZM89.0602 28.4302C88.8119 28.6971 88.6239 28.9524 88.4968 29.1845C88.3704 29.4166 88.3065 29.6312 88.3065 29.8284C88.3065 30.0779 88.4603 30.3043 88.7666 30.4899C89.2958 30.8206 90.0599 30.983 91.059 30.983C92.0111 30.983 92.712 30.8148 93.1611 30.4783C93.616 30.1418 93.8434 29.7878 93.8434 29.4049C93.8434 29.1322 93.7088 28.9349 93.439 28.8189C93.164 28.7028 92.6192 28.6333 91.8052 28.6101C90.6152 28.5811 89.7002 28.5172 89.0602 28.4302Z" fill="#1F1F1F"/>
<path d="M19.9985 51.4642V52.2185H16.2248V45.5694H17.1207V51.4642H19.9985ZM21.6712 47.5188V52.2185H20.845V47.5188H21.6712ZM21.8476 46.0394C21.8476 46.1206 21.8302 46.196 21.7966 46.2656C21.7652 46.3352 21.7223 46.3991 21.6666 46.4513C21.6138 46.5035 21.5505 46.5499 21.4763 46.579C21.4049 46.608 21.3289 46.6254 21.2488 46.6254C21.1682 46.6254 21.0922 46.608 21.0214 46.579C20.9529 46.5499 20.8926 46.5035 20.8404 46.4513C20.7876 46.3991 20.7458 46.3352 20.715 46.2656C20.6837 46.196 20.6686 46.1206 20.6686 46.0394C20.6686 45.9582 20.6837 45.8827 20.715 45.813C20.7458 45.7376 20.7876 45.6737 20.8404 45.6215C20.8926 45.5693 20.9529 45.5229 21.0214 45.4939C21.0922 45.4591 21.1682 45.4476 21.2488 45.4476C21.3289 45.4476 21.4049 45.4591 21.4763 45.4939C21.5505 45.5229 21.6138 45.5693 21.6666 45.6215C21.7223 45.6737 21.7652 45.7376 21.7966 45.813C21.8302 45.8827 21.8476 45.9582 21.8476 46.0394ZM29.7018 51.4875L29.6972 52.2185H25.5986V45.5694H29.6972V46.3005H26.4991V48.5111H29.0891V49.2131H26.4991V51.4875H29.7018ZM34.4288 47.5188V52.2185H33.9368C33.819 52.2185 33.7447 52.1605 33.714 52.0444L33.649 51.5397C33.4447 51.766 33.2156 51.9516 32.962 52.0909C32.7085 52.2243 32.4172 52.2939 32.0894 52.2939C31.8324 52.2939 31.6049 52.2533 31.4071 52.1663C31.2121 52.0792 31.0479 51.9575 30.9151 51.8066C30.7822 51.6499 30.6812 51.4643 30.6133 51.2438C30.5484 51.0233 30.5159 50.7797 30.5159 50.5128V47.5188H31.3421V50.5128C31.3421 50.8725 31.4227 51.1451 31.5834 51.3424C31.7476 51.5339 31.9966 51.6325 32.3308 51.6325C32.575 51.6325 32.8025 51.5745 33.0131 51.4642C33.2266 51.3424 33.4233 51.1858 33.6026 50.977V47.5188H34.4288ZM36.5233 48.4588C36.6718 48.1397 36.854 47.8844 37.071 47.7045C37.2874 47.5247 37.552 47.4318 37.8647 47.4318C37.9634 47.4318 38.0579 47.4435 38.1479 47.4667C38.2407 47.4899 38.3225 47.5189 38.3939 47.5653L38.3335 48.1861C38.315 48.2616 38.2686 48.3021 38.1943 48.3021C38.1508 48.3021 38.0875 48.2905 38.004 48.2731C37.9204 48.2557 37.8259 48.2441 37.7209 48.2441C37.5723 48.2441 37.4389 48.2673 37.3217 48.308C37.2068 48.3544 37.1035 48.4182 37.0107 48.5053C36.9207 48.5865 36.8389 48.6966 36.7647 48.8185C36.6933 48.9461 36.6283 49.0854 36.5697 49.2478V52.2185H35.7389V47.5188H36.2123C36.3017 47.5188 36.3638 47.5363 36.398 47.5653C36.4316 47.6001 36.4548 47.6581 36.4676 47.7452L36.5233 48.4588ZM40.912 47.4435C41.2555 47.4435 41.5647 47.5015 41.8403 47.6117C42.1153 47.7278 42.3509 47.8901 42.5458 48.099C42.7408 48.3137 42.8893 48.569 42.9914 48.8649C43.0964 49.1666 43.1492 49.4973 43.1492 49.8629C43.1492 50.2342 43.0964 50.5707 42.9914 50.8666C42.8893 51.1625 42.7408 51.4178 42.5458 51.6267C42.3509 51.8414 42.1153 52.0039 41.8403 52.1141C41.5647 52.2302 41.2555 52.2824 40.912 52.2824C40.565 52.2824 40.2529 52.2302 39.9744 52.1141C39.6988 52.0039 39.4638 51.8414 39.2688 51.6267C39.0739 51.4178 38.9236 51.1625 38.8186 50.8666C38.7165 50.5707 38.6654 50.2342 38.6654 49.8629C38.6654 49.4973 38.7165 49.1666 38.8186 48.8649C38.9236 48.569 39.0739 48.3137 39.2688 48.099C39.4638 47.8901 39.6988 47.7278 39.9744 47.6117C40.2529 47.5015 40.565 47.4435 40.912 47.4435ZM40.912 51.6383C41.3761 51.6383 41.7225 51.4816 41.9517 51.1741C42.1803 50.8608 42.2952 50.4257 42.2952 49.8687C42.2952 49.3117 42.1803 48.8707 41.9517 48.5632C41.7225 48.2499 41.3761 48.0932 40.912 48.0932C40.6764 48.0932 40.471 48.1339 40.2946 48.2152C40.1212 48.2906 39.9755 48.4066 39.8583 48.5632C39.7434 48.7141 39.657 48.8997 39.5984 49.1202C39.5427 49.3407 39.5148 49.5902 39.5148 49.8687C39.5148 50.4257 39.6291 50.8608 39.8583 51.1741C40.0904 51.4816 40.4414 51.6383 40.912 51.6383ZM45.0279 51.0872C45.1794 51.2902 45.3453 51.4353 45.5246 51.5165C45.7039 51.6035 45.9052 51.6441 46.128 51.6441C46.5672 51.6441 46.9049 51.4874 47.1399 51.1741C47.3749 50.8608 47.4927 50.414 47.4927 49.8396C47.4927 49.5321 47.4648 49.2653 47.4091 49.0506C47.3563 48.8302 47.2791 48.6503 47.177 48.5111C47.0749 48.366 46.9496 48.2616 46.8011 48.1977C46.6525 48.1339 46.4837 48.099 46.2951 48.099C46.0259 48.099 45.7892 48.1629 45.5849 48.2847C45.3836 48.4124 45.1979 48.5864 45.0279 48.8127V51.0872ZM44.9862 48.2441C45.184 48.0004 45.4132 47.8031 45.6731 47.6581C45.9331 47.5072 46.2301 47.4318 46.5643 47.4318C46.8365 47.4318 47.0825 47.4841 47.3023 47.5885C47.5222 47.6929 47.7091 47.8438 47.864 48.0527C48.0189 48.25 48.1378 48.4995 48.2214 48.8012C48.3049 49.1029 48.3467 49.4451 48.3467 49.8396C48.3467 50.182 48.3003 50.507 48.2075 50.8087C48.1146 51.1046 47.98 51.3656 47.8037 51.5802C47.6302 51.8007 47.4167 51.9691 47.1631 52.0967C46.9125 52.2244 46.6293 52.2824 46.3137 52.2824C46.0259 52.2824 45.7782 52.236 45.571 52.1374C45.3668 52.0387 45.1858 51.9052 45.0279 51.7311V53.8083H44.1971V47.5188H44.6938C44.8115 47.5188 44.8841 47.5711 44.9119 47.6871L44.9862 48.2441ZM51.9492 50.1008C51.5686 50.1124 51.2437 50.1472 50.9745 50.1936C50.7082 50.24 50.49 50.3039 50.32 50.3793C50.1529 50.4606 50.0305 50.5476 49.9533 50.652C49.879 50.7622 49.8419 50.8782 49.8419 51.0058C49.8419 51.1335 49.8616 51.238 49.9022 51.325C49.9423 51.4178 49.9962 51.4933 50.0647 51.5513C50.1355 51.6036 50.2179 51.65 50.3107 51.6732C50.4065 51.7022 50.5086 51.7137 50.6171 51.7137C50.7621 51.7137 50.8956 51.6964 51.0162 51.6732C51.1369 51.6384 51.2495 51.5978 51.3551 51.5397C51.463 51.4875 51.5651 51.4178 51.6614 51.3424C51.7601 51.2612 51.8564 51.1742 51.9492 51.0755V50.1008ZM49.2803 48.1803C49.5402 47.9308 49.8199 47.7452 50.1204 47.6175C50.4204 47.4957 50.7528 47.4318 51.1184 47.4318C51.3812 47.4318 51.615 47.4782 51.8192 47.5653C52.0235 47.6523 52.1952 47.7684 52.3345 47.9251C52.4737 48.0817 52.5787 48.2674 52.6501 48.4878C52.7209 48.7083 52.7569 48.9462 52.7569 49.2131V52.2185H52.3902C52.3095 52.2185 52.2474 52.2069 52.2045 52.1837C52.161 52.1547 52.1268 52.1024 52.1024 52.0212L52.0096 51.5802C51.8854 51.6905 51.7647 51.7949 51.6475 51.882C51.5297 51.969 51.4061 52.0445 51.2762 52.1083C51.1462 52.1663 51.007 52.2127 50.8584 52.2418C50.7128 52.2766 50.5503 52.2939 50.3711 52.2939C50.1883 52.2939 50.0165 52.2707 49.8558 52.2185C49.6945 52.1663 49.5541 52.0909 49.4334 51.9865C49.3157 51.8821 49.2211 51.7543 49.1503 51.6035C49.0818 51.441 49.0482 51.2554 49.0482 51.0465C49.0482 50.8608 49.0993 50.681 49.2014 50.5128C49.3035 50.3387 49.4688 50.182 49.698 50.0486C49.9266 49.9151 50.2254 49.8106 50.5939 49.7236C50.9617 49.6366 51.4137 49.5902 51.9492 49.5786V49.2131C51.9492 48.8476 51.8703 48.569 51.7125 48.3833C51.5547 48.1976 51.3238 48.099 51.0209 48.099C50.8167 48.099 50.6449 48.1281 50.5057 48.1803C50.3693 48.2325 50.2504 48.2848 50.1483 48.3544C50.049 48.4124 49.9626 48.4703 49.8883 48.5226C49.817 48.5748 49.7456 48.5981 49.6748 48.5981C49.6191 48.5981 49.5709 48.5864 49.5309 48.5574C49.4903 48.5226 49.4567 48.4878 49.4288 48.4472L49.2803 48.1803ZM54.7951 48.1977C54.8972 48.0817 55.0052 47.9831 55.12 47.8902C55.2343 47.7974 55.355 47.7161 55.4821 47.6522C55.612 47.5826 55.7478 47.5305 55.8905 47.4957C56.0356 47.4609 56.1922 47.4435 56.3593 47.4435C56.6158 47.4435 56.8421 47.484 57.037 47.5711C57.2349 47.6581 57.3991 47.7742 57.529 47.9367C57.6619 48.0875 57.7623 48.279 57.8308 48.4937C57.8986 48.7141 57.9329 48.9578 57.9329 49.2247V52.2185H57.102V49.2247C57.102 48.8708 57.0196 48.5922 56.856 48.4007C56.6947 48.1977 56.4487 48.099 56.118 48.099C55.8731 48.099 55.6445 48.1629 55.431 48.2789C55.2204 48.395 55.0255 48.5575 54.8462 48.7547V52.2185H54.0153V47.5188H54.512C54.6292 47.5188 54.7023 47.5711 54.7301 47.6871L54.7951 48.1977ZM62.4207 45.3837V52.2185H61.5945V45.3837H62.4207ZM64.6336 47.5188V52.2185H63.8074V47.5188H64.6336ZM64.81 46.0394C64.81 46.1206 64.7926 46.196 64.759 46.2656C64.7276 46.3352 64.6847 46.3991 64.629 46.4513C64.5762 46.5035 64.513 46.5499 64.4387 46.579C64.3673 46.608 64.2913 46.6254 64.2113 46.6254C64.1306 46.6254 64.0546 46.608 63.9838 46.579C63.9154 46.5499 63.855 46.5035 63.8028 46.4513C63.75 46.3991 63.7082 46.3352 63.6775 46.2656C63.6461 46.196 63.6311 46.1206 63.6311 46.0394C63.6311 45.9582 63.6461 45.8827 63.6775 45.813C63.7082 45.7376 63.75 45.6737 63.8028 45.6215C63.855 45.5693 63.9154 45.5229 63.9838 45.4939C64.0546 45.4591 64.1306 45.4476 64.2113 45.4476C64.2913 45.4476 64.3673 45.4591 64.4387 45.4939C64.513 45.5229 64.5762 45.5693 64.629 45.6215C64.6847 45.6737 64.7276 45.7376 64.759 45.813C64.7926 45.8827 64.81 45.9582 64.81 46.0394ZM66.7705 48.1977C66.8727 48.0817 66.9812 47.9831 67.0955 47.8902C67.2103 47.7974 67.331 47.7161 67.4575 47.6522C67.5875 47.5826 67.7238 47.5305 67.866 47.4957C68.0116 47.4609 68.1677 47.4435 68.3348 47.4435C68.5918 47.4435 68.8175 47.484 69.0125 47.5711C69.2109 47.6581 69.3745 47.7742 69.5045 47.9367C69.6379 48.0875 69.7383 48.279 69.8062 48.4937C69.8746 48.7141 69.9083 48.9578 69.9083 49.2247V52.2185H69.0774V49.2247C69.0774 48.8708 68.9956 48.5922 68.8314 48.4007C68.6707 48.1977 68.4247 48.099 68.0934 48.099C67.8491 48.099 67.62 48.1629 67.4065 48.2789C67.1964 48.395 67.0015 48.5575 66.8216 48.7547V52.2185H65.9907V47.5188H66.4874C66.6052 47.5188 66.6777 47.5711 66.7056 47.6871L66.7705 48.1977ZM72.8058 49.9209C72.9729 49.9209 73.1203 49.8977 73.2468 49.8512C73.3739 49.8048 73.4806 49.7411 73.5671 49.6541C73.6541 49.5728 73.7191 49.4742 73.762 49.3582C73.8055 49.2421 73.827 49.1144 73.827 48.9751C73.827 48.685 73.7388 48.4588 73.5624 48.2847C73.3895 48.1165 73.1371 48.0295 72.8058 48.0295C72.4716 48.0295 72.2163 48.1165 72.04 48.2847C71.8671 48.4588 71.78 48.685 71.78 48.9751C71.78 49.1144 71.8021 49.2421 71.845 49.3582C71.8914 49.4742 71.9582 49.5728 72.0446 49.6541C72.1316 49.7411 72.2384 49.8048 72.3649 49.8512C72.4919 49.8977 72.6387 49.9209 72.8058 49.9209ZM74.2958 52.4738C74.2958 52.3577 74.2633 52.2649 74.1983 52.1953C74.1333 52.1257 74.0452 52.0676 73.9338 52.027C73.8258 51.9864 73.6988 51.9575 73.5531 51.9458C73.4081 51.9284 73.2532 51.911 73.089 51.9052C72.9283 51.8936 72.7641 51.882 72.597 51.8762C72.4299 51.8646 72.2691 51.853 72.1142 51.8298C71.9413 51.9111 71.7986 52.0097 71.6872 52.1374C71.5793 52.2534 71.5247 52.3984 71.5247 52.5609C71.5247 52.6653 71.5514 52.764 71.6036 52.8568C71.6593 52.9496 71.7429 53.025 71.8543 53.0888C71.9657 53.1585 72.105 53.2107 72.2721 53.2513C72.4426 53.2919 72.6422 53.3092 72.8708 53.3092C73.0936 53.3092 73.2932 53.2919 73.4696 53.2513C73.646 53.2107 73.7945 53.1526 73.9152 53.0772C74.0394 53.0018 74.1333 52.9148 74.1983 52.8103C74.2633 52.7117 74.2958 52.5956 74.2958 52.4738ZM75.1359 47.7045V48.0062C75.1359 48.1107 75.071 48.1745 74.941 48.2036L74.4072 48.2731C74.5128 48.4762 74.565 48.7026 74.565 48.952C74.565 49.1783 74.5203 49.3871 74.4304 49.5786C74.344 49.7642 74.2233 49.9209 74.0684 50.0544C73.914 50.1878 73.7284 50.2923 73.5114 50.3619C73.295 50.4315 73.06 50.4663 72.8058 50.4663C72.5865 50.4663 72.3788 50.4432 72.1839 50.3909C72.0852 50.449 72.0092 50.5185 71.9564 50.5881C71.9042 50.6577 71.8775 50.7274 71.8775 50.7971C71.8775 50.9073 71.9228 50.9943 72.0121 51.0523C72.105 51.1103 72.2256 51.1509 72.3742 51.1741C72.5227 51.1973 72.6915 51.2148 72.8801 51.2206C73.0721 51.2264 73.2671 51.238 73.4649 51.2554C73.6663 51.267 73.8612 51.2902 74.0498 51.325C74.2418 51.354 74.4118 51.412 74.5604 51.4875C74.7089 51.5687 74.8284 51.6732 74.9178 51.8124C75.0106 51.9459 75.057 52.1199 75.057 52.3403C75.057 52.5376 75.006 52.7349 74.9039 52.9264C74.8052 53.112 74.6613 53.2803 74.4722 53.4254C74.2836 53.5763 74.0515 53.6922 73.7759 53.7792C73.5038 53.8663 73.1957 53.9127 72.8523 53.9127C72.5088 53.9127 72.2088 53.8779 71.9518 53.8083C71.6953 53.7445 71.4818 53.6516 71.3112 53.5356C71.1412 53.4196 71.013 53.292 70.926 53.1353C70.8424 52.9902 70.8006 52.8336 70.8006 52.6711C70.8006 52.439 70.8738 52.2417 71.0188 52.0793C71.1644 51.9168 71.364 51.7892 71.6176 51.6964C71.4783 51.6326 71.3669 51.5512 71.2834 51.4468C71.2033 51.3424 71.1627 51.2031 71.1627 51.0233C71.1627 50.9594 71.1755 50.8899 71.1998 50.8145C71.2248 50.7449 71.2619 50.6694 71.3112 50.5997C71.364 50.5243 71.4273 50.4548 71.5015 50.3909C71.5758 50.3271 71.6628 50.2691 71.7615 50.2168C71.5294 50.0892 71.3484 49.9151 71.2184 49.7004C71.0884 49.4857 71.0234 49.2363 71.0234 48.952C71.0234 48.72 71.067 48.5168 71.1534 48.3312C71.2433 48.1397 71.3669 47.983 71.5247 47.8496C71.6826 47.7161 71.87 47.6175 72.0864 47.542C72.3063 47.4724 72.5459 47.4376 72.8058 47.4376C73.0101 47.4376 73.2004 47.4608 73.3768 47.5072C73.5531 47.5478 73.7144 47.6175 73.8595 47.7045H75.1359ZM79.8571 47.5188V52.2185H79.365C79.2473 52.2185 79.173 52.1605 79.1423 52.0444L79.0773 51.5397C78.873 51.766 78.6439 51.9516 78.3903 52.0909C78.1362 52.2243 77.8455 52.2939 77.5177 52.2939C77.2607 52.2939 77.0332 52.2533 76.8354 52.1663C76.6404 52.0792 76.4762 51.9575 76.3433 51.8066C76.2099 51.6499 76.1095 51.4643 76.0416 51.2438C75.9767 51.0233 75.9442 50.7797 75.9442 50.5128V47.5188H76.7704V50.5128C76.7704 50.8725 76.8504 51.1451 77.0117 51.3424C77.1754 51.5339 77.4248 51.6325 77.759 51.6325C78.0033 51.6325 78.2308 51.5745 78.4414 51.4642C78.6549 51.3424 78.851 51.1858 79.0309 50.977V47.5188H79.8571ZM84.3142 49.3523C84.3142 49.1609 84.2863 48.9867 84.2306 48.8301C84.1779 48.6676 84.0989 48.5342 83.9939 48.4182C83.8918 48.3021 83.7665 48.2093 83.6179 48.1455C83.4694 48.0817 83.3006 48.0527 83.112 48.0527C82.7157 48.0527 82.4018 48.1687 82.1698 48.4007C81.9406 48.627 81.7984 48.9462 81.7427 49.3523H84.3142ZM84.9826 51.5572C84.8805 51.6848 84.7581 51.7891 84.6159 51.882C84.4732 51.9748 84.32 52.0503 84.1564 52.1083C83.9951 52.1663 83.828 52.2069 83.6551 52.236C83.4816 52.2708 83.3099 52.2824 83.1399 52.2824C82.815 52.2824 82.5144 52.2302 82.2394 52.1199C81.9667 52.0097 81.73 51.8472 81.5292 51.6383C81.3308 51.4236 81.1765 51.1625 81.0651 50.8492C80.9537 50.5359 80.8979 50.1762 80.8979 49.7701C80.8979 49.4452 80.9473 49.1376 81.0465 48.8533C81.1486 48.569 81.2937 48.3253 81.4828 48.1164C81.6714 47.9076 81.9017 47.7394 82.1744 47.6233C82.4465 47.5015 82.7529 47.4435 83.0935 47.4435C83.3748 47.4435 83.6348 47.4899 83.8732 47.5885C84.1146 47.6813 84.3217 47.8148 84.4952 47.9946C84.6716 48.1687 84.8091 48.3892 84.9083 48.6561C85.007 48.9114 85.0569 49.213 85.0569 49.5437C85.0569 49.6772 85.0429 49.7643 85.0151 49.8049C84.9872 49.8455 84.9344 49.8687 84.8573 49.8687H81.7149C81.7242 50.1646 81.7642 50.4257 81.8356 50.6462C81.9098 50.8667 82.0119 51.0465 82.1419 51.1974C82.2719 51.3424 82.4262 51.4527 82.6061 51.5281C82.7854 51.5977 82.9867 51.6325 83.2095 51.6325C83.4166 51.6325 83.5947 51.6094 83.7433 51.563C83.8947 51.5165 84.0247 51.4643 84.1332 51.4063C84.2411 51.3483 84.331 51.3019 84.4024 51.2554C84.4767 51.2032 84.5399 51.1799 84.5927 51.1799C84.6606 51.1799 84.7134 51.2032 84.7505 51.2554L84.9826 51.5572ZM88.8102 48.2905C88.7731 48.3602 88.7156 48.3949 88.6385 48.3949C88.592 48.3949 88.5392 48.3776 88.4806 48.3428C88.4215 48.308 88.3489 48.2731 88.2625 48.2325C88.1789 48.186 88.078 48.1513 87.9608 48.1164C87.843 48.0758 87.7038 48.0585 87.543 48.0585C87.4038 48.0585 87.2785 48.0758 87.1671 48.1164C87.0557 48.1513 86.9594 48.1977 86.8793 48.2615C86.8015 48.3195 86.7412 48.395 86.6983 48.4762C86.6576 48.5575 86.6379 48.6445 86.6379 48.7431C86.6379 48.8649 86.6716 48.9636 86.74 49.0448C86.8108 49.1261 86.9037 49.1956 87.0185 49.2536C87.1328 49.3116 87.2628 49.3639 87.4084 49.4103C87.5535 49.4509 87.702 49.5031 87.854 49.5553C88.0084 49.6018 88.1586 49.6598 88.3043 49.7236C88.4493 49.7816 88.5793 49.863 88.6942 49.9558C88.8085 50.0486 88.8996 50.1588 88.968 50.298C89.0388 50.4315 89.0748 50.5882 89.0748 50.7796C89.0748 50.9943 89.0359 51.1974 88.9587 51.3831C88.881 51.5629 88.7667 51.7253 88.6153 51.8587C88.4632 51.9922 88.2776 52.0966 88.0583 52.1779C87.8384 52.2533 87.5848 52.2939 87.297 52.2939C86.9686 52.2939 86.6716 52.2418 86.4058 52.1374C86.1395 52.0271 85.9138 51.8877 85.7282 51.7195L85.9231 51.4063C85.9475 51.3657 85.9771 51.3366 86.0113 51.3134C86.0449 51.2902 86.0885 51.2785 86.1413 51.2785C86.197 51.2785 86.2556 51.3018 86.3176 51.3482C86.3791 51.3888 86.4534 51.4352 86.5404 51.4875C86.6298 51.5397 86.7383 51.5919 86.8654 51.6325C86.9918 51.6789 87.1497 51.6964 87.3388 51.6964C87.4995 51.6964 87.6405 51.6789 87.7612 51.6383C87.8819 51.5977 87.9823 51.5397 88.0629 51.4642C88.143 51.3946 88.2021 51.3134 88.2393 51.2206C88.2793 51.1278 88.2996 51.0291 88.2996 50.9247C88.2996 50.7912 88.2637 50.6868 88.1929 50.6055C88.1244 50.5185 88.0333 50.4432 87.919 50.3851C87.8041 50.3213 87.673 50.2691 87.5245 50.2285C87.3788 50.182 87.2286 50.1356 87.0742 50.0834C86.9222 50.0312 86.7725 49.979 86.624 49.9151C86.4784 49.8513 86.3484 49.7701 86.2341 49.6773C86.1192 49.5787 86.0264 49.4626 85.9556 49.3233C85.8871 49.1783 85.8535 49.0101 85.8535 48.807C85.8535 48.6271 85.8906 48.453 85.9649 48.2905C86.0391 48.1223 86.1471 47.9772 86.2898 47.8554C86.4319 47.7277 86.6066 47.6291 86.8143 47.5537C87.0214 47.4782 87.2582 47.4435 87.5245 47.4435C87.8337 47.4435 88.1105 47.4899 88.3553 47.5885C88.6025 47.6871 88.816 47.8206 88.9959 47.9888L88.8102 48.2905ZM95.6096 49.3523C95.6096 49.1609 95.5818 48.9867 95.5261 48.8301C95.4739 48.6676 95.395 48.5342 95.2894 48.4182C95.1872 48.3021 95.0619 48.2093 94.9134 48.1455C94.7648 48.0817 94.5966 48.0527 94.4074 48.0527C94.0117 48.0527 93.6973 48.1687 93.4652 48.4007C93.2366 48.627 93.0939 48.9462 93.0382 49.3523H95.6096ZM96.278 51.5572C96.1759 51.6848 96.0541 51.7891 95.9113 51.882C95.7692 51.9748 95.616 52.0503 95.4518 52.1083C95.2911 52.1663 95.124 52.2069 94.9505 52.236C94.7776 52.2708 94.6059 52.2824 94.4353 52.2824C94.1104 52.2824 93.8104 52.2302 93.5348 52.1199C93.2627 52.0097 93.026 51.8472 92.8246 51.6383C92.6268 51.4236 92.4719 51.1625 92.3605 50.8492C92.2491 50.5359 92.1934 50.1762 92.1934 49.7701C92.1934 49.4452 92.2433 49.1376 92.3419 48.8533C92.444 48.569 92.5897 48.3253 92.7782 48.1164C92.9674 47.9076 93.1977 47.7394 93.4698 47.6233C93.7425 47.5015 94.0489 47.4435 94.3889 47.4435C94.6709 47.4435 94.9308 47.4899 95.1687 47.5885C95.41 47.6813 95.6177 47.8148 95.7906 47.9946C95.967 48.1687 96.1051 48.3892 96.2038 48.6561C96.303 48.9114 96.3523 49.213 96.3523 49.5437C96.3523 49.6772 96.3384 49.7643 96.3105 49.8049C96.2827 49.8455 96.2304 49.8687 96.1527 49.8687H93.0103C93.0196 50.1646 93.0602 50.4257 93.131 50.6462C93.2053 50.8667 93.3074 51.0465 93.4373 51.1974C93.5673 51.3424 93.7222 51.4527 93.9015 51.5281C94.0814 51.5977 94.2821 51.6325 94.5049 51.6325C94.7126 51.6325 94.8902 51.6094 95.0387 51.563C95.1907 51.5165 95.3207 51.4643 95.4286 51.4063C95.5371 51.3483 95.627 51.3019 95.6978 51.2554C95.7721 51.2032 95.8359 51.1799 95.8881 51.1799C95.9566 51.1799 96.0088 51.2032 96.0459 51.2554L96.278 51.5572ZM100.106 48.2905C100.069 48.3602 100.012 48.3949 99.9345 48.3949C99.8881 48.3949 99.8353 48.3776 99.7767 48.3428C99.7175 48.308 99.645 48.2731 99.5585 48.2325C99.475 48.186 99.374 48.1513 99.2568 48.1164C99.139 48.0758 98.9998 48.0585 98.839 48.0585C98.6998 48.0585 98.5745 48.0758 98.4631 48.1164C98.3517 48.1513 98.2554 48.1977 98.1753 48.2615C98.0975 48.3195 98.0372 48.395 97.9943 48.4762C97.9537 48.5575 97.9339 48.6445 97.9339 48.7431C97.9339 48.8649 97.9676 48.9636 98.036 49.0448C98.1068 49.1261 98.1997 49.1956 98.3145 49.2536C98.4288 49.3116 98.5588 49.3639 98.7044 49.4103C98.8495 49.4509 98.998 49.5031 99.15 49.5553C99.3044 49.6018 99.4546 49.6598 99.6003 49.7236C99.7453 49.7816 99.8753 49.863 99.9902 49.9558C100.104 50.0486 100.196 50.1588 100.264 50.298C100.335 50.4315 100.371 50.5882 100.371 50.7796C100.371 50.9943 100.332 51.1974 100.255 51.3831C100.177 51.5629 100.063 51.7253 99.9113 51.8587C99.7593 51.9922 99.5736 52.0966 99.3543 52.1779C99.1344 52.2533 98.8808 52.2939 98.593 52.2939C98.2646 52.2939 97.9676 52.2418 97.7018 52.1374C97.4355 52.0271 97.2098 51.8877 97.0242 51.7195L97.2191 51.4063C97.2435 51.3657 97.2731 51.3366 97.3073 51.3134C97.341 51.2902 97.3845 51.2785 97.4373 51.2785C97.493 51.2785 97.5516 51.3018 97.6137 51.3482C97.6751 51.3888 97.7494 51.4352 97.8364 51.4875C97.9258 51.5397 98.0343 51.5919 98.1614 51.6325C98.2878 51.6789 98.4457 51.6964 98.6348 51.6964C98.7955 51.6964 98.9365 51.6789 99.0566 51.6383C99.1779 51.5977 99.2782 51.5397 99.3589 51.4642C99.439 51.3946 99.4982 51.3134 99.5353 51.2206C99.5753 51.1278 99.5956 51.0291 99.5956 50.9247C99.5956 50.7912 99.5597 50.6868 99.4889 50.6055C99.4204 50.5185 99.3293 50.4432 99.215 50.3851C99.1001 50.3213 98.969 50.2691 98.8205 50.2285C98.6748 50.182 98.5246 50.1356 98.3702 50.0834C98.2182 50.0312 98.0685 49.979 97.92 49.9151C97.7744 49.8513 97.6444 49.7701 97.5301 49.6773C97.4152 49.5787 97.3224 49.4626 97.2516 49.3233C97.1831 49.1783 97.1495 49.0101 97.1495 48.807C97.1495 48.6271 97.1866 48.453 97.2609 48.2905C97.3352 48.1223 97.4431 47.9772 97.5858 47.8554C97.7279 47.7277 97.9026 47.6291 98.1103 47.5537C98.3174 47.4782 98.5542 47.4435 98.8205 47.4435C99.1297 47.4435 99.4065 47.4899 99.6513 47.5885C99.8985 47.6871 100.112 47.8206 100.292 47.9888L100.106 48.2905ZM103.759 52.2185V47.5188H104.255C104.373 47.5188 104.446 47.5711 104.473 47.6871L104.534 48.1687C104.707 47.9598 104.902 47.78 105.119 47.6466C105.335 47.5131 105.586 47.4435 105.871 47.4435C106.186 47.4435 106.441 47.5305 106.636 47.7045C106.834 47.8844 106.977 48.1223 107.063 48.424C107.131 48.2499 107.218 48.1048 107.323 47.983C107.432 47.8554 107.553 47.7567 107.685 47.6755C107.818 47.5942 107.959 47.5363 108.108 47.4957C108.259 47.4609 108.412 47.4435 108.567 47.4435C108.815 47.4435 109.034 47.484 109.226 47.5653C109.421 47.6407 109.586 47.7568 109.718 47.9076C109.855 48.0585 109.958 48.2441 110.029 48.4704C110.101 48.6851 110.136 48.9404 110.136 49.2247V52.2185H109.305V49.2247C109.305 48.8592 109.225 48.5806 109.064 48.3891C108.903 48.1977 108.671 48.099 108.368 48.099C108.231 48.099 108.101 48.1281 107.978 48.1745C107.857 48.2209 107.75 48.2905 107.658 48.3833C107.565 48.4761 107.49 48.5922 107.435 48.7373C107.382 48.8765 107.356 49.0391 107.356 49.2247V52.2185H106.525V49.2247C106.525 48.8476 106.449 48.5632 106.298 48.3775C106.146 48.1918 105.924 48.099 105.634 48.099C105.43 48.099 105.241 48.1571 105.068 48.2673C104.894 48.3775 104.735 48.5226 104.589 48.7141V52.2185H103.759ZM114.539 49.3523C114.539 49.1609 114.511 48.9867 114.455 48.8301C114.403 48.6676 114.324 48.5342 114.219 48.4182C114.116 48.3021 113.991 48.2093 113.843 48.1455C113.694 48.0817 113.526 48.0527 113.337 48.0527C112.941 48.0527 112.626 48.1687 112.394 48.4007C112.166 48.627 112.023 48.9462 111.967 49.3523H114.539ZM115.207 51.5572C115.105 51.6848 114.983 51.7891 114.841 51.882C114.698 51.9748 114.545 52.0503 114.381 52.1083C114.22 52.1663 114.053 52.2069 113.88 52.236C113.707 52.2708 113.535 52.2824 113.364 52.2824C113.04 52.2824 112.74 52.2302 112.464 52.1199C112.192 52.0097 111.955 51.8472 111.754 51.6383C111.556 51.4236 111.401 51.1625 111.29 50.8492C111.178 50.5359 111.123 50.1762 111.123 49.7701C111.123 49.4452 111.172 49.1376 111.271 48.8533C111.373 48.569 111.519 48.3253 111.707 48.1164C111.897 47.9076 112.127 47.7394 112.399 47.6233C112.672 47.5015 112.978 47.4435 113.318 47.4435C113.6 47.4435 113.86 47.4899 114.098 47.5885C114.339 47.6813 114.547 47.8148 114.72 47.9946C114.896 48.1687 115.034 48.3892 115.133 48.6561C115.232 48.9114 115.281 49.213 115.281 49.5437C115.281 49.6772 115.268 49.7643 115.24 49.8049C115.212 49.8455 115.16 49.8687 115.082 49.8687H111.939C111.949 50.1646 111.989 50.4257 112.06 50.6462C112.134 50.8667 112.237 51.0465 112.367 51.1974C112.496 51.3424 112.651 51.4527 112.831 51.5281C113.011 51.5977 113.211 51.6325 113.434 51.6325C113.642 51.6325 113.819 51.6094 113.968 51.563C114.12 51.5165 114.25 51.4643 114.358 51.4063C114.466 51.3483 114.556 51.3019 114.627 51.2554C114.701 51.2032 114.765 51.1799 114.817 51.1799C114.886 51.1799 114.938 51.2032 114.975 51.2554L115.207 51.5572ZM116.297 52.2185V47.5188H116.793C116.911 47.5188 116.984 47.5711 117.012 47.6871L117.072 48.1687C117.245 47.9598 117.44 47.78 117.657 47.6466C117.873 47.5131 118.124 47.4435 118.409 47.4435C118.724 47.4435 118.98 47.5305 119.175 47.7045C119.372 47.8844 119.515 48.1223 119.602 48.424C119.67 48.2499 119.756 48.1048 119.862 47.983C119.97 47.8554 120.09 47.7567 120.224 47.6755C120.357 47.5942 120.498 47.5363 120.646 47.4957C120.797 47.4609 120.951 47.4435 121.106 47.4435C121.353 47.4435 121.573 47.484 121.765 47.5653C121.96 47.6407 122.123 47.7568 122.257 47.9076C122.392 48.0585 122.496 48.2441 122.568 48.4704C122.638 48.6851 122.674 48.9404 122.674 49.2247V52.2185H121.844V49.2247C121.844 48.8592 121.763 48.5806 121.602 48.3891C121.441 48.1977 121.209 48.099 120.906 48.099C120.77 48.099 120.64 48.1281 120.516 48.1745C120.395 48.2209 120.289 48.2905 120.196 48.3833C120.103 48.4761 120.029 48.5922 119.973 48.7373C119.92 48.8765 119.894 49.0391 119.894 49.2247V52.2185H119.063V49.2247C119.063 48.8476 118.987 48.5632 118.836 48.3775C118.684 48.1918 118.463 48.099 118.172 48.099C117.968 48.099 117.779 48.1571 117.606 48.2673C117.432 48.3775 117.273 48.5226 117.128 48.7141V52.2185H116.297ZM124.761 51.0872C124.912 51.2902 125.078 51.4353 125.258 51.5165C125.44 51.6035 125.639 51.6441 125.856 51.6441C126.298 51.6441 126.637 51.4874 126.873 51.1741C127.108 50.8608 127.226 50.3967 127.226 49.7759C127.226 49.2015 127.12 48.778 126.91 48.5111C126.702 48.2384 126.405 48.099 126.019 48.099C125.75 48.099 125.514 48.1629 125.313 48.2847C125.115 48.4124 124.931 48.5864 124.761 48.8127V51.0872ZM124.761 48.1919C124.959 47.9657 125.182 47.78 125.429 47.6466C125.68 47.5131 125.968 47.4435 126.293 47.4435C126.568 47.4435 126.815 47.4957 127.035 47.6001C127.258 47.7046 127.447 47.8612 127.602 48.0585C127.756 48.2558 127.874 48.4995 127.954 48.7838C128.038 49.0681 128.08 49.3871 128.08 49.7468C128.08 50.124 128.033 50.4721 127.94 50.7854C127.848 51.0987 127.713 51.3656 127.537 51.5861C127.363 51.8065 127.151 51.9807 126.901 52.1025C126.65 52.2244 126.368 52.2824 126.056 52.2824C125.746 52.2824 125.485 52.2244 125.271 52.1141C125.061 51.9923 124.877 51.8298 124.719 51.6151L124.677 52.0444C124.652 52.1605 124.581 52.2185 124.464 52.2185H123.93V45.3837H124.761V48.1919ZM129.909 48.4588C130.058 48.1397 130.24 47.8844 130.457 47.7045C130.673 47.5247 130.938 47.4318 131.25 47.4318C131.35 47.4318 131.444 47.4435 131.534 47.4667C131.626 47.4899 131.708 47.5189 131.78 47.5653L131.719 48.1861C131.701 48.2616 131.654 48.3021 131.58 48.3021C131.536 48.3021 131.473 48.2905 131.39 48.2731C131.306 48.2557 131.212 48.2441 131.107 48.2441C130.958 48.2441 130.825 48.2673 130.707 48.308C130.593 48.3544 130.489 48.4182 130.396 48.5053C130.306 48.5865 130.225 48.6966 130.15 48.8185C130.079 48.9461 130.014 49.0854 129.955 49.2478V52.2185H129.125V47.5188H129.598C129.688 47.5188 129.749 47.5363 129.784 47.5653C129.818 47.6001 129.841 47.6581 129.853 47.7452L129.909 48.4588ZM135.463 49.3523C135.463 49.1609 135.435 48.9867 135.379 48.8301C135.326 48.6676 135.247 48.5342 135.142 48.4182C135.04 48.3021 134.915 48.2093 134.766 48.1455C134.618 48.0817 134.449 48.0527 134.261 48.0527C133.864 48.0527 133.55 48.1687 133.318 48.4007C133.089 48.627 132.947 48.9462 132.891 49.3523H135.463ZM136.131 51.5572C136.029 51.6848 135.907 51.7891 135.764 51.882C135.622 51.9748 135.469 52.0503 135.305 52.1083C135.144 52.1663 134.977 52.2069 134.804 52.236C134.63 52.2708 134.458 52.2824 134.288 52.2824C133.963 52.2824 133.664 52.2302 133.388 52.1199C133.116 52.0097 132.879 51.8472 132.678 51.6383C132.48 51.4236 132.325 51.1625 132.214 50.8492C132.102 50.5359 132.046 50.1762 132.046 49.7701C132.046 49.4452 132.096 49.1376 132.195 48.8533C132.297 48.569 132.443 48.3253 132.631 48.1164C132.82 47.9076 133.051 47.7394 133.323 47.6233C133.595 47.5015 133.901 47.4435 134.242 47.4435C134.523 47.4435 134.783 47.4899 135.022 47.5885C135.263 47.6813 135.47 47.8148 135.644 47.9946C135.82 48.1687 135.958 48.3892 136.057 48.6561C136.156 48.9114 136.205 49.213 136.205 49.5437C136.205 49.6772 136.191 49.7643 136.164 49.8049C136.136 49.8455 136.083 49.8687 136.006 49.8687H132.863C132.873 50.1646 132.913 50.4257 132.984 50.6462C133.058 50.8667 133.16 51.0465 133.29 51.1974C133.42 51.3424 133.575 51.4527 133.755 51.5281C133.934 51.5977 134.135 51.6325 134.358 51.6325C134.565 51.6325 134.743 51.6094 134.892 51.563C135.043 51.5165 135.173 51.4643 135.282 51.4063C135.39 51.3483 135.48 51.3019 135.551 51.2554C135.625 51.2032 135.688 51.1799 135.741 51.1799C135.809 51.1799 135.862 51.2032 135.899 51.2554L136.131 51.5572ZM139.959 48.2905C139.922 48.3602 139.864 48.3949 139.787 48.3949C139.741 48.3949 139.688 48.3776 139.629 48.3428C139.571 48.308 139.497 48.2731 139.411 48.2325C139.327 48.186 139.227 48.1513 139.109 48.1164C138.992 48.0758 138.852 48.0585 138.692 48.0585C138.552 48.0585 138.427 48.0758 138.316 48.1164C138.204 48.1513 138.108 48.1977 138.028 48.2615C137.951 48.3195 137.89 48.395 137.847 48.4762C137.807 48.5575 137.786 48.6445 137.786 48.7431C137.786 48.8649 137.821 48.9636 137.889 49.0448C137.96 49.1261 138.053 49.1956 138.167 49.2536C138.281 49.3116 138.411 49.3639 138.557 49.4103C138.703 49.4509 138.851 49.5031 139.003 49.5553C139.157 49.6018 139.307 49.6598 139.453 49.7236C139.598 49.7816 139.728 49.863 139.843 49.9558C139.957 50.0486 140.049 50.1588 140.117 50.298C140.188 50.4315 140.223 50.5882 140.223 50.7796C140.223 50.9943 140.184 51.1974 140.107 51.3831C140.03 51.5629 139.915 51.7253 139.764 51.8587C139.612 51.9922 139.427 52.0966 139.207 52.1779C138.987 52.2533 138.733 52.2939 138.446 52.2939C138.118 52.2939 137.821 52.2418 137.554 52.1374C137.288 52.0271 137.062 51.8877 136.877 51.7195L137.072 51.4063C137.097 51.3657 137.126 51.3366 137.16 51.3134C137.194 51.2902 137.237 51.2785 137.29 51.2785C137.345 51.2785 137.404 51.3018 137.466 51.3482C137.528 51.3888 137.603 51.4352 137.689 51.4875C137.779 51.5397 137.887 51.5919 138.014 51.6325C138.141 51.6789 138.299 51.6964 138.487 51.6964C138.648 51.6964 138.789 51.6789 138.91 51.6383C139.03 51.5977 139.131 51.5397 139.211 51.4642C139.292 51.3946 139.351 51.3134 139.388 51.2206C139.428 51.1278 139.448 51.0291 139.448 50.9247C139.448 50.7912 139.413 50.6868 139.341 50.6055C139.274 50.5185 139.182 50.4432 139.068 50.3851C138.953 50.3213 138.822 50.2691 138.673 50.2285C138.527 50.182 138.378 50.1356 138.223 50.0834C138.071 50.0312 137.921 49.979 137.773 49.9151C137.627 49.8513 137.497 49.7701 137.383 49.6773C137.268 49.5787 137.176 49.4626 137.104 49.3233C137.036 49.1783 137.002 49.0101 137.002 48.807C137.002 48.6271 137.039 48.453 137.113 48.2905C137.188 48.1223 137.296 47.9772 137.438 47.8554C137.58 47.7277 137.756 47.6291 137.963 47.5537C138.17 47.4782 138.407 47.4435 138.673 47.4435C138.982 47.4435 139.26 47.4899 139.504 47.5885C139.752 47.6871 139.965 47.8206 140.144 47.9888L139.959 48.2905ZM19.0934 62.5578C18.9385 62.3547 18.7714 62.2097 18.5921 62.1285C18.4128 62.0472 18.2115 62.0008 17.9887 62.0008C17.5523 62.0008 17.2164 62.1574 16.9814 62.4707C16.7464 62.784 16.6287 63.2308 16.6287 63.811C16.6287 64.1127 16.6548 64.3797 16.7076 64.6002C16.7604 64.8148 16.8375 64.9946 16.9397 65.1339C17.0418 65.2731 17.1671 65.3776 17.3156 65.4414C17.4642 65.5052 17.633 65.54 17.8216 65.54C18.0937 65.54 18.3304 65.4761 18.5317 65.3543C18.736 65.2325 18.9234 65.0585 19.0934 64.8322V62.5578ZM19.9196 59.3086V66.1434H19.4276C19.3098 66.1434 19.2355 66.0854 19.2048 65.9694L19.1305 65.4008C18.9292 65.6445 18.7006 65.8359 18.4435 65.9868C18.1865 66.1318 17.8894 66.2073 17.5524 66.2073C17.2831 66.2073 17.0389 66.1551 16.819 66.0565C16.5991 65.952 16.4122 65.7954 16.2573 65.5981C16.1024 65.395 15.9835 65.1455 15.8999 64.8438C15.8164 64.5421 15.7746 64.1997 15.7746 63.811C15.7746 63.4629 15.821 63.138 15.9139 62.8421C16.0067 62.5404 16.1396 62.2851 16.313 62.0646C16.4865 61.8441 16.6983 61.6701 16.9489 61.5483C17.2025 61.4206 17.4874 61.3568 17.803 61.3568C18.0908 61.3568 18.3368 61.409 18.541 61.5076C18.7481 61.6004 18.9327 61.7397 19.0934 61.9079V59.3086H19.9196ZM24.3715 63.2773C24.3715 63.0858 24.3436 62.9117 24.2879 62.755C24.2351 62.5925 24.1562 62.4591 24.0512 62.3431C23.9491 62.227 23.8238 62.1342 23.6752 62.0704C23.5267 62.0066 23.3579 61.9776 23.1693 61.9776C22.773 61.9776 22.4591 62.0936 22.2271 62.3257C21.9979 62.5519 21.8557 62.8711 21.8 63.2773H24.3715ZM25.0399 65.4821C24.9378 65.6097 24.8154 65.714 24.6732 65.8069C24.5311 65.8997 24.3779 65.9752 24.2137 66.0332C24.053 66.0913 23.8859 66.1319 23.7124 66.1609C23.5389 66.1957 23.3672 66.2073 23.1972 66.2073C22.8723 66.2073 22.5723 66.1551 22.2967 66.0449C22.0246 65.9346 21.7878 65.7721 21.5865 65.5632C21.3887 65.3486 21.2337 65.0874 21.1224 64.7741C21.011 64.4608 20.9553 64.1011 20.9553 63.695C20.9553 63.3701 21.0046 63.0625 21.1038 62.7782C21.2059 62.4939 21.3515 62.2502 21.5401 62.0414C21.7287 61.8325 21.9596 61.6643 22.2317 61.5483C22.5038 61.4264 22.8102 61.3684 23.1507 61.3684C23.4321 61.3684 23.6921 61.4148 23.9305 61.5134C24.1719 61.6063 24.379 61.7397 24.5525 61.9195C24.7289 62.0936 24.8664 62.3142 24.9656 62.581C25.0648 62.8363 25.1142 63.1379 25.1142 63.4686C25.1142 63.6021 25.1002 63.6892 25.0724 63.7298C25.0445 63.7705 24.9917 63.7936 24.9146 63.7936H21.7722C21.7815 64.0895 21.8215 64.3506 21.8929 64.5711C21.9671 64.7916 22.0692 64.9714 22.1992 65.1223C22.3292 65.2673 22.4841 65.3776 22.6634 65.453C22.8427 65.5227 23.044 65.5574 23.2668 65.5574C23.4739 65.5574 23.652 65.5343 23.8006 65.4879C23.952 65.4415 24.082 65.3892 24.1905 65.3312C24.299 65.2732 24.3883 65.2268 24.4597 65.1804C24.534 65.1281 24.5972 65.1049 24.65 65.1049C24.7179 65.1049 24.7707 65.1281 24.8078 65.1804L25.0399 65.4821ZM26.983 59.3086V66.1434H26.1568V59.3086H26.983ZM33.4366 62.2154C33.3995 62.2851 33.3426 62.3198 33.2649 62.3198C33.2185 62.3198 33.1662 62.3025 33.1071 62.2677C33.0485 62.2329 32.9759 62.198 32.8889 62.1574C32.8054 62.111 32.705 62.0762 32.5872 62.0414C32.47 62.0007 32.3308 61.9834 32.1695 61.9834C32.0302 61.9834 31.9049 62.0007 31.7935 62.0414C31.6821 62.0762 31.5863 62.1226 31.5057 62.1864C31.4285 62.2444 31.3682 62.3199 31.3247 62.4012C31.2846 62.4824 31.2643 62.5694 31.2643 62.668C31.2643 62.7899 31.2986 62.8885 31.3665 62.9697C31.4378 63.051 31.5306 63.1205 31.6449 63.1785C31.7598 63.2366 31.8898 63.2888 32.0348 63.3352C32.1805 63.3758 32.329 63.428 32.4804 63.4803C32.6354 63.5267 32.7856 63.5847 32.9307 63.6485C33.0763 63.7066 33.2063 63.7879 33.3206 63.8807C33.4355 63.9735 33.5266 64.0837 33.5944 64.2229C33.6658 64.3564 33.7012 64.5131 33.7012 64.7045C33.7012 64.9192 33.6629 65.1223 33.5851 65.308C33.508 65.4878 33.3937 65.6502 33.2417 65.7836C33.0902 65.9171 32.9046 66.0216 32.6847 66.1028C32.4654 66.1782 32.2112 66.2188 31.9234 66.2188C31.5956 66.2188 31.2986 66.1667 31.0322 66.0623C30.7665 65.952 30.5402 65.8127 30.3546 65.6444L30.5495 65.3312C30.5745 65.2906 30.6041 65.2615 30.6377 65.2383C30.6719 65.2151 30.7155 65.2034 30.7677 65.2034C30.8234 65.2034 30.8826 65.2267 30.9441 65.2731C31.0061 65.3138 31.0804 65.3602 31.1669 65.4124C31.2568 65.4646 31.3653 65.5168 31.4918 65.5574C31.6188 65.6038 31.7767 65.6213 31.9652 65.6213C32.1265 65.6213 32.2669 65.6039 32.3876 65.5632C32.5083 65.5226 32.6092 65.4646 32.6893 65.3891C32.77 65.3195 32.8286 65.2383 32.8657 65.1455C32.9063 65.0527 32.926 64.954 32.926 64.8496C32.926 64.7162 32.8906 64.6117 32.8193 64.5305C32.7514 64.4434 32.6603 64.3681 32.5454 64.31C32.4311 64.2462 32.2994 64.194 32.1509 64.1534C32.0058 64.107 31.8556 64.0605 31.7006 64.0083C31.5492 63.9561 31.3989 63.9039 31.2504 63.84C31.1054 63.7762 30.9754 63.695 30.8605 63.6022C30.7462 63.5036 30.6534 63.3875 30.582 63.2482C30.5141 63.1032 30.4799 62.935 30.4799 62.7319C30.4799 62.552 30.517 62.3779 30.5913 62.2154C30.6656 62.0472 30.7741 61.9021 30.9162 61.7803C31.0589 61.6526 31.2336 61.554 31.4407 61.4786C31.6484 61.4031 31.8851 61.3684 32.1509 61.3684C32.4607 61.3684 32.7375 61.4148 32.9817 61.5134C33.2295 61.6121 33.443 61.7455 33.6223 61.9137L33.4366 62.2154ZM37.2625 64.0258C36.8819 64.0374 36.557 64.0721 36.2877 64.1185C36.0214 64.165 35.8033 64.2288 35.6333 64.3042C35.4662 64.3855 35.3438 64.4725 35.2666 64.5769C35.1923 64.6872 35.1552 64.8031 35.1552 64.9308C35.1552 65.0584 35.1755 65.1629 35.2155 65.2499C35.2556 65.3427 35.3101 65.4182 35.378 65.4763C35.4494 65.5285 35.5312 65.5749 35.624 65.5981C35.7197 65.6271 35.8218 65.6386 35.9303 65.6386C36.076 65.6386 36.2088 65.6213 36.3295 65.5981C36.4502 65.5633 36.5633 65.5227 36.6684 65.4647C36.7769 65.4124 36.879 65.3428 36.9747 65.2673C37.0739 65.1861 37.1697 65.0991 37.2625 65.0005V64.0258ZM34.5935 62.1052C34.8535 61.8558 35.1337 61.6701 35.4337 61.5425C35.7336 61.4206 36.0667 61.3568 36.4316 61.3568C36.6945 61.3568 36.9283 61.4032 37.1325 61.4902C37.3368 61.5772 37.5085 61.6933 37.6477 61.85C37.787 62.0066 37.892 62.1923 37.9634 62.4128C38.0347 62.6332 38.0701 62.8711 38.0701 63.138V66.1434H37.7034C37.6228 66.1434 37.5613 66.1318 37.5178 66.1086C37.4743 66.0796 37.4406 66.0274 37.4157 65.9461L37.3228 65.5052C37.1992 65.6154 37.0786 65.7199 36.9608 65.8069C36.843 65.8939 36.7194 65.9694 36.5895 66.0332C36.4595 66.0913 36.3202 66.1377 36.1717 66.1667C36.0261 66.2015 35.8636 66.2188 35.6843 66.2188C35.5016 66.2188 35.3298 66.1957 35.1691 66.1434C35.0084 66.0912 34.8674 66.0159 34.7467 65.9114C34.6289 65.807 34.5349 65.6792 34.4636 65.5284C34.3957 65.3659 34.3615 65.1803 34.3615 64.9714C34.3615 64.7858 34.4125 64.6059 34.5146 64.4377C34.6168 64.2636 34.7821 64.1069 35.0113 63.9735C35.2405 63.84 35.5387 63.7356 35.9071 63.6485C36.2756 63.5615 36.727 63.5151 37.2625 63.5035V63.138C37.2625 62.7725 37.1836 62.4939 37.0258 62.3082C36.868 62.1226 36.6376 62.0239 36.3342 62.0239C36.1299 62.0239 35.9582 62.053 35.8189 62.1052C35.6826 62.1575 35.5637 62.2097 35.4615 62.2793C35.3623 62.3374 35.2759 62.3953 35.2016 62.4475C35.1302 62.4997 35.0594 62.523 34.9881 62.523C34.9324 62.523 34.8842 62.5113 34.8442 62.4823C34.8042 62.4475 34.7699 62.4127 34.7421 62.3721L34.5935 62.1052ZM39.3286 66.1434V61.4437H39.8253C39.943 61.4437 40.0156 61.496 40.0434 61.612L40.1037 62.0936C40.2772 61.8848 40.4722 61.7049 40.6886 61.5715C40.9056 61.4381 41.1562 61.3684 41.4405 61.3684C41.7562 61.3684 42.0115 61.4554 42.2064 61.6294C42.4048 61.8093 42.547 62.0472 42.6334 62.3489C42.7019 62.1748 42.7884 62.0298 42.8934 61.9079C43.0019 61.7803 43.1226 61.6816 43.2554 61.6004C43.3889 61.5192 43.5293 61.4613 43.6778 61.4206C43.8298 61.3858 43.983 61.3684 44.1373 61.3684C44.3851 61.3684 44.605 61.409 44.7964 61.4902C44.9914 61.5656 45.1556 61.6817 45.2885 61.8326C45.4248 61.9834 45.5287 62.1691 45.5994 62.3953C45.6708 62.61 45.7062 62.8653 45.7062 63.1496V66.1434H44.8754V63.1496C44.8754 62.7841 44.7953 62.5055 44.634 62.314C44.4733 62.1226 44.2412 62.0239 43.9377 62.0239C43.802 62.0239 43.672 62.053 43.5478 62.0994C43.4272 62.1458 43.3204 62.2154 43.2276 62.3082C43.1347 62.4011 43.0605 62.5172 43.0048 62.6622C42.9526 62.8015 42.9259 62.964 42.9259 63.1496V66.1434H42.095V63.1496C42.095 62.7725 42.0196 62.4881 41.8676 62.3024C41.7161 62.1168 41.4951 62.0239 41.2038 62.0239C40.9996 62.0239 40.811 62.082 40.6375 62.1922C40.4646 62.3025 40.3051 62.4475 40.1595 62.639V66.1434H39.3286ZM49.6435 66.1434V62.1459L49.1236 62.0878C49.0586 62.0704 49.0047 62.0471 48.9612 62.0181C48.9211 61.9833 48.9008 61.9369 48.9008 61.8731V61.5367H49.6435V61.0783C49.6435 60.8114 49.6806 60.5735 49.7549 60.3646C49.8326 60.1558 49.9405 59.9758 50.0798 59.8365C50.2225 59.6915 50.3925 59.5814 50.5904 59.5059C50.7888 59.4305 51.0116 59.3957 51.2588 59.3957C51.4694 59.3957 51.6626 59.4247 51.839 59.4885L51.8204 59.9004C51.8146 59.9759 51.7728 60.0165 51.6951 60.0223C51.6208 60.0281 51.5204 60.0281 51.3934 60.0281C51.2512 60.0281 51.1213 60.0513 51.0035 60.0861C50.8892 60.121 50.79 60.1848 50.7064 60.266C50.6229 60.3531 50.5579 60.4632 50.5115 60.5967C50.4685 60.7301 50.4465 60.9042 50.4465 61.1015V61.5367H51.8018V62.1343H50.4743V66.1434H49.6435ZM55.1131 64.0258C54.7325 64.0374 54.4075 64.0721 54.1383 64.1185C53.872 64.165 53.6539 64.2288 53.4839 64.3042C53.3168 64.3855 53.1943 64.4725 53.1172 64.5769C53.0429 64.6872 53.0058 64.8031 53.0058 64.9308C53.0058 65.0584 53.0255 65.1629 53.0661 65.2499C53.1061 65.3427 53.1601 65.4182 53.2286 65.4763C53.2993 65.5285 53.3817 65.5749 53.4746 65.5981C53.5703 65.6271 53.6724 65.6386 53.7809 65.6386C53.926 65.6386 54.0594 65.6213 54.1801 65.5981C54.3008 65.5633 54.4133 65.5227 54.5189 65.4647C54.6269 65.4124 54.729 65.3428 54.8253 65.2673C54.9239 65.1861 55.0202 65.0991 55.1131 65.0005V64.0258ZM52.4441 62.1052C52.7041 61.8558 52.9837 61.6701 53.2843 61.5425C53.5842 61.4206 53.9167 61.3568 54.2822 61.3568C54.5451 61.3568 54.7789 61.4032 54.9831 61.4902C55.1873 61.5772 55.3591 61.6933 55.4983 61.85C55.6376 62.0066 55.7426 62.1923 55.814 62.4128C55.8847 62.6332 55.9207 62.8711 55.9207 63.138V66.1434H55.554C55.4734 66.1434 55.4113 66.1318 55.3684 66.1086C55.3248 66.0796 55.2906 66.0274 55.2662 65.9461L55.1734 65.5052C55.0493 65.6154 54.9286 65.7199 54.8114 65.8069C54.6936 65.8939 54.57 65.9694 54.44 66.0332C54.3101 66.0913 54.1708 66.1377 54.0223 66.1667C53.8767 66.2015 53.7142 66.2188 53.5349 66.2188C53.3521 66.2188 53.1804 66.1957 53.0197 66.1434C52.8584 66.0912 52.718 66.0159 52.5973 65.9114C52.4795 65.807 52.3849 65.6792 52.3142 65.5284C52.2457 65.3659 52.212 65.1803 52.212 64.9714C52.212 64.7858 52.2631 64.6059 52.3652 64.4377C52.4673 64.2636 52.6327 64.1069 52.8619 63.9735C53.0905 63.84 53.3893 63.7356 53.7577 63.6485C54.1256 63.5615 54.5775 63.5151 55.1131 63.5035V63.138C55.1131 62.7725 55.0342 62.4939 54.8763 62.3082C54.7185 62.1226 54.4876 62.0239 54.1847 62.0239C53.9805 62.0239 53.8088 62.053 53.6695 62.1052C53.5332 62.1575 53.4142 62.2097 53.3121 62.2793C53.2129 62.3374 53.1264 62.3953 53.0522 62.4475C52.9808 62.4997 52.9095 62.523 52.8387 62.523C52.783 62.523 52.7348 62.5113 52.6948 62.4823C52.6542 62.4475 52.6205 62.4127 52.5927 62.3721L52.4441 62.1052ZM57.1792 66.1434V61.4437H57.6758C57.7936 61.4437 57.8661 61.496 57.894 61.612L57.9543 62.0936C58.1278 61.8848 58.3228 61.7049 58.5392 61.5715C58.7556 61.4381 59.0062 61.3684 59.2911 61.3684C59.6068 61.3684 59.862 61.4554 60.057 61.6294C60.2548 61.8093 60.3976 62.0472 60.484 62.3489C60.5519 62.1748 60.6389 62.0298 60.744 61.9079C60.8525 61.7803 60.9731 61.6816 61.106 61.6004C61.2389 61.5192 61.3799 61.4613 61.5284 61.4206C61.6798 61.3858 61.833 61.3684 61.9879 61.3684C62.2357 61.3684 62.455 61.409 62.647 61.4902C62.842 61.5656 63.0062 61.6817 63.139 61.8326C63.2754 61.9834 63.3787 62.1691 63.45 62.3953C63.5214 62.61 63.5568 62.8653 63.5568 63.1496V66.1434H62.7259V63.1496C62.7259 62.7841 62.6453 62.5055 62.4846 62.314C62.3239 62.1226 62.0918 62.0239 61.7883 62.0239C61.652 62.0239 61.522 62.053 61.3984 62.0994C61.2777 62.1458 61.171 62.2154 61.0782 62.3082C60.9853 62.4011 60.9111 62.5172 60.8554 62.6622C60.8026 62.8015 60.7764 62.964 60.7764 63.1496V66.1434H59.9456V63.1496C59.9456 62.7725 59.8696 62.4881 59.7182 62.3024C59.5667 62.1168 59.3451 62.0239 59.0544 62.0239C58.8502 62.0239 58.6616 62.082 58.4881 62.1922C58.3146 62.3025 58.1557 62.4475 58.01 62.639V66.1434H57.1792ZM65.685 61.4437V66.1434H64.8588V61.4437H65.685ZM65.8614 59.9643C65.8614 60.0455 65.8445 60.1209 65.8103 60.1905C65.7796 60.2602 65.736 60.324 65.6803 60.3762C65.6275 60.4285 65.5643 60.4749 65.49 60.5039C65.4187 60.5329 65.3432 60.5503 65.2626 60.5503C65.1819 60.5503 65.1065 60.5329 65.0352 60.5039C64.9673 60.4749 64.9069 60.4285 64.8541 60.3762C64.8013 60.324 64.7596 60.2602 64.7288 60.1905C64.6981 60.1209 64.6824 60.0455 64.6824 59.9643C64.6824 59.8831 64.6981 59.8076 64.7288 59.738C64.7596 59.6625 64.8013 59.5987 64.8541 59.5464C64.9069 59.4942 64.9673 59.4478 65.0352 59.4188C65.1065 59.384 65.1819 59.3725 65.2626 59.3725C65.3432 59.3725 65.4187 59.384 65.49 59.4188C65.5643 59.4478 65.6275 59.4942 65.6803 59.5464C65.736 59.5987 65.7796 59.6625 65.8103 59.738C65.8445 59.8076 65.8614 59.8831 65.8614 59.9643ZM67.8967 59.3086V66.1434H67.0705V59.3086H67.8967ZM70.109 61.4437V66.1434H69.2828V61.4437H70.109ZM70.2854 59.9643C70.2854 60.0455 70.2686 60.1209 70.2344 60.1905C70.2036 60.2602 70.1601 60.324 70.1044 60.3762C70.0516 60.4285 69.9884 60.4749 69.9141 60.5039C69.8427 60.5329 69.7673 60.5503 69.6867 60.5503C69.606 60.5503 69.5306 60.5329 69.4592 60.5039C69.3913 60.4749 69.331 60.4285 69.2782 60.3762C69.2254 60.324 69.1836 60.2602 69.1529 60.1905C69.1221 60.1209 69.1064 60.0455 69.1064 59.9643C69.1064 59.8831 69.1221 59.8076 69.1529 59.738C69.1836 59.6625 69.2254 59.5987 69.2782 59.5464C69.331 59.4942 69.3913 59.4478 69.4592 59.4188C69.5306 59.384 69.606 59.3725 69.6867 59.3725C69.7673 59.3725 69.8427 59.384 69.9141 59.4188C69.9884 59.4478 70.0516 59.4942 70.1044 59.5464C70.1601 59.5987 70.2036 59.6625 70.2344 59.738C70.2686 59.8076 70.2854 59.8831 70.2854 59.9643ZM74.6138 63.2773C74.6138 63.0858 74.5859 62.9117 74.5302 62.755C74.4774 62.5925 74.3985 62.4591 74.2935 62.3431C74.1914 62.227 74.066 62.1342 73.9175 62.0704C73.769 62.0066 73.6001 61.9776 73.4116 61.9776C73.0153 61.9776 72.7014 62.0936 72.4693 62.3257C72.2401 62.5519 72.098 62.8711 72.0423 63.2773H74.6138ZM75.2822 65.4821C75.18 65.6097 75.0576 65.714 74.9155 65.8069C74.7733 65.8997 74.6201 65.9752 74.4559 66.0332C74.2952 66.0913 74.1281 66.1319 73.9546 66.1609C73.7812 66.1957 73.6094 66.2073 73.4394 66.2073C73.1145 66.2073 72.8145 66.1551 72.5389 66.0449C72.2668 65.9346 72.0301 65.7721 71.8288 65.5632C71.6309 65.3486 71.476 65.0874 71.3646 64.7741C71.2532 64.4608 71.1975 64.1011 71.1975 63.695C71.1975 63.3701 71.2468 63.0625 71.346 62.7782C71.4482 62.4939 71.5938 62.2502 71.7824 62.0414C71.9709 61.8325 72.2018 61.6643 72.474 61.5483C72.7461 61.4264 73.0524 61.3684 73.393 61.3684C73.6744 61.3684 73.9343 61.4148 74.1728 61.5134C74.4142 61.6063 74.6213 61.7397 74.7948 61.9195C74.9712 62.0936 75.1087 62.3142 75.2079 62.581C75.3071 62.8363 75.3564 63.1379 75.3564 63.4686C75.3564 63.6021 75.3425 63.6892 75.3146 63.7298C75.2868 63.7705 75.234 63.7936 75.1568 63.7936H72.0144C72.0237 64.0895 72.0638 64.3506 72.1351 64.5711C72.2094 64.7916 72.3115 64.9714 72.4415 65.1223C72.5714 65.2673 72.7263 65.3776 72.9056 65.453C73.0849 65.5227 73.2863 65.5574 73.509 65.5574C73.7162 65.5574 73.8943 65.5343 74.0428 65.4879C74.1943 65.4415 74.3242 65.3892 74.4327 65.3312C74.5412 65.2732 74.6306 65.2268 74.7019 65.1804C74.7762 65.1281 74.8395 65.1049 74.8923 65.1049C74.9601 65.1049 75.0129 65.1281 75.0501 65.1804L75.2822 65.4821ZM76.2319 65.6329C76.2319 65.5517 76.2459 65.4762 76.2737 65.4066C76.3045 65.3369 76.3451 65.2731 76.3944 65.2209C76.4472 65.1686 76.5087 65.1281 76.5801 65.0932C76.6514 65.0642 76.7269 65.0469 76.8075 65.0469C76.8882 65.0469 76.9636 65.0642 77.035 65.0932C77.1063 65.1281 77.1678 65.1686 77.2206 65.2209C77.2734 65.2731 77.3152 65.3369 77.3459 65.4066C77.3767 65.4762 77.3924 65.5517 77.3924 65.6329C77.3924 65.7142 77.3767 65.7953 77.3459 65.865C77.3152 65.9346 77.2734 65.9926 77.2206 66.0449C77.1678 66.0971 77.1063 66.1377 77.035 66.1667C76.9636 66.1957 76.8882 66.2131 76.8075 66.2131C76.7269 66.2131 76.6514 66.1957 76.5801 66.1667C76.5087 66.1377 76.4472 66.0971 76.3944 66.0449C76.3451 65.9926 76.3045 65.9346 76.2737 65.865C76.2459 65.7953 76.2319 65.7142 76.2319 65.6329ZM84.9089 65.3891V66.1434H81.1353V59.4943H82.0311V65.3891H84.9089ZM87.3556 61.3684C87.6991 61.3684 88.0084 61.4264 88.284 61.5367C88.559 61.6527 88.7945 61.8151 88.9895 62.0239C89.1844 62.2386 89.333 62.4939 89.4351 62.7898C89.5401 63.0915 89.5929 63.4222 89.5929 63.7878C89.5929 64.1591 89.5401 64.4956 89.4351 64.7915C89.333 65.0874 89.1844 65.3427 88.9895 65.5516C88.7945 65.7663 88.559 65.9288 88.284 66.039C88.0084 66.1551 87.6991 66.2073 87.3556 66.2073C87.0087 66.2073 86.6965 66.1551 86.418 66.039C86.1424 65.9288 85.9074 65.7663 85.7125 65.5516C85.5175 65.3427 85.3673 65.0874 85.2622 64.7915C85.1601 64.4956 85.1091 64.1591 85.1091 63.7878C85.1091 63.4222 85.1601 63.0915 85.2622 62.7898C85.3673 62.4939 85.5175 62.2386 85.7125 62.0239C85.9074 61.8151 86.1424 61.6527 86.418 61.5367C86.6965 61.4264 87.0087 61.3684 87.3556 61.3684ZM87.3556 65.5632C87.8198 65.5632 88.1662 65.4066 88.3954 65.099C88.624 64.7857 88.7388 64.3506 88.7388 63.7936C88.7388 63.2366 88.624 62.7956 88.3954 62.4881C88.1662 62.1748 87.8198 62.0181 87.3556 62.0181C87.1201 62.0181 86.9147 62.0589 86.7383 62.1401C86.5648 62.2155 86.4192 62.3315 86.302 62.4881C86.1871 62.639 86.1007 62.8246 86.0421 63.0451C85.9864 63.2656 85.9585 63.5151 85.9585 63.7936C85.9585 64.3506 86.0728 64.7857 86.302 65.099C86.5341 65.4066 86.8851 65.5632 87.3556 65.5632ZM91.4252 62.3837C91.5737 62.0646 91.7559 61.8093 91.9729 61.6294C92.1893 61.4496 92.4539 61.3568 92.7666 61.3568C92.8652 61.3568 92.9598 61.3684 93.0498 61.3916C93.1426 61.4148 93.2244 61.4438 93.2958 61.4902L93.2354 62.111C93.2169 62.1865 93.1705 62.2271 93.0962 62.2271C93.0527 62.2271 92.9894 62.2154 92.9059 62.198C92.8223 62.1806 92.7277 62.169 92.6227 62.169C92.4742 62.169 92.3408 62.1923 92.2236 62.2329C92.1087 62.2793 92.0054 62.3432 91.9126 62.4302C91.8226 62.5114 91.7408 62.6215 91.6666 62.7434C91.5952 62.871 91.5302 63.0103 91.4716 63.1727V66.1434H90.6408V61.4437H91.1142C91.2035 61.4437 91.2656 61.4612 91.2999 61.4902C91.3335 61.525 91.3567 61.5831 91.3695 61.6701L91.4252 62.3837ZM98.9365 62.2154C98.8994 62.2851 98.8419 62.3198 98.7648 62.3198C98.7184 62.3198 98.6656 62.3025 98.607 62.2677C98.5484 62.2329 98.4753 62.198 98.3888 62.1574C98.3053 62.111 98.2049 62.0762 98.0871 62.0414C97.9693 62.0007 97.8301 61.9834 97.6694 61.9834C97.5301 61.9834 97.4048 62.0007 97.2934 62.0414C97.182 62.0762 97.0862 62.1226 97.0056 62.1864C96.9284 62.2444 96.8681 62.3199 96.8246 62.4012C96.7845 62.4824 96.7642 62.5694 96.7642 62.668C96.7642 62.7899 96.7985 62.8885 96.8663 62.9697C96.9377 63.051 97.0305 63.1205 97.1449 63.1785C97.2592 63.2366 97.3891 63.2888 97.5347 63.3352C97.6804 63.3758 97.8289 63.428 97.9803 63.4803C98.1353 63.5267 98.285 63.5847 98.4306 63.6485C98.5762 63.7066 98.7062 63.7879 98.8205 63.8807C98.9348 63.9735 99.0264 64.0837 99.0943 64.2229C99.1657 64.3564 99.2011 64.5131 99.2011 64.7045C99.2011 64.9192 99.1622 65.1223 99.085 65.308C99.0079 65.4878 98.893 65.6502 98.7416 65.7836C98.5901 65.9171 98.4045 66.0216 98.1846 66.1028C97.9647 66.1782 97.7111 66.2188 97.4233 66.2188C97.0955 66.2188 96.7985 66.1667 96.5322 66.0623C96.2658 65.952 96.0401 65.8127 95.8545 65.6444L96.0494 65.3312C96.0744 65.2906 96.1034 65.2615 96.1376 65.2383C96.1719 65.2151 96.2148 65.2034 96.2676 65.2034C96.3233 65.2034 96.3819 65.2267 96.444 65.2731C96.506 65.3138 96.5803 65.3602 96.6668 65.4124C96.7567 65.4646 96.8646 65.5168 96.9917 65.5574C97.1187 65.6038 97.2766 65.6213 97.4651 65.6213C97.6258 65.6213 97.7668 65.6039 97.8875 65.5632C98.0082 65.5226 98.1086 65.4646 98.1892 65.3891C98.2699 65.3195 98.3285 65.2383 98.3656 65.1455C98.4056 65.0527 98.4259 64.954 98.4259 64.8496C98.4259 64.7162 98.3905 64.6117 98.3192 64.5305C98.2513 64.4434 98.1596 64.3681 98.0453 64.31C97.931 64.2462 97.7993 64.194 97.6508 64.1534C97.5051 64.107 97.3555 64.0605 97.2006 64.0083C97.0491 63.9561 96.8988 63.9039 96.7503 63.84C96.6047 63.7762 96.4747 63.695 96.3604 63.6022C96.2461 63.5036 96.1533 63.3875 96.0819 63.2482C96.014 63.1032 95.9798 62.935 95.9798 62.7319C95.9798 62.552 96.0169 62.3779 96.0912 62.2154C96.1655 62.0472 96.274 61.9021 96.4161 61.7803C96.5583 61.6526 96.7335 61.554 96.9406 61.4786C97.1477 61.4031 97.3845 61.3684 97.6508 61.3684C97.96 61.3684 98.2374 61.4148 98.4816 61.5134C98.7294 61.6121 98.9429 61.7455 99.1222 61.9137L98.9365 62.2154ZM103.361 63.2773C103.361 63.0858 103.333 62.9117 103.278 62.755C103.225 62.5925 103.146 62.4591 103.041 62.3431C102.939 62.227 102.813 62.1342 102.665 62.0704C102.516 62.0066 102.348 61.9776 102.159 61.9776C101.763 61.9776 101.449 62.0936 101.217 62.3257C100.988 62.5519 100.845 62.8711 100.79 63.2773H103.361ZM104.03 65.4821C103.927 65.6097 103.805 65.714 103.663 65.8069C103.52 65.8997 103.367 65.9752 103.203 66.0332C103.042 66.0913 102.875 66.1319 102.702 66.1609C102.529 66.1957 102.357 66.2073 102.187 66.2073C101.862 66.2073 101.561 66.1551 101.286 66.0449C101.014 65.9346 100.777 65.7721 100.576 65.5632C100.378 65.3486 100.223 65.0874 100.112 64.7741C100.001 64.4608 99.9449 64.1011 99.9449 63.695C99.9449 63.3701 99.9942 63.0625 100.093 62.7782C100.196 62.4939 100.341 62.2502 100.53 62.0414C100.718 61.8325 100.949 61.6643 101.221 61.5483C101.493 61.4264 101.8 61.3684 102.14 61.3684C102.422 61.3684 102.682 61.4148 102.92 61.5134C103.162 61.6063 103.369 61.7397 103.542 61.9195C103.719 62.0936 103.856 62.3142 103.955 62.581C104.054 62.8363 104.104 63.1379 104.104 63.4686C104.104 63.6021 104.09 63.6892 104.062 63.7298C104.034 63.7705 103.981 63.7936 103.904 63.7936H100.762C100.771 64.0895 100.811 64.3506 100.883 64.5711C100.957 64.7916 101.059 64.9714 101.189 65.1223C101.319 65.2673 101.473 65.3776 101.653 65.453C101.832 65.5227 102.034 65.5574 102.256 65.5574C102.464 65.5574 102.642 65.5343 102.79 65.4879C102.942 65.4415 103.072 65.3892 103.18 65.3312C103.288 65.2732 103.378 65.2268 103.449 65.1804C103.524 65.1281 103.587 65.1049 103.64 65.1049C103.708 65.1049 103.76 65.1281 103.797 65.1804L104.03 65.4821ZM105.949 65.0121C106.101 65.2151 106.267 65.3602 106.446 65.4414C106.625 65.5285 106.827 65.569 107.05 65.569C107.489 65.569 107.826 65.4124 108.061 65.099C108.296 64.7857 108.414 64.339 108.414 63.7645C108.414 63.457 108.386 63.1902 108.331 62.9755C108.278 62.7551 108.201 62.5752 108.099 62.436C107.996 62.2909 107.871 62.1865 107.723 62.1227C107.574 62.0588 107.405 62.0239 107.217 62.0239C106.947 62.0239 106.711 62.0878 106.506 62.2096C106.305 62.3373 106.119 62.5113 105.949 62.7376V65.0121ZM105.908 62.169C106.106 61.9253 106.335 61.728 106.595 61.583C106.855 61.4321 107.152 61.3568 107.486 61.3568C107.758 61.3568 108.004 61.409 108.224 61.5134C108.444 61.6179 108.631 61.7687 108.785 61.9776C108.94 62.1749 109.059 62.4244 109.143 62.7261C109.226 63.0278 109.268 63.37 109.268 63.7645C109.268 64.1069 109.222 64.4319 109.129 64.7336C109.036 65.0295 108.902 65.2905 108.725 65.5052C108.552 65.7256 108.338 65.894 108.085 66.0216C107.834 66.1493 107.551 66.2073 107.235 66.2073C106.947 66.2073 106.7 66.1609 106.493 66.0623C106.288 65.9636 106.107 65.8301 105.949 65.656V67.7332H105.119V61.4437H105.615C105.733 61.4437 105.806 61.496 105.833 61.612L105.908 62.169ZM112.871 64.0258C112.49 64.0374 112.165 64.0721 111.896 64.1185C111.63 64.165 111.412 64.2288 111.242 64.3042C111.074 64.3855 110.952 64.4725 110.875 64.5769C110.801 64.6872 110.763 64.8031 110.763 64.9308C110.763 65.0584 110.783 65.1629 110.824 65.2499C110.864 65.3427 110.918 65.4182 110.986 65.4763C111.057 65.5285 111.139 65.5749 111.232 65.5981C111.328 65.6271 111.43 65.6386 111.539 65.6386C111.684 65.6386 111.817 65.6213 111.938 65.5981C112.058 65.5633 112.171 65.5227 112.277 65.4647C112.385 65.4124 112.487 65.3428 112.583 65.2673C112.682 65.1861 112.778 65.0991 112.871 65.0005V64.0258ZM110.202 62.1052C110.462 61.8558 110.741 61.6701 111.042 61.5425C111.342 61.4206 111.674 61.3568 112.04 61.3568C112.303 61.3568 112.537 61.4032 112.741 61.4902C112.945 61.5772 113.117 61.6933 113.256 61.85C113.395 62.0066 113.5 62.1923 113.572 62.4128C113.642 62.6332 113.678 62.8711 113.678 63.138V66.1434H113.312C113.231 66.1434 113.169 66.1318 113.126 66.1086C113.083 66.0796 113.048 66.0274 113.024 65.9461L112.931 65.5052C112.807 65.6154 112.686 65.7199 112.569 65.8069C112.451 65.8939 112.328 65.9694 112.198 66.0332C112.068 66.0913 111.928 66.1377 111.78 66.1667C111.634 66.2015 111.472 66.2188 111.293 66.2188C111.11 66.2188 110.938 66.1957 110.777 66.1434C110.616 66.0912 110.476 66.0159 110.355 65.9114C110.237 65.807 110.143 65.6792 110.072 65.5284C110.003 65.3659 109.97 65.1803 109.97 64.9714C109.97 64.7858 110.021 64.6059 110.123 64.4377C110.225 64.2636 110.39 64.1069 110.62 63.9735C110.848 63.84 111.147 63.7356 111.515 63.6485C111.883 63.5615 112.335 63.5151 112.871 63.5035V63.138C112.871 62.7725 112.792 62.4939 112.634 62.3082C112.476 62.1226 112.245 62.0239 111.942 62.0239C111.738 62.0239 111.566 62.053 111.427 62.1052C111.291 62.1575 111.172 62.2097 111.07 62.2793C110.971 62.3374 110.884 62.3953 110.81 62.4475C110.738 62.4997 110.667 62.523 110.596 62.523C110.541 62.523 110.492 62.5113 110.452 62.4823C110.412 62.4475 110.378 62.4127 110.35 62.3721L110.202 62.1052ZM115.721 62.3837C115.87 62.0646 116.052 61.8093 116.269 61.6294C116.485 61.4496 116.75 61.3568 117.063 61.3568C117.161 61.3568 117.256 61.3684 117.346 61.3916C117.439 61.4148 117.52 61.4438 117.592 61.4902L117.532 62.111C117.513 62.1865 117.467 62.2271 117.392 62.2271C117.349 62.2271 117.285 62.2154 117.202 62.198C117.118 62.1806 117.024 62.169 116.919 62.169C116.77 62.169 116.637 62.1923 116.52 62.2329C116.405 62.2793 116.301 62.3432 116.209 62.4302C116.119 62.5114 116.037 62.6215 115.963 62.7434C115.891 62.871 115.826 63.0103 115.768 63.1727V66.1434H114.937V61.4437H115.41C115.5 61.4437 115.562 61.4612 115.596 61.4902C115.63 61.525 115.653 61.5831 115.666 61.6701L115.721 62.3837ZM120.794 64.0258C120.413 64.0374 120.088 64.0721 119.819 64.1185C119.553 64.165 119.335 64.2288 119.165 64.3042C118.998 64.3855 118.875 64.4725 118.798 64.5769C118.724 64.6872 118.687 64.8031 118.687 64.9308C118.687 65.0584 118.707 65.1629 118.747 65.2499C118.787 65.3427 118.842 65.4182 118.909 65.4763C118.981 65.5285 119.063 65.5749 119.156 65.5981C119.251 65.6271 119.353 65.6386 119.462 65.6386C119.607 65.6386 119.74 65.6213 119.861 65.5981C119.982 65.5633 120.095 65.5227 120.2 65.4647C120.308 65.4124 120.41 65.3428 120.506 65.2673C120.605 65.1861 120.701 65.0991 120.794 65.0005V64.0258ZM118.125 62.1052C118.385 61.8558 118.665 61.6701 118.965 61.5425C119.265 61.4206 119.598 61.3568 119.963 61.3568C120.226 61.3568 120.46 61.4032 120.664 61.4902C120.868 61.5772 121.04 61.6933 121.179 61.85C121.318 62.0066 121.424 62.1923 121.495 62.4128C121.566 62.6332 121.602 62.8711 121.602 63.138V66.1434H121.235C121.154 66.1434 121.093 66.1318 121.049 66.1086C121.006 66.0796 120.972 66.0274 120.947 65.9461L120.854 65.5052C120.731 65.6154 120.61 65.7199 120.492 65.8069C120.375 65.8939 120.251 65.9694 120.121 66.0332C119.991 66.0913 119.852 66.1377 119.703 66.1667C119.558 66.2015 119.395 66.2188 119.216 66.2188C119.033 66.2188 118.861 66.1957 118.701 66.1434C118.54 66.0912 118.399 66.0159 118.278 65.9114C118.16 65.807 118.066 65.6792 117.995 65.5284C117.927 65.3659 117.893 65.1803 117.893 64.9714C117.893 64.7858 117.944 64.6059 118.046 64.4377C118.148 64.2636 118.314 64.1069 118.543 63.9735C118.772 63.84 119.07 63.7356 119.439 63.6485C119.807 63.5615 120.258 63.5151 120.794 63.5035V63.138C120.794 62.7725 120.715 62.4939 120.557 62.3082C120.399 62.1226 120.169 62.0239 119.866 62.0239C119.661 62.0239 119.49 62.053 119.35 62.1052C119.214 62.1575 119.095 62.2097 118.993 62.2793C118.894 62.3374 118.807 62.3953 118.733 62.4475C118.662 62.4997 118.591 62.523 118.52 62.523C118.464 62.523 118.416 62.5113 118.376 62.4823C118.336 62.4475 118.301 62.4127 118.274 62.3721L118.125 62.1052ZM124.24 66.2188C123.869 66.2188 123.582 66.1145 123.382 65.9056C123.183 65.6967 123.085 65.4008 123.085 65.0121V62.1343H122.518C122.468 62.1343 122.427 62.1168 122.393 62.0936C122.359 62.0588 122.342 62.0124 122.342 61.9544V61.6236L123.112 61.525L123.303 60.0745C123.312 60.0281 123.332 59.9875 123.363 59.9585C123.397 59.9295 123.44 59.912 123.493 59.912H123.911V61.5367H125.271V62.1343H123.911V64.954C123.911 65.1513 123.958 65.3021 124.055 65.395C124.15 65.4936 124.274 65.54 124.426 65.54C124.513 65.54 124.587 65.5284 124.649 65.5052C124.714 65.482 124.77 65.4588 124.816 65.4298C124.862 65.4008 124.901 65.3775 124.932 65.3543C124.966 65.3311 124.995 65.3196 125.02 65.3196C125.063 65.3196 125.102 65.3427 125.136 65.395L125.378 65.7895C125.235 65.9229 125.063 66.0274 124.862 66.1086C124.661 66.1782 124.454 66.2188 124.24 66.2188ZM19.1769 77.2022C19.1769 77.0107 19.1491 76.8366 19.0934 76.6799C19.0406 76.5175 18.9617 76.384 18.8567 76.268C18.7545 76.152 18.6292 76.0591 18.4807 75.9953C18.3321 75.9315 18.1633 75.9025 17.9747 75.9025C17.5785 75.9025 17.2646 76.0185 17.0325 76.2506C16.8033 76.4768 16.6612 76.796 16.6055 77.2022H19.1769ZM19.8453 79.407C19.7432 79.5346 19.6208 79.639 19.4786 79.7318C19.3365 79.8246 19.1833 79.9001 19.0191 79.9582C18.8584 80.0162 18.6913 80.0568 18.5178 80.0858C18.3443 80.1206 18.1726 80.1322 18.0026 80.1322C17.6777 80.1322 17.3777 80.08 17.1021 79.9698C16.83 79.8595 16.5933 79.697 16.3919 79.4882C16.1941 79.2735 16.0392 79.0123 15.9278 78.699C15.8164 78.3857 15.7607 78.0261 15.7607 77.6199C15.7607 77.295 15.81 76.9874 15.9092 76.7031C16.0113 76.4188 16.157 76.1751 16.3455 75.9663C16.5341 75.7574 16.765 75.5892 17.0371 75.4732C17.3092 75.3513 17.6156 75.2933 17.9562 75.2933C18.2376 75.2933 18.4975 75.3397 18.736 75.4383C18.9773 75.5312 19.1845 75.6646 19.3579 75.8445C19.5343 76.0185 19.6718 76.2391 19.7711 76.506C19.8703 76.7613 19.9196 77.0628 19.9196 77.3936C19.9196 77.527 19.9057 77.6141 19.8778 77.6548C19.85 77.6954 19.7972 77.7185 19.72 77.7185H16.5776C16.5869 78.0144 16.6269 78.2755 16.6983 78.496C16.7726 78.7165 16.8747 78.8963 17.0046 79.0472C17.1346 79.1922 17.2895 79.3025 17.4688 79.378C17.6481 79.4476 17.8494 79.4823 18.0722 79.4823C18.2793 79.4823 18.4575 79.4592 18.606 79.4128C18.7574 79.3664 18.8874 79.3142 18.9959 79.2561C19.1044 79.1981 19.1937 79.1517 19.2651 79.1053C19.3394 79.0531 19.4026 79.0298 19.4554 79.0298C19.5233 79.0298 19.5761 79.0531 19.6132 79.1053L19.8453 79.407ZM24.733 80.0684H23.9392C23.8708 80.0684 23.8168 80.0509 23.7768 80.0161C23.7397 79.9813 23.7083 79.9407 23.684 79.8943L22.5003 78.0551C22.4876 78.0957 22.4736 78.1421 22.4586 78.1827C22.4458 78.2233 22.4272 78.2639 22.4029 78.2929L21.3074 79.8943C21.2761 79.9407 21.2425 79.9813 21.2053 80.0161C21.1711 80.0509 21.1229 80.0684 21.0614 80.0684H20.3234L21.9712 77.6548L20.3884 75.3686H21.1821C21.25 75.3686 21.2993 75.3745 21.3306 75.3977C21.3614 75.4209 21.3892 75.45 21.4142 75.4906L22.57 77.2543C22.5943 77.1673 22.6332 77.0803 22.686 76.9932L23.6979 75.5079C23.7257 75.4673 23.7547 75.4325 23.7861 75.4093C23.8197 75.3803 23.8603 75.3686 23.9068 75.3686H24.668L23.0852 77.6141L24.733 80.0684ZM26.3674 75.3686V80.0684H25.5412V75.3686H26.3674ZM26.5438 73.8892C26.5438 73.9705 26.5264 74.0458 26.4927 74.1155C26.4614 74.1851 26.4185 74.2489 26.3628 74.3012C26.31 74.3534 26.2467 74.3998 26.1724 74.4288C26.1011 74.4578 26.0251 74.4752 25.945 74.4752C25.8644 74.4752 25.7884 74.4578 25.7176 74.4288C25.6491 74.3998 25.5888 74.3534 25.5366 74.3012C25.4838 74.2489 25.442 74.1851 25.4112 74.1155C25.3799 74.0458 25.3648 73.9705 25.3648 73.8892C25.3648 73.808 25.3799 73.7325 25.4112 73.6629C25.442 73.5875 25.4838 73.5236 25.5366 73.4714C25.5888 73.4191 25.6491 73.3727 25.7176 73.3437C25.7884 73.3089 25.8644 73.2974 25.945 73.2974C26.0251 73.2974 26.1011 73.3089 26.1724 73.3437C26.2467 73.3727 26.31 73.4191 26.3628 73.4714C26.4185 73.5236 26.4614 73.5875 26.4927 73.6629C26.5264 73.7325 26.5438 73.808 26.5438 73.8892ZM30.4631 76.1404C30.4259 76.21 30.3691 76.2448 30.2913 76.2448C30.2449 76.2448 30.1927 76.2274 30.1335 76.1926C30.0749 76.1578 30.0024 76.1229 29.9154 76.0823C29.8318 76.0359 29.7314 76.0011 29.6136 75.9663C29.4964 75.9257 29.3572 75.9083 29.1959 75.9083C29.0567 75.9083 28.9313 75.9257 28.8199 75.9663C28.7085 76.0011 28.6128 76.0475 28.5321 76.1113C28.455 76.1693 28.3946 76.2448 28.3511 76.3261C28.3111 76.4073 28.2908 76.4943 28.2908 76.5929C28.2908 76.7148 28.325 76.8134 28.3929 76.8947C28.4643 76.9759 28.5571 77.0454 28.6714 77.1035C28.7863 77.1615 28.9162 77.2137 29.0613 77.2601C29.2069 77.3007 29.3555 77.353 29.5069 77.4052C29.6618 77.4516 29.8121 77.5096 29.9571 77.5735C30.1028 77.6315 30.2327 77.7128 30.347 77.8056C30.4619 77.8985 30.553 78.0086 30.6209 78.1478C30.6923 78.2813 30.7276 78.438 30.7276 78.6295C30.7276 78.8441 30.6893 79.0472 30.6116 79.2329C30.5344 79.4128 30.4201 79.5751 30.2681 79.7086C30.1167 79.842 29.931 79.9465 29.7111 80.0277C29.4918 80.1031 29.2377 80.1437 28.9499 80.1437C28.6221 80.1437 28.325 80.0916 28.0587 79.9872C27.793 79.877 27.5667 79.7376 27.381 79.5693L27.576 79.2561C27.6009 79.2155 27.6305 79.1864 27.6642 79.1632C27.6984 79.14 27.7419 79.1284 27.7941 79.1284C27.8498 79.1284 27.909 79.1516 27.9705 79.1981C28.0326 79.2387 28.1069 79.2851 28.1933 79.3373C28.2832 79.3895 28.3917 79.4417 28.5182 79.4823C28.6453 79.5288 28.8031 79.5462 28.9917 79.5462C29.153 79.5462 29.2934 79.5288 29.4141 79.4882C29.5347 79.4475 29.6357 79.3895 29.7158 79.3141C29.7964 79.2444 29.855 79.1633 29.8921 79.0704C29.9328 78.9776 29.9525 78.879 29.9525 78.7745C29.9525 78.6411 29.9171 78.5366 29.8457 78.4554C29.7778 78.3683 29.6868 78.293 29.5719 78.235C29.4576 78.1711 29.3259 78.1189 29.1773 78.0783C29.0323 78.0319 28.882 77.9855 28.7271 77.9332C28.5757 77.881 28.4254 77.8288 28.2769 77.765C28.1318 77.7011 28.0018 77.62 27.887 77.5271C27.7727 77.4285 27.6798 77.3124 27.6085 77.1731C27.5406 77.0281 27.5063 76.8599 27.5063 76.6568C27.5063 76.477 27.5435 76.3028 27.6177 76.1404C27.692 75.9721 27.8005 75.8271 27.9427 75.7052C28.0854 75.5776 28.26 75.4789 28.4672 75.4035C28.6749 75.3281 28.9116 75.2933 29.1773 75.2933C29.4872 75.2933 29.7639 75.3397 30.0082 75.4383C30.2559 75.537 30.4695 75.6704 30.6487 75.8386L30.4631 76.1404ZM33.1842 80.1437C32.8129 80.1437 32.5269 80.0394 32.3255 79.8305C32.1277 79.6217 32.0285 79.3257 32.0285 78.937V76.0592H31.4622C31.4129 76.0592 31.3711 76.0418 31.3369 76.0185C31.3026 75.9837 31.2858 75.9373 31.2858 75.8793V75.5485L32.0563 75.45L32.2466 73.9994C32.2559 73.953 32.2762 73.9124 32.307 73.8834C32.3412 73.8544 32.3841 73.837 32.4369 73.837H32.8547V75.4616H34.2147V76.0592H32.8547V78.8789C32.8547 79.0762 32.9028 79.227 32.9986 79.3199C33.0943 79.4185 33.2185 79.4649 33.3699 79.4649C33.4564 79.4649 33.5306 79.4533 33.5927 79.4301C33.6577 79.4069 33.7134 79.3837 33.7598 79.3547C33.8062 79.3257 33.8451 79.3024 33.8758 79.2792C33.9101 79.256 33.9391 79.2445 33.964 79.2445C34.0075 79.2445 34.0458 79.2677 34.0801 79.3199L34.3214 79.7144C34.1793 79.8478 34.0075 79.9523 33.8062 80.0335C33.6049 80.1031 33.3977 80.1437 33.1842 80.1437ZM38.1879 77.2022C38.1879 77.0107 38.1601 76.8366 38.1044 76.6799C38.0516 76.5175 37.9727 76.384 37.8676 76.268C37.7655 76.152 37.6402 76.0591 37.4917 75.9953C37.3431 75.9315 37.1743 75.9025 36.9857 75.9025C36.5895 75.9025 36.2756 76.0185 36.0435 76.2506C35.8143 76.4768 35.6721 76.796 35.6164 77.2022H38.1879ZM38.8563 79.407C38.7542 79.5346 38.6318 79.639 38.4896 79.7318C38.3469 79.8246 38.1937 79.9001 38.0301 79.9582C37.8688 80.0162 37.7017 80.0568 37.5288 80.0858C37.3553 80.1206 37.1836 80.1322 37.0136 80.1322C36.6887 80.1322 36.3881 80.08 36.1131 79.9698C35.8404 79.8595 35.6037 79.697 35.4029 79.4882C35.2045 79.2735 35.0502 79.0123 34.9388 78.699C34.8274 78.3857 34.7717 78.0261 34.7717 77.6199C34.7717 77.295 34.821 76.9874 34.9202 76.7031C35.0223 76.4188 35.1674 76.1751 35.3565 75.9663C35.5451 75.7574 35.7754 75.5892 36.0481 75.4732C36.3202 75.3513 36.6266 75.2933 36.9672 75.2933C37.2486 75.2933 37.5085 75.3397 37.747 75.4383C37.9883 75.5312 38.1955 75.6646 38.3689 75.8445C38.5453 76.0185 38.6828 76.2391 38.782 76.506C38.8807 76.7613 38.9306 77.0628 38.9306 77.3936C38.9306 77.527 38.9167 77.6141 38.8888 77.6548C38.861 77.6954 38.8082 77.7185 38.731 77.7185H35.5886C35.5979 78.0144 35.6379 78.2755 35.7093 78.496C35.7836 78.7165 35.8857 78.8963 36.0156 79.0472C36.1456 79.1922 36.2999 79.3025 36.4798 79.378C36.6591 79.4476 36.8604 79.4823 37.0832 79.4823C37.2903 79.4823 37.4685 79.4592 37.617 79.4128C37.7684 79.3664 37.8984 79.3142 38.0069 79.2561C38.1148 79.1981 38.2047 79.1517 38.2761 79.1053C38.3504 79.0531 38.4136 79.0298 38.4664 79.0298C38.5343 79.0298 38.5871 79.0531 38.6242 79.1053L38.8563 79.407ZM40.7251 76.0476C40.8273 75.9315 40.9352 75.8329 41.0501 75.7401C41.1644 75.6472 41.285 75.5659 41.4121 75.5021C41.5421 75.4325 41.6778 75.3804 41.8206 75.3456C41.9656 75.3107 42.1223 75.2933 42.2894 75.2933C42.5458 75.2933 42.7721 75.3339 42.9671 75.4209C43.1649 75.5079 43.3291 75.6241 43.4591 75.7865C43.5919 75.9374 43.6923 76.1288 43.7608 76.3435C43.8287 76.564 43.8629 76.8077 43.8629 77.0746V80.0684H43.032V77.0746C43.032 76.7206 42.9497 76.442 42.786 76.2506C42.6247 76.0475 42.3787 75.9489 42.048 75.9489C41.8032 75.9489 41.5746 76.0127 41.3611 76.1287C41.1504 76.2448 40.9555 76.4073 40.7762 76.6046V80.0684H39.9454V75.3686H40.442C40.5592 75.3686 40.6323 75.4209 40.6602 75.5369L40.7251 76.0476ZM46.5017 80.1437C46.1303 80.1437 45.8443 80.0394 45.643 79.8305C45.4451 79.6217 45.3459 79.3257 45.3459 78.937V76.0592H44.7796C44.7303 76.0592 44.6885 76.0418 44.6543 76.0185C44.6206 75.9837 44.6032 75.9373 44.6032 75.8793V75.5485L45.3738 75.45L45.5641 73.9994C45.5733 73.953 45.5936 73.9124 45.6244 73.8834C45.6586 73.8544 45.7021 73.837 45.7544 73.837H46.1721V75.4616H47.5321V76.0592H46.1721V78.8789C46.1721 79.0762 46.2203 79.227 46.316 79.3199C46.4123 79.4185 46.5359 79.4649 46.6873 79.4649C46.7744 79.4649 46.8486 79.4533 46.9101 79.4301C46.9751 79.4069 47.0308 79.3837 47.0772 79.3547C47.1237 79.3257 47.1625 79.3024 47.1933 79.2792C47.2275 79.256 47.2571 79.2445 47.2815 79.2445C47.325 79.2445 47.3639 79.2677 47.3975 79.3199L47.6389 79.7144C47.4967 79.8478 47.325 79.9523 47.1236 80.0335C46.9229 80.1031 46.7152 80.1437 46.5017 80.1437ZM49.2582 75.3686V80.0684H48.432V75.3686H49.2582ZM49.4346 73.8892C49.4346 73.9705 49.4172 74.0458 49.3835 74.1155C49.3522 74.1851 49.3093 74.2489 49.2536 74.3012C49.2008 74.3534 49.1375 74.3998 49.0633 74.4288C48.9919 74.4578 48.9159 74.4752 48.8358 74.4752C48.7552 74.4752 48.6792 74.4578 48.6084 74.4288C48.5399 74.3998 48.4796 74.3534 48.4274 74.3012C48.3746 74.2489 48.3328 74.1851 48.302 74.1155C48.2707 74.0458 48.2556 73.9705 48.2556 73.8892C48.2556 73.808 48.2707 73.7325 48.302 73.6629C48.3328 73.5875 48.3746 73.5236 48.4274 73.4714C48.4796 73.4191 48.5399 73.3727 48.6084 73.3437C48.6792 73.3089 48.7552 73.2974 48.8358 73.2974C48.9159 73.2974 48.9919 73.3089 49.0633 73.3437C49.1375 73.3727 49.2008 73.4191 49.2536 73.4714C49.3093 73.5236 49.3522 73.5875 49.3835 73.6629C49.4172 73.7325 49.4346 73.808 49.4346 73.8892ZM53.7624 77.2022C53.7624 77.0107 53.7345 76.8366 53.6788 76.6799C53.6266 76.5175 53.5477 76.384 53.4421 76.268C53.34 76.152 53.2146 76.0591 53.0661 75.9953C52.9176 75.9315 52.7493 75.9025 52.5602 75.9025C52.1645 75.9025 51.85 76.0185 51.6179 76.2506C51.3893 76.4768 51.2466 76.796 51.1909 77.2022H53.7624ZM54.4308 79.407C54.3286 79.5346 54.2068 79.639 54.0641 79.7318C53.9219 79.8246 53.7687 79.9001 53.6045 79.9582C53.4438 80.0162 53.2767 80.0568 53.1032 80.0858C52.9303 80.1206 52.7586 80.1322 52.588 80.1322C52.2631 80.1322 51.9631 80.08 51.6875 79.9698C51.4154 79.8595 51.1787 79.697 50.9774 79.4882C50.7795 79.2735 50.6246 79.0123 50.5132 78.699C50.4018 78.3857 50.3461 78.0261 50.3461 77.6199C50.3461 77.295 50.396 76.9874 50.4946 76.7031C50.5968 76.4188 50.7424 76.1751 50.931 75.9663C51.1201 75.7574 51.3504 75.5892 51.6226 75.4732C51.8953 75.3513 52.2016 75.2933 52.5416 75.2933C52.8236 75.2933 53.0835 75.3397 53.3214 75.4383C53.5628 75.5312 53.7705 75.6646 53.9434 75.8445C54.1198 76.0185 54.2578 76.2391 54.3565 76.506C54.4557 76.7613 54.505 77.0628 54.505 77.3936C54.505 77.527 54.4911 77.6141 54.4632 77.6548C54.4354 77.6954 54.3832 77.7185 54.3054 77.7185H51.163C51.1723 78.0144 51.2129 78.2755 51.2837 78.496C51.358 78.7165 51.4601 78.8963 51.5901 79.0472C51.72 79.1922 51.8749 79.3025 52.0542 79.378C52.2341 79.4476 52.4348 79.4823 52.6576 79.4823C52.8654 79.4823 53.0429 79.4592 53.1914 79.4128C53.3434 79.3664 53.4734 79.3142 53.5813 79.2561C53.6898 79.1981 53.7798 79.1517 53.8505 79.1053C53.9248 79.0531 53.9886 79.0298 54.0409 79.0298C54.1093 79.0298 54.1615 79.0531 54.1987 79.1053L54.4308 79.407ZM61.0422 77.2022C61.0422 77.0107 61.0143 76.8366 60.9586 76.6799C60.9064 76.5175 60.8275 76.384 60.7219 76.268C60.6198 76.152 60.4945 76.0591 60.3459 75.9953C60.1974 75.9315 60.0291 75.9025 59.84 75.9025C59.4443 75.9025 59.1298 76.0185 58.8977 76.2506C58.6691 76.4768 58.5264 76.796 58.4707 77.2022H61.0422ZM61.7106 79.407C61.6085 79.5346 61.4866 79.639 61.3439 79.7318C61.2017 79.8246 61.0486 79.9001 60.8844 79.9582C60.7237 80.0162 60.5566 80.0568 60.3831 80.0858C60.2102 80.1206 60.0384 80.1322 59.8679 80.1322C59.5429 80.1322 59.243 80.08 58.9674 79.9698C58.6953 79.8595 58.4585 79.697 58.2572 79.4882C58.0594 79.2735 57.9044 79.0123 57.793 78.699C57.6816 78.3857 57.6259 78.0261 57.6259 77.6199C57.6259 77.295 57.6758 76.9874 57.7745 76.7031C57.8766 76.4188 58.0222 76.1751 58.2108 75.9663C58.3999 75.7574 58.6303 75.5892 58.9024 75.4732C59.1751 75.3513 59.4814 75.2933 59.8214 75.2933C60.1034 75.2933 60.3633 75.3397 60.6012 75.4383C60.8426 75.5312 61.0503 75.6646 61.2232 75.8445C61.3996 76.0185 61.5377 76.2391 61.6363 76.506C61.7355 76.7613 61.7849 77.0628 61.7849 77.3936C61.7849 77.527 61.7709 77.6141 61.7431 77.6548C61.7152 77.6954 61.663 77.7185 61.5853 77.7185H58.4429C58.4521 78.0144 58.4928 78.2755 58.5636 78.496C58.6378 78.7165 58.7399 78.8963 58.8699 79.0472C58.9999 79.1922 59.1548 79.3025 59.3341 79.378C59.5139 79.4476 59.7147 79.4823 59.9375 79.4823C60.1452 79.4823 60.3227 79.4592 60.4713 79.4128C60.6233 79.3664 60.7532 79.3142 60.8612 79.2561C60.9697 79.1981 61.0596 79.1517 61.1304 79.1053C61.2046 79.0531 61.2685 79.0298 61.3207 79.0298C61.3891 79.0298 61.4414 79.0531 61.4785 79.1053L61.7106 79.407ZM65.5382 76.1404C65.5011 76.21 65.4442 76.2448 65.3664 76.2448C65.32 76.2448 65.2678 76.2274 65.2086 76.1926C65.15 76.1578 65.0775 76.1229 64.9905 76.0823C64.9069 76.0359 64.8065 76.0011 64.6888 75.9663C64.5716 75.9257 64.4323 75.9083 64.271 75.9083C64.1318 75.9083 64.0064 75.9257 63.8951 75.9663C63.7837 76.0011 63.6879 76.0475 63.6073 76.1113C63.5301 76.1693 63.4698 76.2448 63.4262 76.3261C63.3862 76.4073 63.3659 76.4943 63.3659 76.5929C63.3659 76.7148 63.4001 76.8134 63.468 76.8947C63.5394 76.9759 63.6322 77.0454 63.7465 77.1035C63.8614 77.1615 63.9914 77.2137 64.1364 77.2601C64.282 77.3007 64.4306 77.353 64.582 77.4052C64.7369 77.4516 64.8872 77.5096 65.0323 77.5735C65.1779 77.6315 65.3078 77.7128 65.4222 77.8056C65.537 77.8985 65.6281 78.0086 65.696 78.1478C65.7674 78.2813 65.8028 78.438 65.8028 78.6295C65.8028 78.8441 65.7645 79.0472 65.6867 79.2329C65.6096 79.4128 65.4953 79.5751 65.3432 79.7086C65.1918 79.842 65.0061 79.9465 64.7862 80.0277C64.5669 80.1031 64.3128 80.1437 64.025 80.1437C63.6972 80.1437 63.4001 80.0916 63.1338 79.9872C62.8681 79.877 62.6418 79.7376 62.4561 79.5693L62.6511 79.2561C62.676 79.2155 62.7056 79.1864 62.7393 79.1632C62.7735 79.14 62.817 79.1284 62.8692 79.1284C62.9249 79.1284 62.9841 79.1516 63.0456 79.1981C63.1077 79.2387 63.182 79.2851 63.2684 79.3373C63.3584 79.3895 63.4669 79.4417 63.5933 79.4823C63.7204 79.5288 63.8782 79.5462 64.0668 79.5462C64.2281 79.5462 64.3685 79.5288 64.4892 79.4882C64.6099 79.4475 64.7108 79.3895 64.7909 79.3141C64.8715 79.2444 64.9301 79.1633 64.9673 79.0704C65.0079 78.9776 65.0276 78.879 65.0276 78.7745C65.0276 78.6411 64.9922 78.5366 64.9209 78.4554C64.853 78.3683 64.7619 78.293 64.647 78.235C64.5327 78.1711 64.401 78.1189 64.2525 78.0783C64.1074 78.0319 63.9571 77.9855 63.8022 77.9332C63.6508 77.881 63.5005 77.8288 63.352 77.765C63.2069 77.7011 63.077 77.62 62.9621 77.5271C62.8478 77.4285 62.7549 77.3124 62.6836 77.1731C62.6157 77.0281 62.5815 76.8599 62.5815 76.6568C62.5815 76.477 62.6186 76.3028 62.6929 76.1404C62.7671 75.9721 62.8756 75.8271 63.0178 75.7052C63.1605 75.5776 63.3352 75.4789 63.5423 75.4035C63.75 75.3281 63.9867 75.2933 64.2525 75.2933C64.5623 75.2933 64.839 75.3397 65.0833 75.4383C65.3311 75.537 65.5446 75.6704 65.7239 75.8386L65.5382 76.1404ZM73.0576 75.3686V80.0684H72.5656C72.4478 80.0684 72.3736 80.0103 72.3428 79.8943L72.2778 79.3896C72.0736 79.6158 71.8444 79.8015 71.5909 79.9407C71.3373 80.0742 71.0461 80.1437 70.7183 80.1437C70.4612 80.1437 70.2338 80.1031 70.0359 80.0161C69.841 79.9291 69.6768 79.8073 69.5439 79.6564C69.4111 79.4998 69.3101 79.3141 69.2422 79.0937C69.1772 78.8732 69.1447 78.6295 69.1447 78.3626V75.3686H69.971V78.3626C69.971 78.7223 70.0516 78.995 70.2123 79.1922C70.3765 79.3837 70.6254 79.4823 70.9596 79.4823C71.2039 79.4823 71.4313 79.4243 71.6419 79.3141C71.8555 79.1922 72.0521 79.0357 72.2314 78.8268V75.3686H73.0576ZM75.1475 76.0476C75.2497 75.9315 75.3582 75.8329 75.4725 75.7401C75.5868 75.6472 75.7074 75.5659 75.8345 75.5021C75.9645 75.4325 76.1008 75.3804 76.243 75.3456C76.3886 75.3107 76.5447 75.2933 76.7118 75.2933C76.9688 75.2933 77.1945 75.3339 77.3895 75.4209C77.5873 75.5079 77.7515 75.6241 77.8815 75.7865C78.0143 75.9374 78.1153 76.1288 78.1832 76.3435C78.2511 76.564 78.2853 76.8077 78.2853 77.0746V80.0684H77.4544V77.0746C77.4544 76.7206 77.3726 76.442 77.2084 76.2506C77.0477 76.0475 76.8017 75.9489 76.4704 75.9489C76.2261 75.9489 75.997 76.0127 75.7835 76.1287C75.5728 76.2448 75.3779 76.4073 75.1986 76.6046V80.0684H74.3677V75.3686H74.8644C74.9822 75.3686 75.0547 75.4209 75.0826 75.5369L75.1475 76.0476ZM81.9197 80.0684V75.3686H82.4163C82.5336 75.3686 82.6067 75.4209 82.6345 75.5369L82.6948 76.0185C82.8677 75.8097 83.0627 75.6299 83.2797 75.4964C83.4961 75.363 83.7468 75.2933 84.0316 75.2933C84.3473 75.2933 84.6026 75.3803 84.7975 75.5544C84.9954 75.7342 85.1375 75.9721 85.2245 76.2738C85.2924 76.0997 85.3789 75.9547 85.4845 75.8328C85.5924 75.7052 85.7131 75.6065 85.8465 75.5253C85.9794 75.4441 86.1204 75.3862 86.2689 75.3456C86.4203 75.3107 86.5735 75.2933 86.7284 75.2933C86.9756 75.2933 87.1955 75.3339 87.3875 75.4151C87.5825 75.4905 87.7461 75.6066 87.8796 75.7575C88.0153 75.9083 88.1192 76.094 88.1905 76.3203C88.2613 76.5349 88.2973 76.7903 88.2973 77.0746V80.0684H87.4665V77.0746C87.4665 76.709 87.3858 76.4304 87.2251 76.239C87.0638 76.0475 86.8317 75.9489 86.5288 75.9489C86.3925 75.9489 86.2625 75.9779 86.1389 76.0243C86.0183 76.0708 85.9115 76.1403 85.8187 76.2331C85.7258 76.326 85.6516 76.4421 85.5959 76.5871C85.5431 76.7264 85.517 76.8889 85.517 77.0746V80.0684H84.6861V77.0746C84.6861 76.6974 84.6101 76.413 84.4587 76.2273C84.3067 76.0417 84.0856 75.9489 83.7949 75.9489C83.5907 75.9489 83.4015 76.0069 83.2286 76.1171C83.0552 76.2274 82.8956 76.3724 82.7505 76.5639V80.0684H81.9197ZM93.4919 75.3686L90.8694 81.455C90.8415 81.5188 90.8055 81.5652 90.7626 81.6058C90.722 81.6407 90.6587 81.6581 90.5723 81.6581H89.9596L90.8183 79.7957L88.8781 75.3686H89.5929C89.6637 75.3686 89.7194 75.3861 89.76 75.4209C89.8029 75.4557 89.8325 75.4963 89.8482 75.5369L91.1061 78.5018C91.1554 78.6295 91.1972 78.7629 91.2314 78.908C91.2743 78.7629 91.3207 78.6237 91.3706 78.496L92.5914 75.5369C92.61 75.4905 92.6407 75.4499 92.6842 75.4151C92.7306 75.3861 92.7817 75.3686 92.8374 75.3686H93.4919ZM95.6653 80.1437C95.294 80.1437 95.0074 80.0394 94.8066 79.8305C94.6082 79.6217 94.5096 79.3257 94.5096 78.937V76.0592H93.9433C93.8934 76.0592 93.8516 76.0418 93.818 76.0185C93.7837 75.9837 93.7669 75.9373 93.7669 75.8793V75.5485L94.5374 75.45L94.7277 73.9994C94.737 73.953 94.7567 73.9124 94.7881 73.8834C94.8217 73.8544 94.8652 73.837 94.918 73.837H95.3358V75.4616H96.6958V76.0592H95.3358V78.8789C95.3358 79.0762 95.3834 79.227 95.4797 79.3199C95.5754 79.4185 95.699 79.4649 95.851 79.4649C95.9374 79.4649 96.0117 79.4533 96.0738 79.4301C96.1388 79.4069 96.1945 79.3837 96.2409 79.3547C96.2873 79.3257 96.3256 79.3024 96.3569 79.2792C96.3906 79.256 96.4202 79.2445 96.4451 79.2445C96.4881 79.2445 96.5269 79.2677 96.5612 79.3199L96.8025 79.7144C96.6598 79.8478 96.4881 79.9523 96.2873 80.0335C96.086 80.1031 95.8788 80.1437 95.6653 80.1437ZM98.3795 75.9953C98.5809 75.7806 98.8037 75.6066 99.0479 75.4848C99.2922 75.3572 99.5742 75.2933 99.8927 75.2933C100.15 75.2933 100.375 75.3339 100.57 75.4209C100.768 75.5079 100.932 75.6241 101.062 75.7865C101.195 75.9374 101.296 76.1288 101.364 76.3435C101.432 76.564 101.466 76.8077 101.466 77.0746V80.0684H100.635V77.0746C100.635 76.7206 100.554 76.442 100.389 76.2506C100.229 76.0475 99.9826 75.9489 99.6513 75.9489C99.4071 75.9489 99.1779 76.0127 98.9644 76.1287C98.7538 76.2448 98.5588 76.4073 98.3795 76.6046V80.0684H97.5487V73.2335H98.3795V75.9953ZM102.586 79.5578C102.586 79.4766 102.6 79.4011 102.628 79.3315C102.659 79.2619 102.699 79.198 102.748 79.1458C102.801 79.0936 102.863 79.053 102.934 79.0182C103.006 78.9891 103.081 78.9718 103.162 78.9718C103.242 78.9718 103.318 78.9891 103.389 79.0182C103.46 79.053 103.522 79.0936 103.575 79.1458C103.627 79.198 103.669 79.2619 103.7 79.3315C103.731 79.4011 103.746 79.4766 103.746 79.5578C103.746 79.6391 103.731 79.7202 103.7 79.7899C103.669 79.8595 103.627 79.9176 103.575 79.9698C103.522 80.022 103.46 80.0626 103.389 80.0916C103.318 80.1206 103.242 80.1381 103.162 80.1381C103.081 80.1381 103.006 80.1206 102.934 80.0916C102.863 80.0626 102.801 80.022 102.748 79.9698C102.699 79.9176 102.659 79.8595 102.628 79.7899C102.6 79.7202 102.586 79.6391 102.586 79.5578Z" fill="#484848"/>
</g>
<defs>
<filter id="filter0_d_2_1425" x="-24.0142" y="-18.0107" width="218.028" height="145.503" filterUnits="userSpaceOnUse" color-interpolation-filters="sRGB">
<feFlood flood-opacity="0" result="BackgroundImageFix"/>
<feColorMatrix in="SourceAlpha" type="matrix" values="0 0 0 0 0 0 0 0 0 0 0 0 0 0 0 0 0 0 127 0" result="hardAlpha"/>
<feOffset dy="6"/>
<feGaussianBlur stdDeviation="12"/>
<feComposite in2="hardAlpha" operator="out"/>
<feColorMatrix type="matrix" values="0 0 0 0 0.279167 0 0 0 0 0.279167 0 0 0 0 0.279167 0 0 0 0.08 0"/>
<feBlend mode="normal" in2="BackgroundImageFix" result="effect1_dropShadow_2_1425"/>
<feBlend mode="normal" in="SourceGraphic" in2="effect1_dropShadow_2_1425" result="shape"/>
</filter>
</defs>
</svg>
