<svg width="38" height="7" viewBox="0 0 38 7" fill="none" xmlns="http://www.w3.org/2000/svg">
<path d="M4.37288 4.38688L3.32395 1.66897C3.29248 1.58815 3.25983 1.49491 3.22603 1.38926C3.19165 1.28046 3.15903 1.16548 3.12815 1.04427C3.06288 1.29602 2.99587 1.50581 2.92769 1.67364L1.87876 4.38688H4.37288ZM6.2563 6.86703H5.557C5.476 6.86703 5.41073 6.84681 5.3612 6.80643C5.31108 6.76604 5.27381 6.71476 5.24934 6.65258L4.62463 5.03955H1.62701L1.0023 6.65258C0.983652 6.70853 0.947509 6.75824 0.895063 6.80177C0.842033 6.8453 0.776767 6.86703 0.699262 6.86703H0L2.67128 0.186477H3.58502L6.2563 6.86703ZM7.75512 5.72952C7.9078 5.93465 8.07389 6.07917 8.25396 6.16308C8.43752 6.247 8.63798 6.28895 8.85534 6.28895C9.29997 6.28895 9.6403 6.13202 9.87631 5.8181C10.1129 5.50417 10.2306 5.03647 10.2306 4.41485C10.2306 3.83677 10.1251 3.41254 9.91359 3.14215C9.70555 2.86867 9.40718 2.73189 9.01849 2.73189C8.7481 2.73189 8.51208 2.79407 8.30987 2.91837C8.11116 3.04267 7.92645 3.21831 7.75512 3.44517V5.72952ZM7.75512 2.82513C7.95442 2.59513 8.17818 2.41179 8.42643 2.27502C8.67817 2.13826 8.96723 2.0699 9.29357 2.0699C9.57037 2.0699 9.81918 2.12276 10.0395 2.22841C10.2632 2.33406 10.4532 2.4879 10.6082 2.68994C10.7638 2.88883 10.8821 3.13125 10.9625 3.4172C11.0464 3.70315 11.0884 4.02483 11.0884 4.38222C11.0884 4.7645 11.0418 5.11257 10.9485 5.42649C10.8553 5.74042 10.7201 6.00924 10.543 6.23301C10.3693 6.45369 10.156 6.62619 9.90427 6.75048C9.65252 6.87169 9.3699 6.9323 9.0558 6.9323C8.7452 6.9323 8.48239 6.87478 8.26794 6.75981C8.05699 6.64169 7.87166 6.47543 7.71315 6.26098L7.67122 6.68988C7.64674 6.808 7.57504 6.86703 7.45674 6.86703H6.92063V0H7.75512V2.82513ZM14.1291 2.0699C14.4741 2.0699 14.7847 2.12742 15.0615 2.24239C15.3377 2.35737 15.5743 2.52053 15.7701 2.73189C15.9659 2.94326 16.1151 3.19966 16.2177 3.50111C16.3232 3.79948 16.3762 4.13356 16.3762 4.50343C16.3762 4.87639 16.3232 5.21205 16.2177 5.51041C16.1151 5.80877 15.9659 6.06361 15.7701 6.27497C15.5743 6.48633 15.3377 6.6495 15.0615 6.76447C14.7847 6.87636 14.4741 6.9323 14.1291 6.9323C13.7807 6.9323 13.4672 6.87636 13.1875 6.76447C12.9107 6.6495 12.6746 6.48633 12.4788 6.27497C12.283 6.06361 12.1321 5.80877 12.0266 5.51041C11.9241 5.21205 11.8728 4.87639 11.8728 4.50343C11.8728 4.13356 11.9241 3.79948 12.0266 3.50111C12.1321 3.19966 12.283 2.94326 12.4788 2.73189C12.6746 2.52053 12.9107 2.35737 13.1875 2.24239C13.4672 2.12742 13.7807 2.0699 14.1291 2.0699ZM14.1291 6.28429C14.5953 6.28429 14.9432 6.12887 15.1734 5.8181C15.403 5.50417 15.5184 5.06753 15.5184 4.50809C15.5184 3.94557 15.403 3.50735 15.1734 3.19343C14.9432 2.8795 14.5953 2.72257 14.1291 2.72257C13.8926 2.72257 13.6863 2.76296 13.5091 2.84378C13.3349 2.92461 13.1886 3.04116 13.0709 3.19343C12.9555 3.3457 12.8687 3.53375 12.8098 3.75752C12.7539 3.97821 12.7259 4.22838 12.7259 4.50809C12.7259 5.06753 12.8407 5.50417 13.0709 5.8181C13.304 6.12887 13.6565 6.28429 14.1291 6.28429ZM21.312 2.14449V6.86703H20.8179C20.6996 6.86703 20.625 6.80952 20.5941 6.69454L20.5288 6.18639C20.3237 6.41325 20.0935 6.59664 19.8389 6.7365C19.5836 6.87327 19.2917 6.94162 18.9624 6.94162C18.7043 6.94162 18.4758 6.89967 18.2771 6.81575C18.0813 6.72875 17.9164 6.60754 17.783 6.45212C17.6489 6.2967 17.5481 6.10871 17.4799 5.88803C17.4146 5.66734 17.382 5.42341 17.382 5.1561V2.14449H18.2118V5.1561C18.2118 5.5135 18.2923 5.79012 18.4543 5.98593C18.6186 6.18173 18.8692 6.27963 19.2048 6.27963C19.4502 6.27963 19.6786 6.22211 19.8901 6.10714C20.1046 5.98902 20.3015 5.82742 20.4822 5.62229V2.14449H21.312ZM24.0777 6.94162C23.7048 6.94162 23.4169 6.83749 23.2153 6.62927C23.016 6.42106 22.9169 6.12112 22.9169 5.72952V2.83912H22.3481C22.298 2.83912 22.2561 2.82513 22.2223 2.79716C22.1879 2.7661 22.171 2.71948 22.171 2.6573V2.32631L22.9449 2.22841L23.1354 0.769219C23.1453 0.7226 23.1651 0.685305 23.1966 0.657333C23.2304 0.626273 23.2741 0.610714 23.3271 0.610714H23.7467V2.23773H25.1127V2.83912H23.7467V5.67358C23.7467 5.87247 23.7945 6.02013 23.8913 6.11646C23.9874 6.21279 24.1115 6.26098 24.2642 6.26098C24.351 6.26098 24.4256 6.25008 24.488 6.22835C24.5532 6.20346 24.6092 6.17707 24.6558 6.1491C24.7024 6.12112 24.7409 6.09624 24.7723 6.0745C24.8061 6.04962 24.8359 6.03721 24.8609 6.03721C24.9041 6.03721 24.9431 6.06361 24.9775 6.11646L25.2199 6.51272C25.0765 6.64635 24.904 6.75206 24.7024 6.82974C24.5002 6.90433 24.2922 6.94162 24.0777 6.94162ZM31.1289 6.1491C31.4051 6.1491 31.6522 6.10248 31.8702 6.00924C32.0875 5.916 32.2711 5.78546 32.4203 5.61763C32.5724 5.4498 32.6871 5.24934 32.7652 5.01625C32.8456 4.78315 32.8864 4.52674 32.8864 4.24703V0.186477H33.7862V4.24703C33.7862 4.63239 33.7238 4.98985 33.5997 5.31927C33.4785 5.6487 33.3025 5.93465 33.0729 6.17707C32.8457 6.4164 32.5677 6.60439 32.2384 6.74116C31.9086 6.87793 31.5391 6.94629 31.1289 6.94629C30.7186 6.94629 30.3486 6.87793 30.0194 6.74116C29.6895 6.60439 29.4098 6.4164 29.1802 6.17707C28.95 5.93465 28.7729 5.6487 28.6488 5.31927C28.5275 4.98985 28.4669 4.63239 28.4669 4.24703V0.186477H29.3667V4.24236C29.3667 4.52208 29.4052 4.77849 29.4833 5.01158C29.5637 5.24468 29.679 5.44514 29.8282 5.61297C29.9803 5.7808 30.1651 5.91291 30.383 6.00924C30.6033 6.10248 30.8521 6.1491 31.1289 6.1491ZM37.7343 2.92303C37.697 2.99139 37.6393 3.0256 37.5618 3.0256C37.5152 3.0256 37.4622 3.00852 37.4033 2.97432C37.3439 2.94011 37.271 2.90281 37.1842 2.86243C37.1003 2.8189 36.9989 2.78009 36.8812 2.74588C36.7629 2.70859 36.623 2.68994 36.4616 2.68994C36.3217 2.68994 36.1958 2.70859 36.0839 2.74588C35.9721 2.78009 35.8753 2.82822 35.7949 2.8904C35.7168 2.95258 35.6562 3.0256 35.6131 3.10951C35.5723 3.19034 35.5525 3.27891 35.5525 3.37524C35.5525 3.49645 35.5863 3.59744 35.6551 3.67827C35.7262 3.75909 35.8194 3.82902 35.9348 3.88806C36.0496 3.94709 36.1801 3.99994 36.3264 4.04656C36.4721 4.09009 36.6213 4.13823 36.7739 4.19108C36.9289 4.24079 37.0799 4.29673 37.2261 4.35891C37.3718 4.42109 37.5024 4.49877 37.6177 4.59201C37.7325 4.68525 37.824 4.80022 37.8928 4.93699C37.9639 5.07061 38 5.23227 38 5.42183C38 5.63937 37.961 5.84141 37.8835 6.02789C37.8054 6.21127 37.6906 6.37129 37.5385 6.50806C37.3858 6.64169 37.1993 6.7474 36.979 6.82508C36.7582 6.90276 36.5035 6.94162 36.2145 6.94162C35.8846 6.94162 35.5863 6.88877 35.3194 6.78312C35.0519 6.67432 34.8252 6.53604 34.6388 6.36821L34.8346 6.05119C34.859 6.01081 34.8887 5.97969 34.9231 5.95795C34.9569 5.93622 35.0006 5.92532 35.0537 5.92532C35.1096 5.92532 35.1685 5.94706 35.2308 5.99059C35.2926 6.03412 35.3672 6.08225 35.4546 6.13511C35.5444 6.18796 35.6533 6.2361 35.7809 6.27963C35.908 6.32316 36.0665 6.3449 36.2565 6.3449C36.4179 6.3449 36.5595 6.32468 36.6807 6.28429C36.8019 6.24076 36.9027 6.1833 36.9837 6.1118C37.0641 6.0403 37.1236 5.95795 37.1609 5.86472C37.2011 5.77148 37.2215 5.672 37.2215 5.56635C37.2215 5.43582 37.1853 5.32859 37.1142 5.24468C37.0455 5.15768 36.954 5.0846 36.8392 5.02557C36.7238 4.96339 36.5921 4.91059 36.4429 4.86706C36.2967 4.82044 36.1457 4.77225 35.9907 4.72254C35.838 4.67283 35.6877 4.61689 35.5385 4.55471C35.3923 4.48945 35.2617 4.40862 35.1469 4.31229C35.0315 4.21597 34.9383 4.09784 34.8672 3.95798C34.7984 3.81504 34.7646 3.64255 34.7646 3.44051C34.7646 3.26027 34.8019 3.08777 34.8765 2.92303C34.9511 2.7552 35.0595 2.60911 35.2029 2.48481C35.3456 2.35737 35.521 2.25638 35.7297 2.18179C35.9377 2.1072 36.1755 2.0699 36.4429 2.0699C36.7535 2.0699 37.0315 2.11961 37.2774 2.21908C37.5257 2.31541 37.7401 2.44909 37.9208 2.62001L37.7343 2.92303Z" fill="#484848"/>
</svg>
