<svg width="18" height="9" viewBox="0 0 18 9" fill="none" xmlns="http://www.w3.org/2000/svg">
<path d="M0.937952 0.839834V3.26343H3.78567V4.02477H0.937952V7.00432H0V0.0784946H4.26914V0.839834H0.937952ZM8.58963 4.42993L7.50181 1.61357C7.46917 1.52896 7.43531 1.43227 7.40026 1.32349C7.3646 1.20866 7.33078 1.09364 7.29875 0.966723C7.23106 1.22659 7.16156 1.44421 7.09086 1.61947L6.00303 4.42993H8.58963ZM10.5429 7.00432H9.81766C9.73365 7.00432 9.66597 6.98613 9.6146 6.94382C9.56262 6.90152 9.52397 6.84712 9.49859 6.78064L8.85071 5.10658H5.74195L5.09407 6.78064C5.07473 6.84107 5.03725 6.88957 4.98286 6.93792C4.92787 6.98023 4.86018 7.00432 4.7798 7.00432H4.05461L6.82494 0.0784946H7.77256L10.5429 7.00432ZM11.8066 3.54141C11.8066 3.97049 11.8646 4.35118 11.9807 4.68961C12.0967 5.022 12.2611 5.30614 12.4738 5.54184C12.6895 5.77754 12.9494 5.95288 13.2522 6.07979C13.555 6.20066 13.8922 6.26688 14.2627 6.26688C14.6368 6.26688 14.9752 6.20066 15.278 6.07979C15.5808 5.95288 15.8388 5.77754 16.0515 5.54184C16.2643 5.30614 16.4287 5.022 16.5447 4.68961C16.6607 4.35118 16.7187 3.97049 16.7187 3.54141C16.7187 3.11836 16.6607 2.73754 16.5447 2.3991C16.4287 2.06067 16.2643 1.77063 16.0515 1.54097C15.8388 1.30528 15.5808 1.12403 15.278 0.997118C14.9752 0.876248 14.6368 0.809734 14.2627 0.809734C13.8922 0.809734 13.555 0.876248 13.2522 0.997118C12.9494 1.12403 12.6895 1.30528 12.4738 1.54097C12.2611 1.77063 12.0967 2.06067 11.9807 2.3991C11.8646 2.73754 11.8066 3.11836 11.8066 3.54141ZM18 8.4367H17.2264C17.1104 8.4367 17.007 8.41852 16.917 8.3883C16.8269 8.35204 16.7447 8.29749 16.6704 8.21892L15.4569 6.89543C15.0894 7.0163 14.6912 7.07691 14.2627 7.07691C13.7532 7.07691 13.2891 6.99235 12.8702 6.82313C12.4514 6.64787 12.0918 6.40615 11.7921 6.09189C11.4923 5.77763 11.2603 5.40287 11.0959 4.97379C10.9315 4.53865 10.8493 4.06115 10.8493 3.54141C10.8493 3.02167 10.9315 2.55036 11.0959 2.11522C11.2603 1.68009 11.4923 1.30534 11.7921 0.997118C12.0918 0.676813 12.4514 0.434943 12.8702 0.259682C13.2891 0.0844201 13.7532 0 14.2627 0C14.7721 0 15.2363 0.0844201 15.6551 0.259682C16.0775 0.434943 16.4383 0.676813 16.7381 0.997118C17.0379 1.30534 17.2699 1.68009 17.4343 2.11522C17.5987 2.55036 17.6809 3.02167 17.6809 3.54141C17.6809 3.86776 17.647 4.176 17.5793 4.47213C17.5147 4.76222 17.4198 5.04013 17.2941 5.29396C17.1684 5.54175 17.0155 5.77133 16.8348 5.97681C16.6541 6.18833 16.451 6.36367 16.2256 6.51476L18 8.4367Z" fill="white"/>
</svg>
