<svg width="5" height="15" viewBox="0 0 5 15" fill="none" xmlns="http://www.w3.org/2000/svg">
<path d="M2.50039 0C2.79596 0 3.04544 0.104476 3.24945 0.31955C3.46023 0.522334 3.56592 0.768109 3.56592 1.06307C3.56592 1.35803 3.46023 1.61626 3.24945 1.82519C3.04544 2.03412 2.79596 2.13844 2.50039 2.13844C2.20481 2.13844 1.95164 2.03412 1.74086 1.82519C1.53009 1.61626 1.4244 1.35803 1.4244 1.06307C1.4244 0.768109 1.52641 0.522334 1.73042 0.31955C1.94119 0.104476 2.19805 0 2.50039 0ZM3.37605 5.05129V12.8183C3.37605 13.4205 3.41844 13.8262 3.50263 14.029C3.59419 14.2256 3.72384 14.373 3.89283 14.4713C4.06858 14.5696 4.38504 14.6189 4.84223 14.6189V15H0.148092V14.6189C0.618796 14.6189 0.935875 14.5758 1.09749 14.4836C1.2591 14.3914 1.38568 14.2441 1.47724 14.029C1.57556 13.8201 1.62473 13.4144 1.62473 12.8183V9.09443C1.62473 8.04364 1.59338 7.3678 1.53009 7.05441C1.48032 6.83319 1.40351 6.67957 1.29782 6.59354C1.19212 6.50136 1.04832 6.45821 0.865205 6.45821C0.668566 6.45821 0.428917 6.50737 0.148092 6.61184L0 6.23708L2.9121 5.05129H3.37605Z" fill="white"/>
</svg>
