<svg width="24" height="7" viewBox="0 0 24 7" fill="none" xmlns="http://www.w3.org/2000/svg">
<path d="M5.49439 0V6.7816H4.57629V3.69604H0.918097V6.7816H0V0H0.918097V3.02404H4.57629V0H5.49439ZM8.90234 1.91191C9.25254 1.91191 9.56782 1.9703 9.84881 2.08701C10.1292 2.20372 10.3694 2.36936 10.5681 2.58392C10.7669 2.79848 10.9184 3.05876 11.0225 3.36477C11.1295 3.66765 11.1834 4.00679 11.1834 4.38225C11.1834 4.76085 11.1295 5.10158 11.0225 5.40446C10.9184 5.70734 10.7669 5.96602 10.5681 6.18058C10.3694 6.39514 10.1292 6.56078 9.84881 6.67749C9.56782 6.79107 9.25254 6.84786 8.90234 6.84786C8.54859 6.84786 8.23031 6.79107 7.94637 6.67749C7.66538 6.56078 7.42583 6.39514 7.22707 6.18058C7.02831 5.96602 6.87509 5.70734 6.76802 5.40446C6.66391 5.10158 6.61183 4.76085 6.61183 4.38225C6.61183 4.00679 6.66391 3.66765 6.76802 3.36477C6.87509 3.05876 7.02831 2.79848 7.22707 2.58392C7.42583 2.36936 7.66538 2.20372 7.94637 2.08701C8.23031 1.9703 8.54859 1.91191 8.90234 1.91191ZM8.90234 6.19005C9.37558 6.19005 9.72874 6.03228 9.9624 5.7168C10.1955 5.39813 10.3126 4.95488 10.3126 4.38698C10.3126 3.81595 10.1955 3.3711 9.9624 3.05243C9.72874 2.73376 9.37558 2.57445 8.90234 2.57445C8.66217 2.57445 8.45274 2.61545 8.27291 2.6975C8.09603 2.77955 7.94758 2.89786 7.82808 3.05243C7.71096 3.207 7.62282 3.3979 7.56307 3.62506C7.50628 3.84908 7.47786 4.10304 7.47786 4.38698C7.47786 4.95488 7.59442 5.39813 7.82808 5.7168C8.06471 6.03228 8.42259 6.19005 8.90234 6.19005ZM12.2517 6.7816V1.98763H12.7581C12.8776 1.98763 12.9521 2.04602 12.9805 2.16273L13.042 2.6549C13.2183 2.43721 13.4171 2.25898 13.6383 2.12014C13.859 1.9813 14.1145 1.91191 14.405 1.91191C14.7268 1.91191 14.9871 2.00183 15.1859 2.18166C15.3876 2.36149 15.5325 2.60445 15.6213 2.91046C15.6905 2.73696 15.7786 2.58705 15.8863 2.46087C15.9963 2.3347 16.1193 2.23058 16.2554 2.14853C16.3908 2.06648 16.5346 2.00656 16.686 1.9687C16.8404 1.93084 16.9966 1.91191 17.1546 1.91191C17.4066 1.91191 17.6308 1.95291 17.8266 2.03496C18.0253 2.11381 18.1922 2.23058 18.3282 2.38516C18.4666 2.53973 18.5725 2.73062 18.6453 2.95778C18.7175 3.1818 18.7541 3.4389 18.7541 3.72917V6.7816H17.907V3.72917C17.907 3.35371 17.8248 3.06976 17.6609 2.87733C17.4965 2.6817 17.2599 2.58392 16.9511 2.58392C16.812 2.58392 16.6795 2.60918 16.5535 2.65964C16.4305 2.70696 16.3216 2.77795 16.227 2.8726C16.1324 2.96725 16.0566 3.08716 15.9998 3.23226C15.946 3.37424 15.9194 3.53987 15.9194 3.72917V6.7816H15.0723V3.72917C15.0723 3.34425 14.9948 3.05716 14.8404 2.86786C14.6854 2.67857 14.46 2.58392 14.1636 2.58392C13.9554 2.58392 13.7626 2.64071 13.5863 2.75429C13.4094 2.86473 13.2467 3.01617 13.0988 3.2086V6.7816H12.2517ZM23.2428 3.86168C23.2428 3.66605 23.2145 3.48782 23.1577 3.32691C23.1038 3.16287 23.0234 3.02244 22.9163 2.90573C22.8122 2.78582 22.6844 2.69436 22.533 2.63124C22.3815 2.56499 22.2094 2.53186 22.0171 2.53186C21.6131 2.53186 21.2931 2.65017 21.0565 2.8868C20.8228 3.12028 20.6779 3.44522 20.6211 3.86168H23.2428ZM23.9243 6.10959C23.8202 6.23577 23.6954 6.34622 23.5505 6.44087C23.4055 6.53238 23.2494 6.6081 23.082 6.66802C22.9181 6.72795 22.7477 6.77214 22.5708 6.80053C22.394 6.83206 22.2189 6.84786 22.0455 6.84786C21.7143 6.84786 21.4084 6.79266 21.1275 6.68222C20.85 6.56864 20.6087 6.4046 20.4034 6.19005C20.2017 5.97235 20.0437 5.7042 19.9301 5.38553C19.8166 5.06686 19.7598 4.70092 19.7598 4.2876C19.7598 3.95319 19.81 3.64085 19.9112 3.35058C20.0153 3.0603 20.1638 2.80948 20.3561 2.59812C20.5483 2.38356 20.7838 2.21639 21.0612 2.09648C21.3386 1.97343 21.651 1.91191 21.9982 1.91191C22.2851 1.91191 22.5501 1.96083 22.7933 2.05862C23.0393 2.15326 23.2505 2.2921 23.4274 2.47507C23.6073 2.65491 23.7474 2.87893 23.8486 3.14708C23.9498 3.4121 24 3.71497 24 4.05571C24 4.18822 23.9859 4.27654 23.9575 4.32073C23.9291 4.36492 23.8752 4.38698 23.7965 4.38698H20.5927C20.6022 4.68986 20.643 4.95328 20.7157 5.1773C20.7915 5.40132 20.8955 5.58903 21.0281 5.74046C21.1606 5.88877 21.3185 6.00075 21.5013 6.07647C21.6841 6.14905 21.8894 6.18531 22.1165 6.18531C22.3277 6.18531 22.5093 6.16165 22.6608 6.11433C22.8151 6.06387 22.9477 6.01021 23.0583 5.95342C23.1689 5.89663 23.26 5.84458 23.3328 5.79725C23.4085 5.74679 23.473 5.72153 23.5268 5.72153C23.596 5.72153 23.6499 5.74833 23.6877 5.80199L23.9243 6.10959Z" fill="#484848"/>
</svg>
