<svg width="63" height="7" viewBox="0 0 63 7" fill="none" xmlns="http://www.w3.org/2000/svg">
<path d="M3.9564 1.22764C3.92731 1.27419 3.89824 1.30913 3.86333 1.3324C3.83423 1.35567 3.7935 1.36727 3.74695 1.36727C3.69459 1.36727 3.63058 1.33825 3.56077 1.28588C3.49095 1.23352 3.39787 1.17531 3.28733 1.11713C3.1826 1.04731 3.05458 0.989094 2.9033 0.93673C2.75203 0.884365 2.57166 0.86109 2.35638 0.86109C2.15856 0.86109 1.97821 0.884371 1.82111 0.942554C1.66984 0.994918 1.54185 1.07056 1.43713 1.16365C1.3324 1.25674 1.25675 1.36732 1.20438 1.48951C1.15202 1.61751 1.12292 1.7513 1.12292 1.89676C1.12292 2.08294 1.16949 2.24006 1.26259 2.36224C1.35568 2.48443 1.47204 2.58911 1.62331 2.67638C1.77459 2.76365 1.94914 2.8393 2.13532 2.9033C2.32733 2.96148 2.52512 3.03135 2.72294 3.09535C2.92658 3.16517 3.11858 3.24075 3.31059 3.32802C3.50259 3.4153 3.67132 3.52006 3.82259 3.65388C3.97387 3.78188 4.09605 3.93894 4.18332 4.13094C4.27641 4.32295 4.32296 4.55572 4.32296 4.82918C4.32296 5.12009 4.2764 5.3935 4.17168 5.65532C4.07276 5.90551 3.92734 6.12661 3.73534 6.31861C3.54916 6.51061 3.3106 6.65608 3.03132 6.76663C2.75786 6.87136 2.44368 6.92956 2.08877 6.92956C1.6524 6.92956 1.26256 6.84809 0.907646 6.69681C0.552732 6.53972 0.250185 6.32446 0 6.05682L0.261828 5.6321C0.285101 5.59719 0.314207 5.56808 0.349116 5.54481C0.384026 5.52154 0.424731 5.50987 0.471277 5.50987C0.512005 5.50987 0.552756 5.52737 0.605121 5.56228C0.657485 5.59137 0.71566 5.63207 0.779661 5.67862C0.843662 5.73098 0.919308 5.78336 1.00658 5.84155C1.08804 5.90555 1.18112 5.95793 1.28585 6.00447C1.39639 6.05684 1.51858 6.09755 1.65822 6.13246C1.79204 6.16155 1.94912 6.17898 2.11785 6.17898C2.33313 6.17898 2.5193 6.14987 2.68803 6.09169C2.85676 6.03351 2.99642 5.95209 3.11278 5.84155C3.22915 5.73682 3.32222 5.6088 3.3804 5.45752C3.4444 5.30625 3.47351 5.14334 3.47351 4.95716C3.47351 4.75934 3.42697 4.59063 3.33388 4.46845C3.24661 4.33463 3.1244 4.22986 2.97894 4.14259C2.82767 4.05532 2.65893 3.97968 2.46693 3.92149C2.27493 3.85749 2.07714 3.79934 1.87932 3.73534C1.6815 3.67134 1.48367 3.5957 1.29167 3.51425C1.09967 3.42697 0.930936 3.32221 0.779661 3.18839C0.634205 3.05457 0.512024 2.88585 0.418932 2.68803C0.32584 2.48439 0.285089 2.24008 0.285089 1.94335C0.285089 1.7048 0.32584 1.47786 0.418932 1.25676C0.512024 1.04149 0.645846 0.843666 0.820393 0.674937C0.994941 0.500389 1.21021 0.366592 1.46621 0.261864C1.72221 0.162954 2.01896 0.110584 2.3506 0.110584C2.72296 0.110584 3.06042 0.168724 3.36297 0.285089C3.67133 0.401454 3.93895 0.576004 4.17168 0.797097L3.9564 1.22764ZM8.52954 3.97973C8.52954 3.78773 8.50626 3.61317 8.44807 3.45608C8.39571 3.29317 8.31431 3.1593 8.20958 3.04293C8.11067 2.92657 7.98265 2.83349 7.83138 2.76949C7.68592 2.70549 7.51719 2.67638 7.32519 2.67638C6.92955 2.67638 6.61537 2.7928 6.38264 3.02553C6.14991 3.25244 6.01028 3.57246 5.95209 3.97973H8.52954ZM9.20447 6.19063C9.09975 6.31863 8.97755 6.42339 8.8321 6.51648C8.69246 6.60957 8.53542 6.68522 8.37251 6.7434C8.20959 6.80159 8.04662 6.8423 7.87207 6.87139C7.69753 6.9063 7.52304 6.91791 7.35431 6.91791C7.02849 6.91791 6.72591 6.86553 6.45245 6.75498C6.179 6.64443 5.94046 6.48155 5.73682 6.27209C5.539 6.05682 5.3877 5.795 5.27133 5.48082C5.16079 5.16663 5.1084 4.80591 5.1084 4.39863C5.1084 4.07281 5.15495 3.7644 5.25386 3.4793C5.35859 3.19421 5.50405 2.9499 5.69023 2.74044C5.88223 2.53099 6.115 2.3622 6.38846 2.24584C6.6561 2.12365 6.96444 2.06551 7.30772 2.06551C7.587 2.06551 7.8488 2.11205 8.08735 2.21096C8.33171 2.30406 8.54121 2.43785 8.71576 2.61821C8.89031 2.79276 9.02992 3.01386 9.12884 3.2815C9.22775 3.5375 9.27429 3.84007 9.27429 4.17171C9.27429 4.30553 9.26269 4.39278 9.23359 4.4335C9.2045 4.47423 9.15213 4.4975 9.07649 4.4975H5.92297C5.93461 4.79423 5.97539 5.0561 6.04521 5.27719C6.12084 5.49829 6.22552 5.67862 6.35352 5.8299C6.48152 5.97535 6.63864 6.08594 6.81901 6.16158C6.99937 6.2314 7.20303 6.26627 7.42413 6.26627C7.63358 6.26627 7.80809 6.243 7.95936 6.19645C8.11064 6.1499 8.23866 6.09753 8.34921 6.03935C8.45976 5.98116 8.54701 5.93461 8.62265 5.88807C8.69247 5.8357 8.75651 5.81243 8.80887 5.81243C8.87869 5.81243 8.931 5.8357 8.97173 5.88807L9.20447 6.19063ZM13.4518 3.97973C13.4518 3.78773 13.4227 3.61317 13.3645 3.45608C13.3122 3.29317 13.2365 3.1593 13.126 3.04293C13.0271 2.92657 12.899 2.83349 12.7536 2.76949C12.6023 2.70549 12.4336 2.67638 12.2416 2.67638C11.8459 2.67638 11.5318 2.7928 11.299 3.02553C11.0721 3.25244 10.9267 3.57246 10.8685 3.97973H13.4518ZM14.1209 6.19063C14.0161 6.31863 13.894 6.42339 13.7544 6.51648C13.6089 6.60957 13.4576 6.68522 13.2889 6.7434C13.1318 6.80159 12.9631 6.8423 12.7885 6.87139C12.614 6.9063 12.4453 6.91791 12.2707 6.91791C11.9449 6.91791 11.6481 6.86553 11.3688 6.75498C11.0954 6.64443 10.8569 6.48155 10.659 6.27209C10.4612 6.05682 10.3041 5.795 10.1935 5.48082C10.0772 5.16663 10.0249 4.80591 10.0249 4.39863C10.0249 4.07281 10.0714 3.7644 10.1703 3.4793C10.2751 3.19421 10.4205 2.9499 10.6125 2.74044C10.7987 2.53099 11.0314 2.3622 11.3049 2.24584C11.5783 2.12365 11.8867 2.06551 12.2242 2.06551C12.5093 2.06551 12.7711 2.11205 13.0096 2.21096C13.2482 2.30406 13.4576 2.43785 13.6322 2.61821C13.8067 2.79276 13.9464 3.01386 14.0453 3.2815C14.1442 3.5375 14.1965 3.84007 14.1965 4.17171C14.1965 4.30553 14.1791 4.39278 14.15 4.4335C14.1267 4.47423 14.0743 4.4975 13.9929 4.4975H10.8453C10.8511 4.79423 10.8918 5.0561 10.9616 5.27719C11.0372 5.49829 11.142 5.67862 11.27 5.8299C11.4038 5.97535 11.555 6.08594 11.7354 6.16158C11.9158 6.2314 12.1194 6.26627 12.3405 6.26627C12.55 6.26627 12.7304 6.243 12.8758 6.19645C13.0271 6.1499 13.1609 6.09753 13.2656 6.03935C13.3761 5.98116 13.4692 5.93461 13.539 5.88807C13.6147 5.8357 13.6787 5.81243 13.7311 5.81243C13.7951 5.81243 13.8475 5.8357 13.8882 5.88807L14.1209 6.19063ZM23.9537 3.52007C23.9537 4.02044 23.8723 4.48008 23.7152 4.89899C23.5581 5.31209 23.3312 5.6728 23.0461 5.97535C22.7552 6.2779 22.4061 6.51061 22.0046 6.67934C21.5973 6.84225 21.1494 6.92373 20.6606 6.92373C20.1719 6.92373 19.7239 6.84225 19.3224 6.67934C18.9151 6.51061 18.5718 6.2779 18.2809 5.97535C17.9958 5.6728 17.7689 5.31209 17.6118 4.89899C17.4547 4.48008 17.3733 4.02044 17.3733 3.52007C17.3733 3.0197 17.4547 2.56589 17.6118 2.14697C17.7689 1.72806 17.9958 1.36734 18.2809 1.07061C18.5718 0.762242 18.9151 0.529458 19.3224 0.360729C19.7239 0.191999 20.1719 0.110584 20.6606 0.110584C21.1494 0.110584 21.5973 0.191999 22.0046 0.360729C22.4061 0.529458 22.7552 0.762242 23.0461 1.07061C23.3312 1.36734 23.5581 1.72806 23.7152 2.14697C23.8723 2.56589 23.9537 3.0197 23.9537 3.52007ZM23.0286 3.52007C23.0286 3.11279 22.9704 2.74623 22.8599 2.42041C22.7493 2.09459 22.5865 1.81529 22.3828 1.59419C22.1792 1.36728 21.929 1.19279 21.6381 1.07061C21.3472 0.954244 21.0214 0.890209 20.6606 0.890209C20.3057 0.890209 19.9799 0.954244 19.689 1.07061C19.3981 1.19279 19.1479 1.36728 18.9384 1.59419C18.7348 1.81529 18.5777 2.09459 18.4672 2.42041C18.3508 2.74623 18.2984 3.11279 18.2984 3.52007C18.2984 3.93317 18.3508 4.29973 18.4672 4.62555C18.5777 4.94556 18.7348 5.21896 18.9384 5.44587C19.1479 5.67278 19.3981 5.84152 19.689 5.96371C19.9799 6.08007 20.3057 6.14411 20.6606 6.14411C21.0214 6.14411 21.3472 6.08007 21.6381 5.96371C21.929 5.84152 22.1792 5.67278 22.3828 5.44587C22.5865 5.21896 22.7493 4.94556 22.8599 4.62555C22.9704 4.29973 23.0286 3.93317 23.0286 3.52007ZM28.8527 2.14115V6.85392H28.3582C28.2418 6.85392 28.1662 6.7957 28.1371 6.67934L28.0731 6.17315C27.8636 6.40007 27.6367 6.58629 27.3807 6.72593C27.1305 6.85975 26.8338 6.92956 26.5079 6.92956C26.2519 6.92956 26.0193 6.88884 25.8214 6.80157C25.6294 6.7143 25.4606 6.59212 25.3268 6.44084C25.1988 6.28375 25.0942 6.09751 25.0243 5.87642C24.9603 5.65532 24.9312 5.41102 24.9312 5.14338V2.14115H25.7574V5.14338C25.7574 5.50412 25.8388 5.77753 26.0018 5.97535C26.1647 6.16736 26.4149 6.26627 26.7465 6.26627C26.9967 6.26627 27.2236 6.20806 27.433 6.09751C27.6483 5.97533 27.8461 5.81826 28.0265 5.6088V2.14115H28.8527ZM30.9531 3.0837C31.1044 2.7637 31.2848 2.50767 31.5 2.3273C31.7211 2.14693 31.983 2.05386 32.2971 2.05386C32.3961 2.05386 32.495 2.06553 32.5822 2.0888C32.6753 2.11208 32.7567 2.14112 32.8266 2.18767L32.7684 2.81026C32.7509 2.8859 32.7044 2.9266 32.6288 2.9266C32.588 2.9266 32.5241 2.91493 32.4368 2.89748C32.3553 2.88002 32.2622 2.86843 32.1517 2.86843C32.0062 2.86843 31.8724 2.89169 31.756 2.93242C31.6397 2.97897 31.5349 3.04295 31.4418 3.13022C31.3545 3.21168 31.2673 3.32225 31.1975 3.44443C31.1219 3.57243 31.0578 3.71206 30.9996 3.87497V6.85392H30.1676V2.14115H30.6389C30.732 2.14115 30.796 2.15858 30.8251 2.18767C30.86 2.22258 30.8833 2.28079 30.8949 2.36807L30.9531 3.0837ZM39.1685 4.37533L38.1211 1.66401C38.0921 1.58256 38.0572 1.48947 38.0223 1.38475C37.9874 1.2742 37.9583 1.16367 37.9233 1.04149C37.8593 1.29167 37.7954 1.50111 37.7255 1.66983L36.6782 4.37533H39.1685ZM41.0477 6.85392H40.3496C40.2681 6.85392 40.2041 6.83647 40.1575 6.79575C40.1052 6.75502 40.0703 6.70264 40.0412 6.63864L39.4187 5.02698H36.4281L35.8055 6.63864C35.7822 6.69683 35.7473 6.74338 35.695 6.78992C35.6426 6.83065 35.5786 6.85392 35.5029 6.85392H34.8048L37.4695 0.186224H38.383L41.0477 6.85392ZM42.5663 0V6.85392H41.7402V0H42.5663ZM47.7911 2.14115V6.85392H47.2965C47.1802 6.85392 47.1045 6.7957 47.0754 6.67934L47.0056 6.17315C46.802 6.40007 46.5751 6.58629 46.3191 6.72593C46.0631 6.85975 45.7722 6.92956 45.4464 6.92956C45.1846 6.92956 44.9576 6.88884 44.7598 6.80157C44.562 6.7143 44.3991 6.59212 44.2653 6.44084C44.1314 6.28375 44.0325 6.09751 43.9627 5.87642C43.8987 5.65532 43.8638 5.41102 43.8638 5.14338V2.14115H44.6958V5.14338C44.6958 5.50412 44.7773 5.77753 44.9344 5.97535C45.1031 6.16736 45.3532 6.26627 45.6849 6.26627C45.9292 6.26627 46.1562 6.20806 46.3715 6.09751C46.5867 5.97533 46.7787 5.81826 46.9591 5.6088V2.14115H47.7911ZM49.106 6.85392V2.14115H49.6006C49.717 2.14115 49.7926 2.19346 49.8217 2.30983L49.8799 2.79279C50.0544 2.58333 50.2523 2.40295 50.4675 2.26913C50.6828 2.13531 50.9329 2.06551 51.2239 2.06551C51.538 2.06551 51.7941 2.15275 51.9919 2.3273C52.1897 2.50767 52.3294 2.74621 52.4166 3.04876C52.4864 2.87421 52.5737 2.72875 52.6784 2.60656C52.789 2.47856 52.9053 2.37971 53.0391 2.29825C53.173 2.2168 53.3185 2.15858 53.4639 2.11785C53.6152 2.08294 53.7723 2.06551 53.9235 2.06551C54.1737 2.06551 54.3948 2.10621 54.5868 2.18767C54.7846 2.2633 54.9475 2.37965 55.0814 2.53092C55.2152 2.6822 55.3199 2.86844 55.3897 3.09535C55.4654 3.31062 55.5003 3.56658 55.5003 3.85168V6.85392H54.6683V3.85168C54.6683 3.48513 54.5868 3.20589 54.4239 3.01388C54.261 2.82188 54.0283 2.72297 53.7257 2.72297C53.5861 2.72297 53.4581 2.75207 53.3359 2.79861C53.2137 2.84516 53.109 2.91497 53.0159 3.00806C52.9228 3.10115 52.8472 3.21751 52.789 3.36297C52.7366 3.5026 52.7134 3.66549 52.7134 3.85168V6.85392H51.8755V3.85168C51.8755 3.47349 51.7999 3.18842 51.6486 3.00224C51.4973 2.81605 51.2763 2.72297 50.9854 2.72297C50.7817 2.72297 50.5897 2.78111 50.4151 2.89165C50.2406 3.0022 50.0835 3.14767 49.938 3.33967V6.85392H49.106ZM57.5425 2.82184C57.6414 2.70547 57.752 2.60662 57.8683 2.51352C57.9789 2.42043 58.1011 2.33896 58.2291 2.27496C58.3571 2.20514 58.4967 2.15276 58.6363 2.11785C58.7818 2.08294 58.9389 2.06551 59.1076 2.06551C59.3636 2.06551 59.5906 2.10622 59.7884 2.19349C59.9862 2.28077 60.1491 2.39713 60.2829 2.56004C60.4167 2.71132 60.5157 2.9033 60.5855 3.11857C60.6553 3.33967 60.6843 3.58404 60.6843 3.85168V6.85392H59.8524V3.85168C59.8524 3.49677 59.7709 3.21753 59.608 3.02553C59.4451 2.82189 59.2007 2.72297 58.869 2.72297C58.6189 2.72297 58.392 2.78694 58.1767 2.9033C57.9673 3.01967 57.7694 3.18262 57.5891 3.38044V6.85392H56.757V2.14115H57.2574C57.3737 2.14115 57.4494 2.19346 57.4726 2.30983L57.5425 2.82184ZM62.8255 2.14115V6.85392H61.9934V2.14115H62.8255ZM63 0.657465C63 0.738921 62.9826 0.814566 62.9476 0.884385C62.9186 0.954204 62.8778 1.01824 62.8197 1.07061C62.7673 1.12297 62.7033 1.1695 62.6277 1.19859C62.5579 1.22768 62.4822 1.24511 62.4008 1.24511C62.3193 1.24511 62.2437 1.22768 62.1738 1.19859C62.104 1.1695 62.0458 1.12297 61.9934 1.07061C61.9353 1.01824 61.8945 0.954204 61.8655 0.884385C61.8364 0.814566 61.8189 0.738921 61.8189 0.657465C61.8189 0.57601 61.8364 0.500364 61.8655 0.430545C61.8945 0.354908 61.9353 0.290932 61.9934 0.238568C62.0458 0.186204 62.104 0.139675 62.1738 0.110584C62.2437 0.0756742 62.3193 0.0639922 62.4008 0.0639922C62.4822 0.0639922 62.5579 0.0756742 62.6277 0.110584C62.7033 0.139675 62.7673 0.186204 62.8197 0.238568C62.8778 0.290932 62.9186 0.354908 62.9476 0.430545C62.9826 0.500364 63 0.57601 63 0.657465Z" fill="white"/>
</svg>
