<svg width="75" height="9" viewBox="0 0 75 9" fill="none" xmlns="http://www.w3.org/2000/svg">
<path d="M3.09943 2.92422C3.05857 2.99426 3.00608 3.02938 2.92436 3.02938C2.87766 3.02938 2.82512 3.01168 2.76675 2.97666C2.70838 2.94164 2.63249 2.90665 2.54494 2.86579C2.46322 2.81909 2.36398 2.78424 2.2414 2.74922C2.12466 2.70836 1.98459 2.69079 1.82115 2.69079C1.68106 2.69079 1.55848 2.70836 1.44757 2.74922C1.33083 2.78424 1.23744 2.83094 1.15572 2.89514C1.07984 2.95351 1.0156 3.02918 0.974739 3.1109C0.933879 3.19262 0.91054 3.28015 0.91054 3.37938C0.91054 3.50196 0.945593 3.6012 1.01564 3.68292C1.08568 3.76463 1.17906 3.83488 1.2958 3.89325C1.41254 3.95162 1.54098 4.00417 1.68691 4.05086C1.83284 4.09172 1.98454 4.14426 2.1363 4.19679C2.2939 4.24349 2.44568 4.30188 2.59161 4.36609C2.73753 4.42446 2.86597 4.50612 2.98271 4.59951C3.09945 4.6929 3.18699 4.80372 3.25704 4.94381C3.32708 5.07806 3.36214 5.2357 3.36214 5.42832C3.36214 5.64429 3.32707 5.84861 3.24535 6.0354C3.16947 6.21635 3.05275 6.37968 2.90099 6.51393C2.74922 6.64818 2.56246 6.75342 2.34065 6.83514C2.11885 6.91102 1.86782 6.95171 1.57597 6.95171C1.24326 6.95171 0.945548 6.89917 0.677044 6.7941C0.414378 6.68319 0.186785 6.54327 0 6.37399L0.192596 6.05877C0.215944 6.01791 0.250981 5.98863 0.280166 5.96529C0.315188 5.94194 0.361873 5.93023 0.414406 5.93023C0.46694 5.93023 0.531175 5.95365 0.589546 6.00034C0.653753 6.0412 0.729572 6.08803 0.817127 6.14057C0.904683 6.1931 1.01562 6.24563 1.14404 6.28649C1.26661 6.33319 1.43008 6.35062 1.61687 6.35062C1.78031 6.35062 1.92038 6.33305 2.04296 6.29219C2.16554 6.25133 2.26478 6.19308 2.3465 6.1172C2.42822 6.04715 2.48654 5.96519 2.52157 5.8718C2.56243 5.77841 2.58576 5.67932 2.58576 5.57425C2.58576 5.44 2.55078 5.33505 2.4749 5.25333C2.41069 5.16577 2.31731 5.08967 2.20057 5.0313C2.08383 4.9671 1.95539 4.91455 1.80362 4.87369C1.6577 4.827 1.50592 4.7803 1.35416 4.72777C1.19656 4.67523 1.05062 4.62268 0.898854 4.55847C0.752928 4.49426 0.624559 4.41274 0.507819 4.31935C0.391078 4.22012 0.297697 4.10317 0.227653 3.96308C0.157608 3.81716 0.122555 3.64809 0.122555 3.44379C0.122555 3.26284 0.16338 3.08765 0.233424 2.92422C0.309306 2.75494 0.420243 2.60902 0.560332 2.48644C0.706258 2.35802 0.881389 2.25878 1.09152 2.1829C1.30166 2.10702 1.53512 2.07203 1.80362 2.07203C2.11882 2.07203 2.39319 2.11873 2.63835 2.21796C2.88934 2.31719 3.1053 2.4514 3.28625 2.62068L3.09943 2.92422ZM8.27103 2.14784V6.8759H7.78074C7.65816 6.8759 7.58811 6.81764 7.55308 6.7009L7.48888 6.19301C7.28459 6.42065 7.05108 6.60727 6.80008 6.74736C6.54325 6.88161 6.25147 6.95171 5.91876 6.95171C5.66193 6.95171 5.43426 6.91101 5.2358 6.82345C5.03734 6.7359 4.87392 6.61325 4.73967 6.46149C4.60541 6.30389 4.50617 6.11698 4.43613 5.89517C4.37192 5.67337 4.33687 5.42835 4.33687 5.15984V2.14784H5.16576V5.15984C5.16576 5.52174 5.2475 5.79618 5.41094 5.99464C5.57438 6.18726 5.82532 6.28649 6.16387 6.28649C6.40902 6.28649 6.63669 6.2281 6.84683 6.1172C7.0628 5.99462 7.26127 5.83683 7.44221 5.62669V2.14784H8.27103ZM10.4249 5.73756C10.5825 5.94186 10.746 6.08792 10.9269 6.16964C11.1079 6.25719 11.3122 6.29789 11.534 6.29789C11.9776 6.29789 12.3161 6.14054 12.5496 5.82535C12.7889 5.51015 12.9057 5.06052 12.9057 4.48266C12.9057 4.17329 12.8765 3.90487 12.8239 3.6889C12.7714 3.46709 12.6897 3.28604 12.5904 3.14595C12.4854 3.00003 12.3628 2.89494 12.211 2.83073C12.0593 2.76652 11.89 2.73155 11.7032 2.73155C11.4289 2.73155 11.1954 2.79594 10.9853 2.91852C10.7868 3.04693 10.6 3.22185 10.4249 3.44949V5.73756ZM10.384 2.87747C10.5825 2.63232 10.816 2.434 11.0787 2.28807C11.3355 2.13631 11.639 2.06035 11.9718 2.06035C12.2461 2.06035 12.497 2.11289 12.713 2.21796C12.9348 2.32302 13.1275 2.47467 13.2792 2.68481C13.4368 2.88327 13.5536 3.13428 13.6411 3.43781C13.7229 3.74133 13.7637 4.08574 13.7637 4.48266C13.7637 4.82704 13.717 5.15387 13.6236 5.4574C13.5302 5.75508 13.3959 6.0178 13.2208 6.23377C13.0457 6.45557 12.8297 6.62493 12.5729 6.75334C12.3219 6.88176 12.0359 6.94002 11.7207 6.94002C11.4289 6.94002 11.1837 6.89333 10.9736 6.7941C10.7693 6.69487 10.5884 6.56079 10.4249 6.38568V8.47538H9.5902V2.14784H10.0922C10.2089 2.14784 10.2848 2.2004 10.3081 2.31714L10.384 2.87747ZM15.6607 5.73756C15.8125 5.94186 15.9818 6.08792 16.1627 6.16964C16.3437 6.25719 16.5421 6.29789 16.7698 6.29789C17.2134 6.29789 17.5519 6.14054 17.7854 5.82535C18.0247 5.51015 18.1415 5.06052 18.1415 4.48266C18.1415 4.17329 18.1123 3.90487 18.0597 3.6889C18.0072 3.46709 17.9255 3.28604 17.8262 3.14595C17.7212 3.00003 17.5928 2.89494 17.4469 2.83073C17.2951 2.76652 17.1259 2.73155 16.9391 2.73155C16.6647 2.73155 16.4254 2.79594 16.2211 2.91852C16.0226 3.04693 15.8358 3.22185 15.6607 3.44949V5.73756ZM15.6199 2.87747C15.8184 2.63232 16.0518 2.434 16.3086 2.28807C16.5713 2.13631 16.869 2.06035 17.2076 2.06035C17.4819 2.06035 17.7271 2.11289 17.9489 2.21796C18.1707 2.32302 18.3574 2.47467 18.515 2.68481C18.6726 2.88327 18.7894 3.13428 18.8769 3.43781C18.9587 3.74133 18.9995 4.08574 18.9995 4.48266C18.9995 4.82704 18.9528 5.15387 18.8594 5.4574C18.766 5.75508 18.6318 6.0178 18.4567 6.23377C18.2816 6.45557 18.0656 6.62493 17.8088 6.75334C17.5578 6.88176 17.2717 6.94002 16.9565 6.94002C16.6647 6.94002 16.4196 6.89333 16.2094 6.7941C16.0051 6.69487 15.8183 6.56079 15.6607 6.38568V8.47538H14.826V2.14784H15.328C15.4448 2.14784 15.5148 2.2004 15.544 2.31714L15.6199 2.87747ZM22.0581 2.07203C22.4025 2.07203 22.7119 2.13042 22.9921 2.24133C23.2664 2.35807 23.5057 2.52141 23.6983 2.73155C23.8968 2.94752 24.0427 3.20453 24.1478 3.50222C24.2529 3.80574 24.3054 4.1383 24.3054 4.50603C24.3054 4.8796 24.2529 5.21813 24.1478 5.51582C24.0427 5.81351 23.8968 6.07037 23.6983 6.28051C23.5057 6.49648 23.2664 6.65982 22.9921 6.77073C22.7119 6.88747 22.4025 6.94002 22.0581 6.94002C21.7079 6.94002 21.3927 6.88747 21.1125 6.77073C20.8323 6.65982 20.5989 6.49648 20.4004 6.28051C20.2078 6.07037 20.056 5.81351 19.9509 5.51582C19.8459 5.21813 19.7933 4.8796 19.7933 4.50603C19.7933 4.1383 19.8459 3.80574 19.9509 3.50222C20.056 3.20453 20.2078 2.94752 20.4004 2.73155C20.5989 2.52141 20.8323 2.35807 21.1125 2.24133C21.3927 2.13042 21.7079 2.07203 22.0581 2.07203ZM22.0581 6.29219C22.5251 6.29219 22.8695 6.13471 23.1029 5.82535C23.3306 5.51015 23.4473 5.07237 23.4473 4.51201C23.4473 3.95166 23.3306 3.50804 23.1029 3.19868C22.8695 2.88348 22.5251 2.72585 22.0581 2.72585C21.8188 2.72585 21.6145 2.76668 21.4336 2.8484C21.2584 2.92428 21.1125 3.04108 20.9958 3.19868C20.879 3.35044 20.7915 3.53721 20.7331 3.75901C20.6806 3.98082 20.6514 4.23184 20.6514 4.51201C20.6514 5.07237 20.7623 5.51015 20.9958 5.82535C21.2293 6.13471 21.5795 6.29219 22.0581 6.29219ZM26.1499 3.09351C26.3016 2.77248 26.4826 2.51576 26.6986 2.33481C26.9204 2.15386 27.183 2.06035 27.4982 2.06035C27.5975 2.06035 27.6909 2.07205 27.7843 2.0954C27.8776 2.11875 27.9594 2.14789 28.0294 2.19459L27.971 2.81905C27.9535 2.89493 27.9068 2.9359 27.8309 2.9359C27.7842 2.9359 27.7259 2.92434 27.6383 2.90683C27.5566 2.88932 27.4574 2.87747 27.3523 2.87747C27.2064 2.87747 27.0721 2.90074 26.9554 2.9416C26.8386 2.9883 26.7336 3.0527 26.6402 3.14025C26.5468 3.22197 26.4651 3.3329 26.395 3.45548C26.3192 3.58389 26.255 3.72383 26.1966 3.88727V6.8759H25.3619V2.14784H25.8347C25.9281 2.14784 25.9864 2.1654 26.0215 2.19459C26.0565 2.22961 26.0798 2.28801 26.0915 2.37557L26.1499 3.09351ZM30.2125 6.95171C29.8389 6.95171 29.5528 6.84662 29.3485 6.63649C29.1501 6.42635 29.0509 6.12864 29.0509 5.73756V2.84242H28.4847C28.4321 2.84242 28.3913 2.82501 28.3563 2.80166C28.3212 2.76664 28.3038 2.71981 28.3038 2.66144V2.32883L29.0801 2.22964L29.2727 0.770385C29.2785 0.723689 29.3019 0.682716 29.3311 0.653531C29.3661 0.624346 29.4069 0.606789 29.4653 0.606789H29.8856V2.24133H31.2514V2.84242H29.8856V5.67942C29.8856 5.87788 29.9323 6.0295 30.0257 6.1229C30.1249 6.22213 30.2475 6.26882 30.3992 6.26882C30.4868 6.26882 30.5627 6.25711 30.6269 6.23377C30.6911 6.21042 30.7495 6.18714 30.7962 6.15795C30.8429 6.12877 30.8779 6.10549 30.9129 6.08214C30.9421 6.05879 30.9713 6.04708 31.0005 6.04708C31.0413 6.04708 31.0822 6.07036 31.1172 6.1229L31.3565 6.51992C31.2164 6.65417 31.0413 6.75912 30.8428 6.84084C30.6386 6.91088 30.4284 6.95171 30.2125 6.95171ZM36.3763 3.03508C36.2538 3.01174 36.1195 2.99433 35.9736 2.99433C35.7401 2.99433 35.53 3.04672 35.3315 3.14595C35.1389 3.23935 34.9696 3.3677 34.8295 3.5253C34.6894 3.68874 34.5786 3.86994 34.5027 4.07424C34.421 4.27853 34.3859 4.48843 34.3859 4.7044C34.3859 4.9262 34.4326 5.10725 34.5377 5.24734C34.6427 5.38159 34.7945 5.44571 34.993 5.44571C35.0922 5.44571 35.1856 5.43428 35.2848 5.39925C35.3841 5.37007 35.4774 5.31738 35.5708 5.23566C35.6642 5.15978 35.746 5.05469 35.8277 4.92043C35.9036 4.78618 35.9678 4.61684 36.0203 4.41254L36.3763 3.03508ZM36.6682 4.34272C36.604 4.5762 36.5748 4.76867 36.5806 4.92043C36.5806 5.06636 36.604 5.18329 36.6507 5.26501C36.6974 5.34673 36.7616 5.40499 36.8375 5.44001C36.9192 5.46336 37.0067 5.48077 37.106 5.48077C37.2577 5.48077 37.4037 5.43408 37.5379 5.34653C37.678 5.25897 37.7947 5.13646 37.8998 4.97886C38.0049 4.82126 38.0866 4.62851 38.145 4.41254C38.2092 4.1849 38.2384 3.93987 38.2384 3.66553C38.2384 3.23943 38.1741 2.85992 38.034 2.53888C37.8998 2.21201 37.7072 1.94371 37.4679 1.72774C37.2285 1.51177 36.9425 1.34829 36.6098 1.24322C36.283 1.13815 35.9327 1.07962 35.5533 1.07962C35.133 1.07962 34.7419 1.16143 34.3801 1.31903C34.0123 1.47663 33.6972 1.69837 33.4287 1.97855C33.1543 2.25873 32.9383 2.59155 32.7807 2.97096C32.6289 3.3562 32.5473 3.77057 32.5473 4.22586C32.5473 4.75119 32.629 5.21824 32.7982 5.62099C32.9617 6.01791 33.1893 6.35046 33.4754 6.6248C33.7672 6.89331 34.1058 7.09777 34.4968 7.23786C34.8821 7.37211 35.3024 7.44221 35.746 7.44221C36.2188 7.44221 36.639 7.38967 37.0009 7.2846C37.3628 7.18537 37.678 7.05088 37.9407 6.89328C38.0049 6.85826 38.0574 6.8467 38.1041 6.86421C38.1508 6.87589 38.1858 6.91086 38.2092 6.9634L38.3317 7.27292C37.9932 7.49472 37.6138 7.67562 37.1877 7.79819C36.7616 7.92661 36.283 7.99086 35.746 7.99086C35.2031 7.99086 34.7011 7.90918 34.24 7.73407C33.773 7.56479 33.3703 7.31379 33.0317 6.99275C32.6874 6.67171 32.4247 6.28062 32.2262 5.81366C32.0336 5.3467 31.9344 4.8154 31.9344 4.22586C31.9344 3.88148 31.9811 3.5545 32.0628 3.24514C32.1503 2.92994 32.2729 2.63822 32.4247 2.36388C32.5823 2.08954 32.7691 1.84451 32.9851 1.61687C33.2069 1.38922 33.4462 1.19647 33.7147 1.03887C33.9832 0.875429 34.2692 0.752772 34.5786 0.665216C34.8938 0.577661 35.2148 0.530976 35.5533 0.530976C35.8393 0.530976 36.1195 0.560252 36.3939 0.62446C36.6682 0.68283 36.925 0.776063 37.1643 0.89864C37.4153 1.02122 37.6371 1.17314 37.8414 1.35409C38.0457 1.5292 38.2209 1.73338 38.3726 1.96686C38.5186 2.20034 38.6353 2.45722 38.717 2.74323C38.7987 3.02925 38.8454 3.33282 38.8454 3.66553C38.8454 4.00408 38.7929 4.3135 38.6995 4.59951C38.6061 4.88553 38.4719 5.13069 38.3084 5.34083C38.1392 5.55096 37.9465 5.7143 37.7189 5.83105C37.4912 5.94779 37.2461 6.00604 36.9834 6.00604C36.7499 6.00604 36.5515 5.94793 36.3939 5.83703C36.2421 5.71445 36.1429 5.5391 36.102 5.29978C35.9269 5.54494 35.7284 5.72613 35.5183 5.83703C35.3082 5.9421 35.0805 6.00034 34.8295 6.00034C34.6486 6.00034 34.4852 5.96523 34.3451 5.90686C34.2108 5.83681 34.0941 5.74928 34.0065 5.63838C33.9132 5.52164 33.8489 5.38756 33.8022 5.22996C33.7555 5.07819 33.7322 4.90871 33.7322 4.72777C33.7322 4.4651 33.7847 4.19681 33.8839 3.92831C33.989 3.65981 34.1349 3.41465 34.3392 3.19868C34.5377 2.98271 34.7829 2.80751 35.0805 2.66742C35.3724 2.53317 35.7168 2.46307 36.1079 2.46307C36.318 2.46307 36.4989 2.48049 36.6565 2.51551C36.8141 2.54469 36.9659 2.59153 37.106 2.65574L36.6682 4.34272ZM39.9252 6.8759V2.14784H40.4273C40.544 2.14784 40.6141 2.2004 40.6432 2.31714L40.7074 2.80166C40.8826 2.59153 41.0752 2.41064 41.2911 2.27638C41.513 2.14213 41.7639 2.07203 42.0499 2.07203C42.3651 2.07203 42.622 2.1597 42.8204 2.33481C43.0189 2.51576 43.1648 2.75493 43.2524 3.05846C43.3166 2.88334 43.4041 2.73756 43.5092 2.61498C43.6201 2.48656 43.7427 2.38717 43.8769 2.30546C44.0112 2.22374 44.1512 2.16533 44.303 2.12447C44.4548 2.08945 44.6066 2.07203 44.7642 2.07203C45.0151 2.07203 45.2311 2.11287 45.4237 2.19459C45.6222 2.27047 45.7856 2.38712 45.9199 2.53888C46.06 2.69064 46.1651 2.87755 46.2351 3.1052C46.3051 3.32117 46.3402 3.57788 46.3402 3.8639V6.8759H45.5055V3.8639C45.5055 3.49616 45.4237 3.21602 45.2603 3.0234C45.1027 2.83078 44.8692 2.73155 44.5599 2.73155C44.4256 2.73155 44.2972 2.76066 44.1688 2.80736C44.0462 2.85406 43.9412 2.92431 43.8478 3.0177C43.7544 3.11109 43.6785 3.22775 43.626 3.37368C43.5734 3.51377 43.5442 3.67711 43.5442 3.8639V6.8759H42.7095V3.8639C42.7095 3.48449 42.6336 3.1985 42.4819 3.01171C42.3301 2.82493 42.1025 2.73155 41.8107 2.73155C41.6064 2.73155 41.4195 2.78994 41.2444 2.90084C41.0693 3.01175 40.9059 3.15769 40.76 3.35031V6.8759H39.9252ZM50.1693 4.74544C49.784 4.75711 49.4572 4.79194 49.1887 4.83864C48.9202 4.88533 48.6984 4.94972 48.5291 5.0256C48.3598 5.10732 48.2372 5.19472 48.1613 5.29978C48.0855 5.41069 48.0504 5.52763 48.0504 5.65605C48.0504 5.78446 48.0679 5.88942 48.1088 5.97697C48.1496 6.07036 48.2022 6.14632 48.2722 6.2047C48.3423 6.25723 48.424 6.3039 48.5174 6.32725C48.6166 6.35643 48.7216 6.36801 48.8267 6.36801C48.9726 6.36801 49.1069 6.3506 49.2295 6.32725C49.3521 6.29223 49.463 6.25138 49.568 6.19301C49.6789 6.14048 49.784 6.07052 49.8774 5.99464C49.9766 5.91292 50.0759 5.82511 50.1693 5.72588V4.74544ZM47.4842 2.81335C47.7469 2.56235 48.027 2.37544 48.3306 2.24703C48.6283 2.12445 48.9669 2.06035 49.3346 2.06035C49.5973 2.06035 49.8307 2.10703 50.035 2.19459C50.2451 2.28214 50.4144 2.39895 50.5545 2.55655C50.6946 2.71415 50.7996 2.90078 50.8755 3.12258C50.9456 3.34439 50.9806 3.58371 50.9806 3.85221V6.8759H50.6129C50.5312 6.8759 50.467 6.86419 50.4261 6.84084C50.3794 6.81165 50.3502 6.75925 50.321 6.67753L50.2276 6.23377C50.105 6.34467 49.9825 6.44975 49.8657 6.5373C49.749 6.62486 49.6205 6.70082 49.4921 6.76503C49.3579 6.8234 49.2178 6.87008 49.0719 6.89927C48.926 6.93429 48.7625 6.95171 48.5816 6.95171C48.3948 6.95171 48.2255 6.92843 48.0621 6.8759C47.8987 6.82336 47.7586 6.74754 47.636 6.64247C47.5193 6.53741 47.4259 6.4089 47.35 6.25714C47.2858 6.0937 47.2507 5.90694 47.2507 5.6968C47.2507 5.51002 47.3033 5.32912 47.4025 5.15984C47.5076 4.98473 47.671 4.82696 47.9045 4.69271C48.1321 4.55846 48.4357 4.45364 48.8034 4.36609C49.177 4.27853 49.6322 4.23184 50.1693 4.22016V3.85221C50.1693 3.48448 50.0875 3.20448 49.9299 3.0177C49.7723 2.83091 49.5389 2.73155 49.2353 2.73155C49.031 2.73155 48.8559 2.76081 48.7158 2.81335C48.5816 2.86588 48.459 2.9183 48.3539 2.98834C48.2547 3.04671 48.1671 3.10511 48.0971 3.15764C48.0212 3.21017 47.9512 3.23345 47.8811 3.23345C47.8227 3.23345 47.776 3.22188 47.7352 3.1927C47.6943 3.15767 47.6593 3.12269 47.6302 3.08183L47.4842 2.81335ZM53.1228 2.14784V6.8759H52.2939V2.14784H53.1228ZM53.3037 0.659516C53.3037 0.741234 53.2862 0.817196 53.2512 0.88724C53.222 0.957284 53.1754 1.02139 53.1228 1.07392C53.0703 1.12646 53.006 1.17299 52.9302 1.20218C52.8601 1.23136 52.7784 1.24892 52.7025 1.24892C52.6208 1.24892 52.545 1.23136 52.4691 1.20218C52.4049 1.17299 52.3406 1.12646 52.2881 1.07392C52.2356 1.02139 52.1947 0.957284 52.1655 0.88724C52.1305 0.817196 52.1188 0.741234 52.1188 0.659516C52.1188 0.577798 52.1305 0.501836 52.1655 0.431792C52.1947 0.355911 52.2356 0.291658 52.2881 0.239124C52.3406 0.186591 52.4049 0.140055 52.4691 0.110869C52.545 0.0758472 52.6208 0.0641275 52.7025 0.0641275C52.7784 0.0641275 52.8601 0.0758472 52.9302 0.110869C53.006 0.140055 53.0703 0.186591 53.1228 0.239124C53.1754 0.291658 53.222 0.355911 53.2512 0.431792C53.2862 0.501836 53.3037 0.577798 53.3037 0.659516ZM55.3525 0V6.8759H54.5178V0H55.3525ZM56.555 6.36231C56.555 6.28059 56.5725 6.20463 56.6017 6.13458C56.6309 6.06454 56.6717 6.00043 56.7184 5.9479C56.7768 5.89537 56.8352 5.85438 56.9052 5.81936C56.9811 5.79017 57.057 5.77262 57.1387 5.77262C57.2204 5.77262 57.2962 5.79017 57.3663 5.81936C57.4363 5.85438 57.5006 5.89537 57.5531 5.9479C57.6056 6.00043 57.6465 6.06454 57.6757 6.13458C57.7107 6.20463 57.7224 6.28059 57.7224 6.36231C57.7224 6.44402 57.7107 6.52569 57.6757 6.59573C57.6465 6.66577 57.6056 6.72418 57.5531 6.77671C57.5006 6.82925 57.4363 6.87008 57.3663 6.89927C57.2962 6.92845 57.2204 6.94601 57.1387 6.94601C57.057 6.94601 56.9811 6.92845 56.9052 6.89927C56.8352 6.87008 56.7768 6.82925 56.7184 6.77671C56.6717 6.72418 56.6309 6.66577 56.6017 6.59573C56.5725 6.52569 56.555 6.44402 56.555 6.36231ZM62.1994 2.98834C62.1702 3.01753 62.1468 3.04693 62.1235 3.06444C62.1001 3.08195 62.0651 3.09351 62.0184 3.09351C61.9718 3.09351 61.9192 3.07594 61.8667 3.03508C61.8083 2.99423 61.7383 2.95353 61.6566 2.90683C61.5748 2.86013 61.4756 2.81915 61.353 2.77829C61.2363 2.73743 61.0845 2.71986 60.9152 2.71986C60.6818 2.71986 60.4716 2.76085 60.2965 2.8484C60.1214 2.92428 59.9696 3.04692 59.847 3.19868C59.7303 3.35628 59.6369 3.54291 59.5785 3.76471C59.5202 3.98652 59.491 4.23169 59.491 4.50603C59.491 4.79204 59.5202 5.04877 59.5844 5.27641C59.6544 5.49238 59.742 5.67943 59.8645 5.83703C59.9813 5.98296 60.1272 6.09961 60.2965 6.18132C60.4658 6.25721 60.6584 6.29789 60.8685 6.29789C61.0728 6.29789 61.2421 6.27476 61.3705 6.22807C61.499 6.17553 61.6098 6.12284 61.6915 6.06447C61.7791 6.0061 61.8491 5.95355 61.9075 5.90686C61.9659 5.85432 62.0243 5.83105 62.0826 5.83105C62.1469 5.83105 62.1994 5.85432 62.2403 5.90686L62.4737 6.2104C62.3686 6.33881 62.2519 6.44975 62.1235 6.5373C61.9892 6.6307 61.8491 6.70652 61.6974 6.77073C61.5456 6.8291 61.3881 6.87008 61.2246 6.89927C61.0612 6.92845 60.8919 6.94002 60.7226 6.94002C60.4249 6.94002 60.1506 6.88762 59.8938 6.77671C59.6428 6.67165 59.421 6.51401 59.2342 6.30388C59.0474 6.09958 58.9015 5.84272 58.7964 5.53919C58.6913 5.23567 58.6388 4.89711 58.6388 4.50603C58.6388 4.15581 58.6855 3.82898 58.7847 3.53129C58.8839 3.2336 59.024 2.97687 59.2108 2.7609C59.4034 2.54493 59.637 2.37559 59.9113 2.25301C60.1856 2.13044 60.5008 2.07203 60.8627 2.07203C61.1954 2.07203 61.4873 2.12444 61.7383 2.23534C61.9951 2.34041 62.2227 2.49218 62.4153 2.68481L62.1994 2.98834ZM65.2755 2.07203C65.6199 2.07203 65.9351 2.13042 66.2094 2.24133C66.4896 2.35807 66.723 2.52141 66.9215 2.73155C67.1141 2.94752 67.2659 3.20453 67.371 3.50222C67.476 3.80574 67.5286 4.1383 67.5286 4.50603C67.5286 4.8796 67.476 5.21813 67.371 5.51582C67.2659 5.81351 67.1141 6.07037 66.9215 6.28051C66.723 6.49648 66.4896 6.65982 66.2094 6.77073C65.9351 6.88747 65.6199 6.94002 65.2755 6.94002C64.9253 6.94002 64.6159 6.88747 64.3357 6.77073C64.0556 6.65982 63.8221 6.49648 63.6236 6.28051C63.4252 6.07037 63.2792 5.81351 63.1683 5.51582C63.0691 5.21813 63.0166 4.8796 63.0166 4.50603C63.0166 4.1383 63.0691 3.80574 63.1683 3.50222C63.2792 3.20453 63.4252 2.94752 63.6236 2.73155C63.8221 2.52141 64.0556 2.35807 64.3357 2.24133C64.6159 2.13042 64.9253 2.07203 65.2755 2.07203ZM65.2755 6.29219C65.7424 6.29219 66.0927 6.13471 66.3203 5.82535C66.5538 5.51015 66.6705 5.07237 66.6705 4.51201C66.6705 3.95166 66.5538 3.50804 66.3203 3.19868C66.0927 2.88348 65.7424 2.72585 65.2755 2.72585C65.042 2.72585 64.8319 2.76668 64.6568 2.8484C64.4817 2.92428 64.3358 3.04108 64.219 3.19868C64.1023 3.35044 64.0147 3.53721 63.9563 3.75901C63.8979 3.98082 63.8687 4.23184 63.8687 4.51201C63.8687 5.07237 63.9855 5.51015 64.219 5.82535C64.4525 6.13471 64.8027 6.29219 65.2755 6.29219ZM68.5793 6.8759V2.14784H69.0812C69.198 2.14784 69.2739 2.2004 69.3031 2.31714L69.3614 2.80166C69.5365 2.59153 69.7291 2.41064 69.951 2.27638C70.1669 2.14213 70.4179 2.07203 70.704 2.07203C71.025 2.07203 71.2818 2.1597 71.4744 2.33481C71.6787 2.51576 71.8188 2.75493 71.9063 3.05846C71.9764 2.88334 72.064 2.73756 72.1691 2.61498C72.2741 2.48656 72.3967 2.38717 72.5309 2.30546C72.6652 2.22374 72.8053 2.16533 72.957 2.12447C73.1088 2.08945 73.2664 2.07203 73.4181 2.07203C73.6691 2.07203 73.8909 2.11287 74.0835 2.19459C74.2762 2.27047 74.4455 2.38712 74.5798 2.53888C74.714 2.69064 74.819 2.87755 74.8891 3.1052C74.9591 3.32117 75 3.57788 75 3.8639V6.8759H74.1594V3.8639C74.1594 3.49616 74.0836 3.21602 73.9202 3.0234C73.7567 2.83078 73.5232 2.73155 73.2197 2.73155C73.0796 2.73155 72.9512 2.76066 72.8286 2.80736C72.7061 2.85406 72.5951 2.92431 72.5017 3.0177C72.4083 3.11109 72.3383 3.22775 72.2799 3.37368C72.2274 3.51377 72.1982 3.67711 72.1982 3.8639V6.8759H71.3635V3.8639C71.3635 3.48449 71.2877 3.1985 71.1359 3.01171C70.9841 2.82493 70.7623 2.73155 70.4705 2.73155C70.2603 2.73155 70.0736 2.78994 69.8984 2.90084C69.7233 3.01175 69.5657 3.15769 69.4198 3.35031V6.8759H68.5793Z" fill="white"/>
</svg>
