<svg width="11" height="11" viewBox="0 0 11 11" fill="none" xmlns="http://www.w3.org/2000/svg">
<mask id="mask0_2_1202" style="mask-type:luminance" maskUnits="userSpaceOnUse" x="-2" y="-2" width="15" height="15">
<path d="M12.8334 -1.8335H-1.83325V12.8332H12.8334V-1.8335Z" fill="white"/>
</mask>
<g mask="url(#mask0_2_1202)">
<path d="M2.16336 1.22222C2.20002 1.76611 2.29166 2.29768 2.43833 2.8049L1.70502 3.53836C1.45447 2.80502 1.29557 2.02889 1.24057 1.22222H2.16336ZM8.1889 8.56779C8.70835 8.71446 9.24 8.80624 9.77778 8.84291V9.75331C8.97111 9.69831 8.19497 9.53942 7.45553 9.29498L8.1889 8.56779ZM2.75 0H0.611111C0.275 0 0 0.275 0 0.611111C0 6.34944 4.65056 11 10.3889 11C10.725 11 11 10.725 11 10.3889V8.25597C11 7.91986 10.725 7.64486 10.3889 7.64486C9.63111 7.64486 8.8917 7.52274 8.20725 7.29663C8.14614 7.27219 8.07889 7.26619 8.01777 7.26619C7.85889 7.26619 7.70613 7.32733 7.58391 7.44344L6.23942 8.78771C4.50998 7.9016 3.09222 6.49002 2.21222 4.76058L3.55663 3.41602C3.72774 3.2449 3.77663 3.00656 3.70941 2.79267C3.4833 2.10823 3.36111 1.375 3.36111 0.611111C3.36111 0.275 3.08611 0 2.75 0Z" fill="#F0F0F0"/>
</g>
</svg>
