<svg width="539" height="59" viewBox="0 0 539 59" fill="none" xmlns="http://www.w3.org/2000/svg">
<path d="M2.29368 1.46147V0.933915H10.5202V1.46147H9.82659C9.04309 1.46147 8.47183 1.6937 8.11343 2.15186C7.88667 2.45343 7.77358 3.18402 7.77358 4.33231V13.7216C7.77358 15.1656 7.61293 16.3372 7.29222 17.2361C6.98021 18.1292 6.43797 18.912 5.66374 19.5847C4.88952 20.2459 3.95522 20.5764 2.86028 20.5764C1.97297 20.5764 1.27473 20.3561 0.764956 19.9212C0.255185 19.4804 0 18.9759 0 18.4076C0 17.9436 0.118313 17.5956 0.354351 17.3578C0.665781 17.0679 1.02883 16.9229 1.44465 16.9229C1.74622 16.9229 2.01531 17.0216 2.25135 17.2188C2.49666 17.416 2.80346 17.9436 3.17172 18.8077C3.38862 19.3123 3.66758 19.5675 4.00684 19.5675C4.26202 19.5675 4.49804 19.411 4.71494 19.1036C4.9417 18.7905 5.05479 18.2393 5.05479 17.4448V4.33231C5.05479 3.3638 4.99332 2.72017 4.87096 2.407C4.77643 2.17502 4.57808 1.97187 4.27593 1.79788C3.86997 1.57171 3.44081 1.46147 2.98787 1.46147H2.29368ZM17.9534 6.78547C19.917 6.78547 21.4933 7.52785 22.6828 9.01831C23.6925 10.2942 24.1976 11.7613 24.1976 13.4084C24.1976 14.5741 23.9192 15.7456 23.3619 16.9345C22.8052 18.1234 22.0362 19.0224 21.0543 19.6255C20.0823 20.2287 18.9967 20.5303 17.7979 20.5303C15.8441 20.5303 14.291 19.7531 13.1398 18.1989C12.1672 16.8824 11.6813 15.4093 11.6813 13.7796C11.6813 12.5907 11.9735 11.4077 12.5593 10.2362C13.1537 9.05896 13.9326 8.18891 14.8953 7.63216C15.858 7.06962 16.8776 6.78547 17.9534 6.78547ZM17.5143 7.70182C17.0144 7.70182 16.5093 7.85263 15.9995 8.16C15.4996 8.44997 15.0936 8.97174 14.7822 9.71407C14.4702 10.4622 14.3148 11.4194 14.3148 12.5909C14.3148 14.4757 14.6877 16.1053 15.4335 17.4739C16.1886 18.8426 17.1797 19.527 18.4069 19.527C19.322 19.527 20.0771 19.1499 20.6721 18.396C21.2666 17.6362 21.5641 16.3428 21.5641 14.4986C21.5641 12.1962 21.0682 10.387 20.0771 9.06475C19.4073 8.16004 18.553 7.70182 17.5143 7.70182ZM29.4078 0C29.8045 0 30.1397 0.145122 30.4135 0.429295C30.6965 0.701869 30.838 1.03823 30.838 1.43259C30.838 1.82695 30.6965 2.16898 30.4135 2.45315C30.1397 2.73733 29.8045 2.87679 29.4078 2.87679C29.0117 2.87679 28.6719 2.73733 28.3883 2.45315C28.1053 2.16898 27.9638 1.82695 27.9638 1.43259C27.9638 1.03823 28.1006 0.701869 28.3744 0.429295C28.6574 0.145122 29.0019 0 29.4078 0ZM30.5834 6.78547V17.2072C30.5834 18.0191 30.6396 18.5584 30.7533 18.8309C30.8757 19.0977 31.0502 19.2948 31.277 19.4281C31.513 19.5615 31.9376 19.6255 32.5511 19.6255V20.1358H26.2506V19.6255C26.8827 19.6255 27.3079 19.5673 27.5248 19.4398C27.7422 19.318 27.9122 19.1151 28.0345 18.8309C28.1668 18.5526 28.2329 18.0075 28.2329 17.2072V12.208C28.2329 10.7987 28.1905 9.88825 28.1053 9.47649C28.0392 9.17492 27.9354 8.96609 27.7938 8.8501C27.6523 8.72831 27.4586 8.66462 27.2133 8.66462C26.9489 8.66462 26.6282 8.7398 26.2506 8.87899L26.0523 8.3687L29.9599 6.78547H30.5834ZM37.9597 9.52859C39.4797 7.70177 40.9284 6.78547 42.307 6.78547C43.0145 6.78547 43.6234 6.96535 44.1332 7.32492C44.643 7.67288 45.0489 8.25283 45.3511 9.06475C45.5587 9.6273 45.6625 10.4971 45.6625 11.6686V17.2072C45.6625 18.0249 45.7286 18.5816 45.8603 18.8774C45.9641 19.1093 46.1294 19.2948 46.3561 19.4281C46.5922 19.5615 47.0213 19.6255 47.6448 19.6255V20.1358H41.2306V19.6255H41.4997C42.104 19.6255 42.5239 19.5386 42.7599 19.3588C43.0052 19.1674 43.1751 18.8949 43.2697 18.5353C43.3074 18.3961 43.3259 17.9495 43.3259 17.2072V11.8948C43.3259 10.7175 43.1705 9.85925 42.8591 9.3315C42.5569 8.79215 42.0425 8.5253 41.3158 8.5253C40.1925 8.5253 39.0738 9.14 37.9597 10.3637V17.2072C37.9597 18.0829 38.0119 18.6279 38.1157 18.8309C38.2479 19.1093 38.4271 19.3122 38.6539 19.4398C38.8899 19.5673 39.3614 19.6255 40.0695 19.6255V20.1358H33.6559V19.6255H33.9389C34.5995 19.6255 35.0432 19.4631 35.2699 19.1325C35.5059 18.7903 35.6237 18.1467 35.6237 17.2072V12.3935C35.6237 10.8334 35.586 9.88252 35.5106 9.54615C35.4445 9.20398 35.336 8.97189 35.1847 8.8501C35.0431 8.72831 34.8495 8.66462 34.6041 8.66462C34.3403 8.66462 34.0236 8.7398 33.6559 8.87899L33.4431 8.3687L37.3513 6.78547H37.9597V9.52859ZM65.626 0.498956C68.118 0.498956 70.2748 1.44421 72.097 3.34063C73.9279 5.23125 74.8436 7.5916 74.8436 10.4217C74.8436 13.3389 73.9232 15.7629 72.0825 17.6883C70.2417 19.6137 68.0142 20.5764 65.3998 20.5764C62.757 20.5764 60.534 19.637 58.731 17.758C56.9372 15.879 56.0406 13.4491 56.0406 10.4682C56.0406 7.41766 57.0793 4.92963 59.1555 3.00422C60.9586 1.33397 63.1154 0.498956 65.626 0.498956ZM65.3574 1.53113C63.6391 1.53113 62.2611 2.16924 61.223 3.44512C59.9297 5.02837 59.2831 7.34801 59.2831 10.4101C59.2831 13.5418 59.9535 15.9545 61.2938 17.6422C62.3226 18.9296 63.682 19.5675 65.3714 19.5675C67.1744 19.5675 68.6608 18.8658 69.8311 17.4623C71.0113 16.0531 71.6011 13.8377 71.6011 10.8046C71.6011 7.5221 70.9545 5.06898 69.6612 3.45673C68.6231 2.17505 67.1883 1.53113 65.3574 1.53113ZM88.2519 7.16832V15.0265C88.2519 16.5227 88.285 17.445 88.3511 17.7871C88.4265 18.1177 88.5402 18.3497 88.6909 18.4772C88.8516 18.6106 89.0354 18.6803 89.243 18.6803C89.5359 18.6803 89.8659 18.5988 90.2342 18.4365L90.4325 18.9295L86.5527 20.5303H85.9159V17.7871C84.8018 18.9934 83.9522 19.753 83.367 20.0661C82.7819 20.3793 82.1637 20.5303 81.5124 20.5303C80.7857 20.5303 80.153 20.3271 79.6154 19.9095C79.0865 19.4862 78.7182 18.941 78.5106 18.2799C78.303 17.6187 78.1992 16.6853 78.1992 15.479V9.68519C78.1992 9.07045 78.133 8.64712 78.0008 8.41514C77.8686 8.17737 77.6708 7.99748 77.4064 7.87569C77.1518 7.74231 76.6843 7.67861 76.0046 7.69021V7.16832H80.5497V15.8443C80.5497 17.0564 80.7573 17.8451 81.1725 18.2221C81.5976 18.6049 82.1068 18.7904 82.7019 18.7904C83.1078 18.7904 83.5654 18.6628 84.0752 18.4076C84.5942 18.1524 85.2078 17.6651 85.9159 16.9518V9.60392C85.9159 8.86739 85.779 8.36874 85.5053 8.11356C85.2408 7.85259 84.6841 7.70761 83.8345 7.69021V7.16832H88.2519ZM95.1759 6.78547V9.70246C96.261 7.75385 97.375 6.78547 98.5169 6.78547C99.0366 6.78547 99.4657 6.9421 99.8056 7.26686C100.145 7.57424 100.315 7.93953 100.315 8.35709C100.315 8.72246 100.192 9.03555 99.9471 9.29072C99.7018 9.5459 99.4089 9.67358 99.069 9.67358C98.7391 9.67358 98.3661 9.51115 97.9509 9.19218C97.5449 8.86161 97.2428 8.69351 97.0445 8.69351C96.8745 8.69351 96.6907 8.79195 96.4924 8.97753C96.0678 9.36609 95.6288 10.0042 95.1759 10.8915V17.1084C95.1759 17.8217 95.2652 18.367 95.4444 18.7324C95.5673 18.9876 95.7842 19.2022 96.0962 19.3704C96.4077 19.5386 96.856 19.6255 97.4411 19.6255V20.1358H90.8008V19.6255C91.4613 19.6255 91.952 19.5211 92.2733 19.3123C92.5093 19.1615 92.674 18.9236 92.7685 18.5931C92.8161 18.4307 92.8393 17.9727 92.8393 17.2188V12.1904C92.8393 10.6826 92.8062 9.78375 92.7401 9.50537C92.6839 9.2096 92.5702 8.99496 92.4003 8.86738C92.2402 8.73399 92.0372 8.66462 91.7919 8.66462C91.499 8.66462 91.1685 8.7398 90.8008 8.87899L90.6593 8.3687L94.5809 6.78547H95.1759ZM124.838 0.498956L125.277 7.02333H124.838C124.253 5.06892 123.418 3.66544 122.332 2.80712C121.247 1.94881 119.944 1.51952 118.425 1.51952C117.15 1.51952 115.999 1.84439 114.969 2.49393C113.941 3.13767 113.129 4.16407 112.534 5.57914C111.949 6.9942 111.657 8.75715 111.657 10.8624C111.657 12.5964 111.935 14.1043 112.492 15.3801C113.049 16.6502 113.884 17.6305 114.998 18.309C116.121 18.9876 117.401 19.3296 118.835 19.3296C120.081 19.3296 121.181 19.063 122.134 18.5353C123.087 17.9959 124.135 16.9345 125.277 15.3513L125.716 15.6356C124.754 17.3406 123.63 18.5931 122.346 19.3877C121.063 20.1764 119.538 20.5764 117.773 20.5764C114.592 20.5764 112.128 19.3934 110.382 17.033C109.079 15.2816 108.428 13.2112 108.428 10.8335C108.428 8.91965 108.858 7.1567 109.717 5.55025C110.576 3.9496 111.755 2.70857 113.256 1.82705C114.767 0.939737 116.414 0.498956 118.198 0.498956C119.585 0.498956 120.954 0.835188 122.304 1.51952C122.701 1.7225 122.984 1.82705 123.154 1.82705C123.408 1.82705 123.63 1.74008 123.819 1.5603C124.064 1.30512 124.239 0.951313 124.343 0.498956H124.838ZM133.971 6.78547C135.934 6.78547 137.511 7.52785 138.7 9.01831C139.71 10.2942 140.215 11.7613 140.215 13.4084C140.215 14.5741 139.937 15.7456 139.379 16.9345C138.823 18.1234 138.054 19.0224 137.072 19.6255C136.099 20.2287 135.014 20.5303 133.815 20.5303C131.861 20.5303 130.308 19.7531 129.157 18.1989C128.185 16.8824 127.699 15.4093 127.699 13.7796C127.699 12.5907 127.991 11.4077 128.576 10.2362C129.171 9.05896 129.95 8.18891 130.913 7.63216C131.875 7.06962 132.895 6.78547 133.971 6.78547ZM133.532 7.70182C133.032 7.70182 132.527 7.85263 132.017 8.16C131.516 8.44997 131.111 8.97174 130.799 9.71407C130.488 10.4622 130.332 11.4194 130.332 12.5909C130.332 14.4757 130.705 16.1053 131.45 17.4739C132.206 18.8426 133.197 19.527 134.424 19.527C135.339 19.527 136.094 19.1499 136.689 18.396C137.284 17.6362 137.581 16.3428 137.581 14.4986C137.581 12.1962 137.086 10.387 136.094 9.06475C135.425 8.16004 134.57 7.70182 133.532 7.70182ZM145.977 9.54615C146.921 8.60084 147.478 8.05566 147.648 7.91647C148.073 7.55691 148.531 7.27857 149.021 7.08138C149.513 6.8842 149.999 6.78547 150.48 6.78547C151.292 6.78547 151.99 7.01757 152.575 7.49312C153.16 7.96288 153.553 8.64723 153.751 9.54615C154.723 8.41526 155.544 7.67288 156.214 7.32492C156.884 6.96535 157.573 6.78547 158.281 6.78547C158.97 6.78547 159.579 6.96535 160.108 7.32492C160.646 7.67288 161.071 8.24687 161.382 9.04719C161.59 9.59814 161.694 10.4566 161.694 11.6281V17.2072C161.694 18.0191 161.755 18.5758 161.878 18.8774C161.972 19.0861 162.147 19.2601 162.402 19.4109C162.657 19.5559 163.072 19.6255 163.648 19.6255V20.1358H157.248V19.6255H157.517C158.074 19.6255 158.508 19.5153 158.82 19.3007C159.036 19.1499 159.193 18.9064 159.286 18.5758C159.325 18.4192 159.343 17.9611 159.343 17.2072V11.6281C159.343 10.5668 159.216 9.82451 158.961 9.38955C158.593 8.78641 158.003 8.48481 157.191 8.48481C156.691 8.48481 156.186 8.6122 155.676 8.86738C155.176 9.11095 154.567 9.57499 153.849 10.2535L153.822 10.4101L153.849 11.0189V17.2072C153.849 18.0945 153.897 18.6452 153.992 18.8598C154.095 19.0802 154.284 19.2601 154.558 19.4109C154.831 19.5559 155.299 19.6255 155.959 19.6255V20.1358H149.404V19.6255C150.121 19.6255 150.612 19.5386 150.877 19.3704C151.15 19.2022 151.339 18.9468 151.443 18.6047C151.49 18.4481 151.513 17.9785 151.513 17.2072V11.6281C151.513 10.5668 151.358 9.80693 151.047 9.34878C150.631 8.73983 150.05 8.43836 149.305 8.43836C148.795 8.43836 148.29 8.57753 147.79 8.8501C147.006 9.26766 146.402 9.73157 145.977 10.2535V17.2072C145.977 18.0539 146.034 18.6046 146.147 18.8598C146.27 19.115 146.445 19.3122 146.671 19.4398C146.907 19.5673 147.379 19.6255 148.087 19.6255V20.1358H141.673V19.6255C142.268 19.6255 142.683 19.5673 142.919 19.4398C143.155 19.3122 143.334 19.1093 143.457 18.8309C143.58 18.5526 143.641 18.0075 143.641 17.2072V12.2485C143.641 10.8218 143.599 9.90566 143.514 9.4881C143.448 9.17493 143.344 8.96609 143.202 8.8501C143.061 8.72831 142.867 8.66462 142.622 8.66462C142.357 8.66462 142.041 8.7398 141.673 8.87899L141.461 8.3687L145.368 6.78547H145.977V9.54615ZM168.546 9.54615C169.491 8.60084 170.047 8.05566 170.217 7.91647C170.642 7.55691 171.1 7.27857 171.591 7.08138C172.082 6.8842 172.568 6.78547 173.049 6.78547C173.861 6.78547 174.559 7.01757 175.144 7.49312C175.73 7.96288 176.122 8.64723 176.32 9.54615C177.292 8.41526 178.113 7.67288 178.784 7.32492C179.453 6.96535 180.142 6.78547 180.851 6.78547C181.539 6.78547 182.148 6.96535 182.677 7.32492C183.215 7.67288 183.64 8.24687 183.951 9.04719C184.159 9.59814 184.263 10.4566 184.263 11.6281V17.2072C184.263 18.0191 184.324 18.5758 184.447 18.8774C184.541 19.0861 184.716 19.2601 184.971 19.4109C185.226 19.5559 185.641 19.6255 186.217 19.6255V20.1358H179.817V19.6255H180.086C180.643 19.6255 181.077 19.5153 181.389 19.3007C181.606 19.1499 181.762 18.9064 181.856 18.5758C181.894 18.4192 181.912 17.9611 181.912 17.2072V11.6281C181.912 10.5668 181.785 9.82451 181.53 9.38955C181.162 8.78641 180.572 8.48481 179.76 8.48481C179.26 8.48481 178.755 8.6122 178.245 8.86738C177.745 9.11095 177.136 9.57499 176.419 10.2535L176.391 10.4101L176.419 11.0189V17.2072C176.419 18.0945 176.466 18.6452 176.561 18.8598C176.664 19.0802 176.853 19.2601 177.127 19.4109C177.4 19.5559 177.868 19.6255 178.528 19.6255V20.1358H171.973V19.6255C172.69 19.6255 173.181 19.5386 173.446 19.3704C173.72 19.2022 173.908 18.9468 174.012 18.6047C174.059 18.4481 174.083 17.9785 174.083 17.2072V11.6281C174.083 10.5668 173.927 9.80693 173.616 9.34878C173.2 8.73983 172.619 8.43836 171.874 8.43836C171.364 8.43836 170.859 8.57753 170.359 8.8501C169.575 9.26766 168.972 9.73157 168.546 10.2535V17.2072C168.546 18.0539 168.603 18.6046 168.716 18.8598C168.839 19.115 169.014 19.3122 169.241 19.4398C169.476 19.5673 169.948 19.6255 170.656 19.6255V20.1358H164.242V19.6255C164.837 19.6255 165.252 19.5673 165.488 19.4398C165.724 19.3122 165.904 19.1093 166.027 18.8309C166.149 18.5526 166.21 18.0075 166.21 17.2072V12.2485C166.21 10.8218 166.168 9.90566 166.083 9.4881C166.017 9.17493 165.913 8.96609 165.771 8.8501C165.63 8.72831 165.436 8.66462 165.191 8.66462C164.926 8.66462 164.61 8.7398 164.242 8.87899L164.03 8.3687L167.937 6.78547H168.546V9.54615ZM198.634 7.16832V15.0265C198.634 16.5227 198.667 17.445 198.733 17.7871C198.809 18.1177 198.922 18.3497 199.073 18.4772C199.234 18.6106 199.417 18.6803 199.625 18.6803C199.918 18.6803 200.248 18.5988 200.616 18.4365L200.815 18.9295L196.935 20.5303H196.298V17.7871C195.184 18.9934 194.334 19.753 193.749 20.0661C193.164 20.3793 192.546 20.5303 191.894 20.5303C191.168 20.5303 190.535 20.3271 189.997 19.9095C189.469 19.4862 189.1 18.941 188.893 18.2799C188.685 17.6187 188.581 16.6853 188.581 15.479V9.68519C188.581 9.07045 188.515 8.64712 188.383 8.41514C188.251 8.17737 188.053 7.99748 187.788 7.87569C187.534 7.74231 187.066 7.67861 186.387 7.69021V7.16832H190.932V15.8443C190.932 17.0564 191.139 17.8451 191.555 18.2221C191.98 18.6049 192.489 18.7904 193.084 18.7904C193.49 18.7904 193.947 18.6628 194.457 18.4076C194.976 18.1524 195.59 17.6651 196.298 16.9518V9.60392C196.298 8.86739 196.161 8.36874 195.887 8.11356C195.623 7.85259 195.066 7.70761 194.216 7.69021V7.16832H198.634ZM205.543 9.52859C207.063 7.70177 208.512 6.78547 209.89 6.78547C210.598 6.78547 211.207 6.96535 211.717 7.32492C212.227 7.67288 212.633 8.25283 212.934 9.06475C213.142 9.6273 213.246 10.4971 213.246 11.6686V17.2072C213.246 18.0249 213.312 18.5816 213.444 18.8774C213.548 19.1093 213.713 19.2948 213.94 19.4281C214.176 19.5615 214.605 19.6255 215.228 19.6255V20.1358H208.814V19.6255H209.083C209.687 19.6255 210.108 19.5386 210.344 19.3588C210.589 19.1674 210.759 18.8949 210.853 18.5353C210.891 18.3961 210.91 17.9495 210.91 17.2072V11.8948C210.91 10.7175 210.754 9.85925 210.443 9.3315C210.141 8.79215 209.626 8.5253 208.899 8.5253C207.776 8.5253 206.657 9.14 205.543 10.3637V17.2072C205.543 18.0829 205.596 18.6279 205.699 18.8309C205.832 19.1093 206.011 19.3122 206.238 19.4398C206.473 19.5673 206.945 19.6255 207.653 19.6255V20.1358H201.239V19.6255H201.523C202.183 19.6255 202.627 19.4631 202.854 19.1325C203.089 18.7903 203.207 18.1467 203.207 17.2072V12.3935C203.207 10.8334 203.17 9.88252 203.094 9.54615C203.028 9.20398 202.919 8.97189 202.768 8.8501C202.627 8.72831 202.433 8.66462 202.188 8.66462C201.923 8.66462 201.607 8.7398 201.239 8.87899L201.027 8.3687L204.934 6.78547H205.543V9.52859ZM219.561 0C219.957 0 220.293 0.145122 220.566 0.429295C220.849 0.701869 220.991 1.03823 220.991 1.43259C220.991 1.82695 220.849 2.16898 220.566 2.45315C220.293 2.73733 219.957 2.87679 219.561 2.87679C219.165 2.87679 218.825 2.73733 218.541 2.45315C218.258 2.16898 218.117 1.82695 218.117 1.43259C218.117 1.03823 218.253 0.701869 218.527 0.429295C218.81 0.145122 219.155 0 219.561 0ZM220.736 6.78547V17.2072C220.736 18.0191 220.792 18.5584 220.906 18.8309C221.029 19.0977 221.203 19.2948 221.43 19.4281C221.666 19.5615 222.09 19.6255 222.704 19.6255V20.1358H216.403V19.6255C217.036 19.6255 217.461 19.5673 217.678 19.4398C217.894 19.318 218.064 19.1151 218.187 18.8309C218.32 18.5526 218.386 18.0075 218.386 17.2072V12.208C218.386 10.7987 218.343 9.88825 218.258 9.47649C218.192 9.17492 218.088 8.96609 217.947 8.8501C217.805 8.72831 217.611 8.66462 217.366 8.66462C217.102 8.66462 216.781 8.7398 216.403 8.87899L216.205 8.3687L220.113 6.78547H220.736ZM228.099 2.90567V7.16832H231.128V8.16H228.099V16.5692C228.099 17.4101 228.216 17.9725 228.452 18.2683C228.698 18.5582 229.009 18.7032 229.387 18.7032C229.699 18.7032 230 18.6104 230.293 18.4249C230.586 18.2219 230.812 17.9378 230.973 17.5609H231.525C231.194 18.483 230.727 19.1846 230.123 19.6544C229.519 20.1184 228.896 20.3505 228.254 20.3505C227.82 20.3505 227.395 20.2285 226.98 19.9965C226.565 19.7471 226.258 19.4052 226.06 18.9586C225.861 18.5063 225.763 17.816 225.763 16.8764V8.16H223.709V7.69021C224.229 7.48143 224.757 7.13343 225.295 6.64048C225.843 6.14173 226.329 5.5503 226.753 4.87176C226.971 4.5122 227.273 3.85678 227.66 2.90567H228.099ZM231.666 7.16832H237.712V7.69021H237.415C236.99 7.69021 236.669 7.78286 236.452 7.97424C236.245 8.15402 236.141 8.38044 236.141 8.65301C236.141 9.01838 236.297 9.52852 236.608 10.1839L239.765 16.7258L242.668 9.55748C242.829 9.17471 242.909 8.79211 242.909 8.41514C242.909 8.24116 242.876 8.11348 242.809 8.03229C242.734 7.9279 242.616 7.84675 242.456 7.78876C242.295 7.72496 242.012 7.69021 241.606 7.69021V7.16832H245.825V7.69021C245.476 7.73081 245.207 7.80628 245.019 7.91647C244.829 8.03246 244.622 8.24101 244.395 8.55418C244.31 8.68757 244.15 9.04735 243.914 9.64469L238.633 22.5833C238.123 23.8418 237.453 24.7869 236.622 25.4306C235.801 26.0744 235.008 26.3934 234.244 26.3934C233.686 26.3934 233.229 26.231 232.87 25.912C232.511 25.5931 232.332 25.2219 232.332 24.8102C232.332 24.41 232.459 24.091 232.714 23.8474C232.979 23.6096 233.337 23.4937 233.79 23.4937C234.102 23.4937 234.527 23.598 235.065 23.8009C235.442 23.9459 235.678 24.0156 235.772 24.0156C236.056 24.0156 236.363 23.8707 236.693 23.575C237.033 23.285 237.372 22.7166 237.712 21.8756L238.633 19.6255L233.975 9.84178C233.833 9.55181 233.606 9.18652 233.295 8.75156C233.059 8.42099 232.865 8.20067 232.714 8.08468C232.497 7.93389 232.148 7.8062 231.666 7.69021V7.16832ZM260.494 6.78547C262.457 6.78547 264.034 7.52785 265.223 9.01831C266.233 10.2942 266.738 11.7613 266.738 13.4084C266.738 14.5741 266.46 15.7456 265.902 16.9345C265.346 18.1234 264.577 19.0224 263.595 19.6255C262.622 20.2287 261.537 20.5303 260.338 20.5303C258.385 20.5303 256.831 19.7531 255.68 18.1989C254.708 16.8824 254.222 15.4093 254.222 13.7796C254.222 12.5907 254.514 11.4077 255.099 10.2362C255.694 9.05896 256.473 8.18891 257.436 7.63216C258.398 7.06962 259.418 6.78547 260.494 6.78547ZM260.055 7.70182C259.555 7.70182 259.05 7.85263 258.54 8.16C258.039 8.44997 257.634 8.97174 257.322 9.71407C257.011 10.4622 256.855 11.4194 256.855 12.5909C256.855 14.4757 257.228 16.1053 257.974 17.4739C258.729 18.8426 259.72 19.527 260.947 19.527C261.862 19.527 262.618 19.1499 263.213 18.396C263.807 17.6362 264.104 16.3428 264.104 14.4986C264.104 12.1962 263.609 10.387 262.618 9.06475C261.948 8.16004 261.093 7.70182 260.055 7.70182ZM273.718 8.18322V16.7082C273.718 17.9203 273.85 18.68 274.115 19.0048C274.464 19.4166 274.931 19.6255 275.517 19.6255H276.692V20.1358H268.946V19.6255H269.527C269.905 19.6255 270.249 19.5326 270.561 19.3412C270.872 19.1556 271.085 18.9006 271.198 18.5758C271.321 18.2568 271.382 17.6362 271.382 16.7082V8.18322H268.862V7.16832H271.382V6.31568C271.382 5.0224 271.59 3.92621 272.005 3.0331C272.42 2.13418 273.052 1.4152 273.902 0.864253C274.761 0.307507 275.724 0.0291671 276.791 0.0291671C277.782 0.0291671 278.692 0.354027 279.523 0.991966C280.071 1.41533 280.345 1.89652 280.345 2.42427C280.345 2.70844 280.222 2.9753 279.976 3.23047C279.731 3.47405 279.467 3.59577 279.184 3.59577C278.966 3.59577 278.735 3.5203 278.489 3.36951C278.254 3.21293 277.961 2.87657 277.612 2.36622C277.263 1.85007 276.942 1.49627 276.649 1.31649C276.356 1.1367 276.031 1.04973 275.672 1.04973C275.238 1.04973 274.87 1.16593 274.568 1.4037C274.266 1.62988 274.049 1.98937 273.917 2.48232C273.784 2.96368 273.718 4.2104 273.718 6.2344V7.16832H277.06V8.18322H273.718ZM297.944 0.498956V7.13915H297.42C297.25 5.86327 296.943 4.84837 296.5 4.09444C296.065 3.34052 295.442 2.7376 294.631 2.29684C293.819 1.85028 292.979 1.62968 292.111 1.62968C291.129 1.62968 290.317 1.93128 289.675 2.53443C289.033 3.13177 288.712 3.81032 288.712 4.57584C288.712 5.16159 288.915 5.69528 289.321 6.17664C289.906 6.88417 291.299 7.82941 293.498 9.0067C295.292 9.96941 296.514 10.7118 297.165 11.2279C297.826 11.7383 298.331 12.3414 298.68 13.0431C299.039 13.739 299.218 14.4696 299.218 15.2352C299.218 16.6908 298.652 17.9435 297.519 19.0048C296.396 20.0487 294.947 20.5764 293.172 20.5764C292.616 20.5764 292.091 20.5302 291.601 20.449C291.308 20.4026 290.7 20.2287 289.774 19.9387C288.859 19.6371 288.278 19.4862 288.033 19.4862C287.797 19.4862 287.608 19.556 287.466 19.6952C287.334 19.8402 287.235 20.1299 287.169 20.5764H286.645V13.9883H287.169C287.414 15.3686 287.745 16.401 288.16 17.0911C288.575 17.7696 289.208 18.3381 290.058 18.7904C290.916 19.2428 291.855 19.4689 292.875 19.4689C294.055 19.4689 294.985 19.1616 295.664 18.5353C296.353 17.9148 296.698 17.1782 296.698 16.3257C296.698 15.8559 296.566 15.3804 296.301 14.899C296.047 14.4177 295.645 13.9651 295.098 13.5534C294.73 13.2692 293.725 12.6718 292.082 11.7555C290.44 10.8276 289.269 10.0913 288.571 9.54615C287.882 8.9952 287.358 8.39184 286.999 7.73071C286.641 7.06957 286.461 6.34478 286.461 5.55025C286.461 4.17578 286.99 2.98683 288.047 2.00092C289.104 0.997618 290.449 0.498956 292.082 0.498956C293.102 0.498956 294.182 0.748355 295.325 1.24711C295.853 1.48488 296.226 1.60079 296.443 1.60079C296.689 1.60079 296.886 1.53128 297.038 1.39209C297.198 1.24131 297.325 0.939714 297.42 0.498956H297.944ZM312.711 15.2063C312.362 16.9171 311.678 18.2335 310.658 19.1614C309.639 20.0719 308.511 20.5303 307.274 20.5303C305.802 20.5303 304.519 19.9156 303.424 18.6803C302.329 17.4392 301.781 15.7687 301.781 13.6635C301.781 11.6279 302.385 9.96938 303.593 8.69351C304.811 7.42343 306.269 6.78547 307.969 6.78547C309.243 6.78547 310.29 7.12198 311.111 7.80632C311.933 8.47325 312.344 9.17491 312.344 9.89984C312.344 10.2594 312.225 10.5492 311.989 10.7754C311.763 10.9958 311.442 11.1002 311.027 11.1002C310.47 11.1002 310.049 10.9205 309.766 10.5667C309.606 10.3637 309.497 9.98679 309.441 9.43005C309.394 8.8733 309.205 8.44997 308.874 8.16C308.544 7.87583 308.086 7.73071 307.501 7.73071C306.557 7.73071 305.797 8.08451 305.221 8.78044C304.457 9.70255 304.075 10.9264 304.075 12.4459C304.075 13.9943 304.452 15.3628 305.207 16.5516C305.972 17.7347 307.001 18.3263 308.294 18.3263C309.219 18.3263 310.049 18.0075 310.786 17.3754C311.305 16.9404 311.81 16.1517 312.301 15.0092L312.711 15.2063ZM318.389 0V9.4881C319.437 8.33401 320.267 7.60324 320.881 7.27848C321.495 6.94791 322.108 6.78547 322.722 6.78547C323.458 6.78547 324.09 6.98833 324.619 7.39429C325.148 7.80026 325.539 8.43822 325.794 9.30233C325.974 9.90548 326.063 11.0133 326.063 12.6197V17.2072C326.063 18.0249 326.13 18.5874 326.262 18.889C326.356 19.1152 326.516 19.2948 326.743 19.4281C326.969 19.5615 327.385 19.6255 327.989 19.6255V20.1358H321.618V19.6255H321.915C322.519 19.6255 322.939 19.5386 323.175 19.3588C323.411 19.1674 323.576 18.8949 323.671 18.5353C323.699 18.3845 323.713 17.9437 323.713 17.2072V12.6197C323.713 11.1989 323.638 10.2709 323.486 9.83018C323.345 9.38362 323.113 9.05307 322.793 8.83849C322.472 8.61231 322.084 8.49642 321.632 8.49642C321.169 8.49642 320.688 8.618 320.187 8.86738C319.687 9.11095 319.088 9.60394 318.389 10.3521V17.2072C318.389 18.0945 318.437 18.6452 318.531 18.8598C318.634 19.0802 318.819 19.2601 319.083 19.4109C319.357 19.5559 319.824 19.6255 320.485 19.6255V20.1358H314.057V19.6255C314.632 19.6255 315.086 19.5386 315.416 19.3588C315.605 19.2602 315.756 19.0861 315.869 18.8193C315.982 18.5525 316.039 18.0191 316.039 17.2072V5.46898C316.039 3.98432 316.001 3.07383 315.925 2.73746C315.859 2.3953 315.751 2.1632 315.6 2.04142C315.459 1.91963 315.265 1.85594 315.02 1.85594C314.821 1.85594 314.501 1.93141 314.057 2.08219L313.859 1.58918L317.738 0H318.389ZM335.422 6.78547C337.386 6.78547 338.962 7.52785 340.151 9.01831C341.161 10.2942 341.666 11.7613 341.666 13.4084C341.666 14.5741 341.388 15.7456 340.831 16.9345C340.274 18.1234 339.505 19.0224 338.523 19.6255C337.551 20.2287 336.465 20.5303 335.267 20.5303C333.313 20.5303 331.76 19.7531 330.608 18.1989C329.636 16.8824 329.15 15.4093 329.15 13.7796C329.15 12.5907 329.443 11.4077 330.028 10.2362C330.622 9.05896 331.401 8.18891 332.364 7.63216C333.327 7.06962 334.346 6.78547 335.422 6.78547ZM334.984 7.70182C334.483 7.70182 333.978 7.85263 333.468 8.16C332.968 8.44997 332.562 8.97174 332.251 9.71407C331.939 10.4622 331.783 11.4194 331.783 12.5909C331.783 14.4757 332.156 16.1053 332.902 17.4739C333.657 18.8426 334.648 19.527 335.876 19.527C336.791 19.527 337.546 19.1499 338.141 18.396C338.735 17.6362 339.033 16.3428 339.033 14.4986C339.033 12.1962 338.538 10.387 337.546 9.06475C336.876 8.16004 336.022 7.70182 334.984 7.70182ZM348.038 0V17.2072C348.038 18.0191 348.094 18.5525 348.207 18.8193C348.33 19.0861 348.514 19.289 348.76 19.4281C349.005 19.5615 349.463 19.6255 350.133 19.6255V20.1358H343.776V19.6255C344.371 19.6255 344.776 19.5673 344.993 19.4398C345.211 19.318 345.381 19.1151 345.503 18.8309C345.626 18.5526 345.688 18.0075 345.688 17.2072V5.42254C345.688 3.96108 345.655 3.06223 345.588 2.73746C345.522 2.3953 345.414 2.1632 345.263 2.04142C345.121 1.91963 344.937 1.85594 344.71 1.85594C344.465 1.85594 344.154 1.93141 343.776 2.08219L343.535 1.58918L347.401 0H348.038ZM358.997 18.2683C357.666 19.2948 356.83 19.8923 356.491 20.0489C355.981 20.2866 355.438 20.4026 354.862 20.4026C353.966 20.4026 353.225 20.0951 352.639 19.4862C352.064 18.8715 351.776 18.0655 351.776 17.0622C351.776 16.4301 351.917 15.8849 352.2 15.4209C352.587 14.7772 353.258 14.174 354.211 13.6114C355.174 13.0431 356.769 12.353 358.997 11.5411V11.0306C358.997 9.73728 358.789 8.85006 358.374 8.3687C357.968 7.88735 357.373 7.64972 356.589 7.64972C355.995 7.64972 355.523 7.80607 355.174 8.13084C354.815 8.4498 354.636 8.8212 354.636 9.23296L354.664 10.0564C354.664 10.4914 354.551 10.8219 354.324 11.0597C354.107 11.2975 353.819 11.4134 353.461 11.4134C353.112 11.4134 352.823 11.2917 352.597 11.0481C352.38 10.7987 352.271 10.468 352.271 10.0389C352.271 9.22695 352.686 8.48485 353.517 7.80632C354.348 7.12198 355.514 6.78547 357.014 6.78547C358.166 6.78547 359.11 6.97685 359.846 7.36541C360.403 7.65538 360.814 8.11361 361.078 8.73995C361.248 9.14591 361.333 9.97525 361.333 11.2279V15.6356C361.333 16.8708 361.357 17.6304 361.404 17.9146C361.451 18.1871 361.526 18.3728 361.63 18.4656C361.743 18.5584 361.871 18.6047 362.012 18.6047C362.163 18.6047 362.295 18.5757 362.409 18.5061C362.607 18.3843 362.99 18.0423 363.556 17.4739V18.2683C362.498 19.6833 361.489 20.3909 360.526 20.3909C360.063 20.3909 359.695 20.2285 359.421 19.9095C359.148 19.5906 359.006 19.0396 358.997 18.2683ZM358.997 17.3462V12.4051C357.571 12.9734 356.651 13.3736 356.236 13.6114C355.49 14.0232 354.957 14.4583 354.636 14.9106C354.315 15.363 354.154 15.8615 354.154 16.395C354.154 17.0794 354.357 17.642 354.763 18.0944C355.169 18.5409 355.637 18.7613 356.165 18.7613C356.882 18.7613 357.826 18.2915 358.997 17.3462ZM368.327 6.78547V9.70246C369.413 7.75385 370.527 6.78547 371.669 6.78547C372.188 6.78547 372.617 6.9421 372.957 7.26686C373.297 7.57424 373.467 7.93953 373.467 8.35709C373.467 8.72246 373.344 9.03555 373.099 9.29072C372.853 9.5459 372.561 9.67358 372.221 9.67358C371.891 9.67358 371.518 9.51115 371.103 9.19218C370.697 8.86161 370.394 8.69351 370.196 8.69351C370.026 8.69351 369.842 8.79195 369.644 8.97753C369.219 9.36609 368.78 10.0042 368.327 10.8915V17.1084C368.327 17.8217 368.417 18.367 368.597 18.7324C368.719 18.9876 368.936 19.2022 369.248 19.3704C369.559 19.5386 370.008 19.6255 370.593 19.6255V20.1358H363.952V19.6255C364.613 19.6255 365.104 19.5211 365.425 19.3123C365.661 19.1615 365.826 18.9236 365.92 18.5931C365.968 18.4307 365.991 17.9727 365.991 17.2188V12.1904C365.991 10.6826 365.958 9.78375 365.892 9.50537C365.835 9.2096 365.722 8.99496 365.552 8.86738C365.392 8.73399 365.189 8.66462 364.943 8.66462C364.651 8.66462 364.321 8.7398 363.952 8.87899L363.811 8.3687L367.732 6.78547H368.327ZM382.571 6.78547V11.1988H382.104C381.745 9.8127 381.283 8.86746 380.716 8.3687C380.16 7.86995 379.447 7.62055 378.578 7.62055C377.917 7.62055 377.384 7.79448 376.979 8.14245C376.573 8.49041 376.37 8.87897 376.37 9.30233C376.37 9.83008 376.52 10.2883 376.823 10.6653C377.115 11.048 377.71 11.4599 378.606 11.8948L380.674 12.8981C382.59 13.8376 383.548 15.067 383.548 16.5981C383.548 17.7754 383.1 18.7266 382.203 19.4573C381.316 20.1764 380.32 20.5303 379.215 20.5303C378.423 20.5303 377.516 20.3911 376.497 20.1069C376.186 20.0141 375.931 19.9676 375.732 19.9676C375.515 19.9676 375.345 20.0893 375.222 20.3329H374.756V15.7049H375.222C375.487 17.0272 375.992 18.0189 376.738 18.6916C377.483 19.3643 378.319 19.6952 379.244 19.6952C379.895 19.6952 380.423 19.5095 380.829 19.1325C381.245 18.7439 381.453 18.28 381.453 17.7407C381.453 17.0912 381.221 16.546 380.759 16.0994C380.306 15.6587 379.395 15.0962 378.026 14.4176C376.657 13.7333 375.761 13.1242 375.336 12.5733C374.911 12.0398 374.699 11.3556 374.699 10.5378C374.699 9.47073 375.062 8.57755 375.789 7.85842C376.525 7.14509 377.474 6.78547 378.635 6.78547C379.145 6.78547 379.763 6.88989 380.49 7.11027C380.971 7.24946 381.292 7.32492 381.453 7.32492C381.604 7.32492 381.721 7.29002 381.807 7.22042C381.891 7.15663 381.99 7.01164 382.104 6.78547H382.571ZM391.01 15.6064H390.429C390.495 14.4175 390.641 13.4316 390.868 12.6602C391.104 11.8773 391.586 10.793 392.312 9.40116C392.879 8.33407 393.247 7.52202 393.416 6.95367C393.586 6.37953 393.672 5.79958 393.672 5.21384C393.672 4.01335 393.35 3.06214 392.709 2.35461C392.076 1.64708 391.297 1.2876 390.372 1.2876C389.551 1.2876 388.904 1.48465 388.433 1.87321C387.961 2.25597 387.725 2.67957 387.725 3.13193C387.725 3.47989 387.866 3.90889 388.149 4.41925C388.433 4.9296 388.575 5.31816 388.575 5.57914C388.575 5.9213 388.466 6.20561 388.249 6.44339C388.032 6.66957 387.767 6.78547 387.456 6.78547C387.06 6.78547 386.696 6.58828 386.365 6.20552C386.045 5.80536 385.884 5.2603 385.884 4.55857C385.884 3.49727 386.342 2.55175 387.257 1.72822C388.173 0.910502 389.414 0.498956 390.981 0.498956C392.926 0.498956 394.356 1.06132 395.272 2.19801C395.951 3.02733 396.291 3.94959 396.291 4.9587C396.291 5.64883 396.135 6.35645 395.824 7.08138C395.522 7.80632 394.941 8.66459 394.082 9.64469C392.714 11.1931 391.873 12.2892 391.562 12.9445C391.26 13.5825 391.076 14.4697 391.01 15.6064ZM390.811 17.3578C391.255 17.3578 391.628 17.5145 391.93 17.8276C392.242 18.1292 392.397 18.5005 392.397 18.947C392.397 19.382 392.242 19.753 391.93 20.0661C391.619 20.3677 391.246 20.5187 390.811 20.5187C390.378 20.5187 390.005 20.3677 389.693 20.0661C389.391 19.753 389.24 19.382 389.24 18.947C389.24 18.5005 389.391 18.1292 389.693 17.8276C390.005 17.5145 390.378 17.3578 390.811 17.3578ZM416.368 13.71H408.935L407.632 16.7374C407.311 17.4855 407.151 18.0422 407.151 18.4076C407.151 18.7034 407.288 18.9584 407.561 19.1846C407.844 19.405 408.449 19.5443 409.374 19.6139V20.1358H403.328V19.6139C404.13 19.4689 404.649 19.2892 404.885 19.0572C405.367 18.6048 405.9 17.6884 406.486 16.2965L413.239 0.498956H413.735L420.418 16.4707C420.956 17.7523 421.442 18.5874 421.876 18.9759C422.32 19.3529 422.933 19.5675 423.717 19.6139V20.1358H416.142V19.6139C416.906 19.5733 417.42 19.4456 417.685 19.2311C417.959 19.0107 418.095 18.7496 418.095 18.4365C418.095 18.0189 417.907 17.3638 417.529 16.4707L416.368 13.71ZM415.972 12.6602L412.715 4.90065L409.374 12.6602H415.972ZM424.028 8.45564L428.021 6.84352H428.559V9.87067C429.229 8.72818 429.899 7.93372 430.569 7.47557C431.249 7.01741 431.962 6.78547 432.708 6.78547C434.013 6.78547 435.097 7.29575 435.961 8.31065C437.028 9.55753 437.562 11.1813 437.562 13.1821C437.562 15.4207 436.924 17.2709 435.636 18.7324C434.581 19.9329 433.253 20.5303 431.645 20.5303C430.947 20.5303 430.343 20.4315 429.833 20.2343C429.455 20.0952 429.031 19.811 428.559 19.3877V23.3371C428.559 24.2244 428.611 24.7869 428.715 25.0189C428.828 25.2683 429.017 25.4596 429.281 25.5988C429.555 25.7438 430.046 25.8135 430.753 25.8135V26.3354H423.958V25.8135H424.311C424.83 25.8251 425.274 25.7263 425.642 25.5176C425.821 25.4132 425.958 25.2451 426.053 25.0073C426.157 24.7811 426.208 24.1955 426.208 23.2502V10.9901C426.208 10.1491 426.171 9.61573 426.095 9.38955C426.02 9.16337 425.897 8.99498 425.727 8.87899C425.567 8.7688 425.345 8.71078 425.062 8.71078C424.835 8.71078 424.547 8.77477 424.198 8.90815L424.028 8.45564ZM428.559 10.706V15.5483C428.559 16.5981 428.601 17.2824 428.686 17.613C428.819 18.1639 429.139 18.6454 429.649 19.0572C430.168 19.4747 430.819 19.6836 431.603 19.6836C432.545 19.6836 433.311 19.3123 433.897 18.5758C434.662 17.6131 435.045 16.2618 435.045 14.5162C435.045 12.5328 434.61 11.0074 433.74 9.94033C433.137 9.2038 432.418 8.83849 431.589 8.83849C431.135 8.83849 430.687 8.94873 430.244 9.17491C429.904 9.34889 429.342 9.85932 428.559 10.706ZM438.525 8.45564L442.52 6.84352H443.06V9.87067C443.727 8.72818 444.399 7.93372 445.066 7.47557C445.745 7.01741 446.458 6.78547 447.206 6.78547C448.511 6.78547 449.596 7.29575 450.46 8.31065C451.527 9.55753 452.061 11.1813 452.061 13.1821C452.061 15.4207 451.423 17.2709 450.135 18.7324C449.08 19.9329 447.751 20.5303 446.145 20.5303C445.443 20.5303 444.84 20.4315 444.33 20.2343C443.953 20.0952 443.529 19.811 443.06 19.3877V23.3371C443.06 24.2244 443.112 24.7869 443.211 25.0189C443.326 25.2683 443.518 25.4596 443.779 25.5988C444.051 25.7438 444.544 25.8135 445.252 25.8135V26.3354H438.455V25.8135H438.809C439.331 25.8251 439.771 25.7263 440.143 25.5176C440.322 25.4132 440.456 25.2451 440.549 25.0073C440.653 24.7811 440.705 24.1955 440.705 23.2502V10.9901C440.705 10.1491 440.67 9.61573 440.595 9.38955C440.52 9.16337 440.398 8.99498 440.224 8.87899C440.067 8.7688 439.841 8.71078 439.563 8.71078C439.337 8.71078 439.047 8.77477 438.699 8.90815L438.525 8.45564ZM443.06 10.706V15.5483C443.06 16.5981 443.1 17.2824 443.187 17.613C443.315 18.1639 443.64 18.6454 444.15 19.0572C444.666 19.4747 445.316 19.6836 446.104 19.6836C447.044 19.6836 447.809 19.3123 448.395 18.5758C449.161 17.6131 449.544 16.2618 449.544 14.5162C449.544 12.5328 449.109 11.0074 448.239 9.94033C447.635 9.2038 446.916 8.83849 446.087 8.83849C445.635 8.83849 445.188 8.94873 444.742 9.17491C444.405 9.34889 443.843 9.85932 443.06 10.706ZM458.422 0V17.2072C458.422 18.0191 458.475 18.5525 458.591 18.8193C458.712 19.0861 458.898 19.289 459.142 19.4281C459.385 19.5615 459.843 19.6255 460.516 19.6255V20.1358H454.16V19.6255C454.751 19.6255 455.157 19.5673 455.378 19.4398C455.592 19.318 455.761 19.1151 455.888 18.8309C456.01 18.5526 456.068 18.0075 456.068 17.2072V5.42254C456.068 3.96108 456.039 3.06223 455.969 2.73746C455.906 2.3953 455.795 2.1632 455.645 2.04142C455.505 1.91963 455.32 1.85594 455.094 1.85594C454.844 1.85594 454.537 1.93141 454.16 2.08219L453.916 1.58918L457.785 0H458.422ZM461.293 7.16832H467.342V7.69021H467.04C466.617 7.69021 466.298 7.78286 466.078 7.97424C465.875 8.15402 465.77 8.38044 465.77 8.65301C465.77 9.01838 465.921 9.52852 466.234 10.1839L469.395 16.7258L472.295 9.55748C472.457 9.17471 472.538 8.79211 472.538 8.41514C472.538 8.24116 472.503 8.11348 472.44 8.03229C472.364 7.9279 472.243 7.84675 472.08 7.78876C471.924 7.72496 471.639 7.69021 471.233 7.69021V7.16832H475.455V7.69021C475.102 7.73081 474.835 7.80628 474.644 7.91647C474.458 8.03246 474.249 8.24101 474.023 8.55418C473.936 8.68757 473.779 9.04735 473.542 9.64469L468.258 22.5833C467.748 23.8418 467.081 24.7869 466.252 25.4306C465.428 26.0744 464.634 26.3934 463.868 26.3934C463.311 26.3934 462.859 26.231 462.5 25.912C462.14 25.5931 461.96 25.2219 461.96 24.8102C461.96 24.41 462.088 24.091 462.343 23.8474C462.604 23.6096 462.963 23.4937 463.416 23.4937C463.729 23.4937 464.152 23.598 464.692 23.8009C465.069 23.9459 465.306 24.0156 465.399 24.0156C465.683 24.0156 465.991 23.8707 466.321 23.575C466.658 23.285 467 22.7166 467.342 21.8756L468.258 19.6255L463.601 9.84178C463.462 9.55181 463.236 9.18652 462.923 8.75156C462.685 8.42099 462.494 8.20067 462.343 8.08468C462.123 7.93389 461.775 7.8062 461.293 7.69021V7.16832ZM482.49 0.933915H487.698L499.436 15.334V4.26265C499.436 3.08536 499.309 2.3488 499.042 2.05303C498.694 1.65866 498.137 1.46147 497.383 1.46147H496.722V0.933915H503.403V1.46147H502.724C501.913 1.46147 501.333 1.70506 500.996 2.19801C500.787 2.49958 500.683 3.18975 500.683 4.26265V20.449H500.173L487.518 4.98758V16.8068C487.518 17.9899 487.646 18.7264 487.901 19.0164C488.255 19.4108 488.812 19.6139 489.554 19.6139H490.232V20.1358H483.551V19.6139H484.218C485.036 19.6139 485.616 19.3645 485.958 18.8774C486.167 18.5758 486.271 17.8855 486.271 16.8068V3.45673C485.715 2.80719 485.291 2.37791 484.996 2.16913C484.711 1.96035 484.294 1.76897 483.737 1.58918C483.465 1.50219 483.047 1.46147 482.49 1.46147V0.933915ZM511.076 6.78547C513.042 6.78547 514.613 7.52785 515.808 9.01831C516.817 10.2942 517.322 11.7613 517.322 13.4084C517.322 14.5741 517.043 15.7456 516.487 16.9345C515.93 18.1234 515.158 19.0224 514.178 19.6255C513.204 20.2287 512.12 20.5303 510.919 20.5303C508.965 20.5303 507.416 19.7531 506.262 18.1989C505.288 16.8824 504.806 15.4093 504.806 13.7796C504.806 12.5907 505.096 11.4077 505.682 10.2362C506.274 9.05896 507.057 8.18891 508.019 7.63216C508.982 7.06962 510.003 6.78547 511.076 6.78547ZM510.635 7.70182C510.136 7.70182 509.632 7.85263 509.121 8.16C508.622 8.44997 508.217 8.97174 507.903 9.71407C507.596 10.4622 507.439 11.4194 507.439 12.5909C507.439 14.4757 507.811 16.1053 508.559 17.4739C509.313 18.8426 510.304 19.527 511.528 19.527C512.444 19.527 513.198 19.1499 513.796 18.396C514.387 17.6362 514.689 16.3428 514.689 14.4986C514.689 12.1962 514.19 10.387 513.198 9.06475C512.531 8.16004 511.673 7.70182 510.635 7.70182ZM518.511 7.16832H523.945V7.69021C523.446 7.73081 523.115 7.81778 522.953 7.95697C522.802 8.10195 522.727 8.30482 522.727 8.56579C522.727 8.86157 522.808 9.21538 522.97 9.62714L525.742 17.0911L528.532 11.0189L527.795 9.10524C527.569 8.5369 527.274 8.14832 526.908 7.93374C526.699 7.80036 526.311 7.71921 525.742 7.69021V7.16832H531.919V7.69021C531.24 7.71921 530.759 7.84093 530.475 8.05551C530.283 8.2121 530.191 8.44987 530.191 8.78044C530.191 8.97182 530.231 9.1632 530.307 9.36039L533.247 16.8068L535.984 9.62714C536.17 9.12259 536.263 8.71672 536.263 8.41514C536.263 8.23536 536.17 8.07293 535.984 7.93374C535.804 7.78876 535.445 7.70761 534.906 7.69021V7.16832H539V7.69021C538.176 7.812 537.573 8.36868 537.185 9.36039L532.853 20.5303H532.273L529.031 12.2485L525.249 20.5303H524.728L520.564 9.62714C520.291 8.9428 520.018 8.47905 519.757 8.24127C519.491 7.9977 519.079 7.812 518.511 7.69021V7.16832ZM153.142 35.3826V39.6452H156.172V40.6369H153.142V49.0461C153.142 49.887 153.26 50.4494 153.496 50.7452C153.741 51.0351 154.052 51.1801 154.43 51.1801C154.742 51.1801 155.044 51.0873 155.336 50.9018C155.629 50.6988 155.856 50.4147 156.016 50.0378H156.568C156.238 50.9599 155.771 51.6615 155.167 52.1313C154.562 52.5953 153.939 52.8273 153.297 52.8273C152.864 52.8273 152.438 52.7054 152.023 52.4734C151.608 52.224 151.301 51.8821 151.103 51.4355C150.904 50.9832 150.805 50.2929 150.805 49.3533V40.6369H148.752V40.1671C149.272 39.9583 149.8 39.6103 150.338 39.1174C150.886 38.6186 151.372 38.0272 151.796 37.3487C152.014 36.9891 152.316 36.3337 152.703 35.3826H153.142ZM163.789 39.2624C165.753 39.2624 167.329 40.0048 168.518 41.4952C169.528 42.7711 170.033 44.2382 170.033 45.8853C170.033 47.051 169.755 48.2225 169.198 49.4114C168.641 50.6003 167.872 51.4993 166.89 52.1024C165.918 52.7056 164.832 53.0072 163.634 53.0072C161.679 53.0072 160.127 52.23 158.975 50.6758C158.003 49.3593 157.517 47.8862 157.517 46.2565C157.517 45.0676 157.809 43.8846 158.394 42.7131C158.989 41.5359 159.768 40.6658 160.731 40.1091C161.694 39.5465 162.713 39.2624 163.789 39.2624ZM163.35 40.1787C162.85 40.1787 162.345 40.3295 161.835 40.6369C161.335 40.9269 160.929 41.4486 160.617 42.191C160.306 42.9391 160.151 43.8963 160.151 45.0678C160.151 46.9526 160.523 48.5822 161.269 49.9508C162.024 51.3195 163.015 52.0039 164.242 52.0039C165.158 52.0039 165.913 51.6268 166.508 50.8729C167.102 50.1131 167.4 48.8197 167.4 46.9755C167.4 44.6731 166.904 42.8639 165.913 41.5417C165.243 40.6369 164.389 40.1787 163.35 40.1787ZM271.892 33.9384V33.4108H278.688V33.9384H277.966C277.211 33.9384 276.63 34.2518 276.224 34.8839C276.026 35.1797 275.927 35.8582 275.927 36.9253V44.7138C275.927 46.6392 275.734 48.1356 275.347 49.2027C274.969 50.2582 274.219 51.1687 273.095 51.9342C271.981 52.6881 270.462 53.0649 268.536 53.0649C266.44 53.0649 264.85 52.6996 263.765 51.9747C262.679 51.2498 261.91 50.2698 261.456 49.0461C261.155 48.2052 261.004 46.6276 261.004 44.3137V36.8092C261.004 35.6319 260.838 34.8548 260.508 34.4894C260.187 34.1241 259.663 33.9384 258.937 33.9384H258.215V33.4108H266.511V33.9384H265.775C264.982 33.9384 264.416 34.1878 264.076 34.6865C263.84 35.0287 263.722 35.7363 263.722 36.8092V45.1779C263.722 45.926 263.788 46.7785 263.92 47.7412C264.062 48.7039 264.312 49.4578 264.671 49.9913C265.029 50.5307 265.544 50.9771 266.214 51.3251C266.893 51.6731 267.725 51.8473 268.706 51.8473C269.961 51.8473 271.085 51.5746 272.076 51.0295C273.067 50.4785 273.742 49.7825 274.1 48.93C274.469 48.0717 274.653 46.622 274.653 44.5864V36.8092C274.653 35.6145 274.52 34.8607 274.256 34.5591C273.888 34.1473 273.341 33.9384 272.614 33.9384H271.892ZM283.7 42.0055C285.22 40.1787 286.669 39.2624 288.047 39.2624C288.755 39.2624 289.363 39.4423 289.873 39.8018C290.383 40.1498 290.789 40.7297 291.091 41.5417C291.299 42.1042 291.402 42.974 291.402 44.1455V49.6841C291.402 50.5018 291.469 51.0585 291.601 51.3543C291.705 51.5862 291.87 51.7717 292.096 51.905C292.332 52.0384 292.762 52.1024 293.385 52.1024V52.6127H286.971V52.1024H287.24C287.844 52.1024 288.264 52.0154 288.5 51.8357C288.745 51.6443 288.915 51.3718 289.01 51.0122C289.047 50.873 289.066 50.4264 289.066 49.6841V44.3717C289.066 43.1944 288.91 42.3361 288.599 41.8084C288.297 41.2691 287.782 41.0022 287.056 41.0022C285.932 41.0022 284.814 41.6169 283.7 42.8406V49.6841C283.7 50.5598 283.752 51.1048 283.856 51.3078C283.988 51.5862 284.168 51.7891 284.394 51.9167C284.63 52.0442 285.102 52.1024 285.81 52.1024V52.6127H279.396V52.1024H279.679C280.34 52.1024 280.784 51.94 281.01 51.6094C281.246 51.2672 281.364 50.6236 281.364 49.6841V44.8704C281.364 43.3103 281.326 42.3594 281.251 42.023C281.184 41.6809 281.076 41.4488 280.925 41.327C280.784 41.2052 280.59 41.1415 280.345 41.1415C280.08 41.1415 279.764 41.2167 279.396 41.3559L279.184 40.8456L283.091 39.2624H283.7V42.0055ZM297.718 32.4769C298.114 32.4769 298.449 32.622 298.723 32.9062C299.006 33.1788 299.148 33.5151 299.148 33.9095C299.148 34.3038 299.006 34.6459 298.723 34.9301C298.449 35.2142 298.114 35.3537 297.718 35.3537C297.321 35.3537 296.981 35.2142 296.698 34.9301C296.415 34.6459 296.273 34.3038 296.273 33.9095C296.273 33.5151 296.41 33.1788 296.684 32.9062C296.967 32.622 297.312 32.4769 297.718 32.4769ZM298.892 39.2624V49.6841C298.892 50.496 298.949 51.0353 299.062 51.3078C299.185 51.5746 299.36 51.7717 299.586 51.905C299.822 52.0384 300.247 52.1024 300.861 52.1024V52.6127H294.56V52.1024C295.192 52.1024 295.617 52.0442 295.834 51.9167C296.051 51.7949 296.221 51.592 296.344 51.3078C296.476 51.0295 296.542 50.4844 296.542 49.6841V44.6849C296.542 43.2756 296.5 42.3651 296.415 41.9534C296.349 41.6518 296.245 41.443 296.104 41.327C295.961 41.2052 295.768 41.1415 295.523 41.1415C295.259 41.1415 294.937 41.2167 294.56 41.3559L294.362 40.8456L298.27 39.2624H298.892ZM301.823 39.6452H307.926V40.1671H307.53C307.161 40.1671 306.878 40.2541 306.68 40.4339C306.491 40.6136 306.397 40.8572 306.397 41.1588C306.397 41.4894 306.496 41.8778 306.694 42.336L309.71 49.4983L312.74 42.0635C312.957 41.5358 313.066 41.1357 313.066 40.8632C313.066 40.7298 313.028 40.6194 312.952 40.5324C312.848 40.3932 312.716 40.3004 312.556 40.254C312.395 40.1961 312.07 40.1671 311.579 40.1671V39.6452H315.812V40.1671C315.322 40.2077 314.982 40.3062 314.793 40.4627C314.462 40.7469 314.165 41.2169 313.901 41.8781L309.299 53.0072H308.719L304.089 42.0635C303.881 41.5532 303.683 41.1937 303.494 40.9733C303.305 40.7471 303.065 40.5614 302.772 40.4106C302.612 40.3237 302.296 40.2425 301.823 40.1671V39.6452ZM319.168 44.5283C319.159 46.4537 319.625 47.9616 320.57 49.0577C321.514 50.1538 322.623 50.699 323.897 50.699C324.746 50.699 325.483 50.4726 326.106 50.0086C326.738 49.5331 327.267 48.7328 327.691 47.6019L328.13 47.8862C327.932 49.1795 327.357 50.3568 326.403 51.4239C325.45 52.4794 324.256 53.0072 322.821 53.0072C321.263 53.0072 319.928 52.404 318.814 51.1977C317.709 49.9798 317.157 48.3442 317.157 46.297C317.157 44.0816 317.724 42.3536 318.856 41.1183C319.998 39.8714 321.429 39.2451 323.146 39.2451C324.6 39.2451 325.794 39.7263 326.729 40.689C327.664 41.6459 328.13 42.9219 328.13 44.5283H319.168ZM319.168 43.7048H325.172C325.124 42.8755 325.025 42.2898 324.874 41.9534C324.638 41.4198 324.284 41.0081 323.812 40.7066C323.349 40.405 322.863 40.254 322.354 40.254C321.57 40.254 320.867 40.5615 320.244 41.1704C319.631 41.7793 319.272 42.6203 319.168 43.7048ZM333.667 39.2624V42.1794C334.752 40.2307 335.866 39.2624 337.008 39.2624C337.527 39.2624 337.957 39.419 338.296 39.7438C338.636 40.0511 338.806 40.4164 338.806 40.834C338.806 41.1994 338.684 41.5124 338.438 41.7676C338.192 42.0228 337.9 42.1505 337.56 42.1505C337.23 42.1505 336.857 41.9881 336.442 41.6691C336.036 41.3385 335.734 41.1704 335.536 41.1704C335.366 41.1704 335.181 41.2688 334.984 41.4544C334.558 41.843 334.119 42.4811 333.667 43.3684V49.5853C333.667 50.2986 333.756 50.8439 333.936 51.2093C334.059 51.4645 334.275 51.6791 334.587 51.8473C334.898 52.0155 335.347 52.1024 335.932 52.1024V52.6127H329.291V52.1024C329.952 52.1024 330.443 51.998 330.764 51.7892C331 51.6384 331.165 51.4005 331.26 51.07C331.307 50.9076 331.331 50.4496 331.331 49.6957V44.6673C331.331 43.1595 331.297 42.2606 331.231 41.9823C331.175 41.6865 331.061 41.4719 330.891 41.3443C330.731 41.2109 330.528 41.1415 330.283 41.1415C329.99 41.1415 329.66 41.2167 329.291 41.3559L329.15 40.8456L333.072 39.2624H333.667ZM347.911 39.2624V43.6757H347.443C347.084 42.2896 346.622 41.3444 346.055 40.8456C345.499 40.3468 344.786 40.0975 343.918 40.0975C343.257 40.0975 342.724 40.2714 342.318 40.6193C341.912 40.9673 341.709 41.3559 341.709 41.7792C341.709 42.307 341.86 42.7652 342.162 43.1422C342.454 43.5249 343.049 43.9368 343.946 44.3717L346.013 45.375C347.929 46.3145 348.887 47.5439 348.887 49.075C348.887 50.2523 348.439 51.2035 347.542 51.9342C346.655 52.6533 345.659 53.0072 344.555 53.0072C343.762 53.0072 342.856 52.868 341.836 52.5838C341.525 52.491 341.27 52.4445 341.072 52.4445C340.854 52.4445 340.684 52.5662 340.562 52.8098H340.095V48.1818H340.562C340.826 49.5041 341.331 50.4958 342.077 51.1685C342.823 51.8412 343.658 52.1721 344.583 52.1721C345.234 52.1721 345.763 51.9864 346.169 51.6094C346.584 51.2208 346.792 50.7569 346.792 50.2176C346.792 49.5681 346.56 49.0229 346.098 48.5763C345.645 48.1356 344.734 47.5731 343.366 46.8945C341.997 46.2102 341.1 45.6011 340.675 45.0502C340.251 44.5167 340.038 43.8325 340.038 43.0147C340.038 41.9476 340.401 41.0545 341.128 40.3353C341.865 39.622 342.813 39.2624 343.974 39.2624C344.484 39.2624 345.102 39.3668 345.829 39.5872C346.31 39.7264 346.631 39.8018 346.792 39.8018C346.943 39.8018 347.061 39.7669 347.146 39.6973C347.231 39.6335 347.33 39.4885 347.443 39.2624H347.911ZM354.126 32.4769C354.522 32.4769 354.858 32.622 355.131 32.9062C355.414 33.1788 355.556 33.5151 355.556 33.9095C355.556 34.3038 355.414 34.6459 355.131 34.9301C354.858 35.2142 354.522 35.3537 354.126 35.3537C353.73 35.3537 353.39 35.2142 353.107 34.9301C352.823 34.6459 352.682 34.3038 352.682 33.9095C352.682 33.5151 352.819 33.1788 353.092 32.9062C353.375 32.622 353.72 32.4769 354.126 32.4769ZM355.301 39.2624V49.6841C355.301 50.496 355.358 51.0353 355.471 51.3078C355.594 51.5746 355.768 51.7717 355.995 51.905C356.231 52.0384 356.656 52.1024 357.269 52.1024V52.6127H350.969V52.1024C351.601 52.1024 352.026 52.0442 352.243 51.9167C352.46 51.7949 352.63 51.592 352.753 51.3078C352.885 51.0295 352.951 50.4844 352.951 49.6841V44.6849C352.951 43.2756 352.908 42.3651 352.823 41.9534C352.757 41.6518 352.653 41.443 352.512 41.327C352.37 41.2052 352.177 41.1415 351.931 41.1415C351.667 41.1415 351.346 41.2167 350.969 41.3559L350.77 40.8456L354.678 39.2624H355.301ZM362.664 35.3826V39.6452H365.694V40.6369H362.664V49.0461C362.664 49.887 362.782 50.4494 363.018 50.7452C363.263 51.0351 363.575 51.1801 363.952 51.1801C364.264 51.1801 364.566 51.0873 364.858 50.9018C365.151 50.6988 365.377 50.4147 365.538 50.0378H366.09C365.76 50.9599 365.293 51.6615 364.688 52.1313C364.085 52.5953 363.461 52.8273 362.82 52.8273C362.385 52.8273 361.961 52.7054 361.545 52.4734C361.13 52.224 360.823 51.8821 360.625 51.4355C360.427 50.9832 360.328 50.2929 360.328 49.3533V40.6369H358.275V40.1671C358.794 39.9583 359.322 39.6103 359.86 39.1174C360.408 38.6186 360.894 38.0272 361.319 37.3487C361.536 36.9891 361.838 36.3337 362.225 35.3826H362.664ZM366.232 39.6452H372.277V40.1671H371.981C371.555 40.1671 371.235 40.2598 371.017 40.4511C370.81 40.6309 370.706 40.8573 370.706 41.1299C370.706 41.4953 370.862 42.0054 371.173 42.6608L374.33 49.2027L377.233 42.0344C377.394 41.6516 377.474 41.269 377.474 40.892C377.474 40.7181 377.441 40.5904 377.375 40.5092C377.299 40.4048 377.181 40.3237 377.021 40.2657C376.86 40.2019 376.577 40.1671 376.171 40.1671V39.6452H380.39V40.1671C380.041 40.2077 379.772 40.2832 379.584 40.3934C379.395 40.5094 379.187 40.7179 378.961 41.0311C378.875 41.1645 378.715 41.5242 378.479 42.1216L373.198 55.0602C372.688 56.3187 372.018 57.2638 371.187 57.9075C370.366 58.5513 369.573 58.8703 368.809 58.8703C368.252 58.8703 367.794 58.7079 367.436 58.3889C367.077 58.07 366.897 57.6989 366.897 57.2871C366.897 56.8869 367.025 56.5679 367.28 56.3243C367.544 56.0865 367.902 55.9706 368.356 55.9706C368.667 55.9706 369.092 56.0749 369.63 56.2779C370.008 56.4228 370.244 56.4925 370.338 56.4925C370.621 56.4925 370.928 56.3476 371.258 56.0519C371.598 55.7619 371.938 55.1935 372.277 54.3525L373.198 52.1024L368.54 42.3187C368.398 42.0287 368.171 41.6634 367.86 41.2285C367.624 40.8979 367.43 40.6776 367.28 40.5616C367.063 40.4108 366.713 40.2831 366.232 40.1671V39.6452ZM385.658 47.5325H385.12L383.873 36.0611C383.817 35.5623 383.789 35.1852 383.789 34.9417C383.789 34.3501 383.944 33.8688 384.256 33.515C384.577 33.1555 384.959 32.9759 385.403 32.9759C385.846 32.9759 386.219 33.1555 386.522 33.515C386.833 33.8688 386.988 34.4023 386.988 35.1099C386.988 35.336 386.97 35.6551 386.932 36.0611L385.658 47.5325ZM385.374 49.8812C385.809 49.8812 386.177 50.0377 386.479 50.345C386.791 50.6466 386.946 51.0122 386.946 51.4355C386.946 51.8705 386.791 52.2473 386.479 52.5547C386.177 52.8562 385.809 53.0072 385.374 53.0072C384.941 53.0072 384.568 52.8562 384.256 52.5547C383.954 52.2473 383.803 51.8705 383.803 51.4355C383.803 51.0122 383.954 50.6466 384.256 50.345C384.568 50.0377 384.941 49.8812 385.374 49.8812Z" fill="white"/>
</svg>
