<svg width="15" height="14" viewBox="0 0 15 14" fill="none" xmlns="http://www.w3.org/2000/svg">
<path d="M9.74366 0.373202V0H14.5849V0.373202H14.0703C13.5327 0.373202 13.119 0.598463 12.83 1.04904C12.689 1.25744 12.6179 1.74163 12.6179 2.50148V8.04898C12.6179 9.42075 12.4804 10.4865 12.2048 11.2464C11.9357 11.9995 11.4011 12.6484 10.6009 13.1931C9.80712 13.731 8.72488 14 7.35299 14C5.86006 14 4.7273 13.7411 3.9541 13.2233C3.18032 12.7055 2.63274 12.0096 2.3096 11.1354C2.09456 10.537 1.98704 9.414 1.98704 7.76655V2.42076C1.98704 1.58023 1.86954 1.02883 1.63394 0.766614C1.40538 0.504339 1.0323 0.373202 0.514684 0.373202H0V0H5.91059V0.373202H5.38593C4.82131 0.373202 4.41766 0.551401 4.1756 0.907799C4.00757 1.14986 3.92355 1.6542 3.92355 2.42076V8.38182C3.92355 8.91307 3.97055 9.52163 4.06456 10.2075C4.16561 10.8934 4.34364 11.4279 4.59922 11.8112C4.85479 12.1945 5.22141 12.5105 5.69908 12.7594C6.18321 13.0081 6.77485 13.1326 7.47401 13.1326C8.36824 13.1326 9.16847 12.9376 9.87469 12.5476C10.5809 12.1575 11.0615 11.6599 11.3171 11.0547C11.5791 10.4428 11.7101 9.41065 11.7101 7.95821V2.42076C11.7101 1.56678 11.6161 1.03218 11.4281 0.817025C11.1655 0.521143 10.7754 0.373202 10.2578 0.373202H9.74366Z" fill="#0086FD"/>
</svg>
