<svg width="68" height="9" viewBox="0 0 68 9" fill="none" xmlns="http://www.w3.org/2000/svg">
<path d="M6.29216 0.187691L3.55364 6.90791H2.73856L0 0.187691H0.727141C0.809238 0.187691 0.873753 0.205269 0.920666 0.246317C0.973443 0.287366 1.00863 0.340149 1.03796 0.39879L2.93204 5.14282C2.97309 5.24837 3.00828 5.36563 3.04933 5.48878C3.09038 5.61779 3.12556 5.74683 3.15488 5.88757C3.19007 5.74683 3.21941 5.61779 3.2546 5.48878C3.28978 5.36563 3.32493 5.24837 3.36598 5.14282L5.26011 0.39879C5.2777 0.346013 5.31288 0.299106 5.36566 0.258057C5.4243 0.211144 5.48878 0.187691 5.56501 0.187691H6.29216ZM7.86376 2.15802V6.90791H7.03104V2.15802H7.86376ZM8.03964 0.662645C8.03964 0.744742 8.02208 0.820984 7.99276 0.891353C7.95757 0.961722 7.91653 1.02627 7.85789 1.07904C7.80512 1.13182 7.74064 1.17872 7.6644 1.20804C7.59403 1.23736 7.51779 1.25492 7.4357 1.25492C7.3536 1.25492 7.27736 1.23736 7.20699 1.20804C7.13662 1.17872 7.07794 1.13182 7.02517 1.07904C6.97239 1.02627 6.93136 0.961722 6.89617 0.891353C6.86685 0.820984 6.84929 0.744742 6.84929 0.662645C6.84929 0.580548 6.86685 0.504306 6.89617 0.433937C6.93136 0.357704 6.97239 0.293224 7.02517 0.240448C7.07794 0.187671 7.13662 0.140775 7.20699 0.111455C7.27736 0.0762704 7.3536 0.0644964 7.4357 0.0644964C7.51779 0.0644964 7.59403 0.0762704 7.6644 0.111455C7.74064 0.140775 7.80512 0.187671 7.85789 0.240448C7.91653 0.293224 7.95757 0.357704 7.99276 0.433937C8.02208 0.504306 8.03964 0.580548 8.03964 0.662645ZM12.0038 2.93791C11.9686 3.00828 11.91 3.0435 11.8279 3.0435C11.781 3.0435 11.7282 3.02586 11.6696 2.99067C11.6109 2.95549 11.5347 2.92034 11.4526 2.87929C11.3646 2.83237 11.2649 2.79722 11.1476 2.76203C11.0245 2.72099 10.8838 2.70334 10.7254 2.70334C10.5847 2.70334 10.4557 2.72099 10.3443 2.76203C10.2328 2.79722 10.1332 2.84413 10.0511 2.90864C9.97482 2.96728 9.91036 3.04351 9.86931 3.1256C9.82826 3.2077 9.81061 3.29564 9.81061 3.39533C9.81061 3.51848 9.83995 3.61818 9.91032 3.70027C9.98069 3.78237 10.0745 3.85273 10.1918 3.91137C10.3091 3.97001 10.4381 4.0228 10.5847 4.06971C10.7313 4.11076 10.8838 4.16354 11.0363 4.21632C11.1946 4.26323 11.347 4.32182 11.4936 4.38633C11.6402 4.44497 11.7692 4.52708 11.8865 4.6209C12.0038 4.71473 12.0917 4.82613 12.1621 4.96687C12.2325 5.10174 12.2736 5.26012 12.2736 5.45363C12.2736 5.6706 12.2325 5.87587 12.1562 6.06352C12.0741 6.24531 11.9569 6.40947 11.8044 6.54434C11.6519 6.67922 11.4643 6.7848 11.2415 6.8669C11.0186 6.94313 10.7665 6.98415 10.4733 6.98415C10.1449 6.98415 9.83999 6.93136 9.5761 6.82581C9.30635 6.71439 9.07763 6.57367 8.88998 6.40361L9.08347 6.08693C9.11279 6.04588 9.14213 6.01654 9.17731 5.99308C9.20663 5.96962 9.25353 5.95793 9.30631 5.95793C9.36495 5.95793 9.42362 5.98139 9.48226 6.0283C9.54676 6.06935 9.623 6.11626 9.71097 6.16903C9.79893 6.22181 9.91031 6.27459 10.0393 6.31563C10.1683 6.36255 10.3267 6.38013 10.5143 6.38013C10.6785 6.38013 10.8193 6.36255 10.9424 6.3215C11.0656 6.28046 11.1653 6.22179 11.2474 6.14555C11.3295 6.07518 11.3881 5.99313 11.4291 5.89931C11.4643 5.80548 11.4877 5.70579 11.4877 5.60023C11.4877 5.46536 11.4526 5.35978 11.3822 5.27768C11.3118 5.18972 11.218 5.11348 11.1008 5.05484C10.9893 4.99034 10.8544 4.93755 10.702 4.8965C10.5554 4.84959 10.4029 4.80267 10.2504 4.7499C10.0979 4.69712 9.94554 4.64439 9.79307 4.57989C9.64647 4.51538 9.51743 4.43327 9.40015 4.33944C9.28287 4.23975 9.18906 4.12248 9.11869 3.98174C9.04832 3.83514 9.0131 3.66507 9.0131 3.45983C9.0131 3.27804 9.05419 3.10211 9.13043 2.93791C9.2008 2.76786 9.31218 2.62125 9.45878 2.49811C9.59952 2.3691 9.77545 2.2694 9.98656 2.19316C10.1977 2.11693 10.4322 2.08178 10.702 2.08178C11.0186 2.08178 11.2943 2.12869 11.5464 2.22838C11.7927 2.32807 12.0097 2.46291 12.1915 2.63297L12.0038 2.93791ZM14.1794 2.15802V6.90791H13.3408V2.15802H14.1794ZM14.3553 0.662645C14.3553 0.744742 14.3377 0.820984 14.3025 0.891353C14.2732 0.961722 14.2263 1.02627 14.1735 1.07904C14.1208 1.13182 14.0562 1.17872 13.98 1.20804C13.9096 1.23736 13.8334 1.25492 13.7513 1.25492C13.6692 1.25492 13.593 1.23736 13.5226 1.20804C13.4523 1.17872 13.3877 1.13182 13.3349 1.07904C13.2822 1.02627 13.2411 0.961722 13.2118 0.891353C13.1766 0.820984 13.1649 0.744742 13.1649 0.662645C13.1649 0.580548 13.1766 0.504306 13.2118 0.433937C13.2411 0.357704 13.2822 0.293224 13.3349 0.240448C13.3877 0.187671 13.4523 0.140775 13.5226 0.111455C13.593 0.0762704 13.6692 0.0644964 13.7513 0.0644964C13.8334 0.0644964 13.9096 0.0762704 13.98 0.111455C14.0562 0.140775 14.1208 0.187671 14.1735 0.240448C14.2263 0.293224 14.2732 0.357704 14.3025 0.433937C14.3377 0.504306 14.3553 0.580548 14.3553 0.662645ZM17.0059 6.98415C16.6306 6.98415 16.3432 6.87857 16.138 6.66747C15.9386 6.45636 15.8389 6.15734 15.8389 5.76444V2.85581H15.2701C15.2173 2.85581 15.1763 2.83825 15.1411 2.81479C15.1059 2.77961 15.0883 2.7327 15.0883 2.67406V2.33977L15.8683 2.24012L16.0617 0.7741C16.0676 0.727187 16.0911 0.686096 16.1204 0.656775C16.1556 0.627455 16.1966 0.609888 16.2552 0.609888H16.6775V2.25186H18.0497V2.85581H16.6775V5.70575C16.6775 5.90513 16.7244 6.0576 16.8182 6.15142C16.9179 6.25111 17.0411 6.29803 17.1935 6.29803C17.2815 6.29803 17.3577 6.28633 17.4222 6.26288C17.4867 6.23942 17.5454 6.21596 17.5923 6.18664C17.6392 6.15732 17.6744 6.13386 17.7096 6.11041C17.7389 6.08695 17.7682 6.07519 17.7975 6.07519C17.8385 6.07519 17.8796 6.09865 17.9148 6.15142L18.1552 6.55021C18.0145 6.68509 17.8386 6.7906 17.6392 6.87269C17.434 6.94306 17.2228 6.98415 17.0059 6.98415ZM27.7196 3.5478C27.7196 4.05211 27.6433 4.51537 27.4791 4.93759C27.3208 5.35394 27.0979 5.7175 26.8047 6.02243C26.5174 6.32736 26.1656 6.5619 25.7551 6.73196C25.3505 6.89616 24.8989 6.97828 24.4063 6.97828C23.9079 6.97828 23.4564 6.89616 23.0518 6.73196C22.6471 6.5619 22.2953 6.32736 22.0079 6.02243C21.7147 5.7175 21.4919 5.35394 21.3336 4.93759C21.1694 4.51537 21.0931 4.05211 21.0931 3.5478C21.0931 3.04349 21.1694 2.5861 21.3336 2.16389C21.4919 1.74167 21.7147 1.37811 22.0079 1.07904C22.2953 0.768247 22.6471 0.533629 23.0518 0.363571C23.4564 0.193512 23.9079 0.111455 24.4063 0.111455C24.8989 0.111455 25.3505 0.193512 25.7551 0.363571C26.1656 0.533629 26.5174 0.768247 26.8047 1.07904C27.0979 1.37811 27.3208 1.74167 27.4791 2.16389C27.6433 2.5861 27.7196 3.04349 27.7196 3.5478ZM26.7872 3.5478C26.7872 3.13732 26.7285 2.76787 26.6171 2.43948C26.5057 2.11109 26.3474 1.82959 26.1422 1.60675C25.931 1.37806 25.6847 1.20219 25.3915 1.07904C25.0925 0.961762 24.764 0.897223 24.4063 0.897223C24.0428 0.897223 23.7144 0.961762 23.4212 1.07904C23.128 1.20219 22.8758 1.37806 22.6706 1.60675C22.4595 1.82959 22.3011 2.11109 22.1897 2.43948C22.0783 2.76787 22.0197 3.13732 22.0197 3.5478C22.0197 3.96415 22.0783 4.3336 22.1897 4.66199C22.3011 4.98452 22.4595 5.26008 22.6706 5.48878C22.8758 5.71748 23.128 5.88754 23.4212 6.01069C23.7144 6.12797 24.0428 6.19251 24.4063 6.19251C24.764 6.19251 25.0925 6.12797 25.3915 6.01069C25.6847 5.88754 25.931 5.71748 26.1422 5.48878C26.3474 5.26008 26.5057 4.98452 26.6171 4.66199C26.7285 4.3336 26.7872 3.96415 26.7872 3.5478ZM32.6571 2.15802V6.90791H32.1645C32.0414 6.90791 31.971 6.84924 31.9358 6.73196L31.8713 6.22179C31.6661 6.45049 31.4315 6.63818 31.1794 6.77892C30.9214 6.91379 30.6282 6.98415 30.2939 6.98415C30.0359 6.98415 29.8072 6.94312 29.6078 6.85516C29.4084 6.7672 29.2442 6.64405 29.1093 6.49159C28.9745 6.33326 28.8748 6.14555 28.8044 5.92272C28.7399 5.69988 28.7048 5.45365 28.7048 5.18391V2.15802H29.5374V5.18391C29.5374 5.54748 29.6195 5.82305 29.7837 6.02243C29.9479 6.21595 30.2001 6.31563 30.5402 6.31563C30.7865 6.31563 31.0152 6.25697 31.2263 6.14555C31.4432 6.02241 31.6426 5.8641 31.8244 5.65299V2.15802H32.6571ZM34.7741 3.108C34.9265 2.78547 35.1142 2.52742 35.3311 2.34564C35.5481 2.16385 35.8178 2.07004 36.1345 2.07004C36.2342 2.07004 36.328 2.0818 36.416 2.10526C36.5098 2.12872 36.5978 2.15799 36.6682 2.2049L36.6037 2.8324C36.5861 2.90863 36.5392 2.94965 36.4629 2.94965C36.4219 2.94965 36.3573 2.9379 36.2752 2.9203C36.1873 2.90271 36.0935 2.89103 35.9879 2.89103C35.8354 2.89103 35.7006 2.91447 35.5833 2.95552C35.466 3.00244 35.3605 3.06692 35.2666 3.15488C35.1787 3.23698 35.0966 3.34842 35.0203 3.47157C34.9499 3.60058 34.8855 3.74131 34.821 3.9055V6.90791H33.9824V2.15802H34.4633C34.5512 2.15802 34.6157 2.17558 34.6509 2.2049C34.6861 2.24009 34.7095 2.29876 34.7212 2.38672L34.7741 3.108ZM45.2591 3.6768V6.25701C44.919 6.49744 44.5613 6.68505 44.1742 6.80233C43.7931 6.92547 43.3767 6.98415 42.9193 6.98415C42.3739 6.98415 41.8872 6.90202 41.4533 6.73196C41.0193 6.56777 40.644 6.33323 40.3391 6.0283C40.0283 5.72923 39.7937 5.36567 39.6296 4.94346C39.4654 4.52124 39.3774 4.05798 39.3774 3.5478C39.3774 3.03763 39.4595 2.56849 39.6178 2.14628C39.782 1.72406 40.0107 1.3605 40.3097 1.06143C40.6088 0.756502 40.9665 0.521895 41.3946 0.357701C41.8168 0.193506 42.2918 0.111455 42.8196 0.111455C43.0835 0.111455 43.3298 0.129033 43.5585 0.170081C43.7872 0.21113 43.9982 0.26393 44.1918 0.340163C44.3853 0.410532 44.5671 0.49847 44.7313 0.609888C44.9013 0.709578 45.0538 0.826845 45.1946 0.961719L44.9365 1.37225C44.9013 1.43675 44.8427 1.47778 44.7782 1.49537C44.7195 1.5071 44.6492 1.49533 44.5671 1.44841C44.4908 1.4015 44.4088 1.34878 44.3091 1.29014C44.2153 1.22564 44.0921 1.16696 43.9514 1.10832C43.8165 1.04968 43.6523 1.00277 43.4588 0.961719C43.2711 0.92067 43.0483 0.897223 42.7902 0.897223C42.4149 0.897223 42.069 0.961696 41.764 1.08484C41.4591 1.20799 41.1952 1.38393 40.9783 1.61849C40.7613 1.84719 40.5971 2.12283 40.4798 2.45122C40.3684 2.77375 40.3097 3.14318 40.3097 3.5478C40.3097 3.97002 40.3684 4.35115 40.4857 4.6854C40.6088 5.01379 40.7789 5.30117 41.0017 5.53574C41.2304 5.76444 41.5002 5.94037 41.8169 6.06352C42.1394 6.18666 42.4971 6.24527 42.8958 6.24527C43.2066 6.24527 43.4823 6.21006 43.7227 6.14555C43.969 6.06932 44.2035 5.97549 44.4381 5.84648V4.36879H43.3884C43.3297 4.36879 43.2828 4.35115 43.2477 4.31596C43.2125 4.28664 43.1949 4.23975 43.1949 4.19284V3.6768H45.2591ZM49.0004 4.76751C48.6192 4.77923 48.2908 4.81444 48.0152 4.86135C47.7454 4.90827 47.5284 4.97274 47.3584 5.04897C47.1883 5.13107 47.0652 5.21908 46.9831 5.32464C46.9127 5.43606 46.8717 5.55333 46.8717 5.68234C46.8717 5.81135 46.8951 5.91686 46.9362 6.00482C46.9714 6.09865 47.03 6.17489 47.1004 6.23353C47.1708 6.28631 47.2528 6.33327 47.3466 6.35672C47.4405 6.38604 47.546 6.39774 47.6575 6.39774C47.8041 6.39774 47.9389 6.38018 48.062 6.35672C48.1793 6.32154 48.2967 6.28043 48.4022 6.22179C48.5136 6.16901 48.6133 6.09866 48.713 6.02243C48.8127 5.94033 48.9065 5.85239 49.0004 5.75271V4.76751ZM46.3028 2.82653C46.5667 2.57438 46.8482 2.38667 47.1532 2.25766C47.4581 2.13451 47.7923 2.07004 48.1618 2.07004C48.4256 2.07004 48.6661 2.11694 48.8713 2.2049C49.0765 2.29286 49.2525 2.41014 49.3932 2.56847C49.5339 2.7268 49.6395 2.91444 49.7099 3.13727C49.7803 3.36011 49.8213 3.60054 49.8213 3.87028V6.90791H49.446C49.3639 6.90791 49.3053 6.89615 49.2583 6.87269C49.2173 6.84337 49.1822 6.79065 49.1587 6.70855L49.0649 6.26288C48.9358 6.3743 48.8186 6.47986 48.6954 6.56782C48.5781 6.65578 48.455 6.73203 48.3201 6.79653C48.1911 6.85517 48.0504 6.90207 47.8979 6.93139C47.7513 6.96658 47.5871 6.98415 47.4053 6.98415C47.2235 6.98415 47.0476 6.96069 46.8892 6.90791C46.725 6.85514 46.5843 6.77889 46.4612 6.67334C46.338 6.56778 46.2442 6.43875 46.1738 6.28629C46.1035 6.12209 46.0683 5.93446 46.0683 5.72336C46.0683 5.53571 46.1211 5.35396 46.2267 5.18391C46.3263 5.00798 46.4964 4.84962 46.7251 4.71475C46.9597 4.57988 47.2587 4.47429 47.634 4.38633C48.0034 4.29837 48.4609 4.25145 49.0004 4.23972V3.87028C49.0004 3.50085 48.9241 3.21941 48.7658 3.03176C48.6016 2.84411 48.3728 2.74442 48.062 2.74442C47.8568 2.74442 47.6868 2.77375 47.5461 2.82653C47.4053 2.87931 47.288 2.93204 47.1824 3.00241C47.0827 3.06105 46.9948 3.11972 46.9186 3.17249C46.8482 3.22527 46.7778 3.24873 46.7016 3.24873C46.6488 3.24873 46.5961 3.23696 46.5609 3.20764C46.5198 3.17245 46.4846 3.1373 46.4553 3.09626L46.3028 2.82653ZM51.9558 0V6.90791H51.1173V0H51.9558ZM54.1725 0V6.90791H53.3339V0H54.1725ZM58.7054 4.01109C58.7054 3.81757 58.6761 3.64164 58.6233 3.48331C58.5705 3.31911 58.4885 3.18419 58.3829 3.06691C58.2773 2.94963 58.1542 2.85582 58.0017 2.79131C57.8551 2.72681 57.6792 2.69747 57.4915 2.69747C57.0928 2.69747 56.7761 2.81481 56.5416 3.04937C56.307 3.27807 56.1663 3.6006 56.1076 4.01109H58.7054ZM59.3798 6.2394C59.2801 6.36841 59.1569 6.474 59.0103 6.56782C58.8696 6.66165 58.7112 6.73789 58.547 6.79653C58.3828 6.85517 58.2128 6.8962 58.0427 6.92552C57.8668 6.96071 57.6909 6.97241 57.5208 6.97241C57.1924 6.97241 56.8875 6.91962 56.6119 6.8082C56.3363 6.69678 56.0959 6.53261 55.8907 6.3215C55.6913 6.10453 55.5329 5.84066 55.4215 5.524C55.3101 5.20734 55.2514 4.84377 55.2514 4.43329C55.2514 4.1049 55.3042 3.79405 55.4039 3.50671C55.5095 3.21937 55.6561 2.97314 55.8437 2.76203C56.0372 2.55093 56.266 2.38081 56.5416 2.26353C56.8172 2.14038 57.128 2.08178 57.4739 2.08178C57.7554 2.08178 58.0193 2.12869 58.2597 2.22838C58.506 2.32221 58.7113 2.45705 58.8872 2.63884C59.069 2.81476 59.2038 3.03761 59.3094 3.30735C59.4091 3.56537 59.456 3.87032 59.456 4.20458C59.456 4.33945 59.4443 4.42738 59.415 4.46843C59.3857 4.50948 59.3329 4.53293 59.2566 4.53293H56.0783C56.09 4.832 56.131 5.09593 56.2014 5.31877C56.2776 5.5416 56.3773 5.72336 56.5122 5.87583C56.6412 6.02243 56.7996 6.13389 56.9814 6.21012C57.1632 6.28049 57.3625 6.31563 57.5912 6.31563C57.7964 6.31563 57.9782 6.29218 58.1307 6.24527C58.2832 6.19836 58.4122 6.14557 58.5236 6.08693C58.635 6.02829 58.723 5.98137 58.7934 5.93445C58.8696 5.88168 58.9341 5.85822 58.9868 5.85822C59.0572 5.85822 59.11 5.88168 59.1452 5.93445L59.3798 6.2394ZM61.2739 3.108C61.4263 2.78547 61.6082 2.52742 61.831 2.34564C62.048 2.16385 62.3177 2.07004 62.6285 2.07004C62.7282 2.07004 62.8279 2.0818 62.9158 2.10526C63.0097 2.12872 63.0917 2.15799 63.1679 2.2049L63.1034 2.8324C63.0859 2.90863 63.039 2.94965 62.9627 2.94965C62.9217 2.94965 62.8572 2.9379 62.7692 2.9203C62.6871 2.90271 62.5933 2.89103 62.4878 2.89103C62.3353 2.89103 62.2004 2.91447 62.0831 2.95552C61.9658 3.00244 61.8603 3.06692 61.7665 3.15488C61.6785 3.23698 61.5964 3.34842 61.5202 3.47157C61.4498 3.60058 61.3795 3.74131 61.3208 3.9055V6.90791H60.4822V2.15802H60.963C61.051 2.15802 61.1155 2.17558 61.1507 2.2049C61.1801 2.24009 61.2035 2.29876 61.2211 2.38672L61.2739 3.108ZM67.9999 2.15802L65.3494 8.30944C65.3201 8.37394 65.2849 8.42086 65.2439 8.46191C65.2028 8.4971 65.1383 8.51467 65.0504 8.51467H64.4287L65.2966 6.63232L63.338 2.15802H64.0593C64.1297 2.15802 64.1883 2.17559 64.2294 2.21077C64.2704 2.24596 64.2998 2.28698 64.3174 2.32803L65.5898 5.32464C65.6367 5.45365 65.6837 5.58849 65.713 5.7351C65.7599 5.58849 65.8068 5.44778 65.8537 5.31877L67.0911 2.32803C67.1086 2.28111 67.138 2.24009 67.1849 2.2049C67.2318 2.17558 67.2846 2.15802 67.3374 2.15802H67.9999Z" fill="white"/>
</svg>
