<svg width="51" height="20" viewBox="0 0 51 20" fill="none" xmlns="http://www.w3.org/2000/svg">
<path d="M13.0952 12.5676V14.5884H10.5071V19.6784H8.16134V14.5884H0V12.7656L8.94348 0H10.5071V12.5676H13.0952ZM8.16134 12.5676V2.99923L1.39362 12.5676H8.16134ZM22.8057 8.98602L29.9147 16.0502C31.0806 17.2208 32.0759 18.0128 32.9005 18.4437C33.7252 18.8572 34.5498 19.096 35.3744 19.1542V19.6784H26.2038V19.1542C26.7536 19.1542 27.1472 19.061 27.3843 18.8805C27.6306 18.6942 27.7541 18.4845 27.7541 18.2574C27.7541 18.0303 27.7063 17.8264 27.6114 17.6459C27.5264 17.4654 27.2323 17.1276 26.7303 16.6384L20.0761 10.0517V16.2657C20.0761 17.2441 20.1378 17.8846 20.2607 18.1991C20.3556 18.4379 20.5548 18.6417 20.8582 18.8106C21.2659 19.0378 21.6968 19.1542 22.1517 19.1542H22.8057V19.6784H14.5878V19.1542H15.2704C16.0665 19.1542 16.6447 18.9213 17.0047 18.4554C17.2324 18.1526 17.3459 17.4246 17.3459 16.2657V3.80873C17.3459 2.83617 17.2848 2.18394 17.1613 1.86363C17.0664 1.63651 16.8725 1.43848 16.5784 1.26377C16.1614 1.03665 15.7252 0.926022 15.2704 0.926022H14.5878V0.396044H22.8057V0.926022H22.1517C21.7061 0.926022 21.2752 1.03664 20.8582 1.25211C20.5641 1.40353 20.3603 1.63068 20.2467 1.93351C20.1332 2.23635 20.0761 2.86529 20.0761 3.80873V9.71399C20.2654 9.53345 20.9147 8.9278 22.0241 7.90865C24.8393 5.32875 26.5404 3.60493 27.128 2.74302C27.3843 2.36448 27.5118 2.03248 27.5118 1.74711C27.5118 1.53164 27.4128 1.33947 27.2136 1.18223C27.0145 1.00752 26.6779 0.926022 26.2038 0.926022H25.7635V0.396044H32.844V0.926022C32.427 0.931846 32.0479 0.990035 31.7066 1.09486C31.3654 1.19969 30.9484 1.40355 30.4551 1.70638C29.9624 2.00339 29.3556 2.48092 28.6352 3.14482C28.4267 3.33118 27.4646 4.30374 25.749 6.05668L22.8057 8.98602ZM42.7536 17.675V10.5817H35.6732V9.41114H42.7536V2.34697H43.891V9.41114H51V10.5817H43.891V17.675H42.7536Z" fill="white"/>
</svg>
