<svg width="64" height="7" viewBox="0 0 64 7" fill="none" xmlns="http://www.w3.org/2000/svg">
<path d="M3.96306 1.22971C3.93508 1.27633 3.90421 1.31133 3.86982 1.33464C3.83894 1.35795 3.79988 1.36957 3.75326 1.36957C3.70022 1.36957 3.63844 1.3405 3.56675 1.28804C3.49507 1.23559 3.40532 1.17729 3.29634 1.11901C3.19085 1.04907 3.06147 0.990757 2.90936 0.938305C2.76016 0.885853 2.5783 0.862538 2.36383 0.862538C2.1616 0.862538 1.98327 0.885859 1.82766 0.944139C1.67555 0.996591 1.54617 1.07236 1.44068 1.16561C1.33811 1.25886 1.26058 1.36962 1.20755 1.49201C1.15451 1.62023 1.12829 1.75424 1.12829 1.89995C1.12829 2.08644 1.17317 2.24383 1.2635 2.36622C1.35675 2.48861 1.47799 2.59346 1.62718 2.68088C1.77929 2.7683 1.95064 2.84408 2.14005 2.90818C2.33296 2.96646 2.52878 3.03645 2.72752 3.10055C2.92975 3.17049 3.12557 3.2462 3.31498 3.33362C3.50789 3.42104 3.67865 3.52598 3.82785 3.66002C3.97996 3.78824 4.10116 3.94557 4.1915 4.13789C4.28475 4.33022 4.3314 4.56338 4.3314 4.8373C4.3314 5.1287 4.28184 5.40257 4.18218 5.66483C4.08252 5.91544 3.93684 6.13691 3.74394 6.32924C3.55453 6.52156 3.31965 6.66728 3.03991 6.77801C2.76307 6.88291 2.44776 6.94121 2.09342 6.94121C1.65806 6.94121 1.26352 6.8596 0.909172 6.70807C0.554828 6.55072 0.251771 6.33509 0 6.067L0.261095 5.64157C0.286155 5.6066 0.315282 5.57745 0.349668 5.55413C0.386967 5.53082 0.427185 5.51913 0.470896 5.51913C0.511109 5.51913 0.556565 5.53667 0.606103 5.57164C0.659138 5.60078 0.718011 5.64154 0.783285 5.68817C0.848559 5.74062 0.923141 5.79309 1.00706 5.85137C1.09099 5.91548 1.18601 5.96795 1.29149 6.01457C1.40048 6.06702 1.52284 6.1078 1.6598 6.14277C1.79676 6.17191 1.95065 6.18937 2.12141 6.18937C2.33589 6.18937 2.52701 6.16022 2.69486 6.10194C2.86271 6.04366 3.00435 5.9621 3.11916 5.85137C3.23747 5.74647 3.32721 5.61823 3.38957 5.4667C3.45193 5.31517 3.48284 5.15199 3.48284 4.9655C3.48284 4.76734 3.43619 4.59835 3.34294 4.47596C3.2526 4.34192 3.13315 4.23698 2.98395 4.14956C2.83475 4.06214 2.66399 3.98637 2.47108 3.92809C2.27817 3.86398 2.08235 3.80573 1.88362 3.74162C1.68488 3.67752 1.48906 3.60175 1.29615 3.52016C1.10325 3.43274 0.932482 3.3278 0.783285 3.19375C0.634087 3.05971 0.51285 2.8907 0.419601 2.69255C0.329267 2.48857 0.284394 2.24384 0.284394 1.94661C0.284394 1.70767 0.329267 1.48034 0.419601 1.25888C0.51285 1.04324 0.646305 0.845085 0.820563 0.676072C0.997736 0.501231 1.21396 0.367209 1.46864 0.262304C1.72682 0.163228 2.02173 0.11077 2.35451 0.11077C2.72751 0.11077 3.06613 0.169007 3.37093 0.285568C3.67865 0.402129 3.94906 0.576973 4.18218 0.798438L3.96306 1.22971ZM8.67269 2.98395C8.64763 3.01309 8.62257 3.04223 8.5981 3.05972C8.57303 3.0772 8.53863 3.08889 8.49551 3.08889C8.44888 3.08889 8.39761 3.07142 8.34166 3.03062C8.28571 2.98982 8.21578 2.94897 8.13186 2.90235C8.05085 2.85573 7.95001 2.81495 7.82879 2.77415C7.71048 2.73335 7.56419 2.71588 7.39051 2.71588C7.15739 2.71588 6.95226 2.75666 6.77509 2.84408C6.59792 2.91985 6.44872 3.04222 6.32749 3.19375C6.20919 3.35111 6.11886 3.53766 6.05708 3.75913C5.99763 3.98059 5.96847 4.22531 5.96847 4.49923C5.96847 4.7848 6.00113 5.04127 6.0664 5.26857C6.13167 5.4842 6.22317 5.67068 6.34147 5.82804C6.4627 5.97374 6.60724 6.09035 6.77509 6.17194C6.94585 6.24771 7.13702 6.28847 7.34857 6.28847C7.55022 6.28847 7.71688 6.26516 7.84743 6.21854C7.97798 6.16609 8.08521 6.11362 8.16914 6.05534C8.25598 5.99706 8.32769 5.94459 8.38363 5.89797C8.4425 5.84552 8.50017 5.8222 8.55612 5.8222C8.62431 5.8222 8.67736 5.84552 8.71466 5.89797L8.94776 6.20104C8.84519 6.32925 8.72864 6.44002 8.5981 6.52744C8.46755 6.62069 8.32591 6.6964 8.1738 6.76051C8.0246 6.81879 7.86725 6.85964 7.7029 6.88878C7.53797 6.91792 7.37011 6.92954 7.19935 6.92954C6.90387 6.92954 6.62881 6.87707 6.37413 6.76634C6.12236 6.66144 5.90319 6.50412 5.7167 6.29431C5.5302 6.09033 5.38394 5.83386 5.27846 5.5308C5.17239 5.22774 5.11991 4.8897 5.11991 4.49923C5.11991 4.14954 5.16769 3.82322 5.26444 3.52599C5.36352 3.22876 5.5069 2.97229 5.6934 2.75665C5.88281 2.54101 6.11419 2.372 6.38811 2.24961C6.66436 2.12722 6.98138 2.06898 7.33922 2.06898C7.67142 2.06898 7.964 2.12145 8.21577 2.23218C8.47046 2.33709 8.69599 2.48856 8.89181 2.68088L8.67269 2.98395ZM10.6729 2.77415C10.8751 2.55851 11.0989 2.38367 11.3443 2.26128C11.5902 2.13306 11.8729 2.06898 12.1928 2.06898C12.451 2.06898 12.6777 2.10976 12.8735 2.19718C13.0729 2.2846 13.2372 2.40116 13.3678 2.56435C13.5018 2.71588 13.6026 2.90818 13.6708 3.12382C13.7396 3.34528 13.7734 3.59007 13.7734 3.85816V6.86544H12.9388V3.85816C12.9388 3.50265 12.8566 3.22295 12.6917 3.03062C12.5303 2.82664 12.2832 2.72755 11.9504 2.72755C11.705 2.72755 11.4748 2.79162 11.2603 2.90818C11.0494 3.02474 10.8535 3.18797 10.6729 3.38612V6.86544H9.8383V0H10.6729V2.77415ZM18.1992 3.98643C18.1992 3.7941 18.1712 3.61925 18.1153 3.46189C18.0623 3.2987 17.983 3.16461 17.8775 3.04805C17.7749 2.93149 17.649 2.83826 17.4998 2.77415C17.3506 2.71004 17.181 2.68088 16.9916 2.68088C16.5936 2.68088 16.2783 2.7975 16.0452 3.03062C15.815 3.25791 15.6722 3.57846 15.6162 3.98643H18.1992ZM18.8706 6.20104C18.768 6.32925 18.6451 6.43419 18.5023 6.52744C18.3595 6.62069 18.2056 6.69646 18.0407 6.75474C17.8792 6.81302 17.7114 6.8538 17.5371 6.88294C17.3629 6.91791 17.1904 6.92954 17.0196 6.92954C16.6932 6.92954 16.3919 6.87707 16.1151 6.76634C15.8418 6.65561 15.604 6.49245 15.4018 6.28264C15.203 6.067 15.0474 5.80475 14.9355 5.49003C14.8236 5.17532 14.7677 4.81399 14.7677 4.40603C14.7677 4.07966 14.8172 3.77073 14.9168 3.48515C15.0194 3.19958 15.1657 2.95486 15.3551 2.74505C15.5445 2.53524 15.7765 2.36617 16.0498 2.24961C16.3232 2.12722 16.6309 2.06898 16.973 2.06898C17.2556 2.06898 17.5167 2.11561 17.7563 2.21468C17.9987 2.30793 18.2068 2.44195 18.381 2.62262C18.5582 2.79746 18.6963 3.01893 18.796 3.28702C18.8956 3.54345 18.9452 3.84653 18.9452 4.17873C18.9452 4.31277 18.9312 4.40016 18.9032 4.44096C18.8753 4.48176 18.8222 4.50506 18.7447 4.50506H15.5883C15.5976 4.80229 15.6378 5.0646 15.7094 5.28607C15.784 5.50753 15.8866 5.68817 16.0172 5.8397C16.1477 5.9854 16.3033 6.09618 16.4834 6.17194C16.6635 6.24188 16.8658 6.27681 17.0895 6.27681C17.2976 6.27681 17.4765 6.2535 17.6257 6.20687C17.7778 6.16025 17.9084 6.10778 18.0174 6.0495C18.1263 5.99122 18.2161 5.94459 18.2878 5.89797C18.3624 5.84552 18.4259 5.8222 18.4789 5.8222C18.5471 5.8222 18.6002 5.84552 18.6375 5.89797L18.8706 6.20104ZM23.0417 3.26369C22.8867 3.0597 22.7188 2.91401 22.5382 2.83242C22.3581 2.75082 22.1558 2.70422 21.932 2.70422C21.4938 2.70422 21.1569 2.86161 20.9203 3.17632C20.6843 3.49104 20.566 3.93976 20.566 4.52256C20.566 4.82562 20.5928 5.0937 20.6452 5.31517C20.6983 5.5308 20.7758 5.7115 20.8783 5.85137C20.9809 5.99124 21.1068 6.09616 21.256 6.16027C21.4052 6.22438 21.5748 6.2593 21.7642 6.2593C22.0381 6.2593 22.2759 6.19523 22.4776 6.07284C22.6827 5.95045 22.871 5.77559 23.0417 5.5483V3.26369ZM23.8716 0V6.86544H23.3774C23.2597 6.86544 23.1851 6.80713 23.1536 6.69057L23.079 6.11944C22.8774 6.36421 22.6471 6.55655 22.389 6.70807C22.1314 6.85378 21.833 6.92954 21.4938 6.92954C21.2234 6.92954 20.978 6.87708 20.7571 6.77801C20.5368 6.6731 20.3486 6.51579 20.193 6.31764C20.038 6.11366 19.9179 5.86303 19.834 5.55997C19.75 5.25691 19.7081 4.91304 19.7081 4.52256C19.7081 4.17288 19.7547 3.84655 19.8479 3.54932C19.9412 3.24627 20.0752 2.98978 20.2489 2.76832C20.4232 2.54685 20.6359 2.372 20.8877 2.24961C21.1429 2.1214 21.4285 2.05731 21.7456 2.05731C22.0346 2.05731 22.2817 2.10977 22.4869 2.20885C22.6955 2.3021 22.8803 2.44194 23.0417 2.61095V0H23.8716ZM29.0662 2.14475V6.86544H28.5719C28.4542 6.86544 28.3796 6.80713 28.3481 6.69057L28.2829 6.18354C28.0777 6.41083 27.8481 6.59737 27.5928 6.73724C27.3381 6.87129 27.0462 6.94121 26.7163 6.94121C26.4587 6.94121 26.2302 6.90043 26.0309 6.81301C25.8351 6.72559 25.6707 6.6032 25.5367 6.45168C25.4032 6.29432 25.3024 6.10777 25.2336 5.8863C25.1684 5.66484 25.1357 5.42012 25.1357 5.15203V2.14475H25.9656V5.15203C25.9656 5.51337 26.0467 5.78725 26.2081 5.9854C26.373 6.17773 26.623 6.27681 26.9587 6.27681C27.2047 6.27681 27.4331 6.2185 27.6441 6.10777C27.8586 5.98538 28.0561 5.82804 28.2362 5.61823V2.14475H29.0662ZM31.24 0V6.86544H30.4101V0H31.24ZM35.7474 3.98643C35.7474 3.7941 35.7194 3.61925 35.6635 3.46189C35.6105 3.2987 35.5312 3.16461 35.4257 3.04805C35.3231 2.93149 35.1972 2.83826 35.048 2.77415C34.8988 2.71004 34.7293 2.68088 34.5399 2.68088C34.1418 2.68088 33.8265 2.7975 33.5934 3.03062C33.3632 3.25791 33.2204 3.57846 33.1644 3.98643H35.7474ZM36.4188 6.20104C36.3162 6.32925 36.1933 6.43419 36.0505 6.52744C35.9071 6.62069 35.7533 6.69646 35.5889 6.75474C35.4269 6.81302 35.259 6.8538 35.0853 6.88294C34.9111 6.91791 34.7386 6.92954 34.5678 6.92954C34.2414 6.92954 33.9396 6.87707 33.6633 6.76634C33.3894 6.65561 33.1516 6.49245 32.95 6.28264C32.7506 6.067 32.5956 5.80475 32.4837 5.49003C32.3718 5.17532 32.3159 4.81399 32.3159 4.40603C32.3159 4.07966 32.3654 3.77073 32.465 3.48515C32.5676 3.19958 32.7133 2.95486 32.9033 2.74505C33.0927 2.53524 33.3241 2.36617 33.598 2.24961C33.8714 2.12722 34.1791 2.06898 34.5212 2.06898C34.8038 2.06898 35.0649 2.11561 35.3045 2.21468C35.5469 2.30793 35.755 2.44195 35.9292 2.62262C36.1064 2.79746 36.2445 3.01893 36.3442 3.28702C36.4433 3.54345 36.4934 3.84653 36.4934 4.17873C36.4934 4.31277 36.4794 4.40016 36.4514 4.44096C36.4235 4.48176 36.3704 4.50506 36.2929 4.50506H33.1365C33.1458 4.80229 33.186 5.0646 33.2577 5.28607C33.3323 5.50753 33.4348 5.68817 33.5654 5.8397C33.6959 5.9854 33.851 6.09618 34.0317 6.17194C34.2117 6.24188 34.414 6.27681 34.6378 6.27681C34.8458 6.27681 35.0247 6.2535 35.1739 6.20687C35.326 6.16025 35.4566 6.10778 35.5656 6.0495C35.674 5.99122 35.7643 5.94459 35.836 5.89797C35.9106 5.84552 35.9741 5.8222 36.0271 5.8222C36.0953 5.8222 36.1484 5.84552 36.1857 5.89797L36.4188 6.20104ZM42.4578 4.7382C42.0755 4.74985 41.7491 4.78484 41.4787 4.83146C41.2118 4.87809 40.9926 4.94217 40.8213 5.01793C40.6534 5.09952 40.5311 5.187 40.453 5.2919C40.3784 5.40263 40.3411 5.51919 40.3411 5.6474C40.3411 5.77562 40.3615 5.88048 40.4017 5.9679C40.4425 6.06115 40.4967 6.13692 40.5649 6.1952C40.6365 6.24766 40.7187 6.29433 40.812 6.31764C40.9087 6.34678 41.0113 6.35841 41.1197 6.35841C41.266 6.35841 41.3994 6.34095 41.5207 6.31764C41.6419 6.28267 41.7555 6.24182 41.861 6.18354C41.97 6.13108 42.0726 6.06117 42.1687 5.9854C42.2684 5.90381 42.3646 5.81641 42.4578 5.71734V4.7382ZM39.7769 2.80915C40.038 2.55855 40.3195 2.372 40.6208 2.24378C40.9227 2.12139 41.2567 2.05731 41.6233 2.05731C41.8878 2.05731 42.1221 2.10393 42.3273 2.19135C42.5324 2.27877 42.7049 2.39533 42.8448 2.55268C42.9847 2.71004 43.0907 2.89652 43.1618 3.11798C43.2335 3.33945 43.2691 3.5784 43.2691 3.84649V6.86544H42.9007C42.8203 6.86544 42.7579 6.85375 42.7142 6.83044C42.6711 6.8013 42.6367 6.7489 42.6117 6.66731L42.5184 6.22437C42.3943 6.33511 42.2731 6.44002 42.1548 6.52744C42.037 6.61486 41.9123 6.69064 41.7818 6.75474C41.6512 6.81302 41.5114 6.85964 41.3622 6.88878C41.2165 6.92375 41.0533 6.94121 40.8726 6.94121C40.6896 6.94121 40.5171 6.9179 40.3551 6.86544C40.1936 6.81299 40.052 6.73721 39.9308 6.63231C39.8131 6.5274 39.718 6.39917 39.6464 6.24764C39.5782 6.08445 39.5438 5.89798 39.5438 5.68817C39.5438 5.50167 39.5951 5.32105 39.6977 5.15203C39.8002 4.97719 39.9669 4.81981 40.1965 4.68576C40.4268 4.55172 40.7269 4.44678 41.0964 4.35936C41.4665 4.27194 41.9205 4.22531 42.4578 4.21366V3.84649C42.4578 3.47932 42.3786 3.19962 42.22 3.01312C42.0615 2.82662 41.8301 2.72755 41.5253 2.72755C41.3202 2.72755 41.1477 2.7567 41.0078 2.80915C40.8714 2.86161 40.7514 2.91401 40.6488 2.98395C40.5497 3.04223 40.4623 3.10053 40.3877 3.15299C40.3166 3.20544 40.2449 3.22875 40.1732 3.22875C40.1173 3.22875 40.0695 3.21706 40.0287 3.18792C39.9885 3.15295 39.9541 3.11802 39.9261 3.07722L39.7769 2.80915ZM52.2099 0.186537L49.487 6.86544H48.6757L45.9529 0.186537H46.6756C46.7566 0.186537 46.8219 0.204007 46.8714 0.244803C46.9209 0.285599 46.9582 0.338057 46.9833 0.396338L48.8669 5.1112C48.9071 5.2161 48.9462 5.33264 48.9835 5.45503C49.0237 5.58325 49.0598 5.7115 49.0907 5.85137C49.1216 5.7115 49.1542 5.58325 49.1886 5.45503C49.223 5.33264 49.2603 5.2161 49.3005 5.1112L51.1795 0.396338C51.1981 0.343885 51.2337 0.297267 51.2867 0.256471C51.3427 0.209846 51.4097 0.186537 51.4872 0.186537H52.2099ZM53.7695 2.14475V6.86544H52.9395V2.14475H53.7695ZM53.9466 0.658571C53.9466 0.740163 53.9297 0.815936 53.8953 0.885873C53.8645 0.955809 53.8208 1.01996 53.7648 1.07241C53.7123 1.12486 53.6482 1.17147 53.5736 1.20061C53.5025 1.22975 53.4262 1.24721 53.3452 1.24721C53.2647 1.24721 53.1884 1.22975 53.1167 1.20061C53.0485 1.17147 52.9879 1.12486 52.9349 1.07241C52.8824 1.01996 52.8405 0.955809 52.809 0.885873C52.7781 0.815936 52.7624 0.740163 52.7624 0.658571C52.7624 0.576978 52.7781 0.501205 52.809 0.431269C52.8405 0.355504 52.8824 0.291422 52.9349 0.238969C52.9879 0.186517 53.0485 0.13991 53.1167 0.11077C53.1884 0.0758015 53.2647 0.0640998 53.3452 0.0640998C53.4262 0.0640998 53.5025 0.0758015 53.5736 0.11077C53.6482 0.13991 53.7123 0.186517 53.7648 0.238969C53.8208 0.291422 53.8645 0.355504 53.8953 0.431269C53.9297 0.501205 53.9466 0.576978 53.9466 0.658571ZM57.8841 2.91985C57.8468 2.98979 57.789 3.02479 57.7115 3.02479C57.6649 3.02479 57.6119 3.00725 57.553 2.97228C57.4942 2.93732 57.4207 2.90238 57.3339 2.86159C57.2499 2.81496 57.1491 2.78002 57.0308 2.74505C56.9125 2.70426 56.7726 2.68672 56.6112 2.68672C56.4713 2.68672 56.3454 2.70426 56.2335 2.74505C56.1216 2.78002 56.0255 2.82665 55.9445 2.89075C55.867 2.94903 55.8063 3.0248 55.7626 3.10639C55.7224 3.18798 55.702 3.27538 55.702 3.37446C55.702 3.49684 55.7364 3.59593 55.8046 3.67752C55.8763 3.75912 55.9695 3.82904 56.0843 3.88733C56.1992 3.94561 56.3297 3.99807 56.476 4.04469C56.6223 4.08549 56.7715 4.13794 56.9236 4.19039C57.0792 4.23702 57.2296 4.29525 57.3758 4.35936C57.5221 4.41764 57.6527 4.49925 57.7675 4.59249C57.8823 4.68574 57.9744 4.79646 58.0426 4.93633C58.1142 5.07037 58.1498 5.22778 58.1498 5.4201C58.1498 5.63574 58.1108 5.83974 58.0332 6.02624C57.9557 6.20691 57.8403 6.37006 57.6882 6.50411C57.5361 6.63815 57.3496 6.74309 57.1287 6.82468C56.9078 6.90044 56.6532 6.94121 56.3641 6.94121C56.0348 6.94121 55.7364 6.88875 55.4689 6.78384C55.2014 6.67311 54.9747 6.53325 54.7882 6.36424L54.984 6.0495C55.0091 6.00871 55.0382 5.97955 55.0726 5.95624C55.107 5.93292 55.1501 5.9213 55.2031 5.9213C55.2591 5.9213 55.318 5.94461 55.3803 5.99124C55.4427 6.03203 55.5173 6.07865 55.6041 6.1311C55.6944 6.18356 55.8028 6.23601 55.9305 6.27681C56.0581 6.32343 56.2166 6.34091 56.4061 6.34091C56.5675 6.34091 56.7091 6.32344 56.8303 6.28264C56.9515 6.24184 57.0524 6.18353 57.1334 6.10777C57.2144 6.03783 57.2733 5.95629 57.3106 5.86304C57.3508 5.76979 57.3712 5.67071 57.3712 5.5658C57.3712 5.43176 57.3356 5.32682 57.2639 5.24523C57.1957 5.15781 57.1037 5.08204 56.9889 5.02376C56.874 4.95966 56.7418 4.90719 56.5926 4.8664C56.4463 4.81977 56.2959 4.77315 56.1403 4.72069C55.9882 4.66824 55.8372 4.61584 55.688 4.55173C55.5418 4.48762 55.4112 4.40601 55.2964 4.31276C55.1816 4.21368 55.0883 4.09713 55.0166 3.95726C54.9484 3.81156 54.9141 3.64254 54.9141 3.43856C54.9141 3.25789 54.9514 3.08304 55.026 2.91985C55.1005 2.75084 55.2096 2.60514 55.3524 2.48275C55.4951 2.35453 55.6711 2.25544 55.8792 2.17968C56.0873 2.10392 56.3251 2.06898 56.5926 2.06898C56.9032 2.06898 57.1818 2.11561 57.4271 2.21468C57.676 2.31376 57.8905 2.44777 58.0706 2.61678L57.8841 2.91985ZM60.0439 2.14475V6.86544H59.214V2.14475H60.0439ZM60.2211 0.658571C60.2211 0.740163 60.2042 0.815936 60.1698 0.885873C60.1389 0.955809 60.0952 1.01996 60.0393 1.07241C59.9862 1.12486 59.9227 1.17147 59.8481 1.20061C59.7764 1.22975 59.7006 1.24721 59.6196 1.24721C59.5386 1.24721 59.4629 1.22975 59.3912 1.20061C59.323 1.17147 59.2624 1.12486 59.2093 1.07241C59.1563 1.01996 59.1143 0.955809 59.0835 0.885873C59.0526 0.815936 59.0368 0.740163 59.0368 0.658571C59.0368 0.576978 59.0526 0.501205 59.0835 0.431269C59.1143 0.355504 59.1563 0.291422 59.2093 0.238969C59.2624 0.186517 59.323 0.13991 59.3912 0.11077C59.4629 0.0758015 59.5386 0.0640998 59.6196 0.0640998C59.7006 0.0640998 59.7764 0.0758015 59.8481 0.11077C59.9227 0.13991 59.9862 0.186517 60.0393 0.238969C60.0952 0.291422 60.1389 0.355504 60.1698 0.431269C60.2042 0.501205 60.2211 0.576978 60.2211 0.658571ZM62.8577 6.94121C62.4847 6.94121 62.1968 6.83628 61.9951 6.62647C61.7958 6.41666 61.6967 6.11948 61.6967 5.729V2.83825H61.1279C61.0778 2.83825 61.0358 2.8208 61.002 2.79749C60.9677 2.76252 60.9507 2.7159 60.9507 2.65762V2.32538L61.7247 2.22635L61.9159 0.769341C61.9252 0.722716 61.945 0.681877 61.9765 0.652737C62.0103 0.623597 62.054 0.606138 62.107 0.606138H62.5267V2.23802H63.8928V2.83825H62.5267V5.67067C62.5267 5.86882 62.5744 6.02035 62.6712 6.1136C62.7674 6.21268 62.8915 6.2593 63.0442 6.2593C63.131 6.2593 63.2056 6.24769 63.268 6.22437C63.3333 6.20106 63.3892 6.17775 63.4358 6.14861C63.4825 6.11947 63.5209 6.09615 63.5524 6.07284C63.5862 6.04953 63.6159 6.03784 63.641 6.03784C63.6841 6.03784 63.7232 6.06115 63.7575 6.1136L64 6.50994C63.8566 6.64399 63.6841 6.74885 63.4824 6.83044C63.2802 6.90038 63.0722 6.94121 62.8577 6.94121Z" fill="#0086FD"/>
</svg>
