<svg width="99" height="9" viewBox="0 0 99 9" fill="none" xmlns="http://www.w3.org/2000/svg">
<path d="M6.91429 0.209444L7.1005 2.95666H6.91429C6.66984 2.13602 6.31478 1.54249 5.86081 1.18164C5.40103 0.820794 4.85396 0.640268 4.21375 0.640268C3.6783 0.640268 3.18941 0.774244 2.75872 1.04779C2.32222 1.32133 1.97882 1.75187 1.72855 2.35134C1.48411 2.945 1.36188 3.68987 1.36188 4.57452C1.36188 5.30786 1.47827 5.94226 1.71108 6.47771C1.94388 7.01898 2.29895 7.43242 2.77038 7.71761C3.2418 8.00279 3.78309 8.14815 4.38838 8.14815C4.91219 8.14815 5.37198 8.0317 5.77357 7.81053C6.18098 7.58355 6.61743 7.13537 7.1005 6.46606L7.28678 6.58854C6.87937 7.31023 6.40791 7.83388 5.86664 8.17145C5.32537 8.50319 4.67938 8.6719 3.94022 8.6719C2.59578 8.6719 1.55981 8.17147 0.820655 7.17623C0.273565 6.43708 0 5.56975 0 4.56287C0 3.7597 0.180383 3.01483 0.54123 2.33969C0.902076 1.66456 1.40265 1.14092 2.03704 0.768436C2.67143 0.395949 3.36399 0.209444 4.11478 0.209444C4.70261 0.209444 5.27886 0.349263 5.84923 0.640268C6.0122 0.72757 6.13441 0.768436 6.20425 0.768436C6.31483 0.768436 6.40794 0.733265 6.4836 0.657604C6.58837 0.547022 6.66403 0.401508 6.70477 0.209444H6.91429ZM10.7672 2.85776C11.5936 2.85776 12.2572 3.17212 12.7577 3.80069C13.1826 4.33614 13.3979 4.95289 13.3979 5.6513C13.3979 6.14019 13.2815 6.63507 13.0429 7.1356C12.8101 7.63612 12.4841 8.01426 12.0709 8.27035C11.6635 8.52643 11.2037 8.65456 10.6974 8.65456C9.87672 8.65456 9.21905 8.32285 8.73598 7.671C8.32858 7.11809 8.11902 6.49523 8.11902 5.80845C8.11902 5.3021 8.24707 4.8075 8.49151 4.31279C8.74178 3.81808 9.06774 3.45148 9.47515 3.21868C9.88255 2.98005 10.3132 2.85776 10.7672 2.85776ZM10.5809 3.24766C10.3714 3.24766 10.1561 3.31173 9.94071 3.43977C9.73119 3.56199 9.5624 3.77741 9.42854 4.09169C9.29468 4.40598 9.23068 4.81315 9.23068 5.30204C9.23068 6.09939 9.38785 6.78618 9.70214 7.36238C10.0222 7.93857 10.4412 8.22971 10.9534 8.22971C11.3434 8.22971 11.6577 8.07267 11.9137 7.75256C12.164 7.43245 12.2862 6.88518 12.2862 6.11111C12.2862 5.13915 12.0767 4.37675 11.6577 3.81802C11.3783 3.43972 11.0174 3.24766 10.5809 3.24766ZM15.7958 4.01582C16.436 3.24174 17.0471 2.85776 17.6291 2.85776C17.9259 2.85776 18.182 2.9335 18.3973 3.08483C18.6127 3.23033 18.7815 3.47464 18.9095 3.81802C18.9968 4.05665 19.0434 4.42339 19.0434 4.9181V7.25183C19.0434 7.59521 19.0725 7.83382 19.1249 7.95604C19.1714 8.05498 19.2412 8.13087 19.3344 8.18907C19.4333 8.24145 19.6138 8.27035 19.8757 8.27035V8.48576H17.1751V8.27035H17.2857C17.5418 8.27035 17.7222 8.23546 17.8212 8.1598C17.9201 8.07832 17.9958 7.96186 18.0365 7.81053C18.0481 7.75233 18.0598 7.56611 18.0598 7.25183V5.01103C18.0598 4.51632 17.9899 4.1557 17.8619 3.93454C17.7338 3.70755 17.5185 3.59096 17.21 3.59096C16.7386 3.59096 16.2672 3.85291 15.7958 4.36508V7.25183C15.7958 7.61849 15.819 7.8514 15.8598 7.9387C15.918 8.04928 15.9937 8.13655 16.0868 8.19475C16.1857 8.24713 16.3894 8.27035 16.6863 8.27035V8.48576H13.9799V8.27035H14.1021C14.3815 8.27035 14.5677 8.20058 14.6608 8.0609C14.7598 7.92122 14.8121 7.64759 14.8121 7.25183V5.22076C14.8121 4.56309 14.7947 4.16729 14.7656 4.02178C14.7365 3.87628 14.6899 3.78316 14.6259 3.73078C14.5677 3.6784 14.4862 3.64922 14.3815 3.64922C14.2709 3.64922 14.137 3.68423 13.9799 3.74243L13.8926 3.52702L15.5397 2.85776H15.7958V4.01582ZM21.9011 1.22228V3.0206H23.1756V3.43977H21.9011V6.98412C21.9011 7.33333 21.9534 7.57194 22.0524 7.69999C22.1513 7.82221 22.2851 7.88044 22.4423 7.88044C22.5761 7.88044 22.7042 7.84541 22.8264 7.76393C22.9487 7.68245 23.0476 7.56029 23.1116 7.39733H23.3444C23.2047 7.78728 23.0069 8.08411 22.7566 8.282C22.5005 8.47988 22.2386 8.573 21.9651 8.573C21.7846 8.573 21.6042 8.52644 21.4296 8.4275C21.255 8.32274 21.127 8.17724 21.0397 7.99099C20.9582 7.79893 20.9174 7.50806 20.9174 7.11229V3.43977H20.0502V3.24198C20.2714 3.15468 20.4926 3.00321 20.7196 2.7995C20.9524 2.58998 21.1561 2.33984 21.3365 2.05466C21.4238 1.90333 21.5518 1.62387 21.7148 1.22228H21.9011ZM26.8132 7.69999C26.2545 8.13067 25.8995 8.38096 25.754 8.4508C25.5444 8.54974 25.3116 8.59631 25.073 8.59631C24.6947 8.59631 24.3804 8.46817 24.136 8.21209C23.8915 7.95018 23.7693 7.61275 23.7693 7.18789C23.7693 6.92598 23.8275 6.69307 23.9497 6.50101C24.1127 6.22747 24.392 5.97148 24.7936 5.73286C25.201 5.49424 25.8762 5.20309 26.8132 4.86553V4.6504C26.8132 4.10331 26.7259 3.73072 26.5513 3.52702C26.3767 3.32331 26.1264 3.22436 25.8005 3.22436C25.5502 3.22436 25.3466 3.28829 25.2011 3.42215C25.0498 3.56184 24.9741 3.71333 24.9741 3.88793L24.9857 4.2372C24.9857 4.41762 24.9391 4.56311 24.846 4.66205C24.7529 4.76099 24.6306 4.80755 24.4793 4.80755C24.3338 4.80755 24.2116 4.75503 24.1127 4.65608C24.0254 4.55132 23.9788 4.41165 23.9788 4.23123C23.9788 3.88784 24.1534 3.57349 24.5026 3.2883C24.8518 3.00312 25.3466 2.85776 25.9751 2.85776C26.464 2.85776 26.8597 2.9392 27.1682 3.10216C27.4068 3.22438 27.5814 3.41645 27.692 3.68417C27.7619 3.85295 27.7968 4.20205 27.7968 4.73168V6.58854C27.7968 7.10653 27.8084 7.4324 27.8259 7.5488C27.8492 7.6652 27.8783 7.74081 27.9248 7.78155C27.9714 7.82229 28.0238 7.83981 28.082 7.83981C28.146 7.83981 28.2042 7.82798 28.2508 7.79888C28.3323 7.7465 28.4952 7.601 28.7339 7.36238V7.69999C28.2915 8.29364 27.8608 8.59062 27.4592 8.59062C27.2613 8.59062 27.11 8.52641 26.9936 8.39255C26.8772 8.25286 26.819 8.02591 26.8132 7.69999ZM26.8132 7.31009V5.22644C26.2137 5.46507 25.8238 5.63392 25.6492 5.73286C25.3349 5.90746 25.108 6.09382 24.9741 6.28588C24.8402 6.47213 24.7703 6.68155 24.7703 6.90853C24.7703 7.19954 24.8577 7.43815 25.0264 7.62439C25.2011 7.81064 25.3989 7.90943 25.6201 7.90943C25.9228 7.90943 26.3185 7.70585 26.8132 7.31009ZM33.7915 6.40808C33.6402 7.12978 33.355 7.68261 32.9243 8.07255C32.4936 8.4625 32.0164 8.65456 31.4984 8.65456C30.8757 8.65456 30.3344 8.3926 29.8746 7.86879C29.4148 7.3508 29.182 6.64664 29.182 5.75616C29.182 4.90061 29.4381 4.20214 29.9444 3.66087C30.4566 3.12542 31.0735 2.85776 31.7894 2.85776C32.3249 2.85776 32.7672 3.00312 33.1164 3.2883C33.4598 3.56767 33.6344 3.8645 33.6344 4.17297C33.6344 4.32429 33.582 4.44673 33.4831 4.53985C33.39 4.63297 33.2561 4.67939 33.0815 4.67939C32.8428 4.67939 32.6683 4.60365 32.546 4.45232C32.482 4.36502 32.4354 4.20798 32.4121 3.97518C32.3888 3.73655 32.3132 3.56199 32.1736 3.43977C32.0339 3.31755 31.8418 3.25932 31.5915 3.25932C31.1958 3.25932 30.8757 3.40468 30.6312 3.70151C30.3111 4.09145 30.1482 4.60385 30.1482 5.24406C30.1482 5.89591 30.3053 6.47209 30.6254 6.97844C30.9513 7.47315 31.382 7.72329 31.9291 7.72329C32.319 7.72329 32.6683 7.58946 32.9767 7.32174C33.1979 7.14131 33.4074 6.80959 33.6169 6.32652L33.7915 6.40808ZM36.1661 1.22228V3.0206H37.4407V3.43977H36.1661V6.98412C36.1661 7.33333 36.2127 7.57194 36.3116 7.69999C36.4164 7.82221 36.5502 7.88044 36.7074 7.88044C36.8412 7.88044 36.9635 7.84541 37.0915 7.76393C37.2137 7.68245 37.3069 7.56029 37.3767 7.39733H37.6095C37.4698 7.78728 37.2719 8.08411 37.0158 8.282C36.7656 8.47988 36.5037 8.573 36.2302 8.573C36.0497 8.573 35.8693 8.52644 35.6947 8.4275C35.5201 8.32274 35.3863 8.17724 35.3048 7.99099C35.2233 7.79893 35.1825 7.50806 35.1825 7.11229V3.43977H34.3153V3.24198C34.5307 3.15468 34.7577 3.00321 34.9846 2.7995C35.2116 2.58998 35.4212 2.33984 35.5958 2.05466C35.6889 1.90333 35.8169 1.62387 35.9799 1.22228H36.1661ZM44.4248 8.26466V8.48576H40.9561V8.26466H41.2413C41.5788 8.26466 41.8174 8.16572 41.9688 7.97366C42.0677 7.84561 42.1143 7.5371 42.1143 7.05403V1.82759C42.1143 1.41436 42.091 1.1467 42.0386 1.01283C41.9979 0.913893 41.9164 0.826625 41.7941 0.756784C41.6195 0.663662 41.4333 0.616965 41.2413 0.616965H40.9561V0.395869H44.4248V0.616965H44.1338C43.8021 0.616965 43.5635 0.710087 43.4121 0.90797C43.3074 1.03601 43.2608 1.3387 43.2608 1.82759V7.05403C43.2608 7.46144 43.2841 7.73507 43.3365 7.86311C43.3772 7.96205 43.4587 8.04932 43.5868 8.11916C43.7614 8.2181 43.9418 8.26466 44.1338 8.26466H44.4248ZM46.7005 4.01582C47.3407 3.24174 47.9518 2.85776 48.528 2.85776C48.8307 2.85776 49.0867 2.9335 49.3021 3.08483C49.5174 3.23033 49.6862 3.47464 49.8143 3.81802C49.9016 4.05665 49.9423 4.42339 49.9423 4.9181V7.25183C49.9423 7.59521 49.9714 7.83382 50.0296 7.95604C50.0703 8.05498 50.1402 8.13087 50.2391 8.18907C50.3381 8.24145 50.5185 8.27035 50.7804 8.27035V8.48576H48.074V8.27035H48.1905C48.4466 8.27035 48.6211 8.23546 48.7201 8.1598C48.8248 8.07832 48.8947 7.96186 48.9354 7.81053C48.9529 7.75233 48.9587 7.56611 48.9587 7.25183V5.01103C48.9587 4.51632 48.8947 4.1557 48.7609 3.93454C48.6328 3.70755 48.4175 3.59096 48.1148 3.59096C47.6376 3.59096 47.1661 3.85291 46.7005 4.36508V7.25183C46.7005 7.61849 46.718 7.8514 46.7645 7.9387C46.8169 8.04928 46.8926 8.13655 46.9915 8.19475C47.0905 8.24713 47.2884 8.27035 47.5852 8.27035V8.48576H44.8846V8.27035H45.001C45.2804 8.27035 45.4667 8.20058 45.5656 8.0609C45.6646 7.92122 45.7111 7.64759 45.7111 7.25183V5.22076C45.7111 4.56309 45.6994 4.16729 45.6645 4.02178C45.6354 3.87628 45.5947 3.78316 45.5307 3.73078C45.4666 3.6784 45.3851 3.64922 45.2862 3.64922C45.1698 3.64922 45.0418 3.68423 44.8846 3.74243L44.7915 3.52702L46.4386 2.85776H46.7005V4.01582ZM53.3529 3.45142V7.04238C53.3529 7.54873 53.4053 7.87475 53.5217 8.00861C53.6672 8.18321 53.8651 8.27035 54.1095 8.27035H54.6042V8.48576H51.3391V8.27035H51.5836C51.7466 8.27035 51.8921 8.22977 52.0201 8.15411C52.154 8.07263 52.2412 7.96202 52.2878 7.82815C52.3402 7.69429 52.3693 7.43233 52.3693 7.04238V3.45142H51.3042V3.0206H52.3693V2.65997C52.3693 2.1187 52.4566 1.65288 52.6312 1.27457C52.8058 0.896262 53.0736 0.593719 53.4286 0.360915C53.7894 0.12811 54.1968 0.0116516 54.645 0.0116516C55.064 0.0116516 55.4481 0.145628 55.7973 0.419173C56.0301 0.593776 56.1465 0.797354 56.1465 1.01852C56.1465 1.14074 56.0941 1.25123 55.9894 1.36181C55.8846 1.46076 55.7741 1.51328 55.6577 1.51328C55.5645 1.51328 55.4656 1.48409 55.3608 1.42007C55.2619 1.35023 55.1397 1.21056 54.9942 0.995215C54.8487 0.779871 54.709 0.628685 54.5868 0.553024C54.4646 0.477362 54.3248 0.442476 54.1735 0.442476C53.9931 0.442476 53.836 0.489037 53.7079 0.587978C53.5857 0.68692 53.4925 0.838118 53.4343 1.04182C53.382 1.24553 53.3529 1.77528 53.3529 2.62501V3.0206H54.7613V3.45142H53.3529ZM57.9566 2.85776C58.7888 2.85776 59.4524 3.17212 59.9529 3.80069C60.3778 4.33614 60.5931 4.95289 60.5931 5.6513C60.5931 6.14019 60.4767 6.63507 60.2381 7.1356C60.0053 7.63612 59.6793 8.01426 59.2661 8.27035C58.8587 8.52643 58.3989 8.65456 57.8926 8.65456C57.0719 8.65456 56.4143 8.32285 55.9312 7.671C55.518 7.11809 55.3143 6.49523 55.3143 5.80845C55.3143 5.3021 55.4365 4.8075 55.6867 4.31279C55.937 3.81808 56.2629 3.45148 56.6704 3.21868C57.0778 2.98005 57.5084 2.85776 57.9566 2.85776ZM57.7762 3.24766C57.5608 3.24766 57.3513 3.31173 57.136 3.43977C56.9265 3.56199 56.7519 3.77741 56.6238 4.09169C56.49 4.40598 56.4259 4.81315 56.4259 5.30204C56.4259 6.09939 56.5831 6.78618 56.8973 7.36238C57.2174 7.93857 57.6307 8.22971 58.1487 8.22971C58.5386 8.22971 58.8529 8.07267 59.1032 7.75256C59.3535 7.43245 59.4814 6.88518 59.4814 6.11111C59.4814 5.13915 59.2719 4.37675 58.8529 3.81802C58.5735 3.43972 58.2127 3.24766 57.7762 3.24766ZM62.9968 2.85776V4.08572C63.4566 3.26509 63.9222 2.85776 64.4053 2.85776C64.6206 2.85776 64.8068 2.92766 64.9465 3.06152C65.092 3.18956 65.1619 3.34673 65.1619 3.52133C65.1619 3.67848 65.1095 3.80634 65.0047 3.91692C64.9058 4.02168 64.7777 4.07407 64.638 4.07407C64.4984 4.07407 64.3413 4.00999 64.1667 3.87031C63.992 3.73063 63.8698 3.66087 63.7825 3.66087C63.7127 3.66087 63.637 3.70159 63.5497 3.78307C63.3751 3.94603 63.1889 4.21369 62.9968 4.58617V7.21119C62.9968 7.51383 63.0317 7.74077 63.1073 7.8921C63.1597 8.00268 63.2529 8.0901 63.3868 8.16577C63.5148 8.23561 63.7069 8.27035 63.9513 8.27035V8.48576H61.1518V8.27035C61.4312 8.27035 61.6349 8.22976 61.7746 8.14246C61.8735 8.07844 61.9434 7.97352 61.9841 7.83384C62.0016 7.76982 62.0132 7.57208 62.0132 7.25779V5.1392C62.0132 4.49899 61.9957 4.12057 61.9725 4.00416C61.9434 3.88194 61.8968 3.78884 61.827 3.73646C61.7571 3.67826 61.6757 3.64922 61.5709 3.64922C61.4487 3.64922 61.3089 3.68423 61.1518 3.74243L61.0936 3.52702L62.7465 2.85776H62.9968ZM67.0884 4.02178C67.4899 3.62602 67.7227 3.39311 67.7926 3.33491C67.973 3.18359 68.1651 3.06713 68.3746 2.98565C68.5783 2.89834 68.7878 2.85776 68.9857 2.85776C69.3291 2.85776 69.6259 2.95657 69.8704 3.15445C70.1206 3.35815 70.2836 3.64348 70.3651 4.02178C70.7783 3.54453 71.1216 3.23033 71.4068 3.08483C71.6862 2.9335 71.9772 2.85776 72.274 2.85776C72.565 2.85776 72.8212 2.9335 73.0481 3.08483C73.2751 3.23033 73.4497 3.47477 73.5835 3.81234C73.6708 4.04514 73.7175 4.40577 73.7175 4.90048V7.25183C73.7175 7.59521 73.7407 7.82799 73.7931 7.95604C73.8339 8.04334 73.9037 8.11908 74.0143 8.1831C74.1191 8.2413 74.2936 8.27035 74.538 8.27035V8.48576H71.8433V8.27035H71.954C72.1868 8.27035 72.373 8.2238 72.501 8.13649C72.5941 8.07247 72.6582 7.96784 72.6989 7.82815C72.7164 7.76413 72.7222 7.56611 72.7222 7.25183V4.90048C72.7222 4.45233 72.6698 4.13826 72.565 3.95784C72.4079 3.70176 72.1577 3.57362 71.8143 3.57362C71.6047 3.57362 71.3952 3.62588 71.1799 3.73646C70.9646 3.84122 70.7084 4.03329 70.4058 4.31847L70.3941 4.38838L70.4058 4.64443V7.25183C70.4058 7.62431 70.4291 7.85723 70.4698 7.95035C70.5105 8.03766 70.592 8.11908 70.7084 8.1831C70.8248 8.2413 71.0169 8.27035 71.2963 8.27035V8.48576H68.5317V8.27035C68.8344 8.27035 69.0439 8.23561 69.1544 8.16577C69.2709 8.0901 69.3524 7.98531 69.3931 7.83981C69.4164 7.77578 69.4222 7.57775 69.4222 7.25183V4.90048C69.4222 4.45233 69.3581 4.13229 69.2243 3.94022C69.0497 3.68414 68.8052 3.556 68.4909 3.556C68.2756 3.556 68.0661 3.61438 67.8566 3.73078C67.5248 3.90538 67.2688 4.10313 67.0884 4.31847V7.25183C67.0884 7.60685 67.1116 7.83977 67.164 7.95035C67.2164 8.05512 67.2862 8.13655 67.3852 8.19475C67.4841 8.24713 67.682 8.27035 67.9788 8.27035V8.48576H65.2783V8.27035C65.5286 8.27035 65.7031 8.24713 65.8021 8.19475C65.901 8.13655 65.9767 8.04928 66.0291 7.9387C66.0814 7.81648 66.1047 7.58939 66.1047 7.25183V5.1625C66.1047 4.56303 66.0873 4.17308 66.0524 3.99848C66.0233 3.86462 65.9825 3.77734 65.9185 3.73078C65.8603 3.6784 65.7788 3.64922 65.674 3.64922C65.5635 3.64922 65.4296 3.68423 65.2783 3.74243L65.1852 3.52702L66.8322 2.85776H67.0884V4.02178ZM78.0767 7.69999C77.518 8.13067 77.1629 8.38096 77.0232 8.4508C76.8079 8.54974 76.5751 8.59631 76.3365 8.59631C75.9582 8.59631 75.6439 8.46817 75.3995 8.21209C75.155 7.95018 75.0328 7.61275 75.0328 7.18789C75.0328 6.92598 75.091 6.69307 75.2132 6.50101C75.3762 6.22747 75.6555 5.97148 76.0571 5.73286C76.4645 5.49424 77.1397 5.20309 78.0767 4.86553V4.6504C78.0767 4.10331 77.9894 3.73072 77.8148 3.52702C77.646 3.32331 77.3899 3.22436 77.064 3.22436C76.8138 3.22436 76.6159 3.28829 76.4645 3.42215C76.3132 3.56184 76.2375 3.71333 76.2375 3.88793L76.2492 4.2372C76.2492 4.41762 76.2026 4.56311 76.1095 4.66205C76.0164 4.76099 75.8942 4.80755 75.7428 4.80755C75.5973 4.80755 75.4751 4.75503 75.382 4.65608C75.2889 4.55132 75.2423 4.41165 75.2423 4.23123C75.2423 3.88784 75.4169 3.57349 75.7661 3.2883C76.1153 3.00312 76.61 2.85776 77.2444 2.85776C77.7275 2.85776 78.1233 2.9392 78.4376 3.10216C78.6704 3.22438 78.845 3.41645 78.9556 3.68417C79.0254 3.85295 79.0603 4.20205 79.0603 4.73168V6.58854C79.0603 7.10653 79.0719 7.4324 79.0894 7.5488C79.1127 7.6652 79.1417 7.74081 79.1883 7.78155C79.2349 7.82229 79.2873 7.83981 79.3455 7.83981C79.4095 7.83981 79.4677 7.82798 79.5143 7.79888C79.6016 7.7465 79.7587 7.601 79.9973 7.36238V7.69999C79.555 8.29364 79.1301 8.59062 78.7227 8.59062C78.5249 8.59062 78.3735 8.52641 78.2571 8.39255C78.1407 8.25286 78.0825 8.02591 78.0767 7.69999ZM78.0767 7.31009V5.22644C77.4772 5.46507 77.0873 5.63392 76.9127 5.73286C76.5984 5.90746 76.3714 6.09382 76.2375 6.28588C76.1037 6.47213 76.0338 6.68155 76.0338 6.90853C76.0338 7.19954 76.1211 7.43815 76.2899 7.62439C76.4645 7.81064 76.6624 7.90943 76.8836 7.90943C77.1862 7.90943 77.582 7.70585 78.0767 7.31009ZM81.9995 1.22228V3.0206H83.274V3.43977H81.9995V6.98412C81.9995 7.33333 82.046 7.57194 82.145 7.69999C82.2497 7.82221 82.3835 7.88044 82.5407 7.88044C82.6746 7.88044 82.7968 7.84541 82.9248 7.76393C83.0471 7.68245 83.1402 7.56029 83.21 7.39733H83.4428C83.3031 7.78728 83.1053 8.08411 82.8492 8.282C82.5989 8.47988 82.337 8.573 82.0635 8.573C81.883 8.573 81.7026 8.52644 81.528 8.4275C81.3534 8.32274 81.2196 8.17724 81.1381 7.99099C81.0566 7.79893 81.0158 7.50806 81.0158 7.11229V3.43977H80.1486V3.24198C80.364 3.15468 80.591 3.00321 80.818 2.7995C81.0449 2.58998 81.2545 2.33984 81.4291 2.05466C81.5222 1.90333 81.6502 1.62387 81.8132 1.22228H81.9995ZM85.2005 0C85.3693 0 85.509 0.0582351 85.6254 0.180457C85.7476 0.291039 85.8058 0.436667 85.8058 0.59963C85.8058 0.768413 85.7476 0.913768 85.6254 1.03017C85.509 1.15239 85.3693 1.21063 85.2005 1.21063C85.0375 1.21063 84.8921 1.15239 84.7757 1.03017C84.6534 0.913768 84.5952 0.768413 84.5952 0.59963C84.5952 0.436667 84.6534 0.291039 84.7698 0.180457C84.8862 0.0582351 85.0317 0 85.2005 0ZM85.6952 2.85776V7.25183C85.6952 7.59521 85.7243 7.8223 85.7709 7.9387C85.8233 8.04928 85.8931 8.13087 85.992 8.18907C86.091 8.24145 86.2714 8.27035 86.5275 8.27035V8.48576H83.8735V8.27035C84.1412 8.27035 84.3159 8.24713 84.409 8.19475C84.5021 8.14237 84.5719 8.0551 84.6243 7.9387C84.6767 7.81648 84.7058 7.58939 84.7058 7.25183V5.14488C84.7058 4.55123 84.6883 4.16712 84.6534 3.99251C84.6243 3.86447 84.5836 3.77734 84.5195 3.73078C84.4613 3.6784 84.3799 3.64922 84.2751 3.64922C84.1646 3.64922 84.0307 3.68423 83.8735 3.74243L83.7862 3.52702L85.4333 2.85776H85.6952ZM89.8857 2.85776C90.7121 2.85776 91.3815 3.17212 91.882 3.80069C92.3068 4.33614 92.5222 4.95289 92.5222 5.6513C92.5222 6.14019 92.4 6.63507 92.1672 7.1356C91.9344 7.63612 91.6084 8.01426 91.1952 8.27035C90.782 8.52643 90.328 8.65456 89.8216 8.65456C89.001 8.65456 88.3433 8.32285 87.8603 7.671C87.447 7.11809 87.2434 6.49523 87.2434 5.80845C87.2434 5.3021 87.3656 4.8075 87.6159 4.31279C87.8661 3.81808 88.192 3.45148 88.5994 3.21868C89.0068 2.98005 89.4317 2.85776 89.8857 2.85776ZM89.7053 3.24766C89.4899 3.24766 89.2804 3.31173 89.0651 3.43977C88.8556 3.56199 88.6809 3.77741 88.5529 4.09169C88.419 4.40598 88.355 4.81315 88.355 5.30204C88.355 6.09939 88.5121 6.78618 88.8264 7.36238C89.1407 7.93857 89.5598 8.22971 90.0778 8.22971C90.4619 8.22971 90.782 8.07267 91.0323 7.75256C91.2825 7.43245 91.4105 6.88518 91.4105 6.11111C91.4105 5.13915 91.201 4.37675 90.782 3.81802C90.5026 3.43972 90.1418 3.24766 89.7053 3.24766ZM94.9201 4.01582C95.5603 3.24174 96.1714 2.85776 96.7534 2.85776C97.0502 2.85776 97.3063 2.9335 97.5216 3.08483C97.737 3.23033 97.9058 3.47464 98.0338 3.81802C98.1211 4.05665 98.1677 4.42339 98.1677 4.9181V7.25183C98.1677 7.59521 98.1909 7.83382 98.2491 7.95604C98.2899 8.05498 98.3598 8.13087 98.4587 8.18907C98.5577 8.24145 98.7381 8.27035 99 8.27035V8.48576H96.2994V8.27035H96.41C96.6661 8.27035 96.8407 8.23546 96.9396 8.1598C97.0444 8.07832 97.1142 7.96186 97.155 7.81053C97.1724 7.75233 97.1783 7.56611 97.1783 7.25183V5.01103C97.1783 4.51632 97.1143 4.1557 96.9862 3.93454C96.8582 3.70755 96.637 3.59096 96.3344 3.59096C95.8571 3.59096 95.3857 3.85291 94.9201 4.36508V7.25183C94.9201 7.61849 94.9375 7.8514 94.9841 7.9387C95.0423 8.04928 95.1179 8.13655 95.2111 8.19475C95.31 8.24713 95.5079 8.27035 95.8106 8.27035V8.48576H93.1042V8.27035H93.2264C93.4999 8.27035 93.6862 8.20058 93.7852 8.0609C93.8841 7.92122 93.9365 7.64759 93.9365 7.25183V5.22076C93.9365 4.56309 93.919 4.16729 93.8841 4.02178C93.8608 3.87628 93.8142 3.78316 93.7502 3.73078C93.6862 3.6784 93.6048 3.64922 93.5058 3.64922C93.3952 3.64922 93.2613 3.68423 93.1042 3.74243L93.0169 3.52702L94.664 2.85776H94.9201V4.01582Z" fill="white"/>
</svg>
