<svg width="10" height="10" viewBox="0 0 10 10" fill="none" xmlns="http://www.w3.org/2000/svg">
<path d="M0 0H4.36233V0.374503H4.07874C3.81579 0.374503 3.61297 0.438591 3.47147 0.566826C3.33646 0.695002 3.26924 0.867101 3.26924 1.08301C3.26924 1.31919 3.34 1.59919 3.4815 1.92311L5.6376 7.04465L7.80373 1.73078C7.9588 1.35292 8.03603 1.06614 8.03603 0.870462C8.03603 0.77601 8.0095 0.698362 7.95526 0.637635C7.88097 0.536462 7.78664 0.468955 7.67167 0.435231C7.55729 0.394726 7.3244 0.374503 6.9736 0.374503V0H9.99994V0.374503C9.64914 0.401506 9.40622 0.472315 9.27121 0.587049C9.03479 0.789512 8.82253 1.12687 8.63328 1.59919L5.34399 9.5548H4.92892L1.61899 1.73078C1.47101 1.36642 1.32892 1.10665 1.1939 0.951412C1.05889 0.789512 0.887321 0.654557 0.678018 0.546545C0.56305 0.485818 0.337242 0.42845 0 0.374503V0Z" fill="#0086FD"/>
</svg>
