<svg width="125" height="34" viewBox="0 0 125 34" fill="none" xmlns="http://www.w3.org/2000/svg">
<path d="M9.03439 8.3462L9.29682 8.40459L8.37532 11.3382H0V11.0408H0.40824C0.863167 11.0408 1.18974 10.8949 1.38804 10.5974C1.49886 10.4283 1.55721 10.0317 1.55721 9.41928V2.43805C1.55721 1.76149 1.48138 1.34132 1.32973 1.17218C1.1256 0.93888 0.816508 0.82246 0.40824 0.82246H0V0.524859H4.89916V0.82246C4.32175 0.816628 3.91934 0.869131 3.68605 0.979946C3.45858 1.09076 3.30108 1.23058 3.21359 1.39972C3.1261 1.57469 3.08529 1.97718 3.08529 2.62458V9.41928C3.08529 9.85671 3.1261 10.1599 3.21359 10.3232C3.27775 10.4398 3.3769 10.5216 3.51105 10.5741C3.63936 10.6266 4.05346 10.6498 4.75335 10.6498H5.54078C6.36898 10.6498 6.95223 10.5915 7.2905 10.469C7.62295 10.3465 7.92621 10.1308 8.20616 9.82168C8.48028 9.50673 8.76026 9.01693 9.03439 8.3462ZM11.3965 6.78302C11.3906 7.86784 11.6531 8.71931 12.1838 9.33754C12.7146 9.95578 13.3387 10.2591 14.0561 10.2591C14.5343 10.2591 14.9543 10.1308 15.3042 9.86838C15.66 9.60592 15.9574 9.1511 16.1965 8.51537L16.4415 8.67285C16.3307 9.4019 16.0041 10.0668 15.4675 10.6675C14.9309 11.2624 14.2602 11.5597 13.4495 11.5597C12.5746 11.5597 11.8223 11.2214 11.1982 10.5391C10.5741 9.85666 10.265 8.93515 10.265 7.78034C10.265 6.5322 10.58 5.55819 11.2215 4.86413C11.8631 4.16425 12.6679 3.80843 13.6361 3.80843C14.4526 3.80843 15.1292 4.08279 15.6542 4.6252C16.1791 5.16178 16.4415 5.87899 16.4415 6.78302H11.3965ZM11.3965 6.32223H14.7735C14.7501 5.85564 14.6918 5.52323 14.6101 5.33659C14.476 5.03331 14.2777 4.80003 14.0094 4.63089C13.7527 4.46175 13.4787 4.3743 13.1871 4.3743C12.7496 4.3743 12.353 4.54935 12.0031 4.89347C11.6531 5.23758 11.4548 5.70983 11.3965 6.32223ZM21.5624 10.2884C20.81 10.8658 20.3434 11.1981 20.1509 11.2915C19.8651 11.4256 19.556 11.4897 19.2353 11.4897C18.7278 11.4897 18.3137 11.3149 17.9813 10.9708C17.6547 10.6267 17.4972 10.1716 17.4972 9.60581C17.4972 9.25003 17.573 8.94115 17.7363 8.68453C17.9521 8.32292 18.3312 7.97881 18.8678 7.66386C19.4102 7.34308 20.3084 6.95814 21.5624 6.49738V6.21145C21.5624 5.4824 21.4457 4.98092 21.2124 4.71263C20.985 4.4385 20.6467 4.30425 20.2092 4.30425C19.8709 4.30425 19.6085 4.39769 19.4102 4.57849C19.2061 4.7593 19.1069 4.96347 19.1069 5.19676L19.1244 5.66324C19.1244 5.90237 19.0603 6.09496 18.932 6.22911C18.8095 6.35742 18.6462 6.42732 18.4421 6.42732C18.2496 6.42732 18.0862 6.35741 17.9579 6.21743C17.8354 6.08329 17.7772 5.89069 17.7772 5.65157C17.7772 5.19664 18.0104 4.77661 18.477 4.39167C18.9436 4.01257 19.6027 3.82011 20.4484 3.82011C21.0958 3.82011 21.6265 3.92513 22.0406 4.14676C22.3556 4.31007 22.5831 4.56687 22.7347 4.91682C22.828 5.15011 22.8805 5.61651 22.8805 6.32223V8.80101C22.8805 9.50089 22.8921 9.92677 22.9155 10.0842C22.9446 10.2417 22.9854 10.3467 23.0438 10.3992C23.1079 10.4517 23.1779 10.475 23.2596 10.475C23.347 10.475 23.417 10.4576 23.4812 10.4226C23.5978 10.3526 23.8079 10.1601 24.1287 9.83933V10.2884C23.5337 11.0816 22.968 11.484 22.4256 11.484C22.1631 11.484 21.9531 11.3905 21.8015 11.2097C21.6498 11.0289 21.5682 10.72 21.5624 10.2884ZM21.5624 9.76928V6.98721C20.7575 7.30216 20.2384 7.52971 20.0051 7.66386C19.5852 7.89715 19.2877 8.14198 19.1069 8.3986C18.9261 8.6494 18.8328 8.92946 18.8328 9.23274C18.8328 9.61768 18.9494 9.93242 19.1769 10.1891C19.4043 10.4398 19.6669 10.5624 19.9643 10.5624C20.3726 10.5624 20.9033 10.3 21.5624 9.76928ZM26.8174 3.82011V5.45905C27.4298 4.36839 28.0538 3.82011 28.7012 3.82011C28.9929 3.82011 29.232 3.90757 29.4244 4.08838C29.6169 4.26335 29.7102 4.46766 29.7102 4.70095C29.7102 4.91092 29.6403 5.0857 29.5061 5.23151C29.3661 5.37148 29.2028 5.44737 29.0104 5.44737C28.8237 5.44737 28.6137 5.35422 28.3804 5.17341C28.153 4.98677 27.9838 4.89347 27.8672 4.89347C27.7739 4.89347 27.6689 4.94583 27.5581 5.05665C27.319 5.27245 27.074 5.63397 26.8174 6.12972V9.62916C26.8174 10.0374 26.8699 10.3408 26.969 10.5507C27.039 10.6907 27.1615 10.8131 27.3365 10.9064C27.5114 11.0056 27.7622 11.0522 28.0946 11.0522V11.3382H24.3503V11.0522C24.7236 11.0522 25.0035 10.994 25.1843 10.8774C25.3126 10.7899 25.4059 10.6556 25.4584 10.469C25.4875 10.3757 25.4993 10.1193 25.4993 9.69352V6.86475C25.4993 6.01322 25.4817 5.51158 25.4467 5.34827C25.4117 5.18496 25.3476 5.06256 25.2543 4.99257C25.1609 4.91675 25.0502 4.88179 24.9102 4.88179C24.7469 4.88179 24.5603 4.91661 24.3503 4.99827L24.2745 4.71263L26.4791 3.82011H26.8174ZM32.2473 5.36564C33.1047 4.3333 33.9213 3.82011 34.697 3.82011C35.0936 3.82011 35.4377 3.91927 35.7235 4.12341C36.0093 4.31588 36.2367 4.64259 36.4117 5.10335C36.5283 5.42414 36.5867 5.90809 36.5867 6.56715V9.68754C36.5867 10.1483 36.6216 10.4632 36.6974 10.6265C36.7558 10.7606 36.8491 10.8656 36.9774 10.9415C37.1057 11.0114 37.3507 11.0522 37.7006 11.0522V11.3382H34.0904V11.0522H34.242C34.5803 11.0522 34.8194 10.9999 34.9477 10.9007C35.0877 10.7957 35.1868 10.6382 35.2393 10.4399C35.2568 10.3583 35.2685 10.1075 35.2685 9.68754V6.69559C35.2685 6.03069 35.181 5.55231 35.006 5.25486C34.8369 4.95157 34.5453 4.80006 34.137 4.80006C33.5071 4.80006 32.8772 5.14404 32.2473 5.8381V9.68754C32.2473 10.1833 32.2765 10.4868 32.3348 10.6034C32.4106 10.7609 32.5098 10.8716 32.6381 10.9474C32.7723 11.0174 33.0347 11.0522 33.4371 11.0522V11.3382H29.821V11.0522H29.9843C30.3518 11.0522 30.6026 10.9589 30.7309 10.7723C30.865 10.5798 30.9292 10.2183 30.9292 9.68754V6.97553C30.9292 6.10067 30.9117 5.56409 30.865 5.37162C30.83 5.18498 30.7718 5.05088 30.6843 4.9809C30.6026 4.91674 30.4976 4.88179 30.3576 4.88179C30.206 4.88179 30.031 4.91661 29.821 4.99827L29.7044 4.71263L31.9032 3.82011H32.2473V5.36564ZM46.8925 11.0408V11.3382H42.2616V11.0408H42.6465C43.0898 11.0408 43.4164 10.9123 43.6205 10.6498C43.743 10.4807 43.8072 10.0727 43.8072 9.42526V2.43805C43.8072 1.8898 43.7722 1.52799 43.708 1.35302C43.6497 1.21887 43.5447 1.10815 43.3814 1.00899C43.1422 0.886514 42.9032 0.82246 42.6465 0.82246H42.2616V0.524859H46.8925V0.82246H46.5017C46.0643 0.82246 45.7435 0.950727 45.5394 1.21319C45.4052 1.38233 45.3411 1.79065 45.3411 2.43805V9.42526C45.3411 9.9735 45.3761 10.335 45.446 10.51C45.4985 10.6441 45.6094 10.7549 45.7785 10.854C46.006 10.9765 46.251 11.0408 46.5017 11.0408H46.8925ZM49.9312 5.36564C50.7886 4.3333 51.6051 3.82011 52.3808 3.82011C52.7774 3.82011 53.1215 3.91927 53.4073 4.12341C53.6989 4.31588 53.9264 4.64259 54.0955 5.10335C54.2122 5.42414 54.2705 5.90809 54.2705 6.56715V9.68754C54.2705 10.1483 54.3113 10.4632 54.3813 10.6265C54.4396 10.7606 54.533 10.8656 54.6613 10.9415C54.7954 11.0114 55.0345 11.0522 55.3903 11.0522V11.3382H51.7742V11.0522H51.9258C52.2699 11.0522 52.5033 10.9999 52.6374 10.9007C52.7774 10.7957 52.8707 10.6382 52.9232 10.4399C52.9466 10.3583 52.9582 10.1075 52.9582 9.68754V6.69559C52.9582 6.03069 52.8707 5.55231 52.6899 5.25486C52.5208 4.95157 52.235 4.80006 51.8209 4.80006C51.191 4.80006 50.5611 5.14404 49.9312 5.8381V9.68754C49.9312 10.1833 49.9603 10.4868 50.0186 10.6034C50.0945 10.7609 50.1936 10.8716 50.3219 10.9474C50.4561 11.0174 50.7244 11.0522 51.121 11.0522V11.3382H47.5107V11.0522H47.6682C48.0415 11.0522 48.2922 10.9589 48.4206 10.7723C48.5489 10.5798 48.6189 10.2183 48.6189 9.68754V6.97553C48.6189 6.10067 48.5956 5.56409 48.5548 5.37162C48.5139 5.18498 48.4556 5.05088 48.3681 4.9809C48.2923 4.91674 48.1815 4.88179 48.0415 4.88179C47.8957 4.88179 47.7149 4.91661 47.5107 4.99827L47.3883 4.71263L49.5929 3.82011H49.9312V5.36564ZM58.0907 1.63296V4.03598H59.7996V4.59017H58.0907V9.32587C58.0907 9.80412 58.1549 10.1193 58.289 10.2884C58.429 10.4517 58.604 10.5334 58.8139 10.5334C58.9947 10.5334 59.1639 10.4809 59.3272 10.3759C59.4905 10.2592 59.6188 10.1016 59.7121 9.88575H60.0212C59.8346 10.4048 59.5721 10.8016 59.2339 11.0699C58.8897 11.3265 58.5398 11.4606 58.1782 11.4606C57.9333 11.4606 57.6941 11.3906 57.4608 11.2564C57.2275 11.1223 57.0525 10.9241 56.9417 10.6792C56.8309 10.4225 56.7726 10.0316 56.7726 9.5067V4.59017H55.6178V4.3276C55.9094 4.21095 56.2068 4.01278 56.5101 3.73866C56.8192 3.45871 57.0934 3.126 57.3325 2.74106C57.455 2.54276 57.6241 2.16954 57.8457 1.63296H58.0907ZM61.7418 6.78302C61.736 7.86784 61.9984 8.71931 62.535 9.33754C63.0658 9.95578 63.6898 10.2591 64.4072 10.2591C64.8854 10.2591 65.2996 10.1308 65.6495 9.86838C66.0053 9.60592 66.3027 9.1511 66.5419 8.51537L66.7926 8.67285C66.676 9.4019 66.3552 10.0668 65.8187 10.6675C65.2821 11.2624 64.6055 11.5597 63.8006 11.5597C62.9257 11.5597 62.1734 11.2214 61.5435 10.5391C60.9194 9.85666 60.6103 8.93515 60.6103 7.78034C60.6103 6.5322 60.9311 5.55819 61.5668 4.86413C62.2084 4.16425 63.0133 3.80843 63.9814 3.80843C64.8038 3.80843 65.4745 4.08279 65.9994 4.6252C66.5243 5.16178 66.7926 5.87899 66.7926 6.78302H61.7418ZM61.7418 6.32223H65.1246C65.0954 5.85564 65.043 5.52323 64.9555 5.33659C64.8213 5.03331 64.623 4.80003 64.3606 4.63089C64.0981 4.46175 63.824 4.3743 63.5382 4.3743C63.0949 4.3743 62.6983 4.54935 62.3483 4.89347C62.0042 5.23758 61.8001 5.70983 61.7418 6.32223ZM69.9072 3.82011V5.45905C70.5196 4.36839 71.1495 3.82011 71.791 3.82011C72.0827 3.82011 72.3218 3.90757 72.5143 4.08838C72.7067 4.26335 72.8 4.46766 72.8 4.70095C72.8 4.91092 72.7359 5.0857 72.5959 5.23151C72.4559 5.37148 72.2926 5.44737 72.1002 5.44737C71.9135 5.44737 71.7035 5.35422 71.4702 5.17341C71.2428 4.98677 71.0736 4.89347 70.9628 4.89347C70.8637 4.89347 70.7587 4.94583 70.6478 5.05665C70.4087 5.27245 70.1638 5.63397 69.9072 6.12972V9.62916C69.9072 10.0374 69.9597 10.3408 70.0588 10.5507C70.1288 10.6907 70.2513 10.8131 70.4263 10.9064C70.6012 11.0056 70.852 11.0522 71.1844 11.0522V11.3382H67.4459V11.0522C67.8191 11.0522 68.0933 10.994 68.2741 10.8774C68.4082 10.7899 68.5015 10.6556 68.554 10.469C68.5774 10.3757 68.5949 10.1193 68.5949 9.69352V6.86475C68.5949 6.01322 68.5715 5.51158 68.5365 5.34827C68.5073 5.18496 68.4432 5.06256 68.3441 4.99257C68.2566 4.91675 68.14 4.88179 68 4.88179C67.8367 4.88179 67.65 4.91661 67.4459 4.99827L67.3643 4.71263L69.5747 3.82011H69.9072ZM75.3371 5.36564C76.1945 4.3333 77.0111 3.82011 77.7868 3.82011C78.1834 3.82011 78.5274 3.91927 78.8132 4.12341C79.1048 4.31588 79.3323 4.64259 79.5015 5.10335C79.6181 5.42414 79.6765 5.90809 79.6765 6.56715V9.68754C79.6765 10.1483 79.7114 10.4632 79.7872 10.6265C79.8456 10.7606 79.9389 10.8656 80.0672 10.9415C80.2013 11.0114 80.4404 11.0522 80.7904 11.0522V11.3382H77.1802V11.0522H77.3318C77.6701 11.0522 77.9092 10.9999 78.0434 10.9007C78.1775 10.7957 78.2767 10.6382 78.3291 10.4399C78.3525 10.3583 78.3583 10.1075 78.3583 9.68754V6.69559C78.3583 6.03069 78.2708 5.55231 78.0958 5.25486C77.9267 4.95157 77.6351 4.80006 77.2268 4.80006C76.5969 4.80006 75.967 5.14404 75.3371 5.8381V9.68754C75.3371 10.1833 75.3663 10.4868 75.4246 10.6034C75.5004 10.7609 75.5996 10.8716 75.7279 10.9474C75.8621 11.0174 76.1303 11.0522 76.5269 11.0522V11.3382H72.9167V11.0522H73.0741C73.4474 11.0522 73.6982 10.9589 73.8207 10.7723C73.9548 10.5798 74.0248 10.2183 74.0248 9.68754V6.97553C74.0248 6.10067 74.0015 5.56409 73.9607 5.37162C73.9198 5.18498 73.8616 5.05088 73.7741 4.9809C73.6982 4.91674 73.5874 4.88179 73.4474 4.88179C73.3016 4.88179 73.1208 4.91661 72.9167 4.99827L72.7942 4.71263L74.993 3.82011H75.3371V5.36564ZM85.5147 10.2884C84.7623 10.8658 84.2957 11.1981 84.1032 11.2915C83.8174 11.4256 83.5083 11.4897 83.1875 11.4897C82.6801 11.4897 82.2602 11.3149 81.9336 10.9708C81.607 10.6267 81.4495 10.1716 81.4495 9.60581C81.4495 9.25003 81.5253 8.94115 81.6886 8.68453C81.9044 8.32292 82.2835 7.97881 82.8201 7.66386C83.3625 7.34308 84.2607 6.95814 85.5147 6.49738V6.21145C85.5147 5.4824 85.398 4.98092 85.1647 4.71263C84.9314 4.4385 84.599 4.30425 84.1557 4.30425C83.8233 4.30425 83.555 4.39769 83.3625 4.57849C83.1584 4.7593 83.0592 4.96347 83.0592 5.19676L83.0709 5.66324C83.0709 5.90237 83.0068 6.09496 82.8843 6.22911C82.7618 6.35742 82.5984 6.42732 82.3943 6.42732C82.196 6.42732 82.0386 6.35741 81.9102 6.21743C81.7878 6.08329 81.7236 5.89069 81.7236 5.65157C81.7236 5.19664 81.9569 4.77661 82.4293 4.39167C82.8959 4.01257 83.5492 3.82011 84.3949 3.82011C85.0481 3.82011 85.5788 3.92513 85.9929 4.14676C86.3079 4.31007 86.5353 4.56687 86.6869 4.91682C86.7803 5.15011 86.827 5.61651 86.827 6.32223V8.80101C86.827 9.50089 86.8445 9.92677 86.8678 10.0842C86.8969 10.2417 86.9378 10.3467 86.9961 10.3992C87.0602 10.4517 87.1302 10.475 87.2119 10.475C87.2994 10.475 87.3694 10.4576 87.4335 10.4226C87.5443 10.3526 87.7601 10.1601 88.0809 9.83933V10.2884C87.486 11.0816 86.9145 11.484 86.372 11.484C86.1154 11.484 85.9054 11.3905 85.7538 11.2097C85.5963 11.0289 85.5205 10.72 85.5147 10.2884ZM85.5147 9.76928V6.98721C84.7098 7.30216 84.1907 7.52971 83.9574 7.66386C83.5375 7.89715 83.24 8.14198 83.0592 8.3986C82.8784 8.6494 82.7851 8.92946 82.7851 9.23274C82.7851 9.61768 82.9017 9.93242 83.1292 10.1891C83.3567 10.4398 83.6191 10.5624 83.9166 10.5624C84.3248 10.5624 84.8556 10.3 85.5147 9.76928ZM90.7522 1.63296V4.03598H92.461V4.59017H90.7522V9.32587C90.7522 9.80412 90.8163 10.1193 90.9505 10.2884C91.0904 10.4517 91.2654 10.5334 91.4754 10.5334C91.6562 10.5334 91.8253 10.4809 91.9887 10.3759C92.152 10.2592 92.2802 10.1016 92.3735 9.88575H92.6827C92.496 10.4048 92.2336 10.8016 91.8953 11.0699C91.5512 11.3265 91.2013 11.4606 90.8397 11.4606C90.5947 11.4606 90.3555 11.3906 90.1222 11.2564C89.8889 11.1223 89.714 10.9241 89.6031 10.6792C89.4923 10.4225 89.4341 10.0316 89.4341 9.5067V4.59017H88.2793V4.3276C88.5709 4.21095 88.8683 4.01278 89.1716 3.73866C89.4807 3.45871 89.7548 3.126 89.9939 2.74106C90.1164 2.54276 90.2856 2.16954 90.5072 1.63296H90.7522ZM95.0332 0C95.2548 0 95.4472 0.0817448 95.5989 0.23922C95.7622 0.390862 95.838 0.583172 95.838 0.804803C95.838 1.02643 95.7622 1.21889 95.5989 1.37637C95.4472 1.53967 95.2548 1.61559 95.0332 1.61559C94.8115 1.61559 94.6191 1.53967 94.4616 1.37637C94.2983 1.21889 94.2224 1.02643 94.2224 0.804803C94.2224 0.583172 94.2983 0.390862 94.4499 0.23922C94.6132 0.0817448 94.8057 0 95.0332 0ZM95.6981 3.82011V9.68754C95.6981 10.1425 95.7272 10.4518 95.7914 10.6034C95.8614 10.7551 95.9605 10.8656 96.0889 10.9415C96.2172 11.0114 96.4563 11.0522 96.8062 11.0522V11.3382H93.2542V11.0522C93.61 11.0522 93.8492 11.0174 93.9717 10.9474C94.0942 10.8774 94.1933 10.7667 94.2633 10.6034C94.3333 10.4459 94.3741 10.1366 94.3741 9.68754V6.87045C94.3741 6.08307 94.3508 5.56989 94.2983 5.33659C94.2633 5.16162 94.2049 5.04505 94.1233 4.9809C94.0474 4.91674 93.9367 4.88179 93.7967 4.88179C93.6509 4.88179 93.47 4.91661 93.2542 4.99827L93.1435 4.71263L95.3481 3.82011H95.6981ZM101.291 3.82011C102.399 3.82011 103.286 4.24013 103.957 5.08C104.528 5.79739 104.808 6.61961 104.808 7.55279C104.808 8.20602 104.651 8.86531 104.342 9.53604C104.027 10.2068 103.595 10.7081 103.041 11.0522C102.493 11.3905 101.88 11.5597 101.204 11.5597C100.107 11.5597 99.2325 11.1223 98.5851 10.2474C98.0368 9.50672 97.7627 8.6785 97.7627 7.75698C97.7627 7.08626 97.926 6.42141 98.2585 5.76235C98.5909 5.09745 99.0284 4.6135 99.5708 4.29855C100.113 3.97777 100.691 3.82011 101.291 3.82011ZM101.046 4.33927C100.766 4.33927 100.481 4.42103 100.195 4.59017C99.909 4.75931 99.6816 5.05079 99.5066 5.47073C99.3317 5.89066 99.2441 6.42725 99.2441 7.08631C99.2441 8.15364 99.4541 9.06946 99.8741 9.83933C100.3 10.6092 100.86 10.9941 101.548 10.9941C102.067 10.9941 102.493 10.784 102.825 10.3582C103.158 9.93245 103.327 9.20353 103.327 8.16537C103.327 6.86474 103.047 5.84407 102.493 5.10335C102.114 4.5901 101.63 4.33927 101.046 4.33927ZM108.016 5.36564C108.873 4.3333 109.69 3.82011 110.466 3.82011C110.862 3.82011 111.206 3.91927 111.492 4.12341C111.778 4.31588 112.005 4.64259 112.18 5.10335C112.297 5.42414 112.355 5.90809 112.355 6.56715V9.68754C112.355 10.1483 112.39 10.4632 112.466 10.6265C112.525 10.7606 112.618 10.8656 112.746 10.9415C112.88 11.0114 113.119 11.0522 113.469 11.0522V11.3382H109.859V11.0522H110.011C110.349 11.0522 110.588 10.9999 110.716 10.9007C110.856 10.7957 110.956 10.6382 111.008 10.4399C111.026 10.3583 111.037 10.1075 111.037 9.68754V6.69559C111.037 6.03069 110.95 5.55231 110.775 5.25486C110.606 4.95157 110.314 4.80006 109.906 4.80006C109.276 4.80006 108.646 5.14404 108.016 5.8381V9.68754C108.016 10.1833 108.045 10.4868 108.104 10.6034C108.179 10.7609 108.279 10.8716 108.407 10.9474C108.541 11.0174 108.803 11.0522 109.206 11.0522V11.3382H105.59V11.0522H105.753C106.121 11.0522 106.371 10.9589 106.5 10.7723C106.634 10.5798 106.698 10.2183 106.698 9.68754V6.97553C106.698 6.10067 106.68 5.56409 106.634 5.37162C106.599 5.18498 106.54 5.05088 106.453 4.9809C106.371 4.91674 106.266 4.88179 106.126 4.88179C105.975 4.88179 105.8 4.91661 105.59 4.99827L105.473 4.71263L107.672 3.82011H108.016V5.36564ZM118.194 10.2884C117.441 10.8658 116.969 11.1981 116.782 11.2915C116.491 11.4256 116.187 11.4897 115.861 11.4897C115.359 11.4897 114.939 11.3149 114.612 10.9708C114.286 10.6267 114.123 10.1716 114.123 9.60581C114.123 9.25003 114.204 8.94115 114.362 8.68453C114.583 8.32292 114.957 7.97881 115.493 7.66386C116.036 7.34308 116.934 6.95814 118.194 6.49738V6.21145C118.194 5.4824 118.071 4.98092 117.838 4.71263C117.61 4.4385 117.278 4.30425 116.835 4.30425C116.502 4.30425 116.234 4.39769 116.036 4.57849C115.837 4.7593 115.732 4.96347 115.732 5.19676L115.75 5.66324C115.75 5.90237 115.686 6.09496 115.557 6.22911C115.435 6.35742 115.277 6.42732 115.073 6.42732C114.875 6.42732 114.712 6.35741 114.589 6.21743C114.467 6.08329 114.403 5.89069 114.403 5.65157C114.403 5.19664 114.636 4.77661 115.102 4.39167C115.575 4.01257 116.228 3.82011 117.074 3.82011C117.721 3.82011 118.252 3.92513 118.672 4.14676C118.981 4.31007 119.214 4.56687 119.36 4.91682C119.459 5.15011 119.506 5.61651 119.506 6.32223V8.80101C119.506 9.50089 119.518 9.92677 119.547 10.0842C119.57 10.2417 119.617 10.3467 119.675 10.3992C119.739 10.4517 119.809 10.475 119.891 10.475C119.973 10.475 120.048 10.4576 120.112 10.4226C120.223 10.3526 120.439 10.1601 120.76 9.83933V10.2884C120.165 11.0816 119.593 11.484 119.051 11.484C118.794 11.484 118.584 11.3905 118.433 11.2097C118.275 11.0289 118.194 10.72 118.194 10.2884ZM118.194 9.76928V6.98721C117.389 7.30216 116.87 7.52971 116.636 7.66386C116.216 7.89715 115.913 8.14198 115.732 8.3986C115.552 8.6494 115.464 8.92946 115.464 9.23274C115.464 9.61768 115.581 9.93242 115.808 10.1891C116.036 10.4398 116.298 10.5624 116.596 10.5624C116.998 10.5624 117.529 10.3 118.194 9.76928ZM123.822 0V9.68754C123.822 10.1425 123.851 10.4458 123.915 10.5974C123.985 10.7432 124.09 10.8598 124.224 10.9415C124.364 11.0114 124.621 11.0522 125 11.0522V11.3382H121.419V11.0522C121.757 11.0522 121.985 11.0174 122.107 10.9474C122.23 10.8774 122.323 10.7667 122.393 10.6034C122.463 10.4459 122.498 10.1366 122.498 9.68754V3.05034C122.498 2.22797 122.48 1.72647 122.44 1.53983C122.405 1.34736 122.34 1.21881 122.259 1.14882C122.177 1.07884 122.072 1.04402 121.944 1.04402C121.81 1.04402 121.635 1.08469 121.419 1.17218L121.285 0.892232L123.46 0H123.822ZM3.08529 19.7778V24.0527H5.46496C6.07736 24.0527 6.49145 23.9594 6.69559 23.7727C6.97554 23.5278 7.12714 23.0962 7.16214 22.4838H7.45376V26.2458H7.16214C7.08632 25.7209 7.01049 25.3825 6.9405 25.2308C6.84135 25.05 6.68391 24.8984 6.46812 24.7934C6.24648 24.6884 5.91405 24.6359 5.46496 24.6359H3.08529V28.1997C3.08529 28.678 3.10861 28.9696 3.14944 29.0746C3.19027 29.1796 3.26609 29.261 3.37108 29.3252C3.48189 29.3835 3.68022 29.4129 3.97767 29.4129H5.81489C6.42729 29.4129 6.87057 29.372 7.14469 29.2845C7.41882 29.197 7.68711 29.0338 7.94373 28.783C8.27035 28.4505 8.60861 27.9547 8.95273 27.2898H9.27347L8.34029 30.0019H0.0057669V29.7045H0.390725C0.647351 29.7045 0.886474 29.6462 1.11394 29.5237C1.28891 29.4362 1.39978 29.3136 1.4581 29.1387C1.52226 28.9695 1.55721 28.6196 1.55721 28.0946V21.0724C1.55721 20.3842 1.48723 19.9641 1.34725 19.8008C1.15478 19.5909 0.839821 19.4862 0.390725 19.4862H0.0057669V19.1886H8.34029L8.46275 21.5565H8.14785C8.03704 20.9908 7.91455 20.5999 7.77457 20.3841C7.64042 20.1741 7.44211 20.011 7.17965 19.9002C6.96385 19.8186 6.59055 19.7778 6.05397 19.7778H3.08529ZM9.87422 22.6997H13.3095V22.9913C13.0937 22.9913 12.9362 23.0321 12.8487 23.1021C12.7612 23.1779 12.7204 23.2772 12.7204 23.3997C12.7204 23.528 12.8137 23.7262 13.0004 23.9886C13.0587 24.0761 13.1462 24.2102 13.2629 24.391L13.7819 25.2192L14.3768 24.391C14.7618 23.8603 14.9542 23.5278 14.9542 23.3937C14.9542 23.277 14.9076 23.1896 14.8142 23.1137C14.7268 23.0321 14.581 22.9913 14.3768 22.9913V22.6997H16.8498V22.9913C16.5873 23.0088 16.3657 23.0788 16.1732 23.2072C15.9108 23.388 15.555 23.7844 15.1059 24.391L14.1086 25.721L15.9224 28.3339C16.3715 28.9813 16.6923 29.3662 16.8789 29.5003C17.0714 29.6287 17.3222 29.6984 17.6255 29.7159V30.0019H14.1785V29.7159C14.4177 29.7159 14.6043 29.6636 14.7384 29.5527C14.8376 29.4828 14.8901 29.3836 14.8901 29.2611C14.8901 29.1386 14.7151 28.8296 14.3768 28.3339L13.3095 26.7707L12.1372 28.3339C11.7756 28.818 11.5948 29.1037 11.5948 29.197C11.5948 29.3254 11.6531 29.4421 11.7698 29.547C11.8922 29.6462 12.0731 29.7043 12.3122 29.7159V30.0019H9.92669V29.7159C10.1192 29.6868 10.2883 29.6227 10.4283 29.5177C10.6324 29.3602 10.9707 28.9696 11.4489 28.3339L12.9829 26.3042L11.5948 24.2919C11.1981 23.7203 10.8949 23.3588 10.6791 23.2188C10.4633 23.0672 10.195 22.9913 9.87422 22.9913V22.6997ZM17.8063 23.423L20.0576 22.5131H20.355V24.2218C20.7341 23.5803 21.1133 23.1253 21.4924 22.8745C21.8715 22.6121 22.2739 22.4838 22.6938 22.4838C23.4287 22.4838 24.0411 22.7697 24.5311 23.3413C25.1318 24.047 25.4293 24.9568 25.4293 26.0883C25.4293 27.3481 25.0677 28.3862 24.3444 29.2144C23.7495 29.8851 22.9971 30.2234 22.0989 30.2234C21.7023 30.2234 21.364 30.171 21.0782 30.0602C20.8624 29.9786 20.6233 29.8209 20.355 29.5818V31.804C20.355 32.3056 20.3842 32.6207 20.4484 32.7549C20.5067 32.889 20.6175 32.9996 20.7633 33.0812C20.9208 33.1571 21.1949 33.198 21.5915 33.198V33.4956H17.7655V33.198H17.9638C18.2554 33.2038 18.5062 33.1515 18.7162 33.0348C18.8153 32.9765 18.8911 32.8773 18.9436 32.7432C19.0078 32.6149 19.0369 32.288 19.0369 31.7573V24.8518C19.0369 24.3794 19.0136 24.0762 18.9728 23.9479C18.9261 23.8196 18.8561 23.7261 18.7628 23.662C18.6753 23.5978 18.547 23.5688 18.3895 23.5688C18.2612 23.5688 18.0979 23.6038 17.8996 23.6796L17.8063 23.423ZM20.355 24.6886V27.418C20.355 28.0071 20.3842 28.3978 20.4309 28.5845C20.5067 28.8936 20.6875 29.162 20.9733 29.3953C21.2649 29.6286 21.6324 29.7453 22.0698 29.7453C22.6064 29.7453 23.0321 29.5411 23.3646 29.127C23.7962 28.5846 24.012 27.8204 24.012 26.8348C24.012 25.7208 23.767 24.8636 23.2771 24.2629C22.9388 23.8488 22.5305 23.6386 22.064 23.6386C21.8073 23.6386 21.5565 23.7028 21.3057 23.8311C21.1132 23.9244 20.7983 24.2104 20.355 24.6886ZM27.7272 25.4467C27.7214 26.5315 27.9838 27.383 28.5146 28.0012C29.0453 28.6195 29.6694 28.9228 30.3868 28.9228C30.8651 28.9228 31.285 28.7945 31.635 28.5321C31.9907 28.2696 32.2881 27.8148 32.5273 27.1791L32.7722 27.3365C32.6614 28.0656 32.3348 28.7304 31.7982 29.3312C31.2616 29.9261 30.5909 30.2234 29.7802 30.2234C28.9054 30.2234 28.153 29.8851 27.5289 29.2027C26.9048 28.5204 26.5957 27.5988 26.5957 26.444C26.5957 25.1959 26.9107 24.2219 27.5523 23.5278C28.1938 22.8279 28.9986 22.4721 29.9668 22.4721C30.7834 22.4721 31.46 22.7465 31.9849 23.2889C32.5098 23.8255 32.7722 24.5427 32.7722 25.4467H27.7272ZM27.7272 24.9859H31.1042C31.0809 24.5193 31.0225 24.1869 30.9409 24.0003C30.8067 23.697 30.6084 23.4637 30.3401 23.2946C30.0835 23.1254 29.8094 23.038 29.5178 23.038C29.0804 23.038 28.6837 23.213 28.3338 23.5572C27.9838 23.9013 27.7855 24.3735 27.7272 24.9859ZM35.8926 22.4838V24.1227C36.505 23.0321 37.129 22.4838 37.7706 22.4838C38.068 22.4838 38.3072 22.5713 38.4996 22.7521C38.6921 22.927 38.7855 23.1313 38.7855 23.3646C38.7855 23.5746 38.7154 23.7494 38.5813 23.8952C38.4413 24.0352 38.278 24.1111 38.0856 24.1111C37.8989 24.1111 37.689 24.0179 37.4557 23.8371C37.2282 23.6505 37.0532 23.5572 36.9424 23.5572C36.8491 23.5572 36.7441 23.6095 36.6333 23.7203C36.3942 23.9361 36.1492 24.2977 35.8926 24.7934V28.2929C35.8926 28.7011 35.9392 29.0045 36.0442 29.2144C36.1142 29.3544 36.2367 29.4768 36.4117 29.5701C36.5866 29.6693 36.8374 29.7159 37.1699 29.7159V30.0019H33.4255V29.7159C33.7987 29.7159 34.0787 29.6577 34.2537 29.5411C34.3878 29.4536 34.4811 29.3193 34.5336 29.1327C34.5628 29.0394 34.5744 28.783 34.5744 28.3572V25.5284C34.5744 24.6769 34.557 24.1753 34.522 24.012C34.487 23.8487 34.4228 23.7263 34.3295 23.6563C34.2362 23.5804 34.1253 23.5455 33.9854 23.5455C33.8221 23.5455 33.6354 23.5803 33.4255 23.662L33.3496 23.3763L35.5543 22.4838H35.8926ZM41.0484 18.6637C41.2759 18.6637 41.4625 18.7454 41.6142 18.9029C41.7775 19.0546 41.8533 19.2469 41.8533 19.4685C41.8533 19.6901 41.7775 19.8826 41.6142 20.0401C41.4625 20.2034 41.2759 20.2793 41.0484 20.2793C40.8268 20.2793 40.6343 20.2034 40.4768 20.0401C40.3194 19.8826 40.2377 19.6901 40.2377 19.4685C40.2377 19.2469 40.3135 19.0546 40.471 18.9029C40.6285 18.7454 40.8209 18.6637 41.0484 18.6637ZM41.7133 22.4838V28.3512C41.7133 28.8062 41.7425 29.1155 41.8066 29.2671C41.8766 29.4187 41.9758 29.5293 42.1041 29.6051C42.2382 29.6751 42.4774 29.7159 42.8215 29.7159V30.0019H39.2695V29.7159C39.6312 29.7159 39.8703 29.6811 39.9869 29.6111C40.1094 29.5411 40.2086 29.4304 40.2785 29.2671C40.3485 29.1096 40.3894 28.8003 40.3894 28.3512V25.5341C40.3894 24.7468 40.366 24.2336 40.3193 24.0003C40.2785 23.8253 40.2202 23.7087 40.1386 23.6446C40.0627 23.5804 39.9519 23.5455 39.8119 23.5455C39.6661 23.5455 39.4853 23.5803 39.2695 23.662L39.1587 23.3763L41.3634 22.4838H41.7133ZM44.9678 25.4467C44.962 26.5315 45.2244 27.383 45.7552 28.0012C46.2859 28.6195 46.91 28.9228 47.6274 28.9228C48.1056 28.9228 48.5197 28.7945 48.8755 28.5321C49.2313 28.2696 49.5287 27.8148 49.7679 27.1791L50.0129 27.3365C49.902 28.0656 49.5754 28.7304 49.0388 29.3312C48.5022 29.9261 47.8315 30.2234 47.0208 30.2234C46.146 30.2234 45.3936 29.8851 44.7637 29.2027C44.1455 28.5204 43.8305 27.5988 43.8305 26.444C43.8305 25.1959 44.1513 24.2219 44.7928 23.5278C45.4344 22.8279 46.2393 22.4721 47.2074 22.4721C48.024 22.4721 48.6947 22.7465 49.2254 23.2889C49.7503 23.8255 50.0129 24.5427 50.0129 25.4467H44.9678ZM44.9678 24.9859H48.3447C48.3214 24.5193 48.2631 24.1869 48.1815 24.0003C48.0473 23.697 47.849 23.4637 47.5807 23.2946C47.3183 23.1254 47.0441 23.038 46.7583 23.038C46.3209 23.038 45.9243 23.213 45.5743 23.5572C45.2244 23.9013 45.0261 24.3735 44.9678 24.9859ZM53.1215 24.0293C53.9789 22.997 54.7954 22.4838 55.5711 22.4838C55.9677 22.4838 56.3118 22.583 56.5976 22.7871C56.8892 22.9796 57.1167 23.3063 57.2859 23.767C57.4025 24.0878 57.4608 24.5718 57.4608 25.2308V28.3512C57.4608 28.812 57.4958 29.1269 57.5716 29.2902C57.63 29.4243 57.7233 29.5293 57.8516 29.6051C57.9857 29.6751 58.2248 29.7159 58.5748 29.7159V30.0019H54.9646V29.7159H55.1162C55.4545 29.7159 55.6936 29.6636 55.8278 29.5644C55.9619 29.4594 56.061 29.3019 56.1135 29.1036C56.1369 29.022 56.1427 28.7712 56.1427 28.3512V25.3593C56.1427 24.6944 56.0552 24.216 55.8802 23.9186C55.7111 23.6153 55.4195 23.4637 55.0112 23.4637C54.3813 23.4637 53.7514 23.8077 53.1215 24.5018V28.3512C53.1215 28.847 53.1507 29.1505 53.209 29.2671C53.2848 29.4246 53.384 29.5353 53.5123 29.6111C53.6464 29.6811 53.9147 29.7159 54.3113 29.7159V30.0019H50.701V29.7159H50.8585C51.2318 29.7159 51.4826 29.6226 51.6051 29.436C51.7392 29.2435 51.8092 28.882 51.8092 28.3512V25.6392C51.8092 24.7644 51.7859 24.2278 51.7451 24.0353C51.7042 23.8487 51.6459 23.7146 51.5584 23.6446C51.4826 23.5804 51.3718 23.5455 51.2318 23.5455C51.086 23.5455 50.9052 23.5803 50.701 23.662L50.5786 23.3763L52.7774 22.4838H53.1215V24.0293ZM65.3637 27.2258C65.1654 28.1881 64.7805 28.9287 64.2089 29.4536C63.6315 29.9669 62.9958 30.2234 62.3017 30.2234C61.4735 30.2234 60.7503 29.8793 60.1321 29.1794C59.5138 28.4853 59.2047 27.5406 59.2047 26.3566C59.2047 25.2076 59.5488 24.2745 60.2253 23.5572C60.9136 22.8398 61.736 22.4838 62.6925 22.4838C63.4099 22.4838 63.9989 22.6763 64.4597 23.0554C64.9263 23.4345 65.1538 23.8254 65.1538 24.2395C65.1538 24.4378 65.0896 24.601 64.9555 24.7293C64.8272 24.8518 64.6463 24.9159 64.413 24.9159C64.0981 24.9159 63.8648 24.8109 63.7073 24.6126C63.614 24.5018 63.5557 24.2862 63.5207 23.9712C63.4973 23.6621 63.3866 23.423 63.1999 23.2539C63.0133 23.0964 62.7566 23.0146 62.43 23.0146C61.8993 23.0146 61.4677 23.213 61.1469 23.6096C60.7153 24.1286 60.4995 24.8169 60.4995 25.6743C60.4995 26.5433 60.7095 27.3131 61.1352 27.9839C61.5668 28.6488 62.1442 28.9812 62.8733 28.9812C63.3982 28.9812 63.8648 28.8004 64.2789 28.4446C64.5705 28.1997 64.8563 27.7563 65.1304 27.1147L65.3637 27.2258ZM67.6442 25.4467C67.6384 26.5315 67.9008 27.383 68.4316 28.0012C68.9623 28.6195 69.5922 28.9228 70.3096 28.9228C70.7878 28.9228 71.2019 28.7945 71.5519 28.5321C71.9077 28.2696 72.2051 27.8148 72.4443 27.1791L72.6892 27.3365C72.5784 28.0656 72.2576 28.7304 71.7211 29.3312C71.1786 29.9261 70.5079 30.2234 69.703 30.2234C68.8223 30.2234 68.0699 29.8851 67.4459 29.2027C66.8218 28.5204 66.5127 27.5988 66.5127 26.444C66.5127 25.1959 66.8276 24.2219 67.4692 23.5278C68.1108 22.8279 68.9157 22.4721 69.8838 22.4721C70.7004 22.4721 71.3769 22.7465 71.9018 23.2889C72.4267 23.8255 72.6892 24.5427 72.6892 25.4467H67.6442ZM67.6442 24.9859H71.027C70.9978 24.5193 70.9395 24.1869 70.8579 24.0003C70.7237 23.697 70.5254 23.4637 70.2571 23.2946C70.0005 23.1254 69.7263 23.038 69.4406 23.038C68.9973 23.038 68.6007 23.213 68.2507 23.5572C67.9066 23.9013 67.7025 24.3735 67.6442 24.9859Z" fill="#1F1F1F"/>
</svg>
