<svg width="10" height="10" viewBox="0 0 10 10" fill="none" xmlns="http://www.w3.org/2000/svg">
<path d="M0 0H4.36233V0.371369H4.07874C3.81579 0.371369 3.61297 0.436269 3.47147 0.565978C3.33646 0.695687 3.26924 0.866735 3.26924 1.07899C3.26924 1.31482 3.34 1.59792 3.4815 1.92219L5.6376 7.04565L7.80373 1.72759C7.9588 1.35025 8.03603 1.06138 8.03603 0.866816C8.03603 0.772482 8.0095 0.695756 7.95526 0.636797C7.88097 0.536568 7.78664 0.46576 7.67167 0.430385C7.55729 0.39501 7.3244 0.371369 6.9736 0.371369V0H9.99994V0.371369C9.64914 0.400848 9.40622 0.471806 9.27121 0.583827C9.03479 0.790181 8.82253 1.12608 8.63328 1.59775L5.34399 9.55138H4.92892L1.61899 1.72759C1.47101 1.36204 1.32892 1.10244 1.1939 0.94915C1.05889 0.789963 0.887321 0.654393 0.678018 0.542372C0.56305 0.483413 0.337242 0.424432 0 0.371369V0Z" fill="white"/>
</svg>
