<svg width="170" height="98" viewBox="0 0 170 98" fill="none" xmlns="http://www.w3.org/2000/svg">
<g filter="url(#filter0_d_2_1387)">
<path d="M170 0H0V97.4744H170V0Z" fill="white"/>
<path d="M15.1614 17.6732H18.0804L24.6565 25.7439V19.5356C24.6565 18.8742 24.5822 18.4623 24.4343 18.2998C24.2387 18.0793 23.9295 17.9691 23.5065 17.9691H23.1335V17.6732H26.8775V17.9691H26.4969C26.042 17.9691 25.7194 18.1025 25.5291 18.381C25.4125 18.5492 25.3545 18.9322 25.3545 19.5356V28.6043H25.069L17.9772 19.9418V26.5677C17.9772 27.2292 18.0485 27.6411 18.1919 27.8035C18.3926 28.024 18.7019 28.1343 19.1196 28.1343H19.5002V28.4302H15.7562V28.1343H16.1292C16.5893 28.1343 16.9142 28.0008 17.1046 27.7223C17.2212 27.5541 17.2792 27.1712 17.2792 26.5677V19.083C16.967 18.7233 16.7292 18.4796 16.5655 18.3636C16.4066 18.2475 16.1716 18.1374 15.8594 18.0388C15.7063 17.9923 15.4736 17.9691 15.1614 17.9691V17.6732ZM31.7402 27.3858C30.9946 27.9602 30.5264 28.2909 30.3361 28.3837C30.0507 28.5172 29.7466 28.581 29.424 28.581C28.9216 28.581 28.5067 28.407 28.1783 28.0647C27.8557 27.7224 27.6944 27.2698 27.6944 26.707C27.6944 26.3531 27.7739 26.0455 27.9329 25.7902C28.1493 25.4305 28.5247 25.0882 29.0591 24.7749C29.5987 24.4557 30.4922 24.0728 31.7402 23.6144V23.3302C31.7402 22.6049 31.6242 22.1059 31.3915 21.839C31.1641 21.5663 30.8305 21.4329 30.3918 21.4329C30.0588 21.4329 29.7942 21.5257 29.5987 21.7056C29.3974 21.8854 29.297 22.0885 29.297 22.3206L29.3126 22.7848C29.3126 23.0227 29.2494 23.2141 29.1223 23.3476C29.0011 23.4752 28.8398 23.5449 28.6384 23.5449C28.4429 23.5449 28.2816 23.4752 28.1545 23.336C28.0333 23.2025 27.9724 23.0111 27.9724 22.7732C27.9724 22.3206 28.205 21.9029 28.6704 21.52C29.1357 21.1429 29.789 20.9514 30.6297 20.9514C31.2749 20.9514 31.8035 21.0557 32.216 21.2762C32.5281 21.4387 32.7585 21.694 32.9064 22.0421C33.0016 22.2742 33.0492 22.7383 33.0492 23.4404V25.9062C33.0492 26.6025 33.0625 27.0261 33.0886 27.1828C33.1153 27.3394 33.1576 27.4438 33.2157 27.496C33.2789 27.5482 33.3503 27.5715 33.4298 27.5715C33.5145 27.5715 33.5887 27.554 33.652 27.5192C33.7628 27.4496 33.9775 27.2581 34.2943 26.939V27.3858C33.7025 28.1749 33.1362 28.5752 32.5972 28.5752C32.3378 28.5752 32.1318 28.4824 31.9781 28.3025C31.8249 28.1227 31.7454 27.8151 31.7402 27.3858ZM31.7402 26.8695V24.1019C30.9418 24.4152 30.4261 24.6414 30.1934 24.7749C29.7756 25.0069 29.4768 25.2506 29.297 25.5059C29.1171 25.7554 29.0272 26.0339 29.0272 26.3356C29.0272 26.7185 29.1409 27.0319 29.3683 27.2872C29.5958 27.5367 29.8575 27.6585 30.1539 27.6585C30.5554 27.6585 31.0846 27.3974 31.7402 26.8695ZM36.9522 18.7756V21.166H38.6493V21.7172H36.9522V26.4285C36.9522 26.9043 37.0178 27.2175 37.15 27.3858C37.2875 27.5482 37.4622 27.6296 37.674 27.6296C37.848 27.6296 38.0175 27.5773 38.1817 27.4729C38.3453 27.3569 38.4723 27.2001 38.5623 26.9855H38.8715C38.6864 27.5019 38.4248 27.8964 38.0865 28.1633C37.7477 28.4186 37.399 28.552 37.0392 28.552C36.7961 28.552 36.5577 28.4825 36.325 28.349C36.0923 28.2156 35.9206 28.0183 35.8098 27.7746C35.6984 27.5193 35.6433 27.1306 35.6433 26.6084V21.7172H34.4927V21.4561C34.784 21.3401 35.0799 21.1428 35.381 20.8701C35.6879 20.5916 35.9606 20.2609 36.1985 19.878C36.3198 19.6807 36.4892 19.3094 36.7062 18.7756H36.9522ZM45.733 21.166V25.564C45.733 26.4053 45.7516 26.9216 45.7887 27.1131C45.8311 27.2988 45.8943 27.4264 45.979 27.5018C46.069 27.5772 46.1722 27.6121 46.2883 27.6121C46.4525 27.6121 46.6375 27.5657 46.8435 27.4787L46.9549 27.7572L44.7815 28.6506H44.4241V27.1131C43.8004 27.7919 43.3246 28.2155 42.9962 28.3895C42.6684 28.5636 42.322 28.6506 41.957 28.6506C41.5503 28.6506 41.1958 28.5346 40.8941 28.3025C40.5982 28.0647 40.3922 27.7629 40.2756 27.3916C40.159 27.0203 40.101 26.4981 40.101 25.8193V22.5759C40.101 22.2335 40.0638 21.9957 39.9902 21.8622C39.9159 21.7288 39.8051 21.6301 39.6571 21.5605C39.5144 21.4851 39.2521 21.4503 38.8715 21.4561V21.166H41.418V26.0282C41.418 26.7012 41.5341 27.1479 41.7667 27.3567C42.0046 27.5714 42.2907 27.6759 42.6237 27.6759C42.8511 27.6759 43.1076 27.6063 43.393 27.4613C43.6837 27.322 44.0278 27.0492 44.4241 26.6431V22.5295C44.4241 22.1176 44.3475 21.839 44.1943 21.6939C44.0464 21.5489 43.7342 21.4677 43.2584 21.4561V21.166H45.733ZM49.6123 20.9514V22.5817C50.2203 21.4967 50.8446 20.9514 51.484 20.9514C51.7753 20.9514 52.0155 21.0384 52.2064 21.2183C52.3967 21.3923 52.4918 21.5954 52.4918 21.8275C52.4918 22.0364 52.4228 22.2104 52.2853 22.3554C52.1478 22.4947 51.9841 22.5701 51.7938 22.5701C51.6088 22.5701 51.3999 22.4772 51.1672 22.2974C50.9398 22.1117 50.7704 22.0189 50.659 22.0189C50.5638 22.0189 50.4611 22.0711 50.3497 22.1814C50.1118 22.396 49.8658 22.7558 49.6123 23.249V26.7302C49.6123 27.1364 49.6622 27.438 49.7631 27.6468C49.8316 27.7861 49.9534 27.908 50.1275 28.0008C50.3021 28.0995 50.5534 28.1459 50.8812 28.1459V28.4302H47.1609V28.1459C47.5311 28.1459 47.8061 28.0878 47.9859 27.9718C48.1182 27.8848 48.2105 27.7513 48.2639 27.5657C48.29 27.4728 48.3033 27.2175 48.3033 26.794V23.9801C48.3033 23.133 48.2848 22.6339 48.2476 22.4715C48.2163 22.309 48.1525 22.1872 48.0573 22.1176C47.9674 22.0422 47.8537 22.0073 47.7161 22.0073C47.5525 22.0073 47.3674 22.0421 47.1609 22.1233L47.0814 21.839L49.2792 20.9514H49.6123ZM57.0133 27.3858C56.2678 27.9602 55.7996 28.2909 55.6093 28.3837C55.3238 28.5172 55.0192 28.581 54.6966 28.581C54.1947 28.581 53.7793 28.407 53.4515 28.0647C53.1289 27.7224 52.9676 27.2698 52.9676 26.707C52.9676 26.3531 53.0471 26.0455 53.2055 25.7902C53.4225 25.4305 53.7979 25.0882 54.3322 24.7749C54.8712 24.4557 55.7653 24.0728 57.0133 23.6144V23.3302C57.0133 22.6049 56.8967 22.1059 56.6641 21.839C56.4366 21.5663 56.1036 21.4329 55.6644 21.4329C55.3313 21.4329 55.0673 21.5257 54.8712 21.7056C54.6705 21.8854 54.5701 22.0885 54.5701 22.3206L54.5858 22.7848C54.5858 23.0227 54.5225 23.2141 54.3955 23.3476C54.2736 23.4752 54.1123 23.5449 53.9116 23.5449C53.716 23.5449 53.5548 23.4752 53.4277 23.336C53.3059 23.2025 53.2455 23.0111 53.2455 22.7732C53.2455 22.3206 53.4782 21.9029 53.9435 21.52C54.4088 21.1429 55.0615 20.9514 55.9028 20.9514C56.548 20.9514 57.0766 21.0557 57.4891 21.2762C57.8013 21.4387 58.031 21.694 58.179 22.0421C58.2747 22.2742 58.3223 22.7383 58.3223 23.4404V25.9062C58.3223 26.6025 58.3351 27.0261 58.3618 27.1828C58.3879 27.3394 58.4302 27.4438 58.4888 27.496C58.5521 27.5482 58.6234 27.5715 58.7029 27.5715C58.7876 27.5715 58.8613 27.554 58.9251 27.5192C59.036 27.4496 59.2501 27.2581 59.5674 26.939V27.3858C58.975 28.1749 58.4093 28.5752 57.8697 28.5752C57.611 28.5752 57.4044 28.4824 57.2512 28.3025C57.0981 28.1227 57.0186 27.8151 57.0133 27.3858ZM57.0133 26.8695V24.1019C56.2144 24.4152 55.6992 24.6414 55.4665 24.7749C55.0488 25.0069 54.75 25.2506 54.5701 25.5059C54.3903 25.7554 54.3003 26.0339 54.3003 26.3356C54.3003 26.7185 54.414 27.0319 54.6415 27.2872C54.8689 27.5367 55.1306 27.6585 55.4265 27.6585C55.8286 27.6585 56.3571 27.3974 57.0133 26.8695ZM62.6135 17.151V26.7882C62.6135 27.2407 62.6454 27.5425 62.7087 27.6933C62.7777 27.8384 62.8804 27.9544 63.0179 28.0357C63.1554 28.1053 63.4119 28.1459 63.7873 28.1459V28.4302H60.226V28.1459C60.559 28.1459 60.7864 28.1111 60.9083 28.0415C61.0295 27.9719 61.1247 27.8616 61.1937 27.6991C61.2622 27.5425 61.2964 27.2349 61.2964 26.7882V20.1855C61.2964 19.3674 61.2785 18.8684 61.2413 18.6827C61.2042 18.4912 61.1433 18.3636 61.0586 18.294C60.9796 18.2244 60.8764 18.1896 60.7493 18.1896C60.6118 18.1896 60.4372 18.2302 60.226 18.3172L60.0908 18.0388L62.2567 17.151H62.6135ZM75.6385 17.4295V21.1486H75.3449C75.2498 20.4349 75.078 19.8664 74.8297 19.4428C74.586 19.0193 74.2373 18.6827 73.7824 18.4333C73.3276 18.1896 72.857 18.0618 72.3702 18.0618C71.8208 18.0618 71.3659 18.2302 71.0061 18.5725C70.6464 18.9032 70.4666 19.2861 70.4666 19.7097C70.4666 20.0404 70.5803 20.3363 70.8077 20.609C71.1355 21.0036 71.9159 21.5315 73.1477 22.193C74.1526 22.7326 74.8372 23.1503 75.2022 23.4404C75.5724 23.7247 75.8555 24.067 76.051 24.4557C76.2524 24.8445 76.3527 25.2565 76.3527 25.6858C76.3527 26.4981 76.0354 27.2059 75.4006 27.7977C74.7711 28.3837 73.9594 28.6738 72.9655 28.6738C72.6534 28.6738 72.3598 28.6507 72.0847 28.6043C71.9211 28.5811 71.58 28.4824 71.0618 28.32C70.5484 28.1517 70.2234 28.0647 70.0859 28.0647C69.9537 28.0647 69.8481 28.1053 69.7686 28.1865C69.6943 28.262 69.6392 28.4301 69.6021 28.6738H69.3085V24.9896H69.6021C69.7396 25.7613 69.9247 26.3415 70.1573 26.7244C70.39 27.1073 70.7445 27.4206 71.2202 27.6759C71.7012 27.9312 72.2275 28.0589 72.799 28.0589C73.4598 28.0589 73.9809 27.8848 74.3615 27.5366C74.7473 27.1827 74.9405 26.7708 74.9405 26.2951C74.9405 26.034 74.8668 25.767 74.7183 25.4943C74.5756 25.2274 74.351 24.9721 74.0441 24.74C73.8381 24.5834 73.2748 24.2468 72.3546 23.7363C71.4344 23.2141 70.7787 22.8022 70.3871 22.4947C70.0013 22.1872 69.7077 21.8507 69.5069 21.4793C69.3062 21.1138 69.2052 20.7018 69.2052 20.2608C69.2052 19.4892 69.5017 18.822 70.0941 18.2708C70.6859 17.708 71.4396 17.4295 72.3546 17.4295C72.9255 17.4295 73.5312 17.5687 74.1712 17.8472C74.4671 17.9807 74.676 18.0446 74.7978 18.0446C74.9353 18.0446 75.0461 18.0096 75.1308 17.9284C75.2208 17.8414 75.2921 17.679 75.3449 17.4295H75.6385ZM83.9122 25.6684C83.7167 26.6257 83.3332 27.3626 82.7623 27.8848C82.1908 28.3954 81.5589 28.6506 80.8662 28.6506C80.0411 28.6506 79.3222 28.3084 78.7084 27.6121C78.0951 26.9217 77.7882 25.9817 77.7882 24.8039C77.7882 23.6609 78.127 22.7325 78.8035 22.0189C79.4859 21.3052 80.3028 20.9514 81.2549 20.9514C81.9685 20.9514 82.5557 21.1429 83.0158 21.52C83.4759 21.8971 83.7063 22.2859 83.7063 22.6978C83.7063 22.8951 83.6401 23.0575 83.5078 23.1851C83.3807 23.3069 83.2009 23.3708 82.9682 23.3708C82.6561 23.3708 82.4211 23.2664 82.2621 23.0691C82.1722 22.9589 82.1113 22.7441 82.0799 22.4308C82.0532 22.1233 81.9476 21.8854 81.7626 21.7172C81.5775 21.5605 81.321 21.4793 80.9932 21.4793C80.4641 21.4793 80.0388 21.6766 79.7162 22.0712C79.2874 22.5875 79.0733 23.2722 79.0733 24.1251C79.0733 24.9896 79.2851 25.7555 79.7081 26.4227C80.1363 27.0841 80.713 27.4148 81.4371 27.4148C81.9558 27.4148 82.4211 27.235 82.8336 26.8811C83.1243 26.6374 83.4075 26.1964 83.6825 25.5582L83.9122 25.6684ZM86.8074 17.151C87.0297 17.151 87.2177 17.2322 87.3708 17.3889C87.5292 17.5397 87.6087 17.7312 87.6087 17.9516C87.6087 18.1721 87.5292 18.3636 87.3708 18.5202C87.2177 18.6827 87.0297 18.7582 86.8074 18.7582C86.5852 18.7582 86.3949 18.6827 86.2365 18.5202C86.0775 18.3636 85.9987 18.1721 85.9987 17.9516C85.9987 17.7312 86.0752 17.5397 86.2284 17.3889C86.3874 17.2322 86.58 17.151 86.8074 17.151ZM87.466 20.9514V26.7882C87.466 27.2407 87.4979 27.5483 87.5611 27.6991C87.6302 27.85 87.7276 27.9603 87.8547 28.0357C87.987 28.1053 88.2249 28.1459 88.5684 28.1459V28.4302H85.0384V28.1459C85.3929 28.1459 85.6308 28.1111 85.7526 28.0415C85.8745 27.9719 85.9696 27.8616 86.0381 27.6991C86.1124 27.5425 86.1489 27.2349 86.1489 26.7882V23.9859C86.1489 23.2026 86.1251 22.6919 86.0776 22.4598C86.041 22.2858 85.9824 22.1698 85.9035 22.106C85.824 22.0422 85.7155 22.0073 85.578 22.0073C85.43 22.0073 85.2502 22.0421 85.0384 22.1233L84.9276 21.839L87.1167 20.9514H87.466ZM90.7024 23.8987C90.6971 24.9779 90.9588 25.8251 91.488 26.4401C92.0165 27.0551 92.6379 27.3567 93.3522 27.3567C93.8279 27.3567 94.2404 27.2291 94.5891 26.968C94.9437 26.707 95.2396 26.2544 95.478 25.6219L95.7235 25.7786C95.6126 26.5039 95.2901 27.1654 94.7557 27.763C94.2219 28.3548 93.5529 28.6506 92.7487 28.6506C91.8767 28.6506 91.1282 28.3141 90.5039 27.6352C89.8855 26.9564 89.5762 26.0397 89.5762 24.8909C89.5762 23.6492 89.8935 22.6803 90.5277 21.9898C91.1677 21.2936 91.9689 20.9398 92.9315 20.9398C93.7461 20.9398 94.4151 21.2124 94.9385 21.752C95.4618 22.2858 95.7235 22.9994 95.7235 23.8987H90.7024ZM90.7024 23.4404H94.0658C94.0391 22.9762 93.984 22.6455 93.8993 22.4598C93.767 22.1581 93.5686 21.9261 93.304 21.7578C93.0452 21.5896 92.7725 21.5026 92.4871 21.5026C92.0484 21.5026 91.6545 21.6766 91.3052 22.0189C90.9617 22.3612 90.7604 22.8311 90.7024 23.4404ZM98.8171 22.4889C99.6689 21.4619 100.481 20.9514 101.253 20.9514C101.649 20.9514 101.99 21.0499 102.276 21.253C102.562 21.4444 102.789 21.7695 102.958 22.2278C103.075 22.5469 103.133 23.0285 103.133 23.6841V26.7882C103.133 27.2465 103.17 27.5599 103.243 27.7223C103.302 27.8558 103.394 27.9603 103.521 28.0357C103.654 28.1053 103.894 28.1459 104.243 28.1459V28.4302H100.65V28.1459H100.8C101.139 28.1459 101.374 28.0937 101.506 27.995C101.644 27.8906 101.739 27.7339 101.792 27.5366C101.813 27.4554 101.824 27.2059 101.824 26.7882V23.8118C101.824 23.1503 101.737 22.6746 101.562 22.3787C101.393 22.077 101.105 21.9261 100.698 21.9261C100.068 21.9261 99.4414 22.2684 98.8171 22.9589V26.7882C98.8171 27.2813 98.8467 27.5831 98.9047 27.6991C98.9784 27.8558 99.0794 27.9661 99.2059 28.0415C99.3381 28.1111 99.6027 28.1459 99.9996 28.1459V28.4302H96.4058V28.1459H96.5648C96.9349 28.1459 97.1832 28.0531 97.3103 27.8674C97.4426 27.6759 97.5088 27.3161 97.5088 26.7882V24.0903C97.5088 23.2199 97.4873 22.6862 97.4449 22.4947C97.4078 22.309 97.3475 22.1756 97.2627 22.106C97.1833 22.0422 97.0747 22.0073 96.9372 22.0073C96.7893 22.0073 96.6123 22.0421 96.4058 22.1233L96.2868 21.839L98.4765 20.9514H98.8171V22.4889ZM110.994 25.6684C110.798 26.6257 110.415 27.3626 109.843 27.8848C109.272 28.3954 108.641 28.6506 107.948 28.6506C107.123 28.6506 106.403 28.3084 105.79 27.6121C105.177 26.9217 104.87 25.9817 104.87 24.8039C104.87 23.6609 105.208 22.7325 105.885 22.0189C106.567 21.3052 107.384 20.9514 108.337 20.9514C109.05 20.9514 109.637 21.1429 110.097 21.52C110.558 21.8971 110.787 22.2859 110.787 22.6978C110.787 22.8951 110.721 23.0575 110.589 23.1851C110.462 23.3069 110.283 23.3708 110.05 23.3708C109.738 23.3708 109.502 23.2664 109.344 23.0691C109.254 22.9589 109.193 22.7441 109.162 22.4308C109.135 22.1233 109.029 21.8854 108.844 21.7172C108.659 21.5605 108.403 21.4793 108.075 21.4793C107.546 21.4793 107.12 21.6766 106.797 22.0712C106.369 22.5875 106.155 23.2722 106.155 24.1251C106.155 24.9896 106.367 25.7555 106.79 26.4227C107.218 27.0841 107.794 27.4148 108.519 27.4148C109.037 27.4148 109.502 27.235 109.915 26.8811C110.206 26.6374 110.489 26.1964 110.764 25.5582L110.994 25.6684ZM113.262 23.8987C113.257 24.9779 113.519 25.8251 114.048 26.4401C114.577 27.0551 115.198 27.3567 115.912 27.3567C116.388 27.3567 116.801 27.2291 117.149 26.968C117.504 26.707 117.8 26.2544 118.038 25.6219L118.284 25.7786C118.173 26.5039 117.85 27.1654 117.316 27.763C116.782 28.3548 116.113 28.6506 115.309 28.6506C114.436 28.6506 113.688 28.3141 113.064 27.6352C112.446 26.9564 112.136 26.0397 112.136 24.8909C112.136 23.6492 112.453 22.6803 113.088 21.9898C113.728 21.2936 114.529 20.9398 115.492 20.9398C116.306 20.9398 116.975 21.2124 117.499 21.752C118.022 22.2858 118.284 22.9994 118.284 23.8987H113.262ZM113.262 23.4404H116.626C116.599 22.9762 116.544 22.6455 116.459 22.4598C116.327 22.1581 116.129 21.9261 115.864 21.7578C115.605 21.5896 115.333 21.5026 115.047 21.5026C114.609 21.5026 114.215 21.6766 113.865 22.0189C113.522 22.3612 113.32 22.8311 113.262 23.4404ZM123.956 20.9514V23.4231H123.693C123.493 22.6456 123.233 22.1175 122.916 21.839C122.604 21.5605 122.205 21.4154 121.718 21.4154C121.348 21.4154 121.049 21.5141 120.822 21.7114C120.595 21.9086 120.481 22.1234 120.481 22.3613C120.481 22.6572 120.566 22.9125 120.735 23.1214C120.899 23.3418 121.232 23.5681 121.734 23.8118L122.893 24.3746C123.966 24.9025 124.503 25.593 124.503 26.4459C124.503 27.1074 124.252 27.6411 123.749 28.0473C123.252 28.4534 122.694 28.6506 122.075 28.6506C121.631 28.6506 121.124 28.5752 120.552 28.4128C120.378 28.3605 120.235 28.3374 120.124 28.3374C120.002 28.3374 119.907 28.4011 119.839 28.5404H119.577V25.9469H119.839C119.986 26.6895 120.27 27.2466 120.687 27.6238C121.105 27.9951 121.573 28.1865 122.091 28.1865C122.456 28.1865 122.752 28.0763 122.98 27.8674C123.212 27.6527 123.329 27.3916 123.329 27.0899C123.329 26.7243 123.199 26.4169 122.94 26.1674C122.686 25.9237 122.176 25.6046 121.409 25.2274C120.642 24.8445 120.14 24.5022 119.902 24.1947C119.664 23.8929 119.545 23.51 119.545 23.0517C119.545 22.4541 119.749 21.955 120.156 21.5547C120.568 21.1486 121.1 20.9514 121.75 20.9514C122.036 20.9514 122.382 21.0093 122.789 21.1312C123.059 21.2124 123.239 21.253 123.329 21.253C123.413 21.253 123.479 21.2357 123.527 21.195C123.574 21.1602 123.63 21.079 123.693 20.9514H123.956Z" fill="#1F1F1F"/>
<path d="M19.9986 51.4642V52.2185H16.225V45.5694H17.1208V51.4642H19.9986ZM21.6714 47.5188V52.2185H20.8451V47.5188H21.6714ZM21.8477 46.0394C21.8477 46.1206 21.8303 46.196 21.7967 46.2656C21.7653 46.3352 21.7224 46.3991 21.6667 46.4513C21.6139 46.5035 21.5507 46.5499 21.4764 46.579C21.405 46.608 21.329 46.6254 21.2489 46.6254C21.1683 46.6254 21.0923 46.608 21.0215 46.579C20.953 46.5499 20.8927 46.5035 20.8405 46.4513C20.7877 46.3991 20.7459 46.3352 20.7152 46.2656C20.6838 46.196 20.6687 46.1206 20.6687 46.0394C20.6687 45.9582 20.6838 45.8827 20.7152 45.813C20.7459 45.7376 20.7877 45.6737 20.8405 45.6215C20.8927 45.5693 20.953 45.5229 21.0215 45.4939C21.0923 45.4591 21.1683 45.4476 21.2489 45.4476C21.329 45.4476 21.405 45.4591 21.4764 45.4939C21.5507 45.5229 21.6139 45.5693 21.6667 45.6215C21.7224 45.6737 21.7653 45.7376 21.7967 45.813C21.8303 45.8827 21.8477 45.9582 21.8477 46.0394ZM29.702 51.4875L29.6973 52.2185H25.5988V45.5694H29.6973V46.3005H26.4992V48.5111H29.0893V49.2131H26.4992V51.4875H29.702ZM34.4289 47.5188V52.2185H33.9369C33.8191 52.2185 33.7448 52.1605 33.7141 52.0444L33.6491 51.5397C33.4449 51.766 33.2157 51.9516 32.9621 52.0909C32.7086 52.2243 32.4173 52.2939 32.0895 52.2939C31.8325 52.2939 31.605 52.2533 31.4072 52.1663C31.2122 52.0792 31.048 51.9575 30.9152 51.8066C30.7823 51.6499 30.6813 51.4643 30.6135 51.2438C30.5485 51.0233 30.516 50.7797 30.516 50.5128V47.5188H31.3422V50.5128C31.3422 50.8725 31.4228 51.1451 31.5836 51.3424C31.7478 51.5339 31.9967 51.6325 32.3309 51.6325C32.5751 51.6325 32.8026 51.5745 33.0132 51.4642C33.2267 51.3424 33.4234 51.1858 33.6027 50.977V47.5188H34.4289ZM36.5234 48.4588C36.672 48.1397 36.8541 47.8844 37.0711 47.7045C37.2876 47.5247 37.5521 47.4318 37.8649 47.4318C37.9635 47.4318 38.0581 47.4435 38.148 47.4667C38.2408 47.4899 38.3226 47.5189 38.394 47.5653L38.3337 48.1861C38.3151 48.2616 38.2687 48.3021 38.1944 48.3021C38.1509 48.3021 38.0877 48.2905 38.0041 48.2731C37.9206 48.2557 37.826 48.2441 37.721 48.2441C37.5724 48.2441 37.439 48.2673 37.3218 48.308C37.2069 48.3544 37.1036 48.4182 37.0108 48.5053C36.9209 48.5865 36.8391 48.6966 36.7648 48.8185C36.6934 48.9461 36.6284 49.0854 36.5698 49.2478V52.2185H35.739V47.5188H36.2124C36.3018 47.5188 36.3639 47.5363 36.3981 47.5653C36.4318 47.6001 36.455 47.6581 36.4677 47.7452L36.5234 48.4588ZM40.9121 47.4435C41.2556 47.4435 41.5648 47.5015 41.8404 47.6117C42.1154 47.7278 42.351 47.8901 42.546 48.099C42.7409 48.3137 42.8894 48.569 42.9915 48.8649C43.0966 49.1666 43.1494 49.4973 43.1494 49.8629C43.1494 50.2342 43.0966 50.5707 42.9915 50.8666C42.8894 51.1625 42.7409 51.4178 42.546 51.6267C42.351 51.8414 42.1154 52.0039 41.8404 52.1141C41.5648 52.2302 41.2556 52.2824 40.9121 52.2824C40.5651 52.2824 40.253 52.2302 39.9745 52.1141C39.6989 52.0039 39.4639 51.8414 39.269 51.6267C39.074 51.4178 38.9237 51.1625 38.8187 50.8666C38.7166 50.5707 38.6655 50.2342 38.6655 49.8629C38.6655 49.4973 38.7166 49.1666 38.8187 48.8649C38.9237 48.569 39.074 48.3137 39.269 48.099C39.4639 47.8901 39.6989 47.7278 39.9745 47.6117C40.253 47.5015 40.5651 47.4435 40.9121 47.4435ZM40.9121 51.6383C41.3763 51.6383 41.7226 51.4816 41.9518 51.1741C42.1804 50.8608 42.2953 50.4257 42.2953 49.8687C42.2953 49.3117 42.1804 48.8707 41.9518 48.5632C41.7226 48.2499 41.3763 48.0932 40.9121 48.0932C40.6765 48.0932 40.4711 48.1339 40.2948 48.2152C40.1213 48.2906 39.9756 48.4066 39.8584 48.5632C39.7436 48.7141 39.6571 48.8997 39.5985 49.1202C39.5428 49.3407 39.515 49.5902 39.515 49.8687C39.515 50.4257 39.6293 50.8608 39.8584 51.1741C40.0905 51.4816 40.4416 51.6383 40.9121 51.6383ZM45.0281 51.0872C45.1795 51.2902 45.3455 51.4353 45.5247 51.5165C45.704 51.6035 45.9053 51.6441 46.1281 51.6441C46.5674 51.6441 46.905 51.4874 47.14 51.1741C47.375 50.8608 47.4928 50.414 47.4928 49.8396C47.4928 49.5321 47.4649 49.2653 47.4092 49.0506C47.3564 48.8302 47.2793 48.6503 47.1772 48.5111C47.075 48.366 46.9497 48.2616 46.8012 48.1977C46.6526 48.1339 46.4838 48.099 46.2952 48.099C46.026 48.099 45.7893 48.1629 45.5851 48.2847C45.3837 48.4124 45.1981 48.5864 45.0281 48.8127V51.0872ZM44.9863 48.2441C45.1842 48.0004 45.4133 47.8031 45.6733 47.6581C45.9332 47.5072 46.2303 47.4318 46.5645 47.4318C46.8366 47.4318 47.0826 47.4841 47.3025 47.5885C47.5224 47.6929 47.7092 47.8438 47.8641 48.0527C48.019 48.25 48.138 48.4995 48.2215 48.8012C48.3051 49.1029 48.3468 49.4451 48.3468 49.8396C48.3468 50.182 48.3004 50.507 48.2076 50.8087C48.1148 51.1046 47.9801 51.3656 47.8038 51.5802C47.6303 51.8007 47.4168 51.9691 47.1632 52.0967C46.9126 52.2244 46.6294 52.2824 46.3138 52.2824C46.026 52.2824 45.7783 52.236 45.5711 52.1374C45.3669 52.0387 45.1859 51.9052 45.0281 51.7311V53.8083H44.1972V47.5188H44.6939C44.8117 47.5188 44.8842 47.5711 44.912 47.6871L44.9863 48.2441ZM51.9493 50.1008C51.5687 50.1124 51.2438 50.1472 50.9746 50.1936C50.7083 50.24 50.4901 50.3039 50.3201 50.3793C50.153 50.4606 50.0306 50.5476 49.9534 50.652C49.8792 50.7622 49.842 50.8782 49.842 51.0058C49.842 51.1335 49.8618 51.238 49.9024 51.325C49.9424 51.4178 49.9964 51.4933 50.0648 51.5513C50.1356 51.6036 50.218 51.65 50.3108 51.6732C50.4066 51.7022 50.5087 51.7137 50.6172 51.7137C50.7622 51.7137 50.8957 51.6964 51.0164 51.6732C51.1371 51.6384 51.2496 51.5978 51.3552 51.5397C51.4631 51.4875 51.5652 51.4178 51.6616 51.3424C51.7602 51.2612 51.8565 51.1742 51.9493 51.0755V50.1008ZM49.2804 48.1803C49.5403 47.9308 49.82 47.7452 50.1205 47.6175C50.4205 47.4957 50.753 47.4318 51.1185 47.4318C51.3813 47.4318 51.6151 47.4782 51.8194 47.5653C52.0236 47.6523 52.1953 47.7684 52.3346 47.9251C52.4738 48.0817 52.5789 48.2674 52.6502 48.4878C52.721 48.7083 52.757 48.9462 52.757 49.2131V52.2185H52.3903C52.3096 52.2185 52.2476 52.2069 52.2046 52.1837C52.1611 52.1547 52.1269 52.1024 52.1025 52.0212L52.0097 51.5802C51.8855 51.6905 51.7648 51.7949 51.6476 51.882C51.5298 51.969 51.4063 52.0445 51.2763 52.1083C51.1463 52.1663 51.0071 52.2127 50.8586 52.2418C50.7129 52.2766 50.5505 52.2939 50.3712 52.2939C50.1884 52.2939 50.0167 52.2707 49.856 52.2185C49.6947 52.1663 49.5543 52.0909 49.4336 51.9865C49.3158 51.8821 49.2212 51.7543 49.1504 51.6035C49.082 51.441 49.0483 51.2554 49.0483 51.0465C49.0483 50.8608 49.0994 50.681 49.2015 50.5128C49.3036 50.3387 49.469 50.182 49.6981 50.0486C49.9267 49.9151 50.2256 49.8106 50.594 49.7236C50.9618 49.6366 51.4138 49.5902 51.9493 49.5786V49.2131C51.9493 48.8476 51.8704 48.569 51.7126 48.3833C51.5548 48.1976 51.3239 48.099 51.021 48.099C50.8168 48.099 50.645 48.1281 50.5058 48.1803C50.3694 48.2325 50.2505 48.2848 50.1484 48.3544C50.0492 48.4124 49.9627 48.4703 49.8885 48.5226C49.8171 48.5748 49.7457 48.5981 49.6749 48.5981C49.6192 48.5981 49.5711 48.5864 49.531 48.5574C49.4904 48.5226 49.4568 48.4878 49.4289 48.4472L49.2804 48.1803ZM54.7952 48.1977C54.8974 48.0817 55.0053 47.9831 55.1202 47.8902C55.2345 47.7974 55.3551 47.7161 55.4822 47.6522C55.6122 47.5826 55.7479 47.5305 55.8907 47.4957C56.0357 47.4609 56.1924 47.4435 56.3595 47.4435C56.6159 47.4435 56.8422 47.484 57.0371 47.5711C57.235 47.6581 57.3992 47.7742 57.5292 47.9367C57.662 48.0875 57.7624 48.279 57.8309 48.4937C57.8987 48.7141 57.933 48.9578 57.933 49.2247V52.2185H57.1021V49.2247C57.1021 48.8708 57.0197 48.5922 56.8561 48.4007C56.6948 48.1977 56.4488 48.099 56.1181 48.099C55.8733 48.099 55.6447 48.1629 55.4311 48.2789C55.2205 48.395 55.0256 48.5575 54.8463 48.7547V52.2185H54.0154V47.5188H54.5121C54.6293 47.5188 54.7024 47.5711 54.7303 47.6871L54.7952 48.1977ZM62.4209 45.3837V52.2185H61.5946V45.3837H62.4209ZM64.6338 47.5188V52.2185H63.8076V47.5188H64.6338ZM64.8102 46.0394C64.8102 46.1206 64.7928 46.196 64.7591 46.2656C64.7278 46.3352 64.6848 46.3991 64.6291 46.4513C64.5763 46.5035 64.5131 46.5499 64.4388 46.579C64.3675 46.608 64.2914 46.6254 64.2114 46.6254C64.1307 46.6254 64.0547 46.608 63.984 46.579C63.9155 46.5499 63.8551 46.5035 63.8029 46.4513C63.7501 46.3991 63.7083 46.3352 63.6776 46.2656C63.6463 46.196 63.6312 46.1206 63.6312 46.0394C63.6312 45.9582 63.6463 45.8827 63.6776 45.813C63.7083 45.7376 63.7501 45.6737 63.8029 45.6215C63.8551 45.5693 63.9155 45.5229 63.984 45.4939C64.0547 45.4591 64.1307 45.4476 64.2114 45.4476C64.2914 45.4476 64.3675 45.4591 64.4388 45.4939C64.5131 45.5229 64.5763 45.5693 64.6291 45.6215C64.6848 45.6737 64.7278 45.7376 64.7591 45.813C64.7928 45.8827 64.8102 45.9582 64.8102 46.0394ZM66.7707 48.1977C66.8728 48.0817 66.9813 47.9831 67.0956 47.8902C67.2105 47.7974 67.3312 47.7161 67.4576 47.6522C67.5876 47.5826 67.7239 47.5305 67.8661 47.4957C68.0117 47.4609 68.1678 47.4435 68.3349 47.4435C68.5919 47.4435 68.8176 47.484 69.0126 47.5711C69.211 47.6581 69.3746 47.7742 69.5046 47.9367C69.6381 48.0875 69.7384 48.279 69.8063 48.4937C69.8748 48.7141 69.9084 48.9578 69.9084 49.2247V52.2185H69.0776V49.2247C69.0776 48.8708 68.9957 48.5922 68.8316 48.4007C68.6708 48.1977 68.4248 48.099 68.0935 48.099C67.8493 48.099 67.6201 48.1629 67.4066 48.2789C67.1965 48.395 67.0016 48.5575 66.8217 48.7547V52.2185H65.9909V47.5188H66.4875C66.6053 47.5188 66.6778 47.5711 66.7057 47.6871L66.7707 48.1977ZM72.8059 49.9209C72.973 49.9209 73.1204 49.8977 73.2469 49.8512C73.374 49.8048 73.4807 49.7411 73.5672 49.6541C73.6542 49.5728 73.7192 49.4742 73.7621 49.3582C73.8056 49.2421 73.8271 49.1144 73.8271 48.9751C73.8271 48.685 73.7389 48.4588 73.5625 48.2847C73.3896 48.1165 73.1372 48.0295 72.8059 48.0295C72.4717 48.0295 72.2165 48.1165 72.0401 48.2847C71.8672 48.4588 71.7802 48.685 71.7802 48.9751C71.7802 49.1144 71.8022 49.2421 71.8452 49.3582C71.8916 49.4742 71.9583 49.5728 72.0447 49.6541C72.1318 49.7411 72.2385 49.8048 72.365 49.8512C72.4921 49.8977 72.6388 49.9209 72.8059 49.9209ZM74.2959 52.4738C74.2959 52.3577 74.2634 52.2649 74.1984 52.1953C74.1335 52.1257 74.0453 52.0676 73.9339 52.027C73.826 51.9864 73.6989 51.9575 73.5533 51.9458C73.4082 51.9284 73.2533 51.911 73.0891 51.9052C72.9284 51.8936 72.7642 51.882 72.5971 51.8762C72.43 51.8646 72.2693 51.853 72.1144 51.8298C71.9415 51.9111 71.7987 52.0097 71.6873 52.1374C71.5794 52.2534 71.5249 52.3984 71.5249 52.5609C71.5249 52.6653 71.5516 52.764 71.6038 52.8568C71.6595 52.9496 71.743 53.025 71.8544 53.0888C71.9658 53.1585 72.1051 53.2107 72.2722 53.2513C72.4427 53.2919 72.6423 53.3092 72.8709 53.3092C73.0937 53.3092 73.2933 53.2919 73.4697 53.2513C73.6461 53.2107 73.7946 53.1526 73.9153 53.0772C74.0395 53.0018 74.1335 52.9148 74.1984 52.8103C74.2634 52.7117 74.2959 52.5956 74.2959 52.4738ZM75.1361 47.7045V48.0062C75.1361 48.1107 75.0711 48.1745 74.9411 48.2036L74.4073 48.2731C74.5129 48.4762 74.5651 48.7026 74.5651 48.952C74.5651 49.1783 74.5205 49.3871 74.4305 49.5786C74.3441 49.7642 74.2234 49.9209 74.0685 50.0544C73.9141 50.1878 73.7285 50.2923 73.5115 50.3619C73.2951 50.4315 73.0601 50.4663 72.8059 50.4663C72.5866 50.4663 72.3789 50.4432 72.184 50.3909C72.0854 50.449 72.0093 50.5185 71.9565 50.5881C71.9043 50.6577 71.8776 50.7274 71.8776 50.7971C71.8776 50.9073 71.9229 50.9943 72.0122 51.0523C72.1051 51.1103 72.2258 51.1509 72.3743 51.1741C72.5228 51.1973 72.6917 51.2148 72.8802 51.2206C73.0723 51.2264 73.2672 51.238 73.4651 51.2554C73.6664 51.267 73.8614 51.2902 74.0499 51.325C74.242 51.354 74.412 51.412 74.5605 51.4875C74.709 51.5687 74.8285 51.6732 74.9179 51.8124C75.0107 51.9459 75.0571 52.1199 75.0571 52.3403C75.0571 52.5376 75.0061 52.7349 74.904 52.9264C74.8053 53.112 74.6614 53.2803 74.4723 53.4254C74.2837 53.5763 74.0517 53.6922 73.7761 53.7792C73.504 53.8663 73.1958 53.9127 72.8524 53.9127C72.5089 53.9127 72.2089 53.8779 71.9519 53.8083C71.6954 53.7445 71.4819 53.6516 71.3113 53.5356C71.1413 53.4196 71.0131 53.292 70.9261 53.1353C70.8425 52.9902 70.8008 52.8336 70.8008 52.6711C70.8008 52.439 70.8739 52.2417 71.0189 52.0793C71.1646 51.9168 71.3641 51.7892 71.6177 51.6964C71.4784 51.6326 71.3671 51.5512 71.2835 51.4468C71.2034 51.3424 71.1628 51.2031 71.1628 51.0233C71.1628 50.9594 71.1756 50.8899 71.2 50.8145C71.2249 50.7449 71.262 50.6694 71.3113 50.5997C71.3641 50.5243 71.4274 50.4548 71.5017 50.3909C71.5759 50.3271 71.6629 50.2691 71.7616 50.2168C71.5295 50.0892 71.3485 49.9151 71.2185 49.7004C71.0886 49.4857 71.0236 49.2363 71.0236 48.952C71.0236 48.72 71.0671 48.5168 71.1535 48.3312C71.2435 48.1397 71.3671 47.983 71.5249 47.8496C71.6827 47.7161 71.8701 47.6175 72.0865 47.542C72.3064 47.4724 72.546 47.4376 72.8059 47.4376C73.0102 47.4376 73.2005 47.4608 73.3769 47.5072C73.5533 47.5478 73.7146 47.6175 73.8596 47.7045H75.1361ZM79.8572 47.5188V52.2185H79.3652C79.2474 52.2185 79.1731 52.1605 79.1424 52.0444L79.0774 51.5397C78.8732 51.766 78.644 51.9516 78.3904 52.0909C78.1363 52.2243 77.8456 52.2939 77.5178 52.2939C77.2608 52.2939 77.0333 52.2533 76.8355 52.1663C76.6405 52.0792 76.4763 51.9575 76.3435 51.8066C76.21 51.6499 76.1096 51.4643 76.0418 51.2438C75.9768 51.0233 75.9443 50.7797 75.9443 50.5128V47.5188H76.7705V50.5128C76.7705 50.8725 76.8506 51.1451 77.0119 51.3424C77.1755 51.5339 77.425 51.6325 77.7592 51.6325C78.0034 51.6325 78.2309 51.5745 78.4415 51.4642C78.655 51.3424 78.8511 51.1858 79.031 50.977V47.5188H79.8572ZM84.3143 49.3523C84.3143 49.1609 84.2865 48.9867 84.2308 48.8301C84.178 48.6676 84.0991 48.5342 83.994 48.4182C83.8919 48.3021 83.7666 48.2093 83.6181 48.1455C83.4695 48.0817 83.3007 48.0527 83.1121 48.0527C82.7158 48.0527 82.402 48.1687 82.1699 48.4007C81.9407 48.627 81.7985 48.9462 81.7428 49.3523H84.3143ZM84.9827 51.5572C84.8806 51.6848 84.7582 51.7891 84.616 51.882C84.4733 51.9748 84.3201 52.0503 84.1565 52.1083C83.9952 52.1663 83.8281 52.2069 83.6552 52.236C83.4817 52.2708 83.31 52.2824 83.14 52.2824C82.8151 52.2824 82.5145 52.2302 82.2395 52.1199C81.9668 52.0097 81.7301 51.8472 81.5293 51.6383C81.3309 51.4236 81.1766 51.1625 81.0652 50.8492C80.9538 50.5359 80.8981 50.1762 80.8981 49.7701C80.8981 49.4452 80.9474 49.1376 81.0466 48.8533C81.1487 48.569 81.2938 48.3253 81.4829 48.1164C81.6715 47.9076 81.9018 47.7394 82.1745 47.6233C82.4466 47.5015 82.753 47.4435 83.0936 47.4435C83.375 47.4435 83.6349 47.4899 83.8734 47.5885C84.1147 47.6813 84.3219 47.8148 84.4953 47.9946C84.6717 48.1687 84.8092 48.3892 84.9084 48.6561C85.0071 48.9114 85.057 49.213 85.057 49.5437C85.057 49.6772 85.0431 49.7643 85.0152 49.8049C84.9874 49.8455 84.9346 49.8687 84.8574 49.8687H81.715C81.7243 50.1646 81.7643 50.4257 81.8357 50.6462C81.91 50.8667 82.0121 51.0465 82.142 51.1974C82.272 51.3424 82.4263 51.4527 82.6062 51.5281C82.7855 51.5977 82.9868 51.6325 83.2096 51.6325C83.4167 51.6325 83.5949 51.6094 83.7434 51.563C83.8948 51.5165 84.0248 51.4643 84.1333 51.4063C84.2412 51.3483 84.3311 51.3019 84.4025 51.2554C84.4768 51.2032 84.54 51.1799 84.5928 51.1799C84.6607 51.1799 84.7135 51.2032 84.7506 51.2554L84.9827 51.5572ZM88.8103 48.2905C88.7732 48.3602 88.7158 48.3949 88.6386 48.3949C88.5922 48.3949 88.5394 48.3776 88.4808 48.3428C88.4216 48.308 88.3491 48.2731 88.2626 48.2325C88.1791 48.186 88.0781 48.1513 87.9609 48.1164C87.8431 48.0758 87.7039 48.0585 87.5432 48.0585C87.4039 48.0585 87.2786 48.0758 87.1672 48.1164C87.0558 48.1513 86.9595 48.1977 86.8794 48.2615C86.8017 48.3195 86.7413 48.395 86.6984 48.4762C86.6578 48.5575 86.638 48.6445 86.638 48.7431C86.638 48.8649 86.6717 48.9636 86.7402 49.0448C86.811 49.1261 86.9038 49.1956 87.0187 49.2536C87.133 49.3116 87.2629 49.3639 87.4086 49.4103C87.5536 49.4509 87.7021 49.5031 87.8542 49.5553C88.0085 49.6018 88.1588 49.6598 88.3044 49.7236C88.4494 49.7816 88.5794 49.863 88.6943 49.9558C88.8086 50.0486 88.8997 50.1588 88.9681 50.298C89.0389 50.4315 89.0749 50.5882 89.0749 50.7796C89.0749 50.9943 89.036 51.1974 88.9589 51.3831C88.8811 51.5629 88.7668 51.7253 88.6154 51.8587C88.4634 51.9922 88.2777 52.0966 88.0584 52.1779C87.8385 52.2533 87.5849 52.2939 87.2971 52.2939C86.9687 52.2939 86.6717 52.2418 86.4059 52.1374C86.1396 52.0271 85.9139 51.8877 85.7283 51.7195L85.9232 51.4063C85.9476 51.3657 85.9772 51.3366 86.0114 51.3134C86.0451 51.2902 86.0886 51.2785 86.1414 51.2785C86.1971 51.2785 86.2557 51.3018 86.3178 51.3482C86.3793 51.3888 86.4536 51.4352 86.5406 51.4875C86.6299 51.5397 86.7384 51.5919 86.8655 51.6325C86.992 51.6789 87.1498 51.6964 87.3389 51.6964C87.4996 51.6964 87.6406 51.6789 87.7613 51.6383C87.882 51.5977 87.9824 51.5397 88.063 51.4642C88.1431 51.3946 88.2023 51.3134 88.2394 51.2206C88.2794 51.1278 88.2998 51.0291 88.2998 50.9247C88.2998 50.7912 88.2638 50.6868 88.193 50.6055C88.1245 50.5185 88.0334 50.4432 87.9191 50.3851C87.8043 50.3213 87.6731 50.2691 87.5246 50.2285C87.379 50.182 87.2287 50.1356 87.0744 50.0834C86.9224 50.0312 86.7727 49.979 86.6241 49.9151C86.4785 49.8513 86.3485 49.7701 86.2342 49.6773C86.1193 49.5787 86.0265 49.4626 85.9557 49.3233C85.8872 49.1783 85.8536 49.0101 85.8536 48.807C85.8536 48.6271 85.8907 48.453 85.965 48.2905C86.0393 48.1223 86.1472 47.9772 86.2899 47.8554C86.4321 47.7277 86.6067 47.6291 86.8144 47.5537C87.0216 47.4782 87.2583 47.4435 87.5246 47.4435C87.8338 47.4435 88.1106 47.4899 88.3555 47.5885C88.6026 47.6871 88.8161 47.8206 88.996 47.9888L88.8103 48.2905ZM95.6098 49.3523C95.6098 49.1609 95.5819 48.9867 95.5262 48.8301C95.474 48.6676 95.3951 48.5342 95.2895 48.4182C95.1874 48.3021 95.062 48.2093 94.9135 48.1455C94.765 48.0817 94.5967 48.0527 94.4076 48.0527C94.0119 48.0527 93.6974 48.1687 93.4653 48.4007C93.2367 48.627 93.094 48.9462 93.0383 49.3523H95.6098ZM96.2781 51.5572C96.176 51.6848 96.0542 51.7891 95.9115 51.882C95.7693 51.9748 95.6161 52.0503 95.4519 52.1083C95.2912 52.1663 95.1241 52.2069 94.9507 52.236C94.7777 52.2708 94.606 52.2824 94.4354 52.2824C94.1105 52.2824 93.8105 52.2302 93.5349 52.1199C93.2628 52.0097 93.0261 51.8472 92.8248 51.6383C92.6269 51.4236 92.472 51.1625 92.3606 50.8492C92.2492 50.5359 92.1935 50.1762 92.1935 49.7701C92.1935 49.4452 92.2434 49.1376 92.342 48.8533C92.4441 48.569 92.5898 48.3253 92.7784 48.1164C92.9675 47.9076 93.1978 47.7394 93.47 47.6233C93.7427 47.5015 94.049 47.4435 94.389 47.4435C94.671 47.4435 94.9309 47.4899 95.1688 47.5885C95.4102 47.6813 95.6179 47.8148 95.7908 47.9946C95.9672 48.1687 96.1052 48.3892 96.2039 48.6561C96.3031 48.9114 96.3524 49.213 96.3524 49.5437C96.3524 49.6772 96.3385 49.7643 96.3106 49.8049C96.2828 49.8455 96.2306 49.8687 96.1528 49.8687H93.0104C93.0197 50.1646 93.0603 50.4257 93.1311 50.6462C93.2054 50.8667 93.3075 51.0465 93.4375 51.1974C93.5674 51.3424 93.7223 51.4527 93.9016 51.5281C94.0815 51.5977 94.2822 51.6325 94.5051 51.6325C94.7128 51.6325 94.8903 51.6094 95.0388 51.563C95.1908 51.5165 95.3208 51.4643 95.4287 51.4063C95.5372 51.3483 95.6271 51.3019 95.6979 51.2554C95.7722 51.2032 95.836 51.1799 95.8882 51.1799C95.9567 51.1799 96.0089 51.2032 96.0461 51.2554L96.2781 51.5572ZM100.106 48.2905C100.069 48.3602 100.012 48.3949 99.9346 48.3949C99.8882 48.3949 99.8354 48.3776 99.7768 48.3428C99.7176 48.308 99.6451 48.2731 99.5586 48.2325C99.4751 48.186 99.3741 48.1513 99.2569 48.1164C99.1391 48.0758 98.9999 48.0585 98.8392 48.0585C98.6999 48.0585 98.5746 48.0758 98.4632 48.1164C98.3518 48.1513 98.2555 48.1977 98.1754 48.2615C98.0977 48.3195 98.0373 48.395 97.9944 48.4762C97.9538 48.5575 97.934 48.6445 97.934 48.7431C97.934 48.8649 97.9677 48.9636 98.0362 49.0448C98.107 49.1261 98.1998 49.1956 98.3147 49.2536C98.429 49.3116 98.5589 49.3639 98.7046 49.4103C98.8496 49.4509 98.9981 49.5031 99.1502 49.5553C99.3045 49.6018 99.4548 49.6598 99.6004 49.7236C99.7455 49.7816 99.8754 49.863 99.9903 49.9558C100.105 50.0486 100.196 50.1588 100.264 50.298C100.335 50.4315 100.371 50.5882 100.371 50.7796C100.371 50.9943 100.332 51.1974 100.255 51.3831C100.177 51.5629 100.063 51.7253 99.9114 51.8587C99.7594 51.9922 99.5737 52.0966 99.3544 52.1779C99.1345 52.2533 98.8809 52.2939 98.5932 52.2939C98.2648 52.2939 97.9677 52.2418 97.702 52.1374C97.4357 52.0271 97.21 51.8877 97.0243 51.7195L97.2192 51.4063C97.2436 51.3657 97.2732 51.3366 97.3074 51.3134C97.3411 51.2902 97.3846 51.2785 97.4374 51.2785C97.4931 51.2785 97.5517 51.3018 97.6138 51.3482C97.6753 51.3888 97.7496 51.4352 97.8366 51.4875C97.9259 51.5397 98.0344 51.5919 98.1615 51.6325C98.288 51.6789 98.4458 51.6964 98.6349 51.6964C98.7957 51.6964 98.9366 51.6789 99.0567 51.6383C99.178 51.5977 99.2784 51.5397 99.359 51.4642C99.4391 51.3946 99.4983 51.3134 99.5354 51.2206C99.5755 51.1278 99.5958 51.0291 99.5958 50.9247C99.5958 50.7912 99.5598 50.6868 99.489 50.6055C99.4205 50.5185 99.3294 50.4432 99.2151 50.3851C99.1003 50.3213 98.9691 50.2691 98.8206 50.2285C98.675 50.182 98.5247 50.1356 98.3704 50.0834C98.2184 50.0312 98.0687 49.979 97.9201 49.9151C97.7745 49.8513 97.6445 49.7701 97.5302 49.6773C97.4154 49.5787 97.3225 49.4626 97.2517 49.3233C97.1833 49.1783 97.1496 49.0101 97.1496 48.807C97.1496 48.6271 97.1868 48.453 97.261 48.2905C97.3353 48.1223 97.4432 47.9772 97.5859 47.8554C97.7281 47.7277 97.9027 47.6291 98.1104 47.5537C98.3176 47.4782 98.5543 47.4435 98.8206 47.4435C99.1299 47.4435 99.4066 47.4899 99.6515 47.5885C99.8986 47.6871 100.112 47.8206 100.292 47.9888L100.106 48.2905ZM103.759 52.2185V47.5188H104.255C104.373 47.5188 104.446 47.5711 104.474 47.6871L104.534 48.1687C104.707 47.9598 104.902 47.78 105.119 47.6466C105.335 47.5131 105.586 47.4435 105.871 47.4435C106.186 47.4435 106.442 47.5305 106.637 47.7045C106.834 47.8844 106.977 48.1223 107.064 48.424C107.131 48.2499 107.218 48.1048 107.323 47.983C107.432 47.8554 107.553 47.7567 107.686 47.6755C107.818 47.5942 107.959 47.5363 108.108 47.4957C108.259 47.4609 108.413 47.4435 108.567 47.4435C108.815 47.4435 109.035 47.484 109.227 47.5653C109.422 47.6407 109.586 47.7568 109.719 47.9076C109.855 48.0585 109.958 48.2441 110.03 48.4704C110.101 48.6851 110.136 48.9404 110.136 49.2247V52.2185H109.305V49.2247C109.305 48.8592 109.225 48.5806 109.064 48.3891C108.903 48.1977 108.671 48.099 108.368 48.099C108.232 48.099 108.102 48.1281 107.978 48.1745C107.857 48.2209 107.751 48.2905 107.658 48.3833C107.565 48.4761 107.491 48.5922 107.435 48.7373C107.382 48.8765 107.356 49.0391 107.356 49.2247V52.2185H106.525V49.2247C106.525 48.8476 106.449 48.5632 106.298 48.3775C106.146 48.1918 105.925 48.099 105.634 48.099C105.43 48.099 105.241 48.1571 105.068 48.2673C104.894 48.3775 104.735 48.5226 104.59 48.7141V52.2185H103.759ZM114.539 49.3523C114.539 49.1609 114.511 48.9867 114.455 48.8301C114.403 48.6676 114.324 48.5342 114.219 48.4182C114.117 48.3021 113.991 48.2093 113.843 48.1455C113.694 48.0817 113.526 48.0527 113.337 48.0527C112.941 48.0527 112.627 48.1687 112.395 48.4007C112.166 48.627 112.023 48.9462 111.967 49.3523H114.539ZM115.207 51.5572C115.105 51.6848 114.983 51.7891 114.841 51.882C114.699 51.9748 114.545 52.0503 114.381 52.1083C114.22 52.1663 114.053 52.2069 113.88 52.236C113.707 52.2708 113.535 52.2824 113.365 52.2824C113.04 52.2824 112.74 52.2302 112.464 52.1199C112.192 52.0097 111.955 51.8472 111.754 51.6383C111.556 51.4236 111.401 51.1625 111.29 50.8492C111.178 50.5359 111.123 50.1762 111.123 49.7701C111.123 49.4452 111.173 49.1376 111.271 48.8533C111.373 48.569 111.519 48.3253 111.708 48.1164C111.897 47.9076 112.127 47.7394 112.399 47.6233C112.672 47.5015 112.978 47.4435 113.318 47.4435C113.6 47.4435 113.86 47.4899 114.098 47.5885C114.339 47.6813 114.547 47.8148 114.72 47.9946C114.896 48.1687 115.034 48.3892 115.133 48.6561C115.232 48.9114 115.282 49.213 115.282 49.5437C115.282 49.6772 115.268 49.7643 115.24 49.8049C115.212 49.8455 115.16 49.8687 115.082 49.8687H111.94C111.949 50.1646 111.989 50.4257 112.06 50.6462C112.135 50.8667 112.237 51.0465 112.367 51.1974C112.497 51.3424 112.652 51.4527 112.831 51.5281C113.011 51.5977 113.211 51.6325 113.434 51.6325C113.642 51.6325 113.819 51.6094 113.968 51.563C114.12 51.5165 114.25 51.4643 114.358 51.4063C114.466 51.3483 114.556 51.3019 114.627 51.2554C114.701 51.2032 114.765 51.1799 114.817 51.1799C114.886 51.1799 114.938 51.2032 114.975 51.2554L115.207 51.5572ZM116.297 52.2185V47.5188H116.794C116.911 47.5188 116.984 47.5711 117.012 47.6871L117.072 48.1687C117.245 47.9598 117.44 47.78 117.657 47.6466C117.873 47.5131 118.124 47.4435 118.409 47.4435C118.725 47.4435 118.98 47.5305 119.175 47.7045C119.373 47.8844 119.515 48.1223 119.602 48.424C119.67 48.2499 119.756 48.1048 119.862 47.983C119.97 47.8554 120.09 47.7567 120.224 47.6755C120.357 47.5942 120.498 47.5363 120.646 47.4957C120.798 47.4609 120.951 47.4435 121.106 47.4435C121.353 47.4435 121.573 47.484 121.765 47.5653C121.96 47.6407 122.123 47.7568 122.257 47.9076C122.393 48.0585 122.496 48.2441 122.568 48.4704C122.639 48.6851 122.675 48.9404 122.675 49.2247V52.2185H121.844V49.2247C121.844 48.8592 121.763 48.5806 121.602 48.3891C121.441 48.1977 121.209 48.099 120.906 48.099C120.77 48.099 120.64 48.1281 120.516 48.1745C120.396 48.2209 120.289 48.2905 120.196 48.3833C120.103 48.4761 120.029 48.5922 119.973 48.7373C119.92 48.8765 119.894 49.0391 119.894 49.2247V52.2185H119.063V49.2247C119.063 48.8476 118.987 48.5632 118.836 48.3775C118.684 48.1918 118.463 48.099 118.172 48.099C117.968 48.099 117.779 48.1571 117.606 48.2673C117.432 48.3775 117.273 48.5226 117.128 48.7141V52.2185H116.297ZM124.761 51.0872C124.912 51.2902 125.078 51.4353 125.258 51.5165C125.44 51.6035 125.639 51.6441 125.856 51.6441C126.299 51.6441 126.637 51.4874 126.873 51.1741C127.108 50.8608 127.226 50.3967 127.226 49.7759C127.226 49.2015 127.12 48.778 126.91 48.5111C126.702 48.2384 126.405 48.099 126.019 48.099C125.75 48.099 125.514 48.1629 125.313 48.2847C125.115 48.4124 124.931 48.5864 124.761 48.8127V51.0872ZM124.761 48.1919C124.959 47.9657 125.182 47.78 125.429 47.6466C125.68 47.5131 125.968 47.4435 126.293 47.4435C126.568 47.4435 126.815 47.4957 127.035 47.6001C127.258 47.7046 127.447 47.8612 127.602 48.0585C127.756 48.2558 127.874 48.4995 127.954 48.7838C128.038 49.0681 128.08 49.3871 128.08 49.7468C128.08 50.124 128.033 50.4721 127.94 50.7854C127.848 51.0987 127.713 51.3656 127.537 51.5861C127.363 51.8065 127.151 51.9807 126.901 52.1025C126.65 52.2244 126.368 52.2824 126.056 52.2824C125.746 52.2824 125.485 52.2244 125.272 52.1141C125.061 51.9923 124.877 51.8298 124.719 51.6151L124.677 52.0444C124.652 52.1605 124.581 52.2185 124.464 52.2185H123.93V45.3837H124.761V48.1919ZM129.909 48.4588C130.058 48.1397 130.24 47.8844 130.457 47.7045C130.673 47.5247 130.938 47.4318 131.251 47.4318C131.35 47.4318 131.444 47.4435 131.534 47.4667C131.627 47.4899 131.708 47.5189 131.78 47.5653L131.719 48.1861C131.701 48.2616 131.654 48.3021 131.58 48.3021C131.537 48.3021 131.473 48.2905 131.39 48.2731C131.306 48.2557 131.212 48.2441 131.107 48.2441C130.958 48.2441 130.825 48.2673 130.708 48.308C130.593 48.3544 130.489 48.4182 130.397 48.5053C130.307 48.5865 130.225 48.6966 130.15 48.8185C130.079 48.9461 130.014 49.0854 129.956 49.2478V52.2185H129.125V47.5188H129.598C129.688 47.5188 129.75 47.5363 129.784 47.5653C129.818 47.6001 129.841 47.6581 129.853 47.7452L129.909 48.4588ZM135.463 49.3523C135.463 49.1609 135.435 48.9867 135.379 48.8301C135.327 48.6676 135.248 48.5342 135.143 48.4182C135.04 48.3021 134.915 48.2093 134.767 48.1455C134.618 48.0817 134.449 48.0527 134.261 48.0527C133.864 48.0527 133.551 48.1687 133.318 48.4007C133.089 48.627 132.947 48.9462 132.891 49.3523H135.463ZM136.131 51.5572C136.029 51.6848 135.907 51.7891 135.765 51.882C135.622 51.9748 135.469 52.0503 135.305 52.1083C135.144 52.1663 134.977 52.2069 134.804 52.236C134.63 52.2708 134.459 52.2824 134.289 52.2824C133.964 52.2824 133.664 52.2302 133.388 52.1199C133.116 52.0097 132.879 51.8472 132.678 51.6383C132.48 51.4236 132.325 51.1625 132.214 50.8492C132.102 50.5359 132.047 50.1762 132.047 49.7701C132.047 49.4452 132.096 49.1376 132.195 48.8533C132.297 48.569 132.443 48.3253 132.631 48.1164C132.82 47.9076 133.051 47.7394 133.323 47.6233C133.595 47.5015 133.902 47.4435 134.242 47.4435C134.524 47.4435 134.783 47.4899 135.022 47.5885C135.263 47.6813 135.47 47.8148 135.644 47.9946C135.82 48.1687 135.958 48.3892 136.057 48.6561C136.156 48.9114 136.206 49.213 136.206 49.5437C136.206 49.6772 136.192 49.7643 136.164 49.8049C136.136 49.8455 136.083 49.8687 136.006 49.8687H132.864C132.873 50.1646 132.913 50.4257 132.984 50.6462C133.059 50.8667 133.161 51.0465 133.291 51.1974C133.421 51.3424 133.575 51.4527 133.755 51.5281C133.934 51.5977 134.135 51.6325 134.358 51.6325C134.565 51.6325 134.743 51.6094 134.892 51.563C135.043 51.5165 135.173 51.4643 135.282 51.4063C135.39 51.3483 135.48 51.3019 135.551 51.2554C135.625 51.2032 135.689 51.1799 135.741 51.1799C135.809 51.1799 135.862 51.2032 135.899 51.2554L136.131 51.5572ZM139.959 48.2905C139.922 48.3602 139.864 48.3949 139.787 48.3949C139.741 48.3949 139.688 48.3776 139.629 48.3428C139.571 48.308 139.498 48.2731 139.411 48.2325C139.328 48.186 139.227 48.1513 139.109 48.1164C138.992 48.0758 138.852 48.0585 138.692 48.0585C138.552 48.0585 138.427 48.0758 138.316 48.1164C138.204 48.1513 138.109 48.1977 138.028 48.2615C137.951 48.3195 137.89 48.395 137.847 48.4762C137.807 48.5575 137.787 48.6445 137.787 48.7431C137.787 48.8649 137.821 48.9636 137.889 49.0448C137.96 49.1261 138.053 49.1956 138.167 49.2536C138.281 49.3116 138.411 49.3639 138.557 49.4103C138.703 49.4509 138.851 49.5031 139.003 49.5553C139.158 49.6018 139.307 49.6598 139.453 49.7236C139.599 49.7816 139.729 49.863 139.843 49.9558C139.957 50.0486 140.049 50.1588 140.117 50.298C140.188 50.4315 140.223 50.5882 140.223 50.7796C140.223 50.9943 140.185 51.1974 140.107 51.3831C140.03 51.5629 139.915 51.7253 139.764 51.8587C139.612 51.9922 139.427 52.0966 139.207 52.1779C138.987 52.2533 138.733 52.2939 138.446 52.2939C138.118 52.2939 137.821 52.2418 137.554 52.1374C137.288 52.0271 137.062 51.8877 136.877 51.7195L137.072 51.4063C137.097 51.3657 137.126 51.3366 137.16 51.3134C137.194 51.2902 137.237 51.2785 137.29 51.2785C137.346 51.2785 137.404 51.3018 137.466 51.3482C137.528 51.3888 137.603 51.4352 137.689 51.4875C137.779 51.5397 137.887 51.5919 138.014 51.6325C138.141 51.6789 138.299 51.6964 138.487 51.6964C138.648 51.6964 138.789 51.6789 138.91 51.6383C139.031 51.5977 139.131 51.5397 139.212 51.4642C139.292 51.3946 139.351 51.3134 139.388 51.2206C139.428 51.1278 139.448 51.0291 139.448 50.9247C139.448 50.7912 139.413 50.6868 139.342 50.6055C139.274 50.5185 139.182 50.4432 139.068 50.3851C138.953 50.3213 138.822 50.2691 138.673 50.2285C138.528 50.182 138.378 50.1356 138.223 50.0834C138.071 50.0312 137.921 49.979 137.773 49.9151C137.627 49.8513 137.497 49.7701 137.383 49.6773C137.268 49.5787 137.176 49.4626 137.104 49.3233C137.036 49.1783 137.002 49.0101 137.002 48.807C137.002 48.6271 137.039 48.453 137.114 48.2905C137.188 48.1223 137.296 47.9772 137.438 47.8554C137.581 47.7277 137.756 47.6291 137.963 47.5537C138.17 47.4782 138.407 47.4435 138.673 47.4435C138.982 47.4435 139.26 47.4899 139.504 47.5885C139.752 47.6871 139.965 47.8206 140.145 47.9888L139.959 48.2905ZM19.0935 62.5578C18.9386 62.3547 18.7715 62.2097 18.5922 62.1285C18.4129 62.0472 18.2116 62.0008 17.9888 62.0008C17.5525 62.0008 17.2165 62.1574 16.9816 62.4707C16.7466 62.784 16.6288 63.2308 16.6288 63.811C16.6288 64.1127 16.6549 64.3797 16.7077 64.6002C16.7605 64.8148 16.8377 64.9946 16.9398 65.1339C17.0419 65.2731 17.1672 65.3776 17.3157 65.4414C17.4643 65.5052 17.6331 65.54 17.8217 65.54C18.0938 65.54 18.3305 65.4761 18.5319 65.3543C18.7361 65.2325 18.9235 65.0585 19.0935 64.8322V62.5578ZM19.9197 59.3086V66.1434H19.4277C19.3099 66.1434 19.2357 66.0854 19.2049 65.9694L19.1306 65.4008C18.9293 65.6445 18.7007 65.8359 18.4437 65.9868C18.1866 66.1318 17.8896 66.2073 17.5525 66.2073C17.2833 66.2073 17.039 66.1551 16.8191 66.0565C16.5992 65.952 16.4124 65.7954 16.2574 65.5981C16.1025 65.395 15.9836 65.1455 15.9 64.8438C15.8165 64.5421 15.7747 64.1997 15.7747 63.811C15.7747 63.4629 15.8211 63.138 15.914 62.8421C16.0068 62.5404 16.1397 62.2851 16.3132 62.0646C16.4866 61.8441 16.6984 61.6701 16.9491 61.5483C17.2026 61.4206 17.4875 61.3568 17.8031 61.3568C18.0909 61.3568 18.3369 61.409 18.5411 61.5076C18.7483 61.6004 18.9328 61.7397 19.0935 61.9079V59.3086H19.9197ZM24.3716 63.2773C24.3716 63.0858 24.3438 62.9117 24.2881 62.755C24.2353 62.5925 24.1564 62.4591 24.0513 62.3431C23.9492 62.227 23.8239 62.1342 23.6754 62.0704C23.5268 62.0066 23.358 61.9776 23.1694 61.9776C22.7732 61.9776 22.4593 62.0936 22.2272 62.3257C21.998 62.5519 21.8559 62.8711 21.8002 63.2773H24.3716ZM25.04 65.4821C24.9379 65.6097 24.8155 65.714 24.6733 65.8069C24.5312 65.8997 24.378 65.9752 24.2138 66.0332C24.0531 66.0913 23.886 66.1319 23.7125 66.1609C23.539 66.1957 23.3673 66.2073 23.1973 66.2073C22.8724 66.2073 22.5724 66.1551 22.2968 66.0449C22.0247 65.9346 21.788 65.7721 21.5866 65.5632C21.3888 65.3486 21.2339 65.0874 21.1225 64.7741C21.0111 64.4608 20.9554 64.1011 20.9554 63.695C20.9554 63.3701 21.0047 63.0625 21.1039 62.7782C21.206 62.4939 21.3517 62.2502 21.5402 62.0414C21.7288 61.8325 21.9597 61.6643 22.2318 61.5483C22.5039 61.4264 22.8103 61.3684 23.1509 61.3684C23.4323 61.3684 23.6922 61.4148 23.9307 61.5134C24.172 61.6063 24.3792 61.7397 24.5526 61.9195C24.729 62.0936 24.8665 62.3142 24.9657 62.581C25.065 62.8363 25.1143 63.1379 25.1143 63.4686C25.1143 63.6021 25.1004 63.6892 25.0725 63.7298C25.0447 63.7705 24.9919 63.7936 24.9147 63.7936H21.7723C21.7816 64.0895 21.8216 64.3506 21.893 64.5711C21.9673 64.7916 22.0694 64.9714 22.1993 65.1223C22.3293 65.2673 22.4842 65.3776 22.6635 65.453C22.8428 65.5227 23.0441 65.5574 23.2669 65.5574C23.4741 65.5574 23.6522 65.5343 23.8007 65.4879C23.9521 65.4415 24.0821 65.3892 24.1906 65.3312C24.2991 65.2732 24.3885 65.2268 24.4598 65.1804C24.5341 65.1281 24.5973 65.1049 24.6501 65.1049C24.718 65.1049 24.7708 65.1281 24.8079 65.1804L25.04 65.4821ZM26.9831 59.3086V66.1434H26.1569V59.3086H26.9831ZM33.4367 62.2154C33.3996 62.2851 33.3428 62.3198 33.265 62.3198C33.2186 62.3198 33.1664 62.3025 33.1072 62.2677C33.0486 62.2329 32.9761 62.198 32.889 62.1574C32.8055 62.111 32.7051 62.0762 32.5873 62.0414C32.4701 62.0007 32.3309 61.9834 32.1696 61.9834C32.0303 61.9834 31.905 62.0007 31.7936 62.0414C31.6822 62.0762 31.5865 62.1226 31.5058 62.1864C31.4286 62.2444 31.3683 62.3199 31.3248 62.4012C31.2848 62.4824 31.2645 62.5694 31.2645 62.668C31.2645 62.7899 31.2987 62.8885 31.3666 62.9697C31.4379 63.051 31.5308 63.1205 31.6451 63.1785C31.7599 63.2366 31.8899 63.2888 32.035 63.3352C32.1806 63.3758 32.3291 63.428 32.4806 63.4803C32.6355 63.5267 32.7857 63.5847 32.9308 63.6485C33.0764 63.7066 33.2064 63.7879 33.3207 63.8807C33.4356 63.9735 33.5267 64.0837 33.5946 64.2229C33.6659 64.3564 33.7013 64.5131 33.7013 64.7045C33.7013 64.9192 33.663 65.1223 33.5853 65.308C33.5081 65.4878 33.3938 65.6502 33.2418 65.7836C33.0904 65.9171 32.9047 66.0216 32.6848 66.1028C32.4655 66.1782 32.2113 66.2188 31.9236 66.2188C31.5957 66.2188 31.2987 66.1667 31.0324 66.0623C30.7666 65.952 30.5403 65.8127 30.3547 65.6444L30.5496 65.3312C30.5746 65.2906 30.6042 65.2615 30.6378 65.2383C30.6721 65.2151 30.7156 65.2034 30.7678 65.2034C30.8235 65.2034 30.8827 65.2267 30.9442 65.2731C31.0063 65.3138 31.0805 65.3602 31.167 65.4124C31.2569 65.4646 31.3654 65.5168 31.4919 65.5574C31.619 65.6038 31.7768 65.6213 31.9653 65.6213C32.1266 65.6213 32.2671 65.6039 32.3877 65.5632C32.5084 65.5226 32.6094 65.4646 32.6894 65.3891C32.7701 65.3195 32.8287 65.2383 32.8658 65.1455C32.9064 65.0527 32.9262 64.954 32.9262 64.8496C32.9262 64.7162 32.8908 64.6117 32.8194 64.5305C32.7515 64.4434 32.6604 64.3681 32.5455 64.31C32.4312 64.2462 32.2995 64.194 32.151 64.1534C32.006 64.107 31.8557 64.0605 31.7008 64.0083C31.5493 63.9561 31.3991 63.9039 31.2505 63.84C31.1055 63.7762 30.9755 63.695 30.8606 63.6022C30.7463 63.5036 30.6535 63.3875 30.5821 63.2482C30.5143 63.1032 30.48 62.935 30.48 62.7319C30.48 62.552 30.5172 62.3779 30.5914 62.2154C30.6657 62.0472 30.7742 61.9021 30.9163 61.7803C31.0591 61.6526 31.2337 61.554 31.4408 61.4786C31.6485 61.4031 31.8853 61.3684 32.151 61.3684C32.4608 61.3684 32.7376 61.4148 32.9819 61.5134C33.2296 61.6121 33.4431 61.7455 33.6224 61.9137L33.4367 62.2154ZM37.2626 64.0258C36.882 64.0374 36.5571 64.0721 36.2879 64.1185C36.0216 64.165 35.8034 64.2288 35.6334 64.3042C35.4663 64.3855 35.3439 64.4725 35.2667 64.5769C35.1924 64.6872 35.1553 64.8031 35.1553 64.9308C35.1553 65.0584 35.1756 65.1629 35.2157 65.2499C35.2557 65.3427 35.3102 65.4182 35.3781 65.4763C35.4495 65.5285 35.5313 65.5749 35.6241 65.5981C35.7198 65.6271 35.822 65.6386 35.9305 65.6386C36.0761 65.6386 36.209 65.6213 36.3296 65.5981C36.4503 65.5633 36.5635 65.5227 36.6685 65.4647C36.777 65.4124 36.8791 65.3428 36.9748 65.2673C37.074 65.1861 37.1698 65.0991 37.2626 65.0005V64.0258ZM34.5937 62.1052C34.8536 61.8558 35.1338 61.6701 35.4338 61.5425C35.7338 61.4206 36.0668 61.3568 36.4317 61.3568C36.6946 61.3568 36.9284 61.4032 37.1326 61.4902C37.3369 61.5772 37.5086 61.6933 37.6479 61.85C37.7871 62.0066 37.8921 62.1923 37.9635 62.4128C38.0349 62.6332 38.0702 62.8711 38.0702 63.138V66.1434H37.7036C37.6229 66.1434 37.5614 66.1318 37.5179 66.1086C37.4744 66.0796 37.4407 66.0274 37.4158 65.9461L37.323 65.5052C37.1994 65.6154 37.0787 65.7199 36.9609 65.8069C36.8431 65.8939 36.7195 65.9694 36.5896 66.0332C36.4596 66.0913 36.3204 66.1377 36.1718 66.1667C36.0262 66.2015 35.8637 66.2188 35.6844 66.2188C35.5017 66.2188 35.3299 66.1957 35.1692 66.1434C35.0085 66.0912 34.8675 66.0159 34.7468 65.9114C34.6291 65.807 34.5351 65.6792 34.4637 65.5284C34.3958 65.3659 34.3616 65.1803 34.3616 64.9714C34.3616 64.7858 34.4126 64.6059 34.5148 64.4377C34.6169 64.2636 34.7822 64.1069 35.0114 63.9735C35.2406 63.84 35.5388 63.7356 35.9072 63.6485C36.2757 63.5615 36.7271 63.5151 37.2626 63.5035V63.138C37.2626 62.7725 37.1837 62.4939 37.0259 62.3082C36.8681 62.1226 36.6377 62.0239 36.3343 62.0239C36.13 62.0239 35.9583 62.053 35.8191 62.1052C35.6827 62.1575 35.5638 62.2097 35.4616 62.2793C35.3624 62.3374 35.276 62.3953 35.2017 62.4475C35.1304 62.4997 35.0596 62.523 34.9882 62.523C34.9325 62.523 34.8843 62.5113 34.8443 62.4823C34.8043 62.4475 34.7701 62.4127 34.7422 62.3721L34.5937 62.1052ZM39.3287 66.1434V61.4437H39.8254C39.9432 61.4437 40.0157 61.496 40.0435 61.612L40.1039 62.0936C40.2774 61.8848 40.4723 61.7049 40.6887 61.5715C40.9057 61.4381 41.1564 61.3684 41.4407 61.3684C41.7563 61.3684 42.0116 61.4554 42.2065 61.6294C42.405 61.8093 42.5471 62.0472 42.6336 62.3489C42.702 62.1748 42.7885 62.0298 42.8935 61.9079C43.002 61.7803 43.1227 61.6816 43.2555 61.6004C43.389 61.5192 43.5294 61.4613 43.6779 61.4206C43.8299 61.3858 43.9831 61.3684 44.1375 61.3684C44.3852 61.3684 44.6051 61.409 44.7966 61.4902C44.9915 61.5656 45.1557 61.6817 45.2886 61.8326C45.4249 61.9834 45.5288 62.1691 45.5996 62.3953C45.6709 62.61 45.7063 62.8653 45.7063 63.1496V66.1434H44.8755V63.1496C44.8755 62.7841 44.7954 62.5055 44.6341 62.314C44.4734 62.1226 44.2413 62.0239 43.9379 62.0239C43.8021 62.0239 43.6721 62.053 43.548 62.0994C43.4273 62.1458 43.3205 62.2154 43.2277 62.3082C43.1349 62.4011 43.0606 62.5172 43.0049 62.6622C42.9527 62.8015 42.926 62.964 42.926 63.1496V66.1434H42.0951V63.1496C42.0951 62.7725 42.0197 62.4881 41.8677 62.3024C41.7163 62.1168 41.4952 62.0239 41.2039 62.0239C40.9997 62.0239 40.8111 62.082 40.6377 62.1922C40.4648 62.3025 40.3052 62.4475 40.1596 62.639V66.1434H39.3287ZM49.6436 66.1434V62.1459L49.1237 62.0878C49.0587 62.0704 49.0048 62.0471 48.9613 62.0181C48.9212 61.9833 48.9009 61.9369 48.9009 61.8731V61.5367H49.6436V61.0783C49.6436 60.8114 49.6807 60.5735 49.755 60.3646C49.8327 60.1558 49.9407 59.9758 50.0799 59.8365C50.2226 59.6915 50.3926 59.5814 50.5905 59.5059C50.7889 59.4305 51.0117 59.3957 51.2589 59.3957C51.4695 59.3957 51.6627 59.4247 51.8391 59.4885L51.8205 59.9004C51.8147 59.9759 51.7729 60.0165 51.6952 60.0223C51.6209 60.0281 51.5206 60.0281 51.3935 60.0281C51.2514 60.0281 51.1214 60.0513 51.0036 60.0861C50.8893 60.121 50.7901 60.1848 50.7065 60.266C50.623 60.3531 50.558 60.4632 50.5116 60.5967C50.4687 60.7301 50.4466 60.9042 50.4466 61.1015V61.5367H51.802V62.1343H50.4744V66.1434H49.6436ZM55.1132 64.0258C54.7326 64.0374 54.4077 64.0721 54.1384 64.1185C53.8721 64.165 53.654 64.2288 53.484 64.3042C53.3169 64.3855 53.1945 64.4725 53.1173 64.5769C53.043 64.6872 53.0059 64.8031 53.0059 64.9308C53.0059 65.0584 53.0256 65.1629 53.0662 65.2499C53.1063 65.3427 53.1602 65.4182 53.2287 65.4763C53.2995 65.5285 53.3819 65.5749 53.4747 65.5981C53.5704 65.6271 53.6725 65.6386 53.781 65.6386C53.9261 65.6386 54.0595 65.6213 54.1802 65.5981C54.3009 65.5633 54.4135 65.5227 54.5191 65.4647C54.627 65.4124 54.7291 65.3428 54.8254 65.2673C54.9241 65.1861 55.0204 65.0991 55.1132 65.0005V64.0258ZM52.4443 62.1052C52.7042 61.8558 52.9838 61.6701 53.2844 61.5425C53.5844 61.4206 53.9168 61.3568 54.2823 61.3568C54.5452 61.3568 54.779 61.4032 54.9832 61.4902C55.1875 61.5772 55.3592 61.6933 55.4985 61.85C55.6377 62.0066 55.7427 62.1923 55.8141 62.4128C55.8849 62.6332 55.9208 62.8711 55.9208 63.138V66.1434H55.5541C55.4735 66.1434 55.4114 66.1318 55.3685 66.1086C55.325 66.0796 55.2907 66.0274 55.2664 65.9461L55.1735 65.5052C55.0494 65.6154 54.9287 65.7199 54.8115 65.8069C54.6937 65.8939 54.5701 65.9694 54.4402 66.0332C54.3102 66.0913 54.1709 66.1377 54.0224 66.1667C53.8768 66.2015 53.7143 66.2188 53.535 66.2188C53.3523 66.2188 53.1805 66.1957 53.0198 66.1434C52.8585 66.0912 52.7181 66.0159 52.5974 65.9114C52.4797 65.807 52.3851 65.6792 52.3143 65.5284C52.2458 65.3659 52.2122 65.1803 52.2122 64.9714C52.2122 64.7858 52.2632 64.6059 52.3653 64.4377C52.4675 64.2636 52.6328 64.1069 52.862 63.9735C53.0906 63.84 53.3894 63.7356 53.7578 63.6485C54.1257 63.5615 54.5777 63.5151 55.1132 63.5035V63.138C55.1132 62.7725 55.0343 62.4939 54.8765 62.3082C54.7186 62.1226 54.4877 62.0239 54.1849 62.0239C53.9806 62.0239 53.8089 62.053 53.6696 62.1052C53.5333 62.1575 53.4144 62.2097 53.3122 62.2793C53.213 62.3374 53.1266 62.3953 53.0523 62.4475C52.9809 62.4997 52.9096 62.523 52.8388 62.523C52.7831 62.523 52.7349 62.5113 52.6949 62.4823C52.6543 62.4475 52.6206 62.4127 52.5928 62.3721L52.4443 62.1052ZM57.1793 66.1434V61.4437H57.676C57.7937 61.4437 57.8663 61.496 57.8941 61.612L57.9544 62.0936C58.1279 61.8848 58.3229 61.7049 58.5393 61.5715C58.7557 61.4381 59.0064 61.3684 59.2913 61.3684C59.6069 61.3684 59.8622 61.4554 60.0571 61.6294C60.255 61.8093 60.3977 62.0472 60.4841 62.3489C60.552 62.1748 60.639 62.0298 60.7441 61.9079C60.8526 61.7803 60.9733 61.6816 61.1061 61.6004C61.239 61.5192 61.38 61.4613 61.5285 61.4206C61.68 61.3858 61.8331 61.3684 61.988 61.3684C62.2358 61.3684 62.4551 61.409 62.6472 61.4902C62.8421 61.5656 63.0063 61.6817 63.1392 61.8326C63.2755 61.9834 63.3788 62.1691 63.4501 62.3953C63.5215 62.61 63.5569 62.8653 63.5569 63.1496V66.1434H62.7261V63.1496C62.7261 62.7841 62.6454 62.5055 62.4847 62.314C62.324 62.1226 62.0919 62.0239 61.7885 62.0239C61.6521 62.0239 61.5221 62.053 61.3986 62.0994C61.2779 62.1458 61.1711 62.2154 61.0783 62.3082C60.9855 62.4011 60.9112 62.5172 60.8555 62.6622C60.8027 62.8015 60.7766 62.964 60.7766 63.1496V66.1434H59.9457V63.1496C59.9457 62.7725 59.8697 62.4881 59.7183 62.3024C59.5669 62.1168 59.3452 62.0239 59.0545 62.0239C58.8503 62.0239 58.6617 62.082 58.4883 62.1922C58.3148 62.3025 58.1558 62.4475 58.0102 62.639V66.1434H57.1793ZM65.6851 61.4437V66.1434H64.8589V61.4437H65.6851ZM65.8615 59.9643C65.8615 60.0455 65.8447 60.1209 65.8104 60.1905C65.7797 60.2602 65.7362 60.324 65.6805 60.3762C65.6277 60.4285 65.5644 60.4749 65.4902 60.5039C65.4188 60.5329 65.3434 60.5503 65.2627 60.5503C65.1821 60.5503 65.1067 60.5329 65.0353 60.5039C64.9674 60.4749 64.9071 60.4285 64.8543 60.3762C64.8015 60.324 64.7597 60.2602 64.7289 60.1905C64.6982 60.1209 64.6825 60.0455 64.6825 59.9643C64.6825 59.8831 64.6982 59.8076 64.7289 59.738C64.7597 59.6625 64.8015 59.5987 64.8543 59.5464C64.9071 59.4942 64.9674 59.4478 65.0353 59.4188C65.1067 59.384 65.1821 59.3725 65.2627 59.3725C65.3434 59.3725 65.4188 59.384 65.4902 59.4188C65.5644 59.4478 65.6277 59.4942 65.6805 59.5464C65.7362 59.5987 65.7797 59.6625 65.8104 59.738C65.8447 59.8076 65.8615 59.8831 65.8615 59.9643ZM67.8968 59.3086V66.1434H67.0706V59.3086H67.8968ZM70.1092 61.4437V66.1434H69.283V61.4437H70.1092ZM70.2855 59.9643C70.2855 60.0455 70.2687 60.1209 70.2345 60.1905C70.2038 60.2602 70.1602 60.324 70.1045 60.3762C70.0517 60.4285 69.9885 60.4749 69.9142 60.5039C69.8429 60.5329 69.7674 60.5503 69.6868 60.5503C69.6061 60.5503 69.5307 60.5329 69.4594 60.5039C69.3915 60.4749 69.3311 60.4285 69.2783 60.3762C69.2255 60.324 69.1837 60.2602 69.153 60.1905C69.1222 60.1209 69.1066 60.0455 69.1066 59.9643C69.1066 59.8831 69.1222 59.8076 69.153 59.738C69.1837 59.6625 69.2255 59.5987 69.2783 59.5464C69.3311 59.4942 69.3915 59.4478 69.4594 59.4188C69.5307 59.384 69.6061 59.3725 69.6868 59.3725C69.7674 59.3725 69.8429 59.384 69.9142 59.4188C69.9885 59.4478 70.0517 59.4942 70.1045 59.5464C70.1602 59.5987 70.2038 59.6625 70.2345 59.738C70.2687 59.8076 70.2855 59.8831 70.2855 59.9643ZM74.6139 63.2773C74.6139 63.0858 74.586 62.9117 74.5303 62.755C74.4775 62.5925 74.3986 62.4591 74.2936 62.3431C74.1915 62.227 74.0662 62.1342 73.9176 62.0704C73.7691 62.0066 73.6002 61.9776 73.4117 61.9776C73.0154 61.9776 72.7015 62.0936 72.4694 62.3257C72.2403 62.5519 72.0981 62.8711 72.0424 63.2773H74.6139ZM75.2823 65.4821C75.1801 65.6097 75.0577 65.714 74.9156 65.8069C74.7734 65.8997 74.6203 65.9752 74.4561 66.0332C74.2954 66.0913 74.1283 66.1319 73.9548 66.1609C73.7813 66.1957 73.6095 66.2073 73.4395 66.2073C73.1146 66.2073 72.8147 66.1551 72.5391 66.0449C72.267 65.9346 72.0302 65.7721 71.8289 65.5632C71.631 65.3486 71.4761 65.0874 71.3647 64.7741C71.2533 64.4608 71.1976 64.1011 71.1976 63.695C71.1976 63.3701 71.2469 63.0625 71.3462 62.7782C71.4483 62.4939 71.5939 62.2502 71.7825 62.0414C71.971 61.8325 72.202 61.6643 72.4741 61.5483C72.7462 61.4264 73.0525 61.3684 73.3931 61.3684C73.6745 61.3684 73.9345 61.4148 74.1729 61.5134C74.4143 61.6063 74.6214 61.7397 74.7949 61.9195C74.9713 62.0936 75.1088 62.3142 75.208 62.581C75.3072 62.8363 75.3566 63.1379 75.3566 63.4686C75.3566 63.6021 75.3426 63.6892 75.3148 63.7298C75.2869 63.7705 75.2341 63.7936 75.1569 63.7936H72.0146C72.0239 64.0895 72.0639 64.3506 72.1353 64.5711C72.2095 64.7916 72.3116 64.9714 72.4416 65.1223C72.5715 65.2673 72.7265 65.3776 72.9058 65.453C73.0851 65.5227 73.2864 65.5574 73.5092 65.5574C73.7163 65.5574 73.8944 65.5343 74.0429 65.4879C74.1944 65.4415 74.3243 65.3892 74.4328 65.3312C74.5413 65.2732 74.6307 65.2268 74.7021 65.1804C74.7763 65.1281 74.8396 65.1049 74.8924 65.1049C74.9602 65.1049 75.0131 65.1281 75.0502 65.1804L75.2823 65.4821ZM76.2321 65.6329C76.2321 65.5517 76.246 65.4762 76.2739 65.4066C76.3046 65.3369 76.3452 65.2731 76.3945 65.2209C76.4473 65.1686 76.5088 65.1281 76.5802 65.0932C76.6515 65.0642 76.727 65.0469 76.8076 65.0469C76.8883 65.0469 76.9637 65.0642 77.0351 65.0932C77.1064 65.1281 77.1679 65.1686 77.2207 65.2209C77.2735 65.2731 77.3153 65.3369 77.3461 65.4066C77.3768 65.4762 77.3925 65.5517 77.3925 65.6329C77.3925 65.7142 77.3768 65.7953 77.3461 65.865C77.3153 65.9346 77.2735 65.9926 77.2207 66.0449C77.1679 66.0971 77.1064 66.1377 77.0351 66.1667C76.9637 66.1957 76.8883 66.2131 76.8076 66.2131C76.727 66.2131 76.6515 66.1957 76.5802 66.1667C76.5088 66.1377 76.4473 66.0971 76.3945 66.0449C76.3452 65.9926 76.3046 65.9346 76.2739 65.865C76.246 65.7953 76.2321 65.7142 76.2321 65.6329ZM84.909 65.3891V66.1434H81.1354V59.4943H82.0312V65.3891H84.909ZM87.3558 61.3684C87.6992 61.3684 88.0085 61.4264 88.2841 61.5367C88.5591 61.6527 88.7947 61.8151 88.9896 62.0239C89.1845 62.2386 89.3331 62.4939 89.4352 62.7898C89.5402 63.0915 89.593 63.4222 89.593 63.7878C89.593 64.1591 89.5402 64.4956 89.4352 64.7915C89.3331 65.0874 89.1845 65.3427 88.9896 65.5516C88.7947 65.7663 88.5591 65.9288 88.2841 66.039C88.0085 66.1551 87.6992 66.2073 87.3558 66.2073C87.0088 66.2073 86.6966 66.1551 86.4181 66.039C86.1425 65.9288 85.9076 65.7663 85.7126 65.5516C85.5177 65.3427 85.3674 65.0874 85.2624 64.7915C85.1603 64.4956 85.1092 64.1591 85.1092 63.7878C85.1092 63.4222 85.1603 63.0915 85.2624 62.7898C85.3674 62.4939 85.5177 62.2386 85.7126 62.0239C85.9076 61.8151 86.1425 61.6527 86.4181 61.5367C86.6966 61.4264 87.0088 61.3684 87.3558 61.3684ZM87.3558 65.5632C87.8199 65.5632 88.1663 65.4066 88.3955 65.099C88.6241 64.7857 88.7389 64.3506 88.7389 63.7936C88.7389 63.2366 88.6241 62.7956 88.3955 62.4881C88.1663 62.1748 87.8199 62.0181 87.3558 62.0181C87.1202 62.0181 86.9148 62.0589 86.7384 62.1401C86.5649 62.2155 86.4193 62.3315 86.3021 62.4881C86.1872 62.639 86.1008 62.8246 86.0422 63.0451C85.9865 63.2656 85.9586 63.5151 85.9586 63.7936C85.9586 64.3506 86.0729 64.7857 86.3021 65.099C86.5342 65.4066 86.8852 65.5632 87.3558 65.5632ZM91.4253 62.3837C91.5738 62.0646 91.756 61.8093 91.973 61.6294C92.1894 61.4496 92.454 61.3568 92.7667 61.3568C92.8654 61.3568 92.96 61.3684 93.0499 61.3916C93.1427 61.4148 93.2245 61.4438 93.2959 61.4902L93.2355 62.111C93.217 62.1865 93.1706 62.2271 93.0963 62.2271C93.0528 62.2271 92.9895 62.2154 92.906 62.198C92.8224 62.1806 92.7279 62.169 92.6229 62.169C92.4743 62.169 92.3409 62.1923 92.2237 62.2329C92.1088 62.2793 92.0055 62.3432 91.9127 62.4302C91.8228 62.5114 91.7409 62.6215 91.6667 62.7434C91.5953 62.871 91.5303 63.0103 91.4717 63.1727V66.1434H90.6409V61.4437H91.1143C91.2037 61.4437 91.2657 61.4612 91.3 61.4902C91.3336 61.525 91.3569 61.5831 91.3696 61.6701L91.4253 62.3837ZM98.9367 62.2154C98.8995 62.2851 98.8421 62.3198 98.7649 62.3198C98.7185 62.3198 98.6657 62.3025 98.6071 62.2677C98.5485 62.2329 98.4754 62.198 98.3889 62.1574C98.3054 62.111 98.205 62.0762 98.0872 62.0414C97.9695 62.0007 97.8302 61.9834 97.6695 61.9834C97.5302 61.9834 97.4049 62.0007 97.2935 62.0414C97.1821 62.0762 97.0864 62.1226 97.0057 62.1864C96.9286 62.2444 96.8682 62.3199 96.8247 62.4012C96.7847 62.4824 96.7644 62.5694 96.7644 62.668C96.7644 62.7899 96.7986 62.8885 96.8665 62.9697C96.9379 63.051 97.0307 63.1205 97.145 63.1785C97.2593 63.2366 97.3892 63.2888 97.5349 63.3352C97.6805 63.3758 97.829 63.428 97.9805 63.4803C98.1354 63.5267 98.2851 63.5847 98.4307 63.6485C98.5763 63.7066 98.7063 63.7879 98.8206 63.8807C98.9349 63.9735 99.0266 64.0837 99.0945 64.2229C99.1658 64.3564 99.2012 64.5131 99.2012 64.7045C99.2012 64.9192 99.1623 65.1223 99.0852 65.308C99.008 65.4878 98.8931 65.6502 98.7417 65.7836C98.5903 65.9171 98.4046 66.0216 98.1847 66.1028C97.9648 66.1782 97.7112 66.2188 97.4235 66.2188C97.0956 66.2188 96.7986 66.1667 96.5323 66.0623C96.2659 65.952 96.0403 65.8127 95.8546 65.6444L96.0495 65.3312C96.0745 65.2906 96.1035 65.2615 96.1377 65.2383C96.172 65.2151 96.2149 65.2034 96.2677 65.2034C96.3234 65.2034 96.382 65.2267 96.4441 65.2731C96.5062 65.3138 96.5804 65.3602 96.6669 65.4124C96.7568 65.4646 96.8647 65.5168 96.9918 65.5574C97.1189 65.6038 97.2767 65.6213 97.4652 65.6213C97.626 65.6213 97.7669 65.6039 97.8876 65.5632C98.0083 65.5226 98.1087 65.4646 98.1893 65.3891C98.27 65.3195 98.3286 65.2383 98.3657 65.1455C98.4058 65.0527 98.4261 64.954 98.4261 64.8496C98.4261 64.7162 98.3907 64.6117 98.3193 64.5305C98.2514 64.4434 98.1598 64.3681 98.0455 64.31C97.9312 64.2462 97.7995 64.194 97.6509 64.1534C97.5053 64.107 97.3556 64.0605 97.2007 64.0083C97.0492 63.9561 96.899 63.9039 96.7504 63.84C96.6048 63.7762 96.4748 63.695 96.3605 63.6022C96.2462 63.5036 96.1534 63.3875 96.082 63.2482C96.0141 63.1032 95.9799 62.935 95.9799 62.7319C95.9799 62.552 96.0171 62.3779 96.0913 62.2154C96.1656 62.0472 96.2741 61.9021 96.4162 61.7803C96.5584 61.6526 96.7336 61.554 96.9408 61.4786C97.1479 61.4031 97.3846 61.3684 97.6509 61.3684C97.9602 61.3684 98.2375 61.4148 98.4818 61.5134C98.7295 61.6121 98.943 61.7455 99.1223 61.9137L98.9367 62.2154ZM103.361 63.2773C103.361 63.0858 103.333 62.9117 103.278 62.755C103.225 62.5925 103.146 62.4591 103.041 62.3431C102.939 62.227 102.814 62.1342 102.665 62.0704C102.516 62.0066 102.348 61.9776 102.159 61.9776C101.763 61.9776 101.449 62.0936 101.217 62.3257C100.988 62.5519 100.846 62.8711 100.79 63.2773H103.361ZM104.03 65.4821C103.928 65.6097 103.805 65.714 103.663 65.8069C103.52 65.8997 103.367 65.9752 103.203 66.0332C103.042 66.0913 102.875 66.1319 102.702 66.1609C102.529 66.1957 102.357 66.2073 102.187 66.2073C101.862 66.2073 101.561 66.1551 101.286 66.0449C101.014 65.9346 100.777 65.7721 100.576 65.5632C100.378 65.3486 100.224 65.0874 100.112 64.7741C100.001 64.4608 99.945 64.1011 99.945 63.695C99.945 63.3701 99.9943 63.0625 100.094 62.7782C100.196 62.4939 100.341 62.2502 100.53 62.0414C100.718 61.8325 100.949 61.6643 101.221 61.5483C101.494 61.4264 101.8 61.3684 102.141 61.3684C102.422 61.3684 102.682 61.4148 102.92 61.5134C103.162 61.6063 103.369 61.7397 103.542 61.9195C103.719 62.0936 103.856 62.3142 103.955 62.581C104.054 62.8363 104.104 63.1379 104.104 63.4686C104.104 63.6021 104.09 63.6892 104.062 63.7298C104.034 63.7705 103.982 63.7936 103.904 63.7936H100.762C100.771 64.0895 100.811 64.3506 100.883 64.5711C100.957 64.7916 101.059 64.9714 101.189 65.1223C101.319 65.2673 101.473 65.3776 101.653 65.453C101.832 65.5227 102.034 65.5574 102.257 65.5574C102.464 65.5574 102.642 65.5343 102.79 65.4879C102.942 65.4415 103.072 65.3892 103.18 65.3312C103.288 65.2732 103.378 65.2268 103.449 65.1804C103.524 65.1281 103.587 65.1049 103.64 65.1049C103.708 65.1049 103.76 65.1281 103.798 65.1804L104.03 65.4821ZM105.95 65.0121C106.101 65.2151 106.267 65.3602 106.446 65.4414C106.626 65.5285 106.827 65.569 107.05 65.569C107.489 65.569 107.827 65.4124 108.062 65.099C108.297 64.7857 108.414 64.339 108.414 63.7645C108.414 63.457 108.386 63.1902 108.331 62.9755C108.278 62.7551 108.201 62.5752 108.099 62.436C107.997 62.2909 107.871 62.1865 107.723 62.1227C107.574 62.0588 107.405 62.0239 107.217 62.0239C106.948 62.0239 106.711 62.0878 106.507 62.2096C106.305 62.3373 106.12 62.5113 105.95 62.7376V65.0121ZM105.908 62.169C106.106 61.9253 106.335 61.728 106.595 61.583C106.855 61.4321 107.152 61.3568 107.486 61.3568C107.758 61.3568 108.004 61.409 108.224 61.5134C108.444 61.6179 108.631 61.7687 108.786 61.9776C108.941 62.1749 109.059 62.4244 109.143 62.7261C109.227 63.0278 109.268 63.37 109.268 63.7645C109.268 64.1069 109.222 64.4319 109.129 64.7336C109.036 65.0295 108.902 65.2905 108.725 65.5052C108.552 65.7256 108.338 65.894 108.085 66.0216C107.834 66.1493 107.551 66.2073 107.235 66.2073C106.948 66.2073 106.7 66.1609 106.493 66.0623C106.288 65.9636 106.107 65.8301 105.95 65.656V67.7332H105.119V61.4437H105.615C105.733 61.4437 105.806 61.496 105.834 61.612L105.908 62.169ZM112.871 64.0258C112.49 64.0374 112.165 64.0721 111.896 64.1185C111.63 64.165 111.412 64.2288 111.242 64.3042C111.075 64.3855 110.952 64.4725 110.875 64.5769C110.801 64.6872 110.764 64.8031 110.764 64.9308C110.764 65.0584 110.783 65.1629 110.824 65.2499C110.864 65.3427 110.918 65.4182 110.986 65.4763C111.057 65.5285 111.139 65.5749 111.232 65.5981C111.328 65.6271 111.43 65.6386 111.539 65.6386C111.684 65.6386 111.817 65.6213 111.938 65.5981C112.059 65.5633 112.171 65.5227 112.277 65.4647C112.385 65.4124 112.487 65.3428 112.583 65.2673C112.682 65.1861 112.778 65.0991 112.871 65.0005V64.0258ZM110.202 62.1052C110.462 61.8558 110.741 61.6701 111.042 61.5425C111.342 61.4206 111.674 61.3568 112.04 61.3568C112.303 61.3568 112.537 61.4032 112.741 61.4902C112.945 61.5772 113.117 61.6933 113.256 61.85C113.395 62.0066 113.5 62.1923 113.572 62.4128C113.643 62.6332 113.678 62.8711 113.678 63.138V66.1434H113.312C113.231 66.1434 113.169 66.1318 113.126 66.1086C113.083 66.0796 113.048 66.0274 113.024 65.9461L112.931 65.5052C112.807 65.6154 112.686 65.7199 112.569 65.8069C112.451 65.8939 112.328 65.9694 112.198 66.0332C112.068 66.0913 111.929 66.1377 111.78 66.1667C111.634 66.2015 111.472 66.2188 111.293 66.2188C111.11 66.2188 110.938 66.1957 110.777 66.1434C110.616 66.0912 110.476 66.0159 110.355 65.9114C110.237 65.807 110.143 65.6792 110.072 65.5284C110.003 65.3659 109.97 65.1803 109.97 64.9714C109.97 64.7858 110.021 64.6059 110.123 64.4377C110.225 64.2636 110.39 64.1069 110.62 63.9735C110.848 63.84 111.147 63.7356 111.515 63.6485C111.883 63.5615 112.335 63.5151 112.871 63.5035V63.138C112.871 62.7725 112.792 62.4939 112.634 62.3082C112.476 62.1226 112.245 62.0239 111.942 62.0239C111.738 62.0239 111.567 62.053 111.427 62.1052C111.291 62.1575 111.172 62.2097 111.07 62.2793C110.971 62.3374 110.884 62.3953 110.81 62.4475C110.739 62.4997 110.667 62.523 110.596 62.523C110.541 62.523 110.493 62.5113 110.453 62.4823C110.412 62.4475 110.378 62.4127 110.35 62.3721L110.202 62.1052ZM115.721 62.3837C115.87 62.0646 116.052 61.8093 116.269 61.6294C116.486 61.4496 116.75 61.3568 117.063 61.3568C117.161 61.3568 117.256 61.3684 117.346 61.3916C117.439 61.4148 117.521 61.4438 117.592 61.4902L117.532 62.111C117.513 62.1865 117.467 62.2271 117.392 62.2271C117.349 62.2271 117.286 62.2154 117.202 62.198C117.119 62.1806 117.024 62.169 116.919 62.169C116.77 62.169 116.637 62.1923 116.52 62.2329C116.405 62.2793 116.302 62.3432 116.209 62.4302C116.119 62.5114 116.037 62.6215 115.963 62.7434C115.891 62.871 115.826 63.0103 115.768 63.1727V66.1434H114.937V61.4437H115.41C115.5 61.4437 115.562 61.4612 115.596 61.4902C115.63 61.525 115.653 61.5831 115.666 61.6701L115.721 62.3837ZM120.794 64.0258C120.414 64.0374 120.089 64.0721 119.819 64.1185C119.553 64.165 119.335 64.2288 119.165 64.3042C118.998 64.3855 118.875 64.4725 118.798 64.5769C118.724 64.6872 118.687 64.8031 118.687 64.9308C118.687 65.0584 118.707 65.1629 118.747 65.2499C118.787 65.3427 118.842 65.4182 118.91 65.4763C118.981 65.5285 119.063 65.5749 119.156 65.5981C119.251 65.6271 119.353 65.6386 119.462 65.6386C119.608 65.6386 119.74 65.6213 119.861 65.5981C119.982 65.5633 120.095 65.5227 120.2 65.4647C120.309 65.4124 120.411 65.3428 120.506 65.2673C120.606 65.1861 120.701 65.0991 120.794 65.0005V64.0258ZM118.125 62.1052C118.385 61.8558 118.665 61.6701 118.965 61.5425C119.265 61.4206 119.598 61.3568 119.963 61.3568C120.226 61.3568 120.46 61.4032 120.664 61.4902C120.868 61.5772 121.04 61.6933 121.179 61.85C121.319 62.0066 121.424 62.1923 121.495 62.4128C121.566 62.6332 121.602 62.8711 121.602 63.138V66.1434H121.235C121.154 66.1434 121.093 66.1318 121.049 66.1086C121.006 66.0796 120.972 66.0274 120.947 65.9461L120.854 65.5052C120.731 65.6154 120.61 65.7199 120.492 65.8069C120.375 65.8939 120.251 65.9694 120.121 66.0332C119.991 66.0913 119.852 66.1377 119.703 66.1667C119.558 66.2015 119.395 66.2188 119.216 66.2188C119.033 66.2188 118.861 66.1957 118.701 66.1434C118.54 66.0912 118.399 66.0159 118.278 65.9114C118.161 65.807 118.067 65.6792 117.995 65.5284C117.927 65.3659 117.893 65.1803 117.893 64.9714C117.893 64.7858 117.944 64.6059 118.046 64.4377C118.148 64.2636 118.314 64.1069 118.543 63.9735C118.772 63.84 119.07 63.7356 119.439 63.6485C119.807 63.5615 120.259 63.5151 120.794 63.5035V63.138C120.794 62.7725 120.715 62.4939 120.557 62.3082C120.4 62.1226 120.169 62.0239 119.866 62.0239C119.662 62.0239 119.49 62.053 119.351 62.1052C119.214 62.1575 119.095 62.2097 118.993 62.2793C118.894 62.3374 118.808 62.3953 118.733 62.4475C118.662 62.4997 118.591 62.523 118.52 62.523C118.464 62.523 118.416 62.5113 118.376 62.4823C118.336 62.4475 118.302 62.4127 118.274 62.3721L118.125 62.1052ZM124.241 66.2188C123.869 66.2188 123.583 66.1145 123.382 65.9056C123.183 65.6967 123.085 65.4008 123.085 65.0121V62.1343H122.518C122.469 62.1343 122.427 62.1168 122.393 62.0936C122.359 62.0588 122.342 62.0124 122.342 61.9544V61.6236L123.113 61.525L123.303 60.0745C123.312 60.0281 123.332 59.9875 123.363 59.9585C123.397 59.9295 123.44 59.912 123.493 59.912H123.911V61.5367H125.271V62.1343H123.911V64.954C123.911 65.1513 123.959 65.3021 124.055 65.395C124.151 65.4936 124.274 65.54 124.426 65.54C124.513 65.54 124.587 65.5284 124.649 65.5052C124.714 65.482 124.77 65.4588 124.816 65.4298C124.863 65.4008 124.901 65.3775 124.932 65.3543C124.966 65.3311 124.995 65.3196 125.02 65.3196C125.063 65.3196 125.102 65.3427 125.136 65.395L125.378 65.7895C125.235 65.9229 125.063 66.0274 124.863 66.1086C124.661 66.1782 124.454 66.2188 124.241 66.2188ZM19.177 77.2022C19.177 77.0107 19.1492 76.8366 19.0935 76.6799C19.0407 76.5175 18.9618 76.384 18.8568 76.268C18.7547 76.152 18.6293 76.0591 18.4808 75.9953C18.3323 75.9315 18.1634 75.9025 17.9749 75.9025C17.5786 75.9025 17.2647 76.0185 17.0326 76.2506C16.8034 76.4768 16.6613 76.796 16.6056 77.2022H19.177ZM19.8454 79.407C19.7433 79.5346 19.6209 79.639 19.4787 79.7318C19.3366 79.8246 19.1834 79.9001 19.0192 79.9582C18.8585 80.0162 18.6914 80.0568 18.5179 80.0858C18.3444 80.1206 18.1727 80.1322 18.0027 80.1322C17.6778 80.1322 17.3778 80.08 17.1022 79.9698C16.8301 79.8595 16.5934 79.697 16.3921 79.4882C16.1942 79.2735 16.0393 79.0123 15.9279 78.699C15.8165 78.3857 15.7608 78.0261 15.7608 77.6199C15.7608 77.295 15.8101 76.9874 15.9093 76.7031C16.0115 76.4188 16.1571 76.1751 16.3456 75.9663C16.5342 75.7574 16.7651 75.5892 17.0373 75.4732C17.3094 75.3513 17.6157 75.2933 17.9563 75.2933C18.2377 75.2933 18.4976 75.3397 18.7361 75.4383C18.9775 75.5312 19.1846 75.6646 19.3581 75.8445C19.5345 76.0185 19.672 76.2391 19.7712 76.506C19.8704 76.7613 19.9197 77.0628 19.9197 77.3936C19.9197 77.527 19.9058 77.6141 19.8779 77.6548C19.8501 77.6954 19.7973 77.7185 19.7201 77.7185H16.5777C16.587 78.0144 16.627 78.2755 16.6984 78.496C16.7727 78.7165 16.8748 78.8963 17.0048 79.0472C17.1347 79.1922 17.2896 79.3025 17.4689 79.378C17.6482 79.4476 17.8495 79.4823 18.0723 79.4823C18.2795 79.4823 18.4576 79.4592 18.6061 79.4128C18.7576 79.3664 18.8875 79.3142 18.996 79.2561C19.1045 79.1981 19.1939 79.1517 19.2652 79.1053C19.3395 79.0531 19.4028 79.0298 19.4556 79.0298C19.5234 79.0298 19.5762 79.0531 19.6134 79.1053L19.8454 79.407ZM24.7331 80.0684H23.9394C23.8709 80.0684 23.817 80.0509 23.7769 80.0161C23.7398 79.9813 23.7085 79.9407 23.6841 79.8943L22.5005 78.0551C22.4877 78.0957 22.4738 78.1421 22.4587 78.1827C22.4459 78.2233 22.4274 78.2639 22.403 78.2929L21.3076 79.8943C21.2762 79.9407 21.2426 79.9813 21.2054 80.0161C21.1712 80.0509 21.123 80.0684 21.0615 80.0684H20.3235L21.9713 77.6548L20.3885 75.3686H21.1822C21.2501 75.3686 21.2994 75.3745 21.3308 75.3977C21.3615 75.4209 21.3894 75.45 21.4143 75.4906L22.5701 77.2543C22.5944 77.1673 22.6333 77.0803 22.6861 76.9932L23.698 75.5079C23.7258 75.4673 23.7549 75.4325 23.7862 75.4093C23.8198 75.3803 23.8605 75.3686 23.9069 75.3686H24.6681L23.0853 77.6141L24.7331 80.0684ZM26.3675 75.3686V80.0684H25.5413V75.3686H26.3675ZM26.5439 73.8892C26.5439 73.9705 26.5265 74.0458 26.4929 74.1155C26.4615 74.1851 26.4186 74.2489 26.3629 74.3012C26.3101 74.3534 26.2468 74.3998 26.1726 74.4288C26.1012 74.4578 26.0252 74.4752 25.9451 74.4752C25.8645 74.4752 25.7885 74.4578 25.7177 74.4288C25.6492 74.3998 25.5889 74.3534 25.5367 74.3012C25.4839 74.2489 25.4421 74.1851 25.4113 74.1155C25.38 74.0458 25.3649 73.9705 25.3649 73.8892C25.3649 73.808 25.38 73.7325 25.4113 73.6629C25.4421 73.5875 25.4839 73.5236 25.5367 73.4714C25.5889 73.4191 25.6492 73.3727 25.7177 73.3437C25.7885 73.3089 25.8645 73.2974 25.9451 73.2974C26.0252 73.2974 26.1012 73.3089 26.1726 73.3437C26.2468 73.3727 26.3101 73.4191 26.3629 73.4714C26.4186 73.5236 26.4615 73.5875 26.4929 73.6629C26.5265 73.7325 26.5439 73.808 26.5439 73.8892ZM30.4632 76.1404C30.4261 76.21 30.3692 76.2448 30.2915 76.2448C30.245 76.2448 30.1928 76.2274 30.1336 76.1926C30.075 76.1578 30.0025 76.1229 29.9155 76.0823C29.8319 76.0359 29.7316 76.0011 29.6138 75.9663C29.4966 75.9257 29.3573 75.9083 29.196 75.9083C29.0568 75.9083 28.9314 75.9257 28.82 75.9663C28.7086 76.0011 28.6129 76.0475 28.5323 76.1113C28.4551 76.1693 28.3948 76.2448 28.3513 76.3261C28.3112 76.4073 28.2909 76.4943 28.2909 76.5929C28.2909 76.7148 28.3251 76.8134 28.393 76.8947C28.4644 76.9759 28.5572 77.0454 28.6715 77.1035C28.7864 77.1615 28.9164 77.2137 29.0614 77.2601C29.2071 77.3007 29.3556 77.353 29.507 77.4052C29.6619 77.4516 29.8122 77.5096 29.9572 77.5735C30.1029 77.6315 30.2328 77.7128 30.3471 77.8056C30.462 77.8985 30.5531 78.0086 30.621 78.1478C30.6924 78.2813 30.7278 78.438 30.7278 78.6295C30.7278 78.8441 30.6895 79.0472 30.6117 79.2329C30.5346 79.4128 30.4203 79.5751 30.2682 79.7086C30.1168 79.842 29.9311 79.9465 29.7113 80.0277C29.4919 80.1031 29.2378 80.1437 28.95 80.1437C28.6222 80.1437 28.3251 80.0916 28.0588 79.9872C27.7931 79.877 27.5668 79.7376 27.3811 79.5693L27.5761 79.2561C27.601 79.2155 27.6306 79.1864 27.6643 79.1632C27.6985 79.14 27.742 79.1284 27.7942 79.1284C27.8499 79.1284 27.9091 79.1516 27.9706 79.1981C28.0327 79.2387 28.107 79.2851 28.1934 79.3373C28.2834 79.3895 28.3919 79.4417 28.5183 79.4823C28.6454 79.5288 28.8032 79.5462 28.9918 79.5462C29.1531 79.5462 29.2935 79.5288 29.4142 79.4882C29.5349 79.4475 29.6358 79.3895 29.7159 79.3141C29.7965 79.2444 29.8551 79.1633 29.8923 79.0704C29.9329 78.9776 29.9526 78.879 29.9526 78.7745C29.9526 78.6411 29.9172 78.5366 29.8459 78.4554C29.778 78.3683 29.6869 78.293 29.572 78.235C29.4577 78.1711 29.326 78.1189 29.1775 78.0783C29.0324 78.0319 28.8821 77.9855 28.7272 77.9332C28.5758 77.881 28.4255 77.8288 28.277 77.765C28.1319 77.7011 28.002 77.62 27.8871 77.5271C27.7728 77.4285 27.68 77.3124 27.6086 77.1731C27.5407 77.0281 27.5065 76.8599 27.5065 76.6568C27.5065 76.477 27.5436 76.3028 27.6179 76.1404C27.6921 75.9721 27.8006 75.8271 27.9428 75.7052C28.0855 75.5776 28.2602 75.4789 28.4673 75.4035C28.675 75.3281 28.9117 75.2933 29.1775 75.2933C29.4873 75.2933 29.764 75.3397 30.0083 75.4383C30.2561 75.537 30.4696 75.6704 30.6489 75.8386L30.4632 76.1404ZM33.1844 80.1437C32.813 80.1437 32.527 80.0394 32.3256 79.8305C32.1278 79.6217 32.0286 79.3257 32.0286 78.937V76.0592H31.4623C31.413 76.0592 31.3712 76.0418 31.337 76.0185C31.3028 75.9837 31.2859 75.9373 31.2859 75.8793V75.5485L32.0564 75.45L32.2467 73.9994C32.256 73.953 32.2763 73.9124 32.3071 73.8834C32.3413 73.8544 32.3843 73.837 32.4371 73.837H32.8548V75.4616H34.2148V76.0592H32.8548V78.8789C32.8548 79.0762 32.9029 79.227 32.9987 79.3199C33.0944 79.4185 33.2186 79.4649 33.37 79.4649C33.4565 79.4649 33.5307 79.4533 33.5928 79.4301C33.6578 79.4069 33.7135 79.3837 33.7599 79.3547C33.8063 79.3257 33.8452 79.3024 33.8759 79.2792C33.9102 79.256 33.9392 79.2445 33.9641 79.2445C34.0077 79.2445 34.046 79.2677 34.0802 79.3199L34.3215 79.7144C34.1794 79.8478 34.0077 79.9523 33.8063 80.0335C33.605 80.1031 33.3979 80.1437 33.1844 80.1437ZM38.188 77.2022C38.188 77.0107 38.1602 76.8366 38.1045 76.6799C38.0517 76.5175 37.9728 76.384 37.8678 76.268C37.7656 76.152 37.6403 76.0591 37.4918 75.9953C37.3433 75.9315 37.1744 75.9025 36.9859 75.9025C36.5896 75.9025 36.2757 76.0185 36.0436 76.2506C35.8144 76.4768 35.6723 76.796 35.6166 77.2022H38.188ZM38.8564 79.407C38.7543 79.5346 38.6319 79.639 38.4898 79.7318C38.347 79.8246 38.1938 79.9001 38.0302 79.9582C37.8689 80.0162 37.7018 80.0568 37.5289 80.0858C37.3554 80.1206 37.1837 80.1322 37.0137 80.1322C36.6888 80.1322 36.3882 80.08 36.1132 79.9698C35.8405 79.8595 35.6038 79.697 35.4031 79.4882C35.2046 79.2735 35.0503 79.0123 34.9389 78.699C34.8275 78.3857 34.7718 78.0261 34.7718 77.6199C34.7718 77.295 34.8211 76.9874 34.9203 76.7031C35.0224 76.4188 35.1675 76.1751 35.3566 75.9663C35.5452 75.7574 35.7755 75.5892 36.0482 75.4732C36.3204 75.3513 36.6267 75.2933 36.9673 75.2933C37.2487 75.2933 37.5086 75.3397 37.7471 75.4383C37.9885 75.5312 38.1956 75.6646 38.3691 75.8445C38.5454 76.0185 38.683 76.2391 38.7822 76.506C38.8808 76.7613 38.9307 77.0628 38.9307 77.3936C38.9307 77.527 38.9168 77.6141 38.8889 77.6548C38.8611 77.6954 38.8083 77.7185 38.7311 77.7185H35.5887C35.598 78.0144 35.638 78.2755 35.7094 78.496C35.7837 78.7165 35.8858 78.8963 36.0158 79.0472C36.1457 79.1922 36.3 79.3025 36.4799 79.378C36.6592 79.4476 36.8605 79.4823 37.0833 79.4823C37.2905 79.4823 37.4686 79.4592 37.6171 79.4128C37.7686 79.3664 37.8985 79.3142 38.007 79.2561C38.1149 79.1981 38.2049 79.1517 38.2762 79.1053C38.3505 79.0531 38.4137 79.0298 38.4665 79.0298C38.5344 79.0298 38.5872 79.0531 38.6244 79.1053L38.8564 79.407ZM40.7253 76.0476C40.8274 75.9315 40.9353 75.8329 41.0502 75.7401C41.1645 75.6472 41.2852 75.5659 41.4122 75.5021C41.5422 75.4325 41.678 75.3804 41.8207 75.3456C41.9658 75.3107 42.1224 75.2933 42.2895 75.2933C42.546 75.2933 42.7722 75.3339 42.9672 75.4209C43.165 75.5079 43.3292 75.6241 43.4592 75.7865C43.5921 75.9374 43.6924 76.1288 43.7609 76.3435C43.8288 76.564 43.863 76.8077 43.863 77.0746V80.0684H43.0322V77.0746C43.0322 76.7206 42.9498 76.442 42.7862 76.2506C42.6249 76.0475 42.3789 75.9489 42.0481 75.9489C41.8033 75.9489 41.5747 76.0127 41.3612 76.1287C41.1506 76.2448 40.9556 76.4073 40.7763 76.6046V80.0684H39.9455V75.3686H40.4421C40.5593 75.3686 40.6324 75.4209 40.6603 75.5369L40.7253 76.0476ZM46.5018 80.1437C46.1305 80.1437 45.8444 80.0394 45.6431 79.8305C45.4452 79.6217 45.346 79.3257 45.346 78.937V76.0592H44.7797C44.7304 76.0592 44.6887 76.0418 44.6544 76.0185C44.6208 75.9837 44.6034 75.9373 44.6034 75.8793V75.5485L45.3739 75.45L45.5642 73.9994C45.5735 73.953 45.5938 73.9124 45.6245 73.8834C45.6588 73.8544 45.7023 73.837 45.7545 73.837H46.1722V75.4616H47.5322V76.0592H46.1722V78.8789C46.1722 79.0762 46.2204 79.227 46.3161 79.3199C46.4124 79.4185 46.536 79.4649 46.6875 79.4649C46.7745 79.4649 46.8488 79.4533 46.9103 79.4301C46.9752 79.4069 47.0309 79.3837 47.0774 79.3547C47.1238 79.3257 47.1626 79.3024 47.1934 79.2792C47.2276 79.256 47.2572 79.2445 47.2816 79.2445C47.3251 79.2445 47.364 79.2677 47.3976 79.3199L47.639 79.7144C47.4968 79.8478 47.3251 79.9523 47.1238 80.0335C46.923 80.1031 46.7153 80.1437 46.5018 80.1437ZM49.2584 75.3686V80.0684H48.4321V75.3686H49.2584ZM49.4347 73.8892C49.4347 73.9705 49.4173 74.0458 49.3837 74.1155C49.3523 74.1851 49.3094 74.2489 49.2537 74.3012C49.2009 74.3534 49.1377 74.3998 49.0634 74.4288C48.992 74.4578 48.916 74.4752 48.836 74.4752C48.7553 74.4752 48.6793 74.4578 48.6085 74.4288C48.5401 74.3998 48.4797 74.3534 48.4275 74.3012C48.3747 74.2489 48.3329 74.1851 48.3022 74.1155C48.2708 74.0458 48.2558 73.9705 48.2558 73.8892C48.2558 73.808 48.2708 73.7325 48.3022 73.6629C48.3329 73.5875 48.3747 73.5236 48.4275 73.4714C48.4797 73.4191 48.5401 73.3727 48.6085 73.3437C48.6793 73.3089 48.7553 73.2974 48.836 73.2974C48.916 73.2974 48.992 73.3089 49.0634 73.3437C49.1377 73.3727 49.2009 73.4191 49.2537 73.4714C49.3094 73.5236 49.3523 73.5875 49.3837 73.6629C49.4173 73.7325 49.4347 73.808 49.4347 73.8892ZM53.7625 77.2022C53.7625 77.0107 53.7346 76.8366 53.6789 76.6799C53.6267 76.5175 53.5478 76.384 53.4422 76.268C53.3401 76.152 53.2148 76.0591 53.0662 75.9953C52.9177 75.9315 52.7494 75.9025 52.5603 75.9025C52.1646 75.9025 51.8501 76.0185 51.618 76.2506C51.3894 76.4768 51.2467 76.796 51.191 77.2022H53.7625ZM54.4309 79.407C54.3288 79.5346 54.2069 79.639 54.0642 79.7318C53.922 79.8246 53.7689 79.9001 53.6047 79.9582C53.4439 80.0162 53.2768 80.0568 53.1034 80.0858C52.9305 80.1206 52.7587 80.1322 52.5881 80.1322C52.2632 80.1322 51.9633 80.08 51.6877 79.9698C51.4155 79.8595 51.1788 79.697 50.9775 79.4882C50.7796 79.2735 50.6247 79.0123 50.5133 78.699C50.4019 78.3857 50.3462 78.0261 50.3462 77.6199C50.3462 77.295 50.3961 76.9874 50.4948 76.7031C50.5969 76.4188 50.7425 76.1751 50.9311 75.9663C51.1202 75.7574 51.3506 75.5892 51.6227 75.4732C51.8954 75.3513 52.2017 75.2933 52.5417 75.2933C52.8237 75.2933 53.0836 75.3397 53.3215 75.4383C53.5629 75.5312 53.7706 75.6646 53.9435 75.8445C54.1199 76.0185 54.258 76.2391 54.3566 76.506C54.4558 76.7613 54.5051 77.0628 54.5051 77.3936C54.5051 77.527 54.4912 77.6141 54.4634 77.6548C54.4355 77.6954 54.3833 77.7185 54.3055 77.7185H51.1632C51.1724 78.0144 51.2131 78.2755 51.2838 78.496C51.3581 78.7165 51.4602 78.8963 51.5902 79.0472C51.7201 79.1922 51.8751 79.3025 52.0544 79.378C52.2342 79.4476 52.435 79.4823 52.6578 79.4823C52.8655 79.4823 53.043 79.4592 53.1916 79.4128C53.3436 79.3664 53.4735 79.3142 53.5815 79.2561C53.6899 79.1981 53.7799 79.1517 53.8507 79.1053C53.9249 79.0531 53.9888 79.0298 54.041 79.0298C54.1094 79.0298 54.1617 79.0531 54.1988 79.1053L54.4309 79.407ZM61.0423 77.2022C61.0423 77.0107 61.0145 76.8366 60.9588 76.6799C60.9066 76.5175 60.8276 76.384 60.722 76.268C60.6199 76.152 60.4946 76.0591 60.3461 75.9953C60.1975 75.9315 60.0293 75.9025 59.8401 75.9025C59.4444 75.9025 59.13 76.0185 58.8979 76.2506C58.6693 76.4768 58.5265 76.796 58.4708 77.2022H61.0423ZM61.7107 79.407C61.6086 79.5346 61.4868 79.639 61.344 79.7318C61.2019 79.8246 61.0487 79.9001 60.8845 79.9582C60.7238 80.0162 60.5567 80.0568 60.3832 80.0858C60.2103 80.1206 60.0386 80.1322 59.868 80.1322C59.5431 80.1322 59.2431 80.08 58.9675 79.9698C58.6954 79.8595 58.4587 79.697 58.2573 79.4882C58.0595 79.2735 57.9045 79.0123 57.7931 78.699C57.6817 78.3857 57.6261 78.0261 57.6261 77.6199C57.6261 77.295 57.676 76.9874 57.7746 76.7031C57.8767 76.4188 58.0223 76.1751 58.2109 75.9663C58.4001 75.7574 58.6304 75.5892 58.9025 75.4732C59.1752 75.3513 59.4816 75.2933 59.8216 75.2933C60.1035 75.2933 60.3635 75.3397 60.6013 75.4383C60.8427 75.5312 61.0504 75.6646 61.2233 75.8445C61.3997 76.0185 61.5378 76.2391 61.6364 76.506C61.7356 76.7613 61.785 77.0628 61.785 77.3936C61.785 77.527 61.7711 77.6141 61.7432 77.6548C61.7154 77.6954 61.6631 77.7185 61.5854 77.7185H58.443C58.4523 78.0144 58.4929 78.2755 58.5637 78.496C58.6379 78.7165 58.74 78.8963 58.87 79.0472C59 79.1922 59.1549 79.3025 59.3342 79.378C59.514 79.4476 59.7148 79.4823 59.9376 79.4823C60.1453 79.4823 60.3229 79.4592 60.4714 79.4128C60.6234 79.3664 60.7534 79.3142 60.8613 79.2561C60.9698 79.1981 61.0597 79.1517 61.1305 79.1053C61.2048 79.0531 61.2686 79.0298 61.3208 79.0298C61.3893 79.0298 61.4415 79.0531 61.4786 79.1053L61.7107 79.407ZM65.5383 76.1404C65.5012 76.21 65.4443 76.2448 65.3666 76.2448C65.3202 76.2448 65.2679 76.2274 65.2087 76.1926C65.1501 76.1578 65.0776 76.1229 64.9906 76.0823C64.907 76.0359 64.8067 76.0011 64.6889 75.9663C64.5717 75.9257 64.4324 75.9083 64.2712 75.9083C64.1319 75.9083 64.0066 75.9257 63.8952 75.9663C63.7838 76.0011 63.6881 76.0475 63.6074 76.1113C63.5302 76.1693 63.4699 76.2448 63.4264 76.3261C63.3863 76.4073 63.366 76.4943 63.366 76.5929C63.366 76.7148 63.4002 76.8134 63.4681 76.8947C63.5395 76.9759 63.6323 77.0454 63.7467 77.1035C63.8615 77.1615 63.9915 77.2137 64.1365 77.2601C64.2822 77.3007 64.4307 77.353 64.5821 77.4052C64.7371 77.4516 64.8873 77.5096 65.0324 77.5735C65.178 77.6315 65.308 77.7128 65.4223 77.8056C65.5372 77.8985 65.6282 78.0086 65.6961 78.1478C65.7675 78.2813 65.8029 78.438 65.8029 78.6295C65.8029 78.8441 65.7646 79.0472 65.6869 79.2329C65.6097 79.4128 65.4954 79.5751 65.3433 79.7086C65.1919 79.842 65.0063 79.9465 64.7864 80.0277C64.5671 80.1031 64.3129 80.1437 64.0251 80.1437C63.6973 80.1437 63.4003 80.0916 63.1339 79.9872C62.8682 79.877 62.6419 79.7376 62.4563 79.5693L62.6512 79.2561C62.6762 79.2155 62.7057 79.1864 62.7394 79.1632C62.7736 79.14 62.8172 79.1284 62.8694 79.1284C62.9251 79.1284 62.9843 79.1516 63.0458 79.1981C63.1078 79.2387 63.1821 79.2851 63.2685 79.3373C63.3585 79.3895 63.467 79.4417 63.5935 79.4823C63.7205 79.5288 63.8784 79.5462 64.0669 79.5462C64.2282 79.5462 64.3686 79.5288 64.4893 79.4882C64.61 79.4475 64.7109 79.3895 64.791 79.3141C64.8717 79.2444 64.9303 79.1633 64.9674 79.0704C65.008 78.9776 65.0277 78.879 65.0277 78.7745C65.0277 78.6411 64.9923 78.5366 64.921 78.4554C64.8531 78.3683 64.762 78.293 64.6471 78.235C64.5328 78.1711 64.4011 78.1189 64.2526 78.0783C64.1075 78.0319 63.9573 77.9855 63.8024 77.9332C63.6509 77.881 63.5006 77.8288 63.3521 77.765C63.2071 77.7011 63.0771 77.62 62.9622 77.5271C62.8479 77.4285 62.7551 77.3124 62.6837 77.1731C62.6158 77.0281 62.5816 76.8599 62.5816 76.6568C62.5816 76.477 62.6187 76.3028 62.693 76.1404C62.7672 75.9721 62.8757 75.8271 63.0179 75.7052C63.1606 75.5776 63.3353 75.4789 63.5424 75.4035C63.7501 75.3281 63.9869 75.2933 64.2526 75.2933C64.5624 75.2933 64.8392 75.3397 65.0834 75.4383C65.3312 75.537 65.5447 75.6704 65.724 75.8386L65.5383 76.1404ZM73.0578 75.3686V80.0684H72.5657C72.448 80.0684 72.3737 80.0103 72.343 79.8943L72.278 79.3896C72.0737 79.6158 71.8445 79.8015 71.591 79.9407C71.3374 80.0742 71.0462 80.1437 70.7184 80.1437C70.4614 80.1437 70.2339 80.1031 70.036 80.0161C69.8411 79.9291 69.6769 79.8073 69.5441 79.6564C69.4112 79.4998 69.3102 79.3141 69.2423 79.0937C69.1774 78.8732 69.1449 78.6295 69.1449 78.3626V75.3686H69.9711V78.3626C69.9711 78.7223 70.0517 78.995 70.2124 79.1922C70.3766 79.3837 70.6256 79.4823 70.9598 79.4823C71.204 79.4823 71.4314 79.4243 71.6421 79.3141C71.8556 79.1922 72.0523 79.0357 72.2315 78.8268V75.3686H73.0578ZM75.1477 76.0476C75.2498 75.9315 75.3583 75.8329 75.4726 75.7401C75.5869 75.6472 75.7076 75.5659 75.8346 75.5021C75.9646 75.4325 76.1009 75.3804 76.2431 75.3456C76.3887 75.3107 76.5448 75.2933 76.7119 75.2933C76.9689 75.2933 77.1946 75.3339 77.3896 75.4209C77.5874 75.5079 77.7516 75.6241 77.8816 75.7865C78.0145 75.9374 78.1154 76.1288 78.1833 76.3435C78.2512 76.564 78.2854 76.8077 78.2854 77.0746V80.0684H77.4546V77.0746C77.4546 76.7206 77.3727 76.442 77.2085 76.2506C77.0478 76.0475 76.8018 75.9489 76.4705 75.9489C76.2263 75.9489 75.9971 76.0127 75.7836 76.1287C75.5729 76.2448 75.378 76.4073 75.1987 76.6046V80.0684H74.3679V75.3686H74.8645C74.9823 75.3686 75.0548 75.4209 75.0827 75.5369L75.1477 76.0476ZM81.9198 80.0684V75.3686H82.4165C82.5337 75.3686 82.6068 75.4209 82.6346 75.5369L82.695 76.0185C82.8679 75.8097 83.0628 75.6299 83.2798 75.4964C83.4962 75.363 83.7469 75.2933 84.0318 75.2933C84.3474 75.2933 84.6027 75.3803 84.7976 75.5544C84.9955 75.7342 85.1376 75.9721 85.2247 76.2738C85.2926 76.0997 85.379 75.9547 85.4846 75.8328C85.5925 75.7052 85.7132 75.6065 85.8466 75.5253C85.9795 75.4441 86.1205 75.3862 86.269 75.3456C86.4205 75.3107 86.5736 75.2933 86.7286 75.2933C86.9757 75.2933 87.1956 75.3339 87.3877 75.4151C87.5826 75.4905 87.7462 75.6066 87.8797 75.7575C88.0155 75.9083 88.1193 76.094 88.1907 76.3203C88.2615 76.5349 88.2974 76.7903 88.2974 77.0746V80.0684H87.4666V77.0746C87.4666 76.709 87.3859 76.4304 87.2252 76.239C87.0639 76.0475 86.8318 75.9489 86.529 75.9489C86.3926 75.9489 86.2627 75.9779 86.1391 76.0243C86.0184 76.0708 85.9116 76.1403 85.8188 76.2331C85.726 76.326 85.6517 76.4421 85.596 76.5871C85.5432 76.7264 85.5171 76.8889 85.5171 77.0746V80.0684H84.6862V77.0746C84.6862 76.6974 84.6102 76.413 84.4588 76.2273C84.3068 76.0417 84.0857 75.9489 83.795 75.9489C83.5908 75.9489 83.4017 76.0069 83.2288 76.1171C83.0553 76.2274 82.8957 76.3724 82.7507 76.5639V80.0684H81.9198ZM93.492 75.3686L90.8695 81.455C90.8416 81.5188 90.8057 81.5652 90.7627 81.6058C90.7221 81.6407 90.6589 81.6581 90.5724 81.6581H89.9597L90.8184 79.7957L88.8782 75.3686H89.593C89.6638 75.3686 89.7195 75.3861 89.7601 75.4209C89.803 75.4557 89.8327 75.4963 89.8483 75.5369L91.1062 78.5018C91.1555 78.6295 91.1973 78.7629 91.2315 78.908C91.2745 78.7629 91.3209 78.6237 91.3708 78.496L92.5915 75.5369C92.6101 75.4905 92.6408 75.4499 92.6844 75.4151C92.7308 75.3861 92.7818 75.3686 92.8375 75.3686H93.492ZM95.6655 80.1437C95.2941 80.1437 95.0075 80.0394 94.8067 79.8305C94.6083 79.6217 94.5097 79.3257 94.5097 78.937V76.0592H93.9434C93.8935 76.0592 93.8517 76.0418 93.8181 76.0185C93.7838 75.9837 93.767 75.9373 93.767 75.8793V75.5485L94.5375 75.45L94.7278 73.9994C94.7371 73.953 94.7568 73.9124 94.7882 73.8834C94.8218 73.8544 94.8653 73.837 94.9181 73.837H95.3359V75.4616H96.6959V76.0592H95.3359V78.8789C95.3359 79.0762 95.3835 79.227 95.4798 79.3199C95.5755 79.4185 95.6991 79.4649 95.8511 79.4649C95.9376 79.4649 96.0118 79.4533 96.0739 79.4301C96.1389 79.4069 96.1946 79.3837 96.241 79.3547C96.2874 79.3257 96.3257 79.3024 96.357 79.2792C96.3907 79.256 96.4203 79.2445 96.4452 79.2445C96.4882 79.2445 96.5271 79.2677 96.5613 79.3199L96.8026 79.7144C96.6599 79.8478 96.4882 79.9523 96.2874 80.0335C96.0861 80.1031 95.879 80.1437 95.6655 80.1437ZM98.3796 75.9953C98.581 75.7806 98.8038 75.6066 99.048 75.4848C99.2923 75.3572 99.5743 75.2933 99.8928 75.2933C100.15 75.2933 100.376 75.3339 100.57 75.4209C100.768 75.5079 100.933 75.6241 101.063 75.7865C101.195 75.9374 101.296 76.1288 101.364 76.3435C101.432 76.564 101.466 76.8077 101.466 77.0746V80.0684H100.635V77.0746C100.635 76.7206 100.554 76.442 100.389 76.2506C100.229 76.0475 99.9828 75.9489 99.6515 75.9489C99.4072 75.9489 99.178 76.0127 98.9645 76.1287C98.7539 76.2448 98.5589 76.4073 98.3796 76.6046V80.0684H97.5488V73.2335H98.3796V75.9953ZM102.586 79.5578C102.586 79.4766 102.6 79.4011 102.628 79.3315C102.659 79.2619 102.699 79.198 102.749 79.1458C102.801 79.0936 102.863 79.053 102.934 79.0182C103.006 78.9891 103.081 78.9718 103.162 78.9718C103.242 78.9718 103.318 78.9891 103.389 79.0182C103.46 79.053 103.522 79.0936 103.575 79.1458C103.628 79.198 103.669 79.2619 103.7 79.3315C103.731 79.4011 103.747 79.4766 103.747 79.5578C103.747 79.6391 103.731 79.7202 103.7 79.7899C103.669 79.8595 103.628 79.9176 103.575 79.9698C103.522 80.022 103.46 80.0626 103.389 80.0916C103.318 80.1206 103.242 80.1381 103.162 80.1381C103.081 80.1381 103.006 80.1206 102.934 80.0916C102.863 80.0626 102.801 80.022 102.749 79.9698C102.699 79.9176 102.659 79.8595 102.628 79.7899C102.6 79.7202 102.586 79.6391 102.586 79.5578Z" fill="#484848"/>
</g>
<defs>
<filter id="filter0_d_2_1387" x="-24.0142" y="-18.0107" width="218.028" height="145.503" filterUnits="userSpaceOnUse" color-interpolation-filters="sRGB">
<feFlood flood-opacity="0" result="BackgroundImageFix"/>
<feColorMatrix in="SourceAlpha" type="matrix" values="0 0 0 0 0 0 0 0 0 0 0 0 0 0 0 0 0 0 127 0" result="hardAlpha"/>
<feOffset dy="6"/>
<feGaussianBlur stdDeviation="12"/>
<feComposite in2="hardAlpha" operator="out"/>
<feColorMatrix type="matrix" values="0 0 0 0 0.279167 0 0 0 0 0.279167 0 0 0 0 0.279167 0 0 0 0.08 0"/>
<feBlend mode="normal" in2="BackgroundImageFix" result="effect1_dropShadow_2_1387"/>
<feBlend mode="normal" in="SourceGraphic" in2="effect1_dropShadow_2_1387" result="shape"/>
</filter>
</defs>
</svg>
