<svg width="180" height="78" viewBox="0 0 180 78" fill="none" xmlns="http://www.w3.org/2000/svg">
<path d="M36.2355 1.25525V1.95839C35.5637 1.95839 35.0192 2.08042 34.6008 2.31868C34.1824 2.56276 33.7832 3.01026 33.4031 3.66693C33.1497 4.1144 32.7505 5.17203 32.2054 6.84567L25.0192 27.6209H24.2585L18.3839 11.1402L12.5477 27.6209H11.8631L4.20159 6.21808C3.63092 4.61999 3.27005 3.67275 3.11779 3.38219C2.86442 2.89985 2.51575 2.54532 2.07235 2.31868C1.64116 2.08042 1.05189 1.95839 0.30416 1.95839V1.25525H9.8478V1.95839H9.39162C8.71984 1.95839 8.20671 2.1095 7.85164 2.41168C7.49657 2.71968 7.31933 3.0858 7.31933 3.51583C7.31933 3.9633 7.59826 4.98028 8.15614 6.57837L13.2317 21.0425L17.5094 8.74596L16.7492 6.57837L16.1408 4.84656C15.8746 4.21314 15.5765 3.65525 15.247 3.17292C15.0826 2.93466 14.8798 2.73131 14.6386 2.5686C14.3219 2.33615 14.0052 2.17345 13.6885 2.07466C13.4473 1.9933 13.0672 1.95839 12.5477 1.95839V1.25525H22.5855V1.95839H21.9009C21.1914 1.95839 20.6718 2.1095 20.3423 2.41168C20.0128 2.71968 19.8478 3.13228 19.8478 3.64948C19.8478 4.29453 20.1331 5.42188 20.7032 7.0316L25.6463 21.0425L30.5515 6.84567C31.1088 5.27082 31.3878 4.18411 31.3878 3.57393C31.3878 3.28337 31.2925 3.01022 31.1024 2.75453C30.9252 2.50464 30.6968 2.32455 30.4185 2.22575C29.9367 2.04561 29.3091 1.95839 28.5362 1.95839V1.25525H36.2355ZM42.89 0V12.7383C44.2963 11.1925 45.4121 10.2046 46.2355 9.76875C47.0596 9.32709 47.8836 9.10625 48.707 9.10625C49.6955 9.10625 50.5451 9.3794 51.2547 9.92566C51.9643 10.4661 52.4908 11.3261 52.8325 12.4884C53.0736 13.3019 53.1939 14.7838 53.1939 16.9398V23.0997C53.1939 24.2039 53.2828 24.9535 53.4601 25.3603C53.5868 25.6625 53.8024 25.9066 54.1063 26.0809C54.4108 26.261 54.9681 26.3482 55.7793 26.3482V27.0339H47.2246V26.3482H47.6238C48.4345 26.3482 48.9988 26.232 49.3155 25.9879C49.6322 25.7322 49.8542 25.3661 49.9809 24.8838C50.0192 24.6804 50.0378 24.0876 50.0378 23.0997V16.9398C50.0378 15.0395 49.9367 13.7901 49.7339 13.1916C49.5439 12.5988 49.233 12.1572 48.8024 11.8608C48.3712 11.5586 47.8516 11.4075 47.2432 11.4075C46.6226 11.4075 45.9758 11.5702 45.304 11.9014C44.6322 12.2327 43.8273 12.8952 42.89 13.8947V23.0997C42.89 24.291 42.9533 25.0291 43.08 25.3255C43.2195 25.616 43.4665 25.86 43.8215 26.0634C44.1888 26.2552 44.8164 26.3482 45.7032 26.3482V27.0339H37.0724V26.3482C37.8452 26.3482 38.4537 26.232 38.8971 25.9879C39.151 25.86 39.3538 25.6218 39.5055 25.2673C39.6578 24.9128 39.7339 24.1864 39.7339 23.0997V7.33961C39.7339 5.34635 39.6833 4.12602 39.5816 3.66693C39.4927 3.21366 39.3475 2.89979 39.1446 2.73708C38.9546 2.57436 38.6943 2.49305 38.3648 2.49305C38.0986 2.49305 37.668 2.59185 37.0724 2.79525L36.8062 2.12694L42.0154 0H42.89ZM56.2547 9.61765H64.3724V10.3208H63.9732C63.4031 10.3208 62.9719 10.4487 62.6808 10.7043C62.4018 10.9426 62.2624 11.2506 62.2624 11.6167C62.2624 12.1106 62.4716 12.7964 62.89 13.6681L67.1293 22.4547L71.0269 12.8313C71.2419 12.3141 71.35 11.7969 71.35 11.2913C71.35 11.0647 71.3053 10.8961 71.2169 10.7799C71.1152 10.6404 70.9572 10.53 70.7416 10.4544C70.526 10.3673 70.1459 10.3208 69.6008 10.3208V9.61765H75.2662V10.3208C74.7972 10.3731 74.4358 10.4777 74.1824 10.6288C73.929 10.7799 73.6501 11.0646 73.3462 11.483C73.2317 11.6574 73.0167 12.1455 72.6994 12.9475L65.6085 30.3231C64.9239 32.0084 64.0243 33.281 62.9086 34.1469C61.8062 35.007 60.7416 35.437 59.7147 35.437C58.9668 35.437 58.3526 35.222 57.8708 34.792C57.3891 34.3619 57.1485 33.868 57.1485 33.3101C57.1485 32.7755 57.3193 32.3454 57.6616 32.0142C58.0167 31.7003 58.4978 31.5377 59.1063 31.5377C59.5247 31.5377 60.0948 31.6771 60.8177 31.9561C61.3244 32.1478 61.6411 32.2408 61.7678 32.2408C62.1485 32.2408 62.5605 32.049 63.0039 31.6539C63.4601 31.2587 63.9163 30.5033 64.3724 29.3701L65.6085 26.3482L59.3538 13.2148C59.1632 12.8196 58.8593 12.3315 58.4409 11.7503C58.1242 11.3029 57.8644 11.0065 57.6616 10.8554C57.3699 10.6521 56.9009 10.4777 56.2547 10.3208V9.61765ZM18.3648 43.7994V43.0962H27.4908V43.7994H26.5209C25.5068 43.7994 24.7275 44.2236 24.1824 45.0721C23.9163 45.4673 23.7832 46.3796 23.7832 47.8092V58.2694C23.7832 60.8496 23.5234 62.8603 23.0039 64.2957C22.4966 65.7136 21.4895 66.934 19.9809 67.9626C18.4856 68.9738 16.4447 69.4852 13.8593 69.4852C11.0455 69.4852 8.90986 68.997 7.4524 68.0207C5.99494 67.0444 4.9617 65.7311 4.35384 64.0865C3.94822 62.9533 3.74541 60.838 3.74541 57.7348V47.6581C3.74541 46.0716 3.52342 45.0372 3.08002 44.5374C2.64883 44.0435 1.94566 43.7994 0.969374 43.7994H0V43.0962H11.1408V43.7994H10.1523C9.08769 43.7994 8.327 44.1364 7.87081 44.8047C7.5541 45.2638 7.39545 46.2111 7.39545 47.6581V58.8912C7.39545 59.8965 7.48437 61.0414 7.66161 62.3373C7.85164 63.6274 8.18753 64.6327 8.66928 65.3591C9.15103 66.0797 9.84141 66.6783 10.7416 67.1432C11.6539 67.6139 12.7691 67.8463 14.0877 67.8463C15.7729 67.8463 17.2816 67.4802 18.6123 66.748C19.9431 66.01 20.8491 65.0744 21.3308 63.9296C21.8254 62.7789 22.0723 60.8321 22.0723 58.095V47.6581C22.0723 46.0484 21.8945 45.043 21.54 44.6362C21.0455 44.0784 20.3104 43.7994 19.3347 43.7994H18.3648ZM34.2208 54.6374C36.2611 52.1792 38.2067 50.9473 40.057 50.9473C41.0077 50.9473 41.8254 51.1855 42.5093 51.6678C43.1939 52.1386 43.739 52.9173 44.1446 54.0098C44.4236 54.7711 44.5625 55.9333 44.5625 57.5081V64.9407C44.5625 66.0449 44.6514 66.7887 44.8286 67.1839C44.9681 67.4977 45.1901 67.7476 45.494 67.9219C45.8113 68.102 46.3878 68.1892 47.2246 68.1892V68.8749H38.6123V68.1892H38.9732C39.7845 68.1892 40.3487 68.073 40.6654 67.8289C40.9949 67.5732 41.2233 67.2071 41.35 66.7248C41.4006 66.5388 41.4261 65.9402 41.4261 64.9407V57.8103C41.4261 56.2238 41.2169 55.0791 40.7985 54.3701C40.3929 53.6495 39.7019 53.2834 38.7262 53.2834C37.2182 53.2834 35.716 54.1086 34.2208 55.759V64.9407C34.2208 66.1204 34.2905 66.8468 34.4294 67.1258C34.6072 67.4919 34.8478 67.765 35.1523 67.9452C35.469 68.1079 36.1024 68.1892 37.0532 68.1892V68.8749H28.4409V68.1892H28.8215C29.7083 68.1892 30.304 67.9684 30.6085 67.5268C30.9252 67.0677 31.0839 66.2076 31.0839 64.9407V58.4728C31.0839 56.3866 31.0327 55.1081 30.9316 54.6548C30.8427 54.1957 30.6968 53.8878 30.494 53.725C30.304 53.5565 30.0442 53.4751 29.7147 53.4751C29.3597 53.4751 28.9354 53.5681 28.4409 53.7599L28.1561 53.0742L33.4031 50.9473H34.2208V54.6374ZM53.0417 41.841C53.574 41.841 54.0243 42.0328 54.3916 42.4105C54.7717 42.7766 54.9617 43.2299 54.9617 43.7587C54.9617 44.2934 54.7717 44.7466 54.3916 45.1302C54.0243 45.5079 53.574 45.6997 53.0417 45.6997C52.5094 45.6997 52.0532 45.5079 51.6731 45.1302C51.2931 44.7466 51.1024 44.2934 51.1024 43.7587C51.1024 43.2299 51.2867 42.7766 51.6539 42.4105C52.034 42.0328 52.4966 41.841 53.0417 41.841ZM54.62 50.9473V64.9407C54.62 66.0274 54.6955 66.7596 54.8478 67.1258C55.0128 67.4802 55.247 67.7476 55.5515 67.9219C55.8683 68.102 56.4383 68.1892 57.2624 68.1892V68.8749H48.8024V68.1892C49.6514 68.1892 50.222 68.1079 50.5132 67.9452C50.8049 67.7766 51.0327 67.5035 51.1977 67.1258C51.375 66.748 51.4639 66.0158 51.4639 64.9407V58.2288C51.4639 56.3401 51.407 55.1197 51.2931 54.5618C51.2041 54.155 51.0647 53.8761 50.8746 53.725C50.6846 53.5565 50.4249 53.4751 50.0948 53.4751C49.7403 53.4751 49.3091 53.5681 48.8024 53.7599L48.5362 53.0742L53.7832 50.9473H54.62ZM58.5554 51.4586H66.7492V52.1618H66.2169C65.7224 52.1618 65.3423 52.2838 65.0762 52.5279C64.8228 52.7662 64.6955 53.0916 64.6955 53.4926C64.6955 53.94 64.8286 54.463 65.0948 55.0732L69.1446 64.6909L73.2131 54.7129C73.5042 54.004 73.6501 53.4635 73.6501 53.0974C73.6501 52.9172 73.5995 52.7719 73.4978 52.6557C73.359 52.4698 73.1811 52.3419 72.9655 52.278C72.7505 52.2024 72.3129 52.1618 71.6539 52.1618V51.4586H77.3385V52.1618C76.6795 52.2141 76.2233 52.3478 75.9694 52.5628C75.526 52.9405 75.1267 53.5797 74.7717 54.463L68.5931 69.4096H67.8139L61.597 54.7129C61.318 54.0272 61.0519 53.539 60.7985 53.2485C60.5451 52.9405 60.222 52.6906 59.8286 52.4873C59.6136 52.371 59.1888 52.2664 58.5554 52.1618V51.4586ZM81.844 58.0195C81.8312 60.6055 82.4588 62.6337 83.7262 64.1039C84.9937 65.5742 86.4831 66.3063 88.1939 66.3063C89.3347 66.3063 90.3232 65.9984 91.16 65.3766C92.009 64.7431 92.7186 63.6681 93.2892 62.1455L93.8785 62.5232C93.6123 64.2608 92.8388 65.8473 91.5592 67.2769C90.279 68.6948 88.6757 69.4096 86.7492 69.4096C84.6578 69.4096 82.8644 68.596 81.3686 66.9747C79.8862 65.3417 79.1446 63.1451 79.1446 60.3964C79.1446 57.4152 79.9047 55.0964 81.4261 53.4402C82.9597 51.7666 84.8797 50.9298 87.1862 50.9298C89.1382 50.9298 90.7416 51.5748 91.9962 52.8649C93.2509 54.1492 93.8785 55.8635 93.8785 58.0195H81.844ZM81.844 56.9154H89.9047C89.8414 55.7997 89.7083 55.0151 89.5055 54.5618C89.1888 53.847 88.7134 53.2892 88.08 52.8882C87.4588 52.4814 86.8062 52.278 86.1216 52.278C85.0698 52.278 84.1255 52.6906 83.2892 53.5158C82.4652 54.3235 81.9834 55.4568 81.844 56.9154ZM101.312 50.9473V54.864C102.769 52.2548 104.265 50.9473 105.799 50.9473C106.496 50.9473 107.072 51.1623 107.529 51.5923C107.985 52.0107 108.213 52.4989 108.213 53.0567C108.213 53.5507 108.048 53.9691 107.719 54.3119C107.389 54.6548 106.996 54.8233 106.54 54.8233C106.097 54.8233 105.596 54.6083 105.038 54.1783C104.493 53.7366 104.088 53.5158 103.822 53.5158C103.593 53.5158 103.346 53.6378 103.08 53.8935C102.509 54.4107 101.92 55.2708 101.312 56.4621V64.8071C101.312 65.7717 101.432 66.4981 101.673 66.9921C101.838 67.335 102.129 67.6197 102.548 67.8463C102.966 68.0788 103.568 68.1892 104.354 68.1892V68.8749H95.4371V68.1892C96.3244 68.1892 96.9834 68.0497 97.4146 67.7708C97.7313 67.5674 97.9533 67.2478 98.08 66.8004C98.1433 66.5853 98.1747 65.9751 98.1747 64.9582V58.2113C98.1747 56.1832 98.1306 54.9803 98.0417 54.5967C97.9655 54.2074 97.8139 53.9168 97.5855 53.7424C97.3699 53.5623 97.0973 53.4751 96.7678 53.4751C96.375 53.4751 95.9316 53.5681 95.4371 53.7599L95.247 53.0742L100.513 50.9473H101.312ZM120.437 50.9473V56.8805H119.81C119.328 55.0151 118.707 53.7483 117.947 53.0742C117.199 52.4059 116.242 52.0688 115.076 52.0688C114.189 52.0688 113.473 52.3013 112.928 52.772C112.383 53.2427 112.11 53.7599 112.11 54.3294C112.11 55.0383 112.313 55.6485 112.719 56.1541C113.111 56.6771 113.91 57.2292 115.114 57.8103L117.89 59.1586C120.463 60.4138 121.749 62.0699 121.749 64.1213C121.749 65.7078 121.147 66.9863 119.943 67.9626C118.752 68.9273 117.415 69.4096 115.932 69.4096C114.867 69.4096 113.65 69.2178 112.282 68.8343C111.863 68.7123 111.521 68.6483 111.255 68.6483C110.964 68.6483 110.735 68.811 110.57 69.1422H109.943V62.9242H110.57C110.925 64.6967 111.603 66.0333 112.605 66.934C113.606 67.8348 114.728 68.288 115.969 68.288C116.844 68.288 117.554 68.0323 118.099 67.5268C118.656 67.0038 118.935 66.3819 118.935 65.6613C118.935 64.7896 118.625 64.0516 118.004 63.4589C117.395 62.8603 116.172 62.1049 114.335 61.1925C112.497 60.2801 111.293 59.4607 110.722 58.7227C110.152 58.0021 109.867 57.0897 109.867 55.9856C109.867 54.5502 110.355 53.3531 111.331 52.3942C112.319 51.4296 113.593 50.9473 115.152 50.9473C115.836 50.9473 116.667 51.0925 117.642 51.3831C118.289 51.5749 118.72 51.6678 118.935 51.6678C119.138 51.6678 119.297 51.6272 119.411 51.5342C119.525 51.447 119.658 51.2494 119.81 50.9473H120.437ZM128.783 41.841C129.315 41.841 129.765 42.0328 130.133 42.4105C130.513 42.7766 130.703 43.2299 130.703 43.7587C130.703 44.2934 130.513 44.7466 130.133 45.1302C129.765 45.5079 129.315 45.6997 128.783 45.6997C128.251 45.6997 127.795 45.5079 127.415 45.1302C127.034 44.7466 126.844 44.2934 126.844 43.7587C126.844 43.2299 127.028 42.7766 127.395 42.4105C127.776 42.0328 128.238 41.841 128.783 41.841ZM130.362 50.9473V64.9407C130.362 66.0274 130.437 66.7596 130.589 67.1258C130.754 67.4802 130.989 67.7476 131.293 67.9219C131.61 68.102 132.18 68.1892 133.004 68.1892V68.8749H124.544V68.1892C125.393 68.1892 125.964 68.1079 126.255 67.9452C126.546 67.7766 126.774 67.5035 126.939 67.1258C127.116 66.748 127.205 66.0158 127.205 64.9407V58.2288C127.205 56.3401 127.148 55.1197 127.034 54.5618C126.946 54.155 126.806 53.8761 126.616 53.725C126.426 53.5565 126.166 53.4751 125.836 53.4751C125.482 53.4751 125.051 53.5681 124.544 53.7599L124.278 53.0742L129.525 50.9473H130.362ZM140.247 45.7403V51.4586H144.315V52.7894H140.247V64.0865C140.247 65.2139 140.406 65.9752 140.722 66.3645C141.052 66.7597 141.47 66.9572 141.977 66.9572C142.395 66.9572 142.801 66.8294 143.194 66.5737C143.587 66.3064 143.891 65.9229 144.106 65.4173H144.848C144.404 66.6551 143.777 67.5965 142.966 68.2299C142.155 68.8517 141.318 69.1597 140.456 69.1597C139.873 69.1597 139.303 69.0028 138.745 68.6832C138.188 68.3578 137.775 67.8929 137.509 67.2943C137.243 66.6899 137.11 65.7543 137.11 64.5049V52.7894H134.354V52.1618C135.051 51.8828 135.761 51.4179 136.483 50.7554C137.218 50.0871 137.871 49.291 138.441 48.3787C138.733 47.8963 139.138 47.0188 139.658 45.7403H140.247ZM145.038 51.4586H153.156V52.1618H152.757C152.186 52.1618 151.756 52.2897 151.464 52.5453C151.185 52.7836 151.045 53.0916 151.045 53.4577C151.045 53.9516 151.255 54.6374 151.673 55.5091L155.912 64.2957L159.81 54.6723C160.026 54.1551 160.133 53.6379 160.133 53.1323C160.133 52.9056 160.089 52.7371 160 52.6209C159.899 52.4814 159.74 52.371 159.525 52.2954C159.309 52.2083 158.929 52.1618 158.384 52.1618V51.4586H164.049V52.1618C163.58 52.2141 163.219 52.3187 162.966 52.4698C162.712 52.6209 162.433 52.9056 162.129 53.324C162.015 53.4984 161.8 53.9865 161.483 54.7885L154.392 72.1641C153.707 73.8494 152.807 75.122 151.692 75.9879C150.589 76.848 149.525 77.278 148.498 77.278C147.751 77.278 147.136 77.063 146.654 76.6329C146.172 76.2029 145.932 75.709 145.932 75.1511C145.932 74.6165 146.102 74.1864 146.445 73.8552C146.8 73.5413 147.282 73.3787 147.89 73.3787C148.308 73.3787 148.878 73.5181 149.601 73.7971C150.108 73.9888 150.425 74.0818 150.552 74.0818C150.932 74.0818 151.344 73.89 151.787 73.4949C152.243 73.0997 152.699 72.3443 153.156 71.2111L154.392 68.1892L148.137 55.0558C147.947 54.6606 147.642 54.1725 147.225 53.5913C146.907 53.1439 146.648 52.8475 146.445 52.6964C146.154 52.493 145.685 52.3187 145.038 52.1618V51.4586ZM172.909 62.7906H172.129C172.218 61.1925 172.415 59.8733 172.719 58.8389C173.035 57.7871 173.682 56.3284 174.658 54.463C175.418 53.0334 175.912 51.9352 176.141 51.1739C176.369 50.401 176.483 49.6223 176.483 48.8378C176.483 47.2281 176.052 45.9496 175.19 44.9965C174.341 44.0435 173.296 43.5727 172.053 43.5727C170.951 43.5727 170.083 43.8285 169.449 44.3515C168.815 44.8687 168.498 45.4323 168.498 46.0425C168.498 46.5132 168.688 47.0885 169.068 47.7743C169.449 48.4542 169.639 48.9772 169.639 49.3317C169.639 49.785 169.493 50.1743 169.202 50.4881C168.91 50.7961 168.555 50.9473 168.137 50.9473C167.605 50.9473 167.116 50.6858 166.673 50.1686C166.242 49.6339 166.027 48.9017 166.027 47.9603C166.027 46.5307 166.641 45.2638 167.871 44.1597C169.1 43.0555 170.767 42.5035 172.871 42.5035C175.482 42.5035 177.402 43.2648 178.631 44.7873C179.544 45.9031 180 47.1409 180 48.4949C180 49.4189 179.791 50.3719 179.372 51.3482C178.967 52.3245 178.188 53.4693 177.034 54.7885C175.196 56.8689 174.068 58.345 173.65 59.2166C173.244 60.0767 172.997 61.268 172.909 62.7906ZM172.642 65.1499C173.238 65.1499 173.739 65.3592 174.145 65.7776C174.563 66.1844 174.772 66.6841 174.772 67.2769C174.772 67.8638 174.563 68.3635 174.145 68.7819C173.726 69.1829 173.226 69.3863 172.642 69.3863C172.06 69.3863 171.559 69.1829 171.141 68.7819C170.735 68.3635 170.532 67.8638 170.532 67.2769C170.532 66.6841 170.735 66.1844 171.141 65.7776C171.559 65.3592 172.06 65.1499 172.642 65.1499Z" fill="#1F1F1F"/>
</svg>
