<svg width="14" height="10" viewBox="0 0 14 10" fill="none" xmlns="http://www.w3.org/2000/svg">
<path d="M0.770485 5.42293V4.57708C0.770485 2.85551 0.770484 1.99174 1.30959 1.43774C1.84929 0.883737 2.69877 0.859875 4.39711 0.806262C5.2013 0.788391 6.02336 0.770485 6.72747 0.770485C7.43099 0.770485 8.25305 0.788391 9.05784 0.806262C10.7562 0.859875 11.6056 0.883737 12.1448 1.43774C12.6845 1.99174 12.6845 2.85551 12.6845 4.57708V5.42293C12.6845 7.1445 12.6845 8.00827 12.1454 8.56227C11.6057 9.11627 10.7568 9.13998 9.05784 9.18764C8.25365 9.21147 7.43159 9.22953 6.72747 9.22953C5.95068 9.22953 5.1739 9.21147 4.39711 9.18764C2.69877 9.13998 1.84929 9.11627 1.30959 8.56227C0.770484 8.00827 0.770485 7.1445 0.770485 5.42293Z" stroke="#0086FD" stroke-width="1.5"/>
</svg>
