<svg width="123" height="27" viewBox="0 0 123 27" fill="none" xmlns="http://www.w3.org/2000/svg">
<path d="M22.0686 0L22.6588 8.78265H22.0686C21.2817 6.1519 20.1584 4.26033 18.6981 3.10792C17.2384 1.94969 15.4865 1.3735 13.443 1.3735C11.7295 1.3735 10.1808 1.81002 8.79729 2.68888C7.41324 3.55027 6.32193 4.93556 5.52223 6.83878C4.73475 8.742 4.34131 11.1108 4.34131 13.9394C4.34131 16.2734 4.71611 18.2988 5.46518 20.0157C6.21366 21.7269 7.33757 23.0423 8.83512 23.9561C10.3455 24.8698 12.0659 25.3296 13.9953 25.3296C15.671 25.3296 17.1499 24.9688 18.4315 24.2587C19.7137 23.537 21.1228 22.111 22.6588 19.975L23.2489 20.3592C21.9545 22.6524 20.4436 24.3344 18.7173 25.4053C16.991 26.4704 14.9411 27 12.5671 27C8.28918 27 4.97628 25.417 2.62781 22.2449C0.875919 19.8819 0 17.0998 0 13.9045C0 11.3261 0.577944 8.95731 1.73268 6.798C2.888 4.64451 4.4746 2.97405 6.49306 1.79254C8.52433 0.599388 10.7395 0 13.1386 0C15.0046 0 16.8449 0.459719 18.6603 1.3735C19.1934 1.65287 19.574 1.79254 19.8028 1.79254C20.1456 1.79254 20.4436 1.67039 20.6973 1.43176C21.0274 1.08836 21.2625 0.611125 21.4022 0H22.0686ZM34.3499 8.45669C36.99 8.45669 39.1102 9.45786 40.7096 11.4658C42.0675 13.177 42.7467 15.1442 42.7467 17.3675C42.7467 18.9273 42.3725 20.5105 41.6234 22.1111C40.8744 23.7058 39.8401 24.9164 38.5201 25.7254C37.2123 26.5403 35.7526 26.9476 34.1403 26.9476C31.5125 26.9476 29.4248 25.9 27.876 23.8047C26.5688 22.0412 25.9146 20.0565 25.9146 17.8623C25.9146 16.2617 26.308 14.6785 27.0955 13.1012C27.8952 11.5181 28.9423 10.3484 30.2373 9.59757C31.5317 8.83512 32.903 8.45669 34.3499 8.45669ZM33.7597 9.69647C33.0869 9.69647 32.4077 9.9002 31.7221 10.3018C31.0492 10.6976 30.5039 11.3959 30.0848 12.397C29.6658 13.3981 29.4562 14.6903 29.4562 16.2617C29.4562 18.7993 29.9579 20.9936 30.9607 22.8328C31.9764 24.672 33.3092 25.5916 34.9593 25.5916C36.1903 25.5916 37.2059 25.0852 38.0056 24.0724C38.8053 23.0539 39.2051 21.3078 39.2051 18.8342C39.2051 15.7379 38.5387 13.2991 37.2059 11.524C36.3049 10.3017 35.156 9.69647 33.7597 9.69647ZM60.6073 8.96894V19.5384C60.6073 21.5581 60.6515 22.792 60.7406 23.2518C60.8419 23.6942 60.9944 24.0084 61.1975 24.183C61.4134 24.3634 61.6608 24.4507 61.9402 24.4507C62.3336 24.4507 62.7777 24.3402 63.273 24.1249L63.5396 24.7941L58.3223 26.9476H57.4655V23.2518C55.9674 24.8757 54.8249 25.9001 54.038 26.3191C53.2511 26.7382 52.4194 26.9476 51.5435 26.9476C50.5662 26.9476 49.7159 26.6683 48.9924 26.1095C48.2812 25.5391 47.7865 24.8058 47.5071 23.9153C47.2277 23.0306 47.0881 21.7734 47.0881 20.1496V12.3622C47.0881 11.5357 46.9996 10.9652 46.8215 10.6451C46.644 10.3308 46.3774 10.0864 46.0218 9.9234C45.679 9.74297 45.051 9.66153 44.1366 9.67317V8.96894H50.249V20.6444C50.249 22.2682 50.5284 23.3333 51.0866 23.8397C51.6581 24.3519 52.3432 24.602 53.1434 24.602C53.6888 24.602 54.3046 24.4333 54.9902 24.0899C55.688 23.7465 56.5133 23.0946 57.4655 22.1284V12.2457C57.4655 11.2562 57.2816 10.5869 56.9132 10.2494C56.5576 9.88851 55.8091 9.70227 54.6666 9.67317V8.96894H60.6073ZM69.918 8.45669V12.3795C71.3777 9.76623 72.8758 8.45669 74.4118 8.45669C75.1102 8.45669 75.6876 8.6721 76.1444 9.10279C76.6013 9.52185 76.8301 10.0108 76.8301 10.5695C76.8301 11.0642 76.6648 11.4832 76.3348 11.8266C76.0048 12.17 75.6113 12.3389 75.1544 12.3389C74.7104 12.3389 74.2086 12.1235 73.6499 11.6928C73.1045 11.2504 72.6983 11.0293 72.4317 11.0293C72.203 11.0293 71.9556 11.1515 71.6891 11.4076C71.1175 11.9256 70.5273 12.7869 69.918 13.9801V22.338C69.918 23.3042 70.0384 24.0317 70.28 24.5264C70.4447 24.8698 70.7369 25.155 71.1559 25.382C71.5744 25.6148 72.1774 25.7254 72.9648 25.7254V26.4122H64.0343V25.7254C64.923 25.7254 65.583 25.5858 66.0149 25.3064C66.3321 25.1027 66.5545 24.7825 66.6813 24.3343C66.7448 24.119 66.7762 23.5079 66.7762 22.4893V15.732C66.7762 13.7007 66.7319 12.496 66.6429 12.1118C66.5667 11.7219 66.4148 11.4309 66.186 11.2563C65.9701 11.0758 65.6977 10.9885 65.3671 10.9885C64.9737 10.9885 64.5296 11.0817 64.0343 11.2737L63.844 10.587L69.1183 8.45669H69.918ZM89.073 8.45669V14.3993H88.445C87.9625 12.531 87.3403 11.2621 86.579 10.587C85.8299 9.91766 84.8713 9.58009 83.7038 9.58009C82.815 9.58009 82.098 9.81288 81.552 10.2843C81.0061 10.7558 80.7331 11.2737 80.7331 11.8441C80.7331 12.5542 80.9363 13.1654 81.3425 13.6717C81.736 14.1956 82.5357 14.7484 83.7416 15.3304L86.5219 16.6808C89.0986 17.9379 90.3872 19.5967 90.3872 21.6513C90.3872 23.2402 89.7842 24.5206 88.5783 25.4984C87.3851 26.4645 86.0459 26.9476 84.5605 26.9476C83.4943 26.9476 82.2755 26.7555 80.9048 26.3714C80.4858 26.2492 80.1429 26.1853 79.8764 26.1853C79.5848 26.1853 79.3561 26.3481 79.1908 26.6799H78.5628V20.4523H79.1908C79.5464 22.2274 80.2256 23.566 81.2284 24.4682C82.2312 25.3703 83.3546 25.8243 84.5984 25.8243C85.4743 25.8243 86.1855 25.5682 86.7315 25.0619C87.2896 24.538 87.569 23.9153 87.569 23.1936C87.569 22.3205 87.2582 21.5813 86.636 20.9877C86.0266 20.3882 84.8015 19.6316 82.9611 18.7178C81.1208 17.8041 79.9148 16.9834 79.3433 16.2442C78.7723 15.5225 78.4865 14.6088 78.4865 13.5029C78.4865 12.0653 78.9754 10.8663 79.9527 9.90592C80.9427 8.93976 82.2185 8.45669 83.78 8.45669C84.4651 8.45669 85.2968 8.60219 86.274 8.8932C86.9218 9.08527 87.3531 9.17839 87.569 9.17839C87.7721 9.17839 87.931 9.13766 88.0451 9.04454C88.1592 8.95723 88.2925 8.75934 88.445 8.45669H89.073ZM95.928 15.54C95.9152 18.13 96.5438 20.1613 97.8132 21.6338C99.0826 23.1063 100.574 23.8397 102.288 23.8397C103.43 23.8397 104.42 23.5312 105.258 22.9084C106.108 22.274 106.819 21.1972 107.39 19.6723L107.981 20.0507C107.714 21.791 106.94 23.3798 105.658 24.8116C104.376 26.2318 102.77 26.9476 100.84 26.9476C98.7462 26.9476 96.9495 26.1328 95.452 24.509C93.9666 22.8735 93.224 20.6734 93.224 17.9204C93.224 14.9346 93.9858 12.6124 95.509 10.9536C97.0449 9.27736 98.968 8.43935 101.279 8.43935C103.233 8.43935 104.839 9.0853 106.096 10.3774C107.353 11.6637 107.981 13.3807 107.981 15.54H95.928ZM95.928 14.4341H104.001C103.938 13.3166 103.805 12.531 103.601 12.077C103.284 11.3611 102.808 10.8023 102.173 10.4007C101.552 9.99328 100.897 9.78954 100.212 9.78954C99.1583 9.78954 98.213 10.2029 97.3749 11.0293C96.5496 11.8383 96.0677 12.9732 95.928 14.4341ZM121.595 8.45669V14.3993H120.967C120.484 12.531 119.862 11.2621 119.101 10.587C118.352 9.91766 117.393 9.58009 116.226 9.58009C115.337 9.58009 114.62 9.81288 114.074 10.2843C113.528 10.7558 113.255 11.2737 113.255 11.8441C113.255 12.5542 113.458 13.1654 113.864 13.6717C114.258 14.1956 115.057 14.7484 116.263 15.3304L119.044 16.6808C121.62 17.9379 122.909 19.5967 122.909 21.6513C122.909 23.2402 122.306 24.5206 121.1 25.4984C119.907 26.4645 118.568 26.9476 117.082 26.9476C116.016 26.9476 114.797 26.7555 113.427 26.3714C113.008 26.2492 112.665 26.1853 112.398 26.1853C112.106 26.1853 111.878 26.3481 111.713 26.6799H111.085V20.4523H111.713C112.068 22.2274 112.747 23.566 113.75 24.4682C114.753 25.3703 115.876 25.8243 117.12 25.8243C117.996 25.8243 118.707 25.5682 119.253 25.0619C119.811 24.538 120.091 23.9153 120.091 23.1936C120.091 22.3205 119.78 21.5813 119.158 20.9877C118.548 20.3882 117.323 19.6316 115.483 18.7178C113.642 17.8041 112.437 16.9834 111.865 16.2442C111.294 15.5225 111.008 14.6088 111.008 13.5029C111.008 12.0653 111.497 10.8663 112.474 9.90592C113.464 8.93976 114.74 8.45669 116.302 8.45669C116.987 8.45669 117.819 8.60219 118.796 8.8932C119.444 9.08527 119.875 9.17839 120.091 9.17839C120.294 9.17839 120.452 9.13766 120.567 9.04454C120.681 8.95723 120.814 8.75934 120.967 8.45669H121.595Z" fill="#0086FD"/>
</svg>
