<svg width="41" height="41" viewBox="0 0 41 41" fill="none" xmlns="http://www.w3.org/2000/svg">
<g clip-path="url(#clip0_2_1570)">
<path d="M29.0416 6.8334H34.1666C36.0458 6.8334 37.5833 8.37089 37.5833 10.2501V13.6667H34.1666V10.2501H29.0416V6.8334ZM6.8333 13.6667V10.2501H11.9583V6.8334H6.8333C4.95414 6.8334 3.41664 8.37089 3.41664 10.2501V13.6667H6.8333ZM34.1666 27.3334V30.7501H29.0416V34.1667H34.1666C36.0458 34.1667 37.5833 32.6292 37.5833 30.7501V27.3334H34.1666ZM11.9583 30.7501H6.8333V27.3334H3.41664V30.7501C3.41664 32.6292 4.95414 34.1667 6.8333 34.1667H11.9583V30.7501ZM30.75 13.6667H10.25V27.3334H30.75V13.6667Z" fill="white"/>
</g>
<defs>
<clipPath id="clip0_2_1570">
<rect width="40.5538" height="40.5538" fill="white" transform="scale(1.011)"/>
</clipPath>
</defs>
</svg>
