<svg width="50" height="9" viewBox="0 0 50 9" fill="none" xmlns="http://www.w3.org/2000/svg">
<path d="M5.1373 5.45884C5.18719 5.45884 5.23122 5.48253 5.26878 5.52362L5.63035 5.91083C5.35446 6.22781 5.0199 6.48022 4.62544 6.65632C4.23392 6.83828 3.75963 6.92631 3.20259 6.92631C2.72008 6.92631 2.2822 6.84431 1.88775 6.67409C1.49329 6.50973 1.15634 6.27482 0.878113 5.96959C0.599295 5.67023 0.383282 5.30624 0.230079 4.88361C0.0762891 4.46098 0 3.99733 0 3.48666C0 2.98185 0.0798417 2.51806 0.239502 2.09543C0.399161 1.6728 0.622792 1.30895 0.911002 1.00372C1.20215 0.698489 1.54964 0.46358 1.95349 0.299225C2.35733 0.128999 2.80342 0.0470046 3.29179 0.0470046C3.77077 0.0470046 4.19342 0.123106 4.5597 0.275722C4.92598 0.428338 5.24824 0.639687 5.52706 0.897961L5.22651 1.32072C5.20772 1.35007 5.18249 1.37348 5.15138 1.39696C5.1232 1.41456 5.08387 1.42619 5.03398 1.42619C4.97763 1.42619 4.90837 1.3969 4.82736 1.3382C4.74577 1.27363 4.63952 1.20314 4.50804 1.1327C4.37655 1.05639 4.21218 0.98618 4.01496 0.927482C3.81773 0.868783 3.57472 0.833473 3.2871 0.833473C2.93961 0.833473 2.62148 0.898075 2.33386 1.01547C2.04565 1.13874 1.79675 1.30905 1.5872 1.53797C1.38058 1.76689 1.21917 2.04846 1.10353 2.37717C0.987311 2.70589 0.929775 3.07577 0.929775 3.48666C0.929775 3.90928 0.98907 4.27918 1.10823 4.60789C1.23032 4.9366 1.39466 5.21817 1.60128 5.44709C1.81083 5.67015 2.0568 5.84646 2.33855 5.96386C2.62324 6.08126 2.93023 6.13984 3.25894 6.13984C3.4591 6.13984 3.6393 6.12821 3.79896 6.1106C3.96155 6.08126 4.11007 6.04592 4.24507 5.99309C4.38243 5.94613 4.50922 5.88167 4.62544 5.80536C4.74401 5.72905 4.8614 5.63501 4.97762 5.52935C5.03045 5.48239 5.08388 5.45884 5.1373 5.45884ZM9.06717 4.70763C8.68211 4.71937 8.35336 4.75439 8.081 4.80135C7.81216 4.84831 7.59146 4.91306 7.41889 4.98937C7.24984 5.07155 7.12659 5.15944 7.04794 5.26509C6.9728 5.37662 6.93523 5.49422 6.93523 5.62336C6.93523 5.7525 6.95577 5.85804 6.99628 5.94609C7.03737 6.04001 7.09194 6.11639 7.16061 6.17509C7.23281 6.22792 7.31558 6.27486 7.4095 6.29834C7.50694 6.32769 7.61026 6.33932 7.71944 6.33932C7.86677 6.33932 8.00118 6.32182 8.12328 6.29834C8.24537 6.26312 8.35982 6.22204 8.46607 6.16334C8.57583 6.11051 8.67915 6.04017 8.776 5.96386C8.87638 5.88168 8.97325 5.79337 9.06717 5.69358V4.70763ZM6.36702 2.76468C6.62999 2.51227 6.9135 2.32431 7.21697 2.19517C7.52103 2.07191 7.85739 2.00744 8.2266 2.00744C8.49309 2.00744 8.72907 2.05439 8.93568 2.14244C9.1423 2.23049 9.31605 2.34795 9.45693 2.50644C9.5978 2.66492 9.7046 2.8526 9.77621 3.07565C9.84841 3.29871 9.88423 3.53937 9.88423 3.80938V6.85007H9.51325C9.43224 6.85007 9.36947 6.83829 9.32544 6.81481C9.28201 6.78546 9.24736 6.73276 9.22212 6.65058L9.12822 6.20433C9.00319 6.31585 8.88108 6.42152 8.76192 6.50957C8.64335 6.59762 8.51773 6.67401 8.38625 6.73857C8.25476 6.79727 8.1139 6.84422 7.96363 6.87357C7.81689 6.90879 7.65252 6.92631 7.47055 6.92631C7.28624 6.92631 7.11249 6.9029 6.94931 6.85007C6.78671 6.79724 6.6441 6.72099 6.522 6.61533C6.40343 6.50967 6.30773 6.38045 6.23553 6.22783C6.16685 6.06347 6.13224 5.87566 6.13224 5.66435C6.13224 5.47651 6.18388 5.29459 6.28719 5.12437C6.3905 4.94827 6.55839 4.78961 6.78966 4.65461C7.02152 4.5196 7.32382 4.4142 7.69597 4.32615C8.06871 4.2381 8.52597 4.19114 9.06717 4.1794V3.80938C9.06717 3.43958 8.98733 3.15801 8.82767 2.97018C8.66801 2.78234 8.43496 2.68242 8.12797 2.68242C7.92135 2.68242 7.7476 2.71185 7.60673 2.76468C7.46937 2.8175 7.34847 2.87022 7.24516 2.94066C7.14538 2.99936 7.05733 3.05808 6.9822 3.11091C6.91058 3.16373 6.83836 3.18714 6.76616 3.18714C6.70981 3.18714 6.66169 3.17551 6.6206 3.14616C6.5801 3.11094 6.54545 3.07575 6.51727 3.03467L6.36702 2.76468ZM11.1574 6.85007V2.09543H11.6599C11.779 2.09543 11.8524 2.14828 11.8806 2.26568L11.9416 2.75292C12.1171 2.54161 12.3143 2.3597 12.5333 2.2247C12.7528 2.08969 13.0064 2.01919 13.294 2.01919C13.6134 2.01919 13.8716 2.10736 14.0689 2.28345C14.2696 2.46542 14.4134 2.70593 14.5009 3.01116C14.5701 2.83507 14.6576 2.68846 14.7638 2.56519C14.8736 2.43606 14.9957 2.33611 15.1301 2.25393C15.2651 2.17175 15.4072 2.11302 15.5574 2.07193C15.7112 2.03671 15.8662 2.01919 16.0224 2.01919C16.273 2.01919 16.4955 2.06026 16.6892 2.14244C16.8864 2.21875 17.0525 2.33605 17.1869 2.48867C17.3248 2.64128 17.4299 2.82924 17.5015 3.05817C17.5737 3.27535 17.6095 3.53351 17.6095 3.82113V6.85007H16.769V3.82113C16.769 3.45133 16.688 3.16962 16.5248 2.97591C16.3622 2.78221 16.1274 2.68242 15.8204 2.68242C15.6831 2.68242 15.5516 2.7117 15.4259 2.75866C15.3039 2.80562 15.1958 2.87626 15.1019 2.97018C15.008 3.0641 14.9329 3.18141 14.8765 3.32816C14.8237 3.46903 14.7967 3.6333 14.7967 3.82113V6.85007H13.9562V3.82113C13.9562 3.43959 13.8798 3.15199 13.726 2.96416C13.5728 2.77632 13.3492 2.68242 13.0545 2.68242C12.8479 2.68242 12.6571 2.74114 12.4816 2.85267C12.3067 2.96419 12.1453 3.11095 11.998 3.30466V6.85007H11.1574ZM19.7209 5.70533C19.8741 5.91078 20.0414 6.05766 20.2234 6.13984C20.4048 6.22789 20.6084 6.26881 20.8338 6.26881C21.2782 6.26881 21.6192 6.11058 21.8576 5.79361C22.0953 5.47664 22.2144 5.02449 22.2144 4.44337C22.2144 4.13227 22.1863 3.86234 22.1299 3.64515C22.0765 3.4221 21.9984 3.24003 21.8951 3.09915C21.7918 2.95241 21.665 2.84673 21.5148 2.78216C21.3645 2.71759 21.1937 2.68242 21.0029 2.68242C20.7305 2.68242 20.4911 2.74717 20.2844 2.87044C20.0808 2.99957 19.8929 3.17547 19.7209 3.4044V5.70533ZM19.6787 2.82916C19.8788 2.58263 20.1107 2.38319 20.3736 2.23645C20.6366 2.08383 20.9372 2.00744 21.2753 2.00744C21.5506 2.00744 21.7994 2.06028 22.0219 2.16594C22.2438 2.2716 22.4334 2.4241 22.5901 2.63541C22.7462 2.83499 22.8672 3.08741 22.9517 3.39265C23.0362 3.69788 23.0785 4.04422 23.0785 4.44337C23.0785 4.78969 23.0315 5.11836 22.9376 5.42359C22.8437 5.72295 22.7075 5.98714 22.5291 6.20433C22.3535 6.42738 22.1375 6.59769 21.881 6.72682C21.6274 6.85596 21.341 6.91456 21.0217 6.91456C20.7305 6.91456 20.4799 6.8676 20.2704 6.76781C20.0637 6.66802 19.8806 6.53319 19.7209 6.35709V8.45854H18.8804V2.09543H19.3828C19.5014 2.09543 19.5753 2.14828 19.6035 2.26568L19.6787 2.82916ZM28.0561 2.09543V6.85007H27.5583C27.4398 6.85007 27.3647 6.79148 27.333 6.67409L27.2672 6.16334C27.0606 6.39227 26.8293 6.57993 26.5722 6.72081C26.3157 6.85581 26.0216 6.92631 25.6894 6.92631C25.43 6.92631 25.1998 6.88538 24.9991 6.79733C24.8019 6.70928 24.6363 6.58595 24.5013 6.43333C24.3669 6.27485 24.2654 6.08688 24.1961 5.86383C24.1304 5.64078 24.0975 5.39438 24.0975 5.12437V2.09543H24.9334V5.12437C24.9334 5.4883 25.015 5.76428 25.1775 5.96386C25.3437 6.15756 25.5955 6.25735 25.9336 6.25735C26.1813 6.25735 26.4114 6.19863 26.6239 6.0871C26.8399 5.96384 27.0389 5.80515 27.2202 5.59384V2.09543H28.0561ZM32.1521 2.87617C32.1145 2.94661 32.057 2.98193 31.9784 2.98193C31.9314 2.98193 31.8785 2.96412 31.8187 2.92891C31.7594 2.89369 31.686 2.8585 31.598 2.81741C31.5135 2.77045 31.4119 2.73541 31.2927 2.70019C31.1742 2.6591 31.0333 2.64143 30.8701 2.64143C30.7292 2.64143 30.6025 2.6591 30.4898 2.70019C30.3771 2.73541 30.2802 2.78237 30.1986 2.84693C30.1206 2.90563 30.0595 2.98172 30.0155 3.0639C29.975 3.14608 29.9544 3.2341 29.9544 3.33389C29.9544 3.45716 29.989 3.55696 30.0577 3.63913C30.1299 3.72131 30.2239 3.79196 30.3395 3.85066C30.4557 3.90935 30.5872 3.96219 30.7339 4.00915C30.8813 4.05024 31.0316 4.10307 31.1848 4.1559C31.3415 4.20286 31.4935 4.26158 31.6403 4.32615C31.7876 4.38485 31.9191 4.46697 32.0347 4.56088C32.1509 4.6548 32.2431 4.76624 32.3118 4.90711C32.384 5.04212 32.4198 5.20065 32.4198 5.39436C32.4198 5.61154 32.381 5.81701 32.3024 6.00484C32.2243 6.18681 32.1087 6.35106 31.9549 6.48607C31.8017 6.62107 31.6138 6.7269 31.3914 6.80908C31.1695 6.88539 30.9124 6.92631 30.6212 6.92631C30.2896 6.92631 29.989 6.87347 29.7196 6.76781C29.4508 6.65628 29.2219 6.51557 29.034 6.34534L29.2313 6.02835C29.2565 5.98726 29.2864 5.95782 29.3205 5.93434C29.3551 5.91086 29.3991 5.89908 29.452 5.89908C29.5083 5.89908 29.5682 5.92263 29.6304 5.96959C29.6932 6.01068 29.7683 6.05778 29.8558 6.1106C29.9468 6.16343 30.0565 6.21626 30.1845 6.25735C30.3131 6.30431 30.4727 6.32184 30.6635 6.32184C30.8267 6.32184 30.9687 6.30417 31.0908 6.26308C31.2129 6.22199 31.3151 6.16341 31.3961 6.0871C31.4777 6.01666 31.5369 5.93425 31.5745 5.84033C31.6156 5.74641 31.6356 5.64676 31.6356 5.5411C31.6356 5.4061 31.5997 5.30055 31.5275 5.21838C31.4589 5.13033 31.3667 5.0538 31.2505 4.9951C31.1349 4.93054 31.0016 4.8777 30.8514 4.83661C30.7046 4.78965 30.5526 4.74269 30.3958 4.68986C30.2426 4.63703 30.0906 4.58418 29.9403 4.51961C29.7936 4.45504 29.6621 4.37306 29.5459 4.27914C29.4303 4.17936 29.3363 4.06175 29.2641 3.92088C29.1954 3.77413 29.1608 3.60411 29.1608 3.39867C29.1608 3.2167 29.1984 3.04052 29.2735 2.87617C29.3486 2.70594 29.4584 2.5592 29.6022 2.43593C29.7466 2.30679 29.9233 2.20699 30.1329 2.13069C30.343 2.05438 30.5825 2.01919 30.8514 2.01919C31.1648 2.01919 31.4448 2.06615 31.6919 2.16594C31.9425 2.26573 32.1585 2.4007 32.3399 2.57092L32.1521 2.87617ZM39.8627 6.0871V6.85007H36.045V0.123244H36.9513V6.0871H39.8627ZM41.555 2.09543V6.85007H40.7191V2.09543H41.555ZM41.7335 0.598736C41.7335 0.680914 41.7158 0.757302 41.6818 0.82774C41.6501 0.898179 41.6067 0.962644 41.5503 1.01547C41.4969 1.0683 41.4329 1.1151 41.3578 1.14445C41.2856 1.1738 41.2087 1.19145 41.1277 1.19145C41.0461 1.19145 40.9692 1.1738 40.8976 1.14445C40.8283 1.1151 40.7673 1.0683 40.7144 1.01547C40.661 0.962644 40.6188 0.898179 40.5877 0.82774C40.556 0.757302 40.5407 0.680914 40.5407 0.598736C40.5407 0.516558 40.556 0.44017 40.5877 0.369732C40.6188 0.293424 40.661 0.228809 40.7144 0.175981C40.7673 0.123152 40.8283 0.0763539 40.8976 0.0470046C40.9692 0.0117856 41.0461 0 41.1277 0C41.2087 0 41.2856 0.0117856 41.3578 0.0470046C41.4329 0.0763539 41.4969 0.123152 41.5503 0.175981C41.6067 0.228809 41.6501 0.293424 41.6818 0.369732C41.7158 0.44017 41.7335 0.516558 41.7335 0.598736ZM43.2379 6.85007V2.80566L42.712 2.74691C42.6462 2.7293 42.5916 2.70603 42.5476 2.67669C42.5071 2.64147 42.4865 2.59451 42.4865 2.52994V2.18944H43.2379V1.7257C43.2379 1.45569 43.2754 1.21504 43.3506 1.00372C43.4292 0.792407 43.5384 0.61035 43.6793 0.469473C43.8237 0.322727 43.9957 0.211303 44.1958 0.134995C44.3966 0.058687 44.622 0.0235023 44.8721 0.0235023C45.0851 0.0235023 45.2806 0.0526567 45.4591 0.117225L45.4403 0.534248C45.4344 0.610556 45.3921 0.651622 45.3135 0.657492C45.2384 0.663362 45.1368 0.663224 45.0082 0.663224C44.8644 0.663224 44.7329 0.686761 44.6138 0.72198C44.4982 0.757199 44.3978 0.821802 44.3132 0.90398C44.2287 0.992027 44.163 1.10345 44.116 1.23846C44.0726 1.37346 44.0503 1.54963 44.0503 1.7492V2.18944H45.4215V2.79391H44.0785V6.85007H43.2379ZM49.2486 3.9504C49.2486 3.75669 49.2205 3.58065 49.1641 3.42217C49.1107 3.25781 49.0308 3.12283 48.9246 3.00543C48.8213 2.88803 48.6945 2.79399 48.5442 2.72942C48.394 2.66485 48.2231 2.63541 48.0324 2.63541C47.6315 2.63541 47.3139 2.75287 47.0791 2.98766C46.8473 3.21659 46.7035 3.53951 46.6471 3.9504H49.2486ZM49.9248 6.18082C49.8215 6.30996 49.6977 6.41565 49.5539 6.50957C49.4101 6.60349 49.2551 6.67988 49.0889 6.73857C48.9263 6.79727 48.7573 6.8382 48.5818 6.86755C48.4063 6.90277 48.2326 6.91456 48.0606 6.91456C47.7319 6.91456 47.4284 6.86185 47.1496 6.75033C46.8743 6.6388 46.6348 6.4744 46.4311 6.26308C46.2309 6.0459 46.0742 5.78184 45.9615 5.46486C45.8488 5.14789 45.7925 4.78375 45.7925 4.37287C45.7925 4.04415 45.8423 3.73329 45.9427 3.44567C46.046 3.15805 46.1934 2.9115 46.3841 2.70019C46.5749 2.48887 46.8085 2.31859 47.0838 2.20119C47.3591 2.07793 47.669 2.01919 48.0136 2.01919C48.2983 2.01919 48.5613 2.06615 48.8025 2.16594C49.0467 2.25986 49.2563 2.39498 49.4318 2.57694C49.6102 2.75304 49.7493 2.97589 49.8497 3.2459C49.9501 3.50417 49.9999 3.80957 49.9999 4.14415C49.9999 4.27915 49.9859 4.36703 49.9577 4.40812C49.9295 4.44921 49.8761 4.47289 49.798 4.47289H46.6189C46.6283 4.77226 46.6688 5.03631 46.741 5.25936C46.8161 5.48242 46.9195 5.6645 47.0509 5.81711C47.1824 5.96386 47.3391 6.07528 47.5205 6.15159C47.7019 6.22203 47.9056 6.25735 48.131 6.25735C48.3406 6.25735 48.5208 6.2338 48.671 6.18684C48.8242 6.13988 48.9557 6.08704 49.0655 6.02835C49.1752 5.96965 49.2656 5.92254 49.3378 5.87558C49.413 5.82275 49.4769 5.79934 49.5304 5.79934C49.599 5.79934 49.6525 5.82275 49.69 5.87558L49.9248 6.18082Z" fill="white"/>
</svg>
