<svg width="139" height="34" viewBox="0 0 139 34" fill="none" xmlns="http://www.w3.org/2000/svg">
<path d="M9.04565 8.35661L9.30903 8.41506L8.38284 11.3523H0V11.0546H0.40702C0.86485 11.0546 1.19187 10.9085 1.38867 10.6106C1.50079 10.4413 1.55685 10.0442 1.55685 9.43102V2.44109C1.55685 1.76368 1.4821 1.34299 1.33319 1.17364C1.1253 0.940051 0.816965 0.823485 0.40702 0.823485H0V0.525514H4.90181V0.823485C4.32719 0.817646 3.92251 0.870214 3.68834 0.981168C3.45943 1.09212 3.30234 1.23211 3.21708 1.40146C3.13182 1.57666 3.08976 1.97965 3.08976 2.62785V9.43102C3.08976 9.86899 3.13182 10.1725 3.21708 10.3361C3.28131 10.4528 3.37941 10.5347 3.51255 10.5873C3.6457 10.6398 4.06092 10.6631 4.75817 10.6631H5.54828C6.37868 10.6631 6.96148 10.6047 7.29726 10.482C7.63246 10.3594 7.93845 10.1434 8.21525 9.83392C8.49205 9.51858 8.76885 9.02817 9.04565 8.35661ZM11.409 6.79147C11.4037 7.87765 11.6671 8.73018 12.1991 9.34918C12.7316 9.96819 13.3571 10.2719 14.0754 10.2719C14.5542 10.2719 14.9694 10.1435 15.321 9.88068C15.6778 9.6179 15.9756 9.16251 16.215 8.52598L16.4626 8.68366C16.3511 9.41362 16.0264 10.0793 15.4886 10.6808C14.9507 11.2764 14.2774 11.5741 13.4686 11.5741C12.5903 11.5741 11.837 11.2354 11.2093 10.5522C10.5862 9.86895 10.2749 8.94629 10.2749 7.79003C10.2749 6.54034 10.5943 5.56512 11.2332 4.8702C11.8773 4.16944 12.6838 3.81318 13.652 3.81318C14.4719 3.81318 15.1452 4.08787 15.6719 4.63096C16.1993 5.16821 16.4626 5.88632 16.4626 6.79147H11.409ZM11.409 6.33012H14.7942C14.7674 5.86294 14.7113 5.53011 14.626 5.34325C14.4935 5.03958 14.2938 4.80602 14.0275 4.63667C13.7664 4.46732 13.4926 4.37976 13.2053 4.37976C12.7632 4.37976 12.3667 4.55503 12.0157 4.89957C11.6694 5.24411 11.4674 5.71695 11.409 6.33012ZM21.5881 10.3013C20.8377 10.8794 20.367 11.2121 20.1749 11.3055C19.8876 11.4398 19.5816 11.504 19.2569 11.504C18.7512 11.504 18.3336 11.329 18.0037 10.9845C17.679 10.6399 17.5167 10.1842 17.5167 9.61778C17.5167 9.26156 17.5961 8.9523 17.7561 8.69536C17.9739 8.3333 18.3523 7.98875 18.8896 7.67341C19.4327 7.35223 20.332 6.96681 21.5881 6.50548V6.2192C21.5881 5.48924 21.4713 4.98713 21.2371 4.7185C21.0082 4.44404 20.673 4.30961 20.231 4.30961C19.8958 4.30961 19.6295 4.40317 19.4327 4.5842C19.2306 4.76523 19.129 4.96965 19.129 5.20324L19.1454 5.6703C19.1454 5.90973 19.0811 6.10256 18.9538 6.23687C18.8312 6.36535 18.6688 6.43533 18.4668 6.43533C18.2694 6.43533 18.1071 6.36534 17.9798 6.22518C17.8571 6.09087 17.7958 5.89804 17.7958 5.65861C17.7958 5.20312 18.03 4.78257 18.4983 4.39715C18.9667 4.01757 19.6242 3.82487 20.4704 3.82487C21.1198 3.82487 21.6523 3.93002 22.0675 4.15193C22.3811 4.31544 22.613 4.57257 22.7619 4.92295C22.8577 5.15654 22.9055 5.62352 22.9055 6.33012V8.81198C22.9055 9.51274 22.919 9.93915 22.9458 10.0968C22.9721 10.2545 23.0147 10.3596 23.0731 10.4122C23.1374 10.4647 23.2092 10.488 23.2886 10.488C23.3739 10.488 23.4486 10.4706 23.5123 10.4356C23.6244 10.3655 23.8399 10.1728 24.1593 9.8516V10.3013C23.5631 11.0955 22.9937 11.4983 22.4506 11.4983C22.1896 11.4983 21.9823 11.4047 21.8275 11.2237C21.6734 11.0427 21.5934 10.7334 21.5881 10.3013ZM21.5881 9.78145V6.99592C20.7846 7.31126 20.2654 7.5391 20.0313 7.67341C19.6108 7.907 19.31 8.15213 19.129 8.40907C18.948 8.66018 18.8581 8.94059 18.8581 9.24425C18.8581 9.62967 18.9719 9.94481 19.2009 10.2018C19.4298 10.4529 19.6937 10.5756 19.9915 10.5756C20.3962 10.5756 20.9282 10.3129 21.5881 9.78145ZM26.8497 3.82487V5.46586C27.4617 4.37384 28.09 3.82487 28.7341 3.82487C29.0267 3.82487 29.269 3.91244 29.4606 4.09347C29.6521 4.26867 29.7479 4.47322 29.7479 4.70681C29.7479 4.91704 29.6784 5.09204 29.54 5.23803C29.4022 5.37818 29.2369 5.45416 29.0454 5.45416C28.8591 5.45416 28.6489 5.36089 28.4147 5.17986C28.1858 4.99299 28.0152 4.89957 27.9037 4.89957C27.8079 4.89957 27.704 4.952 27.5925 5.06295C27.3525 5.27902 27.1054 5.64099 26.8497 6.13736V9.64117C26.8497 10.0499 26.9005 10.3537 27.0015 10.5639C27.0704 10.704 27.193 10.8266 27.3688 10.92C27.5446 11.0193 27.7968 11.066 28.1274 11.066V11.3523H24.3824V11.066C24.755 11.066 25.0318 11.0077 25.2128 10.8909C25.3459 10.8033 25.4394 10.6689 25.4925 10.482C25.5188 10.3886 25.5322 10.1319 25.5322 9.70561V6.87331C25.5322 6.02072 25.5135 5.51845 25.4767 5.35494C25.4446 5.19143 25.3804 5.06887 25.2846 4.9988C25.1941 4.92288 25.0796 4.88788 24.9412 4.88788C24.7766 4.88788 24.5903 4.92274 24.3824 5.0045L24.303 4.7185L26.5145 3.82487H26.8497ZM32.287 5.37233C33.1437 4.33871 33.9606 3.82487 34.7379 3.82487C35.1367 3.82487 35.4801 3.92416 35.768 4.12855C36.0553 4.32126 36.2842 4.64838 36.4542 5.10972C36.5715 5.4309 36.6299 5.91545 36.6299 6.57534V9.69962C36.6299 10.161 36.6673 10.4762 36.7421 10.6397C36.8005 10.774 36.8933 10.8792 37.0212 10.9551C37.1543 11.0252 37.3967 11.066 37.7476 11.066V11.3523H34.1311V11.066H34.283C34.6234 11.066 34.8605 11.0136 34.9931 10.9143C35.1315 10.8092 35.2272 10.6515 35.281 10.453C35.302 10.3712 35.3125 10.1201 35.3125 9.69962V6.70393C35.3125 6.03821 35.2249 5.55923 35.0491 5.26141C34.8786 4.95775 34.589 4.80604 34.179 4.80604C33.5454 4.80604 32.9147 5.15046 32.287 5.84538V9.69962C32.287 10.196 32.3162 10.4998 32.3746 10.6166C32.4493 10.7743 32.5503 10.8852 32.6782 10.9611C32.8108 11.0312 33.0771 11.066 33.4765 11.066V11.3523H29.8594V11.066H30.0194C30.392 11.066 30.6419 10.9726 30.7698 10.7857C30.903 10.593 30.9695 10.231 30.9695 9.69962V6.98423C30.9695 6.10828 30.9479 5.57103 30.9053 5.37832C30.8685 5.19145 30.8072 5.05718 30.7219 4.9871C30.6419 4.92287 30.5327 4.88788 30.3943 4.88788C30.2454 4.88788 30.0673 4.92274 29.8594 5.0045L29.7397 4.7185L31.9436 3.82487H32.287V5.37233ZM46.5621 10.3013C45.8117 10.8794 45.3404 11.2121 45.1489 11.3055C44.8615 11.4398 44.5555 11.504 44.2309 11.504C43.7251 11.504 43.307 11.329 42.9771 10.9845C42.6524 10.6399 42.49 10.1842 42.49 9.61778C42.49 9.26156 42.5701 8.9523 42.7295 8.69536C42.9479 8.3333 43.3257 7.98875 43.8635 7.67341C44.4066 7.35223 45.306 6.96681 46.5621 6.50548V6.2192C46.5621 5.48924 46.4447 4.98713 46.2105 4.7185C45.9816 4.44404 45.6464 4.30961 45.2049 4.30961C44.8691 4.30961 44.6034 4.40317 44.4066 4.5842C44.204 4.76523 44.103 4.96965 44.103 5.20324L44.1187 5.6703C44.1187 5.90973 44.0551 6.10256 43.9272 6.23687C43.8051 6.36535 43.6428 6.43533 43.4402 6.43533C43.2434 6.43533 43.081 6.36534 42.9531 6.22518C42.8311 6.09087 42.7698 5.89804 42.7698 5.65861C42.7698 5.20312 43.0039 4.78257 43.4723 4.39715C43.9406 4.01757 44.5982 3.82487 45.4443 3.82487C46.0937 3.82487 46.6257 3.93002 47.0409 4.15193C47.3551 4.31544 47.5863 4.57257 47.7358 4.92295C47.8316 5.15654 47.8795 5.62352 47.8795 6.33012V8.81198C47.8795 9.51274 47.8929 9.93915 47.9192 10.0968C47.9461 10.2545 47.9887 10.3596 48.0471 10.4122C48.1107 10.4647 48.1826 10.488 48.2626 10.488C48.3478 10.488 48.422 10.4706 48.4862 10.4356C48.5978 10.3655 48.8132 10.1728 49.1327 9.8516V10.3013C48.5364 11.0955 47.9671 11.4983 47.424 11.4983C47.1635 11.4983 46.9556 11.4047 46.8015 11.2237C46.6473 11.0427 46.5673 10.7334 46.5621 10.3013ZM46.5621 9.78145V6.99592C45.7585 7.31126 45.2394 7.5391 45.0052 7.67341C44.5847 7.907 44.284 8.15213 44.103 8.40907C43.9219 8.66018 43.8314 8.94059 43.8314 9.24425C43.8314 9.62967 43.9459 9.94481 44.1748 10.2018C44.4037 10.4529 44.6671 10.5756 44.9655 10.5756C45.3696 10.5756 45.9022 10.3129 46.5621 9.78145ZM51.6875 5.30247C52.3959 4.31556 53.1591 3.82487 53.979 3.82487C54.7294 3.82487 55.3841 4.146 55.9429 4.78836C56.5018 5.43073 56.7815 6.30084 56.7815 7.41622C56.7815 8.71262 56.3505 9.75799 55.488 10.5522C54.7481 11.2354 53.923 11.5741 53.0131 11.5741C52.5874 11.5741 52.1535 11.4984 51.7115 11.3466C51.2753 11.1889 50.8279 10.9609 50.3701 10.6514V3.07153C50.3701 2.2423 50.3491 1.73446 50.3065 1.54175C50.2691 1.34904 50.2078 1.22033 50.1231 1.15026C50.0378 1.08018 49.931 1.04532 49.8037 1.04532C49.6542 1.04532 49.4679 1.08604 49.2448 1.17364L49.1327 0.893345L51.3284 0H51.6875V5.30247ZM51.6875 5.81031V10.1844C51.9591 10.453 52.2388 10.6574 52.5261 10.7917C52.8187 10.926 53.1171 10.9902 53.4202 10.9902C53.9043 10.9902 54.3545 10.7275 54.7697 10.196C55.1902 9.66464 55.4004 8.88797 55.4004 7.87187C55.4004 6.93168 55.1902 6.21344 54.7697 5.71706C54.3545 5.20901 53.8803 4.95774 53.3483 4.95774C53.0663 4.95774 52.7842 5.02788 52.5022 5.17387C52.289 5.27899 52.0175 5.48912 51.6875 5.81031ZM61.4363 3.82487C62.5429 3.82487 63.4323 4.24542 64.1027 5.08633C64.6721 5.80461 64.957 6.62786 64.957 7.56221C64.957 8.21625 64.8 8.87636 64.4858 9.54792C64.1722 10.2195 63.7383 10.7215 63.1847 11.066C62.6363 11.4047 62.0243 11.5741 61.3481 11.5741C60.2467 11.5741 59.3708 11.1362 58.7214 10.2602C58.1731 9.51857 57.8992 8.68932 57.8992 7.76665C57.8992 7.09509 58.0645 6.42941 58.3944 5.76953C58.7296 5.10381 59.1688 4.61925 59.7113 4.30391C60.2543 3.98273 60.8295 3.82487 61.4363 3.82487ZM61.1887 4.34468C60.9066 4.34468 60.6217 4.42654 60.3343 4.59589C60.0523 4.76524 59.8234 5.05709 59.6476 5.47755C59.4718 5.898 59.3842 6.43526 59.3842 7.09515C59.3842 8.16381 59.5945 9.08076 60.0149 9.8516C60.4406 10.6224 60.9995 11.0078 61.6915 11.0078C62.2077 11.0078 62.6334 10.7974 62.9692 10.3711C63.3044 9.94483 63.472 9.21501 63.472 8.17554C63.472 6.8733 63.1923 5.85135 62.6334 5.10972C62.2556 4.59582 61.7738 4.34468 61.1887 4.34468ZM72.4458 4.04101V8.46753C72.4458 9.31428 72.4645 9.83397 72.5019 10.0267C72.5445 10.2135 72.6082 10.342 72.6934 10.4179C72.784 10.4938 72.8879 10.5288 73.0047 10.5288C73.1699 10.5288 73.3562 10.4821 73.5636 10.3945L73.6756 10.6748L71.4881 11.5741H71.1284V10.0267C70.5006 10.7099 70.0212 11.1363 69.6912 11.3115C69.3613 11.4867 69.0127 11.5741 68.6454 11.5741C68.236 11.5741 67.8792 11.4573 67.5755 11.2237C67.2777 10.9843 67.0698 10.6807 66.953 10.307C66.8357 9.93323 66.7772 9.40768 66.7772 8.72444V5.46015C66.7772 5.11561 66.7399 4.8762 66.6657 4.74188C66.591 4.60757 66.4794 4.50829 66.3299 4.43821C66.1863 4.36229 65.9229 4.32715 65.5398 4.33299V4.04101H68.1029V8.93459C68.1029 9.61199 68.2197 10.0617 68.4538 10.2719C68.6933 10.488 68.9812 10.5932 69.3164 10.5932C69.5453 10.5932 69.8034 10.5231 70.0907 10.3771C70.3833 10.237 70.7295 9.9624 71.1284 9.55363V5.41339C71.1284 4.99877 71.0513 4.7185 70.8971 4.57251C70.7482 4.42652 70.4341 4.34467 69.9552 4.33299V4.04101H72.4458ZM76.3339 1.63499V4.04101H78.0426V4.59589H76.3339V9.33749C76.3339 9.81634 76.4005 10.1319 76.5336 10.3013C76.672 10.4648 76.8478 10.5465 77.0603 10.5465C77.2361 10.5465 77.4066 10.4939 77.5713 10.3888C77.7366 10.272 77.8645 10.1141 77.955 9.89808H78.2662C78.0799 10.4178 77.8166 10.8151 77.4755 11.0837C77.1351 11.3406 76.7841 11.4749 76.422 11.4749C76.1768 11.4749 75.9374 11.4048 75.7032 11.2705C75.469 11.1361 75.2962 10.9377 75.1846 10.6925C75.0725 10.4355 75.0165 10.0441 75.0165 9.51856V4.59589H73.859V4.33299C74.1516 4.2162 74.45 4.01779 74.7531 3.74332C75.062 3.46302 75.3359 3.12989 75.5759 2.74448C75.6979 2.54593 75.8685 2.17224 76.0869 1.63499H76.3339ZM93.3875 11.3523H90.4974L86.833 6.28934C86.5615 6.30102 86.3407 6.30673 86.1702 6.30673C86.1013 6.30673 86.0266 6.30673 85.9466 6.30673C85.8671 6.30089 85.7842 6.29518 85.699 6.28934V9.43701C85.699 10.1202 85.7737 10.5407 85.9226 10.7042C86.1253 10.9378 86.4283 11.0546 86.833 11.0546H87.2558V11.3523H82.6174V11.0546H83.0244C83.4822 11.0546 83.8098 10.9085 84.0066 10.6106C84.1182 10.4471 84.1742 10.056 84.1742 9.43701V2.44109C84.1742 1.76368 84.1001 1.33715 83.9506 1.17364C83.7433 0.940051 83.4343 0.823485 83.0244 0.823485H82.6174V0.525514H86.5615C87.7113 0.525514 88.5575 0.613075 89.1006 0.782425C89.6483 0.945936 90.1114 1.25548 90.4898 1.70514C90.8729 2.15479 91.0645 2.69204 91.0645 3.31105C91.0645 3.97677 90.846 4.55503 90.4098 5.04556C89.9789 5.53609 89.3079 5.88051 88.3981 6.0849L90.6335 9.1858C91.1445 9.90408 91.5836 10.3771 91.9509 10.6106C92.3177 10.8442 92.7971 10.9904 93.3875 11.0546V11.3523ZM85.699 5.78721C85.8006 5.78721 85.8882 5.79291 85.9629 5.79291C86.0371 5.79291 86.0984 5.79291 86.1463 5.79291C87.1788 5.79291 87.956 5.57092 88.4775 5.12711C89.0048 4.67745 89.2682 4.11119 89.2682 3.41627C89.2682 2.73886 89.055 2.18975 88.6293 1.7693C88.2088 1.343 87.65 1.13286 86.9527 1.13286C86.6438 1.13286 86.2263 1.18528 85.699 1.28456V5.78721ZM94.9847 6.79147C94.9794 7.87765 95.2427 8.73018 95.7747 9.34918C96.3073 9.96819 96.9328 10.2719 97.651 10.2719C98.1305 10.2719 98.5451 10.1435 98.8966 9.88068C99.2534 9.6179 99.5513 9.16251 99.7907 8.52598L100.038 8.68366C99.9268 9.41362 99.6021 10.0793 99.0642 10.6808C98.527 11.2764 97.8537 11.5741 97.0443 11.5741C96.166 11.5741 95.4133 11.2354 94.7849 10.5522C94.1624 9.86895 93.8506 8.94629 93.8506 7.79003C93.8506 6.54034 94.17 5.56512 94.8089 4.8702C95.453 4.16944 96.2594 3.81318 97.2282 3.81318C98.0475 3.81318 98.7209 4.08787 99.2482 4.63096C99.7749 5.16821 100.038 5.88632 100.038 6.79147H94.9847ZM94.9847 6.33012H98.3699C98.343 5.86294 98.287 5.53011 98.2023 5.34325C98.0691 5.03958 97.8694 4.80602 97.6031 4.63667C97.3427 4.46732 97.0682 4.37976 96.7809 4.37976C96.3394 4.37976 95.9424 4.55503 95.5914 4.89957C95.2451 5.24411 95.043 5.71695 94.9847 6.33012ZM100.613 4.04101H103.679V4.33299C103.397 4.35635 103.21 4.40906 103.12 4.48497C103.035 4.56673 102.993 4.67759 102.993 4.82942C102.993 4.99293 103.038 5.19136 103.128 5.43078L104.693 9.63546L106.266 6.21349L105.851 5.1331C105.723 4.81191 105.555 4.58993 105.348 4.46729C105.23 4.39722 105.013 4.35051 104.693 4.33299V4.04101H108.174V4.33299C107.791 4.35051 107.52 4.42051 107.359 4.54314C107.253 4.6249 107.2 4.76516 107.2 4.95203C107.2 5.05715 107.221 5.16229 107.264 5.27909L108.925 9.47778L110.466 5.43078C110.572 5.1388 110.625 4.91123 110.625 4.74188C110.625 4.64261 110.572 4.54905 110.466 4.46729C110.364 4.39138 110.162 4.34467 109.859 4.33299V4.04101H112.166V4.33299C111.703 4.40307 111.362 4.71848 111.144 5.27909L108.701 11.5741H108.374L106.545 6.90239L104.413 11.5741H104.118L101.771 5.43078C101.617 5.03952 101.465 4.77683 101.316 4.64836C101.167 4.50821 100.932 4.40307 100.613 4.33299V4.04101ZM116.98 10.3013C116.23 10.8794 115.759 11.2121 115.567 11.3055C115.28 11.4398 114.974 11.504 114.649 11.504C114.143 11.504 113.725 11.329 113.395 10.9845C113.071 10.6399 112.908 10.1842 112.908 9.61778C112.908 9.26156 112.988 8.9523 113.148 8.69536C113.366 8.3333 113.744 7.98875 114.282 7.67341C114.824 7.35223 115.724 6.96681 116.98 6.50548V6.2192C116.98 5.48924 116.863 4.98713 116.629 4.7185C116.4 4.44404 116.065 4.30961 115.623 4.30961C115.287 4.30961 115.022 4.40317 114.824 4.5842C114.622 4.76523 114.521 4.96965 114.521 5.20324L114.537 5.6703C114.537 5.90973 114.473 6.10256 114.346 6.23687C114.223 6.36535 114.061 6.43533 113.858 6.43533C113.662 6.43533 113.499 6.36534 113.371 6.22518C113.249 6.09087 113.188 5.89804 113.188 5.65861C113.188 5.20312 113.422 4.78257 113.891 4.39715C114.359 4.01757 115.016 3.82487 115.863 3.82487C116.512 3.82487 117.044 3.93002 117.459 4.15193C117.773 4.31544 118.005 4.57257 118.154 4.92295C118.25 5.15654 118.298 5.62352 118.298 6.33012V8.81198C118.298 9.51274 118.311 9.93915 118.338 10.0968C118.364 10.2545 118.407 10.3596 118.465 10.4122C118.529 10.4647 118.601 10.488 118.681 10.488C118.766 10.488 118.84 10.4706 118.905 10.4356C119.016 10.3655 119.232 10.1728 119.551 9.8516V10.3013C118.955 11.0955 118.385 11.4983 117.842 11.4983C117.582 11.4983 117.374 11.4047 117.22 11.2237C117.066 11.0427 116.986 10.7334 116.98 10.3013ZM116.98 9.78145V6.99592C116.177 7.31126 115.658 7.5391 115.424 7.67341C115.003 7.907 114.702 8.15213 114.521 8.40907C114.34 8.66018 114.25 8.94059 114.25 9.24425C114.25 9.62967 114.364 9.94481 114.593 10.2018C114.822 10.4529 115.085 10.5756 115.383 10.5756C115.788 10.5756 116.32 10.3129 116.98 9.78145ZM122.242 3.82487V5.46586C122.854 4.37384 123.482 3.82487 124.126 3.82487C124.418 3.82487 124.661 3.91244 124.852 4.09347C125.044 4.26867 125.14 4.47322 125.14 4.70681C125.14 4.91704 125.071 5.09204 124.932 5.23803C124.794 5.37818 124.629 5.45416 124.437 5.45416C124.251 5.45416 124.041 5.36089 123.806 5.17986C123.577 4.99299 123.408 4.89957 123.295 4.89957C123.2 4.89957 123.096 4.952 122.984 5.06295C122.745 5.27902 122.497 5.64099 122.242 6.13736V9.64117C122.242 10.0499 122.292 10.3537 122.393 10.5639C122.463 10.704 122.585 10.8266 122.76 10.92C122.936 11.0193 123.189 11.066 123.519 11.066V11.3523H119.775V11.066C120.147 11.066 120.424 11.0077 120.605 10.8909C120.738 10.8033 120.831 10.6689 120.884 10.482C120.911 10.3886 120.924 10.1319 120.924 9.70561V6.87331C120.924 6.02072 120.906 5.51845 120.868 5.35494C120.836 5.19143 120.773 5.06887 120.677 4.9988C120.586 4.92288 120.472 4.88788 120.333 4.88788C120.168 4.88788 119.982 4.92274 119.775 5.0045L119.695 4.7185L121.906 3.82487H122.242ZM130.712 10.5288C130.356 10.9025 130.007 11.1714 129.666 11.3349C129.326 11.4984 128.959 11.5741 128.565 11.5741C127.767 11.5741 127.07 11.2413 126.473 10.5756C125.877 9.90985 125.579 9.04548 125.579 8.00018C125.579 6.94904 125.909 5.99138 126.569 5.12711C127.229 4.25116 128.078 3.81318 129.116 3.81318C129.76 3.81318 130.292 4.0176 130.712 4.43222V3.08322C130.712 2.24231 130.691 1.73446 130.649 1.54175C130.611 1.34904 130.55 1.22033 130.465 1.15026C130.38 1.08018 130.274 1.04532 130.146 1.04532C130.008 1.04532 129.824 1.08604 129.595 1.17364L129.491 0.893345L131.671 0H132.03V8.45584C132.03 9.30843 132.048 9.83397 132.086 10.0267C132.128 10.2135 132.192 10.342 132.277 10.4179C132.368 10.4938 132.472 10.5288 132.589 10.5288C132.732 10.5288 132.924 10.4821 133.164 10.3945L133.251 10.6748L131.08 11.5741H130.712V10.5288ZM130.712 9.96822V6.2018C130.681 5.83974 130.585 5.51276 130.425 5.21493C130.266 4.91711 130.052 4.68913 129.787 4.54314C129.526 4.38547 129.27 4.30961 129.02 4.30961C128.552 4.30961 128.134 4.51989 127.767 4.94034C127.282 5.49511 127.04 6.30108 127.04 7.36974C127.04 8.44424 127.274 9.26748 127.743 9.84561C128.211 10.4121 128.733 10.6982 129.307 10.6982C129.792 10.6982 130.26 10.4529 130.712 9.96822ZM138.449 3.82487V6.31272H138.185C137.983 5.53021 137.722 4.99881 137.403 4.7185C137.089 4.4382 136.688 4.29222 136.198 4.29222C135.825 4.29222 135.524 4.39136 135.295 4.5899C135.066 4.78845 134.952 5.00459 134.952 5.24402C134.952 5.54184 135.037 5.79882 135.208 6.00905C135.372 6.23096 135.708 6.45867 136.213 6.70393L137.379 7.27022C138.46 7.80163 139 8.49674 139 9.35517C139 10.0209 138.747 10.558 138.241 10.9668C137.741 11.3756 137.18 11.5741 136.557 11.5741C136.11 11.5741 135.599 11.4984 135.024 11.3349C134.849 11.2823 134.704 11.2588 134.593 11.2588C134.47 11.2588 134.374 11.3231 134.306 11.4632H134.042V8.85304H134.306C134.454 9.60052 134.739 10.1609 135.16 10.5405C135.58 10.9142 136.051 11.1071 136.573 11.1071C136.94 11.1071 137.238 10.9959 137.467 10.7857C137.701 10.5697 137.818 10.307 137.818 10.0033C137.818 9.63539 137.688 9.32598 137.427 9.07488C137.172 8.82961 136.658 8.50836 135.886 8.12878C135.114 7.74336 134.609 7.39895 134.369 7.08944C134.13 6.78578 134.01 6.40024 134.01 5.9389C134.01 5.33742 134.215 4.83516 134.625 4.43222C135.04 4.02344 135.575 3.82487 136.23 3.82487C136.517 3.82487 136.866 3.8833 137.276 4.00594C137.547 4.08769 137.728 4.12855 137.818 4.12855C137.903 4.12855 137.97 4.11097 138.018 4.07009C138.066 4.03506 138.122 3.95335 138.185 3.82487H138.449ZM4.3272 28.9882C3.5768 29.5664 3.10553 29.8991 2.91399 29.9925C2.62668 30.1268 2.32069 30.1909 1.996 30.1909C1.49028 30.1909 1.07216 30.016 0.74222 29.6714C0.417534 29.3269 0.255183 28.8712 0.255183 28.3047C0.255183 27.9485 0.335188 27.6393 0.494612 27.3823C0.713015 27.0203 1.09085 26.6757 1.62869 26.3604C2.17119 26.0392 3.07109 25.6538 4.3272 25.1924V24.9062C4.3272 24.1762 4.20981 23.6741 3.97564 23.4055C3.74673 23.131 3.41153 22.9966 2.96947 22.9966C2.63427 22.9966 2.36856 23.0901 2.17118 23.2712C1.96913 23.4522 1.86811 23.6566 1.86811 23.8902L1.88387 24.3573C1.88387 24.5967 1.82023 24.7895 1.69234 24.9238C1.56971 25.0523 1.40736 25.1223 1.20531 25.1223C1.00851 25.1223 0.846157 25.0523 0.718269 24.9121C0.595635 24.7778 0.534905 24.585 0.534905 24.3456C0.534905 23.8901 0.769078 23.4695 1.23742 23.0841C1.70576 22.7045 2.36273 22.5118 3.20949 22.5118C3.85886 22.5118 4.39084 22.617 4.80604 22.8389C5.12022 23.0024 5.35148 23.2595 5.50039 23.6099C5.59675 23.8435 5.64462 24.3105 5.64462 25.0171V27.4989C5.64462 28.1997 5.65748 28.6261 5.68434 28.7838C5.71062 28.9414 5.75325 29.0466 5.81223 29.0991C5.87588 29.1517 5.9477 29.175 6.02771 29.175C6.11297 29.175 6.18713 29.1576 6.25136 29.1225C6.3629 29.0524 6.57838 28.8597 6.89781 28.5386V28.9882C6.30158 29.7824 5.73222 30.1852 5.18913 30.1852C4.92868 30.1852 4.7208 30.0917 4.56663 29.9107C4.41246 29.7296 4.33246 29.4204 4.3272 28.9882ZM4.3272 28.4684V25.6829C3.52308 25.9982 3.00451 26.2261 2.77033 26.3604C2.34988 26.594 2.04914 26.8391 1.86811 27.096C1.68708 27.3471 1.59657 27.6275 1.59657 27.9312C1.59657 28.3166 1.71102 28.6318 1.93993 28.8887C2.16885 29.1398 2.43222 29.2625 2.73004 29.2625C3.13473 29.2625 3.66673 28.9998 4.3272 28.4684ZM9.58057 24.0593C10.4373 23.0257 11.2542 22.5118 12.0315 22.5118C12.4309 22.5118 12.7743 22.6111 13.0616 22.8155C13.3489 23.0082 13.5778 23.3353 13.7483 23.7967C13.8651 24.1179 13.9235 24.6024 13.9235 25.2623V28.3866C13.9235 28.8479 13.9609 29.1632 14.0357 29.3267C14.0941 29.461 14.1869 29.5661 14.3148 29.642C14.4479 29.7121 14.6903 29.753 15.0412 29.753V30.0393H11.4247V29.753H11.5766C11.917 29.753 12.1541 29.7005 12.2872 29.6013C12.4257 29.4962 12.5214 29.3385 12.5746 29.1399C12.5956 29.0582 12.6061 28.807 12.6061 28.3866V25.3909C12.6061 24.7252 12.5185 24.2462 12.3427 23.9484C12.1728 23.6447 11.8826 23.493 11.4726 23.493C10.839 23.493 10.2083 23.8374 9.58057 24.5323V28.3866C9.58057 28.8829 9.60977 29.1868 9.66817 29.3036C9.74291 29.4613 9.84393 29.5721 9.97182 29.648C10.105 29.7181 10.3707 29.753 10.7701 29.753V30.0393H7.1536V29.753H7.31303C7.6856 29.753 7.93552 29.6595 8.06341 29.4727C8.19656 29.28 8.26314 28.918 8.26314 28.3866V25.6712C8.26314 24.7952 8.24152 24.258 8.19948 24.0653C8.1621 23.8784 8.10079 23.7441 8.01553 23.6741C7.93552 23.6098 7.82691 23.5748 7.68851 23.5748C7.53901 23.5748 7.36091 23.6097 7.1536 23.6915L7.03331 23.4055L9.23719 22.5118H9.58057V24.0593ZM20.7898 29.2158C20.433 29.5895 20.0844 29.8583 19.7439 30.0219C19.4035 30.1854 19.0362 30.2611 18.642 30.2611C17.8437 30.2611 17.1465 29.9283 16.5502 29.2625C15.9546 28.5968 15.6562 27.7324 15.6562 26.6871C15.6562 25.636 15.9861 24.6783 16.646 23.8141C17.3065 22.9381 18.155 22.5001 19.1933 22.5001C19.8374 22.5001 20.3694 22.7046 20.7898 23.1192V21.7702C20.7898 20.9293 20.7688 20.4214 20.7262 20.2287C20.6888 20.036 20.6275 19.9073 20.5422 19.8372C20.457 19.7671 20.3507 19.7323 20.2228 19.7323C20.0844 19.7323 19.901 19.773 19.6721 19.8606L19.5682 19.5803L21.7481 18.687H22.1073V27.1428C22.1073 27.9954 22.1259 28.5209 22.1633 28.7136C22.2059 28.9005 22.2696 29.0289 22.3549 29.1048C22.4454 29.1808 22.5487 29.2158 22.6661 29.2158C22.8098 29.2158 23.0013 29.1691 23.2407 29.0815L23.3289 29.3618L21.1571 30.2611H20.7898V29.2158ZM20.7898 28.6552V24.8888C20.7577 24.5267 20.6619 24.1997 20.5025 23.9019C20.3425 23.6041 20.1299 23.3761 19.8636 23.2301C19.6032 23.0724 19.3474 22.9966 19.0975 22.9966C18.6291 22.9966 18.211 23.2068 17.8437 23.6273C17.3596 24.1821 17.1172 24.988 17.1172 26.0567C17.1172 27.1312 17.3514 27.9544 17.8198 28.5326C18.2881 29.099 18.8096 29.3851 19.3848 29.3851C19.8689 29.3851 20.3372 29.1399 20.7898 28.6552ZM38.4262 30.0393H35.5362L31.8718 24.9763C31.6002 24.988 31.3795 24.9937 31.209 24.9937C31.1395 24.9937 31.0653 24.9937 30.9853 24.9937C30.9053 24.9879 30.823 24.9821 30.7377 24.9763V28.124C30.7377 28.8072 30.8124 29.2276 30.9614 29.3911C31.1634 29.6247 31.4671 29.7416 31.8718 29.7416H32.2946V30.0393H27.6561V29.7416H28.0631C28.521 29.7416 28.8486 29.5954 29.0454 29.2976C29.1569 29.1341 29.213 28.743 29.213 28.124V21.128C29.213 20.4506 29.1382 20.0241 28.9893 19.8606C28.782 19.627 28.4731 19.5104 28.0631 19.5104H27.6561V19.2125H31.6002C32.7501 19.2125 33.5962 19.3 34.1387 19.4694C34.6871 19.6329 35.1502 19.9424 35.528 20.3921C35.9117 20.8418 36.1032 21.379 36.1032 21.998C36.1032 22.6637 35.8848 23.242 35.4486 23.7325C35.017 24.223 34.3466 24.5675 33.4362 24.7719L35.6716 27.8728C36.1826 28.591 36.6218 29.064 36.9891 29.2976C37.3564 29.5312 37.8358 29.6773 38.4262 29.7416V30.0393ZM30.7377 24.4742C30.8387 24.4742 30.9269 24.4799 31.0011 24.4799C31.0758 24.4799 31.1371 24.4799 31.185 24.4799C32.2175 24.4799 32.9947 24.2579 33.5162 23.8141C34.043 23.3644 34.3069 22.7981 34.3069 22.1032C34.3069 21.4258 34.0938 20.8767 33.6681 20.4563C33.2476 20.03 32.6887 19.8198 31.9915 19.8198C31.6826 19.8198 31.265 19.8722 30.7377 19.9715V24.4742ZM40.0234 25.4784C40.0181 26.5646 40.2815 27.4171 40.8135 28.0361C41.3461 28.6551 41.9715 28.9589 42.6898 28.9589C43.1686 28.9589 43.5838 28.8304 43.9354 28.5676C44.2922 28.3049 44.59 27.8495 44.8294 27.2129L45.077 27.3706C44.9655 28.1006 44.6408 28.7663 44.103 29.3677C43.5651 29.9634 42.8918 30.2611 42.083 30.2611C41.2047 30.2611 40.4514 29.9224 39.8237 29.2391C39.2006 28.5559 38.8893 27.6332 38.8893 26.477C38.8893 25.2273 39.2087 24.2521 39.8476 23.5572C40.4917 22.8564 41.2982 22.5001 42.2664 22.5001C43.0863 22.5001 43.7596 22.7748 44.2863 23.3179C44.8137 23.8552 45.077 24.5733 45.077 25.4784H40.0234ZM40.0234 25.0171H43.4086C43.3818 24.5499 43.3257 24.2171 43.2404 24.0302C43.1079 23.7265 42.9082 23.493 42.6419 23.3236C42.3808 23.1543 42.107 23.0667 41.8197 23.0667C41.3776 23.0667 40.9811 23.242 40.6301 23.5865C40.2838 23.9311 40.0818 24.4039 40.0234 25.0171ZM52.2703 27.2597C52.0735 28.2232 51.6875 28.9648 51.1129 29.4904C50.5383 30.0042 49.9018 30.2611 49.2045 30.2611C48.3741 30.2611 47.6506 29.9165 47.0333 29.2158C46.4155 28.5208 46.1071 27.5749 46.1071 26.3895C46.1071 25.239 46.4476 24.3048 47.1291 23.5865C47.8152 22.8682 48.6381 22.5118 49.5958 22.5118C50.3146 22.5118 50.905 22.7045 51.3681 23.0841C51.8312 23.4637 52.063 23.8551 52.063 24.2697C52.063 24.4683 51.9964 24.6317 51.8633 24.7602C51.7354 24.8828 51.5544 24.9469 51.3202 24.9469C51.0066 24.9469 50.7695 24.8418 50.6101 24.6433C50.5196 24.5323 50.4583 24.3165 50.4262 24.0011C50.3999 23.6916 50.293 23.4522 50.1067 23.2829C49.9204 23.1252 49.6623 23.0433 49.3324 23.0433C48.8004 23.0433 48.3718 23.2419 48.0471 23.639C47.6161 24.1587 47.4001 24.8478 47.4001 25.7063C47.4001 26.5764 47.6132 27.3472 48.0389 28.0187C48.4699 28.6845 49.0503 29.0173 49.7797 29.0173C50.3012 29.0173 50.7695 28.8363 51.1847 28.4801C51.4773 28.2348 51.7623 27.7909 52.0391 27.1485L52.2703 27.2597ZM56.9012 22.5118C58.0084 22.5118 58.8972 22.9324 59.5676 23.7733C60.1376 24.4916 60.4219 25.3148 60.4219 26.2492C60.4219 26.9032 60.2648 27.5633 59.9513 28.2349C59.6371 28.9064 59.2032 29.4084 58.6496 29.753C58.1012 30.0917 57.4893 30.2611 56.8136 30.2611C55.7117 30.2611 54.8363 29.8231 54.1869 28.9472C53.6386 28.2055 53.3641 27.3763 53.3641 26.4536C53.3641 25.782 53.5294 25.1164 53.8593 24.4565C54.1945 23.7908 54.6337 23.3062 55.1767 22.9909C55.7198 22.6697 56.2945 22.5118 56.9012 22.5118ZM56.6536 23.0316C56.3715 23.0316 56.0866 23.1135 55.7993 23.2829C55.5172 23.4522 55.2883 23.744 55.1131 24.1645C54.9373 24.585 54.8491 25.1222 54.8491 25.7821C54.8491 26.8508 55.0594 27.7677 55.4798 28.5386C55.9061 29.3094 56.465 29.6948 57.157 29.6948C57.6732 29.6948 58.0989 29.4844 58.4341 29.0581C58.7693 28.6318 58.9369 27.902 58.9369 26.8625C58.9369 25.5603 58.6578 24.5383 58.0989 23.7967C57.7211 23.2828 57.2393 23.0316 56.6536 23.0316ZM63.4562 27.3706C63.0089 27.1546 62.6655 26.8507 62.4261 26.4653C62.1867 26.0682 62.067 25.6361 62.067 25.1631C62.067 24.4389 62.3385 23.8143 62.881 23.2945C63.4294 22.769 64.1295 22.5118 64.981 22.5118C65.6782 22.5118 66.2821 22.6813 66.793 23.02H68.3423C68.5712 23.02 68.7044 23.0317 68.7412 23.0433C68.7785 23.055 68.8054 23.0783 68.8211 23.1075C68.8533 23.1542 68.869 23.2418 68.869 23.3644C68.869 23.5046 68.8556 23.5981 68.8293 23.6507C68.813 23.6799 68.7838 23.6973 68.7412 23.7148C68.7044 23.7324 68.5712 23.7382 68.3423 23.7382H67.3922C67.69 24.1236 67.8389 24.6142 67.8389 25.2098C67.8389 25.8931 67.5785 26.4713 67.057 26.956C66.5349 27.4407 65.8353 27.686 64.957 27.686C64.595 27.686 64.2253 27.6333 63.8475 27.5223C63.6127 27.7267 63.4533 27.9077 63.3681 28.0595C63.2886 28.2055 63.2483 28.3341 63.2483 28.445C63.2483 28.5326 63.291 28.6203 63.3762 28.7079C63.4668 28.7897 63.6396 28.8537 63.8954 28.8887C64.0443 28.9121 64.4169 28.9296 65.0131 28.9472C66.1092 28.9705 66.8199 29.0114 67.1446 29.0581C67.6398 29.1282 68.0334 29.3092 68.326 29.607C68.6244 29.9048 68.7733 30.2728 68.7733 30.7108C68.7733 31.3122 68.4912 31.8728 67.9271 32.4042C67.0967 33.1809 66.0134 33.5664 64.6773 33.5664C63.6501 33.5664 62.7829 33.3387 62.0746 32.8715C61.6757 32.6088 61.476 32.3285 61.476 32.0424C61.476 31.9139 61.5052 31.7852 61.5636 31.6626C61.6541 31.464 61.8404 31.1897 62.1225 30.8394C62.1598 30.7926 62.4314 30.5007 62.9371 29.9751C62.6603 29.8116 62.4635 29.6656 62.3461 29.5371C62.2346 29.4028 62.1785 29.2568 62.1785 29.0875C62.1785 28.9006 62.2533 28.6844 62.4022 28.4333C62.5563 28.1822 62.9079 27.832 63.4562 27.3706ZM64.8455 22.8914C64.4513 22.8914 64.1214 23.0491 63.8551 23.3644C63.5888 23.6797 63.4562 24.1587 63.4562 24.8069C63.4562 25.6537 63.6373 26.3019 63.9987 26.7633C64.2755 27.1195 64.6271 27.2945 65.0528 27.2945C65.4575 27.2945 65.7898 27.1428 66.0508 26.8391C66.3118 26.5355 66.4421 26.0565 66.4421 25.4083C66.4421 24.5615 66.2581 23.9017 65.8914 23.4229C65.6198 23.0666 65.2712 22.8914 64.8455 22.8914ZM63.3762 30.0393C63.1263 30.3079 62.9371 30.5647 62.8092 30.7983C62.6813 31.0319 62.6177 31.2482 62.6177 31.4467C62.6177 31.6978 62.7718 31.9254 63.0807 32.1122C63.6127 32.4451 64.3824 32.6086 65.388 32.6086C66.3463 32.6086 67.0517 32.4392 67.5037 32.1005C67.9615 31.7618 68.1905 31.4058 68.1905 31.0204C68.1905 30.746 68.055 30.5473 67.7834 30.4305C67.5066 30.3137 66.9583 30.2437 66.1384 30.2203C64.9413 30.1911 64.0204 30.1268 63.3762 30.0393ZM71.807 24.0593C72.6642 23.0257 73.4812 22.5118 74.2585 22.5118C74.6573 22.5118 75.0007 22.6111 75.288 22.8155C75.5759 23.0082 75.8042 23.3353 75.9747 23.7967C76.0921 24.1179 76.1505 24.6024 76.1505 25.2623V28.3866C76.1505 28.8479 76.1879 29.1632 76.262 29.3267C76.321 29.461 76.4139 29.5661 76.5418 29.642C76.6749 29.7121 76.9167 29.753 77.2682 29.753V30.0393H73.6517V29.753H73.803C74.144 29.753 74.3805 29.7005 74.5136 29.6013C74.652 29.4962 74.7478 29.3385 74.801 29.1399C74.8226 29.0582 74.8331 28.807 74.8331 28.3866V25.3909C74.8331 24.7252 74.7455 24.2462 74.5697 23.9484C74.3992 23.6447 74.109 23.493 73.6996 23.493C73.066 23.493 72.4353 23.8374 71.807 24.5323V28.3866C71.807 28.8829 71.8368 29.1868 71.8952 29.3036C71.9693 29.4613 72.0709 29.5721 72.1982 29.648C72.3314 29.7181 72.5977 29.753 72.9965 29.753V30.0393H69.38V29.753H69.54C69.9126 29.753 70.1625 29.6595 70.2904 29.4727C70.4235 29.28 70.4901 28.918 70.4901 28.3866V25.6712C70.4901 24.7952 70.4685 24.258 70.4259 24.0653C70.3885 23.8784 70.3278 23.7441 70.2425 23.6741C70.1625 23.6098 70.0533 23.5748 69.9149 23.5748C69.766 23.5748 69.5879 23.6097 69.38 23.6915L69.2603 23.4055L71.4642 22.5118H71.807V24.0593ZM79.7115 18.687C79.9346 18.687 80.1238 18.7688 80.278 18.9265C80.438 19.0783 80.5174 19.2709 80.5174 19.4928C80.5174 19.7147 80.438 19.9074 80.278 20.065C80.1238 20.2286 79.9346 20.3046 79.7115 20.3046C79.4879 20.3046 79.2963 20.2286 79.1363 20.065C78.9769 19.9074 78.8969 19.7147 78.8969 19.4928C78.8969 19.2709 78.974 19.0783 79.1282 18.9265C79.2882 18.7688 79.4826 18.687 79.7115 18.687ZM80.3738 22.5118V28.3866C80.3738 28.8421 80.4059 29.1518 80.4695 29.3036C80.539 29.4554 80.6371 29.5661 80.765 29.642C80.8982 29.7121 81.1376 29.753 81.4839 29.753V30.0393H77.9311V29.753C78.2873 29.753 78.5273 29.7181 78.6493 29.648C78.7719 29.578 78.8677 29.4671 78.9366 29.3036C79.0114 29.1459 79.0488 28.8362 79.0488 28.3866V25.566C79.0488 24.7776 79.0248 24.2638 78.9769 24.0302C78.9395 23.855 78.8812 23.7383 78.8012 23.6741C78.7212 23.6098 78.6119 23.5748 78.4735 23.5748C78.3246 23.5748 78.1436 23.6097 77.9311 23.6915L77.8189 23.4055L80.0228 22.5118H80.3738ZM84.5258 20.322V22.728H86.2339V23.2829H84.5258V28.0244C84.5258 28.5033 84.5923 28.8189 84.7249 28.9882C84.8633 29.1517 85.0391 29.2334 85.2522 29.2334C85.428 29.2334 85.598 29.1809 85.7632 29.0758C85.9279 28.959 86.0558 28.8011 86.1463 28.585H86.4575C86.2712 29.1048 86.0079 29.502 85.6674 29.7706C85.3264 30.0276 84.9754 30.1619 84.6134 30.1619C84.3687 30.1619 84.1293 30.0917 83.8951 29.9574C83.6609 29.8231 83.4875 29.6247 83.3759 29.3794C83.2644 29.1225 83.2084 28.7311 83.2084 28.2055V23.2829H82.0503V23.02C82.3435 22.9032 82.6413 22.7047 82.945 22.4303C83.2533 22.15 83.5278 21.8169 83.7672 21.4314C83.8892 21.2329 84.0598 20.8592 84.2782 20.322H84.5258ZM88.8127 18.687C89.0363 18.687 89.2256 18.7688 89.3797 18.9265C89.5397 19.0783 89.6191 19.2709 89.6191 19.4928C89.6191 19.7147 89.5397 19.9074 89.3797 20.065C89.2256 20.2286 89.0363 20.3046 88.8127 20.3046C88.5896 20.3046 88.3981 20.2286 88.2381 20.065C88.0786 19.9074 87.9986 19.7147 87.9986 19.4928C87.9986 19.2709 88.0757 19.0783 88.2299 18.9265C88.3899 18.7688 88.5844 18.687 88.8127 18.687ZM89.4755 22.5118V28.3866C89.4755 28.8421 89.5076 29.1518 89.5713 29.3036C89.6408 29.4554 89.7388 29.5661 89.8667 29.642C89.9999 29.7121 90.2393 29.753 90.5856 29.753V30.0393H87.0328V29.753C87.389 29.753 87.6284 29.7181 87.751 29.648C87.8737 29.578 87.9694 29.4671 88.0383 29.3036C88.1131 29.1459 88.1505 28.8362 88.1505 28.3866V25.566C88.1505 24.7776 88.1265 24.2638 88.0786 24.0302C88.0413 23.855 87.9829 23.7383 87.9029 23.6741C87.8229 23.6098 87.7136 23.5748 87.5752 23.5748C87.4263 23.5748 87.2453 23.6097 87.0328 23.6915L86.9206 23.4055L89.1245 22.5118H89.4755ZM95.0804 22.5118C96.1876 22.5118 97.0764 22.9324 97.7468 23.7733C98.3168 24.4916 98.6012 25.3148 98.6012 26.2492C98.6012 26.9032 98.4441 27.5633 98.1305 28.2349C97.8163 28.9064 97.3824 29.4084 96.8288 29.753C96.2805 30.0917 95.6685 30.2611 94.9928 30.2611C93.8909 30.2611 93.0149 29.8231 92.3655 28.9472C91.8178 28.2055 91.5433 27.3763 91.5433 26.4536C91.5433 25.782 91.7086 25.1164 92.0385 24.4565C92.3737 23.7908 92.8129 23.3062 93.356 22.9909C93.8985 22.6697 94.4737 22.5118 95.0804 22.5118ZM94.8328 23.0316C94.5508 23.0316 94.2658 23.1135 93.9785 23.2829C93.6964 23.4522 93.4675 23.744 93.2917 24.1645C93.1165 24.585 93.0283 25.1222 93.0283 25.7821C93.0283 26.8508 93.2386 27.7677 93.659 28.5386C94.0847 29.3094 94.6442 29.6948 95.3356 29.6948C95.8524 29.6948 96.2781 29.4844 96.6133 29.0581C96.9485 28.6318 97.1161 27.902 97.1161 26.8625C97.1161 25.5603 96.837 24.5383 96.2781 23.7967C95.9003 23.2828 95.4185 23.0316 94.8328 23.0316ZM101.811 24.0593C102.668 23.0257 103.485 22.5118 104.262 22.5118C104.661 22.5118 105.004 22.6111 105.292 22.8155C105.579 23.0082 105.808 23.3353 105.978 23.7967C106.096 24.1179 106.154 24.6024 106.154 25.2623V28.3866C106.154 28.8479 106.192 29.1632 106.266 29.3267C106.324 29.461 106.418 29.5661 106.545 29.642C106.679 29.7121 106.92 29.753 107.272 29.753V30.0393H103.655V29.753H103.807C104.148 29.753 104.384 29.7005 104.517 29.6013C104.656 29.4962 104.751 29.3385 104.805 29.1399C104.826 29.0582 104.837 28.807 104.837 28.3866V25.3909C104.837 24.7252 104.749 24.2462 104.573 23.9484C104.403 23.6447 104.113 23.493 103.703 23.493C103.07 23.493 102.439 23.8374 101.811 24.5323V28.3866C101.811 28.8829 101.84 29.1868 101.899 29.3036C101.973 29.4613 102.074 29.5721 102.202 29.648C102.335 29.7181 102.601 29.753 103 29.753V30.0393H99.3837V29.753H99.5431C99.9162 29.753 100.166 29.6595 100.294 29.4727C100.427 29.28 100.493 28.918 100.493 28.3866V25.6712C100.493 24.7952 100.472 24.258 100.43 24.0653C100.392 23.8784 100.331 23.7441 100.246 23.6741C100.166 23.6098 100.057 23.5748 99.9186 23.5748C99.7697 23.5748 99.5915 23.6097 99.3837 23.6915L99.264 23.4055L101.467 22.5118H101.811V24.0593Z" fill="#1F1F1F"/>
</svg>
