<svg width="257" height="21" viewBox="0 0 257 21" fill="none" xmlns="http://www.w3.org/2000/svg">
<path d="M0 0.707491H3.95973L12.8801 11.6507V3.23595C12.8801 2.33707 12.7798 1.78041 12.5786 1.56003C12.3135 1.25847 11.8937 1.10768 11.3201 1.10768H10.8138V0.707491H15.8928V1.10768H15.3767C14.7596 1.10768 14.3218 1.29323 14.0637 1.66438C13.906 1.89635 13.8271 2.41826 13.8271 3.23595V15.5362H13.4397L3.81995 3.78693V12.77C3.81995 13.6688 3.91678 14.2256 4.11048 14.4459C4.38304 14.7475 4.80292 14.8983 5.36951 14.8983H5.88565V15.2984H0.807237V14.8983H1.31294C1.93694 14.8983 2.37825 14.7127 2.63631 14.3415C2.79405 14.1096 2.87294 13.5876 2.87294 12.77V2.62127C2.44959 2.12834 2.12716 1.80354 1.90447 1.64116C1.68932 1.48458 1.37036 1.33959 0.947015 1.20041C0.738822 1.13662 0.423345 1.10768 0 1.10768V0.707491ZM25.5451 5.4397V11.4129C25.5451 12.5554 25.57 13.2513 25.6205 13.5123C25.6779 13.7616 25.7637 13.9414 25.8785 14.04C26.0003 14.1385 26.1407 14.1907 26.2984 14.1907C26.5205 14.1907 26.7716 14.127 27.0517 14.0052L27.202 14.3822L24.2536 15.6H23.7694V13.5123C22.9233 14.4286 22.2772 15.0085 21.8324 15.2462C21.3882 15.484 20.9179 15.6 20.4232 15.6C19.8705 15.6 19.3904 15.4434 18.9809 15.1244C18.5796 14.8055 18.2995 14.3937 18.1418 13.8892C17.984 13.3846 17.9052 12.6772 17.9052 11.7609V7.35928C17.9052 6.88954 17.8547 6.57056 17.7544 6.39078C17.6541 6.21101 17.5033 6.07185 17.3026 5.97906C17.1089 5.88047 16.754 5.83401 16.2373 5.83981V5.4397H19.6913V12.0392C19.6913 12.9555 19.8491 13.5586 20.1651 13.8486C20.4876 14.1328 20.875 14.2777 21.3267 14.2777C21.6352 14.2777 21.9832 14.1792 22.3706 13.9878C22.7655 13.7906 23.2318 13.4252 23.7694 12.8801V7.29543C23.7694 6.7329 23.6656 6.35598 23.4574 6.1646C23.2567 5.96163 22.8333 5.85721 22.1879 5.83981V5.4397H25.5451ZM30.8497 7.24906C31.567 6.52995 31.9904 6.1182 32.1197 6.01382C32.4421 5.74125 32.7901 5.52669 33.1636 5.37591C33.5365 5.22513 33.9059 5.14973 34.2718 5.14973C34.8888 5.14973 35.4195 5.32954 35.8643 5.6891C36.3091 6.04865 36.6066 6.57055 36.7574 7.24906C37.4962 6.39077 38.1202 5.82822 38.6293 5.56146C39.1391 5.28889 39.6628 5.14973 40.2004 5.14973C40.724 5.14973 41.1868 5.28889 41.5887 5.56146C41.9976 5.82822 42.3206 6.26317 42.5572 6.87209C42.7149 7.28964 42.7938 7.93916 42.7938 8.83224V13.0715C42.7938 13.6862 42.8402 14.1096 42.9335 14.3415C43.0055 14.4981 43.1383 14.6373 43.332 14.7475C43.5257 14.8577 43.8411 14.9098 44.279 14.9098V15.2984H39.4152V14.9098H39.6193C40.0426 14.9098 40.3726 14.8287 40.6092 14.6663C40.7745 14.5503 40.8928 14.3647 40.9647 14.1153C40.9931 13.9936 41.0076 13.6457 41.0076 13.0715V8.83224C41.0076 8.02615 40.9108 7.46366 40.7171 7.1331C40.4376 6.67496 39.9887 6.44296 39.3722 6.44296C38.9918 6.44296 38.6079 6.54154 38.2205 6.73292C37.8407 6.91849 37.3779 7.27229 36.8328 7.78842L36.8113 7.90438L36.8328 8.36835V13.0715C36.8328 13.7442 36.8687 14.1675 36.94 14.3299C37.0189 14.4923 37.1627 14.6373 37.3703 14.7475C37.5785 14.8577 37.9334 14.9098 38.4357 14.9098V15.2984H33.4541V14.9098C33.9992 14.9098 34.3721 14.8461 34.5728 14.7185C34.781 14.5909 34.9242 14.3937 35.0031 14.1386C35.039 14.0168 35.057 13.6572 35.057 13.0715V8.83224C35.057 8.02615 34.9387 7.45203 34.7021 7.09827C34.3866 6.64013 33.9453 6.4082 33.3787 6.4082C32.9913 6.4082 32.6074 6.51253 32.227 6.72131C31.632 7.04027 31.1727 7.39407 30.8497 7.78842V13.0715C30.8497 13.7152 30.8932 14.1385 30.979 14.3299C31.0724 14.5213 31.2052 14.6721 31.3768 14.7707C31.5566 14.8635 31.915 14.9098 32.4532 14.9098V15.2984H27.5789V14.9098C28.0306 14.9098 28.3461 14.8635 28.5259 14.7707C28.7051 14.6721 28.8414 14.5155 28.9348 14.3068C29.0275 14.0922 29.0745 13.6804 29.0745 13.0715V9.30782C29.0745 8.22336 29.042 7.52165 28.9777 7.2085C28.9272 6.97073 28.8484 6.8083 28.7411 6.72131C28.6332 6.62852 28.4859 6.58213 28.2997 6.58213C28.0985 6.58213 27.8584 6.63434 27.5789 6.74453L27.4171 6.35595L30.3869 5.14973H30.8497V7.24906ZM47.7759 7.14464C48.7299 5.81661 49.7593 5.14973 50.864 5.14973C51.8754 5.14973 52.7581 5.58468 53.5108 6.45457C54.2641 7.31285 54.6411 8.49589 54.6411 9.99209C54.6411 11.7435 54.06 13.1527 52.8978 14.2198C51.9003 15.1418 50.7886 15.6 49.5621 15.6C48.988 15.6 48.4034 15.4956 47.8084 15.2868C47.2198 15.078 46.6172 14.7649 46.0002 14.3531V4.14067C46.0002 3.02142 45.9718 2.33127 45.9144 2.0761C45.8639 1.81514 45.7816 1.64121 45.6667 1.54842C45.5519 1.45564 45.4087 1.40925 45.2364 1.40925C45.0358 1.40925 44.7847 1.46139 44.4831 1.57738L44.3323 1.20041L47.2917 0H47.7759V7.14464ZM47.7759 7.82898V13.7268C48.1419 14.0864 48.5182 14.3589 48.9056 14.5445C49.3 14.7243 49.7019 14.8171 50.1107 14.8171C50.7637 14.8171 51.3697 14.4576 51.9294 13.7385C52.4959 13.0193 52.7795 11.9755 52.7795 10.6068C52.7795 9.34261 52.4959 8.37413 51.9294 7.70142C51.3697 7.02291 50.7312 6.68074 50.0139 6.68074C49.634 6.68074 49.2536 6.77353 48.8731 6.97071C48.5867 7.11569 48.2207 7.39984 47.7759 7.82898ZM57.7506 9.15703C57.7437 10.6184 58.0986 11.7667 58.816 12.5959C59.5333 13.431 60.3759 13.8486 61.3444 13.8486C61.9905 13.8486 62.5495 13.6688 63.0233 13.3209C63.5041 12.9613 63.9054 12.3524 64.2284 11.4883L64.5619 11.7029C64.4111 12.6888 63.9738 13.5818 63.2489 14.3937C62.5246 15.1998 61.617 15.6 60.5267 15.6C59.3431 15.6 58.3282 15.1418 57.4815 14.2198C56.6424 13.2977 56.2225 12.0566 56.2225 10.4966C56.2225 8.81484 56.6528 7.49846 57.514 6.55898C58.3822 5.61371 59.469 5.13812 60.7744 5.13812C61.8791 5.13812 62.7867 5.50929 63.4965 6.24C64.2069 6.9649 64.5619 7.93339 64.5619 9.15703H57.7506ZM57.7506 8.53067H62.3129C62.2769 7.89855 62.2016 7.45205 62.0873 7.19689C61.9075 6.79674 61.6385 6.47778 61.2801 6.25161C60.9286 6.01964 60.5592 5.90366 60.1718 5.90366C59.5762 5.90366 59.0421 6.13561 58.5683 6.60535C58.1021 7.06349 57.8295 7.70718 57.7506 8.53067ZM68.7692 5.14973V7.37082C69.5944 5.89201 70.4405 5.14973 71.3087 5.14973C71.703 5.14973 72.0295 5.27152 72.2876 5.51509C72.5462 5.75286 72.675 6.03125 72.675 6.34441C72.675 6.62278 72.5822 6.86053 72.3955 7.05771C72.2087 7.24908 71.9866 7.34767 71.7286 7.34767C71.4774 7.34767 71.1939 7.22588 70.8784 6.98232C70.5699 6.72715 70.3402 6.60535 70.1894 6.60535C70.0607 6.60535 69.9203 6.67494 69.7701 6.81992C69.4471 7.11568 69.1137 7.59702 68.7692 8.26973V12.9961C68.7692 13.5413 68.8376 13.953 68.9739 14.2314C69.0667 14.4285 69.232 14.5909 69.4686 14.7185C69.7052 14.8461 70.0462 14.9098 70.491 14.9098V15.2984H65.4445V14.9098C65.9467 14.9098 66.3196 14.8345 66.5632 14.6721C66.7429 14.5619 66.8682 14.3763 66.9401 14.127C66.9761 14.0052 66.9941 13.6573 66.9941 13.0831V9.26138C66.9941 8.11313 66.9685 7.43461 66.9187 7.22003C66.8752 6.99386 66.7893 6.8315 66.66 6.73292C66.5382 6.63433 66.384 6.58213 66.1972 6.58213C65.9751 6.58213 65.724 6.63434 65.4445 6.74453L65.3366 6.35595L68.3174 5.14973H68.7692ZM83.5538 5.14973C85.0459 5.14973 86.2441 5.71809 87.1476 6.84895C87.9154 7.81742 88.2993 8.93081 88.2993 10.1892C88.2993 11.0707 88.0877 11.9639 87.6643 12.8686C87.241 13.7732 86.6564 14.4517 85.9106 14.9098C85.1718 15.368 84.3466 15.6 83.4355 15.6C81.9509 15.6 80.7707 15.0084 79.8956 13.8254C79.1562 12.8279 78.7868 11.7087 78.7868 10.4677C78.7868 9.56299 79.0095 8.6641 79.4543 7.77681C79.9061 6.87793 80.4982 6.22259 81.2295 5.79925C81.9613 5.3643 82.7361 5.14973 83.5538 5.14973ZM83.2203 5.85142C82.8399 5.85142 82.4566 5.96746 82.0692 6.19363C81.6888 6.4198 81.3802 6.8141 81.1436 7.37663C80.907 7.94495 80.7887 8.67567 80.7887 9.56295C80.7887 10.9954 81.0717 12.2364 81.6383 13.2745C82.2124 14.3184 82.9657 14.8344 83.8983 14.8344C84.5942 14.8344 85.1677 14.5503 85.6201 13.9762C86.0718 13.402 86.298 12.4162 86.298 11.0186C86.298 9.2672 85.9211 7.88697 85.1677 6.8837C84.6586 6.19359 84.0096 5.85142 83.2203 5.85142ZM93.6039 6.21678V12.6946C93.6039 13.6108 93.7042 14.1966 93.9055 14.4401C94.1705 14.7533 94.526 14.9098 94.9708 14.9098H95.8639V15.2984H89.9776V14.9098H90.419C90.706 14.9098 90.9675 14.8403 91.2047 14.6953C91.4413 14.5503 91.6026 14.3589 91.689 14.1153C91.7818 13.8718 91.8287 13.3963 91.8287 12.6946V6.21678H89.9133V5.4397H91.8287V4.79599C91.8287 3.81592 91.9865 2.9808 92.302 2.30228C92.6175 1.61797 93.0982 1.06706 93.7436 0.655318C94.3966 0.231973 95.1285 0.0174147 95.9392 0.0174147C96.692 0.0174147 97.3844 0.260989 98.016 0.748126C98.4318 1.07288 98.64 1.43824 98.64 1.83839C98.64 2.05296 98.5466 2.2559 98.3599 2.45307C98.1737 2.63865 97.9725 2.73142 97.7573 2.73142C97.5926 2.73142 97.4169 2.67347 97.2302 2.55749C97.051 2.4357 96.8283 2.1805 96.5632 1.79195C96.2976 1.3976 96.0541 1.13664 95.8314 0.997454C95.6093 0.864071 95.3616 0.794494 95.0891 0.794494C94.7591 0.794494 94.479 0.88146 94.2499 1.06124C94.0203 1.23521 93.855 1.5078 93.7547 1.87895C93.6544 2.2443 93.6039 3.19541 93.6039 4.73221V5.4397H96.1434V6.21678H93.6039ZM112.015 0.37116V5.42228H111.617C111.488 4.45381 111.254 3.68251 110.918 3.10839C110.588 2.53426 110.114 2.07613 109.497 1.73977C108.88 1.40342 108.242 1.23524 107.582 1.23524C106.835 1.23524 106.219 1.46138 105.731 1.92532C105.243 2.37766 104.999 2.89382 104.999 3.47374C104.999 3.92029 105.154 4.32042 105.462 4.69157C105.906 5.2251 106.965 5.94426 108.636 6.84314C109.999 7.57385 110.928 8.13632 111.423 8.53067C111.925 8.91922 112.309 9.37736 112.574 9.90509C112.847 10.4386 112.983 10.9953 112.983 11.5753C112.983 12.6829 112.553 13.634 111.692 14.4401C110.839 15.2346 109.737 15.6347 108.389 15.6347C107.966 15.6347 107.567 15.6 107.194 15.5362C106.972 15.5014 106.51 15.368 105.806 15.1476C105.11 14.9157 104.669 14.8055 104.483 14.8055C104.303 14.8055 104.16 14.8577 104.052 14.9621C103.952 15.0723 103.877 15.2926 103.826 15.6347H103.428V10.63H103.826C104.013 11.6739 104.264 12.4626 104.58 12.9845C104.895 13.5007 105.376 13.9298 106.021 14.2777C106.674 14.6199 107.388 14.7939 108.163 14.7939C109.059 14.7939 109.766 14.5561 110.283 14.0806C110.806 13.6109 111.068 13.0483 111.068 12.4046C111.068 12.045 110.967 11.6855 110.767 11.3143C110.573 10.949 110.268 10.6126 109.852 10.2937C109.572 10.0791 108.808 9.62676 107.56 8.93086C106.312 8.22335 105.422 7.66661 104.892 7.24906C104.368 6.83151 103.97 6.37338 103.697 5.87464C103.424 5.37011 103.288 4.81919 103.288 4.21606C103.288 3.1664 103.69 2.2675 104.494 1.5136C105.297 0.753894 106.319 0.37116 107.56 0.37116C108.335 0.37116 109.156 0.56253 110.024 0.94528C110.426 1.12506 110.709 1.21202 110.875 1.21202C111.061 1.21202 111.212 1.15988 111.326 1.0497C111.448 0.939512 111.545 0.713316 111.617 0.37116H112.015ZM117.729 2.20374V5.4397H120.032V6.19363H117.729V12.5843C117.729 13.2281 117.818 13.6573 117.998 13.8776C118.184 14.098 118.421 14.214 118.708 14.214C118.945 14.214 119.174 14.1386 119.397 13.9936C119.619 13.8486 119.791 13.6282 119.913 13.3383H120.333C120.082 14.0458 119.727 14.5735 119.267 14.9331C118.809 15.2868 118.335 15.4608 117.847 15.4608C117.517 15.4608 117.194 15.368 116.879 15.1883C116.563 15.0027 116.33 14.7417 116.179 14.4053C116.028 14.0632 115.953 13.5354 115.953 12.8221V6.19363H114.393V5.83981C114.787 5.68323 115.189 5.41647 115.598 5.04532C116.014 4.66257 116.384 4.21606 116.706 3.69992C116.872 3.42736 117.101 2.92865 117.395 2.20374H117.729ZM129.64 5.4397V11.4129C129.64 12.5554 129.665 13.2513 129.716 13.5123C129.773 13.7616 129.859 13.9414 129.974 14.04C130.096 14.1385 130.236 14.1907 130.394 14.1907C130.616 14.1907 130.867 14.127 131.147 14.0052L131.297 14.3822L128.349 15.6H127.865V13.5123C127.019 14.4286 126.373 15.0085 125.928 15.2462C125.484 15.484 125.013 15.6 124.519 15.6C123.966 15.6 123.486 15.4434 123.077 15.1244C122.675 14.8055 122.395 14.3937 122.237 13.8892C122.079 13.3846 122 12.6772 122 11.7609V7.35928C122 6.88954 121.95 6.57056 121.85 6.39078C121.749 6.21101 121.599 6.07185 121.398 5.97906C121.204 5.88047 120.849 5.83401 120.333 5.83981V5.4397H123.787V12.0392C123.787 12.9555 123.944 13.5586 124.26 13.8486C124.583 14.1328 124.97 14.2777 125.422 14.2777C125.731 14.2777 126.079 14.1792 126.466 13.9878C126.861 13.7906 127.327 13.4252 127.865 12.8801V7.29543C127.865 6.7329 127.761 6.35598 127.553 6.1646C127.352 5.96163 126.929 5.85721 126.283 5.83981V5.4397H129.64ZM138.98 14.1907C138.498 14.6895 138.028 15.0548 137.57 15.2752C137.112 15.4898 136.619 15.6 136.086 15.6C135.007 15.6 134.068 15.1534 133.267 14.2545C132.463 13.3498 132.062 12.19 132.062 10.7808C132.062 9.36576 132.506 8.07257 133.395 6.90692C134.288 5.72968 135.43 5.13812 136.828 5.13812C137.698 5.13812 138.411 5.41652 138.98 5.96745V4.15228C138.98 3.02723 138.951 2.33127 138.893 2.0761C138.846 1.81514 138.759 1.64121 138.649 1.54842C138.533 1.45564 138.388 1.40925 138.214 1.40925C138.028 1.40925 137.785 1.46139 137.472 1.57738L137.333 1.20041L140.273 0H140.754V11.3897C140.754 12.5496 140.783 13.2513 140.83 13.5123C140.887 13.7616 140.974 13.9414 141.09 14.04C141.212 14.1385 141.351 14.1907 141.508 14.1907C141.705 14.1907 141.96 14.127 142.285 14.0052L142.401 14.3822L139.472 15.6H138.98V14.1907ZM138.98 13.4369V8.35674C138.939 7.8696 138.806 7.42303 138.591 7.02288C138.376 6.62273 138.092 6.32121 137.733 6.11823C137.379 5.90946 137.037 5.80505 136.7 5.80505C136.068 5.80505 135.506 6.0892 135.007 6.65752C134.358 7.40563 134.033 8.49589 134.033 9.92831C134.033 11.3781 134.346 12.4916 134.978 13.2629C135.61 14.0342 136.312 14.4169 137.089 14.4169C137.739 14.4169 138.371 14.0922 138.98 13.4369ZM144.692 9.15703C144.686 10.6184 145.04 11.7667 145.759 12.5959C146.478 13.431 147.319 13.8486 148.287 13.8486C148.931 13.8486 149.494 13.6688 149.969 13.3209C150.445 12.9613 150.851 12.3524 151.17 11.4883L151.506 11.7029C151.355 12.6888 150.914 13.5818 150.195 14.3937C149.47 15.1998 148.56 15.6 147.47 15.6C146.287 15.6 145.272 15.1418 144.425 14.2198C143.584 13.2977 143.167 12.0566 143.167 10.4966C143.167 8.81484 143.596 7.49846 144.46 6.55898C145.324 5.61371 146.414 5.13812 147.719 5.13812C148.821 5.13812 149.731 5.50929 150.439 6.24C151.152 6.9649 151.506 7.93339 151.506 9.15703H144.692ZM144.692 8.53067H149.256C149.221 7.89855 149.146 7.45205 149.03 7.19689C148.85 6.79674 148.583 6.47778 148.224 6.25161C147.87 6.01964 147.504 5.90366 147.116 5.90366C146.519 5.90366 145.985 6.13561 145.509 6.60535C145.046 7.06349 144.773 7.70718 144.692 8.53067ZM155.705 7.23745C156.859 5.84563 157.96 5.14973 159.004 5.14973C159.544 5.14973 160.008 5.28889 160.396 5.56146C160.779 5.82822 161.092 6.26898 161.318 6.8837C161.475 7.31285 161.556 7.97398 161.556 8.86127V13.0715C161.556 13.6978 161.608 14.1212 161.707 14.3415C161.782 14.5213 161.91 14.6605 162.084 14.7591C162.264 14.8634 162.588 14.9098 163.064 14.9098V15.2984H158.187V14.9098H158.39C158.854 14.9098 159.173 14.8403 159.352 14.7069C159.538 14.5619 159.665 14.3532 159.735 14.0806C159.764 13.9762 159.781 13.6399 159.781 13.0715V9.0352C159.781 8.13632 159.66 7.49261 159.428 7.08666C159.196 6.68072 158.807 6.47778 158.25 6.47778C157.398 6.47778 156.545 6.94167 155.705 7.87535V13.0715C155.705 13.7384 155.739 14.1502 155.821 14.3068C155.919 14.5155 156.058 14.6721 156.226 14.7707C156.406 14.8635 156.766 14.9098 157.305 14.9098V15.2984H152.428V14.9098H152.648C153.147 14.9098 153.483 14.7881 153.657 14.5329C153.837 14.2778 153.924 13.7906 153.924 13.0715V9.41217C153.924 8.22912 153.895 7.51003 153.843 7.24906C153.791 6.99389 153.71 6.8141 153.594 6.72131C153.483 6.62852 153.338 6.58213 153.153 6.58213C152.95 6.58213 152.712 6.63434 152.428 6.74453L152.271 6.35595L155.241 5.14973H155.705V7.23745ZM166.712 2.20374V5.4397H169.014V6.19363H166.712V12.5843C166.712 13.2281 166.799 13.6573 166.978 13.8776C167.164 14.098 167.402 14.214 167.692 14.214C167.924 14.214 168.156 14.1386 168.376 13.9936C168.602 13.8486 168.77 13.6282 168.892 13.3383H169.315C169.06 14.0458 168.706 14.5735 168.248 14.9331C167.79 15.2868 167.315 15.4608 166.828 15.4608C166.497 15.4608 166.178 15.368 165.859 15.1883C165.546 15.0027 165.308 14.7417 165.157 14.4053C165.012 14.0632 164.937 13.5354 164.937 12.8221V6.19363H163.371V5.83981C163.771 5.68323 164.171 5.41647 164.577 5.04532C164.995 4.66257 165.366 4.21606 165.685 3.69992C165.853 3.42736 166.079 2.92865 166.375 2.20374H166.712ZM176.35 5.14973V8.50752H175.996C175.724 7.45206 175.37 6.7387 174.941 6.35595C174.517 5.979 173.978 5.78764 173.317 5.78764C172.812 5.78764 172.406 5.92105 172.099 6.18202C171.792 6.44878 171.635 6.74456 171.635 7.06932C171.635 7.46947 171.751 7.81157 171.983 8.10153C172.203 8.39149 172.656 8.70464 173.34 9.0352L174.912 9.80074C176.367 10.5083 177.092 11.4477 177.092 12.6076C177.092 13.5064 176.75 14.2313 176.072 14.7823C175.399 15.3274 174.639 15.6 173.798 15.6C173.201 15.6 172.511 15.4898 171.734 15.2752C171.496 15.2056 171.305 15.1709 171.154 15.1709C170.991 15.1709 170.858 15.2636 170.765 15.4492H170.411V11.929H170.765C170.968 12.9323 171.351 13.692 171.919 14.2024C172.482 14.7127 173.12 14.9621 173.821 14.9621C174.314 14.9621 174.72 14.8229 175.028 14.5329C175.341 14.243 175.503 13.8892 175.503 13.4774C175.503 12.9845 175.323 12.5669 174.975 12.2306C174.627 11.8942 173.937 11.4651 172.899 10.949C171.855 10.4328 171.177 9.96889 170.852 9.55134C170.527 9.1454 170.371 8.62931 170.371 8.00299C170.371 7.1911 170.643 6.51258 171.194 5.96745C171.757 5.42232 172.476 5.14973 173.357 5.14973C173.746 5.14973 174.216 5.23675 174.767 5.39913C175.138 5.50932 175.381 5.56146 175.503 5.56146C175.613 5.56146 175.706 5.53246 175.77 5.48607C175.834 5.43387 175.909 5.32371 175.996 5.14973H176.35ZM183.367 6.41974L186.4 5.1961H186.812V7.49846C187.322 6.62857 187.827 6.02544 188.337 5.67749C188.853 5.32953 189.398 5.14973 189.961 5.14973C190.952 5.14973 191.776 5.53829 192.437 6.31539C193.249 7.26067 193.655 8.49591 193.655 10.0153C193.655 11.7145 193.168 13.1237 192.188 14.2314C191.387 15.1419 190.372 15.6 189.155 15.6C188.627 15.6 188.163 15.5246 187.78 15.3738C187.49 15.2636 187.171 15.0491 186.812 14.7301V17.7283C186.812 18.4068 186.846 18.8302 186.928 19.0099C187.015 19.1955 187.16 19.3463 187.357 19.4507C187.566 19.5609 187.943 19.613 188.476 19.613V20.0132H183.315V19.613H183.582C183.976 19.6188 184.312 19.5435 184.591 19.3869C184.73 19.3057 184.834 19.1781 184.904 18.9983C184.985 18.8302 185.026 18.3836 185.026 17.6645V8.34513C185.026 7.70721 184.997 7.30128 184.939 7.1331C184.881 6.95913 184.788 6.83152 184.66 6.74453C184.538 6.65754 184.37 6.61696 184.15 6.61696C183.982 6.61696 183.761 6.66336 183.495 6.76775L183.367 6.41974ZM186.812 8.13056V11.8131C186.812 12.6076 186.841 13.1295 186.905 13.3846C187.009 13.7964 187.252 14.1675 187.641 14.4807C188.035 14.7939 188.528 14.9563 189.126 14.9563C189.839 14.9563 190.425 14.6721 190.865 14.1153C191.445 13.3846 191.735 12.3524 191.735 11.0244C191.735 9.52237 191.411 8.36253 190.749 7.55063C190.291 6.9939 189.746 6.7097 189.114 6.7097C188.766 6.7097 188.43 6.79673 188.088 6.97071C187.832 7.09829 187.403 7.48684 186.812 8.13056ZM196.752 9.15703C196.746 10.6184 197.1 11.7667 197.819 12.5959C198.538 13.431 199.379 13.8486 200.347 13.8486C200.991 13.8486 201.553 13.6688 202.023 13.3209C202.504 12.9613 202.905 12.3524 203.229 11.4883L203.566 11.7029C203.415 12.6888 202.974 13.5818 202.249 14.3937C201.524 15.1998 200.62 15.6 199.53 15.6C198.346 15.6 197.332 15.1418 196.485 14.2198C195.644 13.2977 195.226 12.0566 195.226 10.4966C195.226 8.81484 195.656 7.49846 196.514 6.55898C197.384 5.61371 198.468 5.13812 199.779 5.13812C200.881 5.13812 201.791 5.50929 202.499 6.24C203.206 6.9649 203.566 7.93339 203.566 9.15703H196.752ZM196.752 8.53067H201.316C201.281 7.89855 201.205 7.45205 201.089 7.19689C200.91 6.79674 200.643 6.47778 200.283 6.25161C199.93 6.01964 199.558 5.90366 199.176 5.90366C198.578 5.90366 198.045 6.13561 197.569 6.60535C197.105 7.06349 196.833 7.70718 196.752 8.53067ZM207.77 5.14973V7.37082C208.594 5.89201 209.44 5.14973 210.31 5.14973C210.705 5.14973 211.029 5.27152 211.29 5.51509C211.545 5.75286 211.679 6.03125 211.679 6.34441C211.679 6.62278 211.586 6.86053 211.395 7.05771C211.209 7.24908 210.989 7.34767 210.728 7.34767C210.478 7.34767 210.194 7.22588 209.881 6.98232C209.574 6.72715 209.342 6.60535 209.191 6.60535C209.063 6.60535 208.924 6.67494 208.773 6.81992C208.449 7.11568 208.118 7.59702 207.77 8.26973V12.9961C207.77 13.5413 207.84 13.953 207.973 14.2314C208.066 14.4285 208.234 14.5909 208.472 14.7185C208.71 14.8461 209.046 14.9098 209.493 14.9098V15.2984H204.447V14.9098C204.946 14.9098 205.323 14.8345 205.566 14.6721C205.746 14.5619 205.868 14.3763 205.943 14.127C205.978 14.0052 205.996 13.6573 205.996 13.0831V9.26138C205.996 8.11313 205.972 7.43461 205.92 7.22003C205.88 6.99386 205.793 6.8315 205.659 6.73292C205.537 6.63433 205.387 6.58213 205.201 6.58213C204.975 6.58213 204.726 6.63434 204.447 6.74453L204.337 6.35595L207.318 5.14973H207.77ZM226.728 0.707491H231.82V1.10768H231.541C231.356 1.10768 231.083 1.18882 230.724 1.3512C230.364 1.51938 230.039 1.75721 229.744 2.06457C229.448 2.37193 229.088 2.87645 228.659 3.57236L225.139 9.11059V12.77C225.139 13.6688 225.238 14.2256 225.441 14.4459C225.713 14.7475 226.142 14.8983 226.728 14.8983H227.204V15.2984H221.004V14.8983H221.52C222.141 14.8983 222.576 14.7127 222.837 14.3415C222.993 14.1096 223.074 13.5876 223.074 12.77V9.31362L219.067 3.2012C218.597 2.48789 218.273 2.03551 218.099 1.86154C217.936 1.68176 217.588 1.46139 217.055 1.21202C216.916 1.14243 216.707 1.10768 216.434 1.10768V0.707491H222.674V1.10768H222.35C222.013 1.10768 221.7 1.18308 221.416 1.33966C221.137 1.50204 220.998 1.734 220.998 2.05296C220.998 2.30812 221.213 2.77781 221.654 3.45052L224.698 8.15378L227.557 3.65355C227.992 2.98084 228.207 2.48206 228.207 2.1515C228.207 1.94852 228.149 1.76879 228.044 1.61221C227.946 1.45563 227.795 1.33384 227.604 1.24685C227.406 1.15406 227.116 1.10768 226.728 1.10768V0.707491ZM232.284 9.15703C232.278 10.6184 232.632 11.7667 233.351 12.5959C234.064 13.431 234.911 13.8486 235.879 13.8486C236.523 13.8486 237.08 13.6688 237.555 13.3209C238.036 12.9613 238.437 12.3524 238.761 11.4883L239.092 11.7029C238.941 12.6888 238.506 13.5818 237.781 14.3937C237.056 15.1998 236.152 15.6 235.061 15.6C233.878 15.6 232.858 15.1418 232.017 14.2198C231.176 13.2977 230.753 12.0566 230.753 10.4966C230.753 8.81484 231.188 7.49846 232.046 6.55898C232.916 5.61371 234 5.13812 235.305 5.13812C236.413 5.13812 237.317 5.50929 238.031 6.24C238.738 6.9649 239.092 7.93339 239.092 9.15703H232.284ZM232.284 8.53067H236.848C236.807 7.89855 236.732 7.45205 236.621 7.19689C236.442 6.79674 236.169 6.47778 235.81 6.25161C235.462 6.01964 235.09 5.90366 234.702 5.90366C234.11 5.90366 233.577 6.13561 233.101 6.60535C232.637 7.06349 232.365 7.70718 232.284 8.53067ZM246.005 13.8776C244.99 14.6605 244.358 15.1128 244.097 15.2346C243.708 15.4144 243.296 15.5014 242.861 15.5014C242.177 15.5014 241.615 15.2694 241.174 14.8055C240.733 14.3358 240.513 13.721 240.513 12.9613C240.513 12.48 240.623 12.0682 240.838 11.7145C241.133 11.2273 241.644 10.7692 242.363 10.34C243.099 9.90509 244.311 9.38318 246.005 8.76846V8.37988C246.005 7.39401 245.842 6.72131 245.529 6.35595C245.222 5.9906 244.769 5.80505 244.172 5.80505C243.72 5.80505 243.36 5.93264 243.099 6.17621C242.827 6.41978 242.687 6.69811 242.687 7.01127L242.711 7.63763C242.711 7.96819 242.624 8.22333 242.45 8.4031C242.287 8.58288 242.067 8.66985 241.794 8.66985C241.528 8.66985 241.313 8.57707 241.139 8.39149C240.977 8.20592 240.89 7.95078 240.89 7.62602C240.89 7.0113 241.209 6.44295 241.841 5.92681C242.467 5.41068 243.354 5.14973 244.497 5.14973C245.373 5.14973 246.086 5.30052 246.648 5.59048C247.072 5.81665 247.385 6.16464 247.582 6.63438C247.715 6.94754 247.779 7.57379 247.779 8.53067V11.8768C247.779 12.8163 247.797 13.3962 247.831 13.6108C247.866 13.8196 247.924 13.9588 248.005 14.0284C248.092 14.098 248.185 14.1386 248.295 14.1386C248.411 14.1386 248.51 14.1096 248.597 14.0632C248.748 13.9704 249.038 13.7036 249.467 13.2745V13.8776C248.667 14.9563 247.895 15.4898 247.164 15.4898C246.811 15.4898 246.532 15.368 246.324 15.1244C246.115 14.8808 246.01 14.4692 246.005 13.8776ZM246.005 13.1759V9.42378C244.92 9.85292 244.218 10.1603 243.905 10.34C243.337 10.6532 242.931 10.9838 242.687 11.3259C242.444 11.6739 242.322 12.0508 242.322 12.4568C242.322 12.9729 242.479 13.402 242.786 13.75C243.093 14.0863 243.447 14.2545 243.853 14.2545C244.398 14.2545 245.112 13.895 246.005 13.1759ZM253.091 5.14973V7.37082C253.921 5.89201 254.767 5.14973 255.631 5.14973C256.026 5.14973 256.356 5.27152 256.611 5.51509C256.872 5.75286 257 6.03125 257 6.34441C257 6.62278 256.907 6.86053 256.722 7.05771C256.536 7.24908 256.31 7.34767 256.055 7.34767C255.8 7.34767 255.515 7.22588 255.202 6.98232C254.895 6.72715 254.663 6.60535 254.512 6.60535C254.385 6.60535 254.245 6.67494 254.095 6.81992C253.77 7.11568 253.439 7.59702 253.091 8.26973V12.9961C253.091 13.5413 253.161 13.953 253.3 14.2314C253.393 14.4285 253.555 14.5909 253.793 14.7185C254.031 14.8461 254.373 14.9098 254.814 14.9098V15.2984H249.768V14.9098C250.273 14.9098 250.644 14.8345 250.888 14.6721C251.067 14.5619 251.195 14.3763 251.265 14.127C251.299 14.0052 251.317 13.6573 251.317 13.0831V9.26138C251.317 8.11313 251.294 7.43461 251.241 7.22003C251.201 6.99386 251.114 6.8315 250.986 6.73292C250.864 6.63433 250.708 6.58213 250.522 6.58213C250.302 6.58213 250.047 6.63434 249.768 6.74453L249.658 6.35595L252.639 5.14973H253.091Z" fill="white"/>
</svg>
