<svg width="17" height="19" viewBox="0 0 17 19" fill="none" xmlns="http://www.w3.org/2000/svg">
<path d="M15.484 9.43309C16.5602 8.0743 17.5222 6.19008 16.6713 4.71655C15.9599 3.48458 14.2067 3.04963 11.997 3.37574C11.1721 1.2983 9.92262 0 8.49981 0C7.07641 0 5.82572 1.2983 5.00138 3.37574C2.79169 3.04963 1.03855 3.48458 0.327751 4.71655C-0.524965 6.19008 0.434037 8.06826 1.51443 9.43309C0.438868 10.7919 -0.523757 12.6761 0.327751 14.1496C1.18288 15.6352 3.30923 15.7318 4.99896 15.4842C5.8233 17.5677 7.07459 18.8721 8.49981 18.8721C9.92443 18.8721 11.1751 17.5677 11.9995 15.4842C13.6874 15.7318 15.8161 15.6352 16.6713 14.1496C17.5264 12.6701 16.565 10.7979 15.484 9.43309ZM16.0172 5.09104C16.6616 6.20827 15.7805 7.80845 14.9852 8.84717C14.3408 8.1406 13.633 7.4946 12.8715 6.91485C12.7549 5.96671 12.5508 5.02454 12.2628 4.11264C13.5605 3.93751 15.362 3.95569 16.0172 5.09104ZM12.9766 7.96549C13.5201 8.41842 14.0286 8.90769 14.4984 9.43309C14.0286 9.95849 13.5201 10.4475 12.9766 10.9004C13.046 9.92207 13.046 8.94382 12.9766 7.96549ZM12.0073 6.29885C11.1999 5.74326 10.3502 5.24795 9.46546 4.83125C10.1285 4.58365 10.8092 4.39027 11.5012 4.24533C11.7198 4.91567 11.8889 5.59832 12.0073 6.29885ZM8.49981 0.754883C9.56148 0.754883 10.538 1.82369 11.2313 3.51463C10.2958 3.71996 9.38152 4.01599 8.49981 4.39041C7.61751 4.01599 6.70319 3.71996 5.76774 3.51463C6.46163 1.82369 7.43754 0.754883 8.49981 0.754883ZM5.49719 4.24533C6.18927 4.39027 6.86987 4.58365 7.53356 4.83125C6.64884 5.24795 5.79854 5.74326 4.99111 6.29885C5.11008 5.59832 5.27918 4.91567 5.49719 4.24533ZM0.981174 5.09104C1.63822 3.95569 3.43847 3.94354 4.73627 4.11264C4.4482 5.02454 4.24469 5.96671 4.12813 6.91485C3.366 7.4946 2.65883 8.1406 2.01446 8.84717C1.22093 7.80845 0.336202 6.20827 0.981174 5.09104ZM4.02245 10.9004C3.47893 10.4475 2.96984 9.95849 2.5 9.43309C2.96984 8.90769 3.47893 8.41842 4.02245 7.96549C3.9524 8.94382 3.9524 9.92207 4.02245 10.9004ZM0.981174 13.7751C0.336806 12.6579 1.21851 11.0576 2.01386 10.0249C2.65762 10.7315 3.3654 11.3716 4.12753 11.9513C4.24408 12.8995 4.4482 13.8416 4.73747 14.7535C2.92998 15.0011 1.51201 14.6931 0.981174 13.7751ZM4.99111 12.5732C5.79854 13.1288 6.64884 13.6181 7.53417 14.0408C6.87047 14.2824 6.19047 14.4815 5.4984 14.6265C5.27978 13.9501 5.11008 13.2677 4.99111 12.5732ZM8.49981 18.1172C7.43573 18.1172 6.45921 17.0363 5.76532 15.3454C6.70138 15.14 7.6163 14.8499 8.49921 14.4755C9.38152 14.8499 10.297 15.14 11.2331 15.3454C10.5398 17.0363 9.56269 18.1172 8.49981 18.1172ZM11.5006 14.6265C10.8085 14.4815 10.1285 14.2824 9.46486 14.0408C10.3502 13.6181 11.2005 13.1288 12.0073 12.5732C11.8883 13.2677 11.7192 13.9501 11.5006 14.6265ZM8.49981 13.6483C7.20383 13.0928 5.9773 12.38 4.84316 11.5406C4.68554 10.1395 4.68554 8.72638 4.84316 7.32532C5.9779 6.48589 7.20443 5.77931 8.49921 5.21164C9.79399 5.77931 11.0205 6.48589 12.1559 7.32532C12.3129 8.72638 12.3129 10.1395 12.1559 11.5406C11.0217 12.38 9.79519 13.0928 8.49981 13.6483ZM16.0172 13.7751C15.487 14.6931 14.069 15.0011 12.2615 14.7535C12.5502 13.8416 12.7537 12.8995 12.8709 11.9513C13.6324 11.3716 14.3402 10.7315 14.9846 10.0249C15.7769 11.0576 16.6628 12.6579 16.0172 13.7751Z" fill="#0086FD"/>
</svg>
