<svg width="10" height="10" viewBox="0 0 10 10" fill="none" xmlns="http://www.w3.org/2000/svg">
<path d="M3.18021 1.93414C4.25054 0.644696 5.27092 0 6.24136 0C6.73965 0 7.16825 0.126256 7.52716 0.378826C7.88606 0.624775 8.1718 1.03357 8.38493 1.60515C8.5307 2.00395 8.60388 2.61549 8.60388 3.43963V7.33795C8.60388 7.9162 8.65034 8.30833 8.74384 8.51438C8.81701 8.68054 8.93316 8.81016 9.09287 8.9032C9.25897 8.99629 9.56096 9.04281 10 9.04281V9.40172H5.48348V9.04281H5.6728C6.0985 9.04281 6.3941 8.97968 6.5602 8.85337C6.73326 8.72043 6.8529 8.52768 6.91911 8.27511C6.94582 8.1754 6.95918 7.86301 6.95918 7.33795V3.59917C6.95918 2.76834 6.84942 2.16679 6.62989 1.79459C6.41734 1.4157 6.05494 1.22632 5.5433 1.22632C4.75231 1.22632 3.96481 1.65835 3.18021 2.52239V7.33795C3.18021 7.95604 3.21679 8.33824 3.28997 8.48447C3.38289 8.67722 3.5095 8.82015 3.66863 8.91319C3.8353 8.9996 4.16749 9.04281 4.66578 9.04281V9.40172H0.149256V9.04281H0.349032C0.814216 9.04281 1.12667 8.92648 1.28579 8.69383C1.45247 8.45456 1.53551 8.00262 1.53551 7.33795V3.94814C1.53551 2.85139 1.5088 2.1834 1.45537 1.94413C1.40891 1.70486 1.33283 1.54202 1.22597 1.4556C1.12666 1.36919 0.99018 1.32598 0.817696 1.32598C0.631274 1.32598 0.408853 1.37587 0.149256 1.47552L0 1.11662L2.75161 0H3.18021V1.93414Z" fill="#0086FD"/>
</svg>
