<svg width="38" height="7" viewBox="0 0 38 7" fill="none" xmlns="http://www.w3.org/2000/svg">
<path d="M3.03275 4.47595C3.03275 4.8475 2.98631 5.17825 2.89343 5.47433C2.80344 5.7704 2.66873 6.02006 2.48934 6.22325C2.31286 6.42063 2.09458 6.57755 1.8345 6.68785C1.57441 6.79235 1.27543 6.85028 0.938136 6.85028C0.63161 6.85028 0.318717 6.80385 0 6.71677C0.00638596 6.62969 0.0139202 6.54277 0.0232089 6.45569C0.0324976 6.36281 0.0400319 6.27575 0.0464178 6.18867C0.0528038 6.13642 0.071386 6.09552 0.102155 6.06649C0.136407 6.03166 0.187516 6.01433 0.25544 6.01433C0.311172 6.01433 0.383726 6.02584 0.47371 6.05487C0.566597 6.0839 0.690261 6.09569 0.845265 6.09569C1.04962 6.09569 1.23247 6.06657 1.39328 6.00271C1.55409 5.94466 1.6888 5.84611 1.79736 5.71839C1.90592 5.58487 1.98775 5.42211 2.04348 5.21892C2.10212 5.01573 2.13175 4.77191 2.13175 4.49325V0.121891H3.03275V4.47595ZM6.29075 1.99703C6.63443 1.99703 6.94443 2.05511 7.2196 2.16541C7.49536 2.28152 7.73048 2.44398 7.92554 2.65297C8.12061 2.86777 8.26923 3.12339 8.3714 3.41947C8.47706 3.72135 8.52933 4.0521 8.52933 4.41784C8.52933 4.78939 8.47706 5.12609 8.3714 5.42217C8.26923 5.71825 8.12061 5.97372 7.92554 6.18271C7.73048 6.39751 7.49536 6.55997 7.2196 6.67028C6.94443 6.78639 6.63443 6.83866 6.29075 6.83866C5.94417 6.83866 5.63124 6.78639 5.35258 6.67028C5.0774 6.55997 4.8417 6.39751 4.64664 6.18271C4.45158 5.97372 4.30179 5.71825 4.19614 5.42217C4.09396 5.12609 4.04289 4.78939 4.04289 4.41784C4.04289 4.0521 4.09396 3.72135 4.19614 3.41947C4.30179 3.12339 4.45158 2.86777 4.64664 2.65297C4.8417 2.44398 5.0774 2.28152 5.35258 2.16541C5.63124 2.05511 5.94417 1.99703 6.29075 1.99703ZM6.29075 6.19434C6.75518 6.19434 7.10234 6.0377 7.33108 5.73002C7.56039 5.41652 7.67475 4.98112 7.67475 4.4238C7.67475 3.86648 7.56039 3.42526 7.33108 3.11758C7.10234 2.80408 6.75518 2.6473 6.29075 2.6473C6.05563 2.6473 5.84952 2.68792 5.67304 2.7692C5.50004 2.84467 5.35431 2.96083 5.23646 3.11758C5.1221 3.26852 5.0356 3.45427 4.97638 3.67487C4.92065 3.89548 4.89279 4.14514 4.89279 4.4238C4.89279 4.98112 5.00773 5.41652 5.23646 5.73002C5.46868 6.0377 5.82051 6.19434 6.29075 6.19434ZM10.4509 2.07243V6.77488H9.62422V2.07243H10.4509ZM10.6274 0.592164C10.6274 0.67344 10.6105 0.74899 10.5763 0.818655C10.5455 0.88832 10.502 0.952077 10.4462 1.00433C10.394 1.05657 10.3302 1.10286 10.2559 1.13189C10.185 1.16091 10.109 1.17838 10.0283 1.17838C9.94816 1.17838 9.87209 1.16091 9.80068 1.13189C9.73276 1.10286 9.67241 1.05657 9.61958 1.00433C9.56733 0.952077 9.52553 0.88832 9.49418 0.818655C9.46341 0.74899 9.44773 0.67344 9.44773 0.592164C9.44773 0.510888 9.46341 0.435338 9.49418 0.365673C9.52553 0.290203 9.56733 0.226298 9.61958 0.174049C9.67241 0.1218 9.73276 0.0755158 9.80068 0.0464887C9.87209 0.0116562 9.94816 0 10.0283 0C10.109 0 10.185 0.0116562 10.2559 0.0464887C10.3302 0.0755158 10.394 0.1218 10.4462 0.174049C10.502 0.226298 10.5455 0.290203 10.5763 0.365673C10.6105 0.435338 10.6274 0.510888 10.6274 0.592164ZM12.5896 2.75162C12.6918 2.63551 12.8003 2.53694 12.9147 2.44406C13.0291 2.35117 13.1498 2.26981 13.277 2.20595C13.407 2.13628 13.5434 2.08402 13.6857 2.04919C13.8314 2.01436 13.9876 1.99703 14.1547 1.99703C14.4119 1.99703 14.6378 2.03779 14.8328 2.12487C15.0308 2.21195 15.1951 2.328 15.3251 2.49055C15.4581 2.64149 15.5591 2.83304 15.627 3.04784C15.6949 3.26845 15.7292 3.51214 15.7292 3.77919V6.77488H14.8979V3.77919C14.8979 3.42506 14.816 3.14645 14.6517 2.95487C14.4909 2.75168 14.2448 2.65297 13.9133 2.65297C13.6689 2.65297 13.4395 2.71687 13.2259 2.83298C13.0152 2.94908 12.8201 3.11153 12.6407 3.30892V6.77488H11.8094V2.07243H12.3063C12.4242 2.07243 12.4967 2.1247 12.5246 2.24081L12.5896 2.75162ZM24.9528 0.121891V6.77488H24.5023C24.4309 6.77488 24.3706 6.76323 24.3212 6.74001C24.2748 6.71098 24.2283 6.6705 24.1819 6.61245L20.3317 1.59649C20.3375 1.67196 20.3422 1.74751 20.3456 1.82298C20.3485 1.89845 20.3503 1.96804 20.3503 2.0319V6.77488H19.5608V0.121891H20.0252C20.0652 0.121891 20.0995 0.121755 20.1274 0.12756C20.1552 0.133366 20.1796 0.139194 20.2017 0.150805C20.2232 0.162416 20.2446 0.174072 20.2667 0.197294C20.2882 0.21471 20.3114 0.243669 20.3364 0.272696L24.1865 5.28299C24.1801 5.20171 24.1738 5.12601 24.168 5.05054C24.1645 4.97507 24.1633 4.89982 24.1633 4.83596V0.121891H24.9528ZM28.2973 1.99703C28.641 1.99703 28.9504 2.05511 29.2262 2.16541C29.5014 2.28152 29.7371 2.44398 29.9321 2.65297C30.1272 2.86777 30.2758 3.12339 30.378 3.41947C30.4831 3.72135 30.5359 4.0521 30.5359 4.41784C30.5359 4.78939 30.4831 5.12609 30.378 5.42217C30.2758 5.71825 30.1272 5.97372 29.9321 6.18271C29.7371 6.39751 29.5014 6.55997 29.2262 6.67028C28.9504 6.78639 28.641 6.83866 28.2973 6.83866C27.9502 6.83866 27.6379 6.78639 27.3592 6.67028C27.0834 6.55997 26.8483 6.39751 26.6533 6.18271C26.4582 5.97372 26.3078 5.71825 26.2028 5.42217C26.1006 5.12609 26.0495 4.78939 26.0495 4.41784C26.0495 4.0521 26.1006 3.72135 26.2028 3.41947C26.3078 3.12339 26.4582 2.86777 26.6533 2.65297C26.8483 2.44398 27.0834 2.28152 27.3592 2.16541C27.6379 2.05511 27.9502 1.99703 28.2973 1.99703ZM28.2973 6.19434C28.7618 6.19434 29.1084 6.0377 29.3377 5.73002C29.5664 5.41652 29.6814 4.98112 29.6814 4.4238C29.6814 3.86648 29.5664 3.42526 29.3377 3.11758C29.1084 2.80408 28.7618 2.6473 28.2973 2.6473C28.0616 2.6473 27.8561 2.68792 27.6797 2.7692C27.5061 2.84467 27.3604 2.96083 27.2431 3.11758C27.1281 3.26852 27.0416 3.45427 26.983 3.67487C26.9273 3.89548 26.8994 4.14514 26.8994 4.4238C26.8994 4.98112 27.0138 5.41652 27.2431 5.73002C27.4753 6.0377 27.8265 6.19434 28.2973 6.19434ZM37.9999 2.07243L36.4766 6.77488H35.8217C35.741 6.77488 35.6853 6.72262 35.6546 6.61812L34.6142 3.42514C34.5892 3.35547 34.5689 3.28574 34.5538 3.21027C34.5382 3.14061 34.5225 3.06535 34.5074 2.99569C34.4917 3.06535 34.476 3.14061 34.461 3.21027C34.4453 3.28574 34.425 3.35562 34.4006 3.43109L33.3417 6.61812C33.3138 6.72262 33.2517 6.77488 33.1559 6.77488H32.5335L31.0102 2.07243H31.6604C31.7255 2.07243 31.7794 2.08989 31.823 2.11892C31.8694 2.15375 31.9002 2.19437 31.9159 2.24081L32.8169 5.27136C32.8691 5.49197 32.9109 5.70088 32.9422 5.90406C32.9701 5.79957 32.998 5.69505 33.0259 5.59055C33.0566 5.48605 33.0891 5.37586 33.1234 5.27136L34.1173 2.22352C34.1324 2.17708 34.1591 2.13633 34.1962 2.1073C34.2363 2.07827 34.2845 2.06081 34.3402 2.06081H34.7025C34.764 2.06081 34.8151 2.07827 34.8557 2.1073C34.8958 2.13633 34.9236 2.17708 34.9393 2.22352L35.91 5.27136C35.9436 5.37586 35.975 5.48605 36.0029 5.59055C36.0307 5.69505 36.0569 5.79957 36.0818 5.90406C36.0969 5.79957 36.1155 5.69519 36.1376 5.5965C36.1619 5.492 36.1886 5.38167 36.2165 5.27136L37.1361 2.24081C37.1512 2.19437 37.1808 2.15375 37.2243 2.11892C37.2673 2.08989 37.3184 2.07243 37.3776 2.07243H37.9999Z" fill="white"/>
</svg>
