<svg width="43" height="6" viewBox="0 0 43 6" fill="none" xmlns="http://www.w3.org/2000/svg">
<path d="M2.97915 4.61069V5.08735H0.300003V4.61069H1.37097V1.20342C1.37097 1.10458 1.37444 1.00005 1.38142 0.895396L0.491861 1.65708C0.461627 1.68615 0.431408 1.69769 0.401175 1.70931C0.370942 1.70931 0.343027 1.70931 0.317445 1.70931C0.291862 1.7035 0.267439 1.69199 0.244183 1.68036C0.223252 1.66291 0.206981 1.65124 0.195353 1.6338L0 1.36637L1.48956 0.0755153H1.99539V4.61069H2.97915ZM5.4984 4.64561C5.6612 4.64561 5.80655 4.62796 5.93446 4.58145C6.0647 4.53494 6.174 4.47094 6.26238 4.38954C6.35308 4.30814 6.42168 4.20944 6.4682 4.09316C6.51704 3.97687 6.54144 3.84887 6.54144 3.70933C6.54144 3.53491 6.51237 3.38969 6.45423 3.2676C6.39842 3.1455 6.32167 3.04651 6.224 2.97093C6.12865 2.89535 6.01817 2.83718 5.89259 2.8023C5.767 2.76741 5.63562 2.74438 5.4984 2.74438C5.36119 2.74438 5.22979 2.76741 5.1042 2.8023C4.97862 2.83718 4.86699 2.89535 4.76932 2.97093C4.67396 3.04651 4.5972 3.1455 4.53906 3.2676C4.48325 3.38969 4.45535 3.53491 4.45535 3.70933C4.45535 3.84887 4.4786 3.97687 4.52512 4.09316C4.57395 4.20944 4.64256 4.30814 4.73094 4.38954C4.82164 4.47094 4.93094 4.53494 5.05885 4.58145C5.18909 4.62796 5.33561 4.64561 5.4984 4.64561ZM5.4984 0.511573C5.34956 0.511573 5.21816 0.534898 5.1042 0.581411C4.99257 0.62211 4.89839 0.686099 4.82164 0.761682C4.74722 0.837266 4.69024 0.930269 4.6507 1.02911C4.61349 1.13376 4.59488 1.24413 4.59488 1.36041C4.59488 1.47088 4.61117 1.58153 4.64373 1.692C4.67629 1.79665 4.72861 1.88953 4.8007 1.97674C4.8728 2.05814 4.96583 2.12229 5.07979 2.17461C5.19607 2.22113 5.33561 2.25013 5.4984 2.25013C5.6612 2.25013 5.79957 2.22113 5.91352 2.17461C6.02981 2.12229 6.12399 2.05814 6.19609 1.97674C6.26818 1.88953 6.32052 1.79665 6.35308 1.692C6.38564 1.58153 6.40191 1.47088 6.40191 1.36041C6.40191 1.24413 6.38215 1.13376 6.34261 1.02911C6.3054 0.930269 6.24842 0.837266 6.17167 0.761682C6.09725 0.686099 6.00307 0.62211 5.88911 0.581411C5.77748 0.534898 5.64724 0.511573 5.4984 0.511573ZM6.21353 2.48264C6.52516 2.56985 6.76472 2.71506 6.93217 2.92437C7.09961 3.13368 7.18332 3.39538 7.18332 3.72097C7.18332 3.9361 7.14146 4.13379 7.05773 4.31402C6.97634 4.48845 6.86122 4.63381 6.71238 4.76172C6.56586 4.88382 6.38912 4.97698 6.18214 5.04675C5.97516 5.1107 5.74725 5.14554 5.4984 5.14554C5.24956 5.14554 5.02165 5.1107 4.81467 5.04675C4.60769 4.97698 4.42976 4.88382 4.28092 4.76172C4.13207 4.63381 4.01696 4.48845 3.93556 4.31402C3.85416 4.13379 3.81347 3.9361 3.81347 3.72097C3.81347 3.39538 3.8972 3.13368 4.06464 2.92437C4.23209 2.71506 4.47163 2.56985 4.78326 2.48264C4.52046 2.3838 4.32162 2.23844 4.18673 2.04658C4.05417 1.8489 3.98789 1.61622 3.98789 1.34877C3.98789 1.16272 4.02394 0.994315 4.09603 0.83152C4.16813 0.668725 4.27046 0.529061 4.40302 0.412779C4.53559 0.296497 4.69372 0.203482 4.87744 0.133713C5.06349 0.0639439 5.27049 0.0349187 5.4984 0.0349187C5.72399 0.0349187 5.9298 0.0639439 6.11585 0.133713C6.3019 0.203482 6.46122 0.296497 6.59378 0.412779C6.72635 0.529061 6.82866 0.668725 6.90076 0.83152C6.97285 0.994315 7.0089 1.16272 7.0089 1.34877C7.0089 1.61622 6.94147 1.8489 6.80658 2.04658C6.67402 2.23844 6.47633 2.3838 6.21353 2.48264ZM10.2945 1.55828C10.2945 1.71526 10.3165 1.85479 10.3607 1.9827C10.4072 2.1048 10.4724 2.20948 10.5561 2.29669C10.6421 2.3839 10.7456 2.44776 10.8666 2.49428C10.9898 2.53497 11.127 2.55815 11.2782 2.55815C11.4456 2.55815 11.5933 2.529 11.7212 2.47667C11.8515 2.42435 11.9608 2.34883 12.0492 2.25581C12.1375 2.16859 12.205 2.06392 12.2515 1.94182C12.298 1.82554 12.3213 1.70351 12.3213 1.5756C12.3213 1.41862 12.2957 1.27909 12.2445 1.15118C12.1957 1.02327 12.1271 0.918584 12.0387 0.825558C11.9503 0.738347 11.8445 0.674482 11.7212 0.627969C11.6003 0.575642 11.4666 0.552454 11.3201 0.552454C11.1666 0.552454 11.027 0.575642 10.9015 0.627969C10.7759 0.680296 10.6677 0.744172 10.577 0.837198C10.4863 0.924409 10.4166 1.02909 10.3677 1.15118C10.3189 1.27328 10.2945 1.41293 10.2945 1.55828ZM11.7457 3.093C11.7968 3.02905 11.8445 2.96533 11.8887 2.90138C11.9329 2.84324 11.9747 2.78506 12.0143 2.72111C11.8864 2.82576 11.7422 2.90129 11.5817 2.95361C11.4212 3.01175 11.2515 3.03509 11.0724 3.03509C10.884 3.03509 10.7049 3.00593 10.5352 2.94197C10.3677 2.87802 10.22 2.78487 10.0921 2.66859C9.96422 2.54068 9.86188 2.39545 9.78514 2.21521C9.71072 2.03497 9.67352 1.83131 9.67352 1.60456C9.67352 1.38362 9.71421 1.18038 9.79561 0.988512C9.877 0.796647 9.99097 0.633647 10.1375 0.488294C10.284 0.348756 10.4584 0.23839 10.6608 0.156992C10.8631 0.0755948 11.0852 0.0349187 11.327 0.0349187C11.5666 0.0349187 11.784 0.069633 11.9794 0.151031C12.1747 0.232428 12.3422 0.343078 12.4817 0.482617C12.6213 0.622155 12.7282 0.79651 12.8027 0.99419C12.8794 1.19187 12.9178 1.40706 12.9178 1.64544C12.9178 1.79079 12.9038 1.93031 12.8759 2.05822C12.8503 2.18613 12.812 2.31413 12.7608 2.44204C12.712 2.56414 12.6515 2.68616 12.5794 2.80826C12.5073 2.93036 12.4259 3.05253 12.3352 3.18044L11.1177 4.94199C11.0875 4.98269 11.0445 5.02349 10.9887 5.04675C10.9328 5.07582 10.8689 5.08735 10.7968 5.08735H10.2247L11.7457 3.093ZM14.3417 1.55828C14.3417 1.71526 14.3638 1.85479 14.4079 1.9827C14.4545 2.1048 14.5196 2.20948 14.6033 2.29669C14.6894 2.3839 14.7928 2.44776 14.9138 2.49428C15.037 2.53497 15.1742 2.55815 15.3254 2.55815C15.4928 2.55815 15.6405 2.529 15.7684 2.47667C15.8987 2.42435 16.008 2.34883 16.0964 2.25581C16.1847 2.16859 16.2522 2.06392 16.2987 1.94182C16.3452 1.82554 16.3685 1.70351 16.3685 1.5756C16.3685 1.41862 16.3429 1.27909 16.2917 1.15118C16.2429 1.02327 16.1743 0.918584 16.0859 0.825558C15.9975 0.738347 15.8917 0.674482 15.7684 0.627969C15.6475 0.575642 15.5138 0.552454 15.3673 0.552454C15.2138 0.552454 15.0742 0.575642 14.9487 0.627969C14.8231 0.680296 14.7149 0.744172 14.6242 0.837198C14.5335 0.924409 14.4638 1.02909 14.4149 1.15118C14.3661 1.27328 14.3417 1.41293 14.3417 1.55828ZM15.7929 3.093C15.844 3.02905 15.8917 2.96533 15.9359 2.90138C15.9801 2.84324 16.0219 2.78506 16.0615 2.72111C15.9336 2.82576 15.7894 2.90129 15.6289 2.95361C15.4684 3.01175 15.2987 3.03509 15.1196 3.03509C14.9312 3.03509 14.7521 3.00593 14.5824 2.94197C14.4149 2.87802 14.2672 2.78487 14.1393 2.66859C14.0114 2.54068 13.9091 2.39545 13.8323 2.21521C13.7579 2.03497 13.7207 1.83131 13.7207 1.60456C13.7207 1.38362 13.7614 1.18038 13.8428 0.988512C13.9242 0.796647 14.0382 0.633647 14.1847 0.488294C14.3312 0.348756 14.5056 0.23839 14.708 0.156992C14.9103 0.0755948 15.1324 0.0349187 15.3742 0.0349187C15.6138 0.0349187 15.8312 0.069633 16.0266 0.151031C16.2219 0.232428 16.3894 0.343078 16.5289 0.482617C16.6685 0.622155 16.7754 0.79651 16.8499 0.99419C16.9266 1.19187 16.965 1.40706 16.965 1.64544C16.965 1.79079 16.951 1.93031 16.9231 2.05822C16.8975 2.18613 16.8592 2.31413 16.808 2.44204C16.7592 2.56414 16.6987 2.68616 16.6266 2.80826C16.5545 2.93036 16.4731 3.05253 16.3824 3.18044L15.1649 4.94199C15.1347 4.98269 15.0917 5.02349 15.0359 5.04675C14.98 5.07582 14.9161 5.08735 14.844 5.08735H14.2719L15.7929 3.093ZM19.4249 4.64561C19.5877 4.64561 19.7331 4.62796 19.861 4.58145C19.9912 4.53494 20.1005 4.47094 20.1889 4.38954C20.2796 4.30814 20.3482 4.20944 20.3947 4.09316C20.4436 3.97687 20.468 3.84887 20.468 3.70933C20.468 3.53491 20.4389 3.38969 20.3808 3.2676C20.325 3.1455 20.2482 3.04651 20.1505 2.97093C20.0552 2.89535 19.9447 2.83718 19.8191 2.8023C19.6935 2.76741 19.5622 2.74438 19.4249 2.74438C19.2877 2.74438 19.1563 2.76741 19.0307 2.8023C18.9052 2.83718 18.7935 2.89535 18.6959 2.97093C18.6005 3.04651 18.5237 3.1455 18.4656 3.2676C18.4098 3.38969 18.3819 3.53491 18.3819 3.70933C18.3819 3.84887 18.4051 3.97687 18.4517 4.09316C18.5005 4.20944 18.5691 4.30814 18.6575 4.38954C18.7482 4.47094 18.8575 4.53494 18.9854 4.58145C19.1156 4.62796 19.2621 4.64561 19.4249 4.64561ZM19.4249 0.511573C19.2761 0.511573 19.1447 0.534898 19.0307 0.581411C18.9191 0.62211 18.8249 0.686099 18.7482 0.761682C18.6738 0.837266 18.6168 0.930269 18.5772 1.02911C18.54 1.13376 18.5214 1.24413 18.5214 1.36041C18.5214 1.47088 18.5377 1.58153 18.5703 1.692C18.6028 1.79665 18.6551 1.88953 18.7272 1.97674C18.7993 2.05814 18.8924 2.12229 19.0063 2.17461C19.1226 2.22113 19.2621 2.25013 19.4249 2.25013C19.5877 2.25013 19.7261 2.22113 19.8401 2.17461C19.9563 2.12229 20.0505 2.05814 20.1226 1.97674C20.1947 1.88953 20.2471 1.79665 20.2796 1.692C20.3122 1.58153 20.3284 1.47088 20.3284 1.36041C20.3284 1.24413 20.3087 1.13376 20.2691 1.02911C20.2319 0.930269 20.175 0.837266 20.0982 0.761682C20.0238 0.686099 19.9296 0.62211 19.8156 0.581411C19.704 0.534898 19.5738 0.511573 19.4249 0.511573ZM20.1401 2.48264C20.4517 2.56985 20.6912 2.71506 20.8587 2.92437C21.0261 3.13368 21.1099 3.39538 21.1099 3.72097C21.1099 3.9361 21.068 4.13379 20.9843 4.31402C20.9029 4.48845 20.7878 4.63381 20.6389 4.76172C20.4924 4.88382 20.3157 4.97698 20.1087 5.04675C19.9017 5.1107 19.6738 5.14554 19.4249 5.14554C19.1761 5.14554 18.9482 5.1107 18.7412 5.04675C18.5342 4.97698 18.3563 4.88382 18.2075 4.76172C18.0586 4.63381 17.9435 4.48845 17.8621 4.31402C17.7807 4.13379 17.74 3.9361 17.74 3.72097C17.74 3.39538 17.8237 3.13368 17.9912 2.92437C18.1586 2.71506 18.3982 2.56985 18.7098 2.48264C18.447 2.3838 18.2482 2.23844 18.1133 2.04658C17.9807 1.8489 17.9144 1.61622 17.9144 1.34877C17.9144 1.16272 17.9505 0.994315 18.0226 0.83152C18.0947 0.668725 18.197 0.529061 18.3296 0.412779C18.4621 0.296497 18.6203 0.203482 18.804 0.133713C18.99 0.0639439 19.197 0.0349187 19.4249 0.0349187C19.6505 0.0349187 19.8563 0.0639439 20.0424 0.133713C20.2284 0.203482 20.3878 0.296497 20.5203 0.412779C20.6529 0.529061 20.7552 0.668725 20.8273 0.83152C20.8994 0.994315 20.9354 1.16272 20.9354 1.34877C20.9354 1.61622 20.868 1.8489 20.7331 2.04658C20.6006 2.23844 20.4029 2.3838 20.1401 2.48264ZM27.6845 0.0871549L25.6472 5.08735H25.0402L23.0029 0.0871549H23.5436C23.6041 0.0871549 23.653 0.104643 23.6902 0.133713C23.7274 0.162784 23.7553 0.203596 23.7739 0.250109L25.1832 3.77349C25.2135 3.85489 25.2425 3.94193 25.2704 4.03496C25.3007 4.12798 25.3274 4.22682 25.3507 4.32566C25.3739 4.22682 25.3984 4.12798 25.4239 4.03496C25.4495 3.94193 25.4774 3.85489 25.5076 3.77349L26.9135 0.250109C26.9275 0.20941 26.9542 0.17456 26.9937 0.139675C27.0356 0.10479 27.0856 0.0871549 27.1438 0.0871549H27.6845ZM28.8513 1.55232V5.08735H28.2304V1.55232H28.8513ZM28.9839 0.441736C28.9839 0.505691 28.9711 0.564003 28.9455 0.61633C28.9223 0.668657 28.8897 0.715022 28.8479 0.755721C28.8083 0.796419 28.7607 0.825581 28.7048 0.848837C28.6514 0.872094 28.5944 0.883756 28.5339 0.883756C28.4734 0.883756 28.4165 0.872094 28.363 0.848837C28.3118 0.825581 28.2664 0.796419 28.2269 0.755721C28.1874 0.715022 28.156 0.668657 28.1327 0.61633C28.1095 0.564003 28.0978 0.505691 28.0978 0.441736C28.0978 0.383595 28.1095 0.325715 28.1327 0.273388C28.156 0.215247 28.1874 0.168734 28.2269 0.128035C28.2664 0.0873366 28.3118 0.0581752 28.363 0.0349187C28.4165 0.0116623 28.4734 0 28.5339 0C28.5944 0 28.6514 0.0116623 28.7048 0.0349187C28.7607 0.0581752 28.8083 0.0873366 28.8479 0.128035C28.8897 0.168734 28.9223 0.215247 28.9455 0.273388C28.9711 0.325715 28.9839 0.383595 28.9839 0.441736ZM31.9299 2.13373C31.902 2.18606 31.859 2.21521 31.8008 2.21521C31.766 2.21521 31.7264 2.19787 31.6822 2.17461C31.6381 2.15136 31.5834 2.12221 31.5183 2.09314C31.4555 2.05825 31.3799 2.02924 31.2915 2.00598C31.2031 1.97691 31.0985 1.95942 30.9776 1.95942C30.8729 1.95942 30.7787 1.97691 30.695 2.00598C30.6113 2.02924 30.5392 2.06394 30.4787 2.11045C30.4206 2.15697 30.3752 2.21527 30.3427 2.27341C30.3124 2.33736 30.2973 2.40109 30.2973 2.47667C30.2973 2.56389 30.3229 2.63955 30.3741 2.7035C30.4276 2.76165 30.4973 2.81398 30.5834 2.8605C30.6694 2.9012 30.7671 2.94201 30.8764 2.97689C30.9857 3.01178 31.0973 3.04663 31.2113 3.08733C31.3276 3.12221 31.4404 3.16289 31.5497 3.2094C31.659 3.25591 31.7567 3.31394 31.8427 3.38371C31.9288 3.45348 31.9974 3.5408 32.0485 3.64546C32.102 3.7443 32.1288 3.86646 32.1288 4.006C32.1288 4.1688 32.0997 4.31984 32.0415 4.45938C31.9834 4.59892 31.8974 4.71527 31.7834 4.81992C31.6694 4.91876 31.5299 5.00025 31.3648 5.05839C31.1997 5.11653 31.009 5.14554 30.7927 5.14554C30.5462 5.14554 30.3229 5.10487 30.1229 5.02347C29.9229 4.94207 29.7531 4.83726 29.6136 4.71516L29.7601 4.47698C29.7787 4.44791 29.8008 4.42458 29.8264 4.40714C29.852 4.3897 29.8845 4.38386 29.9241 4.38386C29.9659 4.38386 30.0101 4.40135 30.0566 4.43042C30.1031 4.4653 30.1589 4.50015 30.2241 4.54085C30.2915 4.58155 30.3729 4.61654 30.4683 4.64561C30.5636 4.68049 30.6822 4.69785 30.8241 4.69785C30.945 4.69785 31.0508 4.68036 31.1415 4.65129C31.2322 4.6164 31.3078 4.57558 31.3683 4.52325C31.4287 4.47093 31.4729 4.40707 31.5008 4.3373C31.5311 4.26753 31.5462 4.19202 31.5462 4.11644C31.5462 4.0176 31.5194 3.93624 31.466 3.87229C31.4148 3.80833 31.3462 3.75585 31.2601 3.70933C31.1741 3.66282 31.0752 3.62229 30.9636 3.59322C30.8543 3.55834 30.7415 3.51767 30.6252 3.48279C30.5113 3.4479 30.3985 3.40127 30.2868 3.35475C30.1775 3.30824 30.0799 3.25006 29.9938 3.17448C29.9078 3.10471 29.838 3.01739 29.7845 2.91273C29.7334 2.80226 29.7078 2.6744 29.7078 2.52323C29.7078 2.38951 29.7357 2.26164 29.7915 2.13373C29.8473 2.01164 29.9287 1.90113 30.0357 1.80811C30.1427 1.71508 30.2741 1.6397 30.4299 1.58156C30.5857 1.52342 30.7636 1.50009 30.9636 1.50009C31.1962 1.50009 31.4043 1.53494 31.588 1.61052C31.7741 1.68029 31.9346 1.77899 32.0695 1.9069L31.9299 2.13373ZM33.5457 1.55232V5.08735H32.9247V1.55232H33.5457ZM33.6782 0.441736C33.6782 0.505691 33.6654 0.564003 33.6398 0.61633C33.6166 0.668657 33.584 0.715022 33.5422 0.755721C33.5026 0.796419 33.455 0.825581 33.3991 0.848837C33.3456 0.872094 33.2887 0.883756 33.2282 0.883756C33.1678 0.883756 33.1108 0.872094 33.0573 0.848837C33.0061 0.825581 32.9608 0.796419 32.9212 0.755721C32.8817 0.715022 32.8503 0.668657 32.827 0.61633C32.8038 0.564003 32.7922 0.505691 32.7922 0.441736C32.7922 0.383595 32.8038 0.325715 32.827 0.273388C32.8503 0.215247 32.8817 0.168734 32.9212 0.128035C32.9608 0.0873366 33.0061 0.0581752 33.0573 0.0349187C33.1108 0.0116623 33.1678 0 33.2282 0C33.2887 0 33.3456 0.0116623 33.3991 0.0349187C33.455 0.0581752 33.5026 0.0873366 33.5422 0.128035C33.584 0.168734 33.6166 0.215247 33.6398 0.273388C33.6654 0.325715 33.6782 0.383595 33.6782 0.441736ZM35.651 5.14554C35.3719 5.14554 35.1567 5.06406 35.0056 4.90707C34.8567 4.75591 34.7823 4.52921 34.7823 4.23851V2.07554H34.3567C34.3195 2.07554 34.2881 2.06387 34.2625 2.04062C34.237 2.01736 34.2242 1.98266 34.2242 1.93614V1.692L34.8033 1.6162L34.9463 0.523213C34.9533 0.488328 34.9684 0.459178 34.9916 0.441736C35.0172 0.41848 35.0498 0.407101 35.0893 0.407101H35.4033V1.62216H36.4254V2.07554H35.4033V4.19195C35.4033 4.34312 35.4393 4.45348 35.5114 4.52325C35.5835 4.59884 35.6765 4.63397 35.7905 4.63397C35.8556 4.63397 35.9114 4.62813 35.9579 4.61069C36.0068 4.59325 36.0486 4.56994 36.0835 4.55249C36.1184 4.52924 36.1475 4.51174 36.1707 4.4943C36.1963 4.47685 36.2184 4.46534 36.237 4.46534C36.2696 4.46534 36.2986 4.48837 36.3242 4.52325L36.5056 4.81992C36.3986 4.92457 36.2696 5.00025 36.1184 5.05839C35.9672 5.11653 35.8114 5.14554 35.651 5.14554ZM38.5353 1.50009C38.7935 1.50009 39.0261 1.54063 39.233 1.62784C39.44 1.71505 39.6168 1.83736 39.7633 1.99434C39.9098 2.15132 40.0214 2.34304 40.0982 2.56979C40.1772 2.79073 40.2168 3.04076 40.2168 3.31983C40.2168 3.59891 40.1772 3.84894 40.0982 4.06988C40.0214 4.29663 39.9098 4.48863 39.7633 4.64561C39.6168 4.80259 39.44 4.92462 39.233 5.01183C39.0261 5.09323 38.7935 5.1339 38.5353 5.1339C38.2749 5.1339 38.04 5.09323 37.8307 5.01183C37.6237 4.92462 37.4469 4.80259 37.3004 4.64561C37.1539 4.48863 37.0411 4.29663 36.962 4.06988C36.8853 3.84894 36.8469 3.59891 36.8469 3.31983C36.8469 3.04076 36.8853 2.79073 36.962 2.56979C37.0411 2.34304 37.1539 2.15132 37.3004 1.99434C37.4469 1.83736 37.6237 1.71505 37.8307 1.62784C38.04 1.54063 38.2749 1.50009 38.5353 1.50009ZM38.5353 4.65129C38.8842 4.65129 39.1446 4.53495 39.3167 4.30238C39.4888 4.06982 39.5749 3.73845 39.5749 3.31983C39.5749 2.90122 39.4888 2.57566 39.3167 2.33728C39.1446 2.10472 38.8842 1.98838 38.5353 1.98838C38.3586 1.98838 38.2039 2.01739 38.0714 2.07554C37.9411 2.13949 37.8318 2.22682 37.7434 2.33728C37.6574 2.45357 37.5923 2.59309 37.5481 2.7617C37.5062 2.9245 37.4853 3.11053 37.4853 3.31983C37.4853 3.73845 37.5714 4.06982 37.7434 4.30238C37.9179 4.53495 38.1818 4.65129 38.5353 4.65129ZM41.5941 2.26177C41.7058 2.01758 41.843 1.8314 42.0058 1.69767C42.1686 1.55814 42.3674 1.48845 42.6023 1.48845C42.6767 1.48845 42.7476 1.49996 42.8151 1.5174C42.8849 1.52903 42.9465 1.55832 43 1.5932L42.9546 2.05822C42.9407 2.11636 42.9058 2.14537 42.85 2.14537C42.8174 2.14537 42.7697 2.13372 42.7069 2.12209C42.6442 2.11046 42.5732 2.09881 42.4942 2.09881C42.3825 2.09881 42.2825 2.11645 42.1942 2.15133C42.1081 2.1804 42.0302 2.23273 41.9604 2.29669C41.893 2.36064 41.8313 2.43603 41.7755 2.53487C41.722 2.6279 41.6732 2.73272 41.629 2.85482V5.08735H41.0046V1.55232H41.3604C41.4279 1.55232 41.4744 1.56413 41.4999 1.5932C41.5255 1.61646 41.543 1.66296 41.5523 1.72692L41.5941 2.26177Z" fill="#484848"/>
</svg>
