<svg width="45" height="7" viewBox="0 0 45 7" fill="none" xmlns="http://www.w3.org/2000/svg">
<path d="M5.14706 5.42588C5.2 5.42588 5.24124 5.44629 5.28241 5.48706L5.64123 5.87765C5.37064 6.19765 5.02941 6.44706 4.6353 6.62588C4.24706 6.80471 3.77064 6.89412 3.21181 6.89412C2.72946 6.89412 2.28829 6.811 1.89417 6.6447C1.50005 6.47529 1.15882 6.24 0.882353 5.93882C0.6 5.63453 0.388244 5.27059 0.22942 4.84706C0.0764792 4.42353 0 3.95765 0 3.44941C0 2.94118 0.082373 2.47529 0.241197 2.05176C0.40002 1.62823 0.623558 1.26429 0.911793 0.96C1.20591 0.655706 1.55299 0.420411 1.95887 0.254117C2.36475 0.0847054 2.81183 0 3.30006 0C3.78242 0 4.20589 0.0768814 4.5706 0.230587C4.93531 0.384293 5.25885 0.592941 5.5412 0.85647L5.2412 1.27529C5.21767 1.30665 5.19413 1.33335 5.16472 1.35529C5.13531 1.37412 5.09416 1.38353 5.0471 1.38353C4.98828 1.38353 4.92359 1.35371 4.84124 1.29412C4.75888 1.23135 4.65297 1.16235 4.51768 1.08706C4.38827 1.01176 4.22358 0.944294 4.02358 0.884706C3.82946 0.821941 3.58241 0.790588 3.29418 0.790588C2.94712 0.790588 2.62947 0.851764 2.34124 0.974117C2.053 1.09335 1.80005 1.26747 1.59417 1.49647C1.3824 1.72547 1.22353 2.0047 1.10589 2.33412C0.99412 2.66353 0.935346 3.03529 0.935346 3.44941C0.935346 3.86982 0.994126 4.2447 1.11177 4.57412C1.2353 4.90353 1.40006 5.18276 1.60594 5.41177C1.81771 5.63765 2.06477 5.81018 2.34712 5.92941C2.62948 6.04865 2.93532 6.10823 3.26473 6.10823C3.47062 6.10823 3.64711 6.09723 3.80594 6.07529C3.97064 6.05018 4.12359 6.01253 4.253 5.96235C4.39418 5.91218 4.52353 5.84941 4.6353 5.77412C4.75883 5.6957 4.87653 5.60312 4.9883 5.49647C5.04124 5.44941 5.09412 5.42588 5.14706 5.42588ZM8.42357 1.97647C8.77063 1.97647 9.08238 2.03453 9.36473 2.15059C9.6412 2.26665 9.88236 2.43135 10.0765 2.6447C10.2765 2.85806 10.4294 3.11688 10.5294 3.42118C10.6353 3.72235 10.6883 4.05959 10.6883 4.43294C10.6883 4.80941 10.6353 5.14824 10.5294 5.44941C10.4294 5.75059 10.2765 6.00782 10.0765 6.22118C9.88236 6.43453 9.6412 6.59924 9.36473 6.71529C9.08238 6.82824 8.77063 6.8847 8.42357 6.8847C8.07063 6.8847 7.75298 6.82824 7.47063 6.71529C7.19416 6.59924 6.95301 6.43453 6.75889 6.22118C6.55889 6.00782 6.40593 5.75059 6.30005 5.44941C6.19417 5.14824 6.1471 4.80941 6.1471 4.43294C6.1471 4.05959 6.19417 3.72235 6.30005 3.42118C6.40593 3.11688 6.55889 2.85806 6.75889 2.6447C6.95301 2.43135 7.19416 2.26665 7.47063 2.15059C7.75298 2.03453 8.07063 1.97647 8.42357 1.97647ZM8.42357 6.23059C8.89416 6.23059 9.24712 6.07371 9.47653 5.76C9.70595 5.44312 9.82357 5.00235 9.82357 4.43765C9.82357 3.86982 9.70595 3.42747 9.47653 3.11059C9.24712 2.7937 8.89416 2.63529 8.42357 2.63529C8.18239 2.63529 7.97647 2.67606 7.79412 2.75765C7.62353 2.83924 7.47059 2.95688 7.35294 3.11059C7.23529 3.26429 7.15297 3.45412 7.08826 3.68C7.03532 3.90276 7.0059 4.15529 7.0059 4.43765C7.0059 5.00235 7.12353 5.44312 7.35294 5.76C7.58824 6.07371 7.9471 6.23059 8.42357 6.23059ZM12.5412 2.74353C12.6471 2.62747 12.7588 2.52235 12.8706 2.42823C12.9882 2.33412 13.1118 2.25412 13.2412 2.18823C13.3706 2.11923 13.5118 2.06747 13.653 2.03294C13.8 1.99529 13.9588 1.97647 14.1294 1.97647C14.3882 1.97647 14.6177 2.02041 14.8177 2.10824C15.0177 2.19294 15.1824 2.31529 15.3177 2.47529C15.453 2.63218 15.553 2.82194 15.6236 3.04471C15.6883 3.26747 15.7236 3.51371 15.7236 3.78353V6.81882H14.8824V3.78353C14.8824 3.42276 14.8 3.14353 14.6353 2.94588C14.4706 2.74512 14.2177 2.6447 13.8824 2.6447C13.6354 2.6447 13.4059 2.70429 13.1883 2.82353C12.9765 2.94276 12.7765 3.10429 12.5941 3.30824V6.81882H11.753V2.05176H12.2589C12.3765 2.05176 12.4471 2.10982 12.4765 2.22588L12.5412 2.74353ZM18.4 6.89412C18.0235 6.89412 17.7353 6.789 17.5294 6.57882C17.3294 6.36865 17.2294 6.06588 17.2294 5.67059V2.75294H16.653C16.6059 2.75294 16.5648 2.73882 16.5295 2.71059C16.4942 2.67923 16.4765 2.63218 16.4765 2.56941V2.23529L17.2589 2.13647L17.4471 0.663528C17.4588 0.61647 17.4824 0.578823 17.5118 0.550588C17.5471 0.519235 17.5883 0.503529 17.6412 0.503529H18.0648V2.14588H19.4471V2.75294H18.0648V5.61412C18.0648 5.81488 18.1177 5.96394 18.2118 6.06118C18.3118 6.15841 18.4354 6.20706 18.5883 6.20706C18.6765 6.20706 18.753 6.19606 18.8118 6.17412C18.8824 6.149 18.9353 6.12235 18.9824 6.09412C19.0294 6.06588 19.0706 6.04076 19.1001 6.01882C19.1353 5.9937 19.1647 5.98118 19.1882 5.98118C19.2353 5.98118 19.2765 6.00782 19.3059 6.06118L19.553 6.46117C19.4118 6.59606 19.2354 6.70276 19.0295 6.78118C18.8295 6.85647 18.6177 6.89412 18.4 6.89412ZM22.8941 4.67294C22.5059 4.68547 22.1765 4.71688 21.9059 4.76706C21.6354 4.81412 21.4118 4.87688 21.2412 4.95529C21.0707 5.03371 20.9471 5.12629 20.8706 5.23294C20.7942 5.33959 20.7588 5.45882 20.7588 5.59059C20.7588 5.71606 20.7765 5.82429 20.8177 5.91529C20.8588 6.00629 20.9118 6.08159 20.9824 6.14118C21.053 6.19765 21.1353 6.24 21.2295 6.26823C21.3295 6.29335 21.4353 6.30588 21.5412 6.30588C21.6882 6.30588 21.8236 6.29176 21.9471 6.26353C22.0706 6.23218 22.1824 6.18824 22.2882 6.13176C22.4 6.07529 22.5059 6.00782 22.6 5.92941C22.7 5.851 22.8 5.76159 22.8941 5.66118V4.67294ZM20.1883 2.72471C20.453 2.47059 20.7353 2.28076 21.0412 2.15529C21.3412 2.02982 21.6824 1.96706 22.053 1.96706C22.3177 1.96706 22.553 2.011 22.7589 2.09882C22.9706 2.18665 23.1412 2.309 23.2824 2.46588C23.4236 2.62276 23.5294 2.81253 23.6059 3.03529C23.6765 3.25806 23.7118 3.50277 23.7118 3.76941V6.81882H23.3412C23.2589 6.81882 23.1942 6.80629 23.153 6.78118C23.1059 6.75294 23.0765 6.69959 23.0471 6.62118L22.953 6.16941C22.8294 6.28547 22.7059 6.389 22.5882 6.48C22.4706 6.56782 22.3412 6.64312 22.2118 6.70588C22.0765 6.76547 21.9353 6.811 21.7883 6.84235C21.6412 6.87688 21.4765 6.89412 21.2942 6.89412C21.1059 6.89412 20.9353 6.869 20.7706 6.81882C20.6059 6.76547 20.4648 6.68706 20.3412 6.58353C20.2236 6.48 20.1295 6.34982 20.053 6.19294C19.9883 6.03294 19.953 5.84471 19.953 5.62824C19.953 5.44 20.0059 5.25959 20.1059 5.08706C20.2118 4.91135 20.3765 4.75606 20.6118 4.62118C20.8412 4.48629 21.1471 4.37647 21.5177 4.29176C21.8942 4.20394 22.353 4.15371 22.8941 4.14118V3.76941C22.8941 3.39924 22.8118 3.12 22.6529 2.93176C22.4941 2.74041 22.2589 2.6447 21.953 2.6447C21.7471 2.6447 21.5706 2.67135 21.4294 2.72471C21.2941 2.77488 21.1706 2.83294 21.0647 2.89882C20.9647 2.96159 20.8765 3.01959 20.8059 3.07294C20.7294 3.12312 20.6588 3.14823 20.5882 3.14823C20.5294 3.14823 20.4824 3.13412 20.4412 3.10588C20.4 3.07453 20.3647 3.03688 20.3353 2.99294L20.1883 2.72471ZM28.3059 2.89882C28.2823 2.93335 28.253 2.96 28.2295 2.97882C28.2059 2.99765 28.1706 3.00706 28.1295 3.00706C28.0824 3.00706 28.0294 2.98823 27.9706 2.95059C27.9177 2.90982 27.8471 2.86588 27.7589 2.81882C27.6765 2.77176 27.5765 2.72941 27.453 2.69176C27.3353 2.651 27.1883 2.63059 27.0118 2.63059C26.7765 2.63059 26.5707 2.67294 26.3883 2.75765C26.2118 2.83924 26.0589 2.95841 25.9412 3.11529C25.8177 3.27217 25.7294 3.46194 25.6647 3.68471C25.6059 3.90747 25.5765 4.15688 25.5765 4.43294C25.5765 4.72159 25.6118 4.97882 25.6765 5.20471C25.7412 5.42747 25.8353 5.61571 25.9529 5.76941C26.0765 5.92 26.2236 6.03606 26.3883 6.11765C26.5648 6.19606 26.7589 6.23529 26.9706 6.23529C27.1706 6.23529 27.3412 6.21176 27.4706 6.16471C27.6059 6.11453 27.7118 6.05959 27.8 6C27.8882 5.94041 27.9588 5.88706 28.0118 5.84C28.0765 5.78982 28.1294 5.76471 28.1883 5.76471C28.2588 5.76471 28.3118 5.79135 28.3471 5.84471L28.5824 6.15059C28.4824 6.27923 28.3648 6.389 28.2295 6.48C28.1001 6.571 27.9588 6.64782 27.8 6.71059C27.6529 6.77018 27.4942 6.81412 27.3295 6.84235C27.1589 6.87059 26.9942 6.8847 26.8177 6.8847C26.5236 6.8847 26.2412 6.82982 25.9883 6.72C25.7294 6.61018 25.5118 6.45176 25.3236 6.2447C25.1353 6.03453 24.9883 5.77724 24.8824 5.47294C24.7706 5.16865 24.7177 4.82194 24.7177 4.43294C24.7177 4.07841 24.7706 3.75059 24.8647 3.44941C24.9647 3.14823 25.1118 2.88941 25.3 2.67294C25.4882 2.45335 25.7236 2.28235 26 2.16C26.2765 2.03765 26.6 1.97647 26.9589 1.97647C27.2942 1.97647 27.5883 2.03135 27.8471 2.14118C28.1001 2.24782 28.3294 2.4 28.5294 2.59765L28.3059 2.89882ZM30.9471 6.89412C30.5707 6.89412 30.2824 6.789 30.0765 6.57882C29.8765 6.36865 29.7765 6.06588 29.7765 5.67059V2.75294H29.2C29.1529 2.75294 29.1059 2.73882 29.0706 2.71059C29.0412 2.67923 29.0236 2.63218 29.0236 2.56941V2.23529L29.8 2.13647L29.9942 0.663528C30.0059 0.61647 30.0236 0.578823 30.0589 0.550588C30.0942 0.519235 30.1353 0.503529 30.1883 0.503529H30.6118V2.14588H31.9882V2.75294H30.6118V5.61412C30.6118 5.81488 30.6588 5.96394 30.7588 6.06118C30.853 6.15841 30.9824 6.20706 31.1353 6.20706C31.2236 6.20706 31.3 6.19606 31.3589 6.17412C31.4236 6.149 31.4824 6.12235 31.5295 6.09412C31.5765 6.06588 31.6177 6.04076 31.6471 6.01882C31.6824 5.9937 31.7118 5.98118 31.7353 5.98118C31.7824 5.98118 31.8177 6.00782 31.853 6.06118L32.1 6.46117C31.953 6.59606 31.7824 6.70276 31.5765 6.78118C31.3706 6.85647 31.1648 6.89412 30.9471 6.89412ZM38.0648 6.09412C38.3412 6.09412 38.5942 6.04706 38.8118 5.95294C39.0295 5.85882 39.2177 5.72706 39.3647 5.55765C39.5236 5.38823 39.6353 5.18588 39.7177 4.95059C39.8 4.71529 39.8353 4.45647 39.8353 4.17412V0.0752931H40.7471V4.17412C40.7471 4.56312 40.6824 4.92394 40.5589 5.25647C40.4353 5.589 40.2588 5.87765 40.0236 6.12235C39.8 6.36394 39.5177 6.55371 39.1824 6.69176C38.853 6.82982 38.4765 6.89882 38.0648 6.89882C37.6471 6.89882 37.2765 6.82982 36.9412 6.69176C36.6118 6.55371 36.3295 6.36394 36.0942 6.12235C35.8648 5.87765 35.6883 5.589 35.5589 5.25647C35.4353 4.92394 35.3765 4.56312 35.3765 4.17412V0.0752931H36.2824V4.16941C36.2824 4.45176 36.3235 4.71059 36.4 4.94588C36.4824 5.18118 36.6001 5.38353 36.753 5.55294C36.9059 5.72235 37.0941 5.85571 37.3118 5.95294C37.5353 6.04706 37.7824 6.09412 38.0648 6.09412ZM44.7294 2.83765C44.6941 2.90665 44.6353 2.94118 44.5588 2.94118C44.5118 2.94118 44.4589 2.92394 44.4001 2.88941C44.3354 2.85488 44.2648 2.81723 44.1765 2.77647C44.0942 2.73253 43.9883 2.69335 43.8706 2.65882C43.753 2.62118 43.6118 2.60235 43.4471 2.60235C43.3059 2.60235 43.1765 2.62118 43.0648 2.65882C42.953 2.69335 42.853 2.74194 42.7765 2.8047C42.6942 2.86747 42.6353 2.94117 42.5882 3.02588C42.5471 3.10747 42.5294 3.19688 42.5294 3.29412C42.5294 3.41647 42.5648 3.51841 42.6354 3.6C42.7059 3.68159 42.8 3.75218 42.9177 3.81176C43.0295 3.87135 43.1647 3.92471 43.3118 3.97176C43.4588 4.01571 43.6059 4.06429 43.7647 4.11765C43.9177 4.16782 44.0706 4.22429 44.2177 4.28706C44.3647 4.34982 44.5001 4.42824 44.6118 4.52235C44.7295 4.61647 44.8236 4.73253 44.8942 4.87059C44.9647 5.00547 45 5.16865 45 5.36C45 5.57959 44.9589 5.78353 44.8824 5.97176C44.8059 6.15688 44.6883 6.31841 44.5353 6.45647C44.3824 6.59135 44.1941 6.69806 43.9706 6.77647C43.7471 6.85488 43.4883 6.89412 43.2 6.89412C42.8647 6.89412 42.5647 6.84076 42.2941 6.73412C42.0235 6.62429 41.7942 6.48471 41.6059 6.31529L41.8059 5.99529C41.8295 5.95453 41.8589 5.92312 41.8942 5.90118C41.9295 5.87923 41.9706 5.86823 42.0236 5.86823C42.0824 5.86823 42.1412 5.89017 42.2059 5.93412C42.2647 5.97806 42.3412 6.02665 42.4294 6.08C42.5235 6.13335 42.6294 6.18194 42.7589 6.22588C42.8883 6.26982 43.0471 6.29176 43.2412 6.29176C43.4 6.29176 43.5471 6.27135 43.6707 6.23059C43.7883 6.18665 43.8941 6.12865 43.9765 6.05647C44.0529 5.98429 44.1177 5.90118 44.153 5.80706C44.1942 5.71294 44.2118 5.61253 44.2118 5.50588C44.2118 5.37412 44.1765 5.26588 44.1059 5.18118C44.0354 5.09335 43.9412 5.01959 43.8294 4.96C43.7118 4.89723 43.5765 4.84394 43.4295 4.8C43.2824 4.75294 43.1294 4.70429 42.9706 4.65412C42.8177 4.60394 42.6647 4.54747 42.5177 4.48471C42.3647 4.41882 42.2353 4.33724 42.1177 4.24C42.0059 4.14276 41.9118 4.02353 41.8353 3.88235C41.7706 3.73806 41.7353 3.56394 41.7353 3.36C41.7353 3.17806 41.7706 3.00394 41.8471 2.83765C41.9235 2.66823 42.0295 2.52076 42.1765 2.39529C42.3177 2.26665 42.5001 2.1647 42.7059 2.08941C42.9177 2.01412 43.1589 1.97647 43.4295 1.97647C43.7412 1.97647 44.0235 2.02665 44.2706 2.12706C44.5235 2.22429 44.7354 2.35924 44.9177 2.53177L44.7294 2.83765Z" fill="#484848"/>
</svg>
