<svg width="15" height="12" viewBox="0 0 15 12" fill="none" xmlns="http://www.w3.org/2000/svg">
<path d="M13.6145 0.762227C13.6145 0.762227 12.4351 1.45791 11.7793 1.65663C11.4274 1.25335 10.9593 0.966862 10.4391 0.832433C9.9189 0.703848 9.37067 0.739008 8.86977 0.92604C8.36888 1.11892 7.93812 1.45787 7.63711 1.90207C7.33611 2.34627 7.1783 2.87234 7.18531 3.41006V3.99453C6.15839 4.02376 5.14024 3.79588 4.22261 3.33414C3.30499 2.87241 2.51536 2.18835 1.92504 1.3467C1.92504 1.3467 -0.412859 6.60698 4.84741 8.94488C3.64398 9.76314 2.20968 10.1723 0.756091 10.1138C6.01636 13.0362 12.4456 10.1138 12.4456 3.39236C12.4456 3.22871 12.4292 3.0653 12.3988 2.90749C12.995 2.31717 13.6145 0.762227 13.6145 0.762227Z" stroke="white" stroke-width="1.5" stroke-linecap="round" stroke-linejoin="round"/>
</svg>
