<svg width="133" height="31" viewBox="0 0 133 31" fill="none" xmlns="http://www.w3.org/2000/svg">
<path d="M7.31854 7.6905H3.14482L2.4182 9.3938C2.238 9.81233 2.14501 10.1261 2.14501 10.3296C2.14501 10.4924 2.22059 10.6435 2.37754 10.7656C2.53449 10.8876 2.87164 10.9691 3.39481 11.004V11.3003H0V11.004C0.447596 10.9284 0.738243 10.8236 0.871941 10.6957C1.14515 10.44 1.44164 9.92267 1.77297 9.14374L5.56302 0.27901H5.84203L9.59135 9.24251C9.89362 9.96332 10.1668 10.4341 10.411 10.6492C10.6609 10.8585 11.0039 10.9807 11.4457 11.004V11.3003H7.1906V11.004C7.62076 10.9866 7.9114 10.9109 8.05672 10.7888C8.21367 10.6726 8.28925 10.5213 8.28925 10.3469C8.28925 10.1144 8.18466 9.74242 7.96958 9.24251L7.31854 7.6905ZM7.09764 7.10325L5.26655 2.74951L3.39481 7.10325H7.09764ZM18.3282 8.53349C18.1306 9.49263 17.7469 10.2308 17.1714 10.7539C16.6018 11.2655 15.9682 11.5211 15.2764 11.5211C14.4452 11.5211 13.7244 11.1782 13.114 10.4806C12.4978 9.78886 12.1897 8.84725 12.1897 7.66723C12.1897 6.52208 12.5269 5.59212 13.207 4.87713C13.8929 4.16214 14.7126 3.80736 15.6659 3.80736C16.3809 3.80736 16.968 3.99918 17.4272 4.37702C17.8864 4.75486 18.119 5.14448 18.119 5.5572C18.119 5.75484 18.055 5.91751 17.9213 6.0454C17.7934 6.16747 17.6132 6.23131 17.3807 6.23131C17.0668 6.23131 16.8343 6.12666 16.6715 5.92902C16.5843 5.81858 16.5204 5.60373 16.4913 5.28983C16.4622 4.98174 16.3576 4.74342 16.1716 4.57485C15.9856 4.4179 15.7298 4.33643 15.3985 4.33643C14.8695 4.33643 14.4452 4.53408 14.1196 4.92936C13.6953 5.44671 13.4802 6.13266 13.4802 6.98716C13.4802 7.85329 13.6895 8.62057 14.1138 9.28906C14.544 9.95174 15.1195 10.283 15.8461 10.283C16.3634 10.283 16.8343 10.1029 17.247 9.74831C17.5377 9.50416 17.8225 9.06222 18.0957 8.4228L18.3282 8.53349ZM25.5595 8.53349C25.3618 9.49263 24.9782 10.2308 24.4085 10.7539C23.833 11.2655 23.1994 11.5211 22.5077 11.5211C21.6822 11.5211 20.9615 11.1782 20.3453 10.4806C19.7291 9.78886 19.421 8.84725 19.421 7.66723C19.421 6.52208 19.764 5.59212 20.4383 4.87713C21.1242 4.16214 21.9438 3.80736 22.8972 3.80736C23.6122 3.80736 24.1993 3.99918 24.6585 4.37702C25.1235 4.75486 25.3502 5.14448 25.3502 5.5572C25.3502 5.75484 25.2863 5.91751 25.1526 6.0454C25.0247 6.16747 24.8445 6.23131 24.612 6.23131C24.2981 6.23131 24.0656 6.12666 23.9028 5.92902C23.8156 5.81858 23.7517 5.60373 23.7226 5.28983C23.6936 4.98174 23.5889 4.74342 23.4029 4.57485C23.2169 4.4179 22.9611 4.33643 22.6356 4.33643C22.1008 4.33643 21.6764 4.53408 21.3567 4.92936C20.9266 5.44671 20.7115 6.13266 20.7115 6.98716C20.7115 7.85329 20.9207 8.62057 21.3451 9.28906C21.7752 9.95174 22.3508 10.283 23.0774 10.283C23.6006 10.283 24.0656 10.1029 24.4783 9.74831C24.7689 9.50416 25.0538 9.06222 25.327 8.4228L25.5595 8.53349ZM27.8323 6.76038C27.8265 7.84158 28.0881 8.6902 28.6171 9.30637C29.1461 9.92255 29.7681 10.2249 30.4831 10.2249C30.9597 10.2249 31.3783 10.097 31.7271 9.83544C32.0816 9.57386 32.3781 9.12055 32.6164 8.48694L32.8605 8.6439C32.7501 9.37052 32.4246 10.0332 31.8898 10.6319C31.355 11.2248 30.6865 11.5211 29.8785 11.5211C29.0066 11.5211 28.2567 11.184 27.6347 10.5039C27.0127 9.82376 26.7047 8.90533 26.7047 7.75437C26.7047 6.5104 27.0186 5.53964 27.658 4.8479C28.2974 4.15035 29.0995 3.79572 30.0645 3.79572C30.8783 3.79572 31.5527 4.06916 32.0758 4.60976C32.599 5.14455 32.8605 5.85937 32.8605 6.76038H27.8323ZM27.8323 6.30113H31.1981C31.1748 5.8361 31.1167 5.50479 31.0353 5.31878C30.9016 5.01651 30.7039 4.78401 30.4365 4.61544C30.1808 4.44686 29.9076 4.3597 29.617 4.3597C29.181 4.3597 28.7857 4.53417 28.4369 4.87713C28.0881 5.2201 27.8905 5.69077 27.8323 6.30113ZM38.5456 3.80736V6.28382H38.284C38.0805 5.50488 37.819 4.97592 37.5051 4.6969C37.1912 4.41788 36.7901 4.27256 36.3018 4.27256C35.9298 4.27256 35.6333 4.37125 35.4066 4.56889C35.1799 4.76653 35.0637 4.98168 35.0637 5.22001C35.0637 5.51647 35.145 5.77227 35.3194 5.98153C35.4822 6.20243 35.8135 6.4291 36.3192 6.67324L37.4818 7.23694C38.5572 7.76591 39.092 8.45783 39.092 9.31233C39.092 9.97501 38.8421 10.5097 38.3364 10.9166C37.8423 11.3235 37.2784 11.5211 36.6622 11.5211C36.2146 11.5211 35.7089 11.4458 35.1334 11.283C34.959 11.2307 34.8195 11.2072 34.7033 11.2072C34.5812 11.2072 34.4882 11.2712 34.4184 11.4107H34.1568V8.8125H34.4184C34.5696 9.55656 34.8486 10.1144 35.2671 10.4922C35.6856 10.8643 36.1565 11.0562 36.6739 11.0562C37.0401 11.0562 37.3365 10.9456 37.569 10.7363C37.8015 10.5213 37.9178 10.2598 37.9178 9.95749C37.9178 9.59128 37.7841 9.28328 37.5284 9.03333C37.2726 8.78918 36.761 8.4694 35.9937 8.09156C35.2264 7.70791 34.7207 7.36507 34.4824 7.05698C34.244 6.75471 34.1278 6.37093 34.1278 5.91171C34.1278 5.31298 34.3312 4.81302 34.7381 4.41193C35.1508 4.00502 35.6856 3.80736 36.3367 3.80736C36.6215 3.80736 36.9703 3.86552 37.3772 3.98759C37.6446 4.06898 37.8248 4.10964 37.9178 4.10964C37.9992 4.10964 38.069 4.09215 38.1155 4.05146C38.162 4.01658 38.22 3.93524 38.284 3.80736H38.5456ZM44.8875 3.80736V6.28382H44.6259C44.4225 5.50488 44.1609 4.97592 43.847 4.6969C43.5331 4.41788 43.132 4.27256 42.6437 4.27256C42.2717 4.27256 41.9753 4.37125 41.7486 4.56889C41.5218 4.76653 41.4055 4.98168 41.4055 5.22001C41.4055 5.51647 41.4928 5.77227 41.6613 5.98153C41.8241 6.20243 42.1554 6.4291 42.6612 6.67324L43.8237 7.23694C44.8991 7.76591 45.4339 8.45783 45.4339 9.31233C45.4339 9.97501 45.184 10.5097 44.6782 10.9166C44.1841 11.3235 43.6203 11.5211 43.0041 11.5211C42.5565 11.5211 42.0508 11.4458 41.4753 11.283C41.3009 11.2307 41.1614 11.2072 41.0451 11.2072C40.9231 11.2072 40.8301 11.2712 40.7603 11.4107H40.4988V8.8125H40.7603C40.9114 9.55656 41.1905 10.1144 41.609 10.4922C42.0276 10.8643 42.4984 11.0562 43.0157 11.0562C43.3819 11.0562 43.6784 10.9456 43.9109 10.7363C44.1435 10.5213 44.2597 10.2598 44.2597 9.95749C44.2597 9.59128 44.126 9.28328 43.8702 9.03333C43.6144 8.78918 43.103 8.4694 42.3357 8.09156C41.5684 7.70791 41.0626 7.36507 40.8242 7.05698C40.5859 6.75471 40.4697 6.37093 40.4697 5.91171C40.4697 5.31298 40.6731 4.81302 41.08 4.41193C41.4928 4.00502 42.0276 3.80736 42.6786 3.80736C42.9634 3.80736 43.3122 3.86552 43.7191 3.98759C43.9865 4.06898 44.1667 4.10964 44.2597 4.10964C44.3411 4.10964 44.4108 4.09215 44.4573 4.05146C44.5038 4.01658 44.562 3.93524 44.6259 3.80736H44.8875ZM48.3752 0C48.5961 0 48.788 0.0814719 48.9392 0.238421C49.0961 0.389558 49.1774 0.581225 49.1774 0.802117C49.1774 1.02301 49.0961 1.21482 48.9392 1.37177C48.788 1.53454 48.5961 1.61019 48.3752 1.61019C48.1544 1.61019 47.9625 1.53454 47.8056 1.37177C47.6428 1.21482 47.5615 1.02301 47.5615 0.802117C47.5615 0.581225 47.6428 0.389558 47.7939 0.238421C47.9509 0.0814719 48.1485 0 48.3752 0ZM49.0321 3.80736V9.65521C49.0321 10.1086 49.067 10.4169 49.131 10.568C49.2007 10.7192 49.2995 10.8294 49.4216 10.9049C49.5553 10.9747 49.7936 11.0153 50.1366 11.0153V11.3003H46.6023V11.0153C46.9569 11.0153 47.1952 10.9806 47.3173 10.9109C47.4394 10.8411 47.5324 10.7308 47.6021 10.568C47.6777 10.4111 47.7126 10.1028 47.7126 9.65521V6.84751C47.7126 6.06277 47.6894 5.5513 47.6429 5.31878C47.608 5.14439 47.5498 5.02821 47.4685 4.96427C47.3871 4.90033 47.2824 4.8655 47.1429 4.8655C46.9976 4.8655 46.8174 4.9002 46.6023 4.98158L46.4919 4.6969L48.6833 3.80736H49.0321ZM53.0489 5.27819C53.7522 4.29581 54.5138 3.80736 55.3276 3.80736C56.0774 3.80736 56.7285 4.12701 57.2865 4.76644C57.8387 5.40586 58.1177 6.27199 58.1177 7.38226C58.1177 8.67273 57.6876 9.71331 56.8331 10.5039C56.0949 11.184 55.2752 11.5211 54.3684 11.5211C53.9441 11.5211 53.5139 11.4458 53.0721 11.2946C52.6362 11.1377 52.1944 10.9107 51.7351 10.6026V3.05747C51.7351 2.23203 51.7177 1.72652 51.6712 1.53469C51.6363 1.34287 51.5724 1.21474 51.491 1.14499C51.4038 1.07523 51.2992 1.04054 51.1713 1.04054C51.026 1.04054 50.84 1.08107 50.6133 1.16826L50.5028 0.889254L52.6885 0H53.0489V5.27819ZM53.0489 5.7837V10.1377C53.3163 10.4051 53.5953 10.6086 53.8801 10.7423C54.1766 10.876 54.473 10.9398 54.7753 10.9398C55.252 10.9398 55.6996 10.6783 56.1181 10.1494C56.5366 9.62039 56.7459 8.84728 56.7459 7.83583C56.7459 6.89994 56.5366 6.18499 56.1181 5.69089C55.6996 5.18516 55.2287 4.93504 54.6997 4.93504C54.4207 4.93504 54.1417 5.00486 53.8569 5.15018C53.6476 5.25481 53.3744 5.46399 53.0489 5.7837ZM61.6927 0V9.65521C61.6927 10.1086 61.7276 10.4109 61.7915 10.5621C61.8613 10.7074 61.9601 10.8236 62.0996 10.9049C62.2392 10.9747 62.4949 11.0153 62.8727 11.0153V11.3003H59.3036V11.0153C59.6349 11.0153 59.8617 10.9806 59.9837 10.9109C60.1058 10.8411 60.2046 10.7308 60.2744 10.568C60.3383 10.4111 60.3732 10.1028 60.3732 9.65521V3.04015C60.3732 2.22053 60.3557 1.72071 60.3209 1.53469C60.2802 1.34287 60.2221 1.21474 60.1349 1.14499C60.0593 1.07523 59.9547 1.04054 59.8268 1.04054C59.6873 1.04054 59.5129 1.08107 59.3036 1.16826L59.1699 0.889254L61.3381 0H61.6927ZM64.9479 6.76038C64.9421 7.84158 65.2038 8.6902 65.7327 9.30637C66.2617 9.92255 66.8837 10.2249 67.5987 10.2249C68.0753 10.2249 68.488 10.097 68.8368 9.83544C69.1972 9.57386 69.4937 9.12055 69.732 8.48694L69.9761 8.6439C69.8657 9.37052 69.5402 10.0332 69.0054 10.6319C68.4706 11.2248 67.8021 11.5211 66.9941 11.5211C66.1222 11.5211 65.3723 11.184 64.7445 10.5039C64.1283 9.82376 63.8144 8.90533 63.8144 7.75437C63.8144 6.5104 64.1342 5.53964 64.7678 4.8479C65.413 4.15035 66.2152 3.79572 67.1802 3.79572C67.994 3.79572 68.6624 4.06916 69.1914 4.60976C69.7146 5.14455 69.9761 5.85937 69.9761 6.76038H64.9479ZM64.9479 6.30113H68.3136C68.2904 5.8361 68.2322 5.50479 68.1509 5.31878C68.0172 5.01651 67.8196 4.78401 67.5522 4.61544C67.2906 4.44686 67.0174 4.3597 66.7325 4.3597C66.2908 4.3597 65.9013 4.53417 65.5467 4.87713C65.2037 5.2201 65.0061 5.69077 64.9479 6.30113ZM83.8458 8.31835L84.1074 8.37653L83.1831 11.3003H74.8416V11.004H75.2427C75.7019 11.004 76.0274 10.8585 76.225 10.5621C76.3355 10.3935 76.3878 9.99819 76.3878 9.38784V2.42991C76.3878 1.75561 76.3181 1.33684 76.1669 1.16826C75.9577 0.935746 75.6554 0.819715 75.2427 0.819715H74.8416V0.523107H79.7186V0.819715C79.149 0.813902 78.7421 0.86623 78.5096 0.976675C78.2829 1.08712 78.1259 1.22647 78.0445 1.39505C77.9573 1.56944 77.9166 1.97059 77.9166 2.61582V9.38784C77.9166 9.82381 77.9573 10.126 78.0445 10.2887C78.1084 10.405 78.2014 10.4865 78.3351 10.5388C78.4688 10.5911 78.8816 10.6143 79.5791 10.6143H80.3639C81.1893 10.6143 81.7706 10.5561 82.1019 10.434C82.4391 10.312 82.7414 10.097 83.0204 9.78889C83.2936 9.475 83.5668 8.98683 83.8458 8.31835ZM86.1942 6.76038C86.1884 7.84158 86.4558 8.6902 86.9848 9.30637C87.5138 9.92255 88.1357 10.2249 88.8507 10.2249C89.3274 10.2249 89.7401 10.097 90.0889 9.83544C90.4435 9.57386 90.7399 9.12055 90.9783 8.48694L91.2283 8.6439C91.1178 9.37052 90.7923 10.0332 90.2575 10.6319C89.7227 11.2248 89.0542 11.5211 88.2462 11.5211C87.3743 11.5211 86.6244 11.184 85.9966 10.5039C85.3805 9.82376 85.0666 8.90533 85.0666 7.75437C85.0666 6.5104 85.3862 5.53964 86.0198 4.8479C86.6651 4.15035 87.4673 3.79572 88.4322 3.79572C89.246 3.79572 89.9146 4.06916 90.4377 4.60976C90.9667 5.14455 91.2283 5.85937 91.2283 6.76038H86.1942ZM86.1942 6.30113H89.5658C89.5425 5.8361 89.4844 5.50479 89.3972 5.31878C89.2693 5.01651 89.0658 4.78401 88.8042 4.61544C88.5427 4.44686 88.2694 4.3597 87.9846 4.3597C87.5428 4.3597 87.1476 4.53417 86.7988 4.87713C86.4558 5.2201 86.2524 5.69077 86.1942 6.30113ZM96.332 10.2541C95.5821 10.8296 95.1113 11.1608 94.9253 11.2538C94.6346 11.3875 94.3323 11.4513 94.0068 11.4513C93.5069 11.4513 93.0884 11.2771 92.7629 10.9342C92.4374 10.5912 92.2746 10.1376 92.2746 9.57375C92.2746 9.21916 92.356 8.91131 92.5129 8.65554C92.7338 8.29514 93.1059 7.95218 93.6407 7.63828C94.1813 7.31857 95.0764 6.93491 96.332 6.47569V6.19072C96.332 5.4641 96.2157 4.96429 95.9774 4.6969C95.7507 4.42369 95.4194 4.28988 94.9776 4.28988C94.6462 4.28988 94.3789 4.38301 94.1812 4.56321C93.9836 4.74341 93.8789 4.9469 93.8789 5.17942L93.8964 5.64434C93.8964 5.88267 93.8325 6.07462 93.7046 6.20832C93.5825 6.3362 93.4255 6.40587 93.2221 6.40587C93.0244 6.40587 92.8617 6.33619 92.7396 6.19668C92.6175 6.06298 92.5536 5.87103 92.5536 5.6327C92.5536 5.17929 92.7861 4.76067 93.2512 4.37702C93.722 3.99918 94.3731 3.80736 95.2159 3.80736C95.8612 3.80736 96.3901 3.91203 96.8087 4.13292C97.1168 4.29568 97.3492 4.55163 97.5004 4.90041C97.5934 5.13292 97.6399 5.59777 97.6399 6.30113V8.77163C97.6399 9.46918 97.6515 9.89364 97.6806 10.0506C97.7097 10.2075 97.7504 10.3122 97.8085 10.3645C97.8724 10.4168 97.9422 10.44 98.0236 10.44C98.1049 10.44 98.1805 10.4227 98.2445 10.3878C98.3549 10.318 98.57 10.1262 98.8897 9.80649V10.2541C98.2968 11.0447 97.7271 11.4456 97.1865 11.4456C96.9308 11.4456 96.7215 11.3525 96.5703 11.1723C96.4134 10.9921 96.332 10.6843 96.332 10.2541ZM96.332 9.73667V6.96389C95.5298 7.27778 95.0125 7.50458 94.78 7.63828C94.3614 7.87079 94.0591 8.1148 93.8789 8.37057C93.6987 8.62053 93.6116 8.89965 93.6116 9.20192C93.6116 9.58558 93.7278 9.89927 93.9545 10.155C94.1812 10.405 94.4428 10.5271 94.7392 10.5271C95.1403 10.5271 95.6751 10.2656 96.332 9.73667ZM101.569 3.80736V5.44083C102.174 4.35381 102.802 3.80736 103.441 3.80736C103.732 3.80736 103.976 3.89453 104.168 4.07473C104.354 4.24912 104.453 4.45274 104.453 4.68526C104.453 4.89453 104.383 5.06872 104.243 5.21404C104.11 5.35356 103.941 5.42919 103.755 5.42919C103.569 5.42919 103.36 5.33634 103.122 5.15614C102.895 4.97013 102.726 4.87713 102.616 4.87713C102.523 4.87713 102.418 4.92932 102.308 5.03977C102.069 5.25485 101.819 5.61516 101.569 6.10926V9.59702C101.569 10.0039 101.616 10.3062 101.721 10.5155C101.785 10.655 101.907 10.777 102.081 10.87C102.255 10.9688 102.511 11.0153 102.837 11.0153V11.3003H99.1106V11.0153C99.4826 11.0153 99.7558 10.9573 99.936 10.8411C100.07 10.7539 100.163 10.6201 100.215 10.434C100.244 10.341 100.256 10.0855 100.256 9.66117V6.84184C100.256 5.99315 100.238 5.49318 100.198 5.33042C100.169 5.16766 100.105 5.04566 100.012 4.97591C99.9186 4.90034 99.8024 4.8655 99.6687 4.8655C99.5059 4.8655 99.3198 4.9002 99.1106 4.98158L99.0292 4.6969L101.232 3.80736H101.569ZM106.981 5.34773C107.83 4.31884 108.644 3.80736 109.417 3.80736C109.818 3.80736 110.155 3.90619 110.446 4.10964C110.731 4.30147 110.957 4.6271 111.126 5.08632C111.242 5.40603 111.3 5.88837 111.3 6.54523V9.65521C111.3 10.1144 111.341 10.4282 111.411 10.591C111.475 10.7247 111.562 10.8294 111.69 10.9049C111.823 10.9747 112.068 11.0153 112.416 11.0153V11.3003H108.812V11.0153H108.964C109.307 11.0153 109.539 10.9632 109.673 10.8643C109.812 10.7597 109.905 10.6027 109.958 10.4051C109.981 10.3237 109.992 10.0737 109.992 9.65521V6.67324C109.992 6.01056 109.905 5.53378 109.731 5.23732C109.556 4.93505 109.272 4.78403 108.865 4.78403C108.231 4.78403 107.603 5.12687 106.981 5.81861V9.65521C106.981 10.1493 107.01 10.4518 107.069 10.568C107.138 10.725 107.243 10.8353 107.371 10.9109C107.499 10.9806 107.766 11.0153 108.161 11.0153V11.3003H104.563V11.0153H104.72C105.092 11.0153 105.342 10.9223 105.47 10.7363C105.604 10.5445 105.668 10.1842 105.668 9.65521V6.95225C105.668 6.08031 105.644 5.54552 105.604 5.35369C105.569 5.16768 105.505 5.03403 105.423 4.96427C105.342 4.90033 105.232 4.8655 105.098 4.8655C104.947 4.8655 104.772 4.9002 104.563 4.98158L104.441 4.6969L106.638 3.80736H106.981V5.34773ZM114.846 0C115.067 0 115.259 0.0814719 115.41 0.238421C115.573 0.389558 115.648 0.581225 115.648 0.802117C115.648 1.02301 115.573 1.21482 115.41 1.37177C115.259 1.53454 115.067 1.61019 114.846 1.61019C114.625 1.61019 114.434 1.53454 114.277 1.37177C114.114 1.21482 114.038 1.02301 114.038 0.802117C114.038 0.581225 114.114 0.389558 114.265 0.238421C114.428 0.0814719 114.62 0 114.846 0ZM115.509 3.80736V9.65521C115.509 10.1086 115.538 10.4169 115.602 10.568C115.672 10.7192 115.77 10.8294 115.898 10.9049C116.026 10.9747 116.265 11.0153 116.613 11.0153V11.3003H113.073V11.0153C113.428 11.0153 113.666 10.9806 113.788 10.9109C113.91 10.8411 114.009 10.7308 114.073 10.568C114.149 10.4111 114.189 10.1028 114.189 9.65521V6.84751C114.189 6.06277 114.166 5.5513 114.114 5.31878C114.079 5.14439 114.021 5.02821 113.939 4.96427C113.864 4.90033 113.753 4.8655 113.614 4.8655C113.469 4.8655 113.288 4.9002 113.073 4.98158L112.963 4.6969L115.154 3.80736H115.509ZM119.648 5.34773C120.502 4.31884 121.316 3.80736 122.089 3.80736C122.484 3.80736 122.827 3.90619 123.112 4.10964C123.397 4.30147 123.624 4.6271 123.798 5.08632C123.914 5.40603 123.973 5.88837 123.973 6.54523V9.65521C123.973 10.1144 124.007 10.4282 124.083 10.591C124.141 10.7247 124.234 10.8294 124.362 10.9049C124.49 10.9747 124.734 11.0153 125.083 11.0153V11.3003H121.485V11.0153H121.636C121.973 11.0153 122.211 10.9632 122.339 10.8643C122.479 10.7597 122.572 10.6027 122.63 10.4051C122.647 10.3237 122.659 10.0737 122.659 9.65521V6.67324C122.659 6.01056 122.572 5.53378 122.397 5.23732C122.229 4.93505 121.938 4.78403 121.531 4.78403C120.897 4.78403 120.27 5.12687 119.648 5.81861V9.65521C119.648 10.1493 119.677 10.4518 119.735 10.568C119.81 10.725 119.909 10.8353 120.037 10.9109C120.171 10.9806 120.432 11.0153 120.834 11.0153V11.3003H117.23V11.0153H117.392C117.759 11.0153 118.008 10.9223 118.136 10.7363C118.27 10.5445 118.334 10.1842 118.334 9.65521V6.95225C118.334 6.08031 118.317 5.54552 118.27 5.35369C118.235 5.16768 118.171 5.03403 118.09 4.96427C118.008 4.90033 117.904 4.8655 117.764 4.8655C117.613 4.8655 117.439 4.9002 117.23 4.98158L117.113 4.6969L119.305 3.80736H119.648V5.34773ZM127.611 8.6439C127.164 8.42883 126.821 8.12638 126.583 7.74273C126.344 7.34745 126.228 6.9173 126.228 6.44646C126.228 5.72565 126.495 5.10384 127.036 4.58649C127.582 4.06332 128.28 3.80736 129.129 3.80736C129.82 3.80736 130.425 3.976 130.931 4.31315H132.477C132.704 4.31315 132.837 4.3248 132.872 4.33643C132.907 4.34805 132.936 4.37123 132.953 4.40029C132.983 4.44679 133 4.53395 133 4.65603C133 4.79554 132.983 4.88868 132.959 4.941C132.942 4.97006 132.913 4.98742 132.872 5.00486C132.837 5.0223 132.704 5.02813 132.477 5.02813H131.529C131.826 5.41179 131.971 5.90008 131.971 6.493C131.971 7.17312 131.715 7.74873 131.192 8.23121C130.675 8.71368 129.977 8.95783 129.105 8.95783C128.745 8.95783 128.379 8.90535 128.001 8.7949C127.768 8.99836 127.606 9.17851 127.524 9.32965C127.443 9.47497 127.402 9.60295 127.402 9.71339C127.402 9.80059 127.449 9.8879 127.53 9.97509C127.623 10.0565 127.792 10.1202 128.047 10.155C128.199 10.1783 128.565 10.1958 129.158 10.2132C130.251 10.2365 130.96 10.2771 131.279 10.3236C131.774 10.3934 132.169 10.5736 132.459 10.87C132.756 11.1665 132.901 11.5328 132.901 11.9687C132.901 12.5675 132.622 13.1255 132.058 13.6544C131.233 14.4276 130.157 14.8114 128.826 14.8114C127.803 14.8114 126.943 14.5847 126.234 14.1196C125.838 13.8581 125.641 13.5791 125.641 13.2943C125.641 13.1664 125.67 13.0383 125.728 12.9162C125.815 12.7185 126.001 12.4455 126.28 12.0968C126.321 12.0503 126.588 11.7596 127.094 11.2365C126.821 11.0737 126.623 10.9284 126.507 10.8005C126.396 10.6668 126.338 10.5214 126.338 10.3529C126.338 10.1669 126.414 9.95171 126.559 9.70176C126.716 9.4518 127.065 9.10313 127.611 8.6439ZM128.995 4.18514C128.6 4.18514 128.274 4.34213 128.007 4.65603C127.745 4.96992 127.611 5.44671 127.611 6.09195C127.611 6.93482 127.792 7.58011 128.152 8.03934C128.425 8.39393 128.774 8.56812 129.198 8.56812C129.605 8.56812 129.931 8.41711 130.192 8.11484C130.454 7.81256 130.582 7.33579 130.582 6.69055C130.582 5.84768 130.402 5.19087 130.035 4.71421C129.762 4.35962 129.419 4.18514 128.995 4.18514ZM127.53 11.3003C127.28 11.5677 127.094 11.8234 126.966 12.0559C126.838 12.2884 126.774 12.5037 126.774 12.7013C126.774 12.9513 126.931 13.1778 127.239 13.3638C127.768 13.6951 128.53 13.8579 129.536 13.8579C130.489 13.8579 131.186 13.6893 131.64 13.3522C132.093 13.015 132.326 12.6606 132.326 12.277C132.326 12.0038 132.186 11.806 131.919 11.6897C131.64 11.5735 131.099 11.5038 130.28 11.4805C129.088 11.4515 128.169 11.3875 127.53 11.3003ZM3.27269 19.7118V23.9724H5.64441C6.25477 23.9724 6.66748 23.8794 6.87093 23.6934C7.14995 23.4492 7.30105 23.0191 7.33592 22.4088H7.62657V26.1582H7.33592C7.26036 25.635 7.18478 25.2978 7.11503 25.1466C7.01621 24.9664 6.8593 24.8153 6.64422 24.7107C6.42333 24.606 6.09201 24.5537 5.64441 24.5537H3.27269V28.1056C3.27269 28.5823 3.29593 28.8729 3.33662 28.9775C3.37731 29.0822 3.45288 29.1634 3.55751 29.2273C3.66796 29.2854 3.86562 29.3147 4.16208 29.3147H5.99317C6.60353 29.3147 7.04533 29.2739 7.31854 29.1867C7.59175 29.0995 7.85914 28.9369 8.11491 28.6869C8.44043 28.3556 8.77757 27.8614 9.12053 27.1988H9.4402L8.51015 29.9017H0.203439V29.6054H0.587112C0.842881 29.6054 1.08121 29.5472 1.30791 29.4252C1.4823 29.338 1.5928 29.2158 1.65093 29.0414C1.71487 28.8728 1.7497 28.524 1.7497 28.0009V21.0021C1.7497 20.3161 1.67995 19.8975 1.54044 19.7347C1.34862 19.5255 1.03471 19.4211 0.587112 19.4211H0.203439V19.1245H8.51015L8.6322 21.4846H8.31835C8.2079 20.9207 8.08582 20.5311 7.94631 20.316C7.81261 20.1068 7.61496 19.9443 7.35338 19.8338C7.1383 19.7524 6.76624 19.7118 6.23145 19.7118H3.27269ZM12.4513 23.9491C13.3058 22.9202 14.1196 22.4088 14.8927 22.4088C15.288 22.4088 15.631 22.5076 15.9158 22.711C16.2065 22.9029 16.4332 23.2285 16.6018 23.6877C16.718 24.0074 16.7761 24.4898 16.7761 25.1466V28.2566C16.7761 28.7158 16.811 29.0296 16.8866 29.1924C16.9447 29.3261 17.0377 29.4308 17.1656 29.5063C17.2993 29.5761 17.5376 29.6167 17.8864 29.6167V29.9017H14.2882V29.6167H14.4394C14.7765 29.6167 15.0148 29.5646 15.1485 29.4657C15.2822 29.3611 15.3811 29.2041 15.4334 29.0065C15.4566 28.9251 15.4624 28.6751 15.4624 28.2566V25.2746C15.4624 24.612 15.3752 24.1352 15.2008 23.8387C15.0323 23.5364 14.7416 23.3854 14.3347 23.3854C13.7069 23.3854 13.0791 23.7283 12.4513 24.42V28.2566C12.4513 28.7507 12.4804 29.0532 12.5385 29.1694C12.6141 29.3264 12.7129 29.4367 12.8408 29.5123C12.9745 29.582 13.2419 29.6167 13.6372 29.6167V29.9017H10.039V29.6167H10.1959C10.5679 29.6167 10.8179 29.5237 10.94 29.3377C11.0737 29.1459 11.1434 28.7856 11.1434 28.2566V25.5536C11.1434 24.6817 11.1202 24.1469 11.0795 23.9551C11.0388 23.7691 10.9806 23.6354 10.8934 23.5657C10.8179 23.5017 10.7075 23.4669 10.568 23.4669C10.4226 23.4669 10.2424 23.5016 10.039 23.583L9.9169 23.2983L12.1084 22.4088H12.4513V23.9491ZM18.0957 22.6239H21.5195V22.9145H21.2986C21.0893 22.9145 20.9324 22.967 20.822 23.0658C20.7173 23.1705 20.665 23.304 20.665 23.4726C20.665 23.6586 20.7174 23.8794 20.8278 24.1294L22.5193 28.1522L24.2225 23.9784C24.3446 23.6819 24.4085 23.4609 24.4085 23.304C24.4085 23.2284 24.3853 23.1702 24.3446 23.1237C24.2865 23.0424 24.2109 22.9902 24.1179 22.9611C24.0307 22.932 23.8447 22.9145 23.5715 22.9145V22.6239H25.949V22.9145C25.6699 22.9378 25.4839 22.9901 25.3735 23.0831C25.1875 23.2401 25.0247 23.5076 24.8736 23.8796L22.2926 30.1225H21.9671L19.3687 23.9784C19.2525 23.6935 19.142 23.4899 19.0316 23.3678C18.9269 23.2399 18.7933 23.1354 18.6305 23.0482C18.5375 23.0017 18.3631 22.9611 18.0957 22.9145V22.6239ZM28.4602 18.6014C28.6811 18.6014 28.8671 18.6829 29.024 18.8398C29.181 18.991 29.2624 19.1826 29.2624 19.4035C29.2624 19.6244 29.181 19.8162 29.024 19.9732C28.8671 20.1359 28.6811 20.2116 28.4602 20.2116C28.2335 20.2116 28.0474 20.1359 27.8846 19.9732C27.7277 19.8162 27.6464 19.6244 27.6464 19.4035C27.6464 19.1826 27.7278 18.991 27.8789 18.8398C28.0358 18.6829 28.2335 18.6014 28.4602 18.6014ZM29.1171 22.4088V28.2566C29.1171 28.71 29.1519 29.0183 29.2158 29.1694C29.2856 29.3206 29.3786 29.4308 29.5065 29.5063C29.6402 29.5761 29.8785 29.6167 30.2215 29.6167V29.9017H26.6872V29.6167C27.0418 29.6167 27.2801 29.582 27.4022 29.5123C27.5243 29.4425 27.6173 29.3322 27.687 29.1694C27.7626 29.0125 27.7975 28.7042 27.7975 28.2566V25.4489C27.7975 24.6642 27.7743 24.1527 27.7278 23.9202C27.6929 23.7458 27.6347 23.6296 27.5533 23.5657C27.472 23.5017 27.3674 23.4669 27.2278 23.4669C27.0767 23.4669 26.8965 23.5016 26.6872 23.583L26.5767 23.2983L28.7682 22.4088H29.1171ZM33.2674 22.4088V24.0422C33.8778 22.9552 34.4998 22.4088 35.1451 22.4088C35.4357 22.4088 35.674 22.4959 35.8659 22.6761C36.0577 22.8505 36.1507 23.0541 36.1507 23.2867C36.1507 23.4959 36.081 23.6701 35.9473 23.8154C35.8077 23.955 35.6449 24.0306 35.4531 24.0306C35.2671 24.0306 35.0578 23.9377 34.8253 23.7575C34.5986 23.5715 34.43 23.4785 34.3138 23.4785C34.2208 23.4785 34.1161 23.5307 34.0057 23.6412C33.7674 23.8562 33.5232 24.2166 33.2674 24.7107V28.1984C33.2674 28.6053 33.3197 28.9076 33.4186 29.1169C33.4883 29.2564 33.6104 29.3784 33.7848 29.4714C33.9592 29.5702 34.2092 29.6167 34.5405 29.6167V29.9017H30.8086V29.6167C31.1806 29.6167 31.4596 29.5587 31.6398 29.4425C31.7677 29.3553 31.8607 29.2215 31.913 29.0354C31.9421 28.9424 31.9537 28.6869 31.9537 28.2626V25.4432C31.9537 24.5945 31.9363 24.0946 31.9014 23.9318C31.8665 23.7691 31.8026 23.6471 31.7096 23.5773C31.6166 23.5017 31.5062 23.4669 31.3667 23.4669C31.2039 23.4669 31.0178 23.5016 30.8086 23.583L30.733 23.2983L32.9361 22.4088H33.2674ZM40.1151 22.4088C41.2195 22.4088 42.1031 22.8274 42.7716 23.6644C43.3413 24.3794 43.6203 25.1989 43.6203 26.129C43.6203 26.78 43.4633 27.4371 43.1552 28.1056C42.8413 28.7741 42.4112 29.2738 41.859 29.6167C41.3125 29.9539 40.7022 30.1225 40.0279 30.1225C38.935 30.1225 38.0631 29.6866 37.4179 28.8146C36.8715 28.0764 36.5983 27.2509 36.5983 26.3325C36.5983 25.664 36.761 25.0014 37.0924 24.3445C37.4237 23.6818 37.8597 23.1995 38.4003 22.8856C38.9409 22.5659 39.5164 22.4088 40.1151 22.4088ZM39.871 22.9262C39.592 22.9262 39.3071 23.0077 39.0222 23.1762C38.7374 23.3448 38.5107 23.6353 38.3364 24.0539C38.162 24.4724 38.0747 25.0072 38.0747 25.6641C38.0747 26.7278 38.284 27.6406 38.7026 28.4079C39.1269 29.1752 39.685 29.5588 40.3709 29.5588C40.8882 29.5588 41.3126 29.3494 41.6439 28.925C41.9752 28.5007 42.1438 27.7742 42.1438 26.7395C42.1438 25.4432 41.8648 24.426 41.3126 23.6877C40.9347 23.1762 40.4523 22.9262 39.871 22.9262ZM46.8174 23.9491C47.6719 22.9202 48.4857 22.4088 49.2588 22.4088C49.6541 22.4088 49.9971 22.5076 50.2819 22.711C50.5667 22.9029 50.7935 23.2285 50.9679 23.6877C51.0841 24.0074 51.1422 24.4898 51.1422 25.1466V28.2566C51.1422 28.7158 51.1771 29.0296 51.2527 29.1924C51.3108 29.3261 51.4038 29.4308 51.5317 29.5063C51.6654 29.5761 51.9037 29.6167 52.2525 29.6167V29.9017H48.6543V29.6167H48.8055C49.1426 29.6167 49.3809 29.5646 49.5088 29.4657C49.6483 29.3611 49.7471 29.2041 49.7995 29.0065C49.8169 28.9251 49.8285 28.6751 49.8285 28.2566V25.2746C49.8285 24.612 49.7413 24.1352 49.5669 23.8387C49.3983 23.5364 49.1077 23.3854 48.7008 23.3854C48.073 23.3854 47.4452 23.7283 46.8174 24.42V28.2566C46.8174 28.7507 46.8465 29.0532 46.9046 29.1694C46.9802 29.3264 47.079 29.4367 47.2069 29.5123C47.3406 29.582 47.6022 29.6167 48.0033 29.6167V29.9017H44.3992V29.6167H44.562C44.9282 29.6167 45.1782 29.5237 45.3061 29.3377C45.4398 29.1459 45.5037 28.7856 45.5037 28.2566V25.5536C45.5037 24.6817 45.4863 24.1469 45.4398 23.9551C45.4049 23.7691 45.3467 23.6354 45.2595 23.5657C45.1781 23.5017 45.0735 23.4669 44.934 23.4669C44.7829 23.4669 44.6085 23.5016 44.3992 23.583L44.283 23.2983L46.4745 22.4088H46.8174V23.9491ZM54.9962 23.9551C55.5252 23.4261 55.8391 23.1239 55.9321 23.0426C56.1704 22.8391 56.4262 22.6879 56.7052 22.5717C56.9784 22.4612 57.2517 22.4088 57.5249 22.4088C57.9783 22.4088 58.3677 22.5426 58.699 22.8041C59.0246 23.0715 59.2454 23.4552 59.3559 23.9551C59.9023 23.3215 60.3673 22.9029 60.7394 22.711C61.1172 22.5076 61.5067 22.4088 61.902 22.4088C62.2856 22.4088 62.6286 22.5076 62.925 22.711C63.2273 22.9029 63.4656 23.2285 63.64 23.6761C63.7563 23.9842 63.8144 24.4665 63.8144 25.1234V28.2566C63.8144 28.71 63.8493 29.0238 63.9191 29.1924C63.9714 29.3087 64.0702 29.4133 64.2155 29.4947C64.355 29.5761 64.5876 29.6167 64.9131 29.6167V29.9017H61.3207V29.6167H61.4718C61.7857 29.6167 62.0299 29.5529 62.2042 29.4308C62.3263 29.3494 62.4136 29.2158 62.4659 29.0298C62.4891 28.9368 62.4949 28.6809 62.4949 28.2566V25.1234C62.4949 24.5304 62.4251 24.1121 62.2856 23.868C62.0764 23.5308 61.745 23.3622 61.2916 23.3622C61.0068 23.3622 60.7277 23.432 60.4371 23.5773C60.1581 23.711 59.8152 23.9725 59.4141 24.3561L59.3966 24.4433L59.4141 24.7864V28.2566C59.4141 28.7565 59.4431 29.0647 59.4954 29.1867C59.5535 29.3088 59.6582 29.4133 59.8093 29.4947C59.9663 29.5761 60.2278 29.6167 60.5999 29.6167V29.9017H56.9203V29.6167C57.3214 29.6167 57.5946 29.5702 57.7458 29.4714C57.8969 29.3784 58.0073 29.2332 58.0654 29.0414C58.0887 28.9542 58.1003 28.6926 58.1003 28.2566V25.1234C58.1003 24.5304 58.0131 24.1063 57.8387 23.8447C57.6062 23.5075 57.2807 23.3389 56.8622 23.3389C56.5774 23.3389 56.2925 23.4145 56.0134 23.5657C55.5717 23.7982 55.2345 24.0655 54.9962 24.3561V28.2566C54.9962 28.7333 55.0253 29.0414 55.0892 29.1867C55.159 29.3321 55.2578 29.4367 55.3857 29.5123C55.5194 29.582 55.781 29.6167 56.182 29.6167V29.9017H52.5781V29.6167C52.9152 29.6167 53.1477 29.582 53.2814 29.5123C53.4093 29.4367 53.5139 29.3264 53.5779 29.1694C53.6476 29.0125 53.6825 28.7042 53.6825 28.2566V25.4722C53.6825 24.6758 53.6592 24.1587 53.6127 23.9261C53.5778 23.7517 53.5197 23.6296 53.4384 23.5657C53.357 23.5017 53.2465 23.4669 53.1128 23.4669C52.9617 23.4669 52.7873 23.5016 52.5781 23.583L52.4618 23.2983L54.6532 22.4088H54.9962V23.9551ZM66.7267 25.3618C66.7209 26.443 66.9825 27.2916 67.5115 27.9078C68.0404 28.5239 68.6624 28.8263 69.3774 28.8263C69.854 28.8263 70.2726 28.6984 70.6214 28.4368C70.976 28.1753 71.2724 27.7219 71.5108 27.0883L71.7549 27.2453C71.6445 27.9719 71.3189 28.6345 70.7841 29.2333C70.2494 29.8262 69.5809 30.1225 68.7787 30.1225C67.901 30.1225 67.1511 29.7854 66.5291 29.1053C65.9071 28.4252 65.599 27.5067 65.599 26.3558C65.599 25.1118 65.9129 24.141 66.5523 23.4493C67.1917 22.7517 67.9939 22.3971 68.9589 22.3971C69.7727 22.3971 70.447 22.6706 70.9702 23.2112C71.4934 23.7459 71.7549 24.4608 71.7549 25.3618H66.7267ZM66.7267 24.9025H70.0924C70.0692 24.4375 70.011 24.1062 69.9297 23.9202C69.796 23.6179 69.5983 23.3854 69.3309 23.2168C69.0751 23.0483 68.8019 22.9611 68.5113 22.9611C68.0753 22.9611 67.6801 23.1356 67.3313 23.4785C66.9825 23.8215 66.7849 24.2922 66.7267 24.9025ZM74.8532 23.9491C75.7077 22.9202 76.5215 22.4088 77.2946 22.4088C77.6957 22.4088 78.0329 22.5076 78.3235 22.711C78.6083 22.9029 78.8351 23.2285 79.0036 23.6877C79.1199 24.0074 79.1781 24.4898 79.1781 25.1466V28.2566C79.1781 28.7158 79.2187 29.0296 79.2885 29.1924C79.3466 29.3261 79.4396 29.4308 79.5675 29.5063C79.7012 29.5761 79.9395 29.6167 80.2941 29.6167V29.9017H76.6901V29.6167H76.8412C77.1842 29.6167 77.4167 29.5646 77.5504 29.4657C77.6899 29.3611 77.7829 29.2041 77.8352 29.0065C77.8585 28.9251 77.8702 28.6751 77.8702 28.2566V25.2746C77.8702 24.612 77.7829 24.1352 77.6027 23.8387C77.4341 23.5364 77.1493 23.3854 76.7366 23.3854C76.1088 23.3854 75.481 23.7283 74.8532 24.42V28.2566C74.8532 28.7507 74.8823 29.0532 74.9404 29.1694C75.016 29.3264 75.1206 29.4367 75.2427 29.5123C75.3764 29.582 75.6438 29.6167 76.0391 29.6167V29.9017H72.4408V29.6167H72.5978C72.9698 29.6167 73.2198 29.5237 73.3477 29.3377C73.4755 29.1459 73.5453 28.7856 73.5453 28.2566V25.5536C73.5453 24.6817 73.522 24.1469 73.4814 23.9551C73.4465 23.7691 73.3826 23.6354 73.2954 23.5657C73.2198 23.5017 73.1093 23.4669 72.9698 23.4669C72.8245 23.4669 72.6443 23.5016 72.4408 23.583L72.3188 23.2983L74.5161 22.4088H74.8532V23.9491ZM82.9855 20.2289V22.6239H84.6887V23.1762H82.9855V27.8961C82.9855 28.3728 83.0494 28.6869 83.1831 28.8555C83.3226 29.0183 83.497 29.0996 83.7063 29.0996C83.8865 29.0996 84.0551 29.0473 84.2178 28.9426C84.3806 28.8264 84.5085 28.6692 84.6015 28.4542H84.9096C84.7236 28.9715 84.462 29.3669 84.1248 29.6343C83.7818 29.8901 83.4331 30.0238 83.0727 30.0238C82.8286 30.0238 82.5902 29.9539 82.3577 29.8202C82.1252 29.6866 81.9508 29.4891 81.8404 29.2449C81.7299 28.9891 81.6718 28.5995 81.6718 28.0764V23.1762H80.5208V22.9145C80.8115 22.7983 81.1079 22.6008 81.4102 22.3276C81.7183 22.0486 81.9915 21.717 82.2298 21.3333C82.3519 21.1357 82.5205 20.7637 82.7414 20.2289H82.9855Z" fill="#1F1F1F"/>
</svg>
