<svg width="10" height="14" viewBox="0 0 10 14" fill="none" xmlns="http://www.w3.org/2000/svg">
<path d="M0 0H4.2704V0.366915H4.06012C3.76013 0.366915 3.53352 0.436874 3.38032 0.570852C3.23353 0.69318 3.16014 0.856465 3.16014 1.04869C3.16014 1.31083 3.27022 1.66593 3.49041 2.12612L5.72028 6.74555L7.77014 1.68923C7.88373 1.41545 7.94024 1.1477 7.94024 0.879743C7.94024 0.757415 7.91694 0.669913 7.87034 0.605837C7.81675 0.535935 7.73345 0.477661 7.62044 0.436885C7.50685 0.390284 7.30705 0.366915 7.02045 0.366915V0H10V0.366915C9.7536 0.396041 9.5637 0.448626 9.43031 0.530178C9.29691 0.605905 9.15012 0.75737 8.99051 0.978725C8.93051 1.07193 8.81692 1.32813 8.65032 1.74754L4.91991 10.8871C4.55991 11.7726 4.08692 12.4426 3.50033 12.8969C2.92014 13.3513 2.36034 13.5784 1.82035 13.5784C1.42658 13.5784 1.10328 13.4677 0.849887 13.2405C0.596494 13.0133 0.470083 12.7513 0.470083 12.46C0.470083 12.1804 0.559798 11.9533 0.739795 11.7785C0.926781 11.6096 1.18017 11.528 1.49997 11.528C1.72016 11.528 2.02015 11.6036 2.39995 11.7493C2.66674 11.8483 2.83335 11.9009 2.90034 11.9009C3.10014 11.9009 3.31683 11.796 3.55042 11.5863C3.79042 11.3824 4.03041 10.9804 4.2704 10.3863L4.91991 8.79601L1.62988 1.88748C1.53027 1.6836 1.37007 1.42711 1.14988 1.11838C0.983282 0.885375 0.846977 0.728062 0.739795 0.64651C0.586594 0.541658 0.340188 0.448467 0 0.366915V0Z" fill="white"/>
</svg>
