<svg width="148" height="37" viewBox="0 0 148 37" fill="none" xmlns="http://www.w3.org/2000/svg">
<path d="M4.31447 6.08393V6.8385H0.538718V0.185667H1.43506V6.08393H4.31447ZM5.98815 2.13616V6.8385H5.16147V2.13616H5.98815ZM6.16463 0.655929C6.16463 0.737203 6.1472 0.812751 6.11353 0.882415C6.08218 0.952078 6.03923 1.01583 5.98349 1.06808C5.93067 1.12033 5.8674 1.16661 5.7931 1.19564C5.72169 1.22467 5.64563 1.24213 5.56551 1.24213C5.48482 1.24213 5.40877 1.22467 5.33795 1.19564C5.26944 1.16661 5.20908 1.12033 5.15683 1.06808C5.104 1.01583 5.0622 0.952078 5.03144 0.882415C5.00009 0.812751 4.98498 0.737203 4.98498 0.655929C4.98498 0.574655 5.00009 0.499107 5.03144 0.429444C5.0622 0.353975 5.104 0.290072 5.15683 0.237824C5.20908 0.185576 5.26944 0.139293 5.33795 0.110266C5.40877 0.0754347 5.48482 0.0637788 5.56551 0.0637788C5.64563 0.0637788 5.72169 0.0754347 5.7931 0.110266C5.8674 0.139293 5.93067 0.185576 5.98349 0.237824C6.03923 0.290072 6.08218 0.353975 6.11353 0.429444C6.1472 0.499107 6.16463 0.574655 6.16463 0.655929ZM14.0232 6.10717L14.0186 6.8385H9.91774V0.185667H14.0186V0.916997H10.8187V3.12885H13.4102V3.83126H10.8187V6.10717H14.0232ZM18.7528 2.13616V6.8385H18.2605C18.1427 6.8385 18.0684 6.78056 18.0376 6.66446L17.9726 6.15933C17.7682 6.38574 17.5389 6.57133 17.2852 6.71066C17.0315 6.84418 16.7401 6.9139 16.4121 6.9139C16.1549 6.9139 15.9274 6.87343 15.7294 6.78635C15.5344 6.69927 15.3701 6.57729 15.2371 6.42635C15.1042 6.26961 15.0032 6.08371 14.9353 5.86311C14.8702 5.64251 14.8377 5.39883 14.8377 5.13178V2.13616H15.6644V5.13178C15.6644 5.49171 15.7451 5.76466 15.9059 5.96204C16.0702 6.15361 16.3192 6.2523 16.6536 6.2523C16.898 6.2523 17.1256 6.19423 17.3363 6.08393C17.5499 5.96202 17.7468 5.80508 17.9261 5.59609V2.13616H18.7528ZM20.8485 3.07669C20.9971 2.7574 21.1794 2.50208 21.3965 2.32211C21.6131 2.14215 21.8778 2.04914 22.1907 2.04914C22.2894 2.04914 22.384 2.06079 22.474 2.08401C22.5669 2.10723 22.6487 2.13621 22.7201 2.18265L22.6598 2.80372C22.6412 2.87918 22.5948 2.91993 22.5204 2.91993C22.4769 2.91993 22.4136 2.90844 22.33 2.89102C22.2464 2.87361 22.1518 2.86182 22.0467 2.86182C21.8981 2.86182 21.7646 2.88497 21.6473 2.9256C21.5324 2.97205 21.429 3.0361 21.3362 3.12318C21.2462 3.20445 21.1643 3.31477 21.09 3.43668C21.0186 3.5644 20.9536 3.70358 20.895 3.86613V6.8385H20.0636V2.13616H20.5373C20.6268 2.13616 20.6889 2.15363 20.7231 2.18265C20.7568 2.21748 20.78 2.27557 20.7928 2.36265L20.8485 3.07669ZM25.2396 2.06076C25.5833 2.06076 25.8927 2.11884 26.1685 2.22914C26.4437 2.34525 26.6794 2.5077 26.8744 2.71669C27.0695 2.93149 27.2181 3.1871 27.3202 3.48317C27.4253 3.78505 27.4781 4.11579 27.4781 4.48152C27.4781 4.85306 27.4253 5.18976 27.3202 5.48583C27.2181 5.78189 27.0695 6.03736 26.8744 6.24635C26.6794 6.46115 26.4437 6.6236 26.1685 6.73391C25.8927 6.85001 25.5833 6.90228 25.2396 6.90228C24.8925 6.90228 24.5802 6.85001 24.3015 6.73391C24.0258 6.6236 23.7906 6.46115 23.5956 6.24635C23.4005 6.03736 23.2502 5.78189 23.1451 5.48583C23.0429 5.18976 22.9918 4.85306 22.9918 4.48152C22.9918 4.11579 23.0429 3.78505 23.1451 3.48317C23.2502 3.1871 23.4005 2.93149 23.5956 2.71669C23.7906 2.5077 24.0258 2.34525 24.3015 2.22914C24.5802 2.11884 24.8925 2.06076 25.2396 2.06076ZM25.2396 6.25797C25.7041 6.25797 26.0506 6.10134 26.2799 5.79366C26.5087 5.48018 26.6236 5.04478 26.6236 4.48748C26.6236 3.93017 26.5087 3.48897 26.2799 3.18129C26.0506 2.8678 25.7041 2.71102 25.2396 2.71102C25.0039 2.71102 24.7984 2.75164 24.622 2.83291C24.4484 2.90838 24.3027 3.02454 24.1854 3.18129C24.0704 3.33222 23.9839 3.51797 23.9253 3.73857C23.8696 3.95917 23.8417 4.20882 23.8417 4.48748C23.8417 5.04478 23.9561 5.48018 24.1854 5.79366C24.4176 6.10134 24.7688 6.25797 25.2396 6.25797ZM29.3579 5.70636C29.5094 5.90954 29.6755 6.05481 29.8548 6.13609C30.0342 6.22316 30.2357 6.26364 30.4586 6.26364C30.898 6.26364 31.2359 6.10715 31.471 5.79366C31.7061 5.48018 31.824 5.033 31.824 4.45828C31.824 4.1506 31.7961 3.88363 31.7404 3.66884C31.6876 3.44824 31.6104 3.26817 31.5082 3.12885C31.406 2.98371 31.2806 2.8792 31.132 2.81534C30.9834 2.75148 30.8144 2.71669 30.6258 2.71669C30.3564 2.71669 30.1195 2.78073 29.9152 2.90264C29.7138 3.03036 29.528 3.20433 29.3579 3.43073V5.70636ZM29.3161 2.86182C29.5141 2.618 29.7434 2.42076 30.0034 2.27563C30.2635 2.12469 30.5608 2.04914 30.8951 2.04914C31.1674 2.04914 31.4136 2.1014 31.6336 2.2059C31.8536 2.31039 32.0405 2.46121 32.1955 2.6702C32.3505 2.86758 32.4695 3.11723 32.5531 3.41911C32.6367 3.72098 32.6785 4.06352 32.6785 4.45828C32.6785 4.80079 32.6321 5.12584 32.5392 5.42772C32.4463 5.72379 32.3116 5.98507 32.1351 6.19986C31.9616 6.42047 31.7479 6.5889 31.4942 6.71661C31.2435 6.84433 30.9602 6.90228 30.6444 6.90228C30.3564 6.90228 30.1085 6.85584 29.9013 6.75715C29.6969 6.65846 29.5158 6.52511 29.3579 6.35095V8.42929H28.5266V2.13616H29.0235C29.1414 2.13616 29.2139 2.18843 29.2418 2.30454L29.3161 2.86182ZM36.283 4.71963C35.9022 4.73124 35.5771 4.76588 35.3077 4.81232C35.0413 4.85876 34.823 4.9228 34.6529 4.99827C34.4857 5.07955 34.3632 5.16647 34.286 5.27096C34.2117 5.38126 34.1745 5.49757 34.1745 5.62529C34.1745 5.753 34.1943 5.85739 34.2349 5.94447C34.275 6.03735 34.329 6.1129 34.3975 6.17095C34.4683 6.2232 34.5507 6.26962 34.6436 6.29284C34.7394 6.32187 34.8416 6.33337 34.9501 6.33337C35.0953 6.33337 35.2288 6.31606 35.3495 6.29284C35.4703 6.25801 35.5829 6.21738 35.6886 6.15933C35.7965 6.10708 35.8987 6.03751 35.9951 5.96204C36.0938 5.88077 36.1902 5.79343 36.283 5.69474V4.71963ZM33.6126 2.79805C33.8727 2.54842 34.1525 2.36252 34.4532 2.23481C34.7533 2.1129 35.086 2.04914 35.4517 2.04914C35.7147 2.04914 35.9487 2.09557 36.153 2.18265C36.3573 2.26973 36.5292 2.3859 36.6685 2.54265C36.8078 2.69939 36.9129 2.885 36.9843 3.1056C37.0551 3.3262 37.0911 3.56422 37.0911 3.83126V6.8385H36.7242C36.6435 6.8385 36.5814 6.82686 36.5385 6.80364C36.4949 6.77461 36.4607 6.72249 36.4363 6.64121L36.3434 6.19986C36.2192 6.31017 36.0984 6.41467 35.9812 6.50175C35.8633 6.58883 35.7397 6.66438 35.6096 6.72824C35.4796 6.78629 35.3403 6.83272 35.1916 6.86175C35.0459 6.89658 34.8834 6.9139 34.704 6.9139C34.5211 6.9139 34.3493 6.89075 34.1885 6.8385C34.0271 6.78626 33.8866 6.71084 33.7659 6.60635C33.648 6.50185 33.5534 6.37405 33.4826 6.22311C33.4141 6.06056 33.3804 5.87481 33.3804 5.66582C33.3804 5.48005 33.4315 5.30014 33.5336 5.13178C33.6358 4.95762 33.8013 4.80071 34.0306 4.66719C34.2593 4.53367 34.5583 4.42942 34.9269 4.34234C35.295 4.25526 35.7472 4.20882 36.283 4.19721V3.83126C36.283 3.46553 36.2041 3.18706 36.0462 3.00129C35.8883 2.81552 35.6572 2.71669 35.3542 2.71669C35.1498 2.71669 34.978 2.7458 34.8387 2.79805C34.7023 2.85029 34.5832 2.90243 34.4811 2.97209C34.3818 3.03014 34.2953 3.08822 34.221 3.14047C34.1496 3.19271 34.0782 3.21587 34.0074 3.21587C33.9516 3.21587 33.9034 3.20436 33.8634 3.17533C33.8228 3.1405 33.7891 3.1057 33.7612 3.06507L33.6126 2.79805ZM39.1305 2.81534C39.2327 2.69923 39.3407 2.60067 39.4556 2.50778C39.57 2.4149 39.6907 2.33353 39.8179 2.26967C39.9479 2.20001 40.0838 2.14775 40.2266 2.11292C40.3717 2.07809 40.5284 2.06076 40.6956 2.06076C40.9522 2.06076 41.1786 2.10152 41.3737 2.1886C41.5716 2.27568 41.7359 2.39172 41.866 2.55427C41.9989 2.70521 42.0993 2.89676 42.1678 3.11155C42.2358 3.33216 42.27 3.57584 42.27 3.84288V6.8385H41.4387V3.84288C41.4387 3.48876 41.3563 3.21015 41.1926 3.01858C41.0312 2.81539 40.785 2.71669 40.4541 2.71669C40.2091 2.71669 39.9804 2.78058 39.7668 2.89669C39.556 3.0128 39.361 3.17524 39.1816 3.37262V6.8385H38.3503V2.13616H38.8472C38.9645 2.13616 39.0376 2.18843 39.0655 2.30454L39.1305 2.81534ZM46.7604 0V6.8385H45.9337V0H46.7604ZM48.9746 2.13616V6.8385H48.1479V2.13616H48.9746ZM49.151 0.655929C49.151 0.737203 49.1336 0.812751 49.0999 0.882415C49.0686 0.952078 49.0256 1.01583 48.9699 1.06808C48.9171 1.12033 48.8538 1.16661 48.7795 1.19564C48.7081 1.22467 48.632 1.24213 48.5519 1.24213C48.4712 1.24213 48.3952 1.22467 48.3244 1.19564C48.2559 1.16661 48.1955 1.12033 48.1432 1.06808C48.0904 1.01583 48.0486 0.952078 48.0178 0.882415C47.9865 0.812751 47.9714 0.737203 47.9714 0.655929C47.9714 0.574655 47.9865 0.499107 48.0178 0.429444C48.0486 0.353975 48.0904 0.290072 48.1432 0.237824C48.1955 0.185576 48.2559 0.139293 48.3244 0.110266C48.3952 0.0754347 48.4712 0.0637788 48.5519 0.0637788C48.632 0.0637788 48.7081 0.0754347 48.7795 0.110266C48.8538 0.139293 48.9171 0.185576 48.9699 0.237824C49.0256 0.290072 49.0686 0.353975 49.0999 0.429444C49.1336 0.499107 49.151 0.574655 49.151 0.655929ZM51.1126 2.81534C51.2148 2.69923 51.3234 2.60067 51.4377 2.50778C51.5527 2.4149 51.6734 2.33353 51.8 2.26967C51.93 2.20001 52.0664 2.14775 52.2087 2.11292C52.3544 2.07809 52.5106 2.06076 52.6777 2.06076C52.9349 2.06076 53.1607 2.10152 53.3558 2.1886C53.5543 2.27568 53.718 2.39172 53.8481 2.55427C53.9816 2.70521 54.082 2.89676 54.15 3.11155C54.2185 3.33216 54.2521 3.57584 54.2521 3.84288V6.8385H53.4208V3.84288C53.4208 3.48876 53.339 3.21015 53.1747 3.01858C53.0139 2.81539 52.7677 2.71669 52.4362 2.71669C52.1918 2.71669 51.9625 2.78058 51.7489 2.89669C51.5387 3.0128 51.3437 3.17524 51.1637 3.37262V6.8385H50.3324V2.13616H50.8293C50.9472 2.13616 51.0197 2.18843 51.0476 2.30454L51.1126 2.81534ZM57.1513 4.53963C57.3185 4.53963 57.4659 4.51634 57.5925 4.4699C57.7196 4.42346 57.8265 4.35969 57.913 4.27261C58 4.19134 58.065 4.0925 58.108 3.97639C58.1515 3.86029 58.173 3.73277 58.173 3.59344C58.173 3.30317 58.0848 3.0768 57.9083 2.90264C57.7353 2.73429 57.4828 2.64696 57.1513 2.64696C56.8169 2.64696 56.5615 2.73429 56.385 2.90264C56.212 3.0768 56.1249 3.30317 56.1249 3.59344C56.1249 3.73277 56.147 3.86029 56.1899 3.97639C56.2364 4.0925 56.3031 4.19134 56.3896 4.27261C56.4767 4.35969 56.5835 4.42346 56.7101 4.4699C56.8372 4.51634 56.9841 4.53963 57.1513 4.53963ZM58.6421 7.0939C58.6421 6.9778 58.6096 6.88492 58.5446 6.81526C58.4795 6.7456 58.3913 6.68752 58.2798 6.64688C58.1719 6.60625 58.0447 6.57714 57.899 6.56553C57.7539 6.54811 57.5989 6.5308 57.4346 6.52499C57.2738 6.51338 57.1095 6.50189 56.9423 6.49608C56.7751 6.48447 56.6143 6.47281 56.4593 6.44959C56.2863 6.53087 56.1435 6.62943 56.032 6.75715C55.924 6.87325 55.8695 7.01838 55.8695 7.18092C55.8695 7.28542 55.8962 7.38426 55.9484 7.47714C56.0042 7.57003 56.0878 7.64544 56.1992 7.7093C56.3107 7.77896 56.45 7.83108 56.6172 7.87172C56.7879 7.91236 56.9876 7.92983 57.2163 7.92983C57.4392 7.92983 57.6389 7.91236 57.8154 7.87172C57.9919 7.83108 58.1405 7.77314 58.2613 7.69767C58.3855 7.6222 58.4795 7.53515 58.5446 7.43065C58.6096 7.33196 58.6421 7.21581 58.6421 7.0939ZM59.4827 2.32211V2.624C59.4827 2.7285 59.4177 2.79226 59.2876 2.82129L58.7536 2.89102C58.8592 3.09421 58.9115 3.32057 58.9115 3.57019C58.9115 3.7966 58.8667 4.00564 58.7768 4.19721C58.6903 4.38298 58.5695 4.53962 58.4145 4.67314C58.2601 4.80666 58.0743 4.91103 57.8572 4.9807C57.6407 5.05036 57.4056 5.08529 57.1513 5.08529C56.9319 5.08529 56.724 5.06214 56.529 5.00989C56.4303 5.06795 56.3542 5.13752 56.3014 5.20718C56.2492 5.27685 56.2224 5.34643 56.2224 5.41609C56.2224 5.52639 56.2677 5.61372 56.3571 5.67178C56.45 5.72983 56.5708 5.77044 56.7194 5.79366C56.868 5.81689 57.0369 5.83406 57.2256 5.83987C57.4177 5.84567 57.6128 5.85732 57.8108 5.87473C58.0122 5.88635 58.2073 5.90963 58.396 5.94447C58.5881 5.97349 58.7582 6.0317 58.9068 6.10717C59.0554 6.18845 59.175 6.29269 59.2644 6.43202C59.3573 6.56554 59.4037 6.73979 59.4037 6.96039C59.4037 7.15777 59.3527 7.3553 59.2505 7.54687C59.1518 7.73264 59.0078 7.90092 58.8186 8.04605C58.6299 8.19698 58.3977 8.31301 58.1219 8.40009C57.8497 8.48717 57.5414 8.5336 57.1977 8.5336C56.8541 8.5336 56.5539 8.49895 56.2967 8.42929C56.0402 8.36543 55.8265 8.27242 55.6559 8.15631C55.4858 8.04021 55.3575 7.91253 55.2704 7.75578C55.1868 7.61065 55.145 7.45374 55.145 7.29119C55.145 7.05898 55.2181 6.86159 55.3633 6.69904C55.509 6.53649 55.7087 6.40897 55.9624 6.31608C55.823 6.25223 55.7116 6.17085 55.628 6.06635C55.5479 5.96186 55.5072 5.82254 55.5072 5.64258C55.5072 5.57872 55.52 5.50914 55.5444 5.43367C55.5693 5.36401 55.6065 5.28847 55.6559 5.21881C55.7087 5.14334 55.7719 5.07375 55.8463 5.00989C55.9206 4.94604 56.0077 4.88781 56.1063 4.83557C55.8741 4.70785 55.693 4.53389 55.563 4.3191C55.4329 4.1043 55.3679 3.85465 55.3679 3.57019C55.3679 3.33798 55.4115 3.13462 55.498 2.94885C55.5879 2.75727 55.7116 2.60077 55.8695 2.46725C56.0274 2.33373 56.2149 2.23488 56.4314 2.15941C56.6515 2.08974 56.8912 2.05481 57.1513 2.05481C57.3556 2.05481 57.5461 2.0781 57.7225 2.12454C57.899 2.16518 58.0604 2.23504 58.2055 2.32211H59.4827ZM64.2064 2.13616V6.8385H63.7142C63.5963 6.8385 63.522 6.78056 63.4912 6.66446L63.4262 6.15933C63.2219 6.38574 62.9926 6.57133 62.7389 6.71066C62.4846 6.84418 62.1938 6.9139 61.8658 6.9139C61.6086 6.9139 61.381 6.87343 61.1831 6.78635C60.988 6.69927 60.8237 6.57729 60.6908 6.42635C60.5572 6.26961 60.4568 6.08371 60.3889 5.86311C60.3239 5.64251 60.2914 5.39883 60.2914 5.13178V2.13616H61.118V5.13178C61.118 5.49171 61.1982 5.76466 61.3595 5.96204C61.5232 6.15361 61.7729 6.2523 62.1073 6.2523C62.3517 6.2523 62.5792 6.19423 62.79 6.08393C63.0036 5.96202 63.1998 5.80508 63.3798 5.59609V2.13616H64.2064ZM68.6661 3.97073C68.6661 3.77915 68.6382 3.60505 68.5825 3.44831C68.5297 3.28576 68.4507 3.15226 68.3456 3.03615C68.2434 2.92005 68.118 2.82704 67.9694 2.76318C67.8208 2.69932 67.6519 2.6702 67.4632 2.6702C67.0667 2.6702 66.7527 2.78637 66.5204 3.01858C66.2911 3.24499 66.1489 3.56436 66.0932 3.97073H68.6661ZM69.3348 6.17662C69.2327 6.30434 69.1102 6.40887 68.968 6.50175C68.8252 6.59464 68.6719 6.67018 68.5082 6.72824C68.3468 6.78629 68.1796 6.82677 68.0066 6.85579C67.833 6.89063 67.6612 6.90228 67.4911 6.90228C67.166 6.90228 66.8653 6.85016 66.5901 6.73986C66.3173 6.62956 66.0804 6.46696 65.8795 6.25797C65.681 6.04318 65.5266 5.78202 65.4151 5.46853C65.3036 5.15505 65.2479 4.79492 65.2479 4.38855C65.2479 4.06345 65.2973 3.75601 65.3965 3.47155C65.4987 3.18709 65.6438 2.94326 65.8331 2.73427C66.0218 2.52528 66.2522 2.35687 66.5251 2.24076C66.7974 2.11885 67.1039 2.06076 67.4446 2.06076C67.7262 2.06076 67.9863 2.10721 68.2249 2.2059C68.4664 2.29878 68.6736 2.43242 68.8472 2.61238C69.0237 2.78654 69.1613 3.00693 69.2605 3.27398C69.3592 3.52941 69.4092 3.83144 69.4092 4.16235C69.4092 4.29587 69.3952 4.38278 69.3674 4.42341C69.3395 4.46405 69.2867 4.48748 69.2095 4.48748H66.0653C66.0746 4.78354 66.1146 5.04469 66.1861 5.26529C66.2604 5.48589 66.3625 5.66597 66.4926 5.81691C66.6226 5.96204 66.777 6.07224 66.957 6.14771C67.1364 6.21737 67.3378 6.2523 67.5607 6.2523C67.768 6.2523 67.9462 6.22902 68.0948 6.18257C68.2463 6.13613 68.3764 6.08387 68.4849 6.02582C68.5929 5.96777 68.6829 5.92118 68.7543 5.87473C68.8286 5.82249 68.8919 5.79933 68.9447 5.79933C69.0126 5.79933 69.0655 5.82249 69.1026 5.87473L69.3348 6.17662ZM73.1646 2.90831C73.1274 2.97798 73.07 3.01291 72.9928 3.01291C72.9463 3.01291 72.8935 2.9953 72.8349 2.96047C72.7757 2.92564 72.7031 2.89084 72.6166 2.8502C72.533 2.80376 72.432 2.7691 72.3147 2.73427C72.1969 2.69363 72.0575 2.67616 71.8967 2.67616C71.7574 2.67616 71.632 2.69363 71.5205 2.73427C71.4091 2.7691 71.3127 2.81554 71.2326 2.8794C71.1548 2.93745 71.0944 3.01271 71.0515 3.09398C71.0108 3.17525 70.9911 3.26231 70.9911 3.361C70.9911 3.48291 71.0248 3.58161 71.0933 3.66289C71.1641 3.74416 71.257 3.81403 71.3719 3.87208C71.4863 3.93013 71.6163 3.98239 71.762 4.02883C71.9072 4.06947 72.0558 4.12172 72.2079 4.17397C72.3623 4.22041 72.5127 4.27848 72.6584 4.34234C72.8035 4.4004 72.9335 4.48161 73.0485 4.5745C73.1629 4.66738 73.254 4.77759 73.3225 4.91692C73.3933 5.05044 73.4293 5.20723 73.4293 5.3988C73.4293 5.6136 73.3904 5.81681 73.3132 6.00258C73.2354 6.18254 73.1211 6.34499 72.9695 6.47851C72.8174 6.61203 72.6317 6.71669 72.4122 6.79797C72.1922 6.87344 71.9385 6.9139 71.6506 6.9139C71.322 6.9139 71.0247 6.86164 70.7589 6.75715C70.4924 6.64685 70.2666 6.50768 70.0808 6.33933L70.2759 6.02582C70.3003 5.98518 70.3299 5.95606 70.3641 5.93284C70.3978 5.90962 70.4413 5.89798 70.4941 5.89798C70.5499 5.89798 70.6085 5.92127 70.6706 5.96771C70.7322 6.00835 70.8065 6.05492 70.8936 6.10717C70.983 6.15942 71.0915 6.21167 71.2187 6.2523C71.3452 6.29875 71.5031 6.31608 71.6924 6.31608C71.8532 6.31608 71.9942 6.29861 72.115 6.25797C72.2357 6.21734 72.3362 6.1594 72.4169 6.08393C72.497 6.01427 72.5562 5.93275 72.5934 5.83987C72.6334 5.74698 72.6537 5.64843 72.6537 5.54394C72.6537 5.41041 72.6177 5.30603 72.5469 5.22476C72.4784 5.13768 72.3873 5.06199 72.2729 5.00394C72.158 4.94008 72.0268 4.88782 71.8781 4.84719C71.7324 4.80074 71.5821 4.7543 71.4277 4.70206C71.2756 4.64981 71.1258 4.59754 70.9772 4.53368C70.8315 4.46982 70.7014 4.38874 70.587 4.29586C70.4721 4.19717 70.3792 4.08086 70.3084 3.94153C70.2399 3.7964 70.2062 3.62825 70.2062 3.42506C70.2062 3.2451 70.2434 3.07086 70.3177 2.90831C70.392 2.73996 70.5 2.59483 70.6428 2.47292C70.785 2.3452 70.9598 2.2465 71.1676 2.17103C71.3748 2.09556 71.6117 2.06076 71.8781 2.06076C72.1876 2.06076 72.4645 2.10721 72.7095 2.2059C72.9568 2.30459 73.1704 2.43807 73.3504 2.60643L73.1646 2.90831ZM79.9678 3.97073C79.9678 3.77915 79.94 3.60505 79.8842 3.44831C79.832 3.28576 79.753 3.15226 79.6474 3.03615C79.5452 2.92005 79.4198 2.82704 79.2712 2.76318C79.1226 2.69932 78.9542 2.6702 78.7649 2.6702C78.369 2.6702 78.0544 2.78637 77.8222 3.01858C77.5935 3.24499 77.4506 3.56436 77.3949 3.97073H79.9678ZM80.6366 6.17662C80.5344 6.30434 80.4125 6.40887 80.2697 6.50175C80.1275 6.59464 79.9742 6.67018 79.8099 6.72824C79.6491 6.78629 79.4819 6.82677 79.3083 6.85579C79.1353 6.89063 78.9635 6.90228 78.7928 6.90228C78.4677 6.90228 78.1676 6.85016 77.8918 6.73986C77.6196 6.62956 77.3827 6.46696 77.1813 6.25797C76.9833 6.04318 76.8283 5.78202 76.7168 5.46853C76.6054 5.15505 76.5497 4.79492 76.5497 4.38855C76.5497 4.06345 76.5996 3.75601 76.6983 3.47155C76.8004 3.18709 76.9462 2.94326 77.1348 2.73427C77.3241 2.52528 77.5546 2.35687 77.8268 2.24076C78.0997 2.11885 78.4062 2.06076 78.7464 2.06076C79.0285 2.06076 79.2886 2.10721 79.5266 2.2059C79.7681 2.29878 79.9759 2.43242 80.1489 2.61238C80.3254 2.78654 80.4636 3.00693 80.5623 3.27398C80.6615 3.52941 80.7109 3.83144 80.7109 4.16235C80.7109 4.29587 80.697 4.38278 80.6691 4.42341C80.6412 4.46405 80.589 4.48748 80.5112 4.48748H77.3671C77.3763 4.78354 77.4169 5.04469 77.4878 5.26529C77.5621 5.48589 77.6643 5.66597 77.7943 5.81691C77.9243 5.96204 78.0793 6.07224 78.2587 6.14771C78.4387 6.21737 78.6396 6.2523 78.8625 6.2523C79.0703 6.2523 79.248 6.22902 79.3966 6.18257C79.5487 6.13613 79.6787 6.08387 79.7867 6.02582C79.8952 5.96777 79.9852 5.92118 80.056 5.87473C80.1303 5.82249 80.1942 5.79933 80.2465 5.79933C80.315 5.79933 80.3672 5.82249 80.4044 5.87473L80.6366 6.17662ZM84.4669 2.90831C84.4298 2.97798 84.3723 3.01291 84.2951 3.01291C84.2486 3.01291 84.1958 2.9953 84.1372 2.96047C84.078 2.92564 84.0054 2.89084 83.9189 2.8502C83.8353 2.80376 83.7343 2.7691 83.617 2.73427C83.4992 2.69363 83.3598 2.67616 83.199 2.67616C83.0597 2.67616 82.9343 2.69363 82.8228 2.73427C82.7114 2.7691 82.615 2.81554 82.5349 2.8794C82.4571 2.93745 82.3967 3.01271 82.3538 3.09398C82.3131 3.17525 82.2934 3.26231 82.2934 3.361C82.2934 3.48291 82.3271 3.58161 82.3956 3.66289C82.4664 3.74416 82.5593 3.81403 82.6742 3.87208C82.7886 3.93013 82.9186 3.98239 83.0643 4.02883C83.2095 4.06947 83.3581 4.12172 83.5102 4.17397C83.6646 4.22041 83.815 4.27848 83.9607 4.34234C84.1058 4.4004 84.2359 4.48161 84.3508 4.5745C84.4652 4.66738 84.5563 4.77759 84.6248 4.91692C84.6956 5.05044 84.7316 5.20723 84.7316 5.3988C84.7316 5.6136 84.6927 5.81681 84.6155 6.00258C84.5377 6.18254 84.4234 6.34499 84.2719 6.47851C84.1198 6.61203 83.934 6.71669 83.7145 6.79797C83.4945 6.87344 83.2408 6.9139 82.9529 6.9139C82.6243 6.9139 82.3271 6.86164 82.0612 6.75715C81.7947 6.64685 81.5689 6.50768 81.3831 6.33933L81.5782 6.02582C81.6026 5.98518 81.6322 5.95606 81.6664 5.93284C81.7001 5.90962 81.7436 5.89798 81.7965 5.89798C81.8522 5.89798 81.9108 5.92127 81.9729 5.96771C82.0345 6.00835 82.1088 6.05492 82.1959 6.10717C82.2853 6.15942 82.3938 6.21167 82.521 6.2523C82.6475 6.29875 82.8054 6.31608 82.9947 6.31608C83.1555 6.31608 83.2965 6.29861 83.4167 6.25797C83.5381 6.21734 83.6385 6.1594 83.7192 6.08393C83.7993 6.01427 83.8585 5.93275 83.8957 5.83987C83.9357 5.74698 83.956 5.64843 83.956 5.54394C83.956 5.41041 83.92 5.30603 83.8492 5.22476C83.7807 5.13768 83.6896 5.06199 83.5752 5.00394C83.4603 4.94008 83.3291 4.88782 83.1805 4.84719C83.0347 4.80074 82.8844 4.7543 82.73 4.70206C82.5779 4.64981 82.4281 4.59754 82.2795 4.53368C82.1338 4.46982 82.0037 4.38874 81.8894 4.29586C81.7744 4.19717 81.6815 4.08086 81.6107 3.94153C81.5422 3.7964 81.5085 3.62825 81.5085 3.42506C81.5085 3.2451 81.5457 3.07086 81.62 2.90831C81.6943 2.73996 81.8023 2.59483 81.9451 2.47292C82.0873 2.3452 82.2621 2.2465 82.4699 2.17103C82.6771 2.09556 82.914 2.06076 83.1805 2.06076C83.4899 2.06076 83.7668 2.10721 84.0118 2.2059C84.2591 2.30459 84.4727 2.43807 84.6527 2.60643L84.4669 2.90831ZM88.1213 6.8385V2.13616H88.6183C88.7361 2.13616 88.8087 2.18843 88.8365 2.30454L88.8969 2.78642C89.0705 2.57743 89.2655 2.39753 89.4821 2.264C89.6986 2.13048 89.9494 2.06076 90.2345 2.06076C90.5503 2.06076 90.8057 2.14796 91.0008 2.32211C91.1987 2.50208 91.3415 2.73995 91.428 3.04182C91.4959 2.86766 91.583 2.72267 91.6881 2.60076C91.7966 2.47304 91.9174 2.37419 92.0503 2.29292C92.1833 2.21164 92.3244 2.15356 92.473 2.11292C92.6245 2.07809 92.7778 2.06076 92.9328 2.06076C93.1806 2.06076 93.4001 2.10138 93.5922 2.18265C93.7873 2.25812 93.9516 2.37414 94.0845 2.52507C94.221 2.67601 94.3243 2.8619 94.3957 3.08831C94.4671 3.30311 94.5025 3.55843 94.5025 3.84288V6.8385H93.6712V3.84288C93.6712 3.47715 93.5905 3.19853 93.4297 3.00696C93.2689 2.81538 93.0367 2.71669 92.7331 2.71669C92.5966 2.71669 92.4666 2.74565 92.343 2.79209C92.2222 2.83854 92.1154 2.9084 92.0225 3.00129C91.9296 3.09417 91.8553 3.2102 91.7996 3.35533C91.7467 3.49466 91.7206 3.65712 91.7206 3.84288V6.8385H90.8893V3.84288C90.8893 3.46554 90.8132 3.1811 90.6617 2.99534C90.5102 2.80957 90.2884 2.71669 89.9976 2.71669C89.7932 2.71669 89.6046 2.77477 89.431 2.88507C89.2574 2.99537 89.0984 3.14051 88.9526 3.33209V6.8385H88.1213ZM98.9076 3.97073C98.9076 3.77915 98.8797 3.60505 98.824 3.44831C98.7717 3.28576 98.6928 3.15226 98.5871 3.03615C98.4849 2.92005 98.3595 2.82704 98.2109 2.76318C98.0623 2.69932 97.8939 2.6702 97.7047 2.6702C97.3088 2.6702 96.9941 2.78637 96.7619 3.01858C96.5332 3.24499 96.3904 3.56436 96.3346 3.97073H98.9076ZM99.5763 6.17662C99.4741 6.30434 99.3523 6.40887 99.2094 6.50175C99.0672 6.59464 98.9139 6.67018 98.7496 6.72824C98.5888 6.78629 98.4217 6.82677 98.2481 6.85579C98.0751 6.89063 97.9032 6.90228 97.7326 6.90228C97.4075 6.90228 97.1073 6.85016 96.8316 6.73986C96.5593 6.62956 96.3225 6.46696 96.121 6.25797C95.9231 6.04318 95.768 5.78202 95.6566 5.46853C95.5451 5.15505 95.4894 4.79492 95.4894 4.38855C95.4894 4.06345 95.5393 3.75601 95.638 3.47155C95.7402 3.18709 95.8859 2.94326 96.0746 2.73427C96.2638 2.52528 96.4943 2.35687 96.7666 2.24076C97.0394 2.11885 97.3459 2.06076 97.6861 2.06076C97.9683 2.06076 98.2283 2.10721 98.4663 2.2059C98.7079 2.29878 98.9157 2.43242 99.0887 2.61238C99.2652 2.78654 99.4033 3.00693 99.502 3.27398C99.6013 3.52941 99.6506 3.83144 99.6506 4.16235C99.6506 4.29587 99.6367 4.38278 99.6088 4.42341C99.581 4.46405 99.5287 4.48748 99.4509 4.48748H96.3068C96.3161 4.78354 96.3567 5.04469 96.4275 5.26529C96.5018 5.48589 96.604 5.66597 96.734 5.81691C96.8641 5.96204 97.0191 6.07224 97.1985 6.14771C97.3784 6.21737 97.5793 6.2523 97.8022 6.2523C98.0101 6.2523 98.1877 6.22902 98.3363 6.18257C98.4884 6.13613 98.6184 6.08387 98.7264 6.02582C98.835 5.96777 98.925 5.92118 98.9958 5.87473C99.0701 5.82249 99.134 5.79933 99.1862 5.79933C99.2547 5.79933 99.307 5.82249 99.3441 5.87473L99.5763 6.17662ZM100.667 6.8385V2.13616H101.163C101.281 2.13616 101.354 2.18843 101.382 2.30454L101.442 2.78642C101.615 2.57743 101.81 2.39753 102.027 2.264C102.244 2.13048 102.495 2.06076 102.78 2.06076C103.095 2.06076 103.351 2.14796 103.546 2.32211C103.744 2.50208 103.886 2.73995 103.973 3.04182C104.041 2.86766 104.128 2.72267 104.233 2.60076C104.341 2.47304 104.462 2.37419 104.596 2.29292C104.728 2.21164 104.87 2.15356 105.018 2.11292C105.17 2.07809 105.323 2.06076 105.478 2.06076C105.725 2.06076 105.945 2.10138 106.137 2.18265C106.333 2.25812 106.496 2.37414 106.63 2.52507C106.766 2.67601 106.87 2.8619 106.941 3.08831C107.012 3.30311 107.048 3.55843 107.048 3.84288V6.8385H106.216V3.84288C106.216 3.47715 106.136 3.19853 105.975 3.00696C105.814 2.81538 105.581 2.71669 105.278 2.71669C105.142 2.71669 105.012 2.74565 104.888 2.79209C104.767 2.83854 104.661 2.9084 104.568 3.00129C104.475 3.09417 104.401 3.2102 104.345 3.35533C104.292 3.49466 104.266 3.65712 104.266 3.84288V6.8385H103.435V3.84288C103.435 3.46554 103.358 3.1811 103.207 2.99534C103.055 2.80957 102.834 2.71669 102.543 2.71669C102.338 2.71669 102.149 2.77477 101.976 2.88507C101.803 2.99537 101.643 3.14051 101.498 3.33209V6.8385H100.667ZM109.135 5.70636C109.287 5.90954 109.452 6.05481 109.632 6.13609C109.815 6.22316 110.014 6.26364 110.231 6.26364C110.674 6.26364 111.013 6.10715 111.248 5.79366C111.484 5.48018 111.601 5.01567 111.601 4.3945C111.601 3.81978 111.496 3.39589 111.286 3.12885C111.078 2.856 110.781 2.71669 110.394 2.71669C110.125 2.71669 109.889 2.78073 109.688 2.90264C109.489 3.03036 109.305 3.20433 109.135 3.43073V5.70636ZM109.135 2.80967C109.333 2.58326 109.556 2.39753 109.804 2.264C110.055 2.13048 110.343 2.06076 110.668 2.06076C110.943 2.06076 111.191 2.11302 111.411 2.21752C111.634 2.32201 111.823 2.47878 111.978 2.67616C112.132 2.87354 112.25 3.11736 112.331 3.40182C112.414 3.68628 112.456 4.00566 112.456 4.36559C112.456 4.74293 112.409 5.09099 112.317 5.40447C112.224 5.71796 112.089 5.98522 111.913 6.20582C111.739 6.42642 111.527 6.60037 111.276 6.72228C111.025 6.84419 110.743 6.90228 110.431 6.90228C110.121 6.90228 109.86 6.84421 109.646 6.73391C109.435 6.61199 109.251 6.44953 109.093 6.23473L109.052 6.66446C109.027 6.78056 108.955 6.8385 108.838 6.8385H108.304V0H109.135V2.80967ZM114.286 3.07669C114.435 2.7574 114.618 2.50208 114.834 2.32211C115.051 2.14215 115.316 2.04914 115.629 2.04914C115.728 2.04914 115.822 2.06079 115.912 2.08401C116.005 2.10723 116.087 2.13621 116.158 2.18265L116.098 2.80372C116.079 2.87918 116.033 2.91993 115.958 2.91993C115.915 2.91993 115.851 2.90844 115.768 2.89102C115.684 2.87361 115.59 2.86182 115.485 2.86182C115.336 2.86182 115.203 2.88497 115.085 2.9256C114.971 2.97205 114.867 3.0361 114.774 3.12318C114.684 3.20445 114.602 3.31477 114.528 3.43668C114.456 3.5644 114.391 3.70358 114.333 3.86613V6.8385H113.501V2.13616H113.975C114.065 2.13616 114.127 2.15363 114.161 2.18265C114.195 2.21748 114.218 2.27557 114.231 2.36265L114.286 3.07669ZM119.843 3.97073C119.843 3.77915 119.815 3.60505 119.76 3.44831C119.707 3.28576 119.628 3.15226 119.523 3.03615C119.421 2.92005 119.295 2.82704 119.147 2.76318C118.998 2.69932 118.829 2.6702 118.64 2.6702C118.244 2.6702 117.93 2.78637 117.698 3.01858C117.468 3.24499 117.326 3.56436 117.27 3.97073H119.843ZM120.512 6.17662C120.41 6.30434 120.287 6.40887 120.145 6.50175C120.003 6.59464 119.85 6.67018 119.685 6.72824C119.524 6.78629 119.357 6.82677 119.184 6.85579C119.01 6.89063 118.838 6.90228 118.668 6.90228C118.343 6.90228 118.043 6.85016 117.767 6.73986C117.495 6.62956 117.258 6.46696 117.057 6.25797C116.859 6.04318 116.704 5.78202 116.592 5.46853C116.481 5.15505 116.425 4.79492 116.425 4.38855C116.425 4.06345 116.474 3.75601 116.574 3.47155C116.676 3.18709 116.821 2.94326 117.01 2.73427C117.199 2.52528 117.43 2.35687 117.702 2.24076C117.974 2.11885 118.281 2.06076 118.622 2.06076C118.903 2.06076 119.163 2.10721 119.402 2.2059C119.643 2.29878 119.851 2.43242 120.024 2.61238C120.201 2.78654 120.338 3.00693 120.438 3.27398C120.537 3.52941 120.586 3.83144 120.586 4.16235C120.586 4.29587 120.572 4.38278 120.544 4.42341C120.517 4.46405 120.464 4.48748 120.387 4.48748H117.242C117.252 4.78354 117.292 5.04469 117.363 5.26529C117.437 5.48589 117.54 5.66597 117.67 5.81691C117.8 5.96204 117.955 6.07224 118.134 6.14771C118.313 6.21737 118.515 6.2523 118.738 6.2523C118.945 6.2523 119.123 6.22902 119.272 6.18257C119.423 6.13613 119.553 6.08387 119.662 6.02582C119.771 5.96777 119.86 5.92118 119.931 5.87473C120.006 5.82249 120.069 5.79933 120.122 5.79933C120.19 5.79933 120.243 5.82249 120.28 5.87473L120.512 6.17662ZM124.342 2.90831C124.305 2.97798 124.247 3.01291 124.17 3.01291C124.123 3.01291 124.071 2.9953 124.012 2.96047C123.953 2.92564 123.88 2.89084 123.794 2.8502C123.71 2.80376 123.61 2.7691 123.492 2.73427C123.374 2.69363 123.235 2.67616 123.074 2.67616C122.934 2.67616 122.809 2.69363 122.698 2.73427C122.586 2.7691 122.49 2.81554 122.41 2.8794C122.332 2.93745 122.272 3.01271 122.229 3.09398C122.188 3.17525 122.168 3.26231 122.168 3.361C122.168 3.48291 122.202 3.58161 122.27 3.66289C122.342 3.74416 122.435 3.81403 122.549 3.87208C122.663 3.93013 122.793 3.98239 122.939 4.02883C123.085 4.06947 123.233 4.12172 123.385 4.17397C123.54 4.22041 123.69 4.27848 123.835 4.34234C123.981 4.4004 124.111 4.48161 124.226 4.5745C124.34 4.66738 124.432 4.77759 124.5 4.91692C124.571 5.05044 124.606 5.20723 124.606 5.3988C124.606 5.6136 124.567 5.81681 124.49 6.00258C124.413 6.18254 124.298 6.34499 124.147 6.47851C123.995 6.61203 123.809 6.71669 123.589 6.79797C123.369 6.87344 123.116 6.9139 122.828 6.9139C122.5 6.9139 122.202 6.86164 121.936 6.75715C121.669 6.64685 121.444 6.50768 121.258 6.33933L121.453 6.02582C121.478 5.98518 121.507 5.95606 121.541 5.93284C121.575 5.90962 121.618 5.89798 121.671 5.89798C121.727 5.89798 121.786 5.92127 121.848 5.96771C121.91 6.00835 121.984 6.05492 122.071 6.10717C122.161 6.15942 122.269 6.21167 122.396 6.2523C122.523 6.29875 122.681 6.31608 122.869 6.31608C123.03 6.31608 123.171 6.29861 123.292 6.25797C123.413 6.21734 123.513 6.1594 123.594 6.08393C123.675 6.01427 123.733 5.93275 123.77 5.83987C123.81 5.74698 123.831 5.64843 123.831 5.54394C123.831 5.41041 123.795 5.30603 123.724 5.22476C123.656 5.13768 123.564 5.06199 123.45 5.00394C123.336 4.94008 123.204 4.88782 123.055 4.84719C122.91 4.80074 122.76 4.7543 122.605 4.70206C122.453 4.64981 122.303 4.59754 122.154 4.53368C122.009 4.46982 121.878 4.38874 121.764 4.29586C121.65 4.19717 121.557 4.08086 121.485 3.94153C121.418 3.7964 121.383 3.62825 121.383 3.42506C121.383 3.2451 121.42 3.07086 121.495 2.90831C121.569 2.73996 121.678 2.59483 121.82 2.47292C121.962 2.3452 122.137 2.2465 122.345 2.17103C122.552 2.09556 122.789 2.06076 123.055 2.06076C123.365 2.06076 123.642 2.10721 123.887 2.2059C124.134 2.30459 124.348 2.43807 124.527 2.60643L124.342 2.90831ZM131.062 3.25073C130.907 3.04755 130.74 2.90256 130.56 2.82129C130.38 2.74002 130.179 2.69345 129.957 2.69345C129.52 2.69345 129.184 2.85023 128.949 3.16371C128.713 3.4772 128.596 3.92424 128.596 4.50477C128.596 4.80664 128.622 5.0736 128.675 5.29421C128.727 5.509 128.805 5.68892 128.907 5.82825C129.009 5.96757 129.134 6.07223 129.283 6.13609C129.432 6.19994 129.6 6.23473 129.789 6.23473C130.062 6.23473 130.298 6.17097 130.5 6.04906C130.704 5.92715 130.891 5.75305 131.062 5.52664V3.25073ZM131.889 0V6.8385H131.396C131.278 6.8385 131.204 6.78056 131.173 6.66446L131.099 6.09555C130.898 6.33937 130.668 6.53081 130.412 6.68175C130.155 6.82688 129.857 6.90228 129.52 6.90228C129.251 6.90228 129.006 6.85017 128.786 6.75148C128.566 6.64698 128.379 6.49022 128.224 6.29284C128.069 6.08965 127.95 5.83986 127.867 5.53798C127.783 5.23611 127.741 4.89372 127.741 4.50477C127.741 4.15645 127.788 3.8314 127.881 3.53533C127.973 3.23345 128.106 2.97811 128.28 2.75751C128.453 2.53691 128.665 2.36267 128.916 2.24076C129.17 2.11304 129.455 2.04914 129.771 2.04914C130.059 2.04914 130.305 2.10125 130.509 2.19994C130.716 2.29283 130.9 2.4324 131.062 2.60076V0H131.889ZM136.343 3.97073C136.343 3.77915 136.315 3.60505 136.259 3.44831C136.207 3.28576 136.128 3.15226 136.022 3.03615C135.92 2.92005 135.795 2.82704 135.646 2.76318C135.498 2.69932 135.329 2.6702 135.14 2.6702C134.744 2.6702 134.43 2.78637 134.197 3.01858C133.968 3.24499 133.826 3.56436 133.77 3.97073H136.343ZM137.012 6.17662C136.91 6.30434 136.787 6.40887 136.645 6.50175C136.502 6.59464 136.349 6.67018 136.185 6.72824C136.024 6.78629 135.856 6.82677 135.683 6.85579C135.51 6.89063 135.338 6.90228 135.168 6.90228C134.843 6.90228 134.542 6.85016 134.267 6.73986C133.994 6.62956 133.757 6.46696 133.556 6.25797C133.358 6.04318 133.203 5.78202 133.092 5.46853C132.981 5.15505 132.925 4.79492 132.925 4.38855C132.925 4.06345 132.974 3.75601 133.073 3.47155C133.176 3.18709 133.321 2.94326 133.51 2.73427C133.699 2.52528 133.929 2.35687 134.202 2.24076C134.474 2.11885 134.781 2.06076 135.121 2.06076C135.403 2.06076 135.663 2.10721 135.902 2.2059C136.143 2.29878 136.35 2.43242 136.524 2.61238C136.701 2.78654 136.838 3.00693 136.937 3.27398C137.036 3.52941 137.086 3.83144 137.086 4.16235C137.086 4.29587 137.072 4.38278 137.044 4.42341C137.016 4.46405 136.964 4.48748 136.886 4.48748H133.742C133.751 4.78354 133.792 5.04469 133.863 5.26529C133.937 5.48589 134.039 5.66597 134.169 5.81691C134.299 5.96204 134.454 6.07224 134.634 6.14771C134.813 6.21737 135.015 6.2523 135.238 6.2523C135.445 6.2523 135.623 6.22902 135.772 6.18257C135.923 6.13613 136.053 6.08387 136.162 6.02582C136.27 5.96777 136.36 5.92118 136.431 5.87473C136.505 5.82249 136.569 5.79933 136.622 5.79933C136.689 5.79933 136.742 5.82249 136.78 5.87473L137.012 6.17662ZM138.956 0V6.8385H138.129V0H138.956ZM3.08376 16.841C3.0466 16.9107 2.98914 16.9456 2.91193 16.9456C2.86548 16.9456 2.81265 16.928 2.75402 16.8932C2.69539 16.8583 2.62224 16.8235 2.53574 16.7829C2.45214 16.7364 2.35172 16.7018 2.23387 16.667C2.11602 16.6263 1.97669 16.6088 1.81589 16.6088C1.67656 16.6088 1.55116 16.6263 1.4397 16.667C1.32824 16.7018 1.23245 16.7482 1.15176 16.8121C1.07455 16.8701 1.01418 16.9454 0.970642 17.0267C0.930586 17.1079 0.910265 17.195 0.910265 17.2937C0.910265 17.4156 0.944513 17.5143 1.01243 17.5956C1.08384 17.6768 1.17673 17.7467 1.29109 17.8048C1.40546 17.8628 1.5355 17.9151 1.68121 17.9615C1.82692 18.0022 1.97554 18.0544 2.12706 18.1067C2.28206 18.1531 2.43184 18.2112 2.57755 18.275C2.72326 18.3331 2.8533 18.4143 2.96766 18.5072C3.08203 18.6001 3.17374 18.7103 3.24166 18.8496C3.31307 18.9831 3.34847 19.1399 3.34847 19.3315C3.34847 19.5463 3.30959 19.7495 3.23238 19.9353C3.15517 20.1152 3.04022 20.2777 2.8887 20.4112C2.73718 20.5447 2.55142 20.6494 2.3314 20.7307C2.11138 20.8061 1.85768 20.8466 1.56974 20.8466C1.24174 20.8466 0.94452 20.7943 0.678057 20.6898C0.411594 20.5795 0.185769 20.4404 0 20.272L0.195057 19.9585C0.220019 19.9179 0.249033 19.8888 0.283284 19.8655C0.317535 19.8423 0.360494 19.8307 0.413322 19.8307C0.469053 19.8307 0.527695 19.854 0.589812 19.9004C0.651928 19.941 0.726238 19.9876 0.812736 20.0399C0.902718 20.0921 1.0107 20.1444 1.13783 20.185C1.26497 20.2314 1.42288 20.2488 1.61155 20.2488C1.77235 20.2488 1.91342 20.2313 2.03417 20.1907C2.15492 20.15 2.25535 20.0921 2.33604 20.0166C2.41673 19.947 2.47538 19.8654 2.51253 19.7726C2.55259 19.6797 2.57289 19.5811 2.57289 19.4766C2.57289 19.3431 2.53748 19.2387 2.46608 19.1574C2.39816 19.0704 2.30644 18.9947 2.19208 18.9366C2.07771 18.8728 1.94592 18.8205 1.7973 18.7799C1.65159 18.7334 1.50181 18.687 1.34681 18.6347C1.19529 18.5825 1.04494 18.5302 0.896322 18.4664C0.750609 18.4025 0.620573 18.3214 0.506209 18.2285C0.391844 18.1299 0.298971 18.0135 0.227566 17.8742C0.159644 17.7291 0.125396 17.5609 0.125396 17.3577C0.125396 17.1778 0.162542 17.0035 0.23685 16.841C0.311157 16.6726 0.419715 16.5275 0.561944 16.4056C0.704174 16.2779 0.879488 16.1792 1.08674 16.1037C1.29399 16.0282 1.53084 15.9935 1.7973 15.9935C2.10673 15.9935 2.38422 16.0399 2.62862 16.1386C2.87651 16.2373 3.09015 16.3708 3.26953 16.5391L3.08376 16.841ZM6.91176 18.6523C6.53093 18.6639 6.20584 18.6986 5.93648 18.745C5.67001 18.7915 5.45174 18.8555 5.28164 18.931C5.11445 19.0122 4.99197 19.0992 4.91476 19.2036C4.84045 19.3139 4.80329 19.4303 4.80329 19.558C4.80329 19.6857 4.82361 19.7901 4.86366 19.8772C4.90372 19.97 4.95829 20.0456 5.02621 20.1036C5.09762 20.1559 5.17948 20.2023 5.27236 20.2255C5.36815 20.2546 5.47031 20.2661 5.57887 20.2661C5.72458 20.2661 5.85754 20.2487 5.97829 20.2255C6.09904 20.1907 6.21223 20.1501 6.31731 20.092C6.42586 20.0398 6.52805 19.9702 6.62383 19.8947C6.7231 19.8135 6.81887 19.7261 6.91176 19.6274V18.6523ZM4.24134 16.7307C4.50142 16.4811 4.78181 16.2952 5.08195 16.1675C5.38208 16.0456 5.7153 15.9818 6.08046 15.9818C6.34344 15.9818 6.57738 16.0283 6.78172 16.1153C6.98607 16.2024 7.1579 16.3186 7.29723 16.4753C7.43656 16.6321 7.54164 16.8177 7.61304 17.0383C7.68445 17.2589 7.71987 17.4969 7.71987 17.7639V20.7712H7.35297C7.27227 20.7712 7.21073 20.7595 7.16719 20.7363C7.12365 20.7073 7.08999 20.6552 7.06502 20.5739L6.97214 20.1326C6.84848 20.2429 6.72774 20.3474 6.60989 20.4344C6.49204 20.5215 6.3684 20.5971 6.23836 20.6609C6.10832 20.719 5.969 20.7654 5.82038 20.7944C5.67467 20.8293 5.5121 20.8466 5.33272 20.8466C5.14985 20.8466 4.97804 20.8234 4.81723 20.7712C4.65642 20.7189 4.51534 20.6435 4.39459 20.539C4.27674 20.4345 4.18271 20.3067 4.1113 20.1558C4.04338 19.9932 4.00912 19.8075 4.00912 19.5985C4.00912 19.4127 4.06021 19.2328 4.16238 19.0645C4.26455 18.8903 4.43001 18.7334 4.65932 18.5999C4.88863 18.4664 5.18701 18.3621 5.55564 18.275C5.92428 18.188 6.37593 18.1415 6.91176 18.1299V17.7639C6.91176 17.3982 6.83281 17.1197 6.67491 16.934C6.51701 16.7482 6.28654 16.6494 5.98293 16.6494C5.77858 16.6494 5.60674 16.6785 5.46742 16.7307C5.33099 16.783 5.21199 16.8351 5.10981 16.9048C5.01054 16.9628 4.92405 17.0209 4.84974 17.0732C4.77833 17.1254 4.7075 17.1486 4.6361 17.1486C4.58037 17.1486 4.53217 17.137 4.49212 17.108C4.45206 17.0732 4.41781 17.0384 4.38995 16.9978L4.24134 16.7307ZM8.97902 20.7712V16.0689H9.47597C9.59381 16.0689 9.66637 16.1211 9.69423 16.2372L9.75461 16.7191C9.92819 16.5101 10.1232 16.3302 10.3398 16.1967C10.5563 16.0632 10.8071 15.9935 11.0922 15.9935C11.408 15.9935 11.6634 16.0806 11.8585 16.2548C12.0564 16.4348 12.1992 16.6726 12.2857 16.9745C12.3536 16.8004 12.4407 16.6554 12.5458 16.5334C12.6544 16.4057 12.7751 16.3069 12.908 16.2256C13.041 16.1443 13.1821 16.0862 13.3307 16.0456C13.4822 16.0108 13.6354 15.9935 13.7904 15.9935C14.0383 15.9935 14.2578 16.0341 14.4499 16.1153C14.645 16.1908 14.8093 16.3068 14.9422 16.4578C15.0786 16.6087 15.182 16.7946 15.2534 17.021C15.3248 17.2358 15.3602 17.4911 15.3602 17.7756V20.7712H14.5289V17.7756C14.5289 17.4098 14.4482 17.1312 14.2874 16.9396C14.1266 16.7481 13.8944 16.6494 13.5907 16.6494C13.4543 16.6494 13.3243 16.6783 13.2006 16.7248C13.0799 16.7712 12.9731 16.8411 12.8802 16.934C12.7873 17.0269 12.713 17.1429 12.6573 17.288C12.6044 17.4273 12.5783 17.5898 12.5783 17.7756V20.7712H11.747V17.7756C11.747 17.3982 11.6709 17.1138 11.5194 16.928C11.3679 16.7423 11.1461 16.6494 10.8553 16.6494C10.6509 16.6494 10.4623 16.7075 10.2887 16.8178C10.1151 16.9281 9.95606 17.0732 9.81035 17.2648V20.7712H8.97902ZM19.2997 20.7712V16.7713L18.7795 16.7132C18.7145 16.6957 18.6605 16.6727 18.617 16.6437C18.5769 16.6089 18.5566 16.5624 18.5566 16.4986V16.1618H19.2997V15.7032C19.2997 15.4361 19.3368 15.1981 19.4111 14.9891C19.4883 14.7802 19.5969 14.6001 19.7362 14.4608C19.8784 14.3156 20.0491 14.2054 20.2471 14.13C20.445 14.0545 20.668 14.0197 20.9159 14.0197C21.1266 14.0197 21.3199 14.0485 21.4964 14.1124L21.4778 14.5248C21.4714 14.6003 21.4296 14.6409 21.3524 14.6467C21.2781 14.6525 21.1777 14.6524 21.0505 14.6524C20.9083 14.6524 20.7783 14.6757 20.6604 14.7105C20.5461 14.7453 20.4468 14.8092 20.3632 14.8905C20.2796 14.9776 20.2146 15.0878 20.1681 15.2213C20.1246 15.3548 20.1031 15.5291 20.1031 15.7264V16.1618H21.4592V16.7596H20.131V20.7712H19.2997ZM24.7723 18.6523C24.3915 18.6639 24.0664 18.6986 23.797 18.745C23.5306 18.7915 23.3123 18.8555 23.1422 18.931C22.975 19.0122 22.8525 19.0992 22.7753 19.2036C22.701 19.3139 22.6638 19.4303 22.6638 19.558C22.6638 19.6857 22.6836 19.7901 22.7242 19.8772C22.7643 19.97 22.8182 20.0456 22.8867 20.1036C22.9576 20.1559 23.04 20.2023 23.1329 20.2255C23.2287 20.2546 23.3308 20.2661 23.4394 20.2661C23.5845 20.2661 23.7181 20.2487 23.8388 20.2255C23.9596 20.1907 24.0722 20.1501 24.1778 20.092C24.2858 20.0398 24.388 19.9702 24.4844 19.8947C24.5831 19.8135 24.6794 19.7261 24.7723 19.6274V18.6523ZM22.1019 16.7307C22.362 16.4811 22.6418 16.2952 22.9425 16.1675C23.2426 16.0456 23.5753 15.9818 23.941 15.9818C24.204 15.9818 24.4379 16.0283 24.6423 16.1153C24.8466 16.2024 25.0185 16.3186 25.1578 16.4753C25.2971 16.6321 25.4022 16.8177 25.4736 17.0383C25.5444 17.2589 25.5804 17.4969 25.5804 17.7639V20.7712H25.2135C25.1328 20.7712 25.0707 20.7595 25.0277 20.7363C24.9842 20.7073 24.9499 20.6552 24.9256 20.5739L24.8327 20.1326C24.7085 20.2429 24.5877 20.3474 24.4704 20.4344C24.3526 20.5215 24.2289 20.5971 24.0989 20.6609C23.9689 20.719 23.8295 20.7654 23.6809 20.7944C23.5352 20.8293 23.3727 20.8466 23.1933 20.8466C23.0104 20.8466 22.8386 20.8234 22.6778 20.7712C22.5164 20.7189 22.3759 20.6435 22.2551 20.539C22.1373 20.4345 22.0427 20.3067 21.9718 20.1558C21.9033 19.9932 21.8697 19.8075 21.8697 19.5985C21.8697 19.4127 21.9207 19.2328 22.0229 19.0645C22.1251 18.8903 22.2906 18.7334 22.5199 18.5999C22.7486 18.4664 23.0476 18.3621 23.4162 18.275C23.7843 18.188 24.2365 18.1415 24.7723 18.1299V17.7639C24.7723 17.3982 24.6934 17.1197 24.5354 16.934C24.3775 16.7482 24.1465 16.6494 23.8435 16.6494C23.6391 16.6494 23.4673 16.6785 23.328 16.7307C23.1915 16.783 23.0725 16.8351 22.9704 16.9048C22.8711 16.9628 22.7846 17.0209 22.7103 17.0732C22.6389 17.1254 22.5675 17.1486 22.4966 17.1486C22.4409 17.1486 22.3927 17.137 22.3527 17.108C22.312 17.0732 22.2784 17.0384 22.2499 16.9978L22.1019 16.7307ZM26.8396 20.7712V16.0689H27.3365C27.4538 16.0689 27.5269 16.1211 27.5548 16.2372L27.6152 16.7191C27.7882 16.5101 27.9832 16.3302 28.2003 16.1967C28.4169 16.0632 28.6677 15.9935 28.9527 15.9935C29.2685 15.9935 29.5239 16.0806 29.719 16.2548C29.917 16.4348 30.0592 16.6726 30.1463 16.9745C30.2142 16.8004 30.3007 16.6554 30.4063 16.5334C30.5143 16.4057 30.6351 16.3069 30.7686 16.2256C30.9015 16.1443 31.0426 16.0862 31.1912 16.0456C31.3427 16.0108 31.496 15.9935 31.651 15.9935C31.8983 15.9935 32.1183 16.0341 32.3105 16.1153C32.5055 16.1908 32.6692 16.3068 32.8028 16.4578C32.9386 16.6087 33.0425 16.7946 33.1139 17.021C33.1847 17.2358 33.2207 17.4911 33.2207 17.7756V20.7712H32.3894V17.7756C32.3894 17.4098 32.3087 17.1312 32.1479 16.9396C31.9865 16.7481 31.7543 16.6494 31.4513 16.6494C31.3149 16.6494 31.1848 16.6783 31.0612 16.7248C30.9404 16.7712 30.8336 16.8411 30.7407 16.934C30.6478 17.0269 30.5735 17.1429 30.5178 17.288C30.465 17.4273 30.4388 17.5898 30.4388 17.7756V20.7712H29.6075V17.7756C29.6075 17.3982 29.5315 17.1138 29.38 16.928C29.2279 16.7423 29.0067 16.6494 28.7158 16.6494C28.5115 16.6494 28.3222 16.7075 28.1492 16.8178C27.9757 16.9281 27.816 17.0732 27.6709 17.2648V20.7712H26.8396ZM35.3501 16.0689V20.7712H34.5235V16.0689H35.3501ZM35.5266 14.5886C35.5266 14.6699 35.5098 14.7454 35.4755 14.8151C35.4447 14.8848 35.4012 14.9485 35.3455 15.0008C35.2926 15.053 35.2294 15.0993 35.1551 15.1283C35.0837 15.1574 35.0082 15.1748 34.9275 15.1748C34.8468 15.1748 34.7713 15.1574 34.6999 15.1283C34.632 15.0993 34.5716 15.053 34.5188 15.0008C34.466 14.9485 34.4242 14.8848 34.3934 14.8151C34.3626 14.7454 34.347 14.6699 34.347 14.5886C34.347 14.5073 34.3626 14.4318 34.3934 14.3621C34.4242 14.2867 34.466 14.2228 34.5188 14.1705C34.5716 14.1183 34.632 14.072 34.6999 14.043C34.7713 14.0081 34.8468 13.9965 34.9275 13.9965C35.0082 13.9965 35.0837 14.0081 35.1551 14.043C35.2294 14.072 35.2926 14.1183 35.3455 14.1705C35.4012 14.2228 35.4447 14.2867 35.4755 14.3621C35.5098 14.4318 35.5266 14.5073 35.5266 14.5886ZM37.5631 13.9327V20.7712H36.7364V13.9327H37.5631ZM39.7766 16.0689V20.7712H38.95V16.0689H39.7766ZM39.9531 14.5886C39.9531 14.6699 39.9363 14.7454 39.902 14.8151C39.8713 14.8848 39.8277 14.9485 39.772 15.0008C39.7192 15.053 39.6559 15.0993 39.5816 15.1283C39.5102 15.1574 39.4347 15.1748 39.354 15.1748C39.2733 15.1748 39.1979 15.1574 39.1265 15.1283C39.0585 15.0993 38.9982 15.053 38.9453 15.0008C38.8925 14.9485 38.8507 14.8848 38.8199 14.8151C38.7892 14.7454 38.7735 14.6699 38.7735 14.5886C38.7735 14.5073 38.7892 14.4318 38.8199 14.3621C38.8507 14.2867 38.8925 14.2228 38.9453 14.1705C38.9982 14.1183 39.0585 14.072 39.1265 14.043C39.1979 14.0081 39.2733 13.9965 39.354 13.9965C39.4347 13.9965 39.5102 14.0081 39.5816 14.043C39.6559 14.072 39.7192 14.1183 39.772 14.1705C39.8277 14.2228 39.8713 14.2867 39.902 14.3621C39.9363 14.4318 39.9531 14.5073 39.9531 14.5886ZM44.2839 17.9034C44.2839 17.7118 44.256 17.5377 44.2003 17.381C44.1475 17.2184 44.0685 17.0849 43.9634 16.9688C43.8612 16.8527 43.7359 16.7597 43.5872 16.6959C43.4386 16.632 43.2697 16.6029 43.081 16.6029C42.6845 16.6029 42.3705 16.7191 42.1382 16.9513C41.9089 17.1777 41.7667 17.497 41.711 17.9034H44.2839ZM44.9526 20.1093C44.8505 20.237 44.728 20.3416 44.5858 20.4344C44.4429 20.5273 44.2897 20.6029 44.126 20.6609C43.9646 20.719 43.7974 20.7595 43.6244 20.7885C43.4508 20.8233 43.279 20.835 43.1089 20.835C42.7838 20.835 42.4831 20.7828 42.2079 20.6725C41.9351 20.5622 41.6982 20.3997 41.4973 20.1907C41.2988 19.9759 41.1444 19.7147 41.0329 19.4012C40.9214 19.0877 40.8657 18.7276 40.8657 18.3212C40.8657 17.9961 40.9151 17.6887 41.0143 17.4042C41.1165 17.1198 41.2616 16.8759 41.4509 16.667C41.6396 16.458 41.87 16.2896 42.1429 16.1734C42.4152 16.0515 42.7217 15.9935 43.0624 15.9935C43.344 15.9935 43.6041 16.0399 43.8427 16.1386C44.0842 16.2315 44.2914 16.3651 44.465 16.5451C44.6415 16.7192 44.7791 16.9396 44.8783 17.2067C44.977 17.4621 45.0269 17.7641 45.0269 18.095C45.0269 18.2286 45.013 18.3155 44.9852 18.3561C44.9573 18.3967 44.9045 18.4202 44.8272 18.4202H41.6831C41.6924 18.7162 41.7324 18.9774 41.8039 19.198C41.8782 19.4186 41.9803 19.5987 42.1104 19.7496C42.2404 19.8947 42.3948 20.0049 42.5748 20.0804C42.7542 20.1501 42.9556 20.185 43.1785 20.185C43.3858 20.185 43.564 20.1617 43.7126 20.1153C43.8642 20.0688 43.9942 20.0166 44.1028 19.9585C44.2107 19.9005 44.3007 19.8539 44.3721 19.8074C44.4464 19.7552 44.5097 19.732 44.5625 19.732C44.6305 19.732 44.6833 19.7552 44.7204 19.8074L44.9526 20.1093ZM45.903 20.2604C45.903 20.1791 45.9169 20.1036 45.9448 20.0339C45.9755 19.9642 46.0156 19.9005 46.0655 19.8482C46.1178 19.796 46.1799 19.7552 46.2513 19.7204C46.3221 19.6914 46.3982 19.6739 46.4789 19.6739C46.559 19.6739 46.635 19.6914 46.7064 19.7204C46.7772 19.7552 46.8394 19.796 46.8922 19.8482C46.9444 19.9005 46.9862 19.9642 47.0176 20.0339C47.0484 20.1036 47.064 20.1791 47.064 20.2604C47.064 20.3417 47.0484 20.4229 47.0176 20.4925C46.9862 20.5622 46.9444 20.6203 46.8922 20.6725C46.8394 20.7248 46.7772 20.7654 46.7064 20.7944C46.635 20.8235 46.559 20.8409 46.4789 20.8409C46.3982 20.8409 46.3221 20.8235 46.2513 20.7944C46.1799 20.7654 46.1178 20.7248 46.0655 20.6725C46.0156 20.6203 45.9755 20.5622 45.9448 20.4925C45.9169 20.4229 45.903 20.3417 45.903 20.2604ZM54.5848 20.0166V20.7712H50.809V14.1184H51.7053V20.0166H54.5848ZM57.0323 15.9935C57.376 15.9935 57.686 16.0515 57.9611 16.1618C58.2369 16.2779 58.472 16.4404 58.667 16.6494C58.8621 16.8642 59.0107 17.1198 59.1129 17.4159C59.2186 17.7177 59.2708 18.0485 59.2708 18.4142C59.2708 18.7857 59.2186 19.1224 59.1129 19.4185C59.0107 19.7146 58.8621 19.97 58.667 20.179C58.472 20.3938 58.2369 20.5563 57.9611 20.6666C57.686 20.7827 57.376 20.835 57.0323 20.835C56.6857 20.835 56.3728 20.7827 56.0941 20.6666C55.819 20.5563 55.5833 20.3938 55.3882 20.179C55.1932 19.97 55.0434 19.7146 54.9377 19.4185C54.8356 19.1224 54.7845 18.7857 54.7845 18.4142C54.7845 18.0485 54.8356 17.7177 54.9377 17.4159C55.0434 17.1198 55.1932 16.8642 55.3882 16.6494C55.5833 16.4404 55.819 16.2779 56.0941 16.1618C56.3728 16.0515 56.6857 15.9935 57.0323 15.9935ZM57.0323 20.1907C57.4967 20.1907 57.8439 20.034 58.0726 19.7264C58.3019 19.4129 58.4163 18.9775 58.4163 18.4202C58.4163 17.8629 58.3019 17.4217 58.0726 17.114C57.8439 16.8005 57.4967 16.6437 57.0323 16.6437C56.7972 16.6437 56.5911 16.6843 56.4146 16.7656C56.2416 16.8411 56.0959 16.9572 55.978 17.114C55.8637 17.2649 55.7772 17.4507 55.718 17.6713C55.6622 17.8919 55.6344 18.1415 55.6344 18.4202C55.6344 18.9775 55.7493 19.4129 55.978 19.7264C56.2103 20.034 56.5621 20.1907 57.0323 20.1907ZM61.1047 17.0094C61.2533 16.6901 61.4356 16.4348 61.6527 16.2548C61.8692 16.0748 62.134 15.9818 62.4469 15.9818C62.5456 15.9818 62.6402 15.9935 62.7302 16.0167C62.823 16.0399 62.9049 16.0689 62.9763 16.1153L62.9159 16.7364C62.8974 16.8119 62.8509 16.8526 62.7766 16.8526C62.7331 16.8526 62.6698 16.8411 62.5862 16.8237C62.5026 16.8063 62.408 16.7945 62.3029 16.7945C62.1543 16.7945 62.0208 16.8177 61.9035 16.8583C61.7886 16.9047 61.6852 16.9688 61.5923 17.0559C61.5024 17.1371 61.4205 17.2475 61.3462 17.3694C61.2748 17.4971 61.2098 17.6363 61.1511 17.7988V20.7712H60.3198V16.0689H60.7935C60.8829 16.0689 60.945 16.0863 60.9793 16.1153C61.013 16.1502 61.0362 16.2083 61.049 16.2953L61.1047 17.0094ZM68.6202 16.841C68.5831 16.9107 68.5256 16.9456 68.4484 16.9456C68.4019 16.9456 68.3491 16.928 68.2905 16.8932C68.2313 16.8583 68.1587 16.8235 68.0722 16.7829C67.9886 16.7364 67.8876 16.7018 67.7703 16.667C67.6525 16.6263 67.5131 16.6088 67.3523 16.6088C67.213 16.6088 67.0876 16.6263 66.9762 16.667C66.8647 16.7018 66.7683 16.7482 66.6882 16.8121C66.6104 16.8701 66.5501 16.9454 66.5071 17.0267C66.4665 17.1079 66.4467 17.195 66.4467 17.2937C66.4467 17.4156 66.4804 17.5143 66.5489 17.5956C66.6197 17.6768 66.7126 17.7467 66.8275 17.8048C66.9419 17.8628 67.0719 17.9151 67.2177 17.9615C67.3628 18.0022 67.5114 18.0544 67.6635 18.1067C67.8179 18.1531 67.9683 18.2112 68.114 18.275C68.2591 18.3331 68.3892 18.4143 68.5041 18.5072C68.6185 18.6001 68.7096 18.7103 68.7781 18.8496C68.8489 18.9831 68.8849 19.1399 68.8849 19.3315C68.8849 19.5463 68.846 19.7495 68.7688 19.9353C68.691 20.1152 68.5767 20.2777 68.4252 20.4112C68.2731 20.5447 68.0873 20.6494 67.8678 20.7307C67.6478 20.8061 67.3941 20.8466 67.1062 20.8466C66.7776 20.8466 66.4804 20.7943 66.2145 20.6898C65.948 20.5795 65.7222 20.4404 65.5364 20.272L65.7315 19.9585C65.7559 19.9179 65.7855 19.8888 65.8197 19.8655C65.8534 19.8423 65.897 19.8307 65.9498 19.8307C66.0055 19.8307 66.0641 19.854 66.1263 19.9004C66.1878 19.941 66.2621 19.9876 66.3492 20.0399C66.4386 20.0921 66.5471 20.1444 66.6743 20.185C66.8008 20.2314 66.9587 20.2488 67.148 20.2488C67.3088 20.2488 67.4499 20.2313 67.5706 20.1907C67.6914 20.15 67.7918 20.0921 67.8725 20.0166C67.9526 19.947 68.0118 19.8654 68.049 19.7726C68.089 19.6797 68.1094 19.5811 68.1094 19.4766C68.1094 19.3431 68.0733 19.2387 68.0025 19.1574C67.934 19.0704 67.8429 18.9947 67.7285 18.9366C67.6136 18.8728 67.4824 18.8205 67.3338 18.7799C67.1881 18.7334 67.0377 18.687 66.8833 18.6347C66.7312 18.5825 66.5814 18.5302 66.4328 18.4664C66.2871 18.4025 66.157 18.3214 66.0427 18.2285C65.9277 18.1299 65.8348 18.0135 65.764 17.8742C65.6955 17.7291 65.6618 17.5609 65.6618 17.3577C65.6618 17.1778 65.699 17.0035 65.7733 16.841C65.8476 16.6726 65.9556 16.5275 66.0984 16.4056C66.2406 16.2779 66.4154 16.1792 66.6232 16.1037C66.8304 16.0282 67.0673 15.9935 67.3338 15.9935C67.6432 15.9935 67.9201 16.0399 68.1651 16.1386C68.4124 16.2373 68.626 16.3708 68.806 16.5391L68.6202 16.841ZM73.0473 17.9034C73.0473 17.7118 73.0195 17.5377 72.9637 17.381C72.9109 17.2184 72.8319 17.0849 72.7269 16.9688C72.6247 16.8527 72.4993 16.7597 72.3507 16.6959C72.2021 16.632 72.0332 16.6029 71.8445 16.6029C71.448 16.6029 71.1339 16.7191 70.9017 16.9513C70.6724 17.1777 70.5301 17.497 70.4744 17.9034H73.0473ZM73.7161 20.1093C73.6139 20.237 73.4914 20.3416 73.3492 20.4344C73.2064 20.5273 73.0531 20.6029 72.8894 20.6609C72.728 20.719 72.5608 20.7595 72.3878 20.7885C72.2143 20.8233 72.0424 20.835 71.8723 20.835C71.5472 20.835 71.2465 20.7828 70.9714 20.6725C70.6985 20.5622 70.4617 20.3997 70.2608 20.1907C70.0622 19.9759 69.9078 19.7147 69.7964 19.4012C69.6849 19.0877 69.6292 18.7276 69.6292 18.3212C69.6292 17.9961 69.6785 17.6887 69.7778 17.4042C69.8799 17.1198 70.0251 16.8759 70.2143 16.667C70.403 16.458 70.6335 16.2896 70.9063 16.1734C71.1786 16.0515 71.4851 15.9935 71.8259 15.9935C72.1074 15.9935 72.3675 16.0399 72.6061 16.1386C72.8476 16.2315 73.0549 16.3651 73.2285 16.5451C73.4049 16.7192 73.5425 16.9396 73.6418 17.2067C73.7405 17.4621 73.7904 17.7641 73.7904 18.095C73.7904 18.2286 73.7765 18.3155 73.7486 18.3561C73.7207 18.3967 73.6679 18.4202 73.5907 18.4202H70.4466C70.4558 18.7162 70.4959 18.9774 70.5673 19.198C70.6416 19.4186 70.7438 19.5987 70.8738 19.7496C71.0038 19.8947 71.1583 20.0049 71.3383 20.0804C71.5176 20.1501 71.7191 20.185 71.942 20.185C72.1492 20.185 72.3275 20.1617 72.4761 20.1153C72.6276 20.0688 72.7576 20.0166 72.8662 19.9585C72.9742 19.9005 73.0642 19.8539 73.1356 19.8074C73.2099 19.7552 73.2731 19.732 73.326 19.732C73.3939 19.732 73.4467 19.7552 73.4839 19.8074L73.7161 20.1093ZM75.6371 19.639C75.7886 19.8422 75.954 19.9875 76.134 20.0688C76.3134 20.1559 76.5148 20.1963 76.7377 20.1963C77.1772 20.1963 77.5145 20.0398 77.7502 19.7264C77.9853 19.4129 78.1031 18.9657 78.1031 18.391C78.1031 18.0833 78.0753 17.8163 78.0195 17.6015C77.9667 17.3809 77.8895 17.2009 77.7874 17.0615C77.6852 16.9164 77.5598 16.8119 77.4112 16.748C77.2626 16.6842 77.0936 16.6494 76.9049 16.6494C76.6356 16.6494 76.3987 16.7134 76.1944 16.8353C75.9929 16.963 75.8072 17.137 75.6371 17.3634V19.639ZM75.5953 16.7945C75.7932 16.5507 76.0225 16.3534 76.2826 16.2083C76.5427 16.0574 76.8399 15.9818 77.1743 15.9818C77.4466 15.9818 77.6927 16.0341 77.9127 16.1386C78.1322 16.2431 78.3197 16.3939 78.4747 16.6029C78.6291 16.8003 78.7487 17.0499 78.8323 17.3518C78.9159 17.6537 78.9577 17.9962 78.9577 18.391C78.9577 18.7335 78.9113 19.0585 78.8184 19.3604C78.7255 19.6565 78.5908 19.9178 78.4143 20.1326C78.2407 20.3532 78.0271 20.5216 77.7734 20.6493C77.5226 20.777 77.2393 20.835 76.9235 20.835C76.6356 20.835 76.3877 20.7885 76.1804 20.6898C75.9761 20.5911 75.795 20.4578 75.6371 20.2836V22.362H74.8057V16.0689H75.3027C75.4199 16.0689 75.4931 16.1211 75.5209 16.2372L75.5953 16.7945ZM82.5616 18.6523C82.1808 18.6639 81.8557 18.6986 81.5863 18.745C81.3204 18.7915 81.1022 18.8555 80.9315 18.931C80.7643 19.0122 80.6424 19.0992 80.5646 19.2036C80.4903 19.3139 80.4531 19.4303 80.4531 19.558C80.4531 19.6857 80.4735 19.7901 80.5135 19.8772C80.5541 19.97 80.6081 20.0456 80.676 20.1036C80.7474 20.1559 80.8293 20.2023 80.9222 20.2255C81.0186 20.2546 81.1207 20.2661 81.2287 20.2661C81.3744 20.2661 81.5074 20.2487 81.6281 20.2255C81.7489 20.1907 81.8621 20.1501 81.9671 20.092C82.0757 20.0398 82.1779 19.9702 82.2737 19.8947C82.3729 19.8135 82.4687 19.7261 82.5616 19.6274V18.6523ZM79.8912 16.7307C80.1512 16.4811 80.4316 16.2952 80.7318 16.1675C81.0325 16.0456 81.3652 15.9818 81.7303 15.9818C81.9939 15.9818 82.2272 16.0283 82.4316 16.1153C82.6359 16.2024 82.8078 16.3186 82.9471 16.4753C83.0864 16.6321 83.192 16.8177 83.2629 17.0383C83.3343 17.2589 83.3697 17.4969 83.3697 17.7639V20.7712H83.0028C82.9227 20.7712 82.8606 20.7595 82.817 20.7363C82.7741 20.7073 82.7398 20.6552 82.7149 20.5739L82.622 20.1326C82.4983 20.2429 82.3776 20.3474 82.2597 20.4344C82.1425 20.5215 82.0182 20.5971 81.8882 20.6609C81.7581 20.719 81.6188 20.7654 81.4702 20.7944C81.3251 20.8293 81.1625 20.8466 80.9826 20.8466C80.8003 20.8466 80.6284 20.8234 80.4671 20.7712C80.3063 20.7189 80.1652 20.6435 80.0445 20.539C79.9272 20.4345 79.8325 20.3067 79.7611 20.1558C79.6932 19.9932 79.659 19.8075 79.659 19.5985C79.659 19.4127 79.7101 19.2328 79.8122 19.0645C79.9144 18.8903 80.0804 18.7334 80.3092 18.5999C80.5385 18.4664 80.8375 18.3621 81.2055 18.275C81.5741 18.188 82.0264 18.1415 82.5616 18.1299V17.7639C82.5616 17.3982 82.4827 17.1197 82.3248 16.934C82.1669 16.7482 81.9364 16.6494 81.6328 16.6494C81.4284 16.6494 81.2566 16.6785 81.1172 16.7307C80.9814 16.783 80.8618 16.8351 80.7597 16.9048C80.661 16.9628 80.5739 17.0209 80.4996 17.0732C80.4288 17.1254 80.3573 17.1486 80.2859 17.1486C80.2302 17.1486 80.1826 17.137 80.142 17.108C80.1019 17.0732 80.0676 17.0384 80.0398 16.9978L79.8912 16.7307ZM85.4143 17.0094C85.563 16.6901 85.7452 16.4348 85.9623 16.2548C86.1789 16.0748 86.4436 15.9818 86.7565 15.9818C86.8552 15.9818 86.9498 15.9935 87.0398 16.0167C87.1327 16.0399 87.2146 16.0689 87.286 16.1153L87.2256 16.7364C87.207 16.8119 87.1605 16.8526 87.0862 16.8526C87.0427 16.8526 86.9794 16.8411 86.8958 16.8237C86.8122 16.8063 86.7176 16.7945 86.6125 16.7945C86.4639 16.7945 86.3304 16.8177 86.2131 16.8583C86.0982 16.9047 85.9948 16.9688 85.902 17.0559C85.812 17.1371 85.7301 17.2475 85.6558 17.3694C85.5844 17.4971 85.5194 17.6363 85.4608 17.7988V20.7712H84.6294V16.0689H85.1032C85.1926 16.0689 85.2547 16.0863 85.2889 16.1153C85.3226 16.1502 85.3458 16.2083 85.3586 16.2953L85.4143 17.0094ZM90.4899 18.6523C90.1091 18.6639 89.784 18.6986 89.5146 18.745C89.2481 18.7915 89.0299 18.8555 88.8598 18.931C88.6926 19.0122 88.5701 19.0992 88.4929 19.2036C88.4186 19.3139 88.3814 19.4303 88.3814 19.558C88.3814 19.6857 88.4011 19.7901 88.4418 19.8772C88.4818 19.97 88.5358 20.0456 88.6043 20.1036C88.6752 20.1559 88.7576 20.2023 88.8505 20.2255C88.9462 20.2546 89.0484 20.2661 89.157 20.2661C89.3021 20.2661 89.4356 20.2487 89.5564 20.2255C89.6771 20.1907 89.7898 20.1501 89.8954 20.092C90.0034 20.0398 90.1056 19.9702 90.2019 19.8947C90.3006 19.8135 90.397 19.7261 90.4899 19.6274V18.6523ZM87.8194 16.7307C88.0795 16.4811 88.3593 16.2952 88.66 16.1675C88.9602 16.0456 89.2928 15.9818 89.6586 15.9818C89.9216 15.9818 90.1555 16.0283 90.3599 16.1153C90.5642 16.2024 90.736 16.3186 90.8754 16.4753C91.0147 16.6321 91.1198 16.8177 91.1912 17.0383C91.262 17.2589 91.298 17.4969 91.298 17.7639V20.7712H90.9311C90.8504 20.7712 90.7883 20.7595 90.7453 20.7363C90.7018 20.7073 90.6675 20.6552 90.6431 20.5739L90.5503 20.1326C90.426 20.2429 90.3053 20.3474 90.188 20.4344C90.0702 20.5215 89.9465 20.5971 89.8165 20.6609C89.6864 20.719 89.5471 20.7654 89.3985 20.7944C89.2528 20.8293 89.0902 20.8466 88.9108 20.8466C88.728 20.8466 88.5561 20.8234 88.3953 20.7712C88.2339 20.7189 88.0935 20.6435 87.9727 20.539C87.8549 20.4345 87.7602 20.3067 87.6894 20.1558C87.6209 19.9932 87.5872 19.8075 87.5872 19.5985C87.5872 19.4127 87.6383 19.2328 87.7405 19.0645C87.8427 18.8903 88.0081 18.7334 88.2374 18.5999C88.4662 18.4664 88.7651 18.3621 89.1338 18.275C89.5018 18.188 89.9541 18.1415 90.4899 18.1299V17.7639C90.4899 17.3982 90.4109 17.1197 90.253 16.934C90.0951 16.7482 89.8641 16.6494 89.561 16.6494C89.3567 16.6494 89.1848 16.6785 89.0455 16.7307C88.9091 16.783 88.7901 16.8351 88.6879 16.9048C88.5887 16.9628 88.5022 17.0209 88.4279 17.0732C88.3564 17.1254 88.2851 17.1486 88.2142 17.1486C88.1585 17.1486 88.1103 17.137 88.0702 17.108C88.0296 17.0732 87.9959 17.0384 87.9681 16.9978L87.8194 16.7307ZM93.9376 20.8466C93.5661 20.8466 93.2799 20.7421 93.0785 20.5331C92.8805 20.3241 92.7812 20.028 92.7812 19.639V16.7596H92.2146C92.1653 16.7596 92.1235 16.7423 92.0892 16.7191C92.0556 16.6843 92.0382 16.6377 92.0382 16.5796V16.2488L92.8091 16.1502L92.9995 14.6989C93.0088 14.6524 93.0291 14.6117 93.0599 14.5827C93.0941 14.5536 93.1377 14.5362 93.1899 14.5362H93.6079V16.1618H94.9687V16.7596H93.6079V19.5812C93.6079 19.7786 93.6561 19.9294 93.7519 20.0223C93.8483 20.121 93.9719 20.1674 94.1234 20.1674C94.2105 20.1674 94.2848 20.1558 94.3463 20.1326C94.4114 20.1093 94.4671 20.0862 94.5135 20.0572C94.56 20.0281 94.5989 20.005 94.6296 19.9818C94.6639 19.9585 94.6935 19.9469 94.7179 19.9469C94.7614 19.9469 94.8003 19.97 94.834 20.0223L95.0755 20.4171C94.9332 20.5507 94.7614 20.6551 94.56 20.7363C94.3591 20.806 94.1513 20.8466 93.9376 20.8466ZM101.348 17.9034C101.348 17.7118 101.32 17.5377 101.265 17.381C101.212 17.2184 101.133 17.0849 101.028 16.9688C100.925 16.8527 100.8 16.7597 100.651 16.6959C100.503 16.632 100.334 16.6029 100.145 16.6029C99.7488 16.6029 99.4347 16.7191 99.2025 16.9513C98.9732 17.1777 98.8309 17.497 98.7752 17.9034H101.348ZM102.017 20.1093C101.915 20.237 101.792 20.3416 101.65 20.4344C101.507 20.5273 101.354 20.6029 101.19 20.6609C101.029 20.719 100.862 20.7595 100.689 20.7885C100.515 20.8233 100.343 20.835 100.173 20.835C99.848 20.835 99.5473 20.7828 99.2721 20.6725C98.9993 20.5622 98.7624 20.3997 98.5616 20.1907C98.363 19.9759 98.2086 19.7147 98.0971 19.4012C97.9857 19.0877 97.9299 18.7276 97.9299 18.3212C97.9299 17.9961 97.9793 17.6887 98.0785 17.4042C98.1807 17.1198 98.3259 16.8759 98.5151 16.667C98.7038 16.458 98.9343 16.2896 99.2071 16.1734C99.4794 16.0515 99.7859 15.9935 100.127 15.9935C100.408 15.9935 100.668 16.0399 100.907 16.1386C101.148 16.2315 101.356 16.3651 101.529 16.5451C101.706 16.7192 101.843 16.9396 101.943 17.2067C102.041 17.4621 102.091 17.7641 102.091 18.095C102.091 18.2286 102.077 18.3155 102.049 18.3561C102.022 18.3967 101.969 18.4202 101.891 18.4202H98.7473C98.7566 18.7162 98.7967 18.9774 98.8681 19.198C98.9424 19.4186 99.0445 19.5987 99.1746 19.7496C99.3046 19.8947 99.4591 20.0049 99.639 20.0804C99.8184 20.1501 100.02 20.185 100.243 20.185C100.45 20.185 100.628 20.1617 100.777 20.1153C100.928 20.0688 101.058 20.0166 101.167 19.9585C101.275 19.9005 101.365 19.8539 101.436 19.8074C101.511 19.7552 101.574 19.732 101.627 19.732C101.695 19.732 101.748 19.7552 101.785 19.8074L102.017 20.1093ZM106.907 20.7712H106.113C106.045 20.7712 105.991 20.7539 105.95 20.719C105.913 20.6842 105.882 20.6436 105.857 20.5971L104.673 18.7566C104.661 18.7973 104.647 18.8438 104.631 18.8845C104.619 18.9251 104.6 18.9657 104.575 18.9947L103.479 20.5971C103.448 20.6436 103.414 20.6842 103.377 20.719C103.343 20.7539 103.295 20.7712 103.233 20.7712H102.495L104.143 18.3561L102.56 16.0689H103.354C103.422 16.0689 103.472 16.0748 103.502 16.098C103.534 16.1213 103.562 16.1501 103.586 16.1907L104.742 17.9556C104.767 17.8685 104.806 17.7816 104.859 17.6945L105.871 16.2083C105.899 16.1677 105.928 16.1329 105.959 16.1097C105.993 16.0806 106.034 16.0689 106.08 16.0689H106.842L105.258 18.3156L106.907 20.7712ZM108.542 16.0689V20.7712H107.715V16.0689H108.542ZM108.718 14.5886C108.718 14.6699 108.702 14.7454 108.667 14.8151C108.637 14.8848 108.593 14.9485 108.537 15.0008C108.485 15.053 108.421 15.0993 108.347 15.1283C108.276 15.1574 108.2 15.1748 108.119 15.1748C108.039 15.1748 107.963 15.1574 107.892 15.1283C107.824 15.0993 107.764 15.053 107.711 15.0008C107.658 14.9485 107.616 14.8848 107.585 14.8151C107.555 14.7454 107.539 14.6699 107.539 14.5886C107.539 14.5073 107.555 14.4318 107.585 14.3621C107.616 14.2867 107.658 14.2228 107.711 14.1705C107.764 14.1183 107.824 14.072 107.892 14.043C107.963 14.0081 108.039 13.9965 108.119 13.9965C108.2 13.9965 108.276 14.0081 108.347 14.043C108.421 14.072 108.485 14.1183 108.537 14.1705C108.593 14.2228 108.637 14.2867 108.667 14.3621C108.702 14.4318 108.718 14.5073 108.718 14.5886ZM112.641 16.841C112.603 16.9107 112.546 16.9456 112.469 16.9456C112.422 16.9456 112.369 16.928 112.311 16.8932C112.252 16.8583 112.179 16.8235 112.093 16.7829C112.009 16.7364 111.908 16.7018 111.791 16.667C111.673 16.6263 111.533 16.6088 111.373 16.6088C111.233 16.6088 111.108 16.6263 110.996 16.667C110.885 16.7018 110.789 16.7482 110.709 16.8121C110.631 16.8701 110.57 16.9454 110.527 17.0267C110.487 17.1079 110.467 17.195 110.467 17.2937C110.467 17.4156 110.501 17.5143 110.569 17.5956C110.64 17.6768 110.733 17.7467 110.848 17.8048C110.962 17.8628 111.092 17.9151 111.238 17.9615C111.383 18.0022 111.532 18.0544 111.684 18.1067C111.838 18.1531 111.989 18.2112 112.134 18.275C112.279 18.3331 112.409 18.4143 112.524 18.5072C112.639 18.6001 112.73 18.7103 112.798 18.8496C112.869 18.9831 112.905 19.1399 112.905 19.3315C112.905 19.5463 112.866 19.7495 112.789 19.9353C112.711 20.1152 112.597 20.2777 112.445 20.4112C112.293 20.5447 112.108 20.6494 111.888 20.7307C111.668 20.8061 111.414 20.8466 111.127 20.8466C110.798 20.8466 110.501 20.7943 110.235 20.6898C109.968 20.5795 109.743 20.4404 109.557 20.272L109.752 19.9585C109.776 19.9179 109.806 19.8888 109.84 19.8655C109.874 19.8423 109.917 19.8307 109.97 19.8307C110.026 19.8307 110.084 19.854 110.147 19.9004C110.208 19.941 110.282 19.9876 110.37 20.0399C110.459 20.0921 110.567 20.1444 110.695 20.185C110.821 20.2314 110.979 20.2488 111.168 20.2488C111.329 20.2488 111.47 20.2313 111.591 20.1907C111.712 20.15 111.812 20.0921 111.893 20.0166C111.973 19.947 112.032 19.8654 112.069 19.7726C112.109 19.6797 112.13 19.5811 112.13 19.4766C112.13 19.3431 112.094 19.2387 112.023 19.1574C111.954 19.0704 111.863 18.9947 111.749 18.9366C111.634 18.8728 111.503 18.8205 111.354 18.7799C111.208 18.7334 111.058 18.687 110.904 18.6347C110.751 18.5825 110.602 18.5302 110.453 18.4664C110.307 18.4025 110.177 18.3214 110.063 18.2285C109.948 18.1299 109.855 18.0135 109.784 17.8742C109.716 17.7291 109.682 17.5609 109.682 17.3577C109.682 17.1778 109.719 17.0035 109.794 16.841C109.868 16.6726 109.976 16.5275 110.119 16.4056C110.261 16.2779 110.436 16.1792 110.644 16.1037C110.851 16.0282 111.088 15.9935 111.354 15.9935C111.664 15.9935 111.94 16.0399 112.185 16.1386C112.433 16.2373 112.646 16.3708 112.826 16.5391L112.641 16.841ZM115.363 20.8466C114.992 20.8466 114.705 20.7421 114.504 20.5331C114.305 20.3241 114.207 20.028 114.207 19.639V16.7596H113.64C113.59 16.7596 113.548 16.7423 113.515 16.7191C113.481 16.6843 113.464 16.6377 113.464 16.5796V16.2488L114.235 16.1502L114.425 14.6989C114.434 14.6524 114.454 14.6117 114.485 14.5827C114.519 14.5536 114.563 14.5362 114.615 14.5362H115.033V16.1618H116.394V16.7596H115.033V19.5812C115.033 19.7786 115.081 19.9294 115.177 20.0223C115.273 20.121 115.397 20.1674 115.549 20.1674C115.635 20.1674 115.71 20.1558 115.772 20.1326C115.837 20.1093 115.893 20.0862 115.939 20.0572C115.986 20.0281 116.024 20.005 116.055 19.9818C116.089 19.9585 116.118 19.9469 116.143 19.9469C116.186 19.9469 116.225 19.97 116.26 20.0223L116.501 20.4171C116.358 20.5507 116.186 20.6551 115.986 20.7363C115.784 20.806 115.577 20.8466 115.363 20.8466ZM120.369 17.9034C120.369 17.7118 120.341 17.5377 120.286 17.381C120.233 17.2184 120.154 17.0849 120.049 16.9688C119.946 16.8527 119.821 16.7597 119.672 16.6959C119.524 16.632 119.355 16.6029 119.166 16.6029C118.77 16.6029 118.456 16.7191 118.223 16.9513C117.994 17.1777 117.852 17.497 117.796 17.9034H120.369ZM121.038 20.1093C120.936 20.237 120.813 20.3416 120.671 20.4344C120.529 20.5273 120.375 20.6029 120.211 20.6609C120.05 20.719 119.883 20.7595 119.71 20.7885C119.536 20.8233 119.364 20.835 119.194 20.835C118.869 20.835 118.569 20.7828 118.293 20.6725C118.021 20.5622 117.784 20.3997 117.583 20.1907C117.385 19.9759 117.23 19.7147 117.118 19.4012C117.007 19.0877 116.951 18.7276 116.951 18.3212C116.951 17.9961 117 17.6887 117.1 17.4042C117.202 17.1198 117.347 16.8759 117.536 16.667C117.725 16.458 117.956 16.2896 118.228 16.1734C118.5 16.0515 118.807 15.9935 119.148 15.9935C119.429 15.9935 119.689 16.0399 119.928 16.1386C120.169 16.2315 120.377 16.3651 120.55 16.5451C120.727 16.7192 120.864 16.9396 120.964 17.2067C121.063 17.4621 121.112 17.7641 121.112 18.095C121.112 18.2286 121.098 18.3155 121.07 18.3561C121.043 18.3967 120.99 18.4202 120.912 18.4202H117.768C117.778 18.7162 117.818 18.9774 117.889 19.198C117.963 19.4186 118.066 19.5987 118.196 19.7496C118.326 19.8947 118.481 20.0049 118.66 20.0804C118.839 20.1501 119.041 20.185 119.264 20.185C119.471 20.185 119.649 20.1617 119.798 20.1153C119.949 20.0688 120.079 20.0166 120.188 19.9585C120.297 19.9005 120.386 19.8539 120.457 19.8074C120.532 19.7552 120.595 19.732 120.648 19.732C120.716 19.732 120.769 19.7552 120.806 19.8074L121.038 20.1093ZM122.908 16.748C123.01 16.6319 123.118 16.5334 123.233 16.4405C123.348 16.3476 123.469 16.2662 123.595 16.2024C123.725 16.1327 123.862 16.0804 124.004 16.0456C124.15 16.0108 124.306 15.9935 124.473 15.9935C124.73 15.9935 124.956 16.0342 125.151 16.1213C125.349 16.2084 125.513 16.3244 125.643 16.487C125.777 16.6379 125.877 16.8294 125.945 17.0442C126.014 17.2648 126.047 17.5085 126.047 17.7756V20.7712H125.216V17.7756C125.216 17.4214 125.134 17.1428 124.97 16.9513C124.809 16.7481 124.563 16.6494 124.231 16.6494C123.987 16.6494 123.758 16.7133 123.544 16.8294C123.334 16.9455 123.139 17.1079 122.959 17.3053V20.7712H122.128V16.0689H122.624C122.742 16.0689 122.815 16.1211 122.843 16.2372L122.908 16.748ZM128.688 20.8466C128.317 20.8466 128.03 20.7421 127.829 20.5331C127.63 20.3241 127.532 20.028 127.532 19.639V16.7596H126.965C126.915 16.7596 126.873 16.7423 126.84 16.7191C126.805 16.6843 126.789 16.6377 126.789 16.5796V16.2488L127.56 16.1502L127.75 14.6989C127.759 14.6524 127.779 14.6117 127.81 14.5827C127.844 14.5536 127.888 14.5362 127.94 14.5362H128.358V16.1618H129.719V16.7596H128.358V19.5812C128.358 19.7786 128.406 19.9294 128.502 20.0223C128.598 20.121 128.722 20.1674 128.874 20.1674C128.96 20.1674 129.035 20.1558 129.097 20.1326C129.162 20.1093 129.218 20.0862 129.264 20.0572C129.31 20.0281 129.349 20.005 129.38 19.9818C129.414 19.9585 129.443 19.9469 129.468 19.9469C129.511 19.9469 129.55 19.97 129.584 20.0223L129.826 20.4171C129.683 20.5507 129.511 20.6551 129.31 20.7363C129.109 20.806 128.902 20.8466 128.688 20.8466ZM131.446 16.0689V20.7712H130.619V16.0689H131.446ZM131.622 14.5886C131.622 14.6699 131.605 14.7454 131.571 14.8151C131.54 14.8848 131.497 14.9485 131.441 15.0008C131.388 15.053 131.325 15.0993 131.251 15.1283C131.179 15.1574 131.104 15.1748 131.023 15.1748C130.942 15.1748 130.867 15.1574 130.795 15.1283C130.728 15.0993 130.667 15.053 130.614 15.0008C130.561 14.9485 130.52 14.8848 130.489 14.8151C130.458 14.7454 130.442 14.6699 130.442 14.5886C130.442 14.5073 130.458 14.4318 130.489 14.3621C130.52 14.2867 130.561 14.2228 130.614 14.1705C130.667 14.1183 130.728 14.072 130.795 14.043C130.867 14.0081 130.942 13.9965 131.023 13.9965C131.104 13.9965 131.179 14.0081 131.251 14.043C131.325 14.072 131.388 14.1183 131.441 14.1705C131.497 14.2228 131.54 14.2867 131.571 14.3621C131.605 14.4318 131.622 14.5073 131.622 14.5886ZM135.953 17.9034C135.953 17.7118 135.925 17.5377 135.869 17.381C135.816 17.2184 135.737 17.0849 135.632 16.9688C135.53 16.8527 135.405 16.7597 135.256 16.6959C135.108 16.632 134.939 16.6029 134.75 16.6029C134.353 16.6029 134.039 16.7191 133.807 16.9513C133.578 17.1777 133.436 17.497 133.38 17.9034H135.953ZM136.622 20.1093C136.519 20.237 136.397 20.3416 136.255 20.4344C136.112 20.5273 135.959 20.6029 135.795 20.6609C135.634 20.719 135.467 20.7595 135.293 20.7885C135.12 20.8233 134.948 20.835 134.778 20.835C134.453 20.835 134.153 20.7828 133.877 20.6725C133.605 20.5622 133.368 20.3997 133.166 20.1907C132.968 19.9759 132.813 19.7147 132.702 19.4012C132.59 19.0877 132.535 18.7276 132.535 18.3212C132.535 17.9961 132.584 17.6887 132.683 17.4042C132.785 17.1198 132.931 16.8759 133.12 16.667C133.309 16.458 133.54 16.2896 133.812 16.1734C134.084 16.0515 134.391 15.9935 134.731 15.9935C135.013 15.9935 135.273 16.0399 135.512 16.1386C135.753 16.2315 135.96 16.3651 136.134 16.5451C136.31 16.7192 136.448 16.9396 136.547 17.2067C136.647 17.4621 136.696 17.7641 136.696 18.095C136.696 18.2286 136.682 18.3155 136.654 18.3561C136.626 18.3967 136.573 18.4202 136.496 18.4202H133.352C133.361 18.7162 133.401 18.9774 133.473 19.198C133.547 19.4186 133.649 19.5987 133.779 19.7496C133.909 19.8947 134.064 20.0049 134.244 20.0804C134.423 20.1501 134.625 20.185 134.848 20.185C135.055 20.185 135.233 20.1617 135.382 20.1153C135.533 20.0688 135.663 20.0166 135.772 19.9585C135.88 19.9005 135.97 19.8539 136.041 19.8074C136.115 19.7552 136.179 19.732 136.231 19.732C136.299 19.732 136.352 19.7552 136.389 19.8074L136.622 20.1093ZM143.237 17.9034C143.237 17.7118 143.209 17.5377 143.153 17.381C143.1 17.2184 143.021 17.0849 142.916 16.9688C142.814 16.8527 142.689 16.7597 142.54 16.6959C142.391 16.632 142.223 16.6029 142.034 16.6029C141.637 16.6029 141.323 16.7191 141.091 16.9513C140.862 17.1777 140.72 17.497 140.664 17.9034H143.237ZM143.905 20.1093C143.803 20.237 143.681 20.3416 143.539 20.4344C143.396 20.5273 143.243 20.6029 143.079 20.6609C142.917 20.719 142.75 20.7595 142.577 20.7885C142.404 20.8233 142.232 20.835 142.062 20.835C141.737 20.835 141.436 20.7828 141.161 20.6725C140.888 20.5622 140.651 20.3997 140.45 20.1907C140.252 19.9759 140.097 19.7147 139.986 19.4012C139.874 19.0877 139.819 18.7276 139.819 18.3212C139.819 17.9961 139.868 17.6887 139.967 17.4042C140.069 17.1198 140.214 16.8759 140.404 16.667C140.592 16.458 140.823 16.2896 141.096 16.1734C141.368 16.0515 141.675 15.9935 142.015 15.9935C142.297 15.9935 142.557 16.0399 142.795 16.1386C143.037 16.2315 143.244 16.3651 143.418 16.5451C143.594 16.7192 143.732 16.9396 143.831 17.2067C143.93 17.4621 143.98 17.7641 143.98 18.095C143.98 18.2286 143.966 18.3155 143.938 18.3561C143.91 18.3967 143.857 18.4202 143.78 18.4202H140.636C140.645 18.7162 140.685 18.9774 140.757 19.198C140.831 19.4186 140.933 19.5987 141.063 19.7496C141.193 19.8947 141.348 20.0049 141.528 20.0804C141.707 20.1501 141.908 20.185 142.131 20.185C142.339 20.185 142.517 20.1617 142.665 20.1153C142.817 20.0688 142.947 20.0166 143.056 19.9585C143.164 19.9005 143.254 19.8539 143.325 19.8074C143.399 19.7552 143.463 19.732 143.515 19.732C143.583 19.732 143.636 19.7552 143.673 19.8074L143.905 20.1093ZM147.735 16.841C147.698 16.9107 147.641 16.9456 147.563 16.9456C147.517 16.9456 147.464 16.928 147.406 16.8932C147.347 16.8583 147.274 16.8235 147.187 16.7829C147.104 16.7364 147.003 16.7018 146.885 16.667C146.768 16.6263 146.628 16.6088 146.467 16.6088C146.328 16.6088 146.203 16.6263 146.091 16.667C145.98 16.7018 145.884 16.7482 145.803 16.8121C145.726 16.8701 145.666 16.9454 145.622 17.0267C145.582 17.1079 145.562 17.195 145.562 17.2937C145.562 17.4156 145.596 17.5143 145.664 17.5956C145.735 17.6768 145.828 17.7467 145.943 17.8048C146.057 17.8628 146.187 17.9151 146.333 17.9615C146.478 18.0022 146.627 18.0544 146.779 18.1067C146.934 18.1531 147.083 18.2112 147.229 18.275C147.375 18.3331 147.505 18.4143 147.619 18.5072C147.733 18.6001 147.825 18.7103 147.893 18.8496C147.965 18.9831 148 19.1399 148 19.3315C148 19.5463 147.961 19.7495 147.884 19.9353C147.807 20.1152 147.692 20.2777 147.54 20.4112C147.389 20.5447 147.203 20.6494 146.983 20.7307C146.763 20.8061 146.509 20.8466 146.221 20.8466C145.893 20.8466 145.596 20.7943 145.33 20.6898C145.063 20.5795 144.837 20.4404 144.651 20.272L144.847 19.9585C144.871 19.9179 144.901 19.8888 144.935 19.8655C144.969 19.8423 145.012 19.8307 145.065 19.8307C145.121 19.8307 145.179 19.854 145.241 19.9004C145.303 19.941 145.378 19.9876 145.464 20.0399C145.554 20.0921 145.662 20.1444 145.789 20.185C145.916 20.2314 146.074 20.2488 146.263 20.2488C146.424 20.2488 146.565 20.2313 146.686 20.1907C146.806 20.15 146.907 20.0921 146.987 20.0166C147.068 19.947 147.127 19.8654 147.164 19.7726C147.204 19.6797 147.224 19.5811 147.224 19.4766C147.224 19.3431 147.189 19.2387 147.118 19.1574C147.05 19.0704 146.958 18.9947 146.844 18.9366C146.729 18.8728 146.597 18.8205 146.449 18.7799C146.303 18.7334 146.153 18.687 145.998 18.6347C145.847 18.5825 145.696 18.5302 145.548 18.4664C145.402 18.4025 145.272 18.3214 145.158 18.2285C145.043 18.1299 144.95 18.0135 144.879 17.8742C144.811 17.7291 144.777 17.5609 144.777 17.3577C144.777 17.1778 144.814 17.0035 144.888 16.841C144.963 16.6726 145.071 16.5275 145.213 16.4056C145.356 16.2779 145.531 16.1792 145.738 16.1037C145.945 16.0282 146.182 15.9935 146.449 15.9935C146.758 15.9935 147.036 16.0399 147.28 16.1386C147.528 16.2373 147.742 16.3708 147.921 16.5391L147.735 16.841ZM4.2123 30.0015V34.7039H3.72002C3.60217 34.7039 3.52786 34.6459 3.4971 34.5298L3.43208 34.0247C3.22773 34.2511 2.99843 34.4367 2.74474 34.576C2.49105 34.7096 2.19962 34.7793 1.87162 34.7793C1.61445 34.7793 1.38689 34.7388 1.18892 34.6517C0.993867 34.5646 0.829565 34.4427 0.696624 34.2917C0.563683 34.135 0.462677 33.9491 0.394755 33.7285C0.329736 33.5079 0.297227 33.2642 0.297227 32.9972V30.0015H1.12389V32.9972C1.12389 33.3571 1.20459 33.63 1.3654 33.8274C1.52969 34.019 1.77873 34.1177 2.11311 34.1177C2.35752 34.1177 2.58508 34.0596 2.79581 33.9493C3.00945 33.8274 3.20626 33.6705 3.38564 33.4615V30.0015H4.2123ZM6.30338 30.6807C6.40555 30.5646 6.51411 30.466 6.62848 30.3732C6.74284 30.2803 6.86358 30.1989 6.99072 30.135C7.12076 30.0654 7.25719 30.0131 7.39942 29.9783C7.54513 29.9435 7.70128 29.9261 7.86848 29.9261C8.12565 29.9261 8.35148 29.9669 8.54653 30.054C8.74449 30.1411 8.90878 30.2571 9.03882 30.4196C9.17176 30.5706 9.27278 30.7621 9.3407 30.9769C9.40862 31.1975 9.44287 31.4412 9.44287 31.7083V34.7039H8.61155V31.7083C8.61155 31.3541 8.52971 31.0755 8.36542 30.884C8.20461 30.6808 7.95847 30.5821 7.62698 30.5821C7.38258 30.5821 7.15326 30.646 6.93963 30.7621C6.72889 30.8782 6.53384 31.0406 6.35446 31.238V34.7039H5.52314V30.0015H6.02008C6.13793 30.0015 6.2105 30.0538 6.23836 30.1699L6.30338 30.6807ZM13.0793 34.7039V30.0015H13.5762C13.6935 30.0015 13.7667 30.0538 13.7945 30.1699L13.8549 30.6518C14.0279 30.4428 14.2229 30.2629 14.4401 30.1294C14.6566 29.9959 14.9074 29.9261 15.1924 29.9261C15.5082 29.9261 15.7637 30.0133 15.9587 30.1875C16.1567 30.3675 16.2989 30.6053 16.386 30.9072C16.4539 30.733 16.5404 30.588 16.6461 30.4661C16.754 30.3384 16.8748 30.2396 17.0083 30.1583C17.1413 30.077 17.2823 30.0189 17.431 29.9783C17.5825 29.9435 17.7357 29.9261 17.8907 29.9261C18.138 29.9261 18.358 29.9668 18.5502 30.048C18.7453 30.1235 18.909 30.2395 19.0425 30.3904C19.1783 30.5414 19.2822 30.7273 19.3537 30.9537C19.4245 31.1685 19.4605 31.4238 19.4605 31.7083V34.7039H18.6292V31.7083C18.6292 31.3425 18.5485 31.0639 18.3877 30.8723C18.2263 30.6808 17.9941 30.5821 17.691 30.5821C17.5546 30.5821 17.4246 30.611 17.3009 30.6575C17.1802 30.7039 17.0733 30.7738 16.9805 30.8667C16.8876 30.9595 16.8133 31.0756 16.7575 31.2207C16.7047 31.36 16.6786 31.5225 16.6786 31.7083V34.7039H15.8473V31.7083C15.8473 31.3309 15.7712 31.0465 15.6197 30.8607C15.4676 30.6749 15.2464 30.5821 14.9556 30.5821C14.7512 30.5821 14.562 30.6401 14.389 30.7504C14.2154 30.8607 14.0557 31.0059 13.9106 31.1975V34.7039H13.0793ZM24.6579 30.0015L22.034 36.0914C22.0061 36.1553 21.9701 36.2016 21.9271 36.2422C21.8865 36.2771 21.8232 36.2947 21.7367 36.2947H21.1237L21.9829 34.4309L20.0416 30.0015H20.7568C20.8276 30.0015 20.8834 30.0191 20.924 30.054C20.9669 30.0888 20.9965 30.1293 21.0122 30.1699L22.2708 33.1363C22.3201 33.2641 22.3619 33.3977 22.3962 33.5428C22.4392 33.3977 22.4856 33.2584 22.5355 33.1307L23.757 30.1699C23.7756 30.1235 23.8063 30.0829 23.8498 30.048C23.8963 30.019 23.9474 30.0015 24.0031 30.0015H24.6579ZM26.8326 34.7793C26.4611 34.7793 26.1743 34.6748 25.9734 34.4658C25.7749 34.2568 25.6762 33.9607 25.6762 33.5717V30.6923H25.1096C25.0597 30.6923 25.0179 30.675 24.9842 30.6518C24.9499 30.617 24.9331 30.5704 24.9331 30.5123V30.1815L25.7041 30.0829L25.8945 28.6316C25.9038 28.5851 25.9235 28.5444 25.9548 28.5154C25.9885 28.4863 26.0321 28.4689 26.0849 28.4689H26.5029V30.0945H27.8636V30.6923H26.5029V33.5139C26.5029 33.7113 26.5505 33.8621 26.6468 33.955C26.7426 34.0537 26.8663 34.1001 27.0184 34.1001C27.1049 34.1001 27.1792 34.0885 27.2413 34.0652C27.3063 34.042 27.362 34.0189 27.4085 33.9898C27.4549 33.9608 27.4933 33.9377 27.5246 33.9144C27.5583 33.8912 27.5879 33.8796 27.6128 33.8796C27.6558 33.8796 27.6947 33.9027 27.7289 33.955L27.9704 34.3498C27.8276 34.4834 27.6558 34.5877 27.4549 34.669C27.2535 34.7387 27.0462 34.7793 26.8326 34.7793ZM29.5483 30.6286C29.7498 30.4138 29.9727 30.2397 30.2171 30.1178C30.4615 29.99 30.7436 29.9261 31.0623 29.9261C31.3195 29.9261 31.5453 29.9669 31.7404 30.054C31.9384 30.1411 32.1026 30.2571 32.2327 30.4196C32.3656 30.5706 32.4666 30.7621 32.5346 30.9769C32.6025 31.1975 32.6367 31.4412 32.6367 31.7083V34.7039H31.8054V31.7083C31.8054 31.3541 31.7236 31.0755 31.5593 30.884C31.3985 30.6808 31.1523 30.5821 30.8208 30.5821C30.5764 30.5821 30.3471 30.646 30.1335 30.7621C29.9228 30.8782 29.7277 31.0406 29.5483 31.238V34.7039H28.717V27.8654H29.5483V30.6286ZM33.7571 34.1931C33.7571 34.1118 33.7711 34.0363 33.7989 33.9666C33.8297 33.8969 33.8704 33.8332 33.9197 33.7809C33.9725 33.7287 34.0341 33.6879 34.1055 33.6531C34.1769 33.6241 34.2523 33.6066 34.333 33.6066C34.4137 33.6066 34.4892 33.6241 34.5606 33.6531C34.632 33.6879 34.6935 33.7287 34.7464 33.7809C34.7992 33.8332 34.841 33.8969 34.8718 33.9666C34.9025 34.0363 34.9182 34.1118 34.9182 34.1931C34.9182 34.2744 34.9025 34.3556 34.8718 34.4252C34.841 34.4949 34.7992 34.553 34.7464 34.6052C34.6935 34.6575 34.632 34.6981 34.5606 34.7271C34.4892 34.7561 34.4137 34.7736 34.333 34.7736C34.2523 34.7736 34.1769 34.7561 34.1055 34.7271C34.0341 34.6981 33.9725 34.6575 33.9197 34.6052C33.8704 34.553 33.8297 34.4949 33.7989 34.4252C33.7711 34.3556 33.7571 34.2744 33.7571 34.1931Z" fill="#484848"/>
</svg>
