<svg width="50" height="9" viewBox="0 0 50 9" fill="none" xmlns="http://www.w3.org/2000/svg">
<path d="M5.1373 5.46131C5.18719 5.46131 5.23122 5.48168 5.26878 5.52235L5.63035 5.91211C5.35446 6.23143 5.0199 6.48031 4.62544 6.65876C4.23392 6.8372 3.75963 6.92642 3.20259 6.92642C2.72008 6.92642 2.2822 6.84348 1.88775 6.67754C1.49329 6.50849 1.15634 6.2737 0.878113 5.97316C0.599295 5.66951 0.383282 5.30634 0.230079 4.88371C0.0762891 4.46109 0 3.99619 0 3.48904C0 2.98188 0.0798417 2.51699 0.239502 2.09436C0.399161 1.67173 0.622792 1.30857 0.911002 1.00492C1.20215 0.701272 1.54964 0.466478 1.95349 0.300537C2.35733 0.131485 2.80342 0.0469599 3.29179 0.0469599C3.77077 0.0469599 4.19342 0.123678 4.5597 0.277057C4.92598 0.430436 5.24824 0.63864 5.52706 0.90161L5.22651 1.31954C5.20772 1.35083 5.18249 1.37748 5.15138 1.39937C5.1232 1.41816 5.08387 1.42755 5.03398 1.42755C4.97763 1.42755 4.90837 1.39779 4.82736 1.33833C4.74577 1.2757 4.63952 1.20684 4.50804 1.13171C4.37655 1.05657 4.21218 0.989247 4.01496 0.929785C3.81773 0.867154 3.57472 0.835867 3.2871 0.835867C2.93961 0.835867 2.62148 0.896913 2.33386 1.01901C2.04565 1.13799 1.79675 1.31174 1.5872 1.54025C1.38058 1.76876 1.21917 2.0474 1.10353 2.37611C0.987311 2.70483 0.929775 3.0758 0.929775 3.48904C0.929775 3.90856 0.98907 4.28264 1.10823 4.61135C1.23032 4.94006 1.39466 5.21871 1.60128 5.44722C1.81083 5.67262 2.0568 5.84478 2.33855 5.96377C2.62324 6.08275 2.93023 6.14221 3.25894 6.14221C3.4591 6.14221 3.6393 6.13123 3.79896 6.10934C3.96155 6.08427 4.11007 6.04671 4.24507 5.99664C4.38243 5.94657 4.50922 5.88394 4.62544 5.8088C4.74401 5.73056 4.8614 5.63817 4.97762 5.53175C5.03045 5.48479 5.08388 5.46131 5.1373 5.46131ZM9.06717 4.70997C8.68211 4.72247 8.35336 4.75382 8.081 4.80389C7.81216 4.85084 7.59146 4.91348 7.41889 4.99172C7.24984 5.06997 7.12659 5.16236 7.04794 5.26878C6.9728 5.3752 6.93523 5.49418 6.93523 5.62566C6.93523 5.75087 6.95577 5.85887 6.99628 5.94968C7.03737 6.04049 7.09194 6.11562 7.16061 6.17508C7.23281 6.23143 7.31558 6.27369 7.4095 6.30187C7.50694 6.32693 7.61026 6.33944 7.71944 6.33944C7.86677 6.33944 8.00118 6.32535 8.12328 6.29717C8.24537 6.26589 8.35982 6.22204 8.46607 6.16569C8.57583 6.10934 8.67915 6.04201 8.776 5.96377C8.87638 5.88552 8.97325 5.7963 9.06717 5.6961V4.70997ZM6.36702 2.76587C6.62999 2.5123 6.9135 2.32287 7.21697 2.19767C7.52103 2.07247 7.85739 2.00984 8.2266 2.00984C8.49309 2.00984 8.72907 2.05369 8.93568 2.14132C9.1423 2.22896 9.31605 2.35105 9.45693 2.5076C9.5978 2.66415 9.7046 2.85351 9.77621 3.0758C9.84841 3.29809 9.88423 3.54228 9.88423 3.80836V6.85129H9.51325C9.43224 6.85129 9.36947 6.83879 9.32544 6.81372C9.28201 6.78555 9.24736 6.73231 9.22212 6.65406L9.12822 6.20326C9.00319 6.31907 8.88108 6.42238 8.76192 6.51318C8.64335 6.60082 8.51773 6.67595 8.38625 6.73859C8.25476 6.79805 8.1139 6.84348 7.96363 6.87477C7.81689 6.90922 7.65252 6.92642 7.47055 6.92642C7.28624 6.92642 7.11249 6.90136 6.94931 6.85129C6.78671 6.79805 6.6441 6.7198 6.522 6.61649C6.40343 6.51318 6.30773 6.38329 6.23553 6.22674C6.16685 6.06708 6.13224 5.87924 6.13224 5.66323C6.13224 5.4754 6.18388 5.29537 6.28719 5.1232C6.3905 4.94787 6.55839 4.79291 6.78966 4.65831C7.02152 4.52372 7.32382 4.41413 7.69597 4.3296C8.06871 4.24196 8.52597 4.19184 9.06717 4.17933V3.80836C9.06717 3.43897 8.98733 3.16033 8.82767 2.97249C8.66801 2.78154 8.43496 2.68604 8.12797 2.68604C7.92135 2.68604 7.7476 2.71263 7.60673 2.76587C7.46937 2.81594 7.34847 2.87388 7.24516 2.93962C7.14538 3.00225 7.05733 3.06013 6.9822 3.11337C6.91058 3.16344 6.83836 3.1885 6.76616 3.1885C6.70981 3.1885 6.66169 3.17441 6.6206 3.14624C6.5801 3.11495 6.54545 3.07739 6.51727 3.03354L6.36702 2.76587ZM11.1574 6.85129V2.09436H11.6599C11.779 2.09436 11.8524 2.1523 11.8806 2.26811L11.9416 2.75648C12.1171 2.54047 12.3143 2.36361 12.5333 2.22585C12.7528 2.08808 13.0064 2.01923 13.294 2.01923C13.6134 2.01923 13.8716 2.10845 14.0689 2.28689C14.2696 2.46534 14.4134 2.70641 14.5009 3.01006C14.5701 2.8379 14.6576 2.68915 14.7638 2.56395C14.8736 2.43875 14.9957 2.33544 15.1301 2.25402C15.2651 2.17261 15.4072 2.11315 15.5574 2.07558C15.7112 2.03801 15.8662 2.01923 16.0224 2.01923C16.273 2.01923 16.4955 2.05991 16.6892 2.14132C16.8864 2.21957 17.0525 2.33544 17.1869 2.48882C17.3248 2.6422 17.4299 2.83162 17.5015 3.05702C17.5737 3.27931 17.6095 3.53441 17.6095 3.82245V6.85129H16.769V3.82245C16.769 3.44989 16.688 3.16813 16.5248 2.97719C16.3622 2.78307 16.1274 2.68604 15.8204 2.68604C15.6831 2.68604 15.5516 2.71111 15.4259 2.76118C15.3039 2.80814 15.1958 2.87857 15.1019 2.97249C15.008 3.06641 14.9329 3.18539 14.8765 3.32938C14.8237 3.47026 14.7967 3.63461 14.7967 3.82245V6.85129H13.9562V3.82245C13.9562 3.4405 13.8798 3.15563 13.726 2.9678C13.5728 2.77996 13.3492 2.68604 13.0545 2.68604C12.8479 2.68604 12.6571 2.74239 12.4816 2.8551C12.3067 2.96469 12.1453 3.11495 11.998 3.3059V6.85129H11.1574ZM19.7209 5.70549C19.8741 5.91211 20.0414 6.05768 20.2234 6.14221C20.4048 6.22674 20.6084 6.269 20.8338 6.269C21.2782 6.269 21.6192 6.11092 21.8576 5.79472C22.0953 5.47851 22.2144 5.0277 22.2144 4.4423C22.2144 4.13237 22.1863 3.86629 22.1299 3.644C22.0765 3.42171 21.9984 3.24016 21.8951 3.09928C21.7918 2.95529 21.665 2.8504 21.5148 2.78466C21.3645 2.71891 21.1937 2.68604 21.0029 2.68604C20.7305 2.68604 20.4911 2.74867 20.2844 2.87388C20.0808 2.99908 19.8929 3.176 19.7209 3.40451V5.70549ZM19.6787 2.83162C19.8788 2.58432 20.1107 2.38551 20.3736 2.23524C20.6366 2.08497 20.9372 2.00984 21.2753 2.00984C21.5506 2.00984 21.7994 2.06308 22.0219 2.1695C22.2438 2.2728 22.4334 2.42777 22.5901 2.63439C22.7462 2.8379 22.8672 3.09147 22.9517 3.39512C23.0362 3.69877 23.0785 4.04785 23.0785 4.4423C23.0785 4.79291 23.0315 5.12009 22.9376 5.42374C22.8437 5.72428 22.7075 5.98566 22.5291 6.20795C22.3535 6.42707 22.1375 6.60082 21.881 6.7292C21.6274 6.8544 21.341 6.91703 21.0217 6.91703C20.7305 6.91703 20.4799 6.86849 20.2704 6.77146C20.0637 6.67126 19.8806 6.53355 19.7209 6.35822V8.46197H18.8804V2.09436H19.3828C19.5014 2.09436 19.5753 2.1523 19.6035 2.26811L19.6787 2.83162ZM28.0561 2.09436V6.85129H27.5583C27.4398 6.85129 27.3647 6.79335 27.333 6.67754L27.2672 6.16569C27.0606 6.3942 26.8293 6.57893 26.5722 6.7198C26.3157 6.85757 26.0216 6.92642 25.6894 6.92642C25.43 6.92642 25.1998 6.88416 24.9991 6.79963C24.8019 6.712 24.6363 6.5899 24.5013 6.43335C24.3669 6.27681 24.2654 6.08744 24.1961 5.86515C24.1304 5.64286 24.0975 5.39715 24.0975 5.1279V2.09436H24.9334V5.1279C24.9334 5.4879 25.015 5.76654 25.1775 5.96377C25.3437 6.16099 25.5955 6.25961 25.9336 6.25961C26.1813 6.25961 26.4114 6.20167 26.6239 6.08586C26.8399 5.96688 27.0389 5.80411 27.2202 5.59749V2.09436H28.0561ZM32.1521 2.87857C32.1145 2.94743 32.057 2.98188 31.9784 2.98188C31.9314 2.98188 31.8785 2.96468 31.8187 2.93023C31.7594 2.89577 31.686 2.85821 31.598 2.81753C31.5135 2.77368 31.4119 2.73459 31.2927 2.70013C31.1742 2.66256 31.0333 2.64378 30.8701 2.64378C30.7292 2.64378 30.6025 2.66256 30.4898 2.70013C30.3771 2.73459 30.2802 2.78307 30.1986 2.8457C30.1206 2.90833 30.0595 2.98188 30.0155 3.06641C29.975 3.14782 29.9544 3.23705 29.9544 3.33407C29.9544 3.45617 29.989 3.55789 30.0577 3.63931C30.1299 3.72072 30.2239 3.79116 30.3395 3.85062C30.4557 3.91008 30.5872 3.96332 30.7339 4.01028C30.8813 4.05413 31.0316 4.10261 31.1848 4.15585C31.3415 4.20592 31.4935 4.26227 31.6403 4.3249C31.7876 4.38754 31.9191 4.46578 32.0347 4.5597C32.1509 4.65362 32.2431 4.76943 32.3118 4.90719C32.384 5.04179 32.4198 5.20462 32.4198 5.39557C32.4198 5.61469 32.381 5.8182 32.3024 6.00603C32.2243 6.19075 32.1087 6.35194 31.9549 6.48971C31.8017 6.6243 31.6138 6.73078 31.3914 6.80903C31.1695 6.88727 30.9124 6.92642 30.6212 6.92642C30.2896 6.92642 29.989 6.87318 29.7196 6.76676C29.4508 6.65717 29.2219 6.51788 29.034 6.34883L29.2313 6.02951C29.2565 5.98883 29.2864 5.95749 29.3205 5.93559C29.3551 5.9137 29.3991 5.90272 29.452 5.90272C29.5083 5.90272 29.5682 5.92461 29.6304 5.96846C29.6932 6.01231 29.7683 6.0608 29.8558 6.11403C29.9468 6.16727 30.0565 6.21576 30.1845 6.25961C30.3131 6.30346 30.4727 6.32535 30.6635 6.32535C30.8267 6.32535 30.9687 6.30498 31.0908 6.2643C31.2129 6.22046 31.3151 6.16258 31.3961 6.09055C31.4777 6.01853 31.5369 5.93559 31.5745 5.84167C31.6156 5.74776 31.6356 5.64756 31.6356 5.54114C31.6356 5.40965 31.5997 5.30165 31.5275 5.21712C31.4589 5.12949 31.3667 5.05588 31.2505 4.99642C31.1349 4.93378 31.0016 4.8806 30.8514 4.83676C30.7046 4.7898 30.5526 4.74125 30.3958 4.69118C30.2426 4.64111 30.0906 4.58476 29.9403 4.52213C29.7936 4.45639 29.6621 4.37498 29.5459 4.27795C29.4303 4.18092 29.3363 4.06194 29.2641 3.92106C29.1954 3.77707 29.1608 3.60332 29.1608 3.39982C29.1608 3.21826 29.1984 3.04451 29.2735 2.87857C29.3486 2.70952 29.4584 2.56237 29.6022 2.43716C29.7466 2.30879 29.9233 2.20706 30.1329 2.13193C30.343 2.05679 30.5825 2.01923 30.8514 2.01923C31.1648 2.01923 31.4448 2.0693 31.6919 2.1695C31.9425 2.26652 32.1585 2.40118 32.3399 2.57334L32.1521 2.87857ZM39.8627 6.08586V6.85129H36.045V0.122093H36.9513V6.08586H39.8627ZM41.555 2.09436V6.85129H40.7191V2.09436H41.555ZM41.7335 0.601073C41.7335 0.682487 41.7158 0.759148 41.6818 0.831171C41.6501 0.900024 41.6067 0.962655 41.5503 1.01901C41.4969 1.07225 41.4329 1.11451 41.3578 1.14579C41.2856 1.17708 41.2087 1.19275 41.1277 1.19275C41.0461 1.19275 40.9692 1.17708 40.8976 1.14579C40.8283 1.11451 40.7673 1.07225 40.7144 1.01901C40.661 0.962655 40.6188 0.900024 40.5877 0.831171C40.556 0.759148 40.5407 0.682487 40.5407 0.601073C40.5407 0.519658 40.556 0.442997 40.5877 0.370974C40.6188 0.29584 40.661 0.231683 40.7144 0.178444C40.7673 0.122093 40.8283 0.0782462 40.8976 0.0469599C40.9692 0.0156736 41.0461 0 41.1277 0C41.2087 0 41.2856 0.0156736 41.3578 0.0469599C41.4329 0.0782462 41.4969 0.122093 41.5503 0.178444C41.6067 0.231683 41.6501 0.29584 41.6818 0.370974C41.7158 0.442997 41.7335 0.519658 41.7335 0.601073ZM43.2379 6.85129V2.80814L42.712 2.74709C42.6462 2.73142 42.5916 2.70794 42.5476 2.67665C42.5071 2.6422 42.4865 2.59371 42.4865 2.53108V2.18828H43.2379V1.72808C43.2379 1.45572 43.2754 1.21465 43.3506 1.00492C43.4292 0.79202 43.5384 0.613576 43.6793 0.469589C43.8237 0.322431 43.9957 0.211315 44.1958 0.136181C44.3966 0.0610466 44.622 0.0234799 44.8721 0.0234799C45.0851 0.0234799 45.2806 0.0547661 45.4591 0.117397L45.4403 0.535331C45.4344 0.610465 45.3921 0.651143 45.3135 0.657424C45.2384 0.663704 45.1368 0.666816 45.0082 0.666816C44.8644 0.666816 44.7329 0.685599 44.6138 0.723166C44.4982 0.760733 44.3978 0.821779 44.3132 0.906305C44.2287 0.990831 44.163 1.10195 44.116 1.23971C44.0726 1.37748 44.0503 1.54806 44.0503 1.75156V2.18828H45.4215V2.79405H44.0785V6.85129H43.2379ZM49.2486 3.95393C49.2486 3.75981 49.2205 3.58296 49.1641 3.4233C49.1107 3.26053 49.0308 3.12118 48.9246 3.00536C48.8213 2.88638 48.6945 2.79563 48.5442 2.733C48.394 2.66726 48.2231 2.63439 48.0324 2.63439C47.6315 2.63439 47.3139 2.75179 47.0791 2.98658C46.8473 3.21826 46.7035 3.54069 46.6471 3.95393H49.2486ZM49.9248 6.18447C49.8215 6.30968 49.6977 6.41927 49.5539 6.51318C49.4101 6.60399 49.2551 6.67912 49.0889 6.73859C48.9263 6.79805 48.7573 6.8419 48.5818 6.87007C48.4063 6.90136 48.2326 6.91703 48.0606 6.91703C47.7319 6.91703 47.4284 6.86227 47.1496 6.75267C46.8743 6.63997 46.6348 6.4772 46.4311 6.2643C46.2309 6.04829 46.0742 5.78221 45.9615 5.466C45.8488 5.14979 45.7925 4.78669 45.7925 4.37656C45.7925 4.04474 45.8423 3.73481 45.9427 3.44678C46.046 3.15874 46.1934 2.90986 46.3841 2.70013C46.5749 2.48723 46.8085 2.32135 47.0838 2.20237C47.3591 2.08028 47.669 2.01923 48.0136 2.01923C48.2983 2.01923 48.5613 2.06777 48.8025 2.1648C49.0467 2.25872 49.2563 2.39648 49.4318 2.57804C49.6102 2.75648 49.7493 2.97877 49.8497 3.24485C49.9501 3.50782 49.9999 3.80836 49.9999 4.14646C49.9999 4.27795 49.9859 4.36558 49.9577 4.40943C49.9295 4.45328 49.8761 4.47517 49.798 4.47517H46.6189C46.6283 4.77571 46.6688 5.03709 46.741 5.25938C46.8161 5.48168 46.9195 5.66793 47.0509 5.8182C47.1824 5.96535 47.3391 6.07647 47.5205 6.1516C47.7019 6.22362 47.9056 6.25961 48.131 6.25961C48.3406 6.25961 48.5208 6.23613 48.671 6.18917C48.8242 6.1391 48.9557 6.08586 49.0655 6.02951C49.1752 5.97316 49.2656 5.9215 49.3378 5.87454C49.413 5.82447 49.4769 5.79941 49.5304 5.79941C49.599 5.79941 49.6525 5.826 49.69 5.87924L49.9248 6.18447Z" fill="#484848"/>
</svg>
