<svg width="45" height="7" viewBox="0 0 45 7" fill="none" xmlns="http://www.w3.org/2000/svg">
<path d="M5.14844 5.42358C5.19844 5.42358 5.24256 5.44731 5.28021 5.48849L5.64256 5.87655C5.36608 6.19421 5.03078 6.44717 4.63548 6.62365C4.24311 6.80601 3.76779 6.89422 3.20953 6.89422C2.72598 6.89422 2.28715 6.81205 1.89184 6.64146C1.49653 6.47674 1.15885 6.24132 0.880017 5.93543C0.600595 5.63542 0.384149 5.27064 0.230614 4.8471C0.0764905 4.42355 0 3.9589 0 3.44711C0 2.94121 0.0800148 2.47642 0.240021 2.05287C0.400027 1.62933 0.624143 1.26469 0.912977 0.958792C1.20475 0.652897 1.553 0.417479 1.95772 0.252767C2.36245 0.0821723 2.80954 0 3.29897 0C3.77899 0 4.20252 0.0762667 4.56959 0.229214C4.93666 0.382161 5.25962 0.593968 5.53905 0.852802L5.23784 1.27647C5.21902 1.30589 5.19373 1.32935 5.16255 1.35288C5.13432 1.37053 5.0949 1.38218 5.04489 1.38218C4.98842 1.38218 4.91901 1.35282 4.83783 1.294C4.75607 1.22929 4.64959 1.15864 4.51782 1.08805C4.38605 1.01157 4.22135 0.941213 4.0237 0.882387C3.82605 0.823561 3.58248 0.788174 3.29423 0.788174C2.94598 0.788174 2.62717 0.852917 2.33892 0.970568C2.05009 1.0941 1.80065 1.26478 1.59064 1.4942C1.38357 1.72362 1.22181 2.0058 1.10593 2.33522C0.989453 2.66465 0.931791 3.03533 0.931791 3.44711C0.931791 3.87066 0.991215 4.24135 1.11063 4.57078C1.23299 4.9002 1.39772 5.18238 1.60478 5.4118C1.81479 5.63534 2.06126 5.81203 2.34362 5.92969C2.62893 6.04734 2.93658 6.10605 3.26601 6.10605C3.46661 6.10605 3.64719 6.0944 3.8072 6.07675C3.97014 6.04734 4.11898 6.01193 4.25428 5.95898C4.39193 5.91192 4.519 5.84732 4.63548 5.77084C4.7543 5.69437 4.87194 5.60012 4.98842 5.49424C5.04136 5.44718 5.09491 5.42358 5.14844 5.42358ZM8.42091 1.97647C8.76916 1.97647 9.08269 2.03532 9.36211 2.14708C9.64095 2.26474 9.87978 2.42936 10.0774 2.64113C10.2751 2.85878 10.4257 3.1178 10.5292 3.41781C10.6357 3.72371 10.6892 4.05885 10.6892 4.42946C10.6892 4.80594 10.6357 5.14712 10.5292 5.44713C10.4257 5.74714 10.2751 6.00601 10.0774 6.21778C9.87978 6.43544 9.64095 6.60006 9.36211 6.71183C9.08269 6.82948 8.76916 6.88245 8.42091 6.88245C8.06914 6.88245 7.75264 6.82948 7.47027 6.71183C7.19085 6.60006 6.95264 6.43544 6.75498 6.21778C6.55733 6.00601 6.40497 5.74714 6.2985 5.44713C6.19496 5.14712 6.14317 4.80594 6.14317 4.42946C6.14317 4.05885 6.19496 3.72371 6.2985 3.41781C6.40497 3.1178 6.55733 2.85878 6.75498 2.64113C6.95264 2.42936 7.19085 2.26474 7.47027 2.14708C7.75264 2.03532 8.06914 1.97647 8.42091 1.97647ZM8.42091 6.22956C8.89152 6.22956 9.24271 6.07084 9.47507 5.75907C9.70684 5.44141 9.8233 5.00022 9.8233 4.43549C9.8233 3.87076 9.70684 3.42368 9.47507 3.11191C9.24271 2.79425 8.89152 2.63538 8.42091 2.63538C8.18208 2.63538 7.97382 2.67654 7.79499 2.7589C7.6191 2.83537 7.47148 2.95308 7.35265 3.11191C7.23617 3.26485 7.14853 3.45307 7.08911 3.67661C7.03264 3.90015 7.00438 4.15312 7.00438 4.43549C7.00438 5.00022 7.12029 5.44141 7.35265 5.75907C7.58795 6.07084 7.94384 6.22956 8.42091 6.22956ZM12.5422 2.74109C12.6458 2.62344 12.7558 2.52356 12.8717 2.42944C12.9875 2.33532 13.1099 2.25287 13.2387 2.18816C13.3705 2.11757 13.5087 2.06461 13.6529 2.02932C13.8005 1.99402 13.9588 1.97647 14.1282 1.97647C14.3888 1.97647 14.6176 2.01777 14.8153 2.10601C15.0159 2.19425 15.1824 2.31183 15.3141 2.47654C15.4488 2.62949 15.5512 2.82359 15.62 3.04125C15.6888 3.26479 15.7235 3.51172 15.7235 3.78231V6.81782H14.8812V3.78231C14.8812 3.42348 14.7982 3.14116 14.6317 2.94703C14.4688 2.74114 14.2194 2.64113 13.8835 2.64113C13.6358 2.64113 13.4035 2.70587 13.187 2.82352C12.9734 2.94117 12.7758 3.10578 12.594 3.30579V6.81782H11.7516V2.05287H12.2552C12.3746 2.05287 12.4481 2.10584 12.4764 2.22349L12.5422 2.74109ZM18.3989 6.89422C18.0224 6.89422 17.7324 6.78831 17.5283 6.57654C17.3277 6.36477 17.2271 6.06473 17.2271 5.6706V2.75286H16.653C16.603 2.75286 16.5606 2.73532 16.5259 2.71179C16.4918 2.67649 16.4742 2.62929 16.4742 2.57047V2.23527L17.2554 2.13531L17.4483 0.664663C17.4577 0.617602 17.4783 0.576309 17.5095 0.546896C17.5442 0.517483 17.5883 0.499789 17.6413 0.499789H18.0648V2.14708H19.4437V2.75286H18.0648V5.612C18.0648 5.81201 18.1137 5.96482 18.2107 6.05894C18.3084 6.15895 18.4336 6.20601 18.5872 6.20601C18.6754 6.20601 18.7507 6.19421 18.8131 6.17068C18.879 6.14715 18.9354 6.12368 18.9825 6.09427C19.0295 6.06486 19.069 6.0414 19.1001 6.01787C19.1349 5.99434 19.1648 5.98254 19.1895 5.98254C19.2337 5.98254 19.2731 6.006 19.3072 6.05894L19.5519 6.45906C19.4078 6.59436 19.2337 6.70013 19.0296 6.78249C18.826 6.85308 18.6154 6.89422 18.3989 6.89422ZM22.8927 4.67073C22.5068 4.6825 22.1773 4.7176 21.9044 4.76466C21.6344 4.81172 21.4132 4.87661 21.2408 4.95309C21.0714 5.03544 20.9473 5.12352 20.869 5.22941C20.7938 5.34118 20.7561 5.45903 20.7561 5.58845C20.7561 5.71787 20.7761 5.82364 20.8173 5.91188C20.8579 6.006 20.9126 6.08255 20.982 6.14138C21.0538 6.19432 21.1373 6.24136 21.2314 6.26489C21.3285 6.2943 21.432 6.30596 21.542 6.30596C21.6891 6.30596 21.8244 6.28842 21.9467 6.26489C22.0691 6.22959 22.1832 6.18843 22.2903 6.1296C22.3997 6.07666 22.5032 6.00616 22.6009 5.92969C22.7009 5.84733 22.7985 5.75883 22.8927 5.65882V4.67073ZM20.1866 2.72357C20.4502 2.47061 20.7337 2.28225 21.0384 2.15283C21.3426 2.02929 21.6797 1.96469 22.0503 1.96469C22.3167 1.96469 22.5538 2.01174 22.7609 2.09998C22.968 2.18822 23.1421 2.30594 23.2833 2.46477C23.4244 2.6236 23.5309 2.81168 23.6033 3.03522C23.675 3.25875 23.7115 3.49994 23.7115 3.77054V6.81782H23.3397C23.258 6.81782 23.195 6.80602 23.1515 6.78249C23.1074 6.75308 23.0726 6.70026 23.0479 6.6179L22.9538 6.17068C22.828 6.28245 22.7056 6.38834 22.5868 6.47658C22.4673 6.56482 22.342 6.64137 22.2103 6.70608C22.0785 6.76491 21.9373 6.81196 21.7867 6.84137C21.6391 6.87667 21.4743 6.89422 21.2926 6.89422C21.1073 6.89422 20.9331 6.87076 20.7702 6.81782C20.6067 6.76487 20.4643 6.68846 20.342 6.58257C20.2226 6.47669 20.1266 6.34718 20.0549 6.19423C19.9855 6.02952 19.9514 5.8413 19.9514 5.62953C19.9514 5.44128 20.0031 5.25897 20.1067 5.08837C20.2102 4.9119 20.3779 4.75289 20.6102 4.61759C20.842 4.4823 21.1449 4.37666 21.5185 4.28842C21.8914 4.20018 22.3497 4.15312 22.8927 4.14136V3.77054C22.8927 3.39994 22.8126 3.11776 22.6526 2.92951C22.4926 2.74127 22.2585 2.64113 21.9514 2.64113C21.7444 2.64113 21.5702 2.67062 21.429 2.72357C21.2908 2.77651 21.1702 2.82934 21.0667 2.89993C20.9661 2.95875 20.8785 3.0176 20.8032 3.07055C20.7308 3.12349 20.6584 3.14695 20.5867 3.14695C20.5302 3.14695 20.4814 3.13529 20.4408 3.10588C20.3996 3.07058 20.3655 3.03532 20.3373 2.99414L20.1866 2.72357ZM28.3052 2.89993C28.2799 2.92934 28.2552 2.95897 28.2299 2.97662C28.2046 2.99427 28.1705 3.00592 28.1264 3.00592C28.0793 3.00592 28.0276 2.98821 27.9711 2.94703C27.9146 2.90586 27.844 2.86484 27.7593 2.81778C27.6776 2.77072 27.5758 2.72941 27.4534 2.68824C27.334 2.64706 27.1869 2.62935 27.011 2.62935C26.7757 2.62935 26.5687 2.67066 26.3899 2.7589C26.211 2.83537 26.0604 2.95896 25.9381 3.11191C25.8187 3.27074 25.7281 3.45882 25.6651 3.68236C25.6057 3.90589 25.5757 4.15297 25.5757 4.42946C25.5757 4.7177 25.6086 4.97643 25.6745 5.20585C25.7404 5.42351 25.8328 5.61202 25.9522 5.77084C26.0745 5.91791 26.2204 6.03547 26.3899 6.11783C26.5622 6.1943 26.7552 6.2353 26.9687 6.2353C27.1728 6.2353 27.3405 6.21199 27.4722 6.16493C27.604 6.11199 27.7122 6.05888 27.7969 6.00006C27.8846 5.94123 27.9569 5.88828 28.0134 5.84122C28.0728 5.78827 28.1311 5.76481 28.1876 5.76481C28.2564 5.76481 28.3099 5.78827 28.3476 5.84122L28.5829 6.14712C28.4793 6.27654 28.3617 6.38834 28.2299 6.47658C28.0981 6.5707 27.9552 6.64712 27.8017 6.71183C27.6511 6.77065 27.4928 6.81196 27.3263 6.84137C27.1599 6.87078 26.9904 6.88245 26.8181 6.88245C26.5198 6.88245 26.2422 6.82963 25.9851 6.71786C25.731 6.61197 25.5098 6.45311 25.3216 6.24134C25.1333 6.03545 24.9857 5.77658 24.8792 5.47068C24.7727 5.16479 24.7192 4.82359 24.7192 4.42946C24.7192 4.0765 24.768 3.74712 24.8651 3.44711C24.9657 3.1471 25.1098 2.88837 25.298 2.67071C25.4892 2.45306 25.7234 2.28239 25.9992 2.15886C26.2787 2.03533 26.5987 1.97647 26.9593 1.97647C27.2952 1.97647 27.5899 2.02928 27.844 2.14105C28.1011 2.24694 28.3287 2.3999 28.5264 2.59402L28.3052 2.89993ZM30.9459 6.89422C30.5694 6.89422 30.2788 6.78831 30.0753 6.57654C29.8741 6.36477 29.7741 6.06473 29.7741 5.6706V2.75286H29.1999C29.1494 2.75286 29.107 2.73532 29.0729 2.71179C29.0382 2.67649 29.0211 2.62929 29.0211 2.57047V2.23527L29.8023 2.13531L29.9947 0.664663C30.0047 0.617602 30.0247 0.576309 30.0564 0.546896C30.0906 0.517483 30.1347 0.499789 30.1882 0.499789H30.6118V2.14708H31.9907V2.75286H30.6118V5.612C30.6118 5.81201 30.66 5.96482 30.7577 6.05894C30.8547 6.15895 30.98 6.20601 31.1342 6.20601C31.2218 6.20601 31.2971 6.19421 31.36 6.17068C31.4259 6.14715 31.4824 6.12368 31.5295 6.09427C31.5765 6.06486 31.6153 6.0414 31.6471 6.01787C31.6812 5.99434 31.7112 5.98254 31.7365 5.98254C31.7801 5.98254 31.8195 6.006 31.8542 6.05894L32.0989 6.45906C31.9542 6.59436 31.78 6.70013 31.5765 6.78249C31.3724 6.85308 31.1624 6.89422 30.9459 6.89422ZM38.0638 6.09427C38.3426 6.09427 38.5921 6.04707 38.8121 5.95295C39.0315 5.85883 39.2168 5.72358 39.3674 5.55887C39.5209 5.38827 39.6368 5.18236 39.7156 4.94705C39.7968 4.71175 39.838 4.45302 39.838 4.17066V0.0764046H40.7463V4.17066C40.7463 4.56479 40.6833 4.92354 40.558 5.25296C40.4357 5.58827 40.258 5.8765 40.0262 6.12357C39.7968 6.36476 39.5162 6.55298 39.1839 6.68827C38.8509 6.82946 38.4779 6.90025 38.0638 6.90025C37.6497 6.90025 37.2761 6.82946 36.9438 6.68827C36.6108 6.55298 36.3285 6.36476 36.0967 6.12357C35.8643 5.8765 35.6855 5.58827 35.5602 5.25296C35.4378 4.92354 35.3767 4.56479 35.3767 4.17066V0.0764046H36.2849V4.17066C36.2849 4.45302 36.3238 4.71175 36.4026 4.94705C36.4838 5.18236 36.6002 5.38253 36.7508 5.55312C36.9044 5.72372 37.0909 5.85295 37.3109 5.95295C37.5332 6.04707 37.7844 6.09427 38.0638 6.09427ZM44.7317 2.8353C44.6941 2.90589 44.6358 2.94129 44.5576 2.94129C44.5105 2.94129 44.457 2.92345 44.3976 2.88815C44.3376 2.85286 44.2641 2.81759 44.1764 2.77642C44.0917 2.72936 43.9894 2.69423 43.8705 2.65894C43.7511 2.61776 43.6099 2.60005 43.447 2.60005C43.3058 2.60005 43.1787 2.61776 43.0658 2.65894C42.9528 2.69423 42.8552 2.74129 42.774 2.806C42.6952 2.86483 42.634 2.94108 42.5905 3.02344C42.5493 3.1058 42.5293 3.19401 42.5293 3.29401C42.5293 3.41755 42.5634 3.51756 42.6328 3.59992C42.7046 3.68228 42.7987 3.75307 42.9152 3.8119C43.0311 3.87073 43.1628 3.92368 43.3105 3.97074C43.4576 4.01192 43.6082 4.06486 43.7623 4.11781C43.9188 4.16487 44.0711 4.22372 44.2188 4.28842C44.3658 4.34725 44.4976 4.42955 44.6141 4.52367C44.73 4.61779 44.8223 4.72947 44.8917 4.87065C44.9635 5.00595 45 5.16482 45 5.35895C45 5.5766 44.9606 5.78252 44.8823 5.97076C44.8035 6.15312 44.6876 6.31773 44.5341 6.45303C44.38 6.58833 44.1917 6.69439 43.9693 6.77674C43.7464 6.85322 43.4893 6.89422 43.1975 6.89422C42.8646 6.89422 42.5634 6.84127 42.294 6.73538C42.024 6.62361 41.7951 6.48259 41.6069 6.312L41.8046 5.99431C41.8293 5.95314 41.8592 5.92363 41.894 5.9001C41.9281 5.87657 41.9722 5.86477 42.0257 5.86477C42.0822 5.86477 42.1416 5.88837 42.2046 5.93543C42.2669 5.97661 42.3422 6.02381 42.4305 6.07675C42.5211 6.12969 42.6311 6.18264 42.7599 6.22382C42.8881 6.27088 43.0481 6.28844 43.2399 6.28844C43.4028 6.28844 43.5458 6.27074 43.6682 6.22956C43.7905 6.18838 43.8923 6.12967 43.974 6.0532C44.0552 5.98261 44.1152 5.90001 44.1529 5.80589C44.1935 5.71177 44.2141 5.6119 44.2141 5.50601C44.2141 5.37071 44.1776 5.26494 44.1058 5.18259C44.0364 5.09435 43.944 5.01766 43.8282 4.95883C43.7117 4.89412 43.5787 4.84117 43.4282 4.79999C43.2805 4.75293 43.1281 4.70587 42.9717 4.65293C42.8175 4.59998 42.6658 4.54702 42.5152 4.48231C42.3675 4.4176 42.2358 4.33544 42.1199 4.24132C42.0034 4.14131 41.9092 4.02345 41.8375 3.88227C41.7681 3.73521 41.734 3.56482 41.734 3.35893C41.734 3.17657 41.7716 3.00001 41.8469 2.8353C41.9222 2.66471 42.0316 2.51764 42.1763 2.39411C42.3205 2.26469 42.4975 2.16467 42.7081 2.0882C42.9181 2.01173 43.1581 1.97647 43.4282 1.97647C43.7417 1.97647 44.0223 2.02353 44.2705 2.12353C44.5211 2.22353 44.7376 2.3588 44.92 2.52939L44.7317 2.8353Z" fill="white"/>
</svg>
