<svg width="68" height="7" viewBox="0 0 68 7" fill="none" xmlns="http://www.w3.org/2000/svg">
<path d="M6.29423 0.187578L3.55146 6.90375H2.73683L0 0.187578H0.726703C0.808751 0.187578 0.873197 0.205074 0.925942 0.246098C0.972827 0.287121 1.01382 0.339872 1.03726 0.398478L2.93028 5.13972C2.9713 5.24521 3.0123 5.36247 3.04746 5.48554C3.08848 5.61448 3.12368 5.74337 3.15298 5.88402C3.18815 5.74337 3.2174 5.61448 3.25257 5.48554C3.28773 5.36247 3.32879 5.24521 3.36395 5.13972L5.2569 0.398478C5.27448 0.345733 5.30961 0.298854 5.36235 0.25783C5.42096 0.210946 5.48548 0.187578 5.56753 0.187578H6.29423ZM7.85896 2.15664V6.90375H7.0268V2.15664H7.85896ZM8.04067 0.662317C8.04067 0.744365 8.02311 0.820489 7.98794 0.890816C7.95864 0.961143 7.91169 1.02565 7.85309 1.07839C7.80034 1.13114 7.73591 1.17801 7.66558 1.20731C7.5894 1.23661 7.51319 1.25424 7.43115 1.25424C7.35496 1.25424 7.27876 1.23661 7.20258 1.20731C7.13811 1.17801 7.07368 1.13114 7.02094 1.07839C6.96819 1.02565 6.92711 0.961143 6.89195 0.890816C6.86265 0.820489 6.84509 0.744365 6.84509 0.662317C6.84509 0.58027 6.86265 0.504002 6.89195 0.433675C6.92711 0.357488 6.96819 0.292976 7.02094 0.240231C7.07368 0.187486 7.13811 0.140619 7.20258 0.111316C7.27876 0.0761529 7.35496 0.0645291 7.43115 0.0645291C7.51319 0.0645291 7.5894 0.0761529 7.66558 0.111316C7.73591 0.140619 7.80034 0.187486 7.85309 0.240231C7.91169 0.292976 7.95864 0.357488 7.98794 0.433675C8.02311 0.504002 8.04067 0.58027 8.04067 0.662317ZM12.4126 4.00867C12.4126 3.81527 12.3833 3.63937 12.3247 3.48114C12.272 3.31704 12.1958 3.18227 12.0845 3.06506C11.9848 2.94785 11.8559 2.8541 11.7094 2.78963C11.557 2.72516 11.387 2.69591 11.1936 2.69591C10.7951 2.69591 10.4787 2.81304 10.2442 3.04746C10.0157 3.27602 9.86917 3.59843 9.81057 4.00867H12.4126ZM13.0866 6.23571C12.9811 6.36464 12.858 6.47003 12.7174 6.56379C12.5709 6.65756 12.4185 6.73383 12.2485 6.79244C12.0903 6.85104 11.9203 6.89205 11.7445 6.92135C11.5687 6.95651 11.3987 6.96828 11.2229 6.96828C10.8947 6.96828 10.5959 6.91552 10.3146 6.80417C10.0391 6.69282 9.79885 6.52868 9.5996 6.3177C9.40034 6.10086 9.24207 5.83707 9.13072 5.5206C9.01351 5.20413 8.96074 4.84085 8.96074 4.43061C8.96074 4.10242 9.00763 3.79177 9.10726 3.5046C9.21275 3.21743 9.35927 2.97128 9.55266 2.7603C9.7402 2.54932 9.97466 2.37945 10.2501 2.26224C10.5256 2.13917 10.8361 2.08053 11.1761 2.08053C11.4632 2.08053 11.7269 2.12741 11.9672 2.22704C12.2075 2.32081 12.4185 2.45557 12.5943 2.63725C12.7701 2.81307 12.9108 3.03585 13.0104 3.30543C13.11 3.5633 13.1628 3.86792 13.1628 4.20197C13.1628 4.33677 13.1452 4.42479 13.1159 4.46581C13.0925 4.50684 13.0397 4.5302 12.9577 4.5302H9.7871C9.79296 4.82909 9.83396 5.09286 9.90428 5.31556C9.98047 5.53827 10.086 5.71991 10.2149 5.87229C10.3497 6.0188 10.5021 6.13019 10.6838 6.20638C10.8655 6.27671 11.0705 6.31183 11.2932 6.31183C11.5042 6.31183 11.6859 6.28846 11.8324 6.24158C11.9848 6.19469 12.1196 6.14194 12.2251 6.08333C12.3365 6.02473 12.4302 5.97784 12.5005 5.93095C12.5767 5.87821 12.6412 5.85469 12.6939 5.85469C12.7584 5.85469 12.8111 5.87821 12.8522 5.93095L13.0866 6.23571ZM20.6877 2.15664L19.1523 6.90375H18.49C18.408 6.90375 18.3552 6.851 18.32 6.74551L17.271 3.5222C17.2476 3.45187 17.2242 3.38162 17.2125 3.30543C17.1949 3.23511 17.1772 3.15885 17.1655 3.08852C17.1479 3.15885 17.1304 3.23511 17.1187 3.30543C17.1011 3.38162 17.0835 3.45188 17.0542 3.52807L15.9875 6.74551C15.9582 6.851 15.8997 6.90375 15.8 6.90375H15.1729L13.6316 2.15664H14.288C14.3584 2.15664 14.4111 2.17427 14.4521 2.20357C14.499 2.23874 14.5341 2.27974 14.5459 2.32662L15.4602 5.38582C15.5129 5.60852 15.5539 5.81955 15.5832 6.02467C15.6125 5.91918 15.6418 5.81367 15.6711 5.70818C15.7004 5.60269 15.7355 5.49131 15.7648 5.38582L16.7729 2.30902C16.7846 2.26214 16.8139 2.22115 16.8491 2.19184C16.8901 2.16254 16.937 2.14491 16.9956 2.14491H17.359C17.4234 2.14491 17.4761 2.16254 17.5171 2.19184C17.5582 2.22115 17.5875 2.26214 17.5992 2.30902L18.5779 5.38582C18.6131 5.49131 18.6483 5.60269 18.6717 5.70818C18.701 5.81367 18.7303 5.91918 18.7538 6.02467C18.7714 5.91918 18.7889 5.81367 18.8124 5.71404C18.8358 5.60855 18.8593 5.49717 18.8886 5.38582L19.8204 2.32662C19.8321 2.27974 19.8614 2.23874 19.9083 2.20357C19.9493 2.17427 20.0021 2.15664 20.0607 2.15664H20.6877ZM27.1637 4.40715L26.1087 1.67618C26.0794 1.59413 26.0443 1.50038 26.0092 1.39489C25.974 1.28354 25.9447 1.17213 25.9095 1.04906C25.845 1.30107 25.7806 1.51209 25.7103 1.68205L24.6553 4.40715H27.1637ZM29.0566 6.90375H28.3534C28.2713 6.90375 28.2068 6.88611 28.1541 6.84509C28.1072 6.80407 28.0721 6.75131 28.0427 6.68684L27.4156 5.0636H24.4033L23.7704 6.68684C23.7528 6.74545 23.7177 6.79234 23.6649 6.83922C23.6122 6.88025 23.5477 6.90375 23.4656 6.90375H22.7624L25.4524 0.187578H26.3725L29.0566 6.90375ZM30.5862 0V6.90375H29.754V0H30.5862ZM32.8015 0V6.90375H31.9693V0H32.8015ZM40.1917 1.23664C40.1624 1.28352 40.133 1.31865 40.0979 1.34209C40.0627 1.36553 40.0276 1.37729 39.9807 1.37729C39.928 1.37729 39.8635 1.34791 39.7931 1.29516C39.7228 1.24241 39.629 1.18379 39.5177 1.12518C39.4122 1.05485 39.2833 0.996358 39.1309 0.943613C38.9785 0.890868 38.7969 0.867351 38.58 0.867351C38.3808 0.867351 38.1991 0.890873 38.0408 0.949479C37.8884 1.00222 37.7596 1.07834 37.6541 1.17211C37.5486 1.26588 37.4724 1.37727 37.4196 1.50034C37.3669 1.62927 37.3376 1.76403 37.3376 1.91055C37.3376 2.09808 37.3845 2.25635 37.4782 2.37942C37.572 2.50249 37.6892 2.608 37.8416 2.69591C37.994 2.78382 38.1639 2.85995 38.3573 2.92441C38.5507 2.98302 38.75 3.05339 38.9492 3.11786C39.1485 3.18818 39.3478 3.26431 39.5412 3.35222C39.7346 3.44013 39.9045 3.54565 40.0569 3.68045C40.2093 3.80938 40.3323 3.96765 40.4202 4.16105C40.514 4.35445 40.5609 4.58884 40.5609 4.86429C40.5609 5.15732 40.5081 5.43272 40.4085 5.69644C40.3089 5.94845 40.1624 6.17123 39.969 6.36463C39.7814 6.55803 39.5412 6.70455 39.2599 6.8159C38.9844 6.92139 38.6679 6.97987 38.3105 6.97987C37.8709 6.97987 37.4782 6.89788 37.1207 6.74551C36.7633 6.58727 36.4585 6.37037 36.2065 6.10079L36.4702 5.67298C36.4937 5.63782 36.523 5.60857 36.5582 5.58513C36.5933 5.56168 36.6343 5.54993 36.6812 5.54993C36.7222 5.54993 36.7632 5.56756 36.816 5.60273C36.8687 5.63203 36.9274 5.67302 36.9918 5.71991C37.0563 5.77265 37.1324 5.82542 37.2203 5.88402C37.3024 5.94849 37.3962 6.00125 37.5017 6.04813C37.613 6.10088 37.7361 6.14189 37.8768 6.17705C38.0116 6.20635 38.1639 6.22398 38.3397 6.22398C38.5566 6.22398 38.7441 6.19459 38.914 6.13599C39.084 6.07738 39.2247 5.99537 39.3419 5.88402C39.4591 5.77853 39.5529 5.64965 39.6115 5.49728C39.6759 5.3449 39.7053 5.18074 39.7053 4.99321C39.7053 4.79395 39.6583 4.62394 39.5646 4.50087C39.4766 4.36607 39.3536 4.26069 39.2071 4.17278C39.0547 4.08488 38.8847 4.00861 38.6913 3.95001C38.4979 3.88554 38.2987 3.8269 38.0994 3.76243C37.9002 3.69797 37.701 3.62185 37.5076 3.5398C37.3142 3.45189 37.1442 3.34637 36.9918 3.21157C36.8453 3.07678 36.7222 2.9069 36.6285 2.70765C36.5347 2.50253 36.4936 2.25637 36.4936 1.95748C36.4936 1.71719 36.5347 1.48853 36.6285 1.26583C36.7222 1.04899 36.857 0.849729 37.0328 0.679773C37.2086 0.503956 37.4255 0.369186 37.6833 0.263696C37.9412 0.164067 38.2401 0.111316 38.5742 0.111316C38.9492 0.111316 39.2891 0.16995 39.5939 0.287162C39.9045 0.404373 40.1741 0.580264 40.4085 0.802965L40.1917 1.23664ZM42.8934 6.97987C42.5183 6.97987 42.2311 6.8745 42.026 6.66352C41.8268 6.45254 41.7271 6.15363 41.7271 5.76097V2.85416H41.1587C41.1059 2.85416 41.0649 2.83654 41.0297 2.8131C40.9945 2.77793 40.977 2.73105 40.977 2.67245V2.33836L41.7565 2.23877L41.9498 0.773634C41.9557 0.726749 41.9791 0.685754 42.0084 0.656451C42.0436 0.627148 42.0905 0.609521 42.1432 0.609521H42.5652V2.25051H43.9366V2.85416H42.5652V5.70231C42.5652 5.90157 42.6121 6.05395 42.7059 6.14772C42.8055 6.24735 42.9285 6.29423 43.0809 6.29423C43.1688 6.29423 43.245 6.28248 43.3095 6.25903C43.3739 6.23559 43.4326 6.21222 43.4794 6.18292C43.5263 6.15361 43.5615 6.1301 43.5966 6.10665C43.6259 6.08321 43.6611 6.0716 43.6845 6.0716C43.7256 6.0716 43.7666 6.09497 43.8018 6.14772L44.042 6.5462C43.9014 6.68099 43.7256 6.78651 43.5263 6.86855C43.3212 6.93888 43.1102 6.97987 42.8934 6.97987ZM48.7012 2.15664V6.90375H48.2089C48.0858 6.90375 48.0155 6.84512 47.9804 6.72791L47.9158 6.21811C47.7107 6.44667 47.4763 6.63418 47.2243 6.77484C46.9665 6.90963 46.6734 6.97987 46.3394 6.97987C46.0815 6.97987 45.8529 6.93886 45.6537 6.85096C45.4544 6.76305 45.2903 6.64005 45.1555 6.48768C45.0208 6.32944 44.9211 6.14192 44.8508 5.91922C44.7863 5.69652 44.7512 5.45037 44.7512 5.18078V2.15664H45.5834V5.18078C45.5834 5.54414 45.6654 5.81954 45.8295 6.0188C45.9936 6.2122 46.2456 6.31183 46.5856 6.31183C46.8317 6.31183 47.0602 6.2532 47.2712 6.14185C47.488 6.01878 47.6873 5.86064 47.869 5.64966V2.15664H48.7012ZM53.12 3.28197C52.9677 3.07685 52.7977 2.93034 52.616 2.84829C52.4343 2.76625 52.2293 2.71938 52.0066 2.71938C51.567 2.71938 51.2271 2.8775 50.9868 3.19397C50.7524 3.51044 50.6293 3.96174 50.6293 4.5478C50.6293 4.85255 50.6586 5.1222 50.7113 5.3449C50.7641 5.56174 50.8403 5.74337 50.9458 5.88402C51.0513 6.02467 51.1744 6.13018 51.3267 6.19465C51.4732 6.25911 51.6432 6.29423 51.8366 6.29423C52.112 6.29423 52.3523 6.22973 52.5516 6.10665C52.7625 5.98358 52.9501 5.80782 53.12 5.57926V3.28197ZM53.9581 0V6.90375H53.46C53.3428 6.90375 53.2666 6.84512 53.2314 6.72791L53.1611 6.15358C52.956 6.39973 52.7215 6.59313 52.4636 6.74551C52.2058 6.89202 51.9069 6.96828 51.567 6.96828C51.2916 6.96828 51.0454 6.91553 50.8227 6.8159C50.6 6.71041 50.4125 6.55215 50.2543 6.35289C50.1019 6.14778 49.9788 5.89574 49.8967 5.59099C49.8088 5.28624 49.7678 4.94045 49.7678 4.5478C49.7678 4.19616 49.8147 3.86802 49.9084 3.56913C50.0022 3.26438 50.1371 3.00647 50.3129 2.78376C50.4887 2.56106 50.6996 2.38531 50.9575 2.26224C51.2095 2.13331 51.4967 2.06879 51.819 2.06879C52.1062 2.06879 52.3582 2.12154 52.5633 2.22117C52.7743 2.31494 52.9559 2.45556 53.12 2.62552V0H53.9581ZM58.4532 4.00867C58.4532 3.81527 58.4239 3.63937 58.3711 3.48114C58.3125 3.31704 58.2363 3.18227 58.1308 3.06506C58.0253 2.94785 57.9023 2.8541 57.7499 2.78963C57.5975 2.72516 57.4275 2.69591 57.24 2.69591C56.8356 2.69591 56.5192 2.81304 56.2847 3.04746C56.0562 3.27602 55.9097 3.59843 55.8569 4.00867H58.4532ZM59.1271 6.23571C59.0275 6.36464 58.8985 6.47003 58.7579 6.56379C58.6114 6.65756 58.459 6.73383 58.2949 6.79244C58.1308 6.85104 57.9609 6.89205 57.7851 6.92135C57.6093 6.95651 57.4393 6.96828 57.2693 6.96828C56.9412 6.96828 56.6364 6.91552 56.3551 6.80417C56.0796 6.69282 55.8452 6.52868 55.6401 6.3177C55.4408 6.10086 55.2826 5.83707 55.1712 5.5206C55.0599 5.20413 55.0013 4.84085 55.0013 4.43061C55.0013 4.10242 55.0541 3.79177 55.1537 3.5046C55.2533 3.21743 55.3998 2.97128 55.5932 2.7603C55.7808 2.54932 56.0152 2.37945 56.2906 2.26224C56.5661 2.13917 56.8766 2.08053 57.2224 2.08053C57.5037 2.08053 57.7675 2.12741 58.0078 2.22704C58.2539 2.32081 58.459 2.45557 58.6348 2.63725C58.8165 2.81307 58.9513 3.03585 59.0509 3.30543C59.1505 3.5633 59.2033 3.86792 59.2033 4.20197C59.2033 4.33677 59.1916 4.42479 59.1623 4.46581C59.133 4.50684 59.0802 4.5302 59.004 4.5302H55.8276C55.8393 4.82909 55.8745 5.09286 55.9507 5.31556C56.0269 5.53827 56.1266 5.71991 56.2613 5.87229C56.3903 6.0188 56.5485 6.13019 56.7301 6.20638C56.906 6.27671 57.1111 6.31183 57.3397 6.31183C57.5448 6.31183 57.7264 6.28846 57.8788 6.24158C58.0312 6.19469 58.1601 6.14194 58.2715 6.08333C58.377 6.02473 58.4707 5.97784 58.541 5.93095C58.6172 5.87821 58.6817 5.85469 58.7345 5.85469C58.8048 5.85469 58.8576 5.87821 58.8927 5.93095L59.1271 6.23571ZM61.0143 2.84243C61.1197 2.72522 61.2252 2.62557 61.3424 2.5318C61.4596 2.43803 61.5827 2.35589 61.7116 2.29143C61.8406 2.2211 61.9754 2.16849 62.1219 2.13332C62.2684 2.09816 62.4266 2.08053 62.5966 2.08053C62.8544 2.08053 63.083 2.12153 63.2823 2.20944C63.4815 2.29735 63.6456 2.41464 63.7745 2.57873C63.9093 2.7311 64.0148 2.92448 64.0793 3.14132C64.1496 3.36402 64.1848 3.61017 64.1848 3.87976V6.90375H63.3467V3.87976C63.3467 3.52226 63.2647 3.24086 63.0947 3.04746C62.9365 2.84234 62.6845 2.7427 62.3504 2.7427C62.1043 2.7427 61.8757 2.8072 61.6589 2.92441C61.4479 3.04162 61.2487 3.20576 61.067 3.40502V6.90375H60.2289V2.15664H60.7271C60.8502 2.15664 60.9205 2.20941 60.9498 2.32662L61.0143 2.84243ZM66.8513 6.97987C66.4763 6.97987 66.1891 6.8745 65.984 6.66352C65.7847 6.45254 65.6851 6.15363 65.6851 5.76097V2.85416H65.1108C65.0639 2.85416 65.017 2.83654 64.9819 2.8131C64.9526 2.77793 64.9349 2.73105 64.9349 2.67245V2.33836L65.7086 2.23877L65.9019 0.773634C65.9137 0.726749 65.9312 0.685754 65.9664 0.656451C66.0016 0.627148 66.0426 0.609521 66.0953 0.609521H66.5173V2.25051H67.8887V2.85416H66.5173V5.70231C66.5173 5.90157 66.5642 6.05395 66.6638 6.14772C66.7576 6.24735 66.8865 6.29423 67.0388 6.29423C67.1268 6.29423 67.2029 6.28248 67.2616 6.25903C67.326 6.23559 67.3846 6.21222 67.4315 6.18292C67.4784 6.15361 67.5194 6.1301 67.5487 6.10665C67.5839 6.08321 67.6132 6.0716 67.6366 6.0716C67.6835 6.0716 67.7187 6.09497 67.7539 6.14772L68 6.5462C67.8535 6.68099 67.6835 6.78651 67.4784 6.86855C67.2733 6.93888 67.0682 6.97987 66.8513 6.97987Z" fill="white"/>
</svg>
