<svg width="149" height="34" viewBox="0 0 149 34" fill="none" xmlns="http://www.w3.org/2000/svg">
<path d="M3.06418 1.10896V5.36422H5.42938C6.04304 5.36422 6.45292 5.27134 6.6596 5.08556C6.93479 4.84173 7.08805 4.41214 7.11998 3.80255H7.41374V7.54727H7.11998C7.04567 7.02477 6.97193 6.68791 6.89761 6.53696C6.8024 6.35699 6.64625 6.20604 6.42912 6.10154C6.21257 5.99704 5.87932 5.94478 5.42938 5.94478H3.06418V9.4922C3.06418 9.96826 3.08509 10.2585 3.12747 10.363C3.16985 10.4675 3.24358 10.5486 3.34982 10.6125C3.45548 10.6706 3.65636 10.6998 3.95302 10.6998H5.77831C6.38732 10.6998 6.82912 10.659 7.1043 10.572C7.37949 10.4849 7.64365 10.3224 7.89793 10.0728C8.22595 9.74184 8.56209 9.24833 8.90578 8.58649H9.22334L8.29444 11.286H0V10.9901H0.38085C0.635135 10.9901 0.876065 10.932 1.10364 10.8101C1.27259 10.723 1.38638 10.601 1.44444 10.4268C1.5083 10.2585 1.54022 9.9101 1.54022 9.3876V2.39764C1.54022 1.71258 1.47114 1.29448 1.33354 1.13192C1.14312 0.922919 0.825559 0.818679 0.38085 0.818679H0V0.522447H8.29444L8.41347 2.87955H8.10402C7.99313 2.31641 7.86889 1.92729 7.7313 1.71248C7.59893 1.50348 7.40038 1.34116 7.13565 1.23085C6.92432 1.14958 6.55102 1.10896 6.01691 1.10896H3.06418ZM9.81841 4.01743H13.2397V4.3077C13.0225 4.3077 12.8693 4.34831 12.7793 4.41798C12.6945 4.49345 12.6521 4.59229 12.6521 4.71421C12.6521 4.84193 12.745 5.03919 12.9302 5.30044C12.9883 5.38752 13.0754 5.52102 13.192 5.70099L13.7082 6.52534L14.3032 5.70099C14.6841 5.17268 14.8745 4.84179 14.8745 4.70826C14.8745 4.59215 14.8298 4.50507 14.7398 4.4296C14.6498 4.34832 14.5041 4.3077 14.3032 4.3077V4.01743H16.7637V4.3077C16.5047 4.32512 16.2795 4.39486 16.089 4.52258C15.8295 4.70255 15.4754 5.09721 15.0254 5.70099L14.0333 7.02482L15.8429 9.62572C16.2876 10.2701 16.6052 10.6533 16.7956 10.7868C16.986 10.9146 17.2322 10.984 17.5335 11.0014V11.286H14.1047V11.0014C14.3427 11.0014 14.5279 10.9493 14.6603 10.839C14.7607 10.7693 14.8112 10.6706 14.8112 10.5487C14.8112 10.4268 14.6417 10.1192 14.3032 9.62572L13.2397 8.06972L12.0727 9.62572C11.7128 10.1076 11.5328 10.392 11.5328 10.4849C11.5328 10.6127 11.5914 10.7288 11.7076 10.8333C11.8295 10.932 12.0095 10.9898 12.2475 11.0014V11.286H9.87415V11.0014C10.0646 10.9724 10.2312 10.9086 10.374 10.8041C10.5755 10.6474 10.9139 10.2585 11.39 9.62572L12.914 7.60538L11.5328 5.60234C11.1415 5.03339 10.8373 4.67354 10.6202 4.5342C10.4088 4.38326 10.1412 4.3077 9.81841 4.3077V4.01743ZM17.7163 4.73745L19.9544 3.83175H20.2563V5.53261C20.6319 4.89399 21.0075 4.44112 21.3832 4.19148C21.764 3.93023 22.164 3.80255 22.582 3.80255C23.3124 3.80255 23.9208 4.08715 24.4073 4.6561C25.0053 5.35857 25.3043 6.26422 25.3043 7.39051C25.3043 8.64452 24.9443 9.67783 24.225 10.5022C23.6322 11.1699 22.8862 11.5066 21.9864 11.5066C21.5951 11.5066 21.2566 11.4545 20.9704 11.3442C20.7591 11.2629 20.521 11.1059 20.2563 10.8679V13.0799C20.2563 13.5792 20.2853 13.8929 20.3434 14.0264C20.4072 14.1599 20.5129 14.27 20.6609 14.3513C20.8142 14.4267 21.0894 14.4675 21.4865 14.4675V14.7637H17.6763V14.4675H17.8748C18.1663 14.4733 18.4148 14.4212 18.6209 14.3051C18.7219 14.247 18.7985 14.1483 18.8513 14.0148C18.9094 13.8871 18.9384 13.5617 18.9384 13.0334V6.15966C18.9384 5.6894 18.9175 5.38762 18.8751 5.2599C18.8328 5.13218 18.7643 5.03915 18.6685 4.97529C18.5791 4.91143 18.4542 4.88259 18.2958 4.88259C18.1686 4.88259 18.0072 4.91739 17.8116 4.99287L17.7163 4.73745ZM20.2563 5.99722V8.71406C20.2563 9.30042 20.2801 9.6894 20.3277 9.87518C20.4014 10.1829 20.5814 10.45 20.8676 10.6822C21.1585 10.9145 21.5236 11.0306 21.9626 11.0306C22.492 11.0306 22.9205 10.8274 23.2485 10.4152C23.6769 9.87528 23.8917 9.11465 23.8917 8.1335C23.8917 7.02463 23.6479 6.1714 23.1614 5.57343C22.8224 5.16123 22.4206 4.95205 21.955 4.95205C21.7007 4.95205 21.4493 5.01595 21.2009 5.14368C21.0104 5.23657 20.6952 5.52116 20.2563 5.99722ZM27.5905 6.75184C27.5853 7.83168 27.8471 8.67923 28.376 9.29462C28.9055 9.91001 29.5272 10.2119 30.2413 10.2119C30.7174 10.2119 31.1302 10.0843 31.4797 9.82302C31.8344 9.56177 32.1305 9.10903 32.3685 8.47622L32.6147 8.63299C32.5038 9.35868 32.181 10.0205 31.6463 10.6185C31.1116 11.2106 30.4422 11.5066 29.6381 11.5066C28.765 11.5066 28.0161 11.1699 27.392 10.4906C26.7725 9.81135 26.4631 8.89408 26.4631 7.74457C26.4631 6.50217 26.7806 5.53264 27.4157 4.84177C28.0561 4.1451 28.8579 3.79093 29.8204 3.79093C30.6355 3.79093 31.3049 4.06402 31.8286 4.60394C32.3528 5.13805 32.6147 5.85197 32.6147 6.75184H27.5905ZM27.5905 6.29317H30.956C30.9293 5.82872 30.8736 5.49784 30.7888 5.31206C30.657 5.01017 30.4585 4.77797 30.1937 4.60961C29.9342 4.44124 29.6619 4.3542 29.3763 4.3542C28.9368 4.3542 28.5426 4.52844 28.1937 4.87097C27.8494 5.2135 27.6485 5.68359 27.5905 6.29317ZM35.7183 3.80255V5.43396C36.3268 4.34831 36.9509 3.80255 37.5912 3.80255C37.8827 3.80255 38.123 3.88961 38.3134 4.06958C38.5039 4.24375 38.5996 4.44712 38.5996 4.67934C38.5996 4.88834 38.5306 5.06232 38.393 5.20746C38.2554 5.34679 38.0917 5.42233 37.9007 5.42233C37.7154 5.42233 37.5065 5.3296 37.2737 5.14963C37.0461 4.96385 36.8771 4.87097 36.7657 4.87097C36.6705 4.87097 36.5677 4.9231 36.4562 5.0334C36.2182 5.24821 35.972 5.60807 35.7183 6.10154V9.5849C35.7183 9.99129 35.7683 10.2932 35.8687 10.5022C35.9378 10.6416 36.0597 10.7634 36.2339 10.8563C36.4086 10.955 36.66 11.0014 36.988 11.0014V11.286H33.2655V11.0014C33.6359 11.0014 33.9111 10.9435 34.091 10.8274C34.2234 10.7403 34.3157 10.6066 34.3685 10.4209C34.3952 10.328 34.4086 10.0728 34.4086 9.64896V6.83319C34.4086 5.98558 34.39 5.48624 34.3529 5.32368C34.3209 5.16113 34.2576 5.03929 34.1624 4.96962C34.0724 4.89415 33.9586 4.85935 33.8211 4.85935C33.6573 4.85935 33.4721 4.89401 33.2655 4.97529L33.1859 4.69096L35.3845 3.80255H35.7183ZM40.8534 0C41.0757 0 41.2638 0.081369 41.4171 0.23812C41.5762 0.389065 41.6551 0.580491 41.6551 0.801104C41.6551 1.02172 41.5762 1.21329 41.4171 1.37004C41.2638 1.5326 41.0757 1.60816 40.8534 1.60816C40.6316 1.60816 40.4406 1.5326 40.2821 1.37004C40.1236 1.21329 40.0441 1.02172 40.0441 0.801104C40.0441 0.580491 40.1207 0.389065 40.274 0.23812C40.4331 0.081369 40.6258 0 40.8534 0ZM41.5123 3.80255V9.64301C41.5123 10.0958 41.5442 10.4037 41.6075 10.5547C41.6766 10.7056 41.7741 10.8157 41.9013 10.8912C42.0336 10.9608 42.2717 11.0014 42.616 11.0014V11.286H39.0838V11.0014C39.438 11.0014 39.676 10.9668 39.7979 10.8971C39.9198 10.8274 40.0151 10.7172 40.0836 10.5547C40.1579 10.3979 40.195 10.09 40.195 9.64301V6.83886C40.195 6.05511 40.1712 5.54428 40.1236 5.31206C40.0865 5.13789 40.0278 5.02186 39.9489 4.958C39.8693 4.89414 39.7608 4.85935 39.6232 4.85935C39.4751 4.85935 39.2951 4.89401 39.0838 4.97529L38.9724 4.69096L41.1634 3.80255H41.5123ZM44.7507 6.75184C44.7454 7.83168 45.0073 8.67923 45.5368 9.29462C46.0656 9.91001 46.6874 10.2119 47.4021 10.2119C47.8781 10.2119 48.2909 10.0843 48.6398 9.82302C48.9946 9.56177 49.2912 9.10903 49.5293 8.47622L49.7754 8.63299C49.6639 9.35868 49.3412 10.0205 48.807 10.6185C48.2723 11.2106 47.603 11.5066 46.7989 11.5066C45.9257 11.5066 45.1768 11.1699 44.5521 10.4906C43.9332 9.81135 43.6238 8.89408 43.6238 7.74457C43.6238 6.50217 43.9414 5.53264 44.5759 4.84177C45.2163 4.1451 46.018 3.79093 46.9812 3.79093C47.7963 3.79093 48.4657 4.06402 48.9893 4.60394C49.513 5.13805 49.7754 5.85197 49.7754 6.75184H44.7507ZM44.7507 6.29317H48.1162C48.0901 5.82872 48.0343 5.49784 47.9495 5.31206C47.8172 5.01017 47.6186 4.77797 47.3545 4.60961C47.095 4.44124 46.8227 4.3542 46.5365 4.3542C46.0976 4.3542 45.7034 4.52844 45.3539 4.87097C45.0102 5.2135 44.8093 5.68359 44.7507 6.29317ZM52.871 5.34098C53.7226 4.31339 54.5348 3.80255 55.3076 3.80255C55.7041 3.80255 56.0455 3.90126 56.3317 4.10445C56.6173 4.29604 56.8449 4.62125 57.0138 5.07989C57.1305 5.3992 57.1886 5.88093 57.1886 6.53696V9.64301C57.1886 10.1017 57.2257 10.4151 57.2995 10.5776C57.3581 10.7112 57.4504 10.8157 57.5775 10.8912C57.7099 10.9608 57.9508 11.0014 58.2998 11.0014V11.286H54.7044V11.0014H54.8553C55.1938 11.0014 55.4289 10.9493 55.5613 10.8506C55.6989 10.7461 55.7941 10.5893 55.8475 10.392C55.8684 10.3107 55.8788 10.061 55.8788 9.64301V6.66481C55.8788 6.00297 55.7917 5.52679 55.617 5.2307C55.4475 4.92881 55.1595 4.77799 54.752 4.77799C54.1221 4.77799 53.4951 5.1204 52.871 5.81126V9.64301C52.871 10.1365 52.9 10.4386 52.958 10.5547C53.0324 10.7114 53.1328 10.8216 53.2594 10.8971C53.3917 10.9668 53.6564 11.0014 54.0535 11.0014V11.286H50.4576V11.0014H50.6167C50.987 11.0014 51.2355 10.9086 51.3627 10.7228C51.495 10.5312 51.5612 10.1713 51.5612 9.64301V6.94347C51.5612 6.07263 51.5397 5.53851 51.4974 5.34693C51.4608 5.16115 51.3998 5.02767 51.3151 4.958C51.2355 4.89414 51.127 4.85935 50.9894 4.85935C50.8413 4.85935 50.6642 4.89401 50.4576 4.97529L50.3386 4.69096L52.5296 3.80255H52.871V5.34098ZM65.0546 8.52271C64.8589 9.48064 64.4752 10.2178 63.9033 10.7403C63.3321 11.2512 62.6998 11.5066 62.0066 11.5066C61.1811 11.5066 60.4612 11.164 59.8475 10.4674C59.2339 9.77649 58.9268 8.83608 58.9268 7.65754C58.9268 6.51384 59.2658 5.58506 59.9428 4.87097C60.6255 4.15688 61.4429 3.80255 62.3956 3.80255C63.1097 3.80255 63.6972 3.99412 64.1576 4.37149C64.618 4.74885 64.8479 5.13798 64.8479 5.55018C64.8479 5.74757 64.7823 5.91004 64.6499 6.03776C64.5228 6.15968 64.3428 6.22344 64.11 6.22344C63.7977 6.22344 63.5625 6.11893 63.4035 5.92154C63.3135 5.81123 63.2525 5.59665 63.2212 5.28315C63.1945 4.97545 63.0888 4.73743 62.9036 4.56907C62.7184 4.41232 62.4618 4.33095 62.1338 4.33095C61.6043 4.33095 61.1782 4.52835 60.8554 4.92313C60.4269 5.43983 60.2127 6.12491 60.2127 6.97833C60.2127 7.84337 60.4246 8.60968 60.8478 9.27733C61.2763 9.93916 61.8534 10.2701 62.5779 10.2701C63.0969 10.2701 63.5625 10.0901 63.9753 9.73599C64.2662 9.49216 64.5489 9.05077 64.8241 8.41216L65.0546 8.52271ZM67.3246 6.75184C67.3193 7.83168 67.5812 8.67923 68.1106 9.29462C68.6395 9.91001 69.2613 10.2119 69.9754 10.2119C70.452 10.2119 70.8648 10.0843 71.2137 9.82302C71.5684 9.56177 71.8645 9.10903 72.1032 8.47622L72.3487 8.63299C72.2378 9.35868 71.9151 10.0205 71.3804 10.6185C70.8462 11.2106 70.1768 11.5066 69.3722 11.5066C68.499 11.5066 67.7507 11.1699 67.126 10.4906C66.5071 9.81135 66.1977 8.89408 66.1977 7.74457C66.1977 6.50217 66.5153 5.53264 67.1498 4.84177C67.7902 4.1451 68.5919 3.79093 69.5551 3.79093C70.3702 3.79093 71.0396 4.06402 71.5632 4.60394C72.0869 5.13805 72.3487 5.85197 72.3487 6.75184H67.3246ZM67.3246 6.29317H70.6901C70.6634 5.82872 70.6082 5.49784 70.5234 5.31206C70.3911 5.01017 70.1925 4.77797 69.9278 4.60961C69.6689 4.44124 69.396 4.3542 69.1104 4.3542C68.6714 4.3542 68.2773 4.52844 67.9278 4.87097C67.5841 5.2135 67.3826 5.68359 67.3246 6.29317ZM79.5006 1.62545V4.01743H81.1993V4.56907H79.5006V9.283C79.5006 9.75906 79.5668 10.0728 79.6992 10.2411C79.8362 10.4037 80.0109 10.4849 80.2228 10.4849C80.3976 10.4849 80.5665 10.4327 80.7308 10.3282C80.8945 10.2121 81.0217 10.0551 81.1117 9.84031H81.4211C81.2359 10.357 80.9741 10.7519 80.6356 11.019C80.2966 11.2745 79.9477 11.4079 79.5877 11.4079C79.3444 11.4079 79.1064 11.3382 78.8736 11.2047C78.6408 11.0712 78.4684 10.8739 78.3575 10.6301C78.2466 10.3746 78.1909 9.98551 78.1909 9.463V4.56907H77.0396V4.3077C77.3311 4.19159 77.6272 3.99434 77.9291 3.72148C78.2356 3.44281 78.5085 3.11163 78.7465 2.72846C78.8684 2.53107 79.0374 2.15957 79.2545 1.62545H79.5006ZM84.0487 0V5.31801C84.6357 4.67359 85.1019 4.26118 85.4456 4.08121C85.7893 3.89543 86.1335 3.80255 86.4772 3.80255C86.89 3.80255 87.2447 3.91305 87.5408 4.14527C87.8375 4.37169 88.0569 4.72574 88.1997 5.21341C88.3002 5.55014 88.3507 6.17145 88.3507 7.07131V9.64301C88.3507 10.1017 88.3878 10.4209 88.4616 10.5893C88.5144 10.717 88.6044 10.8157 88.7315 10.8912C88.8587 10.9608 89.0915 11.0014 89.4299 11.0014V11.286H85.8583V11.0014H86.025C86.3634 11.0014 86.5991 10.9493 86.7315 10.8506C86.8639 10.7461 86.9562 10.5893 87.009 10.392C87.0253 10.3049 87.0328 10.0552 87.0328 9.64301V7.07131C87.0328 6.27595 86.9904 5.759 86.9062 5.50936C86.8267 5.25972 86.6973 5.07396 86.5173 4.95205C86.3373 4.82432 86.1202 4.76042 85.8665 4.76042C85.6069 4.76042 85.337 4.83029 85.0566 4.96962C84.7762 5.10315 84.44 5.38164 84.0487 5.79964V9.64301C84.0487 10.1423 84.0749 10.45 84.1277 10.572C84.1863 10.6939 84.2891 10.7983 84.4377 10.8795C84.591 10.9608 84.8528 11.0014 85.2232 11.0014V11.286H81.6197V11.0014C81.9425 11.0014 82.1967 10.9493 82.3819 10.8506C82.4876 10.7984 82.5724 10.6939 82.6356 10.5487C82.6989 10.3978 82.7309 10.0958 82.7309 9.64301V3.06523C82.7309 2.22922 82.71 1.72434 82.6676 1.53276C82.6304 1.34117 82.5695 1.21321 82.4847 1.14354C82.4057 1.07388 82.2972 1.03922 82.1596 1.03922C82.0481 1.03922 81.8681 1.0797 81.6197 1.16679L81.5088 0.888131L83.6835 0H84.0487ZM91.2633 6.75184C91.2581 7.83168 91.52 8.67923 92.0494 9.29462C92.5783 9.91001 93.2001 10.2119 93.9148 10.2119C94.3908 10.2119 94.8036 10.0843 95.1531 9.82302C95.5072 9.56177 95.8039 9.10903 96.0419 8.47622L96.2881 8.63299C96.1766 9.35868 95.8538 10.0205 95.3197 10.6185C94.785 11.2106 94.1156 11.5066 93.3116 11.5066C92.4384 11.5066 91.6895 11.1699 91.0654 10.4906C90.4459 9.81135 90.1365 8.89408 90.1365 7.74457C90.1365 6.50217 90.4541 5.53264 91.0892 4.84177C91.7295 4.1451 92.5307 3.79093 93.4938 3.79093C94.3089 3.79093 94.9783 4.06402 95.502 4.60394C96.0262 5.13805 96.2881 5.85197 96.2881 6.75184H91.2633ZM91.2633 6.29317H94.6289C94.6027 5.82872 94.547 5.49784 94.4622 5.31206C94.3299 5.01017 94.1319 4.77797 93.8671 4.60961C93.6076 4.44124 93.3353 4.3542 93.0497 4.3542C92.6102 4.3542 92.216 4.52844 91.8666 4.87097C91.5229 5.2135 91.322 5.68359 91.2633 6.29317ZM108.329 5.79397C109.075 5.95072 109.633 6.2062 110.004 6.55454C110.517 7.04221 110.774 7.64023 110.774 8.34271C110.774 8.87682 110.604 9.38766 110.266 9.88113C109.927 10.3688 109.461 10.723 108.869 10.9552C108.281 11.1758 107.381 11.286 106.17 11.286H101.09V10.9901H101.495C101.944 10.9901 102.267 10.8505 102.463 10.566C102.585 10.3802 102.646 9.98571 102.646 9.38193V2.42684C102.646 1.7592 102.569 1.34096 102.415 1.16679C102.209 0.934564 101.902 0.818679 101.495 0.818679H101.09V0.522447H105.741C106.609 0.522447 107.305 0.586354 107.829 0.714077C108.623 0.905661 109.228 1.24239 109.647 1.73006C110.065 2.21192 110.274 2.76932 110.274 3.39633C110.274 3.93625 110.109 4.41811 109.781 4.84773C109.453 5.27154 108.969 5.58497 108.329 5.79397ZM104.17 5.36422C104.365 5.39905 104.588 5.42831 104.836 5.45153C105.091 5.46895 105.368 5.47478 105.67 5.47478C106.443 5.47478 107.022 5.39326 107.408 5.2307C107.8 5.06234 108.098 4.80133 108.305 4.4588C108.511 4.11627 108.615 3.73865 108.615 3.33226C108.615 2.70526 108.358 2.16533 107.845 1.7241C107.331 1.27707 106.583 1.05652 105.599 1.05652C105.069 1.05652 104.593 1.11474 104.17 1.23085V5.36422ZM104.17 10.5082C104.783 10.6533 105.39 10.7228 105.987 10.7228C106.945 10.7228 107.675 10.508 108.178 10.0784C108.681 9.64301 108.932 9.10903 108.932 8.47622C108.932 8.05822 108.818 7.65759 108.591 7.26861C108.363 6.88544 107.993 6.57757 107.48 6.35695C106.966 6.13634 106.331 6.02614 105.575 6.02614C105.247 6.02614 104.966 6.02615 104.733 6.03776C104.501 6.04937 104.313 6.06684 104.17 6.09587V10.5082ZM113.393 6.75184C113.388 7.83168 113.65 8.67923 114.179 9.29462C114.708 9.91001 115.33 10.2119 116.044 10.2119C116.52 10.2119 116.933 10.0843 117.282 9.82302C117.637 9.56177 117.933 9.10903 118.171 8.47622L118.417 8.63299C118.306 9.35868 117.984 10.0205 117.449 10.6185C116.914 11.2106 116.245 11.5066 115.441 11.5066C114.568 11.5066 113.819 11.1699 113.195 10.4906C112.575 9.81135 112.266 8.89408 112.266 7.74457C112.266 6.50217 112.583 5.53264 113.218 4.84177C113.859 4.1451 114.66 3.79093 115.623 3.79093C116.438 3.79093 117.108 4.06402 117.631 4.60394C118.155 5.13805 118.417 5.85197 118.417 6.75184H113.393ZM113.393 6.29317H116.759C116.732 5.82872 116.676 5.49784 116.591 5.31206C116.46 5.01017 116.261 4.77797 115.996 4.60961C115.737 4.44124 115.465 4.3542 115.179 4.3542C114.739 4.3542 114.345 4.52844 113.996 4.87097C113.652 5.2135 113.451 5.68359 113.393 6.29317ZM124.092 3.80255V6.27588H123.83C123.63 5.49793 123.37 4.96963 123.052 4.69096C122.741 4.4123 122.341 4.26717 121.854 4.26717C121.484 4.26717 121.185 4.36573 120.957 4.56312C120.73 4.76051 120.616 4.97538 120.616 5.21341C120.616 5.5095 120.701 5.76498 120.87 5.97398C121.034 6.19459 121.367 6.42097 121.87 6.66481L123.029 7.22779C124.103 7.7561 124.64 8.44715 124.64 9.30057C124.64 9.96241 124.389 10.4964 123.886 10.9028C123.389 11.3092 122.83 11.5066 122.211 11.5066C121.767 11.5066 121.259 11.4313 120.687 11.2687C120.513 11.2165 120.37 11.1931 120.259 11.1931C120.137 11.1931 120.042 11.257 119.973 11.3963H119.711V8.80137H119.973C120.121 9.54449 120.404 10.1016 120.823 10.479C121.241 10.8505 121.708 11.0423 122.227 11.0423C122.592 11.0423 122.889 10.9318 123.116 10.7228C123.349 10.508 123.465 10.2468 123.465 9.94491C123.465 9.57916 123.336 9.27156 123.076 9.02192C122.823 8.77808 122.312 8.4587 121.545 8.08134C120.777 7.69817 120.274 7.35577 120.036 7.04807C119.798 6.74618 119.679 6.36288 119.679 5.90424C119.679 5.30627 119.883 4.80694 120.29 4.40635C120.703 3.99996 121.235 3.80255 121.886 3.80255C122.172 3.80255 122.518 3.86064 122.926 3.98256C123.195 4.06384 123.375 4.10445 123.465 4.10445C123.55 4.10445 123.616 4.08698 123.664 4.04634C123.711 4.01151 123.767 3.93027 123.83 3.80255H124.092ZM127.839 1.62545V4.01743H129.537V4.56907H127.839V9.283C127.839 9.75906 127.905 10.0728 128.037 10.2411C128.175 10.4037 128.349 10.4849 128.561 10.4849C128.736 10.4849 128.905 10.4327 129.069 10.3282C129.233 10.2121 129.36 10.0551 129.45 9.84031H129.76C129.574 10.357 129.313 10.7519 128.974 11.019C128.635 11.2745 128.286 11.4079 127.926 11.4079C127.683 11.4079 127.444 11.3382 127.212 11.2047C126.979 11.0712 126.807 10.8739 126.696 10.6301C126.585 10.3746 126.529 9.98551 126.529 9.463V4.56907H125.378V4.3077C125.669 4.19159 125.966 3.99434 126.267 3.72148C126.574 3.44281 126.846 3.11163 127.085 2.72846C127.206 2.53107 127.376 2.15957 127.593 1.62545H127.839ZM137.872 3.80255C138.973 3.80255 139.856 4.22064 140.523 5.05665C141.089 5.77074 141.372 6.58918 141.372 7.51807C141.372 8.1683 141.216 8.82456 140.903 9.4922C140.592 10.1598 140.16 10.6589 139.61 11.0014C139.065 11.3382 138.456 11.5066 137.784 11.5066C136.689 11.5066 135.818 11.0712 135.173 10.2003C134.628 9.46302 134.355 8.63861 134.355 7.72133C134.355 7.05368 134.52 6.39189 134.848 5.73586C135.181 5.07402 135.617 4.59229 136.157 4.27879C136.697 3.95948 137.269 3.80255 137.872 3.80255ZM137.626 4.31933C137.345 4.31933 137.062 4.40071 136.776 4.56907C136.496 4.73743 136.268 5.02758 136.094 5.44558C135.919 5.86358 135.832 6.39771 135.832 7.05374C135.832 8.11616 136.041 9.02777 136.459 9.7941C136.882 10.5604 137.438 10.9436 138.126 10.9436C138.639 10.9436 139.062 10.7344 139.396 10.3106C139.729 9.88679 139.896 9.16123 139.896 8.12783C139.896 6.83318 139.618 5.8172 139.062 5.07989C138.686 4.569 138.207 4.31933 137.626 4.31933ZM145.285 4.58636V9.36435C145.285 10.0436 145.359 10.4733 145.507 10.6533C145.703 10.8855 145.965 11.0014 146.293 11.0014H146.952V11.286H142.61V11.0014H142.935C143.147 11.0014 143.341 10.9493 143.515 10.839C143.69 10.7345 143.809 10.5952 143.872 10.4152C143.941 10.2352 143.975 9.88105 143.975 9.36435V4.58636H142.563V4.01743H143.975V3.54147C143.975 2.81577 144.092 2.20027 144.325 1.69519C144.558 1.19591 144.912 0.789606 145.388 0.48191C145.87 0.168408 146.41 0.0172921 147.007 0.0172921C147.563 0.0172921 148.074 0.197367 148.54 0.557314C148.846 0.795344 149 1.06233 149 1.35842C149 1.51517 148.931 1.66627 148.793 1.81141C148.656 1.94494 148.508 2.01438 148.349 2.01438C148.227 2.01438 148.098 1.9739 147.96 1.88682C147.828 1.79973 147.664 1.60802 147.468 1.32355C147.272 1.03327 147.092 0.836017 146.928 0.737322C146.764 0.638627 146.581 0.586229 146.38 0.586229C146.137 0.586229 145.931 0.650283 145.762 0.783812C145.592 0.911535 145.47 1.11475 145.396 1.38762C145.322 1.66048 145.285 2.35693 145.285 3.48903V4.01743H147.158V4.58636H145.285ZM9.45324 18.8566L9.69941 22.514H9.45324C9.12523 21.4167 8.65729 20.6331 8.04886 20.1512C7.43986 19.6693 6.7101 19.4255 5.85784 19.4255C5.14375 19.4255 4.49817 19.6112 3.9211 19.9712C3.3446 20.3311 2.88943 20.9118 2.55619 21.7072C2.2276 22.4968 2.06388 23.4836 2.06388 24.6621C2.06388 25.6375 2.22006 26.4852 2.5324 27.1993C2.84416 27.9133 3.31267 28.4591 3.93678 28.8423C4.56668 29.2197 5.28367 29.4112 6.08833 29.4112C6.78674 29.4112 7.40329 29.2659 7.93741 28.9699C8.4721 28.668 9.05905 28.0699 9.69941 27.1817L9.94555 27.3384C9.40563 28.2964 8.77631 28.9988 8.05641 29.4458C7.3371 29.887 6.48252 30.1077 5.49267 30.1077C3.70977 30.1077 2.32863 29.4458 1.34922 28.1279C0.61946 27.141 0.254278 25.98 0.254278 24.6505C0.254278 23.5765 0.494641 22.5895 0.976505 21.6896C1.45779 20.7898 2.11963 20.093 2.96086 19.5995C3.80731 19.1061 4.73098 18.8566 5.7307 18.8566C6.50865 18.8566 7.27615 19.0481 8.03262 19.4255C8.25497 19.5416 8.41347 19.5995 8.50868 19.5995C8.65208 19.5995 8.7763 19.5532 8.88197 19.4487C9.01956 19.3094 9.11768 19.1062 9.17574 18.8566H9.45324ZM14.5732 22.3804C15.6739 22.3804 16.5576 22.7985 17.224 23.6345C17.7901 24.3486 18.0734 25.1671 18.0734 26.096C18.0734 26.7462 17.9172 27.4025 17.6049 28.0701C17.2931 28.7377 16.8618 29.2368 16.3114 29.5793C15.7663 29.9161 15.1578 30.0845 14.4855 30.0845C13.3906 30.0845 12.5198 29.6491 11.8742 28.7782C11.3296 28.0409 11.0567 27.2165 11.0567 26.2992C11.0567 25.6316 11.2211 24.9698 11.5491 24.3138C11.8823 23.6519 12.3189 23.1702 12.8588 22.8567C13.3981 22.5374 13.97 22.3804 14.5732 22.3804ZM14.327 22.8972C14.0466 22.8972 13.7633 22.9786 13.4777 23.147C13.1973 23.3153 12.9697 23.6055 12.7949 24.0235C12.6202 24.4415 12.5331 24.9756 12.5331 25.6316C12.5331 26.6941 12.7421 27.6057 13.1601 28.372C13.5833 29.1383 14.1389 29.5215 14.8269 29.5215C15.3401 29.5215 15.7639 29.3123 16.0972 28.8885C16.4304 28.4647 16.597 27.7391 16.597 26.7057C16.597 25.4111 16.3195 24.3951 15.7639 23.6578C15.3877 23.1469 14.9093 22.8972 14.327 22.8972ZM21.645 18.5779V28.2209C21.645 28.6737 21.6769 28.9757 21.7402 29.1266C21.8093 29.2718 21.9126 29.3878 22.0502 29.4691C22.1878 29.5387 22.4444 29.5793 22.82 29.5793V29.8639H19.256V29.5793C19.5892 29.5793 19.8168 29.5447 19.9387 29.475C20.0606 29.4053 20.1559 29.2951 20.2244 29.1326C20.2935 28.9758 20.3277 28.6679 20.3277 28.2209V21.6142C20.3277 20.7956 20.3091 20.2964 20.272 20.1107C20.2348 19.9191 20.1744 19.7911 20.0897 19.7214C20.0101 19.6518 19.9068 19.6171 19.7802 19.6171C19.6426 19.6171 19.4679 19.6576 19.256 19.7447L19.1213 19.466L21.2879 18.5779H21.645ZM26.1693 18.5779V28.2209C26.1693 28.6737 26.2012 28.9757 26.2645 29.1266C26.3336 29.2718 26.4369 29.3878 26.5745 29.4691C26.7121 29.5387 26.9687 29.5793 27.3443 29.5793V29.8639H23.7803V29.5793C24.1135 29.5793 24.3411 29.5447 24.463 29.475C24.5849 29.4053 24.6802 29.2951 24.7487 29.1326C24.8177 28.9758 24.852 28.6679 24.852 28.2209V21.6142C24.852 20.7956 24.8334 20.2964 24.7963 20.1107C24.7591 19.9191 24.6987 19.7911 24.614 19.7214C24.5344 19.6518 24.4311 19.6171 24.3045 19.6171C24.1669 19.6171 23.9922 19.6576 23.7803 19.7447L23.6456 19.466L25.8122 18.5779H26.1693ZM29.4158 25.3297C29.4106 26.4096 29.6724 27.2571 30.2019 27.8725C30.7307 28.4879 31.3525 28.7898 32.0672 28.7898C32.5432 28.7898 32.956 28.6622 33.305 28.4009C33.6597 28.1397 33.9557 27.6869 34.1944 27.0541L34.4399 27.2109C34.329 27.9366 34.0063 28.5984 33.4721 29.1964C32.9375 29.7885 32.2681 30.0845 31.464 30.0845C30.5908 30.0845 29.8419 29.7478 29.2172 29.0685C28.5983 28.3892 28.2889 27.472 28.2889 26.3225C28.2889 25.0801 28.6065 24.1105 29.241 23.4197C29.8814 22.723 30.6831 22.3688 31.6463 22.3688C32.4614 22.3688 33.1308 22.6419 33.6544 23.1818C34.1781 23.716 34.4399 24.4299 34.4399 25.3297H29.4158ZM29.4158 24.8711H32.7813C32.7546 24.4066 32.6994 24.0757 32.6147 23.89C32.4823 23.5881 32.2837 23.3559 32.0196 23.1875C31.7601 23.0191 31.4878 22.9321 31.2016 22.9321C30.7627 22.9321 30.3685 23.1063 30.019 23.4489C29.6753 23.7914 29.4738 24.2615 29.4158 24.8711ZM37.3613 27.2109C36.9166 26.9961 36.5752 26.694 36.3372 26.3108C36.0992 25.9161 35.9802 25.4865 35.9802 25.0162C35.9802 24.2963 36.2501 23.6753 36.7895 23.1586C37.3346 22.6361 38.0307 22.3804 38.8772 22.3804C39.5703 22.3804 40.1712 22.5489 40.6792 22.8856H42.2189C42.4464 22.8856 42.5788 22.8972 42.616 22.9088C42.6525 22.9205 42.6792 22.9436 42.6949 22.9726C42.7268 23.0191 42.7425 23.1061 42.7425 23.228C42.7425 23.3674 42.7292 23.4604 42.703 23.5127C42.6874 23.5417 42.6578 23.559 42.616 23.5764C42.5788 23.5939 42.4464 23.5997 42.2189 23.5997H41.2743C41.5704 23.9828 41.719 24.4705 41.719 25.0627C41.719 25.742 41.4595 26.3168 40.941 26.7987C40.4226 27.2806 39.7265 27.5244 38.8533 27.5244C38.4934 27.5244 38.1259 27.472 37.7503 27.3617C37.5175 27.5649 37.3584 27.7448 37.2737 27.8958C37.1947 28.0409 37.1546 28.1687 37.1546 28.279C37.1546 28.3661 37.197 28.4533 37.2818 28.5404C37.3718 28.6217 37.5436 28.6853 37.7979 28.7201C37.9459 28.7433 38.3163 28.7608 38.9091 28.7782C39.9988 28.8014 40.7053 28.8421 41.0281 28.8885C41.5204 28.9582 41.9117 29.1381 42.2032 29.4342C42.4993 29.7303 42.6473 30.0961 42.6473 30.5315C42.6473 31.1295 42.3669 31.6868 41.8061 32.2151C40.9805 32.9872 39.9036 33.3705 38.5758 33.3705C37.554 33.3705 36.6919 33.1442 35.9877 32.6797C35.5912 32.4185 35.3926 32.1398 35.3926 31.8554C35.3926 31.7276 35.4217 31.5997 35.4803 31.4778C35.5697 31.2804 35.7549 31.0077 36.0359 30.6594C36.0725 30.6129 36.3424 30.3227 36.8452 29.8002C36.57 29.6376 36.3744 29.4925 36.2577 29.3647C36.1468 29.2312 36.091 29.0861 36.091 28.9177C36.091 28.7319 36.1654 28.517 36.3134 28.2674C36.4667 28.0178 36.8162 27.6695 37.3613 27.2109ZM38.7425 22.7578C38.3506 22.7578 38.0226 22.9145 37.7578 23.228C37.4937 23.5415 37.3613 24.0177 37.3613 24.6621C37.3613 25.504 37.5413 26.1484 37.9007 26.6071C38.1758 26.9612 38.5253 27.1352 38.9486 27.1352C39.3509 27.1352 39.6812 26.9844 39.9407 26.6825C40.2002 26.3806 40.3297 25.9044 40.3297 25.26C40.3297 24.4182 40.1474 23.7622 39.7822 23.2862C39.5123 22.932 39.1657 22.7578 38.7425 22.7578ZM37.2818 29.8639C37.0333 30.131 36.8452 30.3863 36.7181 30.6186C36.5915 30.8508 36.5276 31.0658 36.5276 31.2632C36.5276 31.5128 36.6815 31.739 36.988 31.9248C37.5175 32.2557 38.2821 32.4183 39.2818 32.4183C40.2345 32.4183 40.9358 32.2499 41.3852 31.9132C41.8403 31.5765 42.0679 31.2225 42.0679 30.8394C42.0679 30.5665 41.9332 30.369 41.6633 30.2529C41.3881 30.1368 40.8429 30.0672 40.0278 30.0439C38.8377 30.0149 37.9221 29.951 37.2818 29.8639ZM44.7669 25.3297C44.7611 26.4096 45.0235 27.2571 45.5524 27.8725C46.0819 28.4879 46.7037 28.7898 47.4178 28.7898C47.8938 28.7898 48.3066 28.6622 48.6561 28.4009C49.0102 28.1397 49.3069 27.6869 49.5449 27.0541L49.7911 27.2109C49.6796 27.9366 49.3568 28.5984 48.8227 29.1964C48.288 29.7885 47.6186 30.0845 46.8146 30.0845C45.9414 30.0845 45.1925 29.7478 44.5684 29.0685C43.9489 28.3892 43.6395 27.472 43.6395 26.3225C43.6395 25.0801 43.957 24.1105 44.5922 23.4197C45.2325 22.723 46.0343 22.3688 46.9969 22.3688C47.812 22.3688 48.4813 22.6419 49.005 23.1818C49.5293 23.716 49.7911 24.4299 49.7911 25.3297H44.7669ZM44.7669 24.8711H48.1319C48.1057 24.4066 48.05 24.0757 47.9652 23.89C47.8329 23.5881 47.6349 23.3559 47.3702 23.1875C47.1106 23.0191 46.8384 22.9321 46.5527 22.9321C46.1132 22.9321 45.719 23.1063 45.3701 23.4489C45.0259 23.7914 44.825 24.2615 44.7669 24.8711ZM63.6415 26.8857L63.9033 26.9438L62.9831 29.8639H54.6486V29.568H55.0533C55.5084 29.568 55.8341 29.4227 56.0298 29.1266C56.1407 28.9583 56.1964 28.5635 56.1964 27.9539V21.0047C56.1964 20.3313 56.1221 19.913 55.974 19.7447C55.7679 19.5125 55.4608 19.3966 55.0533 19.3966H54.6486V19.1003H59.5224V19.3966C58.9506 19.3908 58.5488 19.443 58.3154 19.5533C58.0884 19.6636 57.9323 19.8028 57.8475 19.9712C57.7627 20.1454 57.7204 20.546 57.7204 21.1904V27.9539C57.7204 28.3893 57.7627 28.6911 57.8475 28.8536C57.9108 28.9697 58.0089 29.0511 58.1413 29.1034C58.2736 29.1556 58.6864 29.1788 59.3796 29.1788H60.1651C60.9907 29.1788 61.57 29.1207 61.9033 28.9988C62.2365 28.8769 62.5408 28.6621 62.8159 28.3544C63.0911 28.0409 63.3663 27.5534 63.6415 26.8857ZM66.618 18.5779C66.8404 18.5779 67.0285 18.6593 67.1817 18.816C67.3402 18.967 67.4198 19.1584 67.4198 19.379C67.4198 19.5996 67.3402 19.7912 67.1817 19.9479C67.0285 20.1105 66.8404 20.1861 66.618 20.1861C66.3957 20.1861 66.2052 20.1105 66.0468 19.9479C65.8877 19.7912 65.8087 19.5996 65.8087 19.379C65.8087 19.1584 65.8854 18.967 66.0386 18.816C66.1977 18.6593 66.3904 18.5779 66.618 18.5779ZM67.277 22.3804V28.2209C67.277 28.6737 67.3089 28.9816 67.3722 29.1326C67.4413 29.2835 67.5388 29.3936 67.6659 29.4691C67.7983 29.5387 68.0363 29.5793 68.38 29.5793V29.8639H64.8479V29.5793C65.2026 29.5793 65.4406 29.5447 65.5626 29.475C65.6845 29.4053 65.7797 29.2951 65.8482 29.1326C65.9225 28.9758 65.9597 28.6679 65.9597 28.2209V25.4168C65.9597 24.633 65.9353 24.1222 65.8877 23.89C65.8511 23.7158 65.7925 23.5998 65.7135 23.5359C65.634 23.472 65.5254 23.4372 65.3878 23.4372C65.2398 23.4372 65.0598 23.4719 64.8479 23.5532L64.737 23.2689L66.9275 22.3804H67.277ZM72.1345 23.1643V27.9423C72.1345 28.6215 72.2088 29.0512 72.3568 29.2312C72.5525 29.4634 72.8143 29.5793 73.1429 29.5793H73.8013V29.8639H69.4598V29.5793H69.785C69.9969 29.5793 70.1902 29.5272 70.3644 29.4169C70.5391 29.3124 70.6581 29.1731 70.722 28.9931C70.7905 28.8131 70.8248 28.4589 70.8248 27.9423V23.1643H69.4123V22.5953H70.8248V22.1194C70.8248 21.3937 70.9414 20.7782 71.1742 20.2731C71.407 19.7738 71.7618 19.3675 72.2378 19.0598C72.7191 18.7463 73.259 18.5952 73.857 18.5952C74.4126 18.5952 74.9235 18.7753 75.3891 19.1352C75.6956 19.3732 75.8495 19.6402 75.8495 19.9363C75.8495 20.0931 75.7804 20.2442 75.6428 20.3893C75.5052 20.5228 75.3572 20.5923 75.1987 20.5923C75.0768 20.5923 74.9473 20.5518 74.8097 20.4647C74.6773 20.3776 74.513 20.1859 74.3174 19.9014C74.1217 19.6112 73.9418 19.4139 73.7775 19.3152C73.6138 19.2165 73.4309 19.1641 73.23 19.1641C72.9868 19.1641 72.7801 19.2282 72.6111 19.3617C72.4416 19.4894 72.3197 19.6927 72.246 19.9655C72.1716 20.2384 72.1345 20.9348 72.1345 22.0669V22.5953H74.008V23.1643H72.1345ZM75.9285 25.3297C75.9232 26.4096 76.1851 27.2571 76.7145 27.8725C77.2434 28.4879 77.8652 28.7898 78.5799 28.7898C79.0559 28.7898 79.4687 28.6622 79.8182 28.4009C80.1723 28.1397 80.469 27.6869 80.7071 27.0541L80.9532 27.2109C80.8417 27.9366 80.5189 28.5984 79.9848 29.1964C79.4501 29.7885 78.7808 30.0845 77.9767 30.0845C77.1035 30.0845 76.3546 29.7478 75.7305 29.0685C75.111 28.3892 74.8016 27.472 74.8016 26.3225C74.8016 25.0801 75.1192 24.1105 75.7543 23.4197C76.3941 22.723 77.1958 22.3688 78.1589 22.3688C78.9741 22.3688 79.6434 22.6419 80.1671 23.1818C80.6908 23.716 80.9532 24.4299 80.9532 25.3297H75.9285ZM75.9285 24.8711H79.294C79.2678 24.4066 79.2121 24.0757 79.1273 23.89C78.995 23.5881 78.7964 23.3559 78.5323 23.1875C78.2727 23.0191 78.0004 22.9321 77.7148 22.9321C77.2753 22.9321 76.8812 23.1063 76.5317 23.4489C76.188 23.7914 75.9871 24.2615 75.9285 24.8711Z" fill="#1F1F1F"/>
</svg>
