<svg width="74" height="7" viewBox="0 0 74 7" fill="none" xmlns="http://www.w3.org/2000/svg">
<path d="M4.45506 3.9264H2.56149V5.92448H1.88776V3.9264H0V3.29904H1.88776V1.31258H2.56149V3.29904H4.45506V3.9264ZM7.6091 6.1162C7.82982 6.1162 8.03307 6.08125 8.21313 6.01155C8.39319 5.94185 8.55005 5.84324 8.67784 5.71545C8.80562 5.58767 8.90437 5.43677 8.97407 5.26252C9.04378 5.08826 9.07859 4.90227 9.07859 4.69897C9.07859 4.47825 9.04378 4.2867 8.97989 4.11245C8.91019 3.93239 8.81144 3.78716 8.68365 3.66518C8.56167 3.54321 8.41064 3.44433 8.23639 3.38043C8.06213 3.31654 7.87627 3.28173 7.66717 3.28173C7.44644 3.28173 7.24312 3.32222 7.06306 3.39773C6.883 3.47324 6.73203 3.57796 6.60424 3.70574C6.47645 3.83353 6.38352 3.98456 6.31382 4.15301C6.24992 4.32145 6.21505 4.49565 6.21505 4.67571C6.21505 4.89063 6.24992 5.08826 6.308 5.26252C6.37189 5.44258 6.459 5.59334 6.58098 5.72113C6.70296 5.8431 6.84817 5.9478 7.01662 6.01751C7.19087 6.08721 7.38837 6.1162 7.6091 6.1162ZM7.12113 2.5673C7.06305 2.64281 7.00501 2.71826 6.95273 2.78796C6.90046 2.85766 6.84817 2.92161 6.79589 2.99131C6.95853 2.88095 7.12699 2.79953 7.31867 2.74144C7.50454 2.68336 7.71361 2.65437 7.93433 2.65437C8.20733 2.65437 8.45714 2.69502 8.70109 2.78796C8.93924 2.87508 9.14251 3.00296 9.32257 3.17141C9.50263 3.33985 9.64202 3.54886 9.74658 3.79281C9.85113 4.04258 9.90923 4.3215 9.90923 4.63516C9.90923 4.94301 9.85112 5.22746 9.74076 5.48884C9.6304 5.75603 9.47361 5.98253 9.27031 6.18002C9.07282 6.3717 8.82887 6.52855 8.55007 6.63891C8.27126 6.74927 7.96336 6.80738 7.62647 6.80738C7.28958 6.80738 6.98757 6.75509 6.71457 6.65054C6.44157 6.54018 6.20926 6.38914 6.01758 6.19165C5.8259 5.99416 5.68068 5.75602 5.57613 5.47722C5.47157 5.1926 5.4251 4.87916 5.4251 4.53646C5.4251 4.24022 5.48315 3.93232 5.61094 3.60704C5.74454 3.27596 5.94787 2.9216 6.23249 2.54405L7.92271 0.27284C7.96336 0.214755 8.02729 0.168435 8.09699 0.133584C8.17831 0.0929243 8.26541 0.0754422 8.36416 0.0754422H9.09603L7.12113 2.5673ZM14.8987 5.94774C14.9858 5.94774 15.0613 5.9709 15.1136 6.02318C15.1659 6.07545 15.1891 6.14536 15.1891 6.23249V6.73194H10.7457V6.44719C10.7457 6.3891 10.7631 6.33127 10.7863 6.26737C10.8096 6.20348 10.8502 6.14522 10.9025 6.09295L13.0342 3.95561C13.2085 3.77555 13.3711 3.60121 13.5163 3.43857C13.6615 3.27013 13.7893 3.10161 13.888 2.93317C13.9926 2.77053 14.0681 2.60202 14.1262 2.42776C14.1843 2.25351 14.2075 2.07362 14.2075 1.87613C14.2075 1.67864 14.1785 1.50998 14.1146 1.36477C14.0565 1.21375 13.9694 1.09184 13.859 0.9989C13.7545 0.900156 13.6325 0.830386 13.4873 0.783918C13.3421 0.731642 13.1852 0.708476 13.0168 0.708476C12.8483 0.708476 12.6915 0.731642 12.5463 0.783918C12.4069 0.836194 12.2791 0.9061 12.1629 0.993227C12.0584 1.08035 11.9655 1.18493 11.8899 1.30691C11.8144 1.42308 11.7621 1.55649 11.7331 1.7017C11.6983 1.81206 11.646 1.88779 11.5821 1.92264C11.5182 1.95749 11.4311 1.96319 11.3149 1.95157L10.8851 1.87613C10.9257 1.57409 11.0128 1.30668 11.1348 1.07434C11.2626 0.836194 11.4195 0.638978 11.6053 0.482149C11.8028 0.32532 12.0177 0.203274 12.2617 0.121955C12.5057 0.0406367 12.7728 0 13.0575 0C13.3421 0 13.6034 0.0406367 13.8474 0.121955C14.0914 0.209083 14.3063 0.330856 14.4863 0.493494C14.6664 0.650323 14.8058 0.842003 14.9045 1.07434C15.0091 1.30087 15.0614 1.56245 15.0614 1.85287C15.0614 2.10264 15.0207 2.32913 14.951 2.54405C14.8755 2.75315 14.7768 2.95647 14.649 3.14815C14.5212 3.33983 14.3702 3.53135 14.2075 3.71141C14.0391 3.89148 13.8648 4.07746 13.6789 4.26333L11.9248 6.05806C12.0467 6.02321 12.1745 6.00018 12.3023 5.97695C12.4301 5.95952 12.5521 5.94774 12.6683 5.94774H14.8987ZM22.6646 5.94774C22.7576 5.94774 22.8273 5.9709 22.8795 6.02318C22.9318 6.07545 22.9609 6.14536 22.9609 6.23249V6.73194H18.5174V6.44719C18.5174 6.3891 18.529 6.33127 18.5523 6.26737C18.5813 6.20348 18.6161 6.14522 18.6684 6.09295L20.8059 3.95561C20.9802 3.77555 21.1428 3.60121 21.288 3.43857C21.4332 3.27013 21.5552 3.10161 21.6598 2.93317C21.7585 2.77053 21.8399 2.60202 21.8979 2.42776C21.9502 2.25351 21.9793 2.07362 21.9793 1.87613C21.9793 1.67864 21.9502 1.50998 21.8863 1.36477C21.8224 1.21375 21.7411 1.09184 21.6308 0.9989C21.5262 0.900156 21.3984 0.830386 21.2532 0.783918C21.108 0.731642 20.9511 0.708476 20.7827 0.708476C20.6142 0.708476 20.4575 0.731642 20.3181 0.783918C20.1728 0.836194 20.045 0.9061 19.9347 0.993227C19.8243 1.08035 19.7372 1.18493 19.6617 1.30691C19.5862 1.42308 19.5339 1.55649 19.5049 1.7017C19.4642 1.81206 19.4119 1.88779 19.348 1.92264C19.2841 1.95749 19.197 1.96319 19.0867 1.95157L18.651 1.87613C18.6975 1.57409 18.7788 1.30668 18.9007 1.07434C19.0285 0.836194 19.1854 0.638978 19.3771 0.482149C19.5688 0.32532 19.7895 0.203274 20.0334 0.121955C20.2774 0.0406367 20.5388 0 20.8292 0C21.108 0 21.3694 0.0406367 21.6191 0.121955C21.8631 0.209083 22.0722 0.330856 22.2523 0.493494C22.4323 0.650323 22.5717 0.842003 22.6763 1.07434C22.7808 1.30087 22.8273 1.56245 22.8273 1.85287C22.8273 2.10264 22.7925 2.32913 22.717 2.54405C22.6414 2.75315 22.5427 2.95647 22.4149 3.14815C22.2871 3.33983 22.1419 3.53135 21.9735 3.71141C21.8108 3.89148 21.6366 4.07746 21.4507 4.26333L19.6907 6.05806C19.8185 6.02321 19.9405 6.00018 20.0683 5.97695C20.196 5.95952 20.318 5.94774 20.4342 5.94774H22.6646ZM28.0549 5.94774C28.1479 5.94774 28.2176 5.9709 28.2698 6.02318C28.3221 6.07545 28.3512 6.14536 28.3512 6.23249V6.73194H23.9077V6.44719C23.9077 6.3891 23.9193 6.33127 23.9425 6.26737C23.9716 6.20348 24.0064 6.14522 24.0587 6.09295L26.1962 3.95561C26.3705 3.77555 26.5331 3.60121 26.6783 3.43857C26.8235 3.27013 26.9455 3.10161 27.0501 2.93317C27.1488 2.77053 27.2301 2.60202 27.2882 2.42776C27.3405 2.25351 27.3696 2.07362 27.3696 1.87613C27.3696 1.67864 27.3405 1.50998 27.2766 1.36477C27.2127 1.21375 27.1314 1.09184 27.021 0.9989C26.9164 0.900156 26.7887 0.830386 26.6435 0.783918C26.4983 0.731642 26.3414 0.708476 26.173 0.708476C26.0045 0.708476 25.8477 0.731642 25.7083 0.783918C25.5631 0.836194 25.4353 0.9061 25.325 0.993227C25.2146 1.08035 25.1274 1.18493 25.0519 1.30691C24.9764 1.42308 24.9242 1.55649 24.8951 1.7017C24.8545 1.81206 24.8022 1.88779 24.7383 1.92264C24.6802 1.95749 24.5872 1.96319 24.4769 1.95157L24.0412 1.87613C24.0877 1.57409 24.1691 1.30668 24.291 1.07434C24.4188 0.836194 24.5814 0.638978 24.7673 0.482149C24.959 0.32532 25.1797 0.203274 25.4237 0.121955C25.6676 0.0406367 25.9348 0 26.2194 0C26.4982 0 26.7655 0.0406367 27.0094 0.121955C27.2534 0.209083 27.4625 0.330856 27.6425 0.493494C27.8226 0.650323 27.962 0.842003 28.0665 1.07434C28.1711 1.30087 28.2176 1.56245 28.2176 1.85287C28.2176 2.10264 28.1827 2.32913 28.1072 2.54405C28.0317 2.75315 27.933 2.95647 27.8052 3.14815C27.6774 3.33983 27.5322 3.53135 27.3637 3.71141C27.2011 3.89148 27.0268 4.07746 26.841 4.26333L25.081 6.05806C25.2088 6.02321 25.3308 6.00018 25.4585 5.97695C25.5863 5.95952 25.7083 5.94774 25.8245 5.94774H28.0549ZM29.4664 1.87613C29.5071 1.57409 29.5942 1.30668 29.7161 1.07434C29.8439 0.836194 29.995 0.638978 30.1867 0.482149C30.3783 0.32532 30.5991 0.203274 30.843 0.121955C31.087 0.0406367 31.3542 0 31.6388 0C31.9234 0 32.1848 0.0406367 32.4229 0.121955C32.6611 0.197466 32.8644 0.313544 33.0328 0.464565C33.2071 0.609777 33.3406 0.789942 33.4394 1.00486C33.5381 1.21396 33.5846 1.44613 33.5846 1.7017C33.5846 1.91662 33.5555 2.10248 33.4975 2.27092C33.4452 2.43356 33.3697 2.57891 33.2651 2.70089C33.1664 2.82867 33.0502 2.93311 32.905 3.02024C32.7598 3.10737 32.603 3.17714 32.4287 3.23522C32.8585 3.34558 33.1838 3.5374 33.4045 3.8104C33.6194 4.07759 33.7298 4.41433 33.7298 4.82093C33.7298 5.12877 33.6717 5.40188 33.5555 5.65164C33.4394 5.8956 33.2826 6.10475 33.0793 6.279C32.8818 6.44745 32.6437 6.58086 32.3765 6.6738C32.1093 6.76092 31.8246 6.80738 31.5168 6.80738C31.1624 6.80738 30.8604 6.76092 30.6107 6.6738C30.3609 6.58667 30.146 6.46476 29.9717 6.30793C29.7975 6.15691 29.6581 5.97107 29.5477 5.76197C29.4316 5.54705 29.3386 5.31475 29.2631 5.07079L29.6174 4.91962C29.7104 4.87896 29.8033 4.86731 29.8904 4.88474C29.9775 4.90797 30.0414 4.95445 30.0821 5.04158C30.1227 5.12871 30.175 5.23342 30.2331 5.34959C30.297 5.47157 30.3783 5.58779 30.4829 5.69815C30.5874 5.81432 30.721 5.90711 30.8836 5.98262C31.0463 6.06394 31.2554 6.0989 31.5052 6.0989C31.7375 6.0989 31.9408 6.06409 32.115 5.98858C32.2893 5.91307 32.4345 5.81418 32.5507 5.6922C32.6668 5.57022 32.7598 5.43651 32.8179 5.28549C32.876 5.14028 32.905 4.98939 32.905 4.84418C32.905 4.66412 32.8818 4.50142 32.8353 4.3504C32.7888 4.20519 32.7017 4.0776 32.5739 3.96724C32.4461 3.85688 32.2719 3.77531 32.0512 3.71141C31.8304 3.64752 31.5458 3.61867 31.1973 3.61867V3.02024C31.4819 3.01443 31.7259 2.98558 31.9234 2.9275C32.1267 2.86941 32.2893 2.78785 32.4113 2.6833C32.5391 2.58456 32.632 2.46265 32.6843 2.31744C32.7482 2.17222 32.7772 2.0155 32.7772 1.84124C32.7772 1.64956 32.7423 1.487 32.6843 1.34179C32.6204 1.19658 32.5391 1.08021 32.4345 0.987271C32.33 0.894336 32.2022 0.824713 32.057 0.778246C31.9176 0.731778 31.7607 0.708476 31.5923 0.708476C31.4296 0.708476 31.2728 0.731642 31.1276 0.783918C30.9824 0.836194 30.8546 0.9061 30.7442 0.993227C30.6339 1.08035 30.5468 1.18493 30.4713 1.30691C30.3958 1.42308 30.3435 1.55649 30.3144 1.7017C30.2738 1.81206 30.2215 1.88779 30.1576 1.92264C30.0995 1.95749 30.0124 1.96319 29.8962 1.95157L29.4664 1.87613ZM41.3622 6.0989V6.73194H37.7958V6.0989H39.2188V1.56245C39.2188 1.42304 39.2246 1.28352 39.2362 1.14411L38.0513 2.16655C38.0106 2.19559 37.97 2.21875 37.9293 2.23037C37.8887 2.23617 37.8481 2.23617 37.819 2.23037C37.7842 2.22456 37.7493 2.21304 37.7202 2.18981C37.6912 2.17238 37.668 2.1549 37.6564 2.13167L37.3949 1.77147L39.3756 0.0578579H40.0494V6.0989H41.3622ZM46.6072 5.94774C46.7002 5.94774 46.7699 5.9709 46.8222 6.02318C46.8744 6.07545 46.9035 6.14536 46.9035 6.23249V6.73194H42.46V6.44719C42.46 6.3891 42.4716 6.33127 42.4948 6.26737C42.518 6.20348 42.5587 6.14522 42.611 6.09295L44.7427 3.95561C44.9227 3.77555 45.0854 3.60121 45.2306 3.43857C45.3758 3.27013 45.4978 3.10161 45.6023 2.93317C45.7011 2.77053 45.7824 2.60202 45.8347 2.42776C45.8928 2.25351 45.9218 2.07362 45.9218 1.87613C45.9218 1.67864 45.8869 1.50998 45.8289 1.36477C45.765 1.21375 45.6779 1.09184 45.5733 0.9989C45.4688 0.900156 45.341 0.830386 45.1958 0.783918C45.0505 0.731642 44.8937 0.708476 44.7253 0.708476C44.5569 0.708476 44.4 0.731642 44.2548 0.783918C44.1154 0.836194 43.9876 0.9061 43.8772 0.993227C43.7669 1.08035 43.6739 1.18493 43.6042 1.30691C43.5287 1.42308 43.4764 1.55649 43.4416 1.7017C43.4067 1.81206 43.3544 1.88779 43.2906 1.92264C43.2267 1.95749 43.1396 1.96319 43.0234 1.95157L42.5936 1.87613C42.6342 1.57409 42.7213 1.30668 42.8433 1.07434C42.9711 0.836194 43.1279 0.638978 43.3196 0.482149C43.5113 0.32532 43.7262 0.203274 43.976 0.121955C44.2199 0.0406367 44.4813 0 44.7659 0C45.0505 0 45.3119 0.0406367 45.5559 0.121955C45.8056 0.209083 46.0147 0.330856 46.1948 0.493494C46.3749 0.650323 46.5142 0.842003 46.6188 1.07434C46.7175 1.30087 46.7698 1.56245 46.7698 1.85287C46.7698 2.10264 46.735 2.32913 46.6595 2.54405C46.584 2.75315 46.4852 2.95647 46.3574 3.14815C46.2297 3.33983 46.0844 3.53135 45.916 3.71141C45.7534 3.89148 45.5791 4.07746 45.3932 4.26333L43.6333 6.05806C43.7611 6.02321 43.883 6.00018 44.0108 5.97695C44.1386 5.95952 44.2606 5.94774 44.3767 5.94774H46.6072ZM48.0187 1.87613C48.0593 1.57409 48.1465 1.30668 48.2685 1.07434C48.3904 0.836194 48.5472 0.638978 48.7389 0.482149C48.9306 0.32532 49.1455 0.203274 49.3953 0.121955C49.6392 0.0406367 49.9064 0 50.191 0C50.4756 0 50.7312 0.0406367 50.9752 0.121955C51.2133 0.197466 51.4166 0.313544 51.5851 0.464565C51.7593 0.609777 51.8929 0.789942 51.9916 1.00486C52.0846 1.21396 52.1369 1.44613 52.1369 1.7017C52.1369 1.91662 52.1079 2.10248 52.0498 2.27092C51.9975 2.43356 51.922 2.57891 51.8174 2.70089C51.7187 2.82867 51.5967 2.93311 51.4573 3.02024C51.3121 3.10737 51.1552 3.17714 50.9752 3.23522C51.4108 3.34558 51.7361 3.5374 51.951 3.8104C52.1717 4.07759 52.2821 4.41433 52.2821 4.82093C52.2821 5.12877 52.224 5.40188 52.1079 5.65164C51.9917 5.8956 51.8348 6.10475 51.6315 6.279C51.4282 6.44745 51.1959 6.58086 50.9287 6.6738C50.6615 6.76092 50.3711 6.80738 50.0691 6.80738C49.7148 6.80738 49.4127 6.76092 49.1629 6.6738C48.9073 6.58667 48.6983 6.46476 48.524 6.30793C48.3497 6.15691 48.2103 5.97107 48.0942 5.76197C47.9838 5.54705 47.8909 5.31475 47.8154 5.07079L48.1697 4.91962C48.2626 4.87896 48.3555 4.86731 48.4427 4.88474C48.5298 4.90797 48.5937 4.95445 48.6344 5.04158C48.6751 5.12871 48.7273 5.23342 48.7854 5.34959C48.8435 5.47157 48.9306 5.58779 49.0352 5.69815C49.1397 5.81432 49.2733 5.90711 49.436 5.98262C49.5986 6.06394 49.8077 6.0989 50.0574 6.0989C50.2898 6.0989 50.4931 6.06409 50.6674 5.98858C50.8416 5.91307 50.9868 5.81418 51.103 5.6922C51.2192 5.57022 51.3063 5.43651 51.3702 5.28549C51.4283 5.14028 51.4573 4.98939 51.4573 4.84418C51.4573 4.66412 51.4341 4.50142 51.3876 4.3504C51.3411 4.20519 51.254 4.0776 51.1262 3.96724C50.9984 3.85688 50.8242 3.77531 50.6035 3.71141C50.3828 3.64752 50.0981 3.61867 49.7496 3.61867V3.02024C50.0342 3.01443 50.2782 2.98558 50.4756 2.9275C50.6789 2.86941 50.8416 2.78785 50.9636 2.6833C51.0914 2.58456 51.1843 2.46265 51.2366 2.31744C51.2947 2.17222 51.3237 2.0155 51.3237 1.84124C51.3237 1.64956 51.2947 1.487 51.2308 1.34179C51.1727 1.19658 51.0913 1.08021 50.9868 0.987271C50.8822 0.894336 50.7544 0.824713 50.6092 0.778246C50.4698 0.731778 50.313 0.708476 50.1446 0.708476C49.9761 0.708476 49.8193 0.731642 49.6741 0.783918C49.5347 0.836194 49.4069 0.9061 49.2966 0.993227C49.1862 1.08035 49.0932 1.18493 49.0235 1.30691C48.948 1.42308 48.8958 1.55649 48.8609 1.7017C48.8203 1.81206 48.7738 1.88779 48.7099 1.92264C48.6518 1.95749 48.5647 1.96319 48.4485 1.95157L48.0187 1.87613ZM56.197 4.32715V1.5857C56.197 1.50438 56.197 1.41728 56.2028 1.31854C56.2144 1.21979 56.2202 1.12686 56.2319 1.02811L53.8097 4.32715H56.197ZM57.928 4.32715V4.80362C57.928 4.8559 57.9163 4.8964 57.8815 4.93125C57.8524 4.96029 57.8118 4.97777 57.7479 4.97777H56.9231V6.73194H56.197V4.97777H53.2405C53.1766 4.97777 53.1243 4.96029 53.0778 4.93125C53.0372 4.89059 53.0082 4.84427 52.9966 4.792L52.9094 4.37366L56.1505 0.0754422H56.9231V4.32715H57.928ZM59.8796 2.5846C60.2223 2.5149 60.5418 2.47428 60.8322 2.47428C61.1807 2.47428 61.4885 2.52656 61.7557 2.63112C62.0229 2.72986 62.2437 2.86939 62.4179 3.04945C62.598 3.22951 62.7315 3.4442 62.8245 3.68816C62.9174 3.93211 62.9639 4.19952 62.9639 4.48994C62.9639 4.83845 62.9 5.15771 62.778 5.44233C62.6561 5.72695 62.4876 5.97672 62.2727 6.18002C62.0578 6.37751 61.8022 6.53451 61.5118 6.64487C61.2213 6.74942 60.9077 6.80738 60.5708 6.80738C60.3733 6.80738 60.1874 6.78423 60.0074 6.74357C59.8273 6.70872 59.6589 6.65629 59.502 6.5924C59.3452 6.5285 59.2 6.45306 59.0664 6.37174C58.9328 6.28462 58.8167 6.19751 58.7179 6.10458L58.9735 5.75034C59.0257 5.66902 59.1012 5.62838 59.1884 5.62838C59.2523 5.62838 59.322 5.65736 59.3975 5.70383C59.4788 5.75029 59.5718 5.80258 59.6821 5.86067C59.7925 5.92456 59.926 5.97671 60.0713 6.02318C60.2223 6.06965 60.4024 6.09295 60.6115 6.09295C60.8438 6.09295 61.0529 6.05813 61.2388 5.98262C61.4246 5.90711 61.5815 5.80254 61.7151 5.66894C61.8487 5.52954 61.9532 5.36117 62.0229 5.16949C62.0926 4.97781 62.1333 4.76298 62.1333 4.52483C62.1333 4.31572 62.0984 4.12973 62.0403 3.96128C61.9765 3.79284 61.8893 3.65344 61.7616 3.53727C61.6454 3.4153 61.4885 3.32818 61.3085 3.25848C61.1284 3.19458 60.9135 3.16545 60.6696 3.16545C60.5011 3.16545 60.3268 3.17725 60.141 3.20629C59.9609 3.23533 59.7809 3.27598 59.5892 3.33988L59.0664 3.18871L59.6008 0.0754422H62.7606V0.435636C62.7606 0.551806 62.72 0.65055 62.6445 0.72606C62.5747 0.80157 62.4528 0.842059 62.2727 0.842059H60.1817L59.8796 2.5846ZM66.2748 6.1162C66.4955 6.1162 66.6987 6.08125 66.8788 6.01155C67.0588 5.94185 67.2157 5.84324 67.3435 5.71545C67.4713 5.58767 67.57 5.43677 67.6397 5.26252C67.7094 5.08826 67.7442 4.90227 67.7442 4.69897C67.7442 4.47825 67.7094 4.2867 67.6455 4.11245C67.5758 3.93239 67.4771 3.78716 67.3493 3.66518C67.2273 3.54321 67.0763 3.44433 66.902 3.38043C66.7278 3.31654 66.5419 3.28173 66.3328 3.28173C66.1121 3.28173 65.9088 3.32222 65.7287 3.39773C65.5487 3.47324 65.3977 3.57796 65.2699 3.70574C65.1421 3.83353 65.0492 3.98456 64.9795 4.15301C64.9156 4.32145 64.8807 4.49565 64.8807 4.67571C64.8807 4.89063 64.9156 5.08826 64.9737 5.26252C65.0376 5.44258 65.1247 5.59334 65.2466 5.72113C65.3686 5.8431 65.5138 5.9478 65.6823 6.01751C65.8565 6.08721 66.054 6.1162 66.2748 6.1162ZM65.7868 2.5673C65.7287 2.64281 65.6707 2.71826 65.6184 2.78796C65.5661 2.85766 65.5138 2.92161 65.4616 2.99131C65.6242 2.88095 65.7926 2.79953 65.9843 2.74144C66.1702 2.68336 66.3793 2.65437 66.6 2.65437C66.873 2.65437 67.1228 2.69502 67.3668 2.78796C67.6049 2.87508 67.8082 3.00296 67.9882 3.17141C68.1683 3.33985 68.3077 3.54886 68.4122 3.79281C68.5168 4.04258 68.5749 4.3215 68.5749 4.63516C68.5749 4.94301 68.5168 5.22746 68.4064 5.48884C68.2961 5.75603 68.1393 5.98253 67.936 6.18002C67.7385 6.3717 67.4945 6.52855 67.2157 6.63891C66.9369 6.74927 66.629 6.80738 66.2921 6.80738C65.9552 6.80738 65.6532 6.75509 65.3802 6.65054C65.1072 6.54018 64.8749 6.38914 64.6832 6.19165C64.4916 5.99416 64.3463 5.75602 64.2418 5.47722C64.1372 5.1926 64.0908 4.87916 64.0908 4.53646C64.0908 4.24022 64.1488 3.93232 64.2766 3.60704C64.4102 3.27596 64.6135 2.9216 64.8981 2.54405L66.5884 0.27284C66.629 0.214755 66.6929 0.168435 66.7626 0.133584C66.844 0.0929243 66.9311 0.0754422 67.0298 0.0754422H67.7617L65.7868 2.5673ZM74 0.0754422V0.447264C74 0.551817 73.9884 0.63891 73.9652 0.702803C73.9419 0.772505 73.9187 0.830477 73.8955 0.876944L71.1364 6.44151C71.0958 6.51702 71.0435 6.58665 70.968 6.65054C70.8983 6.70282 70.8054 6.73194 70.6892 6.73194H70.0909L72.8906 1.23714C72.9313 1.16163 72.9719 1.09201 73.0126 1.02811C73.059 0.958411 73.1055 0.900144 73.152 0.842059H69.6785C69.6262 0.842059 69.5798 0.818905 69.5391 0.778246C69.4985 0.737586 69.481 0.68531 69.481 0.633034V0.0754422H74Z" fill="white"/>
</svg>
