<svg width="159" height="21" viewBox="0 0 159 21" fill="none" xmlns="http://www.w3.org/2000/svg">
<path d="M15.5336 0.71122V1.11351C15.0141 1.20679 14.6212 1.37001 14.3542 1.60903C13.9717 1.96465 13.633 2.50101 13.3374 3.22974L8.2212 15.7172H7.82072L2.32552 3.06649C2.04452 2.41938 1.8463 2.02293 1.73087 1.87718C1.55014 1.65565 1.32686 1.48075 1.05986 1.35832C0.80043 1.23007 0.447147 1.14849 0 1.11351V0.71122H5.99246V1.11351C5.31504 1.17764 4.87489 1.29422 4.67318 1.45745C4.47088 1.62069 4.37005 1.83637 4.37005 2.09288C4.37005 2.45433 4.5362 3.01984 4.86792 3.78354L8.59958 12.3825L12.0607 3.88851C12.4 3.05485 12.5697 2.47188 12.5697 2.15124C12.5697 1.94137 12.4647 1.74314 12.2555 1.55659C12.0468 1.35837 11.6935 1.22424 11.1956 1.14262C11.1595 1.13679 11.0982 1.12517 11.012 1.11351V0.71122H15.5336ZM17.6859 0C17.9885 0 18.245 0.104965 18.4537 0.320668C18.67 0.530542 18.7784 0.787022 18.7784 1.09017C18.7784 1.39332 18.67 1.64982 18.4537 1.87135C18.245 2.08705 17.9885 2.19202 17.6859 2.19202C17.3828 2.19202 17.1234 2.08705 16.9071 1.87135C16.6908 1.64982 16.5823 1.39332 16.5823 1.09017C16.5823 0.787022 16.6873 0.530542 16.896 0.320668C17.1128 0.104965 17.3758 0 17.6859 0ZM18.5837 5.17688V13.1404C18.5837 13.7584 18.6269 14.1723 18.7137 14.3822C18.807 14.5862 18.9405 14.7377 19.1136 14.8369C19.2938 14.9418 19.6185 14.9884 20.0872 14.9884V15.3791H15.2736V14.9884C15.7568 14.9884 16.0816 14.9418 16.2471 14.8485C16.4133 14.7552 16.5427 14.5979 16.6365 14.3822C16.7374 14.1665 16.7881 13.7526 16.7881 13.1404V9.32187C16.7881 8.24918 16.7555 7.54963 16.6908 7.23482C16.64 7.00163 16.5608 6.84418 16.4529 6.75674C16.3445 6.66346 16.197 6.61683 16.0093 6.61683C15.8075 6.61683 15.5621 6.66931 15.2736 6.78008L15.122 6.38946L18.108 5.17688H18.5837ZM27.7348 5.17688V8.55237H27.378C27.104 7.49134 26.7507 6.77422 26.3181 6.38946C25.8926 6.01052 25.3481 5.81815 24.6846 5.81815C24.1798 5.81815 23.7722 5.95226 23.4621 6.2146C23.1519 6.48278 22.9969 6.78011 22.9969 7.10658C22.9969 7.50884 23.1123 7.85274 23.3432 8.14424C23.5665 8.43573 24.0212 8.75053 24.7062 9.08283L26.2855 9.8524C27.7493 10.5636 28.481 11.5081 28.481 12.674C28.481 13.5776 28.1388 14.3064 27.4538 14.8602C26.7758 15.4082 26.015 15.6822 25.1714 15.6822C24.5657 15.6822 23.8731 15.5714 23.0942 15.3557C22.8564 15.2858 22.6617 15.2508 22.5101 15.2508C22.3445 15.2508 22.2145 15.3441 22.1207 15.5306H21.7639V11.9919H22.1207C22.323 13.0005 22.7083 13.7642 23.2785 14.2772C23.848 14.7902 24.4864 15.041 25.193 15.041C25.6902 15.041 26.0943 14.901 26.4044 14.6096C26.7215 14.3181 26.8801 13.9624 26.8801 13.5485C26.8801 13.053 26.7035 12.6332 26.3502 12.2951C26.0039 11.9569 25.3084 11.5255 24.2626 11.0067C23.2173 10.4878 22.5317 10.0214 22.2075 9.60169C21.8828 9.1936 21.7207 8.67479 21.7207 8.04517C21.7207 7.229 21.9982 6.54691 22.5538 5.9989C23.1158 5.4509 23.841 5.17688 24.7278 5.17688C25.1172 5.17688 25.5894 5.26436 26.145 5.42759C26.5129 5.53836 26.7577 5.59077 26.8801 5.59077C26.9956 5.59077 27.0859 5.56162 27.1506 5.51498C27.2159 5.46251 27.2911 5.35177 27.378 5.17688H27.7348ZM32.4838 0C32.7863 0 33.0422 0.104965 33.2515 0.320668C33.4678 0.530542 33.5762 0.787022 33.5762 1.09017C33.5762 1.39332 33.4678 1.64982 33.2515 1.87135C33.0422 2.08705 32.7863 2.19202 32.4838 2.19202C32.1806 2.19202 31.9212 2.08705 31.7049 1.87135C31.4886 1.64982 31.3802 1.39332 31.3802 1.09017C31.3802 0.787022 31.4845 0.530542 31.6938 0.320668C31.9101 0.104965 32.1736 0 32.4838 0ZM33.3815 5.17688V13.1404C33.3815 13.7584 33.4247 14.1723 33.5109 14.3822C33.6048 14.5862 33.7383 14.7377 33.9115 14.8369C34.0916 14.9418 34.4163 14.9884 34.885 14.9884V15.3791H30.0714V14.9884C30.5547 14.9884 30.8788 14.9418 31.0449 14.8485C31.2105 14.7552 31.3405 14.5979 31.4344 14.3822C31.5352 14.1665 31.5859 13.7526 31.5859 13.1404V9.32187C31.5859 8.24918 31.5533 7.54963 31.4886 7.23482C31.4379 7.00163 31.3586 6.84418 31.2501 6.75674C31.1423 6.66346 30.9942 6.61683 30.8071 6.61683C30.6048 6.61683 30.36 6.66931 30.0714 6.78008L29.9198 6.38946L32.9052 5.17688H33.3815ZM39.0061 2.21536V5.46837H41.3212V6.22628H39.0061V12.6507C39.0061 13.2978 39.0965 13.7292 39.2766 13.9508C39.4644 14.1723 39.7022 14.2889 39.9908 14.2889C40.2287 14.2889 40.4595 14.2131 40.6828 14.0673C40.9067 13.9216 41.0798 13.7001 41.2022 13.4086H41.6237C41.3713 14.1198 41.0145 14.6503 40.5534 15.0118C40.0917 15.3674 39.6153 15.5423 39.1251 15.5423C38.7933 15.5423 38.4692 15.449 38.1515 15.2683C37.8344 15.0818 37.6 14.8194 37.4484 14.4812C37.2974 14.1373 37.2217 13.6068 37.2217 12.8897V6.22628H35.6528V5.87059C36.0498 5.71319 36.4533 5.44502 36.8643 5.07191C37.2828 4.68714 37.6542 4.23828 37.9783 3.71943C38.1445 3.44542 38.3754 2.94409 38.6709 2.21536H39.0061ZM55.2428 0.373117C57.1462 0.373117 58.7943 1.10183 60.1859 2.54763C61.585 3.99342 62.2846 5.79485 62.2846 7.95771C62.2846 10.1847 61.5815 12.0386 60.1754 13.5077C58.7692 14.9768 57.0669 15.7172 55.0696 15.7172C53.0502 15.7172 51.3519 14.9943 49.9749 13.5602C48.6044 12.126 47.9194 10.2721 47.9194 7.99265C47.9194 5.66073 48.7128 3.76026 50.2991 2.29115C51.6767 1.01442 53.3242 0.373117 55.2428 0.373117ZM55.037 1.16596C53.7247 1.16596 52.6718 1.64984 51.8784 2.62342C50.8908 3.83602 50.3965 5.61412 50.3965 7.94604C50.3965 10.3421 50.9089 12.1843 51.9326 13.4727C52.7184 14.4579 53.7573 14.9477 55.048 14.9477C56.425 14.9477 57.5613 14.4113 58.4556 13.3328C59.3569 12.2601 59.8075 10.5636 59.8075 8.2492C59.8075 5.74238 59.3137 3.87101 58.3256 2.63509C57.5321 1.65568 56.4361 1.16596 55.037 1.16596ZM72.5282 5.46837V11.4731C72.5282 12.6216 72.5532 13.3212 72.6039 13.5835C72.6617 13.8342 72.7479 14.0149 72.8634 14.114C72.9864 14.2131 73.1269 14.2655 73.2855 14.2655C73.5087 14.2655 73.7612 14.2014 74.0428 14.079L74.1943 14.458L71.2305 15.6822H70.7437V13.5835C69.8925 14.5046 69.2436 15.0876 68.7965 15.3266C68.3493 15.5656 67.8771 15.6822 67.3793 15.6822C66.8243 15.6822 66.341 15.5248 65.93 15.2041C65.526 14.8835 65.245 14.4696 65.0864 13.9624C64.9273 13.4552 64.8479 12.744 64.8479 11.8229V7.39807C64.8479 6.92586 64.7978 6.60519 64.697 6.42447C64.5955 6.24374 64.4446 6.10385 64.2423 6.01057C64.0476 5.91147 63.6907 5.86476 63.1713 5.87059V5.46837H66.6435V12.1027C66.6435 13.0238 66.8027 13.6301 67.1199 13.9216C67.444 14.2073 67.8334 14.353 68.2881 14.353C68.5983 14.353 68.9481 14.2539 69.3375 14.0615C69.7339 13.8633 70.2027 13.496 70.7437 12.948V7.33388C70.7437 6.76839 70.6387 6.38948 70.43 6.1971C70.2277 5.99305 69.8021 5.88808 69.1533 5.87059V5.46837H72.5282ZM77.8175 5.17688V7.40967C78.6471 5.92307 79.4983 5.17688 80.3704 5.17688C80.7675 5.17688 81.0951 5.29931 81.3551 5.54416C81.6145 5.78318 81.7445 6.06305 81.7445 6.37786C81.7445 6.65769 81.6506 6.8967 81.4629 7.09491C81.2758 7.2873 81.0519 7.3864 80.7925 7.3864C80.5401 7.3864 80.255 7.26397 79.9379 7.01912C79.6277 6.76261 79.3969 6.64017 79.2459 6.64017C79.1159 6.64017 78.9754 6.71012 78.8238 6.85587C78.4991 7.15319 78.1638 7.63706 77.8175 8.31332V13.0646C77.8175 13.6126 77.8864 14.0266 78.0234 14.3064C78.1172 14.5046 78.2828 14.6678 78.5206 14.7961C78.7591 14.9243 79.1013 14.9884 79.5484 14.9884V15.3791H74.4753V14.9884C74.9802 14.9884 75.355 14.9127 75.6005 14.7495C75.7806 14.6387 75.9065 14.4521 75.9788 14.2014C76.015 14.079 76.0331 13.7293 76.0331 13.1521V9.3102C76.0331 8.1559 76.008 7.4738 75.9573 7.25809C75.9141 7.03073 75.8273 6.86751 75.6978 6.76841C75.5748 6.6693 75.4198 6.61683 75.2326 6.61683C75.0088 6.61683 74.7563 6.66931 74.4753 6.78008L74.3669 6.38946L77.3634 5.17688H77.8175ZM100.479 0.373117L100.815 5.3634H100.479C100.033 3.87097 99.3943 2.79251 98.5647 2.13957C97.7357 1.4808 96.7406 1.15429 95.5793 1.15429C94.6057 1.15429 93.7259 1.40499 92.9401 1.90053C92.1542 2.39023 91.534 3.17728 91.0792 4.26163C90.6327 5.34015 90.4088 6.68679 90.4088 8.29582C90.4088 9.61918 90.6216 10.7735 91.0471 11.7471C91.4727 12.7207 92.1105 13.4669 92.9617 13.9857C93.8198 14.5046 94.7969 14.7611 95.8929 14.7611C96.8449 14.7611 97.685 14.5629 98.4137 14.1548C99.1419 13.7467 99.9423 12.9364 100.815 11.7238L101.15 11.9395C100.415 13.2453 99.5563 14.2014 98.5758 14.8077C97.5952 15.414 96.4304 15.7172 95.082 15.7172C92.6515 15.7172 90.7697 14.8135 89.4352 13.0121C88.4401 11.6713 87.9428 10.0914 87.9428 8.27255C87.9428 6.80926 88.2704 5.46255 88.9269 4.23829C89.5833 3.01403 90.4846 2.06376 91.6313 1.39333C92.785 0.717076 94.0431 0.373117 95.4061 0.373117C96.4666 0.373117 97.5118 0.635439 98.5431 1.15429C98.8463 1.3117 99.0626 1.39333 99.192 1.39333C99.3867 1.39333 99.5564 1.32339 99.701 1.18931C99.8881 0.991091 100.022 0.722906 100.101 0.373117H100.479ZM108.225 13.9508C107.207 14.7378 106.57 15.1925 106.31 15.3149C105.92 15.4957 105.506 15.5831 105.066 15.5831C104.381 15.5831 103.815 15.3499 103.368 14.8835C102.928 14.4113 102.708 13.7933 102.708 13.0296C102.708 12.5457 102.816 12.1318 103.032 11.7762C103.328 11.2865 103.84 10.8259 104.568 10.3945C105.304 9.9573 106.522 9.43264 108.225 8.81468V8.42406C108.225 7.43299 108.066 6.75673 107.748 6.38946C107.438 6.02218 106.984 5.83565 106.385 5.83565C105.931 5.83565 105.571 5.96392 105.304 6.20877C105.03 6.45362 104.893 6.73342 104.893 7.04823L104.915 7.67789C104.915 8.01019 104.828 8.26667 104.655 8.4474C104.489 8.62812 104.269 8.71555 103.995 8.71555C103.728 8.71555 103.508 8.62228 103.335 8.43573C103.169 8.24917 103.086 7.99269 103.086 7.66622C103.086 7.04826 103.403 6.47691 104.038 5.95806C104.673 5.4392 105.563 5.17688 106.71 5.17688C107.59 5.17688 108.311 5.32846 108.874 5.61995C109.299 5.84731 109.613 6.19713 109.815 6.66935C109.945 6.98416 110.009 7.61372 110.009 8.57564V11.9395C110.009 12.8839 110.027 13.4669 110.063 13.6826C110.1 13.8924 110.157 14.0324 110.237 14.1024C110.323 14.1723 110.42 14.2131 110.529 14.2131C110.644 14.2131 110.745 14.1839 110.831 14.1373C110.983 14.044 111.275 13.7759 111.707 13.3445V13.9508C110.9 15.0351 110.128 15.5714 109.393 15.5714C109.039 15.5714 108.758 15.449 108.549 15.2041C108.34 14.9593 108.232 14.5454 108.225 13.9508ZM108.225 13.2453V9.47345C107.136 9.90486 106.433 10.2138 106.115 10.3945C105.545 10.7093 105.138 11.0417 104.893 11.3856C104.648 11.7354 104.525 12.1143 104.525 12.5224C104.525 13.0413 104.68 13.4727 104.99 13.8225C105.3 14.1606 105.657 14.3297 106.061 14.3297C106.609 14.3297 107.33 13.9682 108.225 13.2453ZM115.396 7.28727C116.117 6.56437 116.543 6.15045 116.673 6.04552C116.997 5.77152 117.347 5.55583 117.722 5.40425C118.097 5.25268 118.468 5.17688 118.836 5.17688C119.456 5.17688 119.99 5.35764 120.437 5.71908C120.884 6.08053 121.183 6.60518 121.335 7.28727C122.078 6.42446 122.705 5.85895 123.217 5.59077C123.729 5.31677 124.256 5.17688 124.796 5.17688C125.322 5.17688 125.788 5.31677 126.192 5.59077C126.603 5.85895 126.927 6.29619 127.165 6.90832C127.324 7.32806 127.403 7.98101 127.403 8.8788V13.1404C127.403 13.7584 127.45 14.1839 127.544 14.4171C127.616 14.5745 127.749 14.7145 127.944 14.8253C128.139 14.936 128.456 14.9884 128.896 14.9884V15.3791H124.007V14.9884H124.212C124.637 14.9884 124.969 14.9069 125.207 14.7436C125.373 14.627 125.492 14.4404 125.564 14.1898C125.593 14.0673 125.607 13.7176 125.607 13.1404V8.8788C125.607 8.06845 125.51 7.503 125.315 7.1707C125.034 6.71015 124.584 6.47692 123.963 6.47692C123.581 6.47692 123.195 6.57602 122.806 6.76841C122.424 6.95496 121.959 7.31062 121.411 7.82947L121.389 7.94604L121.411 8.41246V13.1404C121.411 13.8167 121.447 14.2422 121.518 14.4055C121.598 14.5687 121.742 14.7145 121.952 14.8253C122.16 14.936 122.518 14.9884 123.022 14.9884V15.3791H118.014V14.9884C118.562 14.9884 118.937 14.9243 119.139 14.7961C119.348 14.6678 119.492 14.4696 119.572 14.2131C119.607 14.0907 119.626 13.7292 119.626 13.1404V8.8788C119.626 8.06845 119.507 7.49131 119.269 7.13569C118.952 6.67513 118.508 6.44198 117.938 6.44198C117.549 6.44198 117.163 6.54686 116.781 6.75674C116.182 7.07738 115.721 7.43305 115.396 7.82947V13.1404C115.396 13.7875 115.44 14.2131 115.526 14.4055C115.62 14.5978 115.753 14.7494 115.926 14.8485C116.107 14.9418 116.467 14.9884 117.008 14.9884V15.3791H112.108V14.9884C112.562 14.9884 112.879 14.9418 113.06 14.8485C113.24 14.7494 113.377 14.5921 113.471 14.3822C113.564 14.1665 113.611 13.7526 113.611 13.1404V9.35688C113.611 8.26671 113.579 7.5613 113.514 7.24649C113.463 7.00747 113.384 6.84418 113.276 6.75674C113.168 6.66346 113.02 6.61683 112.833 6.61683C112.631 6.61683 112.389 6.66931 112.108 6.78008L111.945 6.38946L114.931 5.17688H115.396V7.28727ZM128.982 6.45357L132.033 5.22349H132.444V7.53798C132.958 6.66351 133.465 6.0572 133.979 5.70741C134.497 5.35762 135.045 5.17688 135.611 5.17688C136.608 5.17688 137.436 5.56748 138.1 6.34868C138.916 7.29894 139.324 8.54069 139.324 10.0681C139.324 11.7762 138.835 13.1929 137.849 14.3064C137.045 15.2217 136.031 15.6822 134.801 15.6822C134.27 15.6822 133.809 15.6064 133.419 15.4548C133.127 15.3441 132.807 15.1284 132.444 14.8077V17.8217C132.444 18.5038 132.484 18.9294 132.563 19.1102C132.649 19.2967 132.795 19.4483 132.993 19.5532C133.203 19.664 133.582 19.7164 134.118 19.7164V20.1187H128.928V19.7164H129.199C129.596 19.7222 129.934 19.6465 130.215 19.4891C130.352 19.4075 130.457 19.2792 130.529 19.0985C130.608 18.9294 130.649 18.4805 130.649 17.7576V8.38911C130.649 7.74783 130.619 7.33977 130.562 7.1707C130.504 6.99581 130.41 6.86753 130.281 6.78008C130.158 6.69263 129.989 6.65184 129.772 6.65184C129.599 6.65184 129.379 6.69848 129.112 6.80342L128.982 6.45357ZM132.444 8.17341V11.8753C132.444 12.674 132.476 13.1987 132.541 13.4552C132.642 13.8691 132.888 14.2422 133.279 14.557C133.675 14.8718 134.171 15.0351 134.771 15.0351C135.488 15.0351 136.077 14.7494 136.52 14.1898C137.103 13.4552 137.401 12.4175 137.401 11.0825C137.401 9.57256 137.068 8.40661 136.404 7.59043C135.943 7.03077 135.395 6.74507 134.76 6.74507C134.41 6.74507 134.072 6.83256 133.734 7.00745C133.471 7.13571 133.04 7.5263 132.444 8.17341ZM149.457 5.46837V11.4731C149.457 12.6216 149.486 13.3212 149.532 13.5835C149.591 13.8342 149.678 14.0149 149.795 14.114C149.917 14.2131 150.057 14.2655 150.215 14.2655C150.442 14.2655 150.693 14.2014 150.972 14.079L151.124 14.458L148.162 15.6822H147.673V13.5835C146.822 14.5046 146.174 15.0876 145.726 15.3266C145.283 15.5656 144.81 15.6822 144.309 15.6822C143.755 15.6822 143.271 15.5248 142.863 15.2041C142.455 14.8835 142.175 14.4696 142.018 13.9624C141.86 13.4552 141.779 12.744 141.779 11.8229V7.39807C141.779 6.92586 141.726 6.60519 141.627 6.42447C141.528 6.24374 141.377 6.10385 141.173 6.01057C140.98 5.91147 140.619 5.86476 140.1 5.87059V5.46837H143.574V12.1027C143.574 13.0238 143.732 13.6301 144.052 13.9216C144.373 14.2073 144.764 14.353 145.218 14.353C145.527 14.353 145.877 14.2539 146.268 14.0615C146.664 13.8633 147.131 13.496 147.673 12.948V7.33388C147.673 6.76839 147.568 6.38948 147.358 6.1971C147.16 5.99305 146.734 5.88808 146.087 5.87059V5.46837H149.457ZM158.254 5.17688V8.55237H157.898C157.624 7.49134 157.269 6.77422 156.837 6.38946C156.412 6.01052 155.864 5.81815 155.205 5.81815C154.698 5.81815 154.29 5.95226 153.981 6.2146C153.672 6.48278 153.514 6.78011 153.514 7.10658C153.514 7.50884 153.631 7.85274 153.864 8.14424C154.086 8.43573 154.54 8.75053 155.222 9.08283L156.802 9.8524C158.266 10.5636 159 11.5081 159 12.674C159 13.5776 158.656 14.3064 157.974 14.8602C157.292 15.4082 156.534 15.6822 155.689 15.6822C155.082 15.6822 154.395 15.5714 153.613 15.3557C153.374 15.2858 153.182 15.2508 153.03 15.2508C152.861 15.2508 152.733 15.3441 152.64 15.5306H152.284V11.9919H152.64C152.844 13.0005 153.229 13.7642 153.794 14.2772C154.365 14.7902 155.007 15.041 155.712 15.041C156.208 15.041 156.61 14.901 156.925 14.6096C157.239 14.3181 157.397 13.9624 157.397 13.5485C157.397 13.053 157.222 12.6332 156.866 12.2951C156.522 11.9569 155.829 11.5255 154.779 11.0067C153.736 10.4878 153.048 10.0214 152.727 9.60169C152.401 9.1936 152.237 8.67479 152.237 8.04517C152.237 7.229 152.517 6.54691 153.071 5.9989C153.637 5.4509 154.36 5.17688 155.246 5.17688C155.636 5.17688 156.109 5.26436 156.662 5.42759C157.03 5.53836 157.274 5.59077 157.397 5.59077C157.513 5.59077 157.607 5.56162 157.671 5.51498C157.735 5.46251 157.811 5.35177 157.898 5.17688H158.254Z" fill="white"/>
</svg>
