<svg width="10" height="10" viewBox="0 0 10 10" fill="none" xmlns="http://www.w3.org/2000/svg">
<path d="M3.18021 1.93367C4.25054 0.644399 5.27092 0 6.24136 0C6.73965 0 7.16825 0.127573 7.52716 0.383105C7.88606 0.627022 8.1718 1.03375 8.38493 1.6087C8.5307 2.00361 8.60388 2.61902 8.60388 3.44369V7.34053C8.60388 7.91548 8.65034 8.3104 8.74384 8.51367C8.81701 8.68208 8.93316 8.80981 9.09287 8.90273C9.25897 8.99565 9.56096 9.04224 10 9.04224V9.40238H5.48348V9.04224H5.6728C6.0985 9.04224 6.3941 8.98427 6.5602 8.8565C6.73326 8.72293 6.8529 8.53128 6.91911 8.27575C6.94582 8.17702 6.95918 7.86321 6.95918 7.34053V3.60051C6.95918 2.77003 6.84942 2.16612 6.62989 1.79444C6.41734 1.41695 6.05494 1.22531 5.5433 1.22531C4.75231 1.22531 3.96481 1.66073 3.18021 2.52605V7.34053C3.18021 7.95613 3.21679 8.33955 3.28997 8.48474C3.38289 8.67639 3.5095 8.82143 3.66863 8.91435C3.8353 9.00147 4.16749 9.04224 4.66578 9.04224V9.40238H0.149256V9.04224H0.349032C0.814216 9.04224 1.12667 8.92604 1.28579 8.69373C1.45247 8.45562 1.53551 8.00259 1.53551 7.34053V3.94902C1.53551 2.85139 1.5088 2.18341 1.45537 1.9453C1.40891 1.70719 1.33283 1.54467 1.22597 1.45756C1.12666 1.37044 0.99018 1.32967 0.817696 1.32967C0.631274 1.32967 0.408853 1.37613 0.149256 1.47486L0 1.12067L2.75161 0H3.18021V1.93367Z" fill="white"/>
</svg>
