<svg width="88" height="27" viewBox="0 0 88 27" fill="none" xmlns="http://www.w3.org/2000/svg">
<path d="M0 0H7.00645L22.7897 19.3625V4.47539C22.7897 2.88658 22.6122 1.8973 22.2566 1.50155C21.787 0.971951 21.045 0.704172 20.0294 0.704172H19.1343V0H28.1213V0.704172H27.207C26.1158 0.704172 25.3411 1.03573 24.8843 1.69337C24.6049 2.10075 24.4653 3.02626 24.4653 4.47539V26.2357H23.7803L6.75912 5.44725V21.3411C6.75912 22.9299 6.93022 23.9192 7.273 24.315C7.75546 24.8446 8.49747 25.1124 9.50022 25.1124H10.4145V25.8165H1.4276V25.1124H2.3227C3.42671 25.1124 4.20772 24.7805 4.66457 24.1229C4.94392 23.7155 5.08358 22.7903 5.08358 21.3411V3.38702C4.33457 2.51405 3.76307 1.93208 3.36965 1.65273C2.98903 1.3792 2.42396 1.1174 1.67554 0.872969C1.30714 0.762393 0.749008 0.704172 0 0.704172V0ZM32.8428 14.9451C32.83 17.5349 33.4586 19.5661 34.7279 21.0385C35.9972 22.5109 37.4882 23.2442 39.2021 23.2442C40.3446 23.2442 41.3345 22.9357 42.172 22.313C43.0223 21.6786 43.7334 20.6019 44.3044 19.0772L44.8945 19.4554C44.6279 21.1955 43.8539 22.7844 42.5718 24.2161C41.2897 25.6361 39.684 26.3519 37.7547 26.3519C35.6608 26.3519 33.8648 25.5372 32.3668 23.9134C30.8816 22.2781 30.139 20.0783 30.139 17.3255C30.139 14.34 30.9008 12.0178 32.4238 10.3591C33.9597 8.68302 35.8825 7.84507 38.193 7.84507C40.1473 7.84507 41.753 8.49111 43.01 9.78311C44.2665 11.0693 44.8945 12.7859 44.8945 14.9451H32.8428ZM32.8428 13.8393H40.9155C40.8521 12.7219 40.7188 11.9364 40.5157 11.4824C40.1985 10.7666 39.7224 10.208 39.0875 9.80641C38.4659 9.39903 37.8118 9.19516 37.1268 9.19516C36.0728 9.19516 35.1277 9.6083 34.2897 10.4347C33.465 11.2437 32.9825 12.3786 32.8428 13.8393ZM46.2656 8.37448H53.5765V9.07894C52.9037 9.13131 52.4596 9.25346 52.2437 9.44552C52.0406 9.63175 51.9393 9.90522 51.9393 10.2602C51.9393 10.656 52.047 11.1332 52.2629 11.6919L55.9946 21.7253L59.7454 13.5543L58.7555 10.9877C58.4505 10.2253 58.0507 9.69558 57.556 9.4046C57.2767 9.22418 56.7564 9.11967 55.9946 9.07894V8.37448H64.2959V9.07894C63.3817 9.11967 62.7345 9.2824 62.3539 9.57339C62.1001 9.77708 61.9732 10.1029 61.9732 10.5453C61.9732 10.8013 62.0239 11.0634 62.1251 11.3253L66.0855 21.3411L69.7601 11.6919C70.0139 11.0051 70.1407 10.4582 70.1407 10.0508C70.1407 9.81218 70.0139 9.59665 69.7601 9.4046C69.5192 9.21254 69.0367 9.10803 68.3133 9.07894V8.37448H73.8154V9.07894C72.7114 9.24771 71.8989 9.99257 71.3786 11.3253L65.5524 26.3519H64.772L60.4118 15.2127L55.3282 26.3519H54.624L49.0259 11.6919C48.6581 10.7607 48.2961 10.138 47.9411 9.82375C47.5855 9.49202 47.0269 9.24771 46.2656 9.07894V8.37448ZM86.6858 7.86241V13.8044H86.0579C85.5754 11.9362 84.9533 10.6676 84.192 9.99254C83.443 9.32327 82.4845 8.98573 81.3171 8.98573C80.4284 8.98573 79.7114 9.2185 79.1655 9.6899C78.6196 10.1613 78.3466 10.6794 78.3466 11.2497C78.3466 11.9597 78.5497 12.5706 78.956 13.0769C79.3494 13.6007 80.149 14.1536 81.3549 14.7356L84.135 16.0857C86.7115 17.3428 88 19.0014 88 21.0558C88 22.6446 87.397 23.9252 86.1911 24.9029C84.9981 25.869 83.659 26.3519 82.1738 26.3519C81.1076 26.3519 79.8889 26.16 78.5184 25.7759C78.0993 25.6537 77.7565 25.5895 77.49 25.5895C77.1984 25.5895 76.9697 25.7525 76.8044 26.0842H76.1764V19.8569H76.8044C77.16 21.632 77.8392 22.9707 78.8419 23.8728C79.8447 24.7749 80.9679 25.2289 82.2116 25.2289C83.0875 25.2289 83.7986 24.9728 84.3445 24.4664C84.9027 23.9427 85.182 23.32 85.182 22.5983C85.182 21.7253 84.8712 20.9862 84.2491 20.3926C83.6398 19.7931 82.4147 19.0363 80.5745 18.1226C78.7342 17.2089 77.5284 16.3883 76.9569 15.6492C76.3859 14.9276 76.1002 14.0139 76.1002 12.9081C76.1002 11.4706 76.5891 10.2719 77.5662 9.31167C78.5561 8.34559 79.8319 7.86241 81.3933 7.86241C82.0783 7.86241 82.91 8.0079 83.8871 8.29889C84.5348 8.49094 84.9661 8.5842 85.182 8.5842C85.3851 8.5842 85.544 8.54347 85.6581 8.45035C85.7721 8.36306 85.9054 8.16503 86.0579 7.86241H86.6858Z" fill="#0086FD"/>
</svg>
