<svg width="68" height="7" viewBox="0 0 68 7" fill="none" xmlns="http://www.w3.org/2000/svg">
<path d="M6.22697 0.185642L3.51718 6.8325H2.70983L0 0.185642H0.719238C0.799859 0.185642 0.864819 0.202957 0.91412 0.243558C0.96342 0.284158 1.00052 0.336364 1.02546 0.394365L2.90003 5.08667C2.94005 5.19107 2.97892 5.30713 3.01604 5.42893C3.05606 5.55653 3.09204 5.68409 3.12278 5.82329C3.15352 5.68409 3.18598 5.55653 3.2202 5.42893C3.25442 5.30713 3.29155 5.19107 3.33157 5.08667L5.20151 0.394365C5.22007 0.342164 5.25546 0.29577 5.30825 0.255169C5.36393 0.208768 5.43062 0.185642 5.50776 0.185642H6.22697ZM7.77908 2.13439V6.8325H6.95314V2.13439H7.77908ZM7.95538 0.655481C7.95538 0.736682 7.93858 0.812021 7.90436 0.881622C7.87362 0.951223 7.83012 1.01506 7.77444 1.06726C7.72166 1.11946 7.65844 1.16585 7.5842 1.19485C7.51286 1.22385 7.43744 1.24129 7.35682 1.24129C7.2762 1.24129 7.20082 1.22385 7.12948 1.19485C7.06161 1.16585 7.00129 1.11946 6.94851 1.06726C6.89573 1.01506 6.85396 0.951223 6.82322 0.881622C6.79248 0.812021 6.77681 0.736682 6.77681 0.655481C6.77681 0.57428 6.79248 0.4988 6.82322 0.429199C6.85396 0.353799 6.89573 0.289952 6.94851 0.237752C7.00129 0.185551 7.06161 0.139168 7.12948 0.110167C7.20082 0.0753669 7.2762 0.0638631 7.35682 0.0638631C7.43744 0.0638631 7.51286 0.0753669 7.5842 0.110167C7.65844 0.139168 7.72166 0.185551 7.77444 0.237752C7.83012 0.289952 7.87362 0.353799 7.90436 0.429199C7.93858 0.4988 7.95538 0.57428 7.95538 0.655481ZM12.2822 3.9673C12.2822 3.7759 12.2544 3.60181 12.1987 3.44521C12.1459 3.2828 12.0671 3.14943 11.9621 3.03342C11.86 2.91742 11.7347 2.82464 11.5862 2.76084C11.4377 2.69704 11.269 2.66809 11.0805 2.66809C10.6843 2.66809 10.3705 2.784 10.1385 3.01601C9.90944 3.24221 9.76733 3.56129 9.71165 3.9673H12.2822ZM12.9504 6.17135C12.8483 6.29895 12.726 6.40325 12.5839 6.49605C12.4412 6.58885 12.2881 6.66433 12.1245 6.72233C11.9633 6.78033 11.7962 6.82091 11.6234 6.84992C11.4499 6.88472 11.2783 6.89636 11.1083 6.89636C10.7835 6.89636 10.4831 6.84414 10.2081 6.73394C9.93554 6.62374 9.6989 6.46129 9.49821 6.25249C9.29985 6.03789 9.14558 5.77682 9.03422 5.46362C8.92285 5.15042 8.86716 4.79089 8.86716 4.38489C8.86716 4.06008 8.91645 3.75263 9.01563 3.46843C9.11771 3.18423 9.26272 2.94061 9.4518 2.73181C9.64031 2.52301 9.87058 2.35489 10.1432 2.23889C10.4152 2.11709 10.7214 2.05905 11.0619 2.05905C11.3432 2.05905 11.603 2.10545 11.8414 2.20405C12.0827 2.29686 12.2898 2.43023 12.4632 2.61003C12.6395 2.78403 12.777 3.00451 12.8762 3.27132C12.9748 3.52652 13.0247 3.828 13.0247 4.1586C13.0247 4.29201 13.0107 4.37912 12.9829 4.41972C12.9551 4.46032 12.9023 4.48344 12.8251 4.48344H9.68382C9.6931 4.77925 9.73313 5.0403 9.80447 5.2607C9.87871 5.4811 9.98076 5.66088 10.1107 5.81168C10.2406 5.95668 10.3949 6.06692 10.5747 6.14232C10.7539 6.21192 10.9552 6.24669 11.1779 6.24669C11.385 6.24669 11.563 6.22356 11.7115 6.17716C11.8629 6.13076 11.9928 6.07855 12.1013 6.02055C12.2092 5.96254 12.299 5.91614 12.3704 5.86974C12.4446 5.81754 12.5079 5.79426 12.5606 5.79426C12.6285 5.79426 12.6813 5.81754 12.7184 5.86974L12.9504 6.17135ZM20.476 2.13439L18.9541 6.8325H18.2998C18.2192 6.8325 18.1635 6.78029 18.1328 6.67589L17.0934 3.48585C17.0684 3.41625 17.0481 3.34672 17.0331 3.27132C17.0174 3.20172 17.0018 3.12625 16.9867 3.05665C16.971 3.12625 16.9554 3.20172 16.9403 3.27132C16.9246 3.34672 16.9043 3.41625 16.88 3.49165L15.822 6.67589C15.7942 6.78029 15.7321 6.8325 15.6364 6.8325H15.0147L13.4927 2.13439H14.1423C14.2073 2.13439 14.2612 2.15183 14.3047 2.18083C14.3511 2.21563 14.3819 2.25621 14.3975 2.30261L15.2977 5.33023C15.3499 5.55063 15.3916 5.75949 15.423 5.96249C15.4508 5.85809 15.4787 5.75366 15.5065 5.64926C15.5373 5.54486 15.5697 5.43463 15.6039 5.33023L16.5969 2.28519C16.612 2.23879 16.6387 2.19822 16.6758 2.16922C16.7158 2.14022 16.764 2.12277 16.8196 2.12277H17.1816C17.2431 2.12277 17.2941 2.14022 17.3347 2.16922C17.3747 2.19822 17.4025 2.23879 17.4182 2.28519L18.388 5.33023C18.4216 5.43463 18.4529 5.54486 18.4808 5.64926C18.5086 5.75366 18.5347 5.85809 18.5597 5.96249C18.5747 5.85809 18.5933 5.75367 18.6153 5.65507C18.6397 5.55067 18.6664 5.44043 18.6942 5.33023L19.6129 2.30261C19.628 2.25621 19.6576 2.21563 19.7011 2.18083C19.744 2.15183 19.7951 2.13439 19.8542 2.13439H20.476ZM26.8822 4.36166L25.8382 1.65888C25.8068 1.57768 25.7743 1.48489 25.7407 1.38049C25.7065 1.27029 25.674 1.16004 25.6433 1.03823C25.5783 1.28764 25.5116 1.49649 25.4438 1.66469L24.3998 4.36166H26.8822ZM28.7568 6.8325H28.0607C27.9801 6.8325 27.9152 6.81504 27.8659 6.77444C27.816 6.73384 27.7789 6.68163 27.7545 6.61783L27.1327 5.01134H24.1492L23.5274 6.61783C23.5089 6.67583 23.4729 6.72223 23.4207 6.76864C23.3679 6.80924 23.3029 6.8325 23.2258 6.8325H22.5298L25.1886 0.185642H26.098L28.7568 6.8325ZM30.2723 0V6.8325H29.4458V0H30.2723ZM32.4653 0V6.8325H31.6394V0H32.4653ZM41.0419 5.45781C41.0912 5.45781 41.1347 5.48108 41.1718 5.52168L41.5291 5.90443C41.2565 6.21763 40.9259 6.46705 40.5361 6.64105C40.1493 6.82085 39.6806 6.90783 39.1302 6.90783C38.6534 6.90783 38.2207 6.82667 37.831 6.65847C37.4412 6.49607 37.1083 6.26409 36.8333 5.96249C36.5578 5.66668 36.3444 5.30702 36.193 4.88942C36.041 4.47181 35.9657 4.01368 35.9657 3.50907C35.9657 3.01026 36.0446 2.55199 36.2023 2.13439C36.3601 1.71678 36.5811 1.35726 36.8658 1.05565C37.1535 0.754049 37.4969 0.522074 37.8959 0.359672C38.295 0.19147 38.7358 0.110167 39.2183 0.110167C39.6916 0.110167 40.1092 0.185648 40.4712 0.336449C40.8331 0.487251 41.1515 0.696088 41.427 0.951291L41.13 1.36888C41.1115 1.39788 41.0865 1.42101 41.0558 1.44421C41.028 1.46161 40.9891 1.47324 40.9398 1.47324C40.8841 1.47324 40.8157 1.4443 40.7356 1.3863C40.655 1.32249 40.55 1.25284 40.4201 1.18324C40.2902 1.10784 40.1278 1.03818 39.9329 0.980178C39.738 0.922177 39.4979 0.887427 39.2137 0.887427C38.8703 0.887427 38.556 0.951262 38.2718 1.06726C37.987 1.18907 37.7411 1.3572 37.534 1.58341C37.3298 1.80961 37.1703 2.08797 37.0561 2.41278C36.9412 2.73758 36.8844 3.10307 36.8844 3.50907C36.8844 3.92667 36.943 4.29203 37.0607 4.61683C37.1814 4.94164 37.3437 5.22014 37.5479 5.44634C37.755 5.66675 37.998 5.84068 38.2764 5.95668C38.5577 6.07268 38.8611 6.13071 39.1859 6.13071C39.3836 6.13071 39.5617 6.11908 39.7195 6.10168C39.8801 6.07268 40.0269 6.03791 40.1603 5.98571C40.296 5.93931 40.4213 5.87547 40.5361 5.80007C40.6533 5.72467 40.7693 5.63188 40.8841 5.52748C40.9363 5.48108 40.9891 5.45781 41.0419 5.45781ZM44.2685 2.05905C44.6118 2.05905 44.921 2.11708 45.1965 2.22728C45.472 2.34328 45.7069 2.50559 45.9018 2.71439C46.0966 2.929 46.2451 3.18424 46.3472 3.48004C46.4522 3.78164 46.505 4.11223 46.505 4.47764C46.505 4.84884 46.4522 5.18523 46.3472 5.48104C46.2451 5.77684 46.0966 6.03208 45.9018 6.24088C45.7069 6.45548 45.472 6.61794 45.1965 6.72814C44.921 6.84414 44.6118 6.89636 44.2685 6.89636C43.9222 6.89636 43.6096 6.84414 43.3312 6.72814C43.0557 6.61794 42.8208 6.45548 42.6259 6.24088C42.431 6.03208 42.2808 5.77684 42.1758 5.48104C42.0737 5.18523 42.0227 4.84884 42.0227 4.47764C42.0227 4.11223 42.0737 3.78164 42.1758 3.48004C42.2808 3.18424 42.431 2.929 42.6259 2.71439C42.8208 2.50559 43.0557 2.34328 43.3312 2.22728C43.6096 2.11708 43.9222 2.05905 44.2685 2.05905ZM44.2685 6.25249C44.7325 6.25249 45.0787 6.09586 45.3078 5.78846C45.5369 5.47525 45.6512 5.04025 45.6512 4.48344C45.6512 3.92664 45.5369 3.48583 45.3078 3.17843C45.0787 2.86522 44.7325 2.70859 44.2685 2.70859C44.0336 2.70859 43.8276 2.74931 43.6513 2.83051C43.4779 2.90591 43.3329 3.02182 43.2152 3.17843C43.1009 3.32923 43.0139 3.51481 42.9553 3.73521C42.8997 3.95561 42.8718 4.20504 42.8718 4.48344C42.8718 5.04025 42.9861 5.47525 43.2152 5.78846C43.4472 6.09586 43.7981 6.25249 44.2685 6.25249ZM51.4176 2.13439V6.8325H50.9258C50.808 6.8325 50.7338 6.77447 50.7031 6.65847L50.6381 6.15394C50.4339 6.38014 50.2048 6.56571 49.9514 6.70491C49.6979 6.83832 49.4067 6.90783 49.079 6.90783C48.8221 6.90783 48.5947 6.86725 48.3969 6.78025C48.2021 6.69325 48.0379 6.57152 47.9051 6.42072C47.7723 6.26411 47.6714 6.07853 47.6035 5.85813C47.5385 5.63772 47.506 5.39411 47.506 5.12731V2.13439H48.332V5.12731C48.332 5.48692 48.4126 5.75948 48.5733 5.95668C48.7374 6.14808 48.9863 6.24669 49.3203 6.24669C49.5645 6.24669 49.7919 6.18866 50.0024 6.07846C50.2158 5.95666 50.4125 5.80015 50.5917 5.59135V2.13439H51.4176ZM53.5114 3.07406C53.6599 2.75506 53.8426 2.49983 54.059 2.32003C54.2753 2.14023 54.5398 2.04744 54.8524 2.04744C54.9516 2.04744 55.0456 2.05908 55.1355 2.08228C55.2283 2.10548 55.31 2.13443 55.3814 2.18083L55.3211 2.80148C55.3025 2.87688 55.2561 2.91745 55.1819 2.91745C55.1384 2.91745 55.0751 2.90582 54.9916 2.88842C54.9081 2.87102 54.8136 2.85939 54.7086 2.85939C54.5601 2.85939 54.4273 2.88266 54.3096 2.92326C54.1953 2.96966 54.0915 3.03351 53.9987 3.12051C53.9088 3.20171 53.827 3.31179 53.7527 3.4336C53.6814 3.5612 53.6164 3.70039 53.5579 3.86279V6.8325H52.7273V2.13439H53.2005C53.2905 2.13439 53.3519 2.15183 53.3862 2.18083C53.4204 2.21563 53.4436 2.27367 53.4558 2.36067L53.5114 3.07406ZM58.818 2.90584C58.7808 2.97544 58.724 3.0102 58.6463 3.0102C58.5999 3.0102 58.5476 2.99289 58.4885 2.95809C58.4299 2.92329 58.3574 2.88838 58.2704 2.84778C58.1869 2.80138 58.0865 2.76661 57.9688 2.73181C57.8516 2.69121 57.7124 2.67389 57.5512 2.67389C57.412 2.67389 57.2867 2.69121 57.1754 2.73181C57.064 2.76661 56.9683 2.81301 56.8877 2.87681C56.8105 2.93481 56.7502 3.01028 56.7067 3.09148C56.6667 3.17268 56.6464 3.25966 56.6464 3.35826C56.6464 3.48006 56.6806 3.57868 56.7485 3.65988C56.8198 3.74108 56.9126 3.8106 57.0269 3.8686C57.1417 3.9266 57.2716 3.97881 57.4166 4.02521C57.5622 4.06581 57.7107 4.11802 57.8621 4.17022C58.017 4.21662 58.1672 4.27464 58.3122 4.33844C58.4578 4.39644 58.5877 4.47773 58.7019 4.57053C58.8168 4.66333 58.9078 4.77344 58.9757 4.91264C59.047 5.04604 59.0824 5.20269 59.0824 5.39409C59.0824 5.60869 59.0441 5.81172 58.9664 5.99732C58.8893 6.17712 58.775 6.33942 58.6231 6.47283C58.4717 6.60623 58.2861 6.71066 58.0662 6.79186C57.847 6.86726 57.593 6.90783 57.3053 6.90783C56.9776 6.90783 56.6806 6.85576 56.4144 6.75136C56.1487 6.64116 55.9225 6.50183 55.7369 6.33363L55.9318 6.02055C55.9568 5.97994 55.9863 5.95085 56.02 5.92765C56.0542 5.90445 56.0977 5.89282 56.1499 5.89282C56.2056 5.89282 56.2647 5.91609 56.3262 5.96249C56.3883 6.00309 56.4625 6.04948 56.5489 6.10168C56.6388 6.15388 56.7473 6.20608 56.8737 6.24669C57.0008 6.29309 57.1585 6.31055 57.347 6.31055C57.5083 6.31055 57.6486 6.29309 57.7693 6.25249C57.8899 6.21189 57.9908 6.15386 58.0709 6.07846C58.1515 6.00886 58.2101 5.9277 58.2472 5.8349C58.2878 5.7421 58.3075 5.6435 58.3075 5.53909C58.3075 5.40569 58.2721 5.30126 58.2008 5.22006C58.1329 5.13306 58.0419 5.05773 57.9271 4.99973C57.8128 4.93593 57.6811 4.88371 57.5327 4.84311C57.3877 4.79671 57.2374 4.75031 57.0826 4.69811C56.9312 4.64591 56.781 4.59369 56.6325 4.52989C56.4875 4.46609 56.3576 4.38494 56.2427 4.29214C56.1285 4.19353 56.0356 4.07747 55.9643 3.93827C55.8964 3.79327 55.8622 3.62513 55.8622 3.42213C55.8622 3.24232 55.8993 3.06824 55.9736 2.90584C56.0478 2.73764 56.1563 2.59264 56.2984 2.47083C56.441 2.34323 56.6157 2.24462 56.8227 2.16922C57.0304 2.09382 57.267 2.05905 57.5327 2.05905C57.8424 2.05905 58.119 2.10545 58.3632 2.20405C58.6109 2.30266 58.8243 2.43602 59.0035 2.60423L58.818 2.90584ZM63.2411 3.9673C63.2411 3.7759 63.2132 3.60181 63.1576 3.44521C63.1048 3.2828 63.0259 3.14943 62.9209 3.03342C62.8188 2.91742 62.6935 2.82464 62.5451 2.76084C62.3966 2.69704 62.2278 2.66809 62.0393 2.66809C61.6431 2.66809 61.3294 2.784 61.0974 3.01601C60.8683 3.24221 60.7262 3.56129 60.6705 3.9673H63.2411ZM63.9092 6.17135C63.8071 6.29895 63.6848 6.40325 63.5427 6.49605C63.4006 6.58885 63.2474 6.66433 63.0833 6.72233C62.9226 6.78033 62.7556 6.82091 62.5822 6.84992C62.4088 6.88472 62.2371 6.89636 62.0671 6.89636C61.7423 6.89636 61.4425 6.84414 61.167 6.73394C60.8949 6.62374 60.6583 6.46129 60.457 6.25249C60.2593 6.03789 60.1044 5.77682 59.993 5.46362C59.8817 5.15042 59.826 4.79089 59.826 4.38489C59.826 4.06008 59.8753 3.75263 59.9745 3.46843C60.0765 3.18423 60.2221 2.94061 60.4106 2.73181C60.5991 2.52301 60.83 2.35489 61.102 2.23889C61.374 2.11709 61.6803 2.05905 62.0207 2.05905C62.302 2.05905 62.5619 2.10545 62.8003 2.20405C63.0415 2.29686 63.2486 2.43023 63.422 2.61003C63.5984 2.78403 63.7358 3.00451 63.835 3.27132C63.9342 3.52652 63.9835 3.828 63.9835 4.1586C63.9835 4.29201 63.9696 4.37912 63.9417 4.41972C63.9139 4.46032 63.8611 4.48344 63.7839 4.48344H60.6426C60.6519 4.77925 60.6919 5.0403 60.7633 5.2607C60.8375 5.4811 60.9396 5.66088 61.0695 5.81168C61.1994 5.95668 61.3543 6.06692 61.5335 6.14232C61.7127 6.21192 61.914 6.24669 62.1367 6.24669C62.3438 6.24669 62.5219 6.22356 62.6703 6.17716C62.8217 6.13076 62.9516 6.07855 63.0601 6.02055C63.1686 5.96254 63.2579 5.91614 63.3292 5.86974C63.4035 5.81754 63.4667 5.79426 63.5195 5.79426C63.5873 5.79426 63.6401 5.81754 63.6772 5.86974L63.9092 6.17135ZM67.7356 2.90584C67.6984 2.97544 67.6416 3.0102 67.5639 3.0102C67.5175 3.0102 67.4652 2.99289 67.4061 2.95809C67.3475 2.92329 67.275 2.88838 67.188 2.84778C67.1045 2.80138 67.0041 2.76661 66.8864 2.73181C66.7692 2.69121 66.63 2.67389 66.4688 2.67389C66.3296 2.67389 66.2043 2.69121 66.093 2.73181C65.9816 2.76661 65.8859 2.81301 65.8053 2.87681C65.7282 2.93481 65.6678 3.01028 65.6243 3.09148C65.5843 3.17268 65.564 3.25966 65.564 3.35826C65.564 3.48006 65.5982 3.57868 65.6661 3.65988C65.7374 3.74108 65.8302 3.8106 65.9445 3.8686C66.0593 3.9266 66.1892 3.97881 66.3343 4.02521C66.4798 4.06581 66.6283 4.11802 66.7797 4.17022C66.9346 4.21662 67.0848 4.27464 67.2298 4.33844C67.3754 4.39644 67.5053 4.47773 67.6195 4.57053C67.7344 4.66333 67.8254 4.77344 67.8933 4.91264C67.9646 5.04604 68 5.20269 68 5.39409C68 5.60869 67.9617 5.81172 67.884 5.99732C67.8069 6.17712 67.6926 6.33942 67.5407 6.47283C67.3893 6.60623 67.2037 6.71066 66.9839 6.79186C66.7646 6.86726 66.5106 6.90783 66.2229 6.90783C65.8952 6.90783 65.5982 6.85576 65.332 6.75136C65.0663 6.64116 64.8402 6.50183 64.6546 6.33363L64.8494 6.02055C64.8744 5.97994 64.9039 5.95085 64.9376 5.92765C64.9718 5.90445 65.0153 5.89282 65.0675 5.89282C65.1232 5.89282 65.1824 5.91609 65.2438 5.96249C65.3059 6.00309 65.3801 6.04948 65.4665 6.10168C65.5564 6.15388 65.6649 6.20608 65.7913 6.24669C65.9184 6.29309 66.0762 6.31055 66.2647 6.31055C66.4259 6.31055 66.5662 6.29309 66.6869 6.25249C66.8075 6.21189 66.9085 6.15386 66.9885 6.07846C67.0691 6.00886 67.1277 5.9277 67.1648 5.8349C67.2054 5.7421 67.2251 5.6435 67.2251 5.53909C67.2251 5.40569 67.1898 5.30126 67.1184 5.22006C67.0506 5.13306 66.9595 5.05773 66.8447 4.99973C66.7304 4.93593 66.5987 4.88371 66.4503 4.84311C66.3053 4.79671 66.155 4.75031 66.0002 4.69811C65.8488 4.64591 65.6986 4.59369 65.5501 4.52989C65.4051 4.46609 65.2752 4.38494 65.1603 4.29214C65.0461 4.19353 64.9532 4.07747 64.8819 3.93827C64.814 3.79327 64.7798 3.62513 64.7798 3.42213C64.7798 3.24232 64.8169 3.06824 64.8912 2.90584C64.9654 2.73764 65.0739 2.59264 65.216 2.47083C65.3587 2.34323 65.5333 2.24462 65.7403 2.16922C65.948 2.09382 66.1846 2.05905 66.4503 2.05905C66.76 2.05905 67.0366 2.10545 67.2808 2.20405C67.5285 2.30266 67.7419 2.43602 67.9211 2.60423L67.7356 2.90584Z" fill="#0086FD"/>
</svg>
