<svg width="170" height="98" viewBox="0 0 170 98" fill="none" xmlns="http://www.w3.org/2000/svg">
<g filter="url(#filter0_d_2_1357)">
<path d="M170 0H0V97.4744H170V0Z" fill="white"/>
<path d="M24.7754 17.6731L24.8944 20.197H24.5933C24.5347 19.7503 24.4557 19.4369 24.3554 19.2454C24.1912 18.9379 23.9718 18.7115 23.6968 18.5723C23.427 18.4214 23.0702 18.3462 22.6258 18.3462H21.1109V26.5677C21.1109 27.2291 21.1822 27.641 21.325 27.8034C21.5257 28.0239 21.8349 28.1343 22.2533 28.1343H22.6258V28.4301H18.0648V28.1343H18.4454C18.9003 28.1343 19.2229 28.0006 19.4132 27.7221C19.5298 27.5539 19.5878 27.1711 19.5878 26.5677V18.3462H18.2945C17.7921 18.3462 17.4352 18.3868 17.224 18.4564C16.949 18.5608 16.7135 18.7523 16.5179 19.0366C16.3224 19.3209 16.2058 19.7096 16.1687 20.197H15.8676L15.994 17.6731H24.7754ZM28.7893 27.3858C28.0437 27.9602 27.5755 28.2908 27.3852 28.3836C27.0997 28.5171 26.7957 28.5808 26.4731 28.5808C25.9707 28.5808 25.5558 28.4069 25.2274 28.0646C24.9048 27.7223 24.7435 27.2696 24.7435 26.7068C24.7435 26.3528 24.823 26.0456 24.982 25.7903C25.1984 25.4305 25.5738 25.0882 26.1081 24.7749C26.6477 24.4558 27.5413 24.0729 28.7893 23.6145V23.3301C28.7893 22.6048 28.6732 22.1059 28.4406 21.839C28.2131 21.5663 27.8795 21.4328 27.4409 21.4328C27.1078 21.4328 26.8433 21.5257 26.6477 21.7056C26.4464 21.8855 26.3461 22.0886 26.3461 22.3207L26.3623 22.7847C26.3623 23.0226 26.2985 23.2142 26.1714 23.3476C26.0501 23.4753 25.8888 23.5448 25.6875 23.5448C25.492 23.5448 25.3307 23.4753 25.2036 23.336C25.0824 23.2026 25.0214 23.011 25.0214 22.7731C25.0214 22.3205 25.2541 21.9027 25.7194 21.5198C26.1847 21.1426 26.8381 20.9512 27.6788 20.9512C28.324 20.9512 28.8531 21.0556 29.2651 21.2761C29.5772 21.4386 29.8076 21.694 29.9555 22.0422C30.0507 22.2743 30.0982 22.7382 30.0982 23.4403V25.9061C30.0982 26.6024 30.1116 27.026 30.1377 27.1827C30.1644 27.3394 30.2067 27.4438 30.2647 27.496C30.328 27.5483 30.3999 27.5714 30.4788 27.5714C30.5636 27.5714 30.6378 27.5541 30.7011 27.5193C30.8119 27.4496 31.0266 27.2582 31.3433 26.9391V27.3858C30.7515 28.1749 30.1853 28.5751 29.6463 28.5751C29.3869 28.5751 29.1809 28.4822 29.0272 28.3023C28.874 28.1225 28.7945 27.8152 28.7893 27.3858ZM28.7893 26.8694V24.1018C27.9909 24.4151 27.4751 24.6415 27.2425 24.7749C26.8247 25.007 26.5259 25.2505 26.3461 25.5058C26.1662 25.7553 26.0762 26.0339 26.0762 26.3356C26.0762 26.7186 26.19 27.0317 26.4174 27.287C26.6448 27.5364 26.9065 27.6584 27.203 27.6584C27.6045 27.6584 28.1337 27.3974 28.7893 26.8694ZM36.5872 20.9512V23.423H36.325C36.1242 22.6455 35.8649 22.1175 35.5481 21.839C35.2359 21.5605 34.8368 21.4155 34.35 21.4155C33.9798 21.4155 33.681 21.514 33.4536 21.7113C33.2261 21.9085 33.1124 22.1233 33.1124 22.3612C33.1124 22.6571 33.1971 22.9124 33.3665 23.1213C33.5301 23.3417 33.8637 23.568 34.3656 23.8117L35.5243 24.3743C36.5977 24.9023 37.1344 25.5929 37.1344 26.4458C37.1344 27.1073 36.8831 27.6409 36.3807 28.0471C35.8834 28.4532 35.3259 28.6505 34.7068 28.6505C34.2629 28.6505 33.7553 28.5753 33.1837 28.4128C33.0097 28.3606 32.8664 28.3372 32.7556 28.3372C32.6337 28.3372 32.5386 28.401 32.4701 28.5403H32.2084V25.9469H32.4701C32.6181 26.6896 32.9012 27.2464 33.319 27.6235C33.7367 27.9949 34.2043 28.1864 34.723 28.1864C35.088 28.1864 35.3839 28.076 35.6113 27.8672C35.844 27.6525 35.9606 27.3915 35.9606 27.0898C35.9606 26.7243 35.8307 26.4168 35.5719 26.1673C35.3178 25.9237 34.8077 25.6045 34.0407 25.2273C33.2737 24.8444 32.7712 24.5022 32.5334 24.1947C32.2955 23.893 32.1765 23.5099 32.1765 23.0516C32.1765 22.454 32.3802 21.9549 32.7875 21.5546C33.2 21.1485 33.7315 20.9512 34.3819 20.9512C34.6673 20.9512 35.0137 21.0092 35.421 21.1311C35.6908 21.2123 35.8707 21.2529 35.9606 21.2529C36.0447 21.2529 36.1109 21.2354 36.1585 21.1948C36.206 21.16 36.2617 21.0788 36.325 20.9512H36.5872ZM37.8086 21.1659H41.1958V21.456H41.0293C40.7914 21.456 40.6115 21.5081 40.4897 21.6183C40.3736 21.717 40.3151 21.8449 40.3151 21.9957C40.3151 22.2046 40.4026 22.4889 40.5773 22.8544L42.3458 26.5212L43.9721 22.5062C44.062 22.2857 44.1073 22.0711 44.1073 21.8623C44.1073 21.7694 44.0887 21.6939 44.0516 21.6475C44.0092 21.5895 43.9431 21.5431 43.8531 21.5141C43.7632 21.4735 43.6048 21.456 43.3774 21.456V21.1659H45.7411V21.456C45.5456 21.4792 45.3947 21.52 45.2892 21.5838C45.183 21.6476 45.0669 21.7692 44.9399 21.9433C44.8923 22.0129 44.8023 22.2162 44.6701 22.5527L41.7116 29.8052C41.4256 30.5073 41.0502 31.0351 40.5848 31.3949C40.1247 31.7546 39.6809 31.9345 39.2521 31.9345C38.9405 31.9345 38.6841 31.8475 38.4828 31.6677C38.282 31.4878 38.1816 31.2788 38.1816 31.0467C38.1816 30.8262 38.253 30.6465 38.3957 30.5073C38.5437 30.3738 38.7445 30.3101 38.9986 30.3101C39.1732 30.3101 39.4111 30.368 39.7122 30.484C39.924 30.5653 40.0563 30.6059 40.1091 30.6059C40.2675 30.6059 40.4398 30.5187 40.6249 30.3563C40.8152 30.1938 41.0055 29.8749 41.1958 29.4049L41.7116 28.1457L39.1018 22.6629C39.0224 22.5004 38.8953 22.2972 38.7207 22.0535C38.5884 21.8678 38.4805 21.7404 38.3957 21.6824C38.2739 21.5953 38.0784 21.5198 37.8086 21.456V21.1659ZM50.4611 27.3858C49.7155 27.9602 49.2473 28.2908 49.057 28.3836C48.7716 28.5171 48.4675 28.5808 48.1449 28.5808C47.6425 28.5808 47.227 28.4069 46.8992 28.0646C46.5766 27.7223 46.4153 27.2696 46.4153 26.7068C46.4153 26.3528 46.4948 26.0456 46.6532 25.7903C46.8702 25.4305 47.2456 25.0882 47.78 24.7749C48.319 24.4558 49.2131 24.0729 50.4611 23.6145V23.3301C50.4611 22.6048 50.3445 22.1059 50.1118 21.839C49.8844 21.5663 49.5513 21.4328 49.1121 21.4328C48.7791 21.4328 48.5151 21.5257 48.319 21.7056C48.1182 21.8855 48.0179 22.0886 48.0179 22.3207L48.0335 22.7847C48.0335 23.0226 47.9703 23.2142 47.8432 23.3476C47.7214 23.4753 47.5601 23.5448 47.3593 23.5448C47.1638 23.5448 47.0025 23.4753 46.8754 23.336C46.7536 23.2026 46.6932 23.011 46.6932 22.7731C46.6932 22.3205 46.9259 21.9027 47.3912 21.5198C47.8565 21.1426 48.5093 20.9512 49.3506 20.9512C49.9958 20.9512 50.5243 21.0556 50.9369 21.2761C51.249 21.4386 51.4788 21.694 51.6267 22.0422C51.7224 22.2743 51.77 22.7382 51.77 23.4403V25.9061C51.77 26.6024 51.7828 27.026 51.8095 27.1827C51.8356 27.3394 51.8779 27.4438 51.9365 27.496C51.9998 27.5483 52.0712 27.5714 52.1506 27.5714C52.2354 27.5714 52.309 27.5541 52.3729 27.5193C52.4837 27.4496 52.6978 27.2582 53.0151 26.9391V27.3858C52.4228 28.1749 51.8571 28.5751 51.3175 28.5751C51.0587 28.5751 50.8521 28.4822 50.699 28.3023C50.5458 28.1225 50.4663 27.8152 50.4611 27.3858ZM50.4611 26.8694V24.1018C49.6622 24.4151 49.1469 24.6415 48.9143 24.7749C48.4965 25.007 48.1977 25.2505 48.0179 25.5058C47.838 25.7553 47.748 26.0339 47.748 26.3356C47.748 26.7186 47.8618 27.0317 48.0892 27.287C48.3167 27.5364 48.5783 27.6584 48.8742 27.6584C49.2763 27.6584 49.8049 27.3974 50.4611 26.8694ZM68.0947 28.4301H65.2232L61.5824 23.3998C61.3127 23.4114 61.0934 23.417 60.9239 23.417C60.8549 23.417 60.7812 23.417 60.7017 23.417C60.6222 23.4112 60.5404 23.4056 60.4557 23.3998V26.5271C60.4557 27.206 60.53 27.6237 60.6779 27.7861C60.8787 28.0182 61.1804 28.1343 61.5824 28.1343H62.0025V28.4301H57.394V28.1343H57.7984C58.2532 28.1343 58.5787 27.9891 58.7743 27.6932C58.8851 27.5308 58.9408 27.1422 58.9408 26.5271V19.5763C58.9408 18.9033 58.8665 18.4795 58.7186 18.317C58.5126 18.0849 58.2057 17.9691 57.7984 17.9691H57.394V17.6731H61.3127C62.4551 17.6731 63.2958 17.7601 63.8348 17.9283C64.3796 18.0908 64.8397 18.3983 65.2151 18.8451C65.5963 19.2918 65.7866 19.8256 65.7866 20.4407C65.7866 21.1021 65.5696 21.6766 65.1362 22.164C64.7074 22.6514 64.0414 22.9936 63.1368 23.1966L65.3578 26.2775C65.8655 26.9912 66.3018 27.4611 66.6668 27.6932C67.0317 27.9253 67.5081 28.0705 68.0947 28.1343V28.4301ZM60.4557 22.9009C60.5561 22.9009 60.6437 22.9065 60.7174 22.9065C60.7916 22.9065 60.8526 22.9065 60.9001 22.9065C61.9259 22.9065 62.6982 22.686 63.2163 22.245C63.7397 21.7983 64.0019 21.2356 64.0019 20.5452C64.0019 19.8722 63.7902 19.3266 63.3672 18.9088C62.9494 18.4853 62.3942 18.2765 61.7014 18.2765C61.3945 18.2765 60.9796 18.3286 60.4557 18.4272V22.9009ZM69.6815 23.8987C69.6763 24.9778 69.938 25.8249 70.4665 26.4399C70.9957 27.0549 71.6171 27.3567 72.3308 27.3567C72.8065 27.3567 73.219 27.2291 73.5683 26.968C73.9228 26.7069 74.2187 26.2544 74.4566 25.622L74.7026 25.7787C74.5918 26.5039 74.2692 27.1653 73.7348 27.7629C73.2005 28.3547 72.5315 28.6505 71.7279 28.6505C70.8553 28.6505 70.1068 28.314 69.4831 27.6351C68.864 26.9563 68.5548 26.0396 68.5548 24.8908C68.5548 23.6491 68.8722 22.6802 69.5069 21.9898C70.1469 21.2935 70.9481 20.9396 71.9101 20.9396C72.7247 20.9396 73.3937 21.2125 73.917 21.7521C74.441 22.2859 74.7026 22.9993 74.7026 23.8987H69.6815ZM69.6815 23.4403H73.045C73.0183 22.9761 72.9626 22.6454 72.8779 22.4598C72.7462 22.1581 72.5477 21.926 72.2832 21.7577C72.0238 21.5895 71.7517 21.5025 71.4663 21.5025C71.027 21.5025 70.6331 21.6766 70.2844 22.0189C69.9403 22.3613 69.7396 22.8311 69.6815 23.4403ZM80.3741 20.9512V23.423H80.1125C79.9117 22.6455 79.6524 22.1175 79.335 21.839C79.0234 21.5605 78.6237 21.4155 78.1374 21.4155C77.7673 21.4155 77.4685 21.514 77.241 21.7113C77.0136 21.9085 76.8999 22.1233 76.8999 22.3612C76.8999 22.6571 76.9846 22.9124 77.154 23.1213C77.3176 23.3417 77.6506 23.568 78.1531 23.8117L79.3112 24.3743C80.3852 24.9023 80.9218 25.5929 80.9218 26.4458C80.9218 27.1073 80.6706 27.6409 80.1682 28.0471C79.6709 28.4532 79.1133 28.6505 78.4943 28.6505C78.0498 28.6505 77.5421 28.5753 76.9712 28.4128C76.7966 28.3606 76.6539 28.3372 76.543 28.3372C76.4212 28.3372 76.326 28.401 76.2576 28.5403H75.9953V25.9469H76.2576C76.4055 26.6896 76.6881 27.2464 77.1064 27.6235C77.5242 27.9949 77.9918 28.1864 78.5099 28.1864C78.8749 28.1864 79.1714 28.076 79.3988 27.8672C79.6315 27.6525 79.7475 27.3915 79.7475 27.0898C79.7475 26.7243 79.6181 26.4168 79.3588 26.1673C79.1052 25.9237 78.5946 25.6045 77.8282 25.2273C77.0612 24.8444 76.5587 24.5022 76.3208 24.1947C76.0829 23.893 75.964 23.5099 75.964 23.0516C75.964 22.454 76.1676 21.9549 76.575 21.5546C76.9869 21.1485 77.5184 20.9512 78.1693 20.9512C78.4548 20.9512 78.8012 21.0092 79.2085 21.1311C79.4777 21.2123 79.6576 21.2529 79.7475 21.2529C79.8322 21.2529 79.8984 21.2354 79.9459 21.1948C79.9935 21.16 80.0492 21.0788 80.1125 20.9512H80.3741ZM81.596 21.1659H84.9833V21.456H84.8168C84.5783 21.456 84.399 21.5081 84.2772 21.6183C84.1606 21.717 84.1025 21.8449 84.1025 21.9957C84.1025 22.2046 84.1901 22.4889 84.3642 22.8544L86.1332 26.5212L87.7595 22.5062C87.8495 22.2857 87.8942 22.0711 87.8942 21.8623C87.8942 21.7694 87.8756 21.6939 87.8391 21.6475C87.7967 21.5895 87.7306 21.5431 87.6406 21.5141C87.5507 21.4735 87.3917 21.456 87.1643 21.456V21.1659H89.5286V21.456C89.3325 21.4792 89.1822 21.52 89.0761 21.5838C88.9705 21.6476 88.8544 21.7692 88.7274 21.9433C88.6798 22.0129 88.5898 22.2162 88.4575 22.5527L85.4985 29.8052C85.213 30.5073 84.8377 31.0351 84.3723 31.3949C83.9122 31.7546 83.4678 31.9345 83.0396 31.9345C82.7274 31.9345 82.471 31.8475 82.2702 31.6677C82.0695 31.4878 81.9685 31.2788 81.9685 31.0467C81.9685 30.8262 82.0399 30.6465 82.1832 30.5073C82.3312 30.3738 82.5319 30.3101 82.7861 30.3101C82.9601 30.3101 83.1986 30.368 83.4997 30.484C83.7115 30.5653 83.8438 30.6059 83.8966 30.6059C84.055 30.6059 84.2267 30.5187 84.4118 30.3563C84.6021 30.1938 84.793 29.8749 84.9833 29.4049L85.4985 28.1457L82.8888 22.6629C82.8098 22.5004 82.6828 22.2972 82.5081 22.0535C82.3758 21.8678 82.2674 21.7404 82.1832 21.6824C82.0614 21.5953 81.8658 21.5198 81.596 21.456V21.1659ZM94.248 27.3858C93.5024 27.9602 93.0348 28.2908 92.8445 28.3836C92.5584 28.5171 92.2544 28.5808 91.9318 28.5808C91.4294 28.5808 91.0145 28.4069 90.6867 28.0646C90.3641 27.7223 90.2028 27.2696 90.2028 26.7068C90.2028 26.3528 90.2823 26.0456 90.4407 25.7903C90.6577 25.4305 91.0331 25.0882 91.5669 24.7749C92.1065 24.4558 93 24.0729 94.248 23.6145V23.3301C94.248 22.6048 94.132 22.1059 93.8993 21.839C93.6719 21.5663 93.3388 21.4328 92.8996 21.4328C92.5665 21.4328 92.302 21.5257 92.1064 21.7056C91.9057 21.8855 91.8053 22.0886 91.8053 22.3207L91.821 22.7847C91.821 23.0226 91.7572 23.2142 91.6307 23.3476C91.5088 23.4753 91.3475 23.5448 91.1468 23.5448C90.9513 23.5448 90.79 23.4753 90.6629 23.336C90.5411 23.2026 90.4801 23.011 90.4801 22.7731C90.4801 22.3205 90.7128 21.9027 91.1781 21.5198C91.644 21.1426 92.2968 20.9512 93.1375 20.9512C93.7827 20.9512 94.3118 21.0556 94.7243 21.2761C95.0365 21.4386 95.2662 21.694 95.4142 22.0422C95.5093 22.2743 95.5569 22.7382 95.5569 23.4403V25.9061C95.5569 26.6024 95.5703 27.026 95.597 27.1827C95.6231 27.3394 95.6654 27.4438 95.7234 27.496C95.7873 27.5483 95.8586 27.5714 95.9381 27.5714C96.0223 27.5714 96.0965 27.5541 96.1598 27.5193C96.2712 27.4496 96.4853 27.2582 96.8026 26.9391V27.3858C96.2102 28.1749 95.6446 28.5751 95.105 28.5751C94.8456 28.5751 94.6396 28.4822 94.4864 28.3023C94.3327 28.1225 94.2538 27.8152 94.248 27.3858ZM94.248 26.8694V24.1018C93.4496 24.4151 92.9338 24.6415 92.7012 24.7749C92.2834 25.007 91.9846 25.2505 91.8053 25.5058C91.6255 25.7553 91.5355 26.0339 91.5355 26.3356C91.5355 26.7186 91.6492 27.0317 91.8767 27.287C92.1036 27.5364 92.3658 27.6584 92.6617 27.6584C93.0638 27.6584 93.5924 27.3974 94.248 26.8694Z" fill="#1F1F1F"/>
<path d="M16.1646 47.809C16.0346 47.5885 15.9465 47.3564 15.9 47.1185C15.8536 46.8749 15.849 46.6312 15.8861 46.3933C15.9233 46.1554 16.0004 45.929 16.1182 45.7085C16.236 45.4939 16.3921 45.2967 16.587 45.1227L16.8377 45.2793C16.8841 45.3084 16.9044 45.3491 16.898 45.3955C16.8951 45.4361 16.8812 45.4707 16.8562 45.4998C16.7756 45.5984 16.706 45.7145 16.6474 45.8595C16.5917 46.0046 16.5563 46.1555 16.5406 46.3179C16.5249 46.4804 16.533 46.6487 16.5638 46.8228C16.5945 46.991 16.6584 47.1592 16.7541 47.3217C16.7941 47.3855 16.8052 47.4434 16.7866 47.4956C16.7709 47.5478 16.7338 47.5828 16.6752 47.6118L16.1646 47.809ZM17.5757 47.809C17.4457 47.5885 17.3575 47.3564 17.3111 47.1185C17.2647 46.8749 17.2601 46.6312 17.2972 46.3933C17.3343 46.1554 17.4115 45.929 17.5293 45.7085C17.647 45.4939 17.8031 45.2967 17.9981 45.1227L18.2487 45.2793C18.2952 45.3084 18.3155 45.3491 18.3091 45.3955C18.3062 45.4361 18.2922 45.4707 18.2673 45.4998C18.1866 45.5984 18.117 45.7145 18.0584 45.8595C18.0027 46.0046 17.9673 46.1555 17.9517 46.3179C17.936 46.4804 17.9441 46.6487 17.9749 46.8228C18.0056 46.991 18.0694 47.1592 18.1652 47.3217C18.2052 47.3855 18.2162 47.4434 18.1977 47.4956C18.182 47.5478 18.1449 47.5828 18.0863 47.6118L17.5757 47.809ZM23.3893 51.4644V52.2186H19.6157V45.5694H20.5115V51.4644H23.3893ZM25.0621 47.5189V52.2186H24.2359V47.5189H25.0621ZM25.2385 46.0394C25.2385 46.1207 25.221 46.1962 25.1874 46.2658C25.1561 46.3354 25.1131 46.3992 25.0574 46.4514C25.0046 46.5036 24.9414 46.5498 24.8671 46.5789C24.7958 46.6079 24.7197 46.6253 24.6397 46.6253C24.559 46.6253 24.483 46.6079 24.4122 46.5789C24.3438 46.5498 24.2834 46.5036 24.2312 46.4514C24.1784 46.3992 24.1366 46.3354 24.1059 46.2658C24.0746 46.1962 24.0595 46.1207 24.0595 46.0394C24.0595 45.9582 24.0746 45.8827 24.1059 45.8131C24.1366 45.7377 24.1784 45.6738 24.2312 45.6216C24.2834 45.5694 24.3438 45.5231 24.4122 45.4941C24.483 45.4593 24.559 45.4476 24.6397 45.4476C24.7197 45.4476 24.7958 45.4593 24.8671 45.4941C24.9414 45.5231 25.0046 45.5694 25.0574 45.6216C25.1131 45.6738 25.1561 45.7377 25.1874 45.8131C25.221 45.8827 25.2385 45.9582 25.2385 46.0394ZM33.0927 51.4876L33.088 52.2186H28.9895V45.5694H33.088V46.3004H29.8899V48.511H32.48V49.213H29.8899V51.4876H33.0927ZM37.8196 47.5189V52.2186H37.3276C37.2098 52.2186 37.1355 52.1607 37.1048 52.0446L37.0398 51.5398C36.8356 51.7661 36.6064 51.9516 36.3529 52.0908C36.0987 52.2242 35.808 52.2939 35.4802 52.2939C35.2232 52.2939 34.9957 52.2535 34.7979 52.1664C34.6029 52.0794 34.4388 51.9575 34.3059 51.8066C34.1724 51.65 34.0721 51.4642 34.0042 51.2437C33.9392 51.0232 33.9067 50.7797 33.9067 50.5128V47.5189H34.7329V50.5128C34.7329 50.8725 34.813 51.1453 34.9743 51.3426C35.1379 51.5341 35.3874 51.6327 35.7216 51.6327C35.9659 51.6327 36.1933 51.5747 36.4039 51.4644C36.6174 51.3426 36.8135 51.1857 36.9934 50.9769V47.5189H37.8196ZM39.9142 48.4589C40.0627 48.1397 40.2449 47.8846 40.4619 47.7047C40.6783 47.5248 40.9428 47.4319 41.2556 47.4319C41.3542 47.4319 41.4488 47.4435 41.5387 47.4667C41.6316 47.4899 41.7134 47.5189 41.7847 47.5653L41.7244 48.186C41.7058 48.2615 41.6594 48.3022 41.5851 48.3022C41.5416 48.3022 41.4784 48.2907 41.3948 48.2733C41.3113 48.2559 41.2167 48.2441 41.1117 48.2441C40.9632 48.2441 40.8297 48.2672 40.7125 48.3079C40.5976 48.3543 40.4943 48.4183 40.4015 48.5053C40.3116 48.5865 40.2298 48.6968 40.1555 48.8187C40.0841 48.9463 40.0192 49.0854 39.9606 49.2479V52.2186H39.1297V47.5189H39.6032C39.6925 47.5189 39.7546 47.5363 39.7888 47.5653C39.8225 47.6001 39.8457 47.6582 39.8585 47.7452L39.9142 48.4589ZM44.3028 47.4435C44.6463 47.4435 44.9555 47.5015 45.2311 47.6118C45.5061 47.7278 45.7417 47.8902 45.9367 48.0991C46.1316 48.3137 46.2801 48.5692 46.3823 48.8651C46.4873 49.1668 46.5401 49.4974 46.5401 49.8629C46.5401 50.2342 46.4873 50.5707 46.3823 50.8666C46.2801 51.1626 46.1316 51.4179 45.9367 51.6268C45.7417 51.8414 45.5061 52.0038 45.2311 52.114C44.9555 52.2301 44.6463 52.2823 44.3028 52.2823C43.9559 52.2823 43.6437 52.2301 43.3652 52.114C43.0896 52.0038 42.8546 51.8414 42.6597 51.6268C42.4647 51.4179 42.3145 51.1626 42.2095 50.8666C42.1073 50.5707 42.0563 50.2342 42.0563 49.8629C42.0563 49.4974 42.1073 49.1668 42.2095 48.8651C42.3145 48.5692 42.4647 48.3137 42.6597 48.0991C42.8546 47.8902 43.0896 47.7278 43.3652 47.6118C43.6437 47.5015 43.9559 47.4435 44.3028 47.4435ZM44.3028 51.6384C44.767 51.6384 45.1134 51.4818 45.3425 51.1743C45.5711 50.861 45.686 50.4259 45.686 49.8689C45.686 49.3119 45.5711 48.8709 45.3425 48.5634C45.1134 48.2501 44.767 48.0934 44.3028 48.0934C44.0673 48.0934 43.8619 48.134 43.6855 48.2152C43.512 48.2906 43.3664 48.4067 43.2492 48.5634C43.1343 48.7142 43.0478 48.8999 42.9892 49.1204C42.9335 49.3408 42.9057 49.5904 42.9057 49.8689C42.9057 50.4259 43.02 50.861 43.2492 51.1743C43.4813 51.4818 43.8323 51.6384 44.3028 51.6384ZM48.4188 51.0871C48.5702 51.2901 48.7356 51.4353 48.9154 51.5165C49.0947 51.6036 49.296 51.644 49.5188 51.644C49.9581 51.644 50.2952 51.4876 50.5307 51.1743C50.7657 50.861 50.8835 50.4141 50.8835 49.8397C50.8835 49.5322 50.8556 49.2654 50.7999 49.0507C50.7471 48.8302 50.67 48.6502 50.5679 48.511C50.4658 48.3659 50.3404 48.2615 50.1919 48.1977C50.0434 48.1338 49.8745 48.0991 49.686 48.0991C49.4167 48.0991 49.18 48.1631 48.9758 48.2849C48.7745 48.4126 48.5888 48.5864 48.4188 48.8127V51.0871ZM48.377 48.2441C48.5749 48.0004 48.804 47.8033 49.064 47.6582C49.3239 47.5074 49.621 47.4319 49.9552 47.4319C50.2273 47.4319 50.4733 47.4841 50.6932 47.5885C50.9125 47.693 51.0999 47.8437 51.2548 48.0526C51.4092 48.2499 51.5287 48.4994 51.6122 48.8011C51.6958 49.1028 51.7376 49.4451 51.7376 49.8397C51.7376 50.182 51.6912 50.5069 51.5983 50.8086C51.5055 51.1045 51.3709 51.3656 51.1945 51.5803C51.021 51.8008 50.8075 51.9691 50.5539 52.0968C50.3033 52.2244 50.0201 52.2823 49.7045 52.2823C49.4167 52.2823 49.169 52.2359 48.9619 52.1373C48.7576 52.0386 48.5766 51.9054 48.4188 51.7313V53.8085H47.5879V47.5189H48.0846C48.2018 47.5189 48.2749 47.5711 48.3027 47.6871L48.377 48.2441ZM55.3395 50.1009C54.9589 50.1125 54.6339 50.1471 54.3647 50.1935C54.099 50.2399 53.8808 50.3039 53.7102 50.3794C53.5431 50.4606 53.4213 50.5475 53.3436 50.6519C53.2693 50.7621 53.2322 50.8784 53.2322 51.006C53.2322 51.1337 53.2525 51.238 53.2925 51.325C53.3331 51.4179 53.3871 51.4934 53.455 51.5514C53.5263 51.6036 53.6081 51.65 53.701 51.6732C53.7973 51.7022 53.8994 51.7137 54.0073 51.7137C54.153 51.7137 54.2858 51.6964 54.4065 51.6732C54.5272 51.6384 54.6403 51.5978 54.7453 51.5398C54.8538 51.4876 54.956 51.418 55.0517 51.3426C55.1509 51.2614 55.2467 51.1741 55.3395 51.0754V50.1009ZM52.6705 48.1804C52.9305 47.9309 53.2107 47.7451 53.5107 47.6174C53.8112 47.4956 54.1437 47.4319 54.5086 47.4319C54.772 47.4319 55.0053 47.4783 55.2095 47.5653C55.4138 47.6523 55.5855 47.7685 55.7247 47.9251C55.864 48.0818 55.9696 48.2673 56.0403 48.4878C56.1117 48.7082 56.1471 48.9461 56.1471 49.213V52.2186H55.7804C55.7003 52.2186 55.6383 52.2069 55.5947 52.1837C55.5518 52.1547 55.5176 52.1026 55.4926 52.0214L55.3998 51.5803C55.2762 51.6905 55.1556 51.795 55.0378 51.882C54.9206 51.969 54.7964 52.0445 54.6664 52.1084C54.5365 52.1664 54.3972 52.2128 54.2487 52.2418C54.1036 52.2766 53.9412 52.2939 53.7613 52.2939C53.5791 52.2939 53.4074 52.2708 53.2461 52.2186C53.0854 52.1664 52.9444 52.091 52.8237 51.9865C52.7065 51.8821 52.6119 51.7544 52.5406 51.6035C52.4727 51.4411 52.4385 51.2554 52.4385 51.0465C52.4385 50.8609 52.4895 50.6811 52.5916 50.5128C52.6937 50.3387 52.8597 50.1819 53.0883 50.0485C53.3175 49.915 53.6163 49.8108 53.9841 49.7238C54.3526 49.6368 54.8045 49.5904 55.3395 49.5788V49.213C55.3395 48.8475 55.2606 48.5692 55.1028 48.3835C54.9449 48.1978 54.7146 48.0991 54.4111 48.0991C54.2069 48.0991 54.0352 48.1282 53.8959 48.1804C53.7601 48.2326 53.6406 48.2847 53.5385 48.3543C53.4399 48.4123 53.3529 48.4704 53.2786 48.5226C53.2078 48.5748 53.1364 48.598 53.0651 48.598C53.0094 48.598 52.9618 48.5865 52.9212 48.5574C52.8811 48.5226 52.8469 48.4879 52.819 48.4472L52.6705 48.1804ZM58.1859 48.1977C58.2881 48.0816 58.396 47.9831 58.5109 47.8903C58.6252 47.7974 58.7459 47.7161 58.8729 47.6523C59.0029 47.5827 59.1386 47.5304 59.2814 47.4956C59.4264 47.4608 59.5831 47.4435 59.7502 47.4435C60.0067 47.4435 60.2329 47.4842 60.4279 47.5713C60.6257 47.6583 60.7899 47.7743 60.9199 47.9367C61.0528 48.0876 61.1531 48.279 61.2216 48.4937C61.2895 48.7142 61.3237 48.9577 61.3237 49.2246V52.2186H60.4928V49.2246C60.4928 48.8707 60.4104 48.5922 60.2468 48.4008C60.0855 48.1977 59.8395 48.0991 59.5088 48.0991C59.264 48.0991 59.0354 48.1629 58.8219 48.279C58.6112 48.395 58.4163 48.5574 58.237 48.7546V52.2186H57.4062V47.5189H57.9028C58.02 47.5189 58.0931 47.5711 58.121 47.6871L58.1859 48.1977ZM65.8116 45.3839V52.2186H64.9854V45.3839H65.8116ZM68.0239 47.5189V52.2186H67.1977V47.5189H68.0239ZM68.2003 46.0394C68.2003 46.1207 68.1835 46.1962 68.1492 46.2658C68.1185 46.3354 68.0749 46.3992 68.0193 46.4514C67.967 46.5036 67.9032 46.5498 67.829 46.5789C67.7582 46.6079 67.6822 46.6253 67.6015 46.6253C67.5215 46.6253 67.4454 46.6079 67.3741 46.5789C67.3062 46.5498 67.2459 46.5036 67.1931 46.4514C67.1409 46.3992 67.0991 46.3354 67.0677 46.2658C67.037 46.1962 67.0213 46.1207 67.0213 46.0394C67.0213 45.9582 67.037 45.8827 67.0677 45.8131C67.0991 45.7377 67.1409 45.6738 67.1931 45.6216C67.2459 45.5694 67.3062 45.5231 67.3741 45.4941C67.4454 45.4593 67.5215 45.4476 67.6015 45.4476C67.6822 45.4476 67.7582 45.4593 67.829 45.4941C67.9032 45.5231 67.967 45.5694 68.0193 45.6216C68.0749 45.6738 68.1185 45.7377 68.1492 45.8131C68.1835 45.8827 68.2003 45.9582 68.2003 46.0394ZM70.1614 48.1977C70.2635 48.0816 70.372 47.9831 70.4863 47.8903C70.6006 47.7974 70.7213 47.7161 70.8484 47.6523C70.9783 47.5827 71.1147 47.5304 71.2568 47.4956C71.4024 47.4608 71.5585 47.4435 71.7256 47.4435C71.9826 47.4435 72.2083 47.4842 72.4033 47.5713C72.6011 47.6583 72.7654 47.7743 72.8953 47.9367C73.0282 48.0876 73.1291 48.279 73.197 48.4937C73.2649 48.7142 73.2991 48.9577 73.2991 49.2246V52.2186H72.4683V49.2246C72.4683 48.8707 72.3865 48.5922 72.2223 48.4008C72.0615 48.1977 71.8156 48.0991 71.4843 48.0991C71.24 48.0991 71.0108 48.1629 70.7973 48.279C70.5867 48.395 70.3917 48.5574 70.2124 48.7546V52.2186H69.3816V47.5189H69.8783C69.996 47.5189 70.0685 47.5711 70.0964 47.6871L70.1614 48.1977ZM76.1967 49.921C76.3638 49.921 76.5106 49.8977 76.6376 49.8513C76.7647 49.8049 76.8714 49.7411 76.9579 49.6541C77.0443 49.5729 77.1093 49.4741 77.1528 49.3581C77.1964 49.242 77.2178 49.1146 77.2178 48.9753C77.2178 48.6852 77.1296 48.459 76.9533 48.2849C76.7798 48.1166 76.528 48.0294 76.1967 48.0294C75.8625 48.0294 75.6072 48.1166 75.4308 48.2849C75.2573 48.459 75.1709 48.6852 75.1709 48.9753C75.1709 49.1146 75.1924 49.242 75.2359 49.3581C75.2823 49.4741 75.349 49.5729 75.4355 49.6541C75.5219 49.7411 75.6287 49.8049 75.7557 49.8513C75.8828 49.8977 76.0296 49.921 76.1967 49.921ZM77.6867 52.4738C77.6867 52.3578 77.6541 52.265 77.5892 52.1953C77.5242 52.1257 77.436 52.0677 77.3246 52.0271C77.2161 51.9864 77.0896 51.9574 76.944 51.9458C76.7983 51.9283 76.644 51.911 76.4798 51.9052C76.3191 51.8936 76.1549 51.8821 75.9878 51.8763C75.8207 51.8647 75.66 51.8531 75.5051 51.8299C75.3316 51.9111 75.1894 52.0096 75.078 52.1373C74.9695 52.2533 74.9156 52.3983 74.9156 52.5608C74.9156 52.6652 74.9417 52.764 74.9945 52.8569C75.0502 52.9497 75.1337 53.0251 75.2451 53.0889C75.3565 53.1585 75.4958 53.2106 75.6629 53.2512C75.8329 53.2918 76.0325 53.3093 76.2617 53.3093C76.4845 53.3093 76.6841 53.2918 76.8604 53.2512C77.0368 53.2106 77.1854 53.1527 77.306 53.0773C77.4296 53.0018 77.5242 52.9148 77.5892 52.8104C77.6541 52.7118 77.6867 52.5957 77.6867 52.4738ZM78.5268 47.7047V48.0064C78.5268 48.1109 78.4618 48.1746 78.3318 48.2036L77.798 48.2733C77.903 48.4764 77.9559 48.7026 77.9559 48.9521C77.9559 49.1784 77.9112 49.3873 77.8213 49.5788C77.7348 49.7644 77.6141 49.921 77.4592 50.0544C77.3043 50.1879 77.1186 50.2922 76.9022 50.3618C76.6858 50.4314 76.4502 50.4663 76.1967 50.4663C75.9768 50.4663 75.7696 50.4432 75.5747 50.391C75.4755 50.449 75.4 50.5185 75.3472 50.5882C75.2944 50.6578 75.2683 50.7273 75.2683 50.797C75.2683 50.9072 75.313 50.9945 75.4029 51.0525C75.4958 51.1105 75.6165 51.1511 75.765 51.1743C75.9135 51.1975 76.0824 51.2147 76.271 51.2205C76.463 51.2263 76.6579 51.2379 76.8558 51.2553C77.0571 51.2669 77.2521 51.2902 77.4406 51.325C77.6327 51.354 77.8027 51.4122 77.9512 51.4876C78.0998 51.5689 78.2187 51.6731 78.3086 51.8123C78.4014 51.9458 78.4479 52.1199 78.4479 52.3404C78.4479 52.5377 78.3968 52.7351 78.2947 52.9265C78.1955 53.1122 78.0516 53.2804 77.863 53.4254C77.6744 53.5763 77.4424 53.6923 77.1668 53.7793C76.8947 53.8663 76.5866 53.9127 76.2431 53.9127C75.8996 53.9127 75.5996 53.8781 75.3426 53.8085C75.0856 53.7446 74.8721 53.6517 74.7021 53.5356C74.5321 53.4196 74.4032 53.292 74.3168 53.1353C74.2332 52.9903 74.1915 52.8335 74.1915 52.671C74.1915 52.4389 74.264 52.2416 74.4097 52.0792C74.5553 51.9167 74.7549 51.7893 75.0084 51.6964C74.8692 51.6326 74.7578 51.5513 74.6742 51.4469C74.5936 51.3424 74.5535 51.2032 74.5535 51.0233C74.5535 50.9595 74.5657 50.8899 74.5907 50.8145C74.6156 50.7449 74.6527 50.6694 74.7021 50.5998C74.7549 50.5244 74.8181 50.4548 74.8924 50.391C74.9666 50.3272 75.0531 50.269 75.1523 50.2168C74.9202 50.0891 74.7392 49.9152 74.6092 49.7006C74.4793 49.4859 74.4143 49.2364 74.4143 48.9521C74.4143 48.72 74.4578 48.5168 74.5443 48.3311C74.6342 48.1396 74.7578 47.9832 74.9156 47.8498C75.0734 47.7163 75.2608 47.6175 75.4772 47.5421C75.6971 47.4725 75.9368 47.4375 76.1967 47.4375C76.4009 47.4375 76.5912 47.4608 76.7676 47.5072C76.944 47.5479 77.1047 47.6177 77.2503 47.7047H78.5268ZM83.2479 47.5189V52.2186H82.7559C82.6381 52.2186 82.5638 52.1607 82.5331 52.0446L82.4681 51.5398C82.2639 51.7661 82.0347 51.9516 81.7812 52.0908C81.527 52.2242 81.2363 52.2939 80.9085 52.2939C80.6515 52.2939 80.424 52.2535 80.2262 52.1664C80.0312 52.0794 79.8671 51.9575 79.7342 51.8066C79.6007 51.65 79.5004 51.4642 79.4325 51.2437C79.3675 51.0232 79.335 50.7797 79.335 50.5128V47.5189H80.1612V50.5128C80.1612 50.8725 80.2413 51.1453 80.4026 51.3426C80.5662 51.5341 80.8157 51.6327 81.1499 51.6327C81.3942 51.6327 81.6216 51.5747 81.8322 51.4644C82.0457 51.3426 82.2418 51.1857 82.4217 50.9769V47.5189H83.2479ZM87.7045 49.3524C87.7045 49.1609 87.6766 48.9869 87.6209 48.8303C87.5687 48.6678 87.4898 48.5344 87.3842 48.4183C87.2821 48.3023 87.1567 48.2093 87.0082 48.1455C86.8597 48.0817 86.6914 48.0526 86.5023 48.0526C86.1066 48.0526 85.7921 48.1687 85.56 48.4008C85.3314 48.6271 85.1887 48.9463 85.133 49.3524H87.7045ZM88.3728 51.5571C88.2707 51.6847 88.1489 51.7892 88.0062 51.882C87.864 51.9748 87.7108 52.0503 87.5466 52.1084C87.3859 52.1664 87.2188 52.2068 87.0454 52.2359C86.8725 52.2707 86.7007 52.2823 86.5301 52.2823C86.2052 52.2823 85.9053 52.2302 85.6297 52.12C85.3575 52.0097 85.1208 51.8472 84.9195 51.6384C84.7216 51.4237 84.5667 51.1627 84.4553 50.8494C84.3439 50.5361 84.2882 50.1761 84.2882 49.77C84.2882 49.4451 84.3381 49.1378 84.4367 48.8535C84.5389 48.5692 84.6845 48.3255 84.8731 48.1166C85.0622 47.9078 85.2926 47.7394 85.5647 47.6234C85.8374 47.5016 86.1437 47.4435 86.4837 47.4435C86.7657 47.4435 87.0256 47.4899 87.2635 47.5885C87.5049 47.6814 87.7126 47.8149 87.8855 47.9948C88.0619 48.1689 88.2 48.3891 88.2986 48.656C88.3978 48.9113 88.4471 49.2132 88.4471 49.5439C88.4471 49.6774 88.4332 49.7642 88.4054 49.8048C88.3775 49.8454 88.3253 49.8689 88.2475 49.8689H85.1052C85.1144 50.1648 85.155 50.4258 85.2258 50.6462C85.3001 50.8667 85.4022 51.0467 85.5322 51.1975C85.6621 51.3426 85.817 51.4527 85.9963 51.5282C86.1762 51.5978 86.377 51.6327 86.5998 51.6327C86.8075 51.6327 86.985 51.6094 87.1335 51.563C87.2855 51.5166 87.4155 51.4644 87.5234 51.4063C87.6319 51.3483 87.7219 51.3018 87.7926 51.2553C87.8669 51.2031 87.9307 51.18 87.983 51.18C88.0514 51.18 88.1037 51.2031 88.1408 51.2553L88.3728 51.5571ZM92.2011 48.2906C92.1639 48.3602 92.1065 48.3951 92.0293 48.3951C91.9829 48.3951 91.9301 48.3775 91.8715 48.3427C91.8123 48.3079 91.7398 48.2731 91.6533 48.2325C91.5698 48.1861 91.4688 48.1514 91.3516 48.1166C91.2339 48.076 91.0946 48.0585 90.9339 48.0585C90.7946 48.0585 90.6693 48.076 90.5579 48.1166C90.4465 48.1514 90.3502 48.1979 90.2701 48.2617C90.1924 48.3197 90.132 48.3949 90.0891 48.4761C90.0485 48.5574 90.0288 48.6444 90.0288 48.743C90.0288 48.8649 90.0624 48.9635 90.1309 49.0447C90.2017 49.126 90.2945 49.1958 90.4094 49.2538C90.5237 49.3118 90.6536 49.3641 90.7993 49.4105C90.9443 49.4511 91.0929 49.5033 91.2449 49.5555C91.3992 49.6019 91.5495 49.66 91.6951 49.7238C91.8402 49.7818 91.9701 49.863 92.085 49.9558C92.1993 50.0487 92.2904 50.1588 92.3589 50.2981C92.4296 50.4315 92.4656 50.5882 92.4656 50.7797C92.4656 50.9944 92.4267 51.1974 92.3496 51.3831C92.2718 51.563 92.1575 51.7253 92.0061 51.8588C91.8541 51.9922 91.6684 52.0968 91.4491 52.1781C91.2292 52.2535 90.9756 52.2939 90.6879 52.2939C90.3595 52.2939 90.0624 52.2417 89.7967 52.1373C89.5304 52.027 89.3047 51.8879 89.119 51.7197L89.3139 51.4063C89.3383 51.3657 89.3679 51.3366 89.4021 51.3134C89.4358 51.2902 89.4793 51.2786 89.5321 51.2786C89.5878 51.2786 89.6464 51.3018 89.7085 51.3483C89.77 51.3889 89.8443 51.4354 89.9313 51.4876C90.0207 51.5399 90.1291 51.5921 90.2562 51.6327C90.3827 51.6791 90.5405 51.6964 90.7296 51.6964C90.8904 51.6964 91.0313 51.679 91.1514 51.6384C91.2727 51.5978 91.3731 51.5398 91.4537 51.4644C91.5338 51.3948 91.593 51.3133 91.6301 51.2205C91.6702 51.1277 91.6905 51.0292 91.6905 50.9247C91.6905 50.7913 91.6545 50.687 91.5837 50.6057C91.5152 50.5187 91.4241 50.4431 91.3099 50.385C91.195 50.3212 91.0638 50.269 90.9153 50.2284C90.7697 50.182 90.6194 50.1355 90.4651 50.0833C90.3131 50.0311 90.1634 49.9789 90.0148 49.915C89.8692 49.8512 89.7392 49.7702 89.6249 49.6773C89.5101 49.5787 89.4172 49.4625 89.3465 49.3232C89.278 49.1782 89.2443 49.0101 89.2443 48.807C89.2443 48.6272 89.2815 48.453 89.3557 48.2906C89.43 48.1223 89.5379 47.9773 89.6806 47.8554C89.8228 47.7278 89.9974 47.6291 90.2051 47.5537C90.4123 47.4783 90.649 47.4435 90.9153 47.4435C91.2246 47.4435 91.5013 47.4899 91.7462 47.5885C91.9933 47.6872 92.2069 47.8206 92.3867 47.9889L92.2011 48.2906ZM99.0005 49.3524C99.0005 49.1609 98.9726 48.9869 98.9169 48.8303C98.8641 48.6678 98.7852 48.5344 98.6802 48.4183C98.5781 48.3023 98.4527 48.2093 98.3042 48.1455C98.1557 48.0817 97.9868 48.0526 97.7983 48.0526C97.402 48.0526 97.0881 48.1687 96.856 48.4008C96.6269 48.6271 96.4847 48.9463 96.429 49.3524H99.0005ZM99.6689 51.5571C99.5667 51.6847 99.4443 51.7892 99.3022 51.882C99.16 51.9748 99.0068 52.0503 98.8426 52.1084C98.6819 52.1664 98.5148 52.2068 98.3414 52.2359C98.1679 52.2707 97.9961 52.2823 97.8261 52.2823C97.5012 52.2823 97.2013 52.2302 96.9257 52.12C96.6535 52.0097 96.4168 51.8472 96.2155 51.6384C96.0176 51.4237 95.8627 51.1627 95.7513 50.8494C95.6399 50.5361 95.5842 50.1761 95.5842 49.77C95.5842 49.4451 95.6335 49.1378 95.7327 48.8535C95.8349 48.5692 95.9805 48.3255 96.1691 48.1166C96.3576 47.9078 96.5886 47.7394 96.8607 47.6234C97.1328 47.5016 97.4391 47.4435 97.7797 47.4435C98.0611 47.4435 98.321 47.4899 98.5595 47.5885C98.8009 47.6814 99.008 47.8149 99.1815 47.9948C99.3579 48.1689 99.4954 48.3891 99.5946 48.656C99.6938 48.9113 99.7431 49.2132 99.7431 49.5439C99.7431 49.6774 99.7292 49.7642 99.7014 49.8048C99.6735 49.8454 99.6207 49.8689 99.5435 49.8689H96.4012C96.4104 50.1648 96.4504 50.4258 96.5218 50.6462C96.5961 50.8667 96.6982 51.0467 96.8282 51.1975C96.9581 51.3426 97.113 51.4527 97.2923 51.5282C97.4716 51.5978 97.673 51.6327 97.8958 51.6327C98.1029 51.6327 98.281 51.6094 98.4295 51.563C98.581 51.5166 98.7109 51.4644 98.8194 51.4063C98.9279 51.3483 99.0173 51.3018 99.0886 51.2553C99.1629 51.2031 99.2262 51.18 99.279 51.18C99.3468 51.18 99.3997 51.2031 99.4368 51.2553L99.6689 51.5571ZM103.496 48.2906C103.459 48.3602 103.402 48.3951 103.325 48.3951C103.278 48.3951 103.226 48.3775 103.167 48.3427C103.108 48.3079 103.036 48.2731 102.949 48.2325C102.865 48.1861 102.765 48.1514 102.647 48.1166C102.53 48.076 102.391 48.0585 102.229 48.0585C102.09 48.0585 101.965 48.076 101.853 48.1166C101.742 48.1514 101.646 48.1979 101.566 48.2617C101.488 48.3197 101.428 48.3949 101.385 48.4761C101.344 48.5574 101.324 48.6444 101.324 48.743C101.324 48.8649 101.358 48.9635 101.426 49.0447C101.498 49.126 101.591 49.1958 101.705 49.2538C101.82 49.3118 101.95 49.3641 102.095 49.4105C102.24 49.4511 102.389 49.5033 102.54 49.5555C102.695 49.6019 102.845 49.66 102.991 49.7238C103.136 49.7818 103.266 49.863 103.38 49.9558C103.495 50.0487 103.586 50.1588 103.654 50.2981C103.726 50.4315 103.761 50.5882 103.761 50.7797C103.761 50.9944 103.723 51.1974 103.645 51.3831C103.568 51.563 103.454 51.7253 103.302 51.8588C103.15 51.9922 102.964 52.0968 102.745 52.1781C102.525 52.2535 102.271 52.2939 101.983 52.2939C101.655 52.2939 101.358 52.2417 101.092 52.1373C100.826 52.027 100.6 51.8879 100.414 51.7197L100.609 51.4063C100.634 51.3657 100.664 51.3366 100.698 51.3134C100.732 51.2902 100.775 51.2786 100.828 51.2786C100.883 51.2786 100.942 51.3018 101.004 51.3483C101.066 51.3889 101.14 51.4354 101.227 51.4876C101.317 51.5399 101.425 51.5921 101.552 51.6327C101.679 51.6791 101.837 51.6964 102.025 51.6964C102.186 51.6964 102.327 51.679 102.447 51.6384C102.568 51.5978 102.669 51.5398 102.749 51.4644C102.83 51.3948 102.888 51.3133 102.926 51.2205C102.966 51.1277 102.986 51.0292 102.986 50.9247C102.986 50.7913 102.95 50.687 102.879 50.6057C102.811 50.5187 102.72 50.4431 102.605 50.385C102.491 50.3212 102.359 50.269 102.211 50.2284C102.066 50.182 101.915 50.1355 101.761 50.0833C101.609 50.0311 101.459 49.9789 101.31 49.915C101.165 49.8512 101.035 49.7702 100.92 49.6773C100.806 49.5787 100.713 49.4625 100.642 49.3232C100.574 49.1782 100.54 49.0101 100.54 48.807C100.54 48.6272 100.577 48.453 100.651 48.2906C100.725 48.1223 100.834 47.9773 100.976 47.8554C101.119 47.7278 101.293 47.6291 101.501 47.5537C101.708 47.4783 101.945 47.4435 102.211 47.4435C102.521 47.4435 102.797 47.4899 103.042 47.5885C103.289 47.6872 103.503 47.8206 103.682 47.9889L103.496 48.2906ZM107.149 52.2186V47.5189H107.646C107.764 47.5189 107.836 47.5711 107.864 47.6871L107.925 48.1688C108.098 47.9599 108.293 47.7801 108.509 47.6466C108.726 47.5132 108.977 47.4435 109.261 47.4435C109.577 47.4435 109.832 47.5306 110.027 47.7047C110.225 47.8846 110.368 48.1223 110.454 48.424C110.522 48.2499 110.609 48.105 110.714 47.9832C110.823 47.8555 110.943 47.7568 111.076 47.6755C111.209 47.5943 111.35 47.5362 111.499 47.4956C111.65 47.4608 111.803 47.4435 111.958 47.4435C112.206 47.4435 112.425 47.4841 112.617 47.5653C112.812 47.6407 112.976 47.7567 113.109 47.9075C113.246 48.0584 113.349 48.2442 113.42 48.4705C113.492 48.6851 113.527 48.9403 113.527 49.2246V52.2186H112.696V49.2246C112.696 48.8591 112.616 48.5806 112.455 48.3892C112.294 48.1977 112.062 48.0991 111.759 48.0991C111.622 48.0991 111.492 48.128 111.369 48.1744C111.248 48.2208 111.141 48.2907 111.048 48.3835C110.956 48.4763 110.881 48.5923 110.826 48.7373C110.773 48.8766 110.747 49.039 110.747 49.2246V52.2186H109.916V49.2246C109.916 48.8475 109.84 48.5632 109.688 48.3775C109.537 48.1919 109.315 48.0991 109.025 48.0991C108.82 48.0991 108.632 48.1571 108.458 48.2673C108.285 48.3776 108.126 48.5226 107.98 48.7141V52.2186H107.149ZM117.93 49.3524C117.93 49.1609 117.902 48.9869 117.846 48.8303C117.793 48.6678 117.714 48.5344 117.609 48.4183C117.507 48.3023 117.382 48.2093 117.233 48.1455C117.085 48.0817 116.916 48.0526 116.727 48.0526C116.331 48.0526 116.017 48.1687 115.785 48.4008C115.556 48.6271 115.414 48.9463 115.358 49.3524H117.93ZM118.598 51.5571C118.496 51.6847 118.374 51.7892 118.231 51.882C118.089 51.9748 117.936 52.0503 117.772 52.1084C117.611 52.1664 117.444 52.2068 117.271 52.2359C117.097 52.2707 116.925 52.2823 116.755 52.2823C116.43 52.2823 116.13 52.2302 115.855 52.12C115.583 52.0097 115.346 51.8472 115.145 51.6384C114.947 51.4237 114.792 51.1627 114.681 50.8494C114.569 50.5361 114.513 50.1761 114.513 49.77C114.513 49.4451 114.563 49.1378 114.662 48.8535C114.764 48.5692 114.91 48.3255 115.098 48.1166C115.287 47.9078 115.518 47.7394 115.79 47.6234C116.062 47.5016 116.368 47.4435 116.709 47.4435C116.99 47.4435 117.25 47.4899 117.489 47.5885C117.73 47.6814 117.937 47.8149 118.111 47.9948C118.287 48.1689 118.425 48.3891 118.524 48.656C118.623 48.9113 118.672 49.2132 118.672 49.5439C118.672 49.6774 118.658 49.7642 118.631 49.8048C118.603 49.8454 118.55 49.8689 118.473 49.8689H115.33C115.34 50.1648 115.38 50.4258 115.451 50.6462C115.525 50.8667 115.627 51.0467 115.757 51.1975C115.887 51.3426 116.042 51.4527 116.222 51.5282C116.401 51.5978 116.602 51.6327 116.825 51.6327C117.032 51.6327 117.21 51.6094 117.359 51.563C117.51 51.5166 117.64 51.4644 117.749 51.4063C117.857 51.3483 117.946 51.3018 118.018 51.2553C118.092 51.2031 118.155 51.18 118.208 51.18C118.276 51.18 118.329 51.2031 118.366 51.2553L118.598 51.5571ZM119.687 52.2186V47.5189H120.184C120.302 47.5189 120.374 47.5711 120.402 47.6871L120.462 48.1688C120.636 47.9599 120.831 47.7801 121.047 47.6466C121.264 47.5132 121.515 47.4435 121.799 47.4435C122.115 47.4435 122.37 47.5306 122.565 47.7047C122.763 47.8846 122.905 48.1223 122.992 48.424C123.06 48.2499 123.147 48.105 123.252 47.9832C123.36 47.8555 123.481 47.7568 123.614 47.6755C123.747 47.5943 123.888 47.5362 124.036 47.4956C124.188 47.4608 124.342 47.4435 124.496 47.4435C124.744 47.4435 124.963 47.4841 125.155 47.5653C125.35 47.6407 125.514 47.7567 125.647 47.9075C125.783 48.0584 125.887 48.2442 125.958 48.4705C126.029 48.6851 126.065 48.9403 126.065 49.2246V52.2186H125.234V49.2246C125.234 48.8591 125.154 48.5806 124.992 48.3892C124.832 48.1977 124.6 48.0991 124.296 48.0991C124.16 48.0991 124.031 48.128 123.906 48.1744C123.786 48.2208 123.679 48.2907 123.586 48.3835C123.493 48.4763 123.419 48.5923 123.363 48.7373C123.311 48.8766 123.284 49.039 123.284 49.2246V52.2186H122.454V49.2246C122.454 48.8475 122.378 48.5632 122.226 48.3775C122.075 48.1919 121.854 48.0991 121.562 48.0991C121.358 48.0991 121.169 48.1571 120.996 48.2673C120.823 48.3776 120.664 48.5226 120.518 48.7141V52.2186H119.687ZM128.152 51.0871C128.303 51.2901 128.468 51.4353 128.648 51.5165C128.831 51.6036 129.03 51.644 129.247 51.644C129.689 51.644 130.028 51.4876 130.264 51.1743C130.499 50.861 130.616 50.3968 130.616 49.7759C130.616 49.2015 130.511 48.7779 130.301 48.511C130.093 48.2383 129.796 48.0991 129.41 48.0991C129.14 48.0991 128.905 48.1631 128.704 48.2849C128.506 48.4126 128.322 48.5864 128.152 48.8127V51.0871ZM128.152 48.192C128.35 47.9657 128.572 47.7801 128.82 47.6466C129.071 47.5132 129.359 47.4435 129.683 47.4435C129.958 47.4435 130.206 47.4957 130.426 47.6002C130.649 47.7046 130.837 47.8613 130.992 48.0585C131.147 48.2558 131.265 48.4995 131.345 48.7838C131.429 49.0681 131.47 49.3873 131.47 49.747C131.47 50.1242 131.424 50.472 131.331 50.7853C131.238 51.0987 131.104 51.3658 130.927 51.5862C130.754 51.8067 130.542 51.9806 130.291 52.1024C130.041 52.2243 129.759 52.2823 129.447 52.2823C129.137 52.2823 128.876 52.2243 128.662 52.114C128.452 51.9922 128.268 51.8298 128.11 51.6151L128.068 52.0446C128.043 52.1607 127.972 52.2186 127.855 52.2186H127.321V45.3839H128.152V48.192ZM133.3 48.4589C133.448 48.1397 133.631 47.8846 133.848 47.7047C134.064 47.5248 134.329 47.4319 134.641 47.4319C134.74 47.4319 134.835 47.4435 134.924 47.4667C135.017 47.4899 135.099 47.5189 135.17 47.5653L135.11 48.186C135.092 48.2615 135.045 48.3022 134.971 48.3022C134.927 48.3022 134.864 48.2907 134.781 48.2733C134.697 48.2559 134.602 48.2441 134.497 48.2441C134.349 48.2441 134.215 48.2672 134.098 48.3079C133.983 48.3543 133.88 48.4183 133.787 48.5053C133.697 48.5865 133.615 48.6968 133.541 48.8187C133.47 48.9463 133.405 49.0854 133.346 49.2479V52.2186H132.515V47.5189H132.989C133.078 47.5189 133.14 47.5363 133.175 47.5653C133.208 47.6001 133.231 47.6582 133.244 47.7452L133.3 48.4589ZM138.854 49.3524C138.854 49.1609 138.826 48.9869 138.77 48.8303C138.717 48.6678 138.638 48.5344 138.533 48.4183C138.431 48.3023 138.306 48.2093 138.157 48.1455C138.009 48.0817 137.84 48.0526 137.651 48.0526C137.255 48.0526 136.941 48.1687 136.709 48.4008C136.48 48.6271 136.338 48.9463 136.282 49.3524H138.854ZM139.522 51.5571C139.42 51.6847 139.297 51.7892 139.155 51.882C139.013 51.9748 138.859 52.0503 138.696 52.1084C138.534 52.1664 138.367 52.2068 138.194 52.2359C138.021 52.2707 137.849 52.2823 137.679 52.2823C137.354 52.2823 137.054 52.2302 136.779 52.12C136.506 52.0097 136.269 51.8472 136.069 51.6384C135.87 51.4237 135.716 51.1627 135.604 50.8494C135.493 50.5361 135.437 50.1761 135.437 49.77C135.437 49.4451 135.487 49.1378 135.586 48.8535C135.688 48.5692 135.833 48.3255 136.022 48.1166C136.211 47.9078 136.441 47.7394 136.714 47.6234C136.986 47.5016 137.292 47.4435 137.633 47.4435C137.914 47.4435 138.174 47.4899 138.413 47.5885C138.654 47.6814 138.861 47.8149 139.035 47.9948C139.211 48.1689 139.348 48.3891 139.448 48.656C139.546 48.9113 139.596 49.2132 139.596 49.5439C139.596 49.6774 139.582 49.7642 139.554 49.8048C139.527 49.8454 139.474 49.8689 139.397 49.8689H136.254C136.264 50.1648 136.304 50.4258 136.375 50.6462C136.449 50.8667 136.551 51.0467 136.681 51.1975C136.811 51.3426 136.966 51.4527 137.145 51.5282C137.325 51.5978 137.526 51.6327 137.749 51.6327C137.956 51.6327 138.134 51.6094 138.283 51.563C138.434 51.5166 138.564 51.4644 138.673 51.4063C138.78 51.3483 138.87 51.3018 138.942 51.2553C139.016 51.2031 139.079 51.18 139.132 51.18C139.2 51.18 139.253 51.2031 139.29 51.2553L139.522 51.5571ZM143.35 48.2906C143.312 48.3602 143.255 48.3951 143.178 48.3951C143.131 48.3951 143.079 48.3775 143.02 48.3427C142.961 48.3079 142.888 48.2731 142.802 48.2325C142.718 48.1861 142.617 48.1514 142.5 48.1166C142.382 48.076 142.243 48.0585 142.082 48.0585C141.943 48.0585 141.818 48.076 141.706 48.1166C141.595 48.1514 141.499 48.1979 141.419 48.2617C141.341 48.3197 141.281 48.3949 141.238 48.4761C141.197 48.5574 141.177 48.6444 141.177 48.743C141.177 48.8649 141.211 48.9635 141.279 49.0447C141.35 49.126 141.443 49.1958 141.558 49.2538C141.672 49.3118 141.802 49.3641 141.948 49.4105C142.093 49.4511 142.241 49.5033 142.393 49.5555C142.548 49.6019 142.698 49.66 142.844 49.7238C142.989 49.7818 143.119 49.863 143.234 49.9558C143.348 50.0487 143.439 50.1588 143.507 50.2981C143.578 50.4315 143.614 50.5882 143.614 50.7797C143.614 50.9944 143.575 51.1974 143.498 51.3831C143.42 51.563 143.306 51.7253 143.155 51.8588C143.003 51.9922 142.817 52.0968 142.598 52.1781C142.378 52.2535 142.124 52.2939 141.836 52.2939C141.508 52.2939 141.211 52.2417 140.945 52.1373C140.679 52.027 140.453 51.8879 140.268 51.7197L140.462 51.4063C140.487 51.3657 140.516 51.3366 140.551 51.3134C140.584 51.2902 140.628 51.2786 140.681 51.2786C140.736 51.2786 140.795 51.3018 140.857 51.3483C140.919 51.3889 140.993 51.4354 141.08 51.4876C141.169 51.5399 141.278 51.5921 141.405 51.6327C141.531 51.6791 141.689 51.6964 141.878 51.6964C142.039 51.6964 142.18 51.679 142.301 51.6384C142.421 51.5978 142.522 51.5398 142.602 51.4644C142.682 51.3948 142.742 51.3133 142.779 51.2205C142.819 51.1277 142.839 51.0292 142.839 50.9247C142.839 50.7913 142.803 50.687 142.732 50.6057C142.664 50.5187 142.573 50.4431 142.458 50.385C142.344 50.3212 142.212 50.269 142.064 50.2284C141.918 50.182 141.768 50.1355 141.614 50.0833C141.462 50.0311 141.312 49.9789 141.163 49.915C141.018 49.8512 140.888 49.7702 140.773 49.6773C140.659 49.5787 140.566 49.4625 140.495 49.3232C140.426 49.1782 140.393 49.0101 140.393 48.807C140.393 48.6272 140.43 48.453 140.504 48.2906C140.579 48.1223 140.686 47.9773 140.829 47.8554C140.971 47.7278 141.146 47.6291 141.354 47.5537C141.561 47.4783 141.798 47.4435 142.064 47.4435C142.373 47.4435 142.65 47.4899 142.895 47.5885C143.142 47.6872 143.355 47.8206 143.535 47.9889L143.35 48.2906ZM19.0935 62.5577C18.9386 62.3546 18.7715 62.2097 18.5922 62.1285C18.4129 62.0473 18.2116 62.0007 17.9888 62.0007C17.5525 62.0007 17.2165 62.1574 16.9816 62.4707C16.7466 62.7841 16.6288 63.2308 16.6288 63.8111C16.6288 64.1128 16.6549 64.3796 16.7077 64.6001C16.7605 64.8147 16.8377 64.9945 16.9398 65.1338C17.0419 65.273 17.1672 65.3776 17.3157 65.4415C17.4643 65.5053 17.6331 65.5401 17.8217 65.5401C18.0938 65.5401 18.3305 65.4763 18.5319 65.3545C18.7361 65.2326 18.9235 65.0586 19.0935 64.8324V62.5577ZM19.9197 59.3088V66.1435H19.4277C19.3099 66.1435 19.2356 66.0856 19.2049 65.9695L19.1306 65.4009C18.9293 65.6446 18.7007 65.836 18.4437 65.9868C18.1867 66.1319 17.8896 66.2072 17.5525 66.2072C17.2833 66.2072 17.039 66.1551 16.8191 66.0565C16.5992 65.9521 16.4124 65.7954 16.2575 65.5981C16.1026 65.3951 15.9836 65.1454 15.9 64.8437C15.8165 64.542 15.7747 64.1998 15.7747 63.8111C15.7747 63.4629 15.8211 63.1381 15.914 62.8422C16.0068 62.5404 16.1397 62.2852 16.3132 62.0648C16.4867 61.8443 16.6984 61.6702 16.949 61.5483C17.2026 61.4207 17.4875 61.3568 17.8031 61.3568C18.0909 61.3568 18.3369 61.4089 18.5411 61.5075C18.7483 61.6003 18.9328 61.7398 19.0935 61.9081V59.3088H19.9197ZM24.3716 63.2773C24.3716 63.0858 24.3438 62.9118 24.2881 62.7552C24.2353 62.5927 24.1564 62.4593 24.0513 62.3433C23.9492 62.2272 23.8239 62.1343 23.6754 62.0704C23.5268 62.0066 23.358 61.9775 23.1694 61.9775C22.7731 61.9775 22.4593 62.0936 22.2272 62.3257C21.998 62.552 21.8559 62.8712 21.8002 63.2773H24.3716ZM25.04 65.482C24.9379 65.6096 24.8155 65.7141 24.6733 65.8069C24.5312 65.8998 24.378 65.9753 24.2138 66.0333C24.0531 66.0913 23.886 66.1318 23.7125 66.1608C23.539 66.1956 23.3673 66.2072 23.1973 66.2072C22.8724 66.2072 22.5724 66.1551 22.2968 66.0449C22.0247 65.9347 21.788 65.7722 21.5866 65.5633C21.3888 65.3486 21.2339 65.0876 21.1225 64.7743C21.0111 64.461 20.9554 64.101 20.9554 63.6949C20.9554 63.37 21.0047 63.0627 21.1039 62.7784C21.206 62.4941 21.3517 62.2504 21.5402 62.0415C21.7288 61.8327 21.9597 61.6644 22.2318 61.5483C22.504 61.4265 22.8103 61.3684 23.1509 61.3684C23.4323 61.3684 23.6922 61.4148 23.9307 61.5135C24.172 61.6063 24.3792 61.7399 24.5527 61.9197C24.729 62.0938 24.8665 62.3141 24.9657 62.5809C25.065 62.8362 25.1143 63.1381 25.1143 63.4688C25.1143 63.6023 25.1004 63.6891 25.0725 63.7297C25.0447 63.7704 24.9918 63.7938 24.9147 63.7938H21.7723C21.7816 64.0897 21.8216 64.3507 21.893 64.5712C21.9672 64.7916 22.0694 64.9716 22.1993 65.1225C22.3293 65.2675 22.4842 65.3777 22.6635 65.4531C22.8428 65.5227 23.0441 65.5576 23.2669 65.5576C23.4741 65.5576 23.6522 65.5343 23.8007 65.4879C23.9521 65.4415 24.0821 65.3893 24.1906 65.3313C24.2991 65.2732 24.3884 65.2267 24.4598 65.1803C24.5341 65.128 24.5973 65.1049 24.6501 65.1049C24.718 65.1049 24.7708 65.128 24.8079 65.1803L25.04 65.482ZM26.9831 59.3088V66.1435H26.1569V59.3088H26.9831ZM33.4368 62.2155C33.3996 62.2851 33.3428 62.32 33.265 62.32C33.2186 62.32 33.1663 62.3024 33.1072 62.2676C33.0486 62.2328 32.9761 62.198 32.889 62.1574C32.8055 62.111 32.7051 62.0764 32.5873 62.0415C32.4701 62.0009 32.3309 61.9835 32.1696 61.9835C32.0303 61.9835 31.905 62.0009 31.7936 62.0415C31.6822 62.0764 31.5865 62.1228 31.5058 62.1866C31.4287 62.2446 31.3683 62.3198 31.3248 62.4011C31.2848 62.4823 31.2645 62.5693 31.2645 62.6679C31.2645 62.7898 31.2987 62.8884 31.3666 62.9696C31.4379 63.0509 31.5308 63.1207 31.6451 63.1787C31.76 63.2367 31.8899 63.289 32.035 63.3354C32.1806 63.376 32.3291 63.4282 32.4806 63.4804C32.6355 63.5269 32.7858 63.5849 32.9308 63.6487C33.0764 63.7067 33.2064 63.7879 33.3207 63.8807C33.4356 63.9736 33.5267 64.0837 33.5946 64.223C33.6659 64.3564 33.7013 64.5131 33.7013 64.7046C33.7013 64.9193 33.663 65.1224 33.5853 65.308C33.5081 65.4879 33.3938 65.6502 33.2418 65.7837C33.0904 65.9171 32.9047 66.0217 32.6848 66.103C32.4655 66.1784 32.2113 66.2188 31.9236 66.2188C31.5957 66.2188 31.2987 66.1666 31.0324 66.0622C30.7666 65.9519 30.5404 65.8129 30.3547 65.6446L30.5496 65.3313C30.5746 65.2906 30.6042 65.2615 30.6378 65.2383C30.6721 65.2151 30.7156 65.2035 30.7678 65.2035C30.8235 65.2035 30.8827 65.2268 30.9442 65.2732C31.0063 65.3138 31.0805 65.3603 31.167 65.4126C31.2569 65.4648 31.3654 65.517 31.4919 65.5576C31.6189 65.604 31.7768 65.6214 31.9654 65.6214C32.1266 65.6214 32.267 65.6039 32.3877 65.5633C32.5084 65.5227 32.6094 65.4648 32.6894 65.3893C32.7701 65.3197 32.8287 65.2382 32.8658 65.1454C32.9064 65.0526 32.9262 64.9541 32.9262 64.8496C32.9262 64.7162 32.8908 64.6119 32.8194 64.5306C32.7515 64.4436 32.6604 64.368 32.5456 64.3099C32.4313 64.2461 32.2996 64.1939 32.151 64.1533C32.006 64.1069 31.8557 64.0605 31.7008 64.0082C31.5493 63.956 31.3991 63.9038 31.2505 63.8399C31.1055 63.7761 30.9755 63.6951 30.8606 63.6023C30.7463 63.5036 30.6535 63.3874 30.5821 63.2481C30.5142 63.1031 30.48 62.935 30.48 62.732C30.48 62.5521 30.5171 62.3779 30.5914 62.2155C30.6657 62.0472 30.7742 61.9022 30.9163 61.7803C31.059 61.6527 31.2337 61.554 31.4409 61.4786C31.6486 61.4032 31.8853 61.3684 32.151 61.3684C32.4608 61.3684 32.7376 61.4148 32.9818 61.5135C33.2296 61.6121 33.4431 61.7455 33.6224 61.9138L33.4368 62.2155ZM37.2626 64.0258C36.882 64.0374 36.5571 64.072 36.2879 64.1184C36.0216 64.1649 35.8034 64.2289 35.6334 64.3043C35.4663 64.3855 35.3439 64.4724 35.2667 64.5768C35.1925 64.6871 35.1553 64.8033 35.1553 64.9309C35.1553 65.0586 35.1756 65.1629 35.2157 65.2499C35.2557 65.3428 35.3102 65.4183 35.3781 65.4763C35.4495 65.5285 35.5313 65.5749 35.6241 65.5981C35.7198 65.6271 35.822 65.6386 35.9305 65.6386C36.0761 65.6386 36.209 65.6213 36.3296 65.5981C36.4503 65.5633 36.5635 65.5227 36.6685 65.4647C36.777 65.4125 36.8791 65.3429 36.9748 65.2675C37.074 65.1863 37.1698 65.099 37.2626 65.0004V64.0258ZM34.5937 62.1053C34.8536 61.8558 35.1338 61.67 35.4338 61.5424C35.7338 61.4205 36.0668 61.3568 36.4318 61.3568C36.6946 61.3568 36.9284 61.4032 37.1327 61.4902C37.3369 61.5773 37.5086 61.6934 37.6479 61.85C37.7871 62.0067 37.8922 62.1922 37.9635 62.4127C38.0349 62.6331 38.0702 62.871 38.0702 63.1379V66.1435H37.7036C37.6229 66.1435 37.5614 66.1318 37.5179 66.1086C37.4744 66.0796 37.4407 66.0275 37.4158 65.9463L37.323 65.5052C37.1994 65.6154 37.0787 65.7199 36.9609 65.8069C36.8431 65.894 36.7195 65.9695 36.5896 66.0333C36.4596 66.0913 36.3204 66.1377 36.1718 66.1667C36.0262 66.2015 35.8637 66.2188 35.6844 66.2188C35.5017 66.2188 35.3299 66.1957 35.1692 66.1435C35.0085 66.0913 34.8675 66.0159 34.7469 65.9115C34.6291 65.807 34.5351 65.6793 34.4637 65.5284C34.3958 65.366 34.3616 65.1803 34.3616 64.9715C34.3616 64.7858 34.4126 64.606 34.5148 64.4377C34.6169 64.2637 34.7822 64.1068 35.0114 63.9734C35.2406 63.8399 35.5388 63.7358 35.9073 63.6487C36.2757 63.5617 36.7271 63.5153 37.2626 63.5037V63.1379C37.2626 62.7724 37.1837 62.4941 37.0259 62.3084C36.8681 62.1227 36.6377 62.024 36.3343 62.024C36.13 62.024 35.9583 62.0531 35.8191 62.1053C35.6827 62.1575 35.5638 62.2096 35.4617 62.2792C35.3625 62.3373 35.276 62.3953 35.2017 62.4475C35.1304 62.4997 35.0596 62.5229 34.9882 62.5229C34.9325 62.5229 34.8843 62.5114 34.8443 62.4824C34.8043 62.4475 34.7701 62.4128 34.7422 62.3722L34.5937 62.1053ZM39.3287 66.1435V61.4438H39.8254C39.9432 61.4438 40.0157 61.496 40.0435 61.6121L40.1039 62.0937C40.2774 61.8848 40.4723 61.705 40.6887 61.5715C40.9057 61.4381 41.1564 61.3684 41.4407 61.3684C41.7563 61.3684 42.0116 61.4556 42.2065 61.6296C42.405 61.8095 42.5471 62.0472 42.6336 62.3489C42.702 62.1749 42.7885 62.0299 42.8935 61.9081C43.002 61.7805 43.1227 61.6817 43.2555 61.6004C43.389 61.5192 43.5294 61.4612 43.678 61.4205C43.83 61.3857 43.9831 61.3684 44.1375 61.3684C44.3852 61.3684 44.6051 61.409 44.7966 61.4902C44.9915 61.5657 45.1557 61.6816 45.2886 61.8325C45.425 61.9833 45.5288 62.1691 45.5996 62.3954C45.6709 62.6101 45.7063 62.8652 45.7063 63.1495V66.1435H44.8755V63.1495C44.8755 62.784 44.7954 62.5055 44.6341 62.3141C44.4734 62.1226 44.2413 62.024 43.9379 62.024C43.8021 62.024 43.6722 62.0529 43.548 62.0993C43.4273 62.1458 43.3205 62.2156 43.2277 62.3084C43.1349 62.4012 43.0606 62.5172 43.0049 62.6623C42.9527 62.8015 42.926 62.9639 42.926 63.1495V66.1435H42.0951V63.1495C42.0951 62.7724 42.0197 62.4881 41.8677 62.3025C41.7162 62.1168 41.4952 62.024 41.2039 62.024C40.9997 62.024 40.8111 62.082 40.6377 62.1923C40.4647 62.3025 40.3052 62.4476 40.1596 62.639V66.1435H39.3287ZM49.6436 66.1435V62.1458L49.1237 62.0877C49.0588 62.0703 49.0048 62.0473 48.9613 62.0183C48.9212 61.9835 48.9009 61.9371 48.9009 61.8733V61.5367H49.6436V61.0783C49.6436 60.8114 49.6808 60.5735 49.755 60.3647C49.8328 60.1558 49.9407 59.9758 50.0799 59.8366C50.2227 59.6915 50.3926 59.5814 50.5905 59.506C50.7889 59.4306 51.0117 59.3958 51.2589 59.3958C51.4695 59.3958 51.6627 59.4246 51.8391 59.4884L51.8205 59.9006C51.8147 59.976 51.773 60.0166 51.6952 60.0224C51.621 60.0282 51.5206 60.0281 51.3935 60.0281C51.2514 60.0281 51.1214 60.0514 51.0036 60.0862C50.8893 60.121 50.7901 60.1849 50.7065 60.2661C50.623 60.3531 50.558 60.4632 50.5116 60.5967C50.4686 60.7301 50.4466 60.9043 50.4466 61.1015V61.5367H51.802V62.1342H50.4745V66.1435H49.6436ZM55.1132 64.0258C54.7326 64.0374 54.4077 64.072 54.1385 64.1184C53.8721 64.1649 53.654 64.2289 53.484 64.3043C53.3169 64.3855 53.1945 64.4724 53.1173 64.5768C53.043 64.6871 53.0059 64.8033 53.0059 64.9309C53.0059 65.0586 53.0256 65.1629 53.0662 65.2499C53.1063 65.3428 53.1602 65.4183 53.2287 65.4763C53.2995 65.5285 53.3818 65.5749 53.4747 65.5981C53.5704 65.6271 53.6725 65.6386 53.781 65.6386C53.9261 65.6386 54.0595 65.6213 54.1802 65.5981C54.3009 65.5633 54.4135 65.5227 54.5191 65.4647C54.627 65.4125 54.7291 65.3429 54.8254 65.2675C54.924 65.1863 55.0204 65.099 55.1132 65.0004V64.0258ZM52.4442 62.1053C52.7042 61.8558 52.9838 61.67 53.2844 61.5424C53.5843 61.4205 53.9168 61.3568 54.2823 61.3568C54.5452 61.3568 54.779 61.4032 54.9832 61.4902C55.1875 61.5773 55.3592 61.6934 55.4985 61.85C55.6377 62.0067 55.7427 62.1922 55.8141 62.4127C55.8849 62.6331 55.9208 62.871 55.9208 63.1379V66.1435H55.5542C55.4735 66.1435 55.4114 66.1318 55.3685 66.1086C55.325 66.0796 55.2907 66.0275 55.2664 65.9463L55.1735 65.5052C55.0494 65.6154 54.9287 65.7199 54.8115 65.8069C54.6937 65.894 54.5701 65.9695 54.4401 66.0333C54.3102 66.0913 54.1709 66.1377 54.0224 66.1667C53.8768 66.2015 53.7143 66.2188 53.535 66.2188C53.3523 66.2188 53.1805 66.1957 53.0198 66.1435C52.8585 66.0913 52.7181 66.0159 52.5974 65.9115C52.4797 65.807 52.3851 65.6793 52.3143 65.5284C52.2458 65.366 52.2122 65.1803 52.2122 64.9715C52.2122 64.7858 52.2632 64.606 52.3653 64.4377C52.4675 64.2637 52.6328 64.1068 52.862 63.9734C53.0906 63.8399 53.3894 63.7358 53.7578 63.6487C54.1257 63.5617 54.5777 63.5153 55.1132 63.5037V63.1379C55.1132 62.7724 55.0343 62.4941 54.8765 62.3084C54.7186 62.1227 54.4877 62.024 54.1849 62.024C53.9806 62.024 53.8089 62.0531 53.6696 62.1053C53.5333 62.1575 53.4144 62.2096 53.3122 62.2792C53.213 62.3373 53.1266 62.3953 53.0523 62.4475C52.9809 62.4997 52.9096 62.5229 52.8388 62.5229C52.7831 62.5229 52.7349 62.5114 52.6949 62.4824C52.6543 62.4475 52.6206 62.4128 52.5928 62.3722L52.4442 62.1053ZM57.1793 66.1435V61.4438H57.676C57.7937 61.4438 57.8663 61.496 57.8941 61.6121L57.9544 62.0937C58.1279 61.8848 58.3229 61.705 58.5393 61.5715C58.7557 61.4381 59.0064 61.3684 59.2913 61.3684C59.6069 61.3684 59.8622 61.4556 60.0571 61.6296C60.255 61.8095 60.3977 62.0472 60.4841 62.3489C60.552 62.1749 60.639 62.0299 60.7441 61.9081C60.8526 61.7805 60.9733 61.6817 61.1061 61.6004C61.239 61.5192 61.38 61.4612 61.5285 61.4205C61.68 61.3857 61.8331 61.3684 61.988 61.3684C62.2358 61.3684 62.4551 61.409 62.6472 61.4902C62.8421 61.5657 63.0063 61.6816 63.1392 61.8325C63.2755 61.9833 63.3788 62.1691 63.4501 62.3954C63.5215 62.6101 63.5569 62.8652 63.5569 63.1495V66.1435H62.7261V63.1495C62.7261 62.784 62.6454 62.5055 62.4847 62.3141C62.324 62.1226 62.0919 62.024 61.7885 62.024C61.6521 62.024 61.5221 62.0529 61.3986 62.0993C61.2779 62.1458 61.1711 62.2156 61.0783 62.3084C60.9855 62.4012 60.9112 62.5172 60.8555 62.6623C60.8027 62.8015 60.7766 62.9639 60.7766 63.1495V66.1435H59.9457V63.1495C59.9457 62.7724 59.8697 62.4881 59.7183 62.3025C59.5669 62.1168 59.3452 62.024 59.0545 62.024C58.8503 62.024 58.6617 62.082 58.4883 62.1923C58.3148 62.3025 58.1558 62.4476 58.0102 62.639V66.1435H57.1793ZM65.6851 61.4438V66.1435H64.8589V61.4438H65.6851ZM65.8615 59.9644C65.8615 60.0456 65.8447 60.1211 65.8104 60.1907C65.7797 60.2603 65.7362 60.3241 65.6805 60.3763C65.6277 60.4285 65.5644 60.4748 65.4902 60.5038C65.4188 60.5328 65.3434 60.5502 65.2627 60.5502C65.1821 60.5502 65.1067 60.5328 65.0353 60.5038C64.9674 60.4748 64.9071 60.4285 64.8543 60.3763C64.8015 60.3241 64.7597 60.2603 64.7289 60.1907C64.6982 60.1211 64.6825 60.0456 64.6825 59.9644C64.6825 59.8831 64.6982 59.8076 64.7289 59.738C64.7597 59.6626 64.8015 59.5987 64.8543 59.5465C64.9071 59.4943 64.9674 59.448 65.0353 59.419C65.1067 59.3842 65.1821 59.3725 65.2627 59.3725C65.3434 59.3725 65.4188 59.3842 65.4902 59.419C65.5644 59.448 65.6277 59.4943 65.6805 59.5465C65.7362 59.5987 65.7797 59.6626 65.8104 59.738C65.8447 59.8076 65.8615 59.8831 65.8615 59.9644ZM67.8968 59.3088V66.1435H67.0706V59.3088H67.8968ZM70.1092 61.4438V66.1435H69.283V61.4438H70.1092ZM70.2855 59.9644C70.2855 60.0456 70.2687 60.1211 70.2345 60.1907C70.2038 60.2603 70.1602 60.3241 70.1045 60.3763C70.0517 60.4285 69.9885 60.4748 69.9142 60.5038C69.8429 60.5328 69.7674 60.5502 69.6868 60.5502C69.6061 60.5502 69.5307 60.5328 69.4594 60.5038C69.3915 60.4748 69.3311 60.4285 69.2783 60.3763C69.2255 60.3241 69.1837 60.2603 69.153 60.1907C69.1222 60.1211 69.1066 60.0456 69.1066 59.9644C69.1066 59.8831 69.1222 59.8076 69.153 59.738C69.1837 59.6626 69.2255 59.5987 69.2783 59.5465C69.3311 59.4943 69.3915 59.448 69.4594 59.419C69.5307 59.3842 69.6061 59.3725 69.6868 59.3725C69.7674 59.3725 69.8429 59.3842 69.9142 59.419C69.9885 59.448 70.0517 59.4943 70.1045 59.5465C70.1602 59.5987 70.2038 59.6626 70.2345 59.738C70.2687 59.8076 70.2855 59.8831 70.2855 59.9644ZM74.6139 63.2773C74.6139 63.0858 74.586 62.9118 74.5303 62.7552C74.4775 62.5927 74.3986 62.4593 74.2936 62.3433C74.1915 62.2272 74.0662 62.1343 73.9176 62.0704C73.7691 62.0066 73.6002 61.9775 73.4117 61.9775C73.0154 61.9775 72.7015 62.0936 72.4694 62.3257C72.2403 62.552 72.0981 62.8712 72.0424 63.2773H74.6139ZM75.2823 65.482C75.1801 65.6096 75.0577 65.7141 74.9156 65.8069C74.7734 65.8998 74.6203 65.9753 74.4561 66.0333C74.2954 66.0913 74.1283 66.1318 73.9548 66.1608C73.7813 66.1956 73.6095 66.2072 73.4395 66.2072C73.1146 66.2072 72.8147 66.1551 72.5391 66.0449C72.267 65.9347 72.0302 65.7722 71.8289 65.5633C71.631 65.3486 71.4761 65.0876 71.3647 64.7743C71.2533 64.461 71.1976 64.101 71.1976 63.6949C71.1976 63.37 71.2469 63.0627 71.3462 62.7784C71.4483 62.4941 71.5939 62.2504 71.7825 62.0415C71.971 61.8327 72.202 61.6644 72.4741 61.5483C72.7462 61.4265 73.0525 61.3684 73.3931 61.3684C73.6745 61.3684 73.9345 61.4148 74.1729 61.5135C74.4143 61.6063 74.6214 61.7399 74.7949 61.9197C74.9713 62.0938 75.1088 62.3141 75.208 62.5809C75.3072 62.8362 75.3566 63.1381 75.3566 63.4688C75.3566 63.6023 75.3426 63.6891 75.3148 63.7297C75.2869 63.7704 75.2341 63.7938 75.1569 63.7938H72.0146C72.0239 64.0897 72.0639 64.3507 72.1353 64.5712C72.2095 64.7916 72.3116 64.9716 72.4416 65.1225C72.5715 65.2675 72.7265 65.3777 72.9058 65.4531C73.0851 65.5227 73.2864 65.5576 73.5092 65.5576C73.7163 65.5576 73.8944 65.5343 74.0429 65.4879C74.1944 65.4415 74.3243 65.3893 74.4328 65.3313C74.5413 65.2732 74.6307 65.2267 74.7021 65.1803C74.7763 65.128 74.8396 65.1049 74.8924 65.1049C74.9602 65.1049 75.0131 65.128 75.0502 65.1803L75.2823 65.482ZM76.2321 65.633C76.2321 65.5517 76.246 65.4762 76.2739 65.4066C76.3046 65.337 76.3452 65.2733 76.3945 65.2211C76.4473 65.1688 76.5088 65.1281 76.5802 65.0933C76.6515 65.0643 76.727 65.0468 76.8076 65.0468C76.8883 65.0468 76.9637 65.0643 77.0351 65.0933C77.1064 65.1281 77.1679 65.1688 77.2207 65.2211C77.2735 65.2733 77.3153 65.337 77.3461 65.4066C77.3768 65.4762 77.3925 65.5517 77.3925 65.633C77.3925 65.7142 77.3768 65.7954 77.3461 65.865C77.3153 65.9346 77.2735 65.9927 77.2207 66.0449C77.1679 66.0971 77.1064 66.1377 77.0351 66.1667C76.9637 66.1957 76.8883 66.2132 76.8076 66.2132C76.727 66.2132 76.6515 66.1957 76.5802 66.1667C76.5088 66.1377 76.4473 66.0971 76.3945 66.0449C76.3452 65.9927 76.3046 65.9346 76.2739 65.865C76.246 65.7954 76.2321 65.7142 76.2321 65.633ZM84.909 65.3893V66.1435H81.1354V59.4944H82.0312V65.3893H84.909ZM87.3558 61.3684C87.6992 61.3684 88.0085 61.4265 88.2841 61.5367C88.5591 61.6527 88.7947 61.8151 88.9896 62.024C89.1845 62.2387 89.3331 62.4941 89.4352 62.79C89.5402 63.0917 89.593 63.4223 89.593 63.7878C89.593 64.1592 89.5402 64.4957 89.4352 64.7916C89.3331 65.0875 89.1845 65.3428 88.9896 65.5517C88.7947 65.7663 88.5591 65.9287 88.2841 66.0389C88.0085 66.155 87.6992 66.2072 87.3558 66.2072C87.0088 66.2072 86.6966 66.155 86.4181 66.0389C86.1425 65.9287 85.9076 65.7663 85.7126 65.5517C85.5177 65.3428 85.3674 65.0875 85.2624 64.7916C85.1603 64.4957 85.1092 64.1592 85.1092 63.7878C85.1092 63.4223 85.1603 63.0917 85.2624 62.79C85.3674 62.4941 85.5177 62.2387 85.7126 62.024C85.9076 61.8151 86.1425 61.6527 86.4181 61.5367C86.6966 61.4265 87.0088 61.3684 87.3558 61.3684ZM87.3558 65.5633C87.8199 65.5633 88.1663 65.4067 88.3955 65.0992C88.6241 64.7859 88.7389 64.3508 88.7389 63.7938C88.7389 63.2368 88.6241 62.7958 88.3955 62.4883C88.1663 62.175 87.8199 62.0183 87.3558 62.0183C87.1202 62.0183 86.9148 62.0589 86.7384 62.1401C86.5649 62.2156 86.4193 62.3317 86.3021 62.4883C86.1872 62.6392 86.1008 62.8248 86.0422 63.0453C85.9865 63.2658 85.9586 63.5153 85.9586 63.7938C85.9586 64.3508 86.0729 64.7859 86.3021 65.0992C86.5342 65.4067 86.8852 65.5633 87.3558 65.5633ZM91.4253 62.3838C91.5738 62.0647 91.756 61.8095 91.973 61.6296C92.1894 61.4498 92.454 61.3568 92.7667 61.3568C92.8654 61.3568 92.96 61.3684 93.0499 61.3916C93.1427 61.4149 93.2245 61.4438 93.2959 61.4902L93.2355 62.111C93.217 62.1864 93.1706 62.2271 93.0963 62.2271C93.0528 62.2271 92.9895 62.2156 92.906 62.1982C92.8224 62.1808 92.7279 62.169 92.6229 62.169C92.4743 62.169 92.3409 62.1922 92.2237 62.2328C92.1088 62.2792 92.0055 62.3432 91.9127 62.4302C91.8228 62.5115 91.7409 62.6217 91.6667 62.7436C91.5953 62.8712 91.5303 63.0103 91.4717 63.1728V66.1435H90.6409V61.4438H91.1143C91.2037 61.4438 91.2657 61.4612 91.3 61.4902C91.3336 61.525 91.3569 61.5831 91.3696 61.6701L91.4253 62.3838ZM98.9367 62.2155C98.8995 62.2851 98.8421 62.32 98.7649 62.32C98.7185 62.32 98.6657 62.3024 98.6071 62.2676C98.5485 62.2328 98.4754 62.198 98.3889 62.1574C98.3054 62.111 98.205 62.0764 98.0872 62.0415C97.9695 62.0009 97.8302 61.9835 97.6695 61.9835C97.5302 61.9835 97.4049 62.0009 97.2935 62.0415C97.1821 62.0764 97.0864 62.1228 97.0057 62.1866C96.9286 62.2446 96.8682 62.3198 96.8247 62.4011C96.7847 62.4823 96.7644 62.5693 96.7644 62.6679C96.7644 62.7898 96.7986 62.8884 96.8665 62.9696C96.9379 63.0509 97.0307 63.1207 97.145 63.1787C97.2593 63.2367 97.3892 63.289 97.5349 63.3354C97.6805 63.376 97.829 63.4282 97.9805 63.4804C98.1354 63.5269 98.2851 63.5849 98.4307 63.6487C98.5763 63.7067 98.7063 63.7879 98.8206 63.8807C98.9349 63.9736 99.0266 64.0837 99.0945 64.223C99.1658 64.3564 99.2012 64.5131 99.2012 64.7046C99.2012 64.9193 99.1623 65.1224 99.0852 65.308C99.008 65.4879 98.8931 65.6502 98.7417 65.7837C98.5903 65.9171 98.4046 66.0217 98.1847 66.103C97.9648 66.1784 97.7112 66.2188 97.4235 66.2188C97.0956 66.2188 96.7986 66.1666 96.5323 66.0622C96.2659 65.9519 96.0403 65.8129 95.8546 65.6446L96.0495 65.3313C96.0745 65.2906 96.1035 65.2615 96.1377 65.2383C96.172 65.2151 96.2149 65.2035 96.2677 65.2035C96.3234 65.2035 96.382 65.2268 96.4441 65.2732C96.5062 65.3138 96.5804 65.3603 96.6669 65.4126C96.7568 65.4648 96.8647 65.517 96.9918 65.5576C97.1189 65.604 97.2767 65.6214 97.4652 65.6214C97.626 65.6214 97.7669 65.6039 97.8876 65.5633C98.0083 65.5227 98.1087 65.4648 98.1893 65.3893C98.27 65.3197 98.3286 65.2382 98.3657 65.1454C98.4058 65.0526 98.4261 64.9541 98.4261 64.8496C98.4261 64.7162 98.3907 64.6119 98.3193 64.5306C98.2514 64.4436 98.1598 64.368 98.0455 64.3099C97.9312 64.2461 97.7995 64.1939 97.6509 64.1533C97.5053 64.1069 97.3556 64.0605 97.2007 64.0082C97.0492 63.956 96.899 63.9038 96.7504 63.8399C96.6048 63.7761 96.4748 63.6951 96.3605 63.6023C96.2462 63.5036 96.1534 63.3874 96.082 63.2481C96.0141 63.1031 95.9799 62.935 95.9799 62.732C95.9799 62.5521 96.0171 62.3779 96.0913 62.2155C96.1656 62.0472 96.2741 61.9022 96.4162 61.7803C96.5584 61.6527 96.7336 61.554 96.9408 61.4786C97.1479 61.4032 97.3846 61.3684 97.6509 61.3684C97.9602 61.3684 98.2375 61.4148 98.4818 61.5135C98.7295 61.6121 98.943 61.7455 99.1223 61.9138L98.9367 62.2155ZM103.361 63.2773C103.361 63.0858 103.333 62.9118 103.278 62.7552C103.225 62.5927 103.146 62.4593 103.041 62.3433C102.939 62.2272 102.814 62.1343 102.665 62.0704C102.516 62.0066 102.348 61.9775 102.159 61.9775C101.763 61.9775 101.449 62.0936 101.217 62.3257C100.988 62.552 100.846 62.8712 100.79 63.2773H103.361ZM104.03 65.482C103.928 65.6096 103.805 65.7141 103.663 65.8069C103.52 65.8998 103.367 65.9753 103.203 66.0333C103.042 66.0913 102.875 66.1318 102.702 66.1608C102.529 66.1956 102.357 66.2072 102.187 66.2072C101.862 66.2072 101.561 66.1551 101.286 66.0449C101.014 65.9347 100.777 65.7722 100.576 65.5633C100.378 65.3486 100.224 65.0876 100.112 64.7743C100.001 64.461 99.945 64.101 99.945 63.6949C99.945 63.37 99.9943 63.0627 100.094 62.7784C100.196 62.4941 100.341 62.2504 100.53 62.0415C100.718 61.8327 100.949 61.6644 101.221 61.5483C101.494 61.4265 101.8 61.3684 102.141 61.3684C102.422 61.3684 102.682 61.4148 102.92 61.5135C103.162 61.6063 103.369 61.7399 103.542 61.9197C103.719 62.0938 103.856 62.3141 103.955 62.5809C104.054 62.8362 104.104 63.1381 104.104 63.4688C104.104 63.6023 104.09 63.6891 104.062 63.7297C104.034 63.7704 103.982 63.7938 103.904 63.7938H100.762C100.771 64.0897 100.811 64.3507 100.883 64.5712C100.957 64.7916 101.059 64.9716 101.189 65.1225C101.319 65.2675 101.473 65.3777 101.653 65.4531C101.832 65.5227 102.034 65.5576 102.257 65.5576C102.464 65.5576 102.642 65.5343 102.79 65.4879C102.942 65.4415 103.072 65.3893 103.18 65.3313C103.288 65.2732 103.378 65.2267 103.449 65.1803C103.524 65.128 103.587 65.1049 103.64 65.1049C103.708 65.1049 103.76 65.128 103.798 65.1803L104.03 65.482ZM105.95 65.012C106.101 65.215 106.267 65.3602 106.446 65.4415C106.626 65.5285 106.827 65.5689 107.05 65.5689C107.489 65.5689 107.827 65.4125 108.062 65.0992C108.297 64.7859 108.414 64.339 108.414 63.7646C108.414 63.4571 108.386 63.1903 108.331 62.9756C108.278 62.7551 108.201 62.5751 108.099 62.4359C107.997 62.2908 107.871 62.1864 107.723 62.1226C107.574 62.0587 107.405 62.024 107.217 62.024C106.948 62.024 106.711 62.088 106.507 62.2098C106.305 62.3375 106.12 62.5113 105.95 62.7376V65.012ZM105.908 62.169C106.106 61.9253 106.335 61.7282 106.595 61.5832C106.855 61.4323 107.152 61.3568 107.486 61.3568C107.758 61.3568 108.004 61.409 108.224 61.5135C108.444 61.6179 108.631 61.7686 108.786 61.9775C108.941 62.1748 109.059 62.4243 109.143 62.726C109.227 63.0277 109.268 63.3701 109.268 63.7646C109.268 64.1069 109.222 64.4318 109.129 64.7335C109.036 65.0294 108.902 65.2905 108.725 65.5052C108.552 65.7257 108.338 65.894 108.085 66.0217C107.834 66.1493 107.551 66.2072 107.235 66.2072C106.948 66.2072 106.7 66.1608 106.493 66.0622C106.288 65.9635 106.107 65.8303 105.95 65.6562V67.7334H105.119V61.4438H105.615C105.733 61.4438 105.806 61.496 105.834 61.6121L105.908 62.169ZM112.871 64.0258C112.49 64.0374 112.165 64.072 111.896 64.1184C111.63 64.1649 111.412 64.2289 111.242 64.3043C111.075 64.3855 110.952 64.4724 110.875 64.5768C110.801 64.6871 110.764 64.8033 110.764 64.9309C110.764 65.0586 110.783 65.1629 110.824 65.2499C110.864 65.3428 110.918 65.4183 110.986 65.4763C111.057 65.5285 111.139 65.5749 111.232 65.5981C111.328 65.6271 111.43 65.6386 111.539 65.6386C111.684 65.6386 111.817 65.6213 111.938 65.5981C112.059 65.5633 112.171 65.5227 112.277 65.4647C112.385 65.4125 112.487 65.3429 112.583 65.2675C112.682 65.1863 112.778 65.099 112.871 65.0004V64.0258ZM110.202 62.1053C110.462 61.8558 110.741 61.67 111.042 61.5424C111.342 61.4205 111.674 61.3568 112.04 61.3568C112.303 61.3568 112.537 61.4032 112.741 61.4902C112.945 61.5773 113.117 61.6934 113.256 61.85C113.395 62.0067 113.5 62.1922 113.572 62.4127C113.643 62.6331 113.678 62.871 113.678 63.1379V66.1435H113.312C113.231 66.1435 113.169 66.1318 113.126 66.1086C113.083 66.0796 113.048 66.0275 113.024 65.9463L112.931 65.5052C112.807 65.6154 112.686 65.7199 112.569 65.8069C112.451 65.894 112.328 65.9695 112.198 66.0333C112.068 66.0913 111.929 66.1377 111.78 66.1667C111.634 66.2015 111.472 66.2188 111.293 66.2188C111.11 66.2188 110.938 66.1957 110.777 66.1435C110.616 66.0913 110.476 66.0159 110.355 65.9115C110.237 65.807 110.143 65.6793 110.072 65.5284C110.003 65.366 109.97 65.1803 109.97 64.9715C109.97 64.7858 110.021 64.606 110.123 64.4377C110.225 64.2637 110.39 64.1068 110.62 63.9734C110.848 63.8399 111.147 63.7358 111.515 63.6487C111.883 63.5617 112.335 63.5153 112.871 63.5037V63.1379C112.871 62.7724 112.792 62.4941 112.634 62.3084C112.476 62.1227 112.245 62.024 111.942 62.024C111.738 62.024 111.567 62.0531 111.427 62.1053C111.291 62.1575 111.172 62.2096 111.07 62.2792C110.971 62.3373 110.884 62.3953 110.81 62.4475C110.739 62.4997 110.667 62.5229 110.596 62.5229C110.541 62.5229 110.493 62.5114 110.453 62.4824C110.412 62.4475 110.378 62.4128 110.35 62.3722L110.202 62.1053ZM115.721 62.3838C115.87 62.0647 116.052 61.8095 116.269 61.6296C116.486 61.4498 116.75 61.3568 117.063 61.3568C117.161 61.3568 117.256 61.3684 117.346 61.3916C117.439 61.4149 117.521 61.4438 117.592 61.4902L117.532 62.111C117.513 62.1864 117.467 62.2271 117.392 62.2271C117.349 62.2271 117.286 62.2156 117.202 62.1982C117.119 62.1808 117.024 62.169 116.919 62.169C116.77 62.169 116.637 62.1922 116.52 62.2328C116.405 62.2792 116.302 62.3432 116.209 62.4302C116.119 62.5115 116.037 62.6217 115.963 62.7436C115.891 62.8712 115.826 63.0103 115.768 63.1728V66.1435H114.937V61.4438H115.41C115.5 61.4438 115.562 61.4612 115.596 61.4902C115.63 61.525 115.653 61.5831 115.666 61.6701L115.721 62.3838ZM120.794 64.0258C120.414 64.0374 120.089 64.072 119.819 64.1184C119.553 64.1649 119.335 64.2289 119.165 64.3043C118.998 64.3855 118.875 64.4724 118.798 64.5768C118.724 64.6871 118.687 64.8033 118.687 64.9309C118.687 65.0586 118.707 65.1629 118.747 65.2499C118.787 65.3428 118.842 65.4183 118.91 65.4763C118.981 65.5285 119.063 65.5749 119.156 65.5981C119.251 65.6271 119.353 65.6386 119.462 65.6386C119.608 65.6386 119.74 65.6213 119.861 65.5981C119.982 65.5633 120.095 65.5227 120.2 65.4647C120.309 65.4125 120.411 65.3429 120.506 65.2675C120.606 65.1863 120.701 65.099 120.794 65.0004V64.0258ZM118.125 62.1053C118.385 61.8558 118.665 61.67 118.965 61.5424C119.265 61.4205 119.598 61.3568 119.963 61.3568C120.226 61.3568 120.46 61.4032 120.664 61.4902C120.868 61.5773 121.04 61.6934 121.179 61.85C121.319 62.0067 121.424 62.1922 121.495 62.4127C121.566 62.6331 121.602 62.871 121.602 63.1379V66.1435H121.235C121.154 66.1435 121.093 66.1318 121.049 66.1086C121.006 66.0796 120.972 66.0275 120.947 65.9463L120.854 65.5052C120.731 65.6154 120.61 65.7199 120.492 65.8069C120.375 65.894 120.251 65.9695 120.121 66.0333C119.991 66.0913 119.852 66.1377 119.703 66.1667C119.558 66.2015 119.395 66.2188 119.216 66.2188C119.033 66.2188 118.861 66.1957 118.701 66.1435C118.54 66.0913 118.399 66.0159 118.278 65.9115C118.161 65.807 118.067 65.6793 117.995 65.5284C117.927 65.366 117.893 65.1803 117.893 64.9715C117.893 64.7858 117.944 64.606 118.046 64.4377C118.148 64.2637 118.314 64.1068 118.543 63.9734C118.772 63.8399 119.07 63.7358 119.439 63.6487C119.807 63.5617 120.259 63.5153 120.794 63.5037V63.1379C120.794 62.7724 120.715 62.4941 120.557 62.3084C120.4 62.1227 120.169 62.024 119.866 62.024C119.662 62.024 119.49 62.0531 119.351 62.1053C119.214 62.1575 119.095 62.2096 118.993 62.2792C118.894 62.3373 118.808 62.3953 118.733 62.4475C118.662 62.4997 118.591 62.5229 118.52 62.5229C118.464 62.5229 118.416 62.5114 118.376 62.4824C118.336 62.4475 118.302 62.4128 118.274 62.3722L118.125 62.1053ZM124.241 66.2188C123.869 66.2188 123.583 66.1144 123.382 65.9055C123.183 65.6966 123.085 65.4007 123.085 65.012V62.1342H122.518C122.469 62.1342 122.427 62.1169 122.393 62.0937C122.359 62.0589 122.342 62.0123 122.342 61.9543V61.6237L123.113 61.5251L123.303 60.0746C123.312 60.0282 123.332 59.9874 123.363 59.9584C123.397 59.9294 123.44 59.912 123.493 59.912H123.911V61.5367H125.271V62.1342H123.911V64.9542C123.911 65.1514 123.959 65.3022 124.055 65.395C124.151 65.4936 124.274 65.5401 124.426 65.5401C124.513 65.5401 124.587 65.5284 124.649 65.5052C124.714 65.482 124.77 65.4589 124.816 65.4298C124.863 65.4008 124.901 65.3777 124.932 65.3545C124.966 65.3313 124.995 65.3196 125.02 65.3196C125.063 65.3196 125.102 65.3428 125.136 65.395L125.378 65.7896C125.235 65.9231 125.063 66.0274 124.863 66.1086C124.661 66.1783 124.454 66.2188 124.241 66.2188ZM19.177 77.2022C19.177 77.0108 19.1492 76.8368 19.0935 76.6801C19.0407 76.5176 18.9618 76.3842 18.8568 76.2682C18.7547 76.1521 18.6293 76.0592 18.4808 75.9954C18.3323 75.9315 18.1634 75.9024 17.9749 75.9024C17.5786 75.9024 17.2647 76.0185 17.0326 76.2506C16.8034 76.4769 16.6613 76.7961 16.6056 77.2022H19.177ZM19.8454 79.4069C19.7433 79.5345 19.6209 79.639 19.4788 79.7318C19.3366 79.8247 19.1834 79.9002 19.0192 79.9582C18.8585 80.0162 18.6914 80.0567 18.5179 80.0857C18.3445 80.1205 18.1727 80.1321 18.0027 80.1321C17.6778 80.1321 17.3778 80.0801 17.1022 79.9698C16.8301 79.8596 16.5934 79.6971 16.3921 79.4882C16.1942 79.2735 16.0393 79.0125 15.9279 78.6992C15.8165 78.3859 15.7608 78.026 15.7608 77.6198C15.7608 77.2949 15.8101 76.9876 15.9093 76.7033C16.0114 76.419 16.1571 76.1753 16.3456 75.9665C16.5342 75.7576 16.7651 75.5893 17.0373 75.4732C17.3094 75.3514 17.6157 75.2933 17.9563 75.2933C18.2377 75.2933 18.4976 75.3397 18.7361 75.4384C18.9775 75.5312 19.1846 75.6648 19.3581 75.8446C19.5345 76.0187 19.672 76.239 19.7712 76.5059C19.8704 76.7612 19.9197 77.063 19.9197 77.3937C19.9197 77.5272 19.9058 77.614 19.8779 77.6547C19.8501 77.6953 19.7973 77.7187 19.7201 77.7187H16.5777C16.587 78.0146 16.6271 78.2756 16.6984 78.4961C16.7727 78.7165 16.8748 78.8965 17.0048 79.0474C17.1347 79.1924 17.2896 79.3026 17.4689 79.378C17.6482 79.4476 17.8495 79.4825 18.0723 79.4825C18.2795 79.4825 18.4576 79.4593 18.6061 79.4128C18.7576 79.3664 18.8875 79.3142 18.996 79.2562C19.1045 79.1982 19.1939 79.1516 19.2652 79.1052C19.3395 79.053 19.4027 79.0298 19.4555 79.0298C19.5234 79.0298 19.5762 79.053 19.6134 79.1052L19.8454 79.4069ZM24.7331 80.0684H23.9394C23.8709 80.0684 23.8169 80.0511 23.7769 80.0163C23.7398 79.9815 23.7085 79.9409 23.6841 79.8945L22.5005 78.055C22.4877 78.0956 22.4738 78.1421 22.4587 78.1827C22.4459 78.2234 22.4274 78.2639 22.403 78.2929L21.3076 79.8945C21.2762 79.9409 21.2426 79.9815 21.2054 80.0163C21.1712 80.0511 21.123 80.0684 21.0615 80.0684H20.3235L21.9713 77.6547L20.3885 75.3687H21.1822C21.2501 75.3687 21.2994 75.3747 21.3308 75.3979C21.3615 75.4211 21.3894 75.4499 21.4143 75.4905L22.5701 77.2544C22.5945 77.1673 22.6333 77.0805 22.6861 76.9934L23.698 75.5081C23.7258 75.4675 23.7548 75.4327 23.7862 75.4095C23.8198 75.3805 23.8604 75.3687 23.9069 75.3687H24.6681L23.0853 77.6141L24.7331 80.0684ZM26.3675 75.3687V80.0684H25.5413V75.3687H26.3675ZM26.5439 73.8893C26.5439 73.9705 26.5265 74.046 26.4929 74.1156C26.4615 74.1853 26.4186 74.249 26.3629 74.3012C26.3101 74.3534 26.2468 74.3997 26.1726 74.4287C26.1012 74.4577 26.0252 74.4751 25.9451 74.4751C25.8645 74.4751 25.7885 74.4577 25.7177 74.4287C25.6492 74.3997 25.5889 74.3534 25.5367 74.3012C25.4839 74.249 25.4421 74.1853 25.4113 74.1156C25.38 74.046 25.3649 73.9705 25.3649 73.8893C25.3649 73.808 25.38 73.7325 25.4113 73.6629C25.4421 73.5875 25.4839 73.5236 25.5367 73.4714C25.5889 73.4192 25.6492 73.3729 25.7177 73.3439C25.7885 73.3091 25.8645 73.2975 25.9451 73.2975C26.0252 73.2975 26.1012 73.3091 26.1726 73.3439C26.2468 73.3729 26.3101 73.4192 26.3629 73.4714C26.4186 73.5236 26.4615 73.5875 26.4929 73.6629C26.5265 73.7325 26.5439 73.808 26.5439 73.8893ZM30.4632 76.1404C30.4261 76.21 30.3692 76.2449 30.2915 76.2449C30.245 76.2449 30.1928 76.2273 30.1336 76.1925C30.075 76.1577 30.0025 76.1229 29.9155 76.0823C29.8319 76.0359 29.7315 76.0013 29.6138 75.9665C29.4966 75.9258 29.3573 75.9084 29.196 75.9084C29.0568 75.9084 28.9314 75.9258 28.82 75.9665C28.7086 76.0013 28.6129 76.0477 28.5323 76.1115C28.4551 76.1695 28.3948 76.2447 28.3513 76.326C28.3112 76.4072 28.2909 76.4942 28.2909 76.5928C28.2909 76.7147 28.3251 76.8133 28.393 76.8946C28.4644 76.9758 28.5572 77.0456 28.6715 77.1036C28.7864 77.1617 28.9164 77.2139 29.0614 77.2603C29.2071 77.3009 29.3556 77.3531 29.507 77.4054C29.6619 77.4518 29.8122 77.5098 29.9573 77.5736C30.1029 77.6317 30.2329 77.7128 30.3472 77.8057C30.462 77.8985 30.5531 78.0086 30.621 78.1479C30.6924 78.2813 30.7278 78.438 30.7278 78.6295C30.7278 78.8442 30.6895 79.0473 30.6117 79.2329C30.5346 79.4128 30.4203 79.5752 30.2683 79.7086C30.1168 79.8421 29.9311 79.9467 29.7113 80.0279C29.4919 80.1033 29.2378 80.1438 28.95 80.1438C28.6222 80.1438 28.3251 80.0915 28.0588 79.9871C27.7931 79.8769 27.5668 79.7378 27.3812 79.5695L27.5761 79.2562C27.601 79.2156 27.6306 79.1865 27.6643 79.1632C27.6985 79.14 27.742 79.1284 27.7942 79.1284C27.8499 79.1284 27.9091 79.1517 27.9706 79.1981C28.0327 79.2387 28.107 79.2853 28.1934 79.3375C28.2833 79.3897 28.3918 79.4419 28.5183 79.4825C28.6454 79.5289 28.8032 79.5463 28.9918 79.5463C29.1531 79.5463 29.2935 79.5288 29.4142 79.4882C29.5349 79.4476 29.6358 79.3897 29.7159 79.3143C29.7965 79.2446 29.8551 79.1632 29.8923 79.0703C29.9329 78.9775 29.9526 78.879 29.9526 78.7746C29.9526 78.6411 29.9172 78.5368 29.8459 78.4556C29.778 78.3685 29.6869 78.2929 29.572 78.2349C29.4577 78.171 29.326 78.1188 29.1775 78.0782C29.0324 78.0318 28.8821 77.9854 28.7272 77.9331C28.5758 77.8809 28.4255 77.8287 28.277 77.7649C28.1319 77.701 28.002 77.62 27.8871 77.5272C27.7728 77.4285 27.6799 77.3123 27.6086 77.173C27.5407 77.028 27.5065 76.8599 27.5065 76.6569C27.5065 76.477 27.5436 76.3029 27.6179 76.1404C27.6921 75.9721 27.8006 75.8271 27.9428 75.7053C28.0855 75.5776 28.2602 75.479 28.4673 75.4035C28.675 75.3281 28.9117 75.2933 29.1775 75.2933C29.4873 75.2933 29.764 75.3397 30.0083 75.4384C30.256 75.537 30.4696 75.6704 30.6488 75.8387L30.4632 76.1404ZM33.1843 80.1438C32.813 80.1438 32.527 80.0393 32.3256 79.8304C32.1278 79.6216 32.0286 79.3256 32.0286 78.9369V76.0591H31.4623C31.413 76.0591 31.3712 76.0418 31.337 76.0186C31.3028 75.9838 31.2859 75.9372 31.2859 75.8792V75.5486L32.0564 75.45L32.2467 73.9995C32.256 73.9531 32.2763 73.9123 32.3071 73.8833C32.3413 73.8543 32.3843 73.8369 32.4371 73.8369H32.8548V75.4616H34.2148V76.0591H32.8548V78.8791C32.8548 79.0764 32.903 79.2271 32.9987 79.3199C33.0944 79.4185 33.2186 79.465 33.37 79.465C33.4565 79.465 33.5307 79.4533 33.5928 79.4301C33.6578 79.4069 33.7135 79.3838 33.7599 79.3548C33.8063 79.3258 33.8452 79.3026 33.8759 79.2794C33.9102 79.2562 33.9392 79.2446 33.9642 79.2446C34.0077 79.2446 34.0459 79.2677 34.0802 79.3199L34.3215 79.7146C34.1794 79.848 34.0077 79.9523 33.8063 80.0336C33.605 80.1032 33.3978 80.1438 33.1843 80.1438ZM38.188 77.2022C38.188 77.0108 38.1602 76.8368 38.1045 76.6801C38.0517 76.5176 37.9728 76.3842 37.8678 76.2682C37.7656 76.1521 37.6403 76.0592 37.4918 75.9954C37.3432 75.9315 37.1744 75.9024 36.9858 75.9024C36.5896 75.9024 36.2757 76.0185 36.0436 76.2506C35.8144 76.4769 35.6723 76.7961 35.6166 77.2022H38.188ZM38.8564 79.4069C38.7543 79.5345 38.6319 79.639 38.4898 79.7318C38.347 79.8247 38.1939 79.9002 38.0302 79.9582C37.8689 80.0162 37.7018 80.0567 37.5289 80.0857C37.3554 80.1205 37.1837 80.1321 37.0137 80.1321C36.6888 80.1321 36.3882 80.0801 36.1132 79.9698C35.8405 79.8596 35.6038 79.6971 35.4031 79.4882C35.2046 79.2735 35.0503 79.0125 34.9389 78.6992C34.8275 78.3859 34.7718 78.026 34.7718 77.6198C34.7718 77.2949 34.8211 76.9876 34.9203 76.7033C35.0224 76.419 35.1675 76.1753 35.3566 75.9665C35.5452 75.7576 35.7755 75.5893 36.0482 75.4732C36.3204 75.3514 36.6267 75.2933 36.9673 75.2933C37.2487 75.2933 37.5086 75.3397 37.7471 75.4384C37.9884 75.5312 38.1956 75.6648 38.3691 75.8446C38.5454 76.0187 38.6829 76.239 38.7822 76.5059C38.8808 76.7612 38.9307 77.063 38.9307 77.3937C38.9307 77.5272 38.9168 77.614 38.8889 77.6547C38.8611 77.6953 38.8083 77.7187 38.7311 77.7187H35.5887C35.598 78.0146 35.638 78.2756 35.7094 78.4961C35.7837 78.7165 35.8858 78.8965 36.0157 79.0474C36.1457 79.1924 36.3001 79.3026 36.4799 79.378C36.6592 79.4476 36.8605 79.4825 37.0833 79.4825C37.2905 79.4825 37.4686 79.4593 37.6171 79.4128C37.7685 79.3664 37.8985 79.3142 38.007 79.2562C38.1149 79.1982 38.2048 79.1516 38.2762 79.1052C38.3505 79.053 38.4137 79.0298 38.4665 79.0298C38.5344 79.0298 38.5872 79.053 38.6244 79.1052L38.8564 79.4069ZM40.7253 76.0475C40.8274 75.9314 40.9353 75.8329 41.0502 75.7401C41.1645 75.6473 41.2852 75.5659 41.4122 75.5021C41.5422 75.4325 41.678 75.3803 41.8207 75.3455C41.9657 75.3106 42.1224 75.2933 42.2895 75.2933C42.546 75.2933 42.7722 75.3341 42.9672 75.4211C43.165 75.5081 43.3292 75.6241 43.4592 75.7866C43.5921 75.9374 43.6924 76.1289 43.7609 76.3435C43.8288 76.564 43.863 76.8076 43.863 77.0745V80.0684H43.0322V77.0745C43.0322 76.7205 42.9498 76.4421 42.7861 76.2506C42.6249 76.0475 42.3789 75.9489 42.0481 75.9489C41.8033 75.9489 41.5747 76.0127 41.3612 76.1288C41.1506 76.2448 40.9556 76.4072 40.7763 76.6045V80.0684H39.9455V75.3687H40.4421C40.5593 75.3687 40.6324 75.4209 40.6603 75.537L40.7253 76.0475ZM46.5018 80.1438C46.1304 80.1438 45.8444 80.0393 45.6431 79.8304C45.4452 79.6216 45.346 79.3256 45.346 78.9369V76.0591H44.7798C44.7304 76.0591 44.6887 76.0418 44.6544 76.0186C44.6208 75.9838 44.6034 75.9372 44.6034 75.8792V75.5486L45.3739 75.45L45.5642 73.9995C45.5735 73.9531 45.5938 73.9123 45.6245 73.8833C45.6588 73.8543 45.7023 73.8369 45.7545 73.8369H46.1722V75.4616H47.5322V76.0591H46.1722V78.8791C46.1722 79.0764 46.2204 79.2271 46.3161 79.3199C46.4125 79.4185 46.536 79.465 46.6874 79.465C46.7745 79.465 46.8488 79.4533 46.9103 79.4301C46.9752 79.4069 47.0309 79.3838 47.0773 79.3548C47.1238 79.3258 47.1626 79.3026 47.1934 79.2794C47.2276 79.2562 47.2572 79.2446 47.2816 79.2446C47.3251 79.2446 47.364 79.2677 47.3976 79.3199L47.639 79.7146C47.4968 79.848 47.3251 79.9523 47.1238 80.0336C46.923 80.1032 46.7153 80.1438 46.5018 80.1438ZM49.2584 75.3687V80.0684H48.4321V75.3687H49.2584ZM49.4347 73.8893C49.4347 73.9705 49.4173 74.046 49.3837 74.1156C49.3523 74.1853 49.3094 74.249 49.2537 74.3012C49.2009 74.3534 49.1377 74.3997 49.0634 74.4287C48.992 74.4577 48.916 74.4751 48.8359 74.4751C48.7553 74.4751 48.6793 74.4577 48.6085 74.4287C48.5401 74.3997 48.4797 74.3534 48.4275 74.3012C48.3747 74.249 48.3329 74.1853 48.3022 74.1156C48.2708 74.046 48.2557 73.9705 48.2557 73.8893C48.2557 73.808 48.2708 73.7325 48.3022 73.6629C48.3329 73.5875 48.3747 73.5236 48.4275 73.4714C48.4797 73.4192 48.5401 73.3729 48.6085 73.3439C48.6793 73.3091 48.7553 73.2975 48.8359 73.2975C48.916 73.2975 48.992 73.3091 49.0634 73.3439C49.1377 73.3729 49.2009 73.4192 49.2537 73.4714C49.3094 73.5236 49.3523 73.5875 49.3837 73.6629C49.4173 73.7325 49.4347 73.808 49.4347 73.8893ZM53.7625 77.2022C53.7625 77.0108 53.7346 76.8368 53.6789 76.6801C53.6267 76.5176 53.5478 76.3842 53.4422 76.2682C53.3401 76.1521 53.2148 76.0592 53.0662 75.9954C52.9177 75.9315 52.7494 75.9024 52.5603 75.9024C52.1646 75.9024 51.8501 76.0185 51.6181 76.2506C51.3895 76.4769 51.2467 76.7961 51.191 77.2022H53.7625ZM54.4309 79.4069C54.3288 79.5345 54.2069 79.639 54.0642 79.7318C53.922 79.8247 53.7688 79.9002 53.6046 79.9582C53.4439 80.0162 53.2769 80.0567 53.1034 80.0857C52.9305 80.1205 52.7587 80.1321 52.5882 80.1321C52.2632 80.1321 51.9633 80.0801 51.6877 79.9698C51.4156 79.8596 51.1788 79.6971 50.9775 79.4882C50.7797 79.2735 50.6247 79.0125 50.5133 78.6992C50.4019 78.3859 50.3462 78.026 50.3462 77.6198C50.3462 77.2949 50.3961 76.9876 50.4948 76.7033C50.5969 76.419 50.7425 76.1753 50.9311 75.9665C51.1202 75.7576 51.3506 75.5893 51.6227 75.4732C51.8954 75.3514 52.2017 75.2933 52.5417 75.2933C52.8237 75.2933 53.0836 75.3397 53.3215 75.4384C53.5629 75.5312 53.7706 75.6648 53.9435 75.8446C54.1199 76.0187 54.258 76.239 54.3566 76.5059C54.4558 76.7612 54.5051 77.063 54.5051 77.3937C54.5051 77.5272 54.4912 77.614 54.4634 77.6547C54.4355 77.6953 54.3833 77.7187 54.3055 77.7187H51.1632C51.1725 78.0146 51.213 78.2756 51.2838 78.4961C51.3581 78.7165 51.4602 78.8965 51.5902 79.0474C51.7201 79.1924 51.8751 79.3026 52.0543 79.378C52.2342 79.4476 52.435 79.4825 52.6578 79.4825C52.8655 79.4825 53.043 79.4593 53.1916 79.4128C53.3436 79.3664 53.4735 79.3142 53.5815 79.2562C53.6899 79.1982 53.7799 79.1516 53.8507 79.1052C53.9249 79.053 53.9888 79.0298 54.041 79.0298C54.1094 79.0298 54.1617 79.053 54.1988 79.1052L54.4309 79.4069ZM61.0423 77.2022C61.0423 77.0108 61.0145 76.8368 60.9588 76.6801C60.9066 76.5176 60.8276 76.3842 60.722 76.2682C60.6199 76.1521 60.4946 76.0592 60.3461 75.9954C60.1975 75.9315 60.0293 75.9024 59.8401 75.9024C59.4444 75.9024 59.13 76.0185 58.8979 76.2506C58.6693 76.4769 58.5265 76.7961 58.4708 77.2022H61.0423ZM61.7107 79.4069C61.6086 79.5345 61.4868 79.639 61.344 79.7318C61.2019 79.8247 61.0487 79.9002 60.8845 79.9582C60.7238 80.0162 60.5567 80.0567 60.3832 80.0857C60.2103 80.1205 60.0386 80.1321 59.868 80.1321C59.5431 80.1321 59.2431 80.0801 58.9675 79.9698C58.6954 79.8596 58.4587 79.6971 58.2573 79.4882C58.0595 79.2735 57.9045 79.0125 57.7931 78.6992C57.6817 78.3859 57.6261 78.026 57.6261 77.6198C57.6261 77.2949 57.676 76.9876 57.7746 76.7033C57.8767 76.419 58.0223 76.1753 58.2109 75.9665C58.4001 75.7576 58.6304 75.5893 58.9025 75.4732C59.1752 75.3514 59.4816 75.2933 59.8216 75.2933C60.1035 75.2933 60.3635 75.3397 60.6013 75.4384C60.8427 75.5312 61.0504 75.6648 61.2233 75.8446C61.3997 76.0187 61.5378 76.239 61.6364 76.5059C61.7356 76.7612 61.785 77.063 61.785 77.3937C61.785 77.5272 61.7711 77.614 61.7432 77.6547C61.7154 77.6953 61.6631 77.7187 61.5854 77.7187H58.443C58.4523 78.0146 58.4929 78.2756 58.5637 78.4961C58.6379 78.7165 58.74 78.8965 58.87 79.0474C59 79.1924 59.1549 79.3026 59.3342 79.378C59.514 79.4476 59.7148 79.4825 59.9376 79.4825C60.1453 79.4825 60.3229 79.4593 60.4714 79.4128C60.6234 79.3664 60.7534 79.3142 60.8613 79.2562C60.9698 79.1982 61.0597 79.1516 61.1305 79.1052C61.2048 79.053 61.2686 79.0298 61.3208 79.0298C61.3893 79.0298 61.4415 79.053 61.4786 79.1052L61.7107 79.4069ZM65.5383 76.1404C65.5012 76.21 65.4443 76.2449 65.3666 76.2449C65.3202 76.2449 65.2679 76.2273 65.2087 76.1925C65.1501 76.1577 65.0776 76.1229 64.9906 76.0823C64.907 76.0359 64.8067 76.0013 64.6889 75.9665C64.5717 75.9258 64.4324 75.9084 64.2712 75.9084C64.1319 75.9084 64.0066 75.9258 63.8952 75.9665C63.7838 76.0013 63.6881 76.0477 63.6074 76.1115C63.5302 76.1695 63.4699 76.2447 63.4264 76.326C63.3863 76.4072 63.366 76.4942 63.366 76.5928C63.366 76.7147 63.4002 76.8133 63.4681 76.8946C63.5395 76.9758 63.6323 77.0456 63.7467 77.1036C63.8615 77.1617 63.9915 77.2139 64.1365 77.2603C64.2822 77.3009 64.4307 77.3531 64.5821 77.4054C64.7371 77.4518 64.8873 77.5098 65.0324 77.5736C65.178 77.6317 65.308 77.7128 65.4223 77.8057C65.5372 77.8985 65.6282 78.0086 65.6961 78.1479C65.7675 78.2813 65.8029 78.438 65.8029 78.6295C65.8029 78.8442 65.7646 79.0473 65.6869 79.2329C65.6097 79.4128 65.4954 79.5752 65.3433 79.7086C65.1919 79.8421 65.0063 79.9467 64.7864 80.0279C64.5671 80.1033 64.3129 80.1438 64.0251 80.1438C63.6973 80.1438 63.4003 80.0915 63.1339 79.9871C62.8682 79.8769 62.6419 79.7378 62.4563 79.5695L62.6512 79.2562C62.6762 79.2156 62.7057 79.1865 62.7394 79.1632C62.7736 79.14 62.8172 79.1284 62.8694 79.1284C62.9251 79.1284 62.9843 79.1517 63.0458 79.1981C63.1078 79.2387 63.1821 79.2853 63.2685 79.3375C63.3585 79.3897 63.467 79.4419 63.5935 79.4825C63.7205 79.5289 63.8784 79.5463 64.0669 79.5463C64.2282 79.5463 64.3686 79.5288 64.4893 79.4882C64.61 79.4476 64.7109 79.3897 64.791 79.3143C64.8717 79.2446 64.9303 79.1632 64.9674 79.0703C65.008 78.9775 65.0277 78.879 65.0277 78.7746C65.0277 78.6411 64.9923 78.5368 64.921 78.4556C64.8531 78.3685 64.762 78.2929 64.6471 78.2349C64.5328 78.171 64.4011 78.1188 64.2526 78.0782C64.1075 78.0318 63.9573 77.9854 63.8024 77.9331C63.6509 77.8809 63.5006 77.8287 63.3521 77.7649C63.2071 77.701 63.0771 77.62 62.9622 77.5272C62.8479 77.4285 62.7551 77.3123 62.6837 77.173C62.6158 77.028 62.5816 76.8599 62.5816 76.6569C62.5816 76.477 62.6187 76.3029 62.693 76.1404C62.7672 75.9721 62.8757 75.8271 63.0179 75.7053C63.1606 75.5776 63.3353 75.479 63.5424 75.4035C63.7501 75.3281 63.9869 75.2933 64.2526 75.2933C64.5624 75.2933 64.8392 75.3397 65.0834 75.4384C65.3312 75.537 65.5447 75.6704 65.724 75.8387L65.5383 76.1404ZM73.0578 75.3687V80.0684H72.5657C72.448 80.0684 72.3737 80.0105 72.343 79.8945L72.278 79.3896C72.0737 79.6159 71.8445 79.8014 71.591 79.9406C71.3374 80.0741 71.0462 80.1438 70.7184 80.1438C70.4614 80.1438 70.2339 80.1033 70.036 80.0163C69.8411 79.9292 69.6769 79.8073 69.5441 79.6565C69.4112 79.4998 69.3102 79.314 69.2423 79.0936C69.1774 78.8731 69.1449 78.6295 69.1449 78.3626V75.3687H69.9711V78.3626C69.9711 78.7224 70.0517 78.9952 70.2124 79.1924C70.3766 79.3839 70.6256 79.4825 70.9598 79.4825C71.204 79.4825 71.4314 79.4245 71.6421 79.3143C71.8556 79.1924 72.0523 79.0356 72.2315 78.8267V75.3687H73.0578ZM75.1477 76.0475C75.2498 75.9314 75.3583 75.8329 75.4726 75.7401C75.5869 75.6473 75.7076 75.5659 75.8346 75.5021C75.9646 75.4325 76.1009 75.3803 76.2431 75.3455C76.3887 75.3106 76.5448 75.2933 76.7119 75.2933C76.9689 75.2933 77.1946 75.3341 77.3896 75.4211C77.5874 75.5081 77.7516 75.6241 77.8816 75.7866C78.0145 75.9374 78.1154 76.1289 78.1833 76.3435C78.2512 76.564 78.2854 76.8076 78.2854 77.0745V80.0684H77.4546V77.0745C77.4546 76.7205 77.3727 76.4421 77.2085 76.2506C77.0478 76.0475 76.8018 75.9489 76.4705 75.9489C76.2263 75.9489 75.9971 76.0127 75.7836 76.1288C75.5729 76.2448 75.378 76.4072 75.1987 76.6045V80.0684H74.3679V75.3687H74.8645C74.9823 75.3687 75.0548 75.4209 75.0827 75.537L75.1477 76.0475ZM81.9198 80.0684V75.3687H82.4165C82.5337 75.3687 82.6068 75.4209 82.6346 75.537L82.695 76.0186C82.8679 75.8097 83.0628 75.6299 83.2798 75.4965C83.4962 75.363 83.7469 75.2933 84.0318 75.2933C84.3474 75.2933 84.6027 75.3805 84.7976 75.5545C84.9955 75.7344 85.1376 75.9721 85.2247 76.2738C85.2926 76.0998 85.379 75.9549 85.4846 75.833C85.5925 75.7054 85.7132 75.6066 85.8466 75.5254C85.9795 75.4441 86.1205 75.3861 86.269 75.3455C86.4205 75.3106 86.5736 75.2933 86.7286 75.2933C86.9757 75.2933 87.1956 75.3339 87.3877 75.4151C87.5826 75.4906 87.7462 75.6065 87.8797 75.7574C88.0155 75.9082 88.1193 76.094 88.1907 76.3203C88.2615 76.535 88.2974 76.7902 88.2974 77.0745V80.0684H87.4666V77.0745C87.4666 76.7089 87.3859 76.4305 87.2252 76.239C87.0639 76.0475 86.8318 75.9489 86.529 75.9489C86.3926 75.9489 86.2627 75.9778 86.1391 76.0243C86.0184 76.0707 85.9116 76.1405 85.8188 76.2333C85.726 76.3262 85.6517 76.4421 85.596 76.5872C85.5432 76.7264 85.5171 76.8888 85.5171 77.0745V80.0684H84.6862V77.0745C84.6862 76.6973 84.6102 76.413 84.4588 76.2274C84.3068 76.0417 84.0857 75.9489 83.795 75.9489C83.5908 75.9489 83.4017 76.0069 83.2288 76.1172C83.0553 76.2274 82.8957 76.3725 82.7507 76.5639V80.0684H81.9198ZM93.492 75.3687L90.8695 81.4552C90.8416 81.519 90.8057 81.5653 90.7627 81.6059C90.7221 81.6407 90.6589 81.6583 90.5724 81.6583H89.9597L90.8184 79.7956L88.8782 75.3687H89.593C89.6638 75.3687 89.7195 75.3863 89.7601 75.4211C89.803 75.4559 89.8327 75.4964 89.8483 75.537L91.1062 78.5017C91.1555 78.6294 91.1973 78.7629 91.2315 78.908C91.2745 78.7629 91.3209 78.6237 91.3708 78.4961L92.5915 75.537C92.6101 75.4906 92.6408 75.45 92.6844 75.4151C92.7308 75.3861 92.7818 75.3687 92.8375 75.3687H93.492ZM95.6655 80.1438C95.2941 80.1438 95.0075 80.0393 94.8067 79.8304C94.6083 79.6216 94.5097 79.3256 94.5097 78.9369V76.0591H93.9434C93.8935 76.0591 93.8517 76.0418 93.8181 76.0186C93.7838 75.9838 93.767 75.9372 93.767 75.8792V75.5486L94.5375 75.45L94.7278 73.9995C94.7371 73.9531 94.7568 73.9123 94.7882 73.8833C94.8218 73.8543 94.8653 73.8369 94.9181 73.8369H95.3359V75.4616H96.6959V76.0591H95.3359V78.8791C95.3359 79.0764 95.3835 79.2271 95.4798 79.3199C95.5755 79.4185 95.6991 79.465 95.8511 79.465C95.9376 79.465 96.0118 79.4533 96.0739 79.4301C96.1389 79.4069 96.1946 79.3838 96.241 79.3548C96.2874 79.3258 96.3257 79.3026 96.357 79.2794C96.3907 79.2562 96.4203 79.2446 96.4452 79.2446C96.4882 79.2446 96.5271 79.2677 96.5613 79.3199L96.8026 79.7146C96.6599 79.848 96.4882 79.9523 96.2874 80.0336C96.0861 80.1032 95.879 80.1438 95.6655 80.1438ZM98.3796 75.9954C98.581 75.7807 98.8038 75.6067 99.048 75.4848C99.2923 75.3572 99.5743 75.2933 99.8928 75.2933C100.15 75.2933 100.376 75.3341 100.57 75.4211C100.768 75.5081 100.933 75.6241 101.063 75.7866C101.195 75.9374 101.296 76.1289 101.364 76.3435C101.432 76.564 101.466 76.8076 101.466 77.0745V80.0684H100.635V77.0745C100.635 76.7205 100.554 76.4421 100.389 76.2506C100.229 76.0475 99.9828 75.9489 99.6515 75.9489C99.4072 75.9489 99.178 76.0127 98.9645 76.1288C98.7539 76.2448 98.5589 76.4072 98.3796 76.6045V80.0684H97.5488V73.2337H98.3796V75.9954ZM102.586 79.5579C102.586 79.4767 102.6 79.4012 102.628 79.3315C102.659 79.2619 102.699 79.1982 102.749 79.146C102.801 79.0937 102.863 79.053 102.934 79.0182C103.006 78.9892 103.081 78.9717 103.162 78.9717C103.242 78.9717 103.318 78.9892 103.389 79.0182C103.46 79.053 103.522 79.0937 103.575 79.146C103.628 79.1982 103.669 79.2619 103.7 79.3315C103.731 79.4012 103.747 79.4767 103.747 79.5579C103.747 79.6391 103.731 79.7203 103.7 79.7899C103.669 79.8595 103.628 79.9176 103.575 79.9698C103.522 80.022 103.46 80.0626 103.389 80.0916C103.318 80.1206 103.242 80.1381 103.162 80.1381C103.081 80.1381 103.006 80.1206 102.934 80.0916C102.863 80.0626 102.801 80.022 102.749 79.9698C102.699 79.9176 102.659 79.8595 102.628 79.7899C102.6 79.7203 102.586 79.6391 102.586 79.5579ZM104.502 72.9725C104.632 73.193 104.72 73.4252 104.767 73.6689C104.813 73.9126 104.818 74.1562 104.78 74.3941C104.743 74.632 104.666 74.8581 104.548 75.0786C104.431 75.2991 104.275 75.4907 104.08 75.6647L103.829 75.5021C103.783 75.4731 103.761 75.4383 103.764 75.3919C103.77 75.3455 103.785 75.3107 103.81 75.2817C103.891 75.1831 103.959 75.0671 104.015 74.9279C104.073 74.7828 104.11 74.6319 104.126 74.4695C104.145 74.307 104.137 74.1387 104.103 73.9646C104.072 73.7906 104.008 73.6224 103.912 73.4657C103.872 73.3961 103.86 73.3437 103.875 73.2915C103.894 73.2393 103.933 73.1988 103.991 73.1756L104.502 72.9725ZM105.913 72.9725C106.043 73.193 106.131 73.4252 106.178 73.6689C106.224 73.9126 106.229 74.1562 106.192 74.3941C106.154 74.632 106.077 74.8581 105.959 75.0786C105.842 75.2991 105.686 75.4907 105.491 75.6647L105.24 75.5021C105.194 75.4731 105.172 75.4383 105.175 75.3919C105.181 75.3455 105.196 75.3107 105.221 75.2817C105.302 75.1831 105.37 75.0671 105.426 74.9279C105.484 74.7828 105.521 74.6319 105.537 74.4695C105.556 74.307 105.548 74.1387 105.514 73.9646C105.483 73.7906 105.419 73.6224 105.324 73.4657C105.284 73.3961 105.271 73.3437 105.286 73.2915C105.305 73.2393 105.344 73.1988 105.402 73.1756L105.913 72.9725Z" fill="#484848"/>
</g>
<defs>
<filter id="filter0_d_2_1357" x="-24.0142" y="-18.0107" width="218.028" height="145.503" filterUnits="userSpaceOnUse" color-interpolation-filters="sRGB">
<feFlood flood-opacity="0" result="BackgroundImageFix"/>
<feColorMatrix in="SourceAlpha" type="matrix" values="0 0 0 0 0 0 0 0 0 0 0 0 0 0 0 0 0 0 127 0" result="hardAlpha"/>
<feOffset dy="6"/>
<feGaussianBlur stdDeviation="12"/>
<feComposite in2="hardAlpha" operator="out"/>
<feColorMatrix type="matrix" values="0 0 0 0 0.279167 0 0 0 0 0.279167 0 0 0 0 0.279167 0 0 0 0.08 0"/>
<feBlend mode="normal" in2="BackgroundImageFix" result="effect1_dropShadow_2_1357"/>
<feBlend mode="normal" in="SourceGraphic" in2="effect1_dropShadow_2_1357" result="shape"/>
</filter>
</defs>
</svg>
