<svg width="9" height="12" viewBox="0 0 9 12" fill="none" xmlns="http://www.w3.org/2000/svg">
<mask id="mask0_2_1214" style="mask-type:luminance" maskUnits="userSpaceOnUse" x="-3" y="-2" width="15" height="16">
<path d="M11.4002 -1.19995H-2.99987V13.2001H11.4002V-1.19995Z" fill="white"/>
</mask>
<g mask="url(#mask0_2_1214)">
<path d="M4.20002 0C1.87801 0 0 1.87801 0 4.20002C0 7.35003 4.20002 12.0001 4.20002 12.0001C4.20002 12.0001 8.40004 7.35003 8.40004 4.20002C8.40004 1.87801 6.52203 0 4.20002 0ZM1.20001 4.20002C1.20001 2.54401 2.54401 1.20001 4.20002 1.20001C5.85603 1.20001 7.20003 2.54401 7.20003 4.20002C7.20003 5.92803 5.47203 8.51397 4.20002 10.128C2.95201 8.52597 1.20001 5.91003 1.20001 4.20002Z" fill="#F0F0F0"/>
<path d="M4.20002 5.70003C5.02802 5.70003 5.70003 5.02802 5.70003 4.20002C5.70003 3.37202 5.02802 2.70001 4.20002 2.70001C3.37202 2.70001 2.70001 3.37202 2.70001 4.20002C2.70001 5.02802 3.37202 5.70003 4.20002 5.70003Z" fill="#F0F0F0"/>
</g>
</svg>
