<svg width="11" height="11" viewBox="0 0 11 11" fill="none" xmlns="http://www.w3.org/2000/svg">
<mask id="mask0_2_1507" style="mask-type:luminance" maskUnits="userSpaceOnUse" x="-2" y="-2" width="16" height="16">
<path d="M13.2075 -1.8867H-1.88684V13.2076H13.2075V-1.8867Z" fill="white"/>
</mask>
<g mask="url(#mask0_2_1507)">
<path d="M7.86164 6.91824H7.36476L7.18871 6.74843C7.80507 6.03145 8.1761 5.10063 8.1761 4.08805C8.1761 1.83019 6.34591 0 4.08805 0C1.83019 0 0 1.83019 0 4.08805C0 6.34591 1.83019 8.1761 4.08805 8.1761C5.10063 8.1761 6.03144 7.80503 6.74842 7.18868L6.91824 7.36478V7.86164L10.0629 11L11 10.0629L7.86164 6.91824ZM4.08805 6.91824C2.52201 6.91824 1.25786 5.65409 1.25786 4.08805C1.25786 2.52201 2.52201 1.25786 4.08805 1.25786C5.65409 1.25786 6.91824 2.52201 6.91824 4.08805C6.91824 5.65409 5.65409 6.91824 4.08805 6.91824Z" fill="white"/>
</g>
</svg>
