<svg width="140" height="36" viewBox="0 0 140 36" fill="none" xmlns="http://www.w3.org/2000/svg">
<path d="M21.4226 1.25959L21.7089 7.32381H20.9841C20.8442 6.25673 20.6535 5.49291 20.4115 5.03809C20.0173 4.29755 19.4896 3.7551 18.8284 3.4169C18.18 3.05538 17.3211 2.88049 16.2528 2.88049H12.6096V22.6419C12.6096 24.2338 12.781 25.225 13.1245 25.6215C13.6079 26.1521 14.3519 26.4204 15.3566 26.4204H16.2528V27.126H5.28408V26.4204H6.20013C7.29345 26.4204 8.06957 26.0879 8.52731 25.429C8.8072 25.0209 8.94713 24.0939 8.94713 22.6419V2.88049H5.83743C4.62925 2.88049 3.77091 2.96794 3.26244 3.1487C2.60062 3.38777 2.03502 3.85433 1.56446 4.54239C1.09389 5.22462 0.814022 6.1576 0.725391 7.32381H0L0.305538 1.25959H21.4226ZM27.6607 9.13718V13.0674C29.1231 10.4493 30.624 9.13718 32.1628 9.13718C32.8619 9.13718 33.4404 9.35284 33.8987 9.78434C34.3564 10.2042 34.585 10.694 34.585 11.2538C34.585 11.7494 34.42 12.1693 34.0893 12.5134C33.7587 12.8574 33.3645 13.0264 32.9062 13.0264C32.4613 13.0264 31.9593 12.8108 31.3995 12.3793C30.8526 11.9361 30.4456 11.7144 30.1785 11.7144C29.9499 11.7144 29.7015 11.8371 29.4344 12.0937C28.8624 12.6127 28.2712 13.4756 27.6607 14.671V23.0442C27.6607 24.0122 27.7813 24.7409 28.0227 25.2366C28.1883 25.5806 28.4811 25.8664 28.9003 26.0939C29.3202 26.3271 29.9243 26.4378 30.7126 26.4378V27.126H21.7661V26.4378C22.6565 26.4378 23.3177 26.298 23.7498 26.0181C24.0681 25.814 24.2903 25.4934 24.4174 25.0444C24.481 24.8286 24.5131 24.2161 24.5131 23.1957V16.426C24.5131 14.3909 24.4687 13.1841 24.3795 12.7992C24.3031 12.4085 24.1504 12.1169 23.9218 11.9419C23.7055 11.7612 23.432 11.6737 23.1014 11.6737C22.7072 11.6737 22.2623 11.7672 21.7661 11.9596L21.5754 11.2714L26.8595 9.13718H27.6607ZM38.4959 16.2335C38.483 18.8283 39.1128 20.8635 40.3845 22.3387C41.6563 23.814 43.1502 24.5487 44.8674 24.5487C46.0121 24.5487 47.0039 24.2396 47.843 23.6157C48.6949 22.9801 49.4075 21.9013 49.9795 20.3736L50.5708 20.7525C50.3037 22.496 49.5282 24.088 48.2436 25.5224C46.959 26.9452 45.3502 27.6624 43.4172 27.6624C41.3192 27.6624 39.5198 26.8461 38.0189 25.2192C36.5308 23.5807 35.7868 21.3767 35.7868 18.6186C35.7868 15.6273 36.5501 13.3006 38.076 11.6387C39.6148 9.95937 41.5414 9.11981 43.8563 9.11981C45.815 9.11981 47.4232 9.7671 48.6827 11.0616C49.9416 12.3502 50.5708 14.0702 50.5708 16.2335H38.4959ZM38.4959 15.1257H46.5841C46.5205 14.0061 46.387 13.219 46.1835 12.7642C45.8657 12.047 45.3887 11.4873 44.7526 11.0849C44.1298 10.6768 43.475 10.4725 42.7881 10.4725C41.7327 10.4725 40.7851 10.8864 39.9455 11.7144C39.1192 12.525 38.6358 13.6621 38.4959 15.1257ZM58.0106 12.8399C60.0584 10.3734 62.0101 9.13718 63.8672 9.13718C64.8206 9.13718 65.641 9.37638 66.3279 9.86036C67.0148 10.3327 67.5612 11.1139 67.9682 12.2101C68.2481 12.974 68.3881 14.1402 68.3881 15.7204V23.1783C68.3881 24.2862 68.4772 25.0325 68.6551 25.429C68.795 25.7439 69.0178 25.9947 69.3228 26.1696C69.6405 26.3503 70.2196 26.4378 71.0586 26.4378V27.126H62.4171V26.4378H62.7798C63.5938 26.4378 64.1594 26.3214 64.4777 26.0765C64.8084 25.8199 65.0369 25.4523 65.1641 24.9684C65.2154 24.7818 65.2405 24.1813 65.2405 23.1783V16.0237C65.2405 14.4318 65.0305 13.2831 64.6113 12.5717C64.2043 11.8487 63.511 11.4813 62.5319 11.4813C61.0182 11.4813 59.5115 12.3094 58.0106 13.9654V23.1783C58.0106 24.362 58.0805 25.0911 58.2205 25.371C58.3983 25.7383 58.6403 26.0122 58.9453 26.1929C59.2631 26.3562 59.8993 26.4378 60.8532 26.4378V27.126H52.2116V26.4378H52.593C53.4834 26.4378 54.081 26.2164 54.386 25.7733C54.7044 25.3126 54.863 24.4495 54.863 23.1783V16.6885C54.863 14.5951 54.8122 13.3121 54.7108 12.8573C54.6216 12.3967 54.4752 12.0878 54.2717 11.9246C54.081 11.7555 53.8204 11.6737 53.4898 11.6737C53.1335 11.6737 52.7073 11.7672 52.2116 11.9596L51.9253 11.2714L57.1901 9.13718H58.0106V12.8399ZM84.7936 25.1608C83.9417 26.053 83.1085 26.6946 82.2945 27.0852C81.4805 27.4701 80.6029 27.6624 79.6623 27.6624C77.7544 27.6624 76.0885 26.8636 74.664 25.2776C73.2401 23.674 72.5275 21.6213 72.5275 19.114C72.5275 16.6066 73.3158 14.321 74.8931 12.2452C76.4698 10.1635 78.4985 9.11981 80.9784 9.11981C82.5172 9.11981 83.7889 9.60963 84.7936 10.5892V7.36452C84.7936 5.36448 84.7429 4.14006 84.6409 3.67941C84.5517 3.22459 84.4059 2.90966 84.2024 2.74639C83.9989 2.58312 83.7446 2.50153 83.4391 2.50153C83.1085 2.50153 82.67 2.60067 82.123 2.80476L81.8746 2.13425L87.0829 0H87.9412V20.1988C87.9412 22.2513 87.9855 23.499 88.0748 23.9596C88.1762 24.4028 88.329 24.7177 88.5325 24.8926C88.7488 25.0734 88.9967 25.1608 89.2766 25.1608C89.62 25.1608 90.0777 25.05 90.6498 24.8343L90.8597 25.5051L85.6712 27.6624H84.7936V25.1608ZM84.7936 23.8255V14.8224C84.7172 13.9594 84.4881 13.1664 84.1067 12.455C83.7254 11.7436 83.2163 11.2072 82.5808 10.8515C81.9574 10.4841 81.3469 10.3034 80.7492 10.3034C79.6303 10.3034 78.632 10.8049 77.7544 11.8078C76.597 13.1315 76.0185 15.0617 76.0185 17.6098C76.0185 20.1755 76.5783 22.1462 77.6973 23.5223C78.8162 24.8809 80.0629 25.5631 81.4361 25.5631C82.5936 25.5631 83.7126 24.9859 84.7936 23.8255ZM96.4301 0C96.9642 0 97.4155 0.192413 97.7846 0.571429C98.166 0.938784 98.3566 1.3935 98.3566 1.92413C98.3566 2.46058 98.166 2.91561 97.7846 3.30045C97.4155 3.67947 96.9642 3.87188 96.4301 3.87188C95.8959 3.87188 95.4382 3.67947 95.0563 3.30045C94.6749 2.91561 94.4842 2.46058 94.4842 1.92413C94.4842 1.3935 94.6685 0.938784 95.0376 0.571429C95.419 0.192413 95.8831 0 96.4301 0ZM98.0132 9.13718V23.1783C98.0132 24.2687 98.0896 25.0036 98.2423 25.371C98.4073 25.7266 98.6429 25.9947 98.9479 26.1696C99.2663 26.3503 99.8383 26.4378 100.665 26.4378V27.126H92.1757V26.4378C93.0282 26.4378 93.6003 26.3562 93.893 26.1929C94.1851 26.0238 94.4143 25.75 94.5799 25.371C94.7577 24.9919 94.8469 24.2571 94.8469 23.1783V16.4436C94.8469 14.5485 94.7892 13.324 94.6749 12.7642C94.5857 12.356 94.4463 12.0762 94.2551 11.9246C94.0644 11.7555 93.8037 11.6737 93.4731 11.6737C93.1168 11.6737 92.6848 11.7672 92.1757 11.9596L91.9087 11.2714L97.1741 9.13718H98.0132ZM107.952 12.8399C109.999 10.3734 111.952 9.13718 113.808 9.13718C114.762 9.13718 115.583 9.37638 116.269 9.86036C116.956 10.3327 117.503 11.1139 117.91 12.2101C118.19 12.974 118.33 14.1402 118.33 15.7204V23.1783C118.33 24.2862 118.418 25.0325 118.597 25.429C118.736 25.7439 118.959 25.9947 119.264 26.1696C119.582 26.3503 120.161 26.4378 121 26.4378V27.126H112.359V26.4378H112.721C113.535 26.4378 114.101 26.3214 114.419 26.0765C114.749 25.8199 114.979 25.4523 115.106 24.9684C115.156 24.7818 115.182 24.1813 115.182 23.1783V16.0237C115.182 14.4318 114.972 13.2831 114.552 12.5717C114.145 11.8487 113.452 11.4813 112.473 11.4813C110.96 11.4813 109.452 12.3094 107.952 13.9654V23.1783C107.952 24.362 108.022 25.0911 108.162 25.371C108.34 25.7383 108.581 26.0122 108.887 26.1929C109.205 26.3562 109.84 26.4378 110.794 26.4378V27.126H102.153V26.4378H102.535C103.424 26.4378 104.022 26.2164 104.328 25.7733C104.645 25.3126 104.805 24.4495 104.805 23.1783V16.6885C104.805 14.5951 104.753 13.3121 104.652 12.8573C104.563 12.3967 104.417 12.0878 104.213 11.9246C104.022 11.7555 103.761 11.6737 103.431 11.6737C103.075 11.6737 102.649 11.7672 102.153 11.9596L101.867 11.2714L107.132 9.13718H107.952V12.8399ZM127.066 20.7525C125.998 20.2336 125.178 19.5105 124.606 18.5776C124.033 17.6388 123.747 16.6008 123.747 15.4696C123.747 13.7436 124.396 12.2509 125.692 11.0089C127.003 9.76107 128.675 9.13718 130.709 9.13718C132.376 9.13718 133.819 9.54554 135.04 10.3561H138.741C139.288 10.3561 139.606 10.3792 139.695 10.4141C139.784 10.4433 139.847 10.4901 139.885 10.5659C139.962 10.6825 140 10.8865 140 11.178C140 11.5104 139.968 11.7379 139.904 11.8662C139.867 11.9303 139.797 11.9769 139.695 12.0177C139.606 12.0585 139.288 12.076 138.741 12.076H136.471C137.183 12.9915 137.539 14.1577 137.539 15.5863C137.539 17.2132 136.916 18.6069 135.669 19.7614C134.423 20.9218 132.751 21.4991 130.652 21.4991C129.788 21.4991 128.904 21.3707 128.001 21.1141C127.441 21.5981 127.06 22.0239 126.856 22.3971C126.666 22.7528 126.57 23.0559 126.57 23.3124C126.57 23.5282 126.672 23.7382 126.876 23.9422C127.092 24.1463 127.505 24.2921 128.115 24.3796C128.472 24.432 129.362 24.4728 130.786 24.5137C133.406 24.5778 135.104 24.6652 135.879 24.7819C137.062 24.9451 138.003 25.3825 138.703 26.0939C139.415 26.8052 139.771 27.6857 139.771 28.7295C139.771 30.1639 139.097 31.511 137.749 32.7705C135.765 34.6306 133.177 35.5576 129.985 35.5576C127.53 35.5576 125.457 35.0036 123.766 33.8957C122.813 33.2601 122.336 32.6013 122.336 31.9132C122.336 31.61 122.406 31.3011 122.545 30.9978C122.761 30.5255 123.207 29.8724 123.881 29.0327C123.969 28.9219 124.618 28.234 125.826 26.9745C125.165 26.578 124.694 26.2279 124.415 25.9247C124.148 25.604 124.014 25.2483 124.014 24.8576C124.014 24.4086 124.192 23.8897 124.548 23.2891C124.917 22.6943 125.757 21.8488 127.066 20.7525ZM130.385 10.0528C129.444 10.0528 128.656 10.4258 128.02 11.178C127.384 11.9302 127.066 13.0789 127.066 14.63C127.066 16.6417 127.498 18.1986 128.364 19.3065C129.025 20.1461 129.864 20.566 130.881 20.566C131.848 20.566 132.643 20.1986 133.266 19.4756C133.889 18.7525 134.201 17.6154 134.201 16.0644C134.201 14.041 133.762 12.455 132.884 11.3121C132.236 10.4725 131.403 10.0528 130.385 10.0528ZM126.876 27.126C126.278 27.7732 125.826 28.3795 125.521 28.9393C125.216 29.4991 125.063 30.0122 125.063 30.4845C125.063 31.0909 125.432 31.6274 126.169 32.088C127.441 32.8752 129.279 33.2659 131.683 33.2659C133.972 33.2659 135.657 32.8637 136.738 32.0473C137.832 31.2485 138.378 30.3855 138.378 29.47C138.378 28.8111 138.054 28.3389 137.405 28.059C136.744 27.7791 135.434 27.6158 133.476 27.5633C130.614 27.4875 128.414 27.3417 126.876 27.126Z" fill="#1F1F1F"/>
</svg>
